<svg viewBox="25.363636363636374 11.75 42.27272727272729 70.50000000000001" fill="none" xmlns="http://www.w3.org/2000/svg" xmlns:xlink="http://www.w3.org/1999/xlink" xmlns:blush="http://design.blush" overflow="visible" width="42.27272727272729px" height="70.50000000000001px"><g id="Master/New Stickers/Chair" blush:has-customizable-colors="true" blush:viewBox="25.598484848484844 11.75 41.33333333333334 70.50000000000001" blush:i="0"><g id="Chair" blush:i="0.0"><path id="Fill 1" fill-rule="evenodd" clip-rule="evenodd" d="M56.5935 44.576L64.7654 77.5871C64.6003 78.1368 63.9399 78.3558 63.4787 78.013L63.4368 77.9825L54.3551 44.7645L56.5935 44.576Z" fill="#D69E63" blush:i="0.0.0"/><path id="Fill 3" fill-rule="evenodd" clip-rule="evenodd" d="M47.4734 46.0111L47.1761 81.7128C46.8764 82.2022 46.1819 82.2452 45.8236 81.7972L45.7913 81.7565L45.2607 45.6229L47.4734 46.0111Z" fill="#D69E63" blush:i="0.0.1"/><path id="Fill 5" fill-rule="evenodd" clip-rule="evenodd" d="M46.47 40.2466L42.1307 75.6845C41.7772 76.1367 41.0821 76.1008 40.777 75.6151L40.7495 75.5714L44.3153 39.6101L46.47 40.2466Z" fill="#D69E63" blush:i="0.0.2"/><path id="Fill 7" fill-rule="evenodd" clip-rule="evenodd" d="M36.4597 41.9098L27.3906 76.442C26.9796 76.8422 26.2959 76.7142 26.059 76.1914L26.0375 76.1435L34.4104 40.9897L36.4597 41.9098Z" fill="#D69E63" blush:i="0.0.3"/><path id="Fill 9" fill-rule="evenodd" clip-rule="evenodd" d="M55.2037 20.0724C55.2037 20.0724 63.1393 21.2496 66.0878 18.3011C69.0363 15.3527 63.707 12.6608 57.4888 12.2409C50.0874 11.7414 42.5562 14.6624 47.5517 17.4463C52.5478 20.2309 55.2037 20.0724 55.2037 20.0724" fill="#D69E63" blush:i="0.0.4"/><path id="Fill 11" fill-rule="evenodd" clip-rule="evenodd" d="M62.1312 19.1669C62.1312 19.1669 57.4677 39.6322 56.97 40.1753C56.4717 40.7185 55.6115 39.8134 55.6115 39.8134C55.6115 39.8134 59.8222 20.797 60.5466 19.8465C61.271 18.8953 62.1312 19.1669 62.1312 19.1669" fill="#D69E63" blush:i="0.0.5"/><path id="Fill 13" fill-rule="evenodd" clip-rule="evenodd" d="M56.0655 18.8503C56.0655 18.8503 54.6167 31.8897 52.6696 38.7718C52.6696 38.7718 52.4435 39.3604 51.8997 39.3604C51.3565 39.3604 51.3565 38.8622 51.3565 38.8622C51.3565 38.8622 53.5752 16.4504 56.0655 18.8503" fill="#D69E63" blush:i="0.0.6"/><path id="Fill 15" fill-rule="evenodd" clip-rule="evenodd" d="M50.9479 18.126C50.9479 18.126 49.3178 37.5498 48.8201 38.4549C48.3219 39.3606 47.5071 38.4094 47.5071 38.4094C47.5071 38.4094 49.1821 18.7601 49.8161 17.1295C50.4496 15.4994 50.9479 18.126 50.9479 18.126" fill="#D69E63" blush:i="0.0.7"/><path id="Fill 17" fill-rule="evenodd" clip-rule="evenodd" d="M32.6571 41.1263C32.6571 41.1263 51.7184 34.5606 58.6006 41.4428C58.6006 41.4428 58.2387 42.4848 54.616 44.0239C50.994 45.5631 45.063 45.6086 41.9841 44.8841C38.9052 44.1597 33.1554 42.7564 32.6571 41.1263" fill="#D69E63" blush:i="0.0.8"/><path id="Fill 19" fill-rule="evenodd" clip-rule="evenodd" d="M32.6571 41.1265C32.6571 41.1265 40.7339 44.5673 44.2381 44.5104C47.7423 44.4536 58.6006 41.4429 58.6006 41.4429L58.5946 44.0301C58.5946 44.0301 58.0574 44.8777 57.9731 44.8777C57.8881 44.8777 46.6404 47.9584 42.1749 47.1108C37.71 46.2625 32.51 44.0301 32.51 44.0301C32.51 44.0301 32.4089 41.5859 32.6571 41.1265" fill="#AA7133" blush:i="0.0.9"/></g></g></svg>