<svg viewBox="89.53750000000002 25.049132947976886 64.83749999999999 163.9017341040462" fill="none" xmlns="http://www.w3.org/2000/svg" xmlns:xlink="http://www.w3.org/1999/xlink" xmlns:blush="http://design.blush" overflow="visible" width="64.83749999999999px" height="163.9017341040462px"><g id="Master/Stickers/Pearls" blush:has-customizable-colors="true" blush:viewBox="91.38999999999999 24.834872979214794 62.985000000000056 163.09468822170902" blush:i="0"><g id="Group 43 Copy" blush:i="0.0"><path id="Fill 984" fill-rule="evenodd" clip-rule="evenodd" d="M131.033 77.3371C129.515 77.5371 127.837 77.5341 126.165 77.6051C125.22 77.6441 124.261 77.6171 123.313 77.6571C122.165 77.7071 121.019 77.7251 119.878 77.6261C118.517 77.5091 117.128 77.6751 115.802 77.2191C115.732 77.1951 115.653 77.1861 115.581 77.1911C113.921 77.2901 112.334 76.8561 110.738 76.5121C109.749 76.2991 108.723 76.3361 107.749 76.0351C106.924 75.7801 106.054 75.6411 105.268 75.2981C103.392 74.4781 101.698 73.3951 100.648 71.5401C100.575 71.4121 100.602 71.2791 100.585 71.1491C100.516 70.6511 100.548 70.1511 100.535 69.6581C100.496 68.0471 100.51 66.4361 100.482 64.8241C100.454 63.0871 100.335 61.3491 100.369 59.6131C100.385 58.8291 100.334 58.0451 100.385 57.2591C100.43 56.5631 100.231 55.8691 100.346 55.1541C100.375 54.9801 100.061 54.6981 100.003 54.4081C99.9728 54.2681 99.9658 54.0741 100.031 54.0331C100.546 53.7081 100.148 53.2371 100.243 52.8521C100.246 52.8421 100.22 52.8261 100.221 52.8151C100.31 52.1331 99.9528 51.4871 100.053 50.8091C100.092 50.5441 100.228 50.3161 100.268 50.0241C100.404 49.0431 100.158 48.0781 100.26 47.1241C100.323 46.5271 100.227 45.9441 100.25 45.3571C100.275 44.7061 100.276 44.0021 100.017 43.3441C99.8568 42.9381 100.007 42.4951 100.138 42.0921C100.182 41.9551 100.222 41.8471 100.169 41.7181C99.9958 41.3061 100.359 40.8021 99.9488 40.4311C100.233 40.2141 100.04 39.9351 100.065 39.6811C100.083 39.5061 100.053 39.4141 99.9298 39.3081C99.8048 39.1981 99.7978 39.0421 99.8688 38.8971C99.9588 38.7121 100.077 38.5471 99.8178 38.3851C99.7298 38.3291 99.8208 38.2231 99.8798 38.1561C100.139 37.8621 100.344 37.4781 100.845 37.5881C100.957 37.6121 101.031 37.5161 101.122 37.4661C101.485 37.2661 101.841 37.0311 102.294 37.1361C102.357 37.1501 102.468 37.1331 102.5 37.0891C102.759 36.7341 103.102 36.8351 103.431 36.9131C103.556 36.9431 103.669 36.9701 103.769 36.8861C104.551 36.2371 105.52 36.2801 106.44 36.1741C107.705 36.0261 108.975 35.9261 110.244 35.8141C110.733 35.7701 111.223 35.7361 111.715 35.7191C113.541 35.6561 115.366 35.5561 117.194 35.5071C118.373 35.4751 119.554 35.4271 120.73 35.4621C122.454 35.5131 124.18 35.4571 125.898 35.5581C128.01 35.6811 130.128 35.7201 132.233 35.9151C134.037 36.0821 135.845 36.2031 137.641 36.4951C139.299 36.7641 140.951 37.0291 142.598 37.3651C143.556 37.5611 144.463 37.9181 145.423 38.0841C145.891 38.1651 146.203 38.5611 146.568 38.8161C146.822 38.9911 146.594 39.4551 146.534 39.7761C146.345 40.7971 146.203 41.8111 146.27 42.8581C146.318 43.6061 146.199 44.3611 146.2 45.1131C146.201 45.7601 146.006 46.3971 146.184 47.0571C146.316 47.5441 146.186 48.0441 146.091 48.5461C145.958 49.2481 145.87 49.9811 145.99 50.6921C146.047 51.0251 145.837 51.2571 145.846 51.5811C145.865 52.2871 145.929 53.0101 145.782 53.7151C145.677 54.2171 145.842 54.7061 145.783 55.2211C145.646 56.4171 145.589 57.6291 145.608 58.8321C145.62 59.5491 145.461 60.2591 145.529 60.9531C145.591 61.5851 145.485 62.1961 145.491 62.8161C145.498 63.5051 145.419 64.2071 145.359 64.9001C145.333 65.2071 145.331 65.5161 145.317 65.8201C145.258 67.1171 145.237 68.4161 145.211 69.7141C145.2 70.2151 145.056 70.6761 144.84 71.1191C144.767 71.2671 144.705 71.4131 144.664 71.5751C144.609 71.7891 144.56 71.9851 144.343 72.1621C144.186 72.2891 144.083 72.6081 143.986 72.8401C143.819 73.2391 143.553 73.5261 143.215 73.7221C142.974 73.8601 142.782 74.0291 142.588 74.2111C141.493 75.2291 140.189 75.8271 138.734 76.1141C137.629 76.3331 136.526 76.5641 135.415 76.7491C134.375 76.9221 133.328 77.0501 132.282 77.1831C131.913 77.2301 131.567 77.4141 131.033 77.3371" fill="#FECDC7" blush:i="0.0.0"/><path id="Fill 986" fill-rule="evenodd" clip-rule="evenodd" d="M117.947 38.8439C121.172 38.8329 123.92 38.7709 126.667 38.9109C128.514 39.0059 130.362 39.1059 132.192 39.3689C133.855 39.6079 135.513 39.8769 137.161 40.2309C137.968 40.4039 138.798 40.5069 139.606 40.7029C139.725 40.7319 139.927 40.6899 139.904 40.8829C139.885 41.0319 139.705 41.0359 139.57 41.0479C138.338 41.1619 137.108 41.3219 135.873 41.3789C133.487 41.4899 131.103 41.6369 128.715 41.6889C126.418 41.7399 124.124 41.7389 121.826 41.7039C120.322 41.6819 118.814 41.6629 117.314 41.5979C115.634 41.5259 113.949 41.4529 112.272 41.2899C110.819 41.1499 109.367 40.9939 107.915 40.8369C107.515 40.7939 107.117 40.7269 106.719 40.6659C106.652 40.6559 106.554 40.6689 106.542 40.5709C106.53 40.4739 106.627 40.4619 106.687 40.4289C107.24 40.1319 107.868 40.1109 108.461 39.9789C110.31 39.5689 112.188 39.3229 114.072 39.1149C115.52 38.9569 116.967 38.8179 117.947 38.8439" fill="#614135" blush:i="0.0.1"/><path id="Fill 988" fill-rule="evenodd" clip-rule="evenodd" d="M101.247 155.57C101.326 185.899 99.1672 191.04 99.4522 156.531C99.4902 145.359 98.2362 12.7545 100.76 69.0395C101.166 72.7105 99.0682 78.0965 104.542 76.7395C109.329 77.0115 113.929 76.7585 118.447 77.0875C120.836 76.6065 122.827 77.8075 122.095 73.9815C123.142 68.7085 120.672 59.9795 123.312 56.2355C125.376 62.7675 122.196 70.9235 124.283 76.9655C141.736 75.6315 146.929 84.0265 145.562 61.6755C148.136 19.8615 146.599 163.394 146.159 171.406C146.342 171.429 146.462 171.31 146.595 171.205C146.757 190.608 144.049 178.493 145.03 168.546C144.676 141.74 144.896 113.446 145.06 86.0665C145.766 79.8595 134.872 84.1165 130.666 82.9225C129.318 82.7325 127.307 82.6865 126.311 82.9675C125.248 82.7745 123.55 82.0905 123.605 83.6925C123.54 117.216 123.435 150.972 123.257 184.312C119.833 195.508 121.595 167.311 121.448 164.392C121.416 146.549 121.327 105.643 121.65 102.264C121.895 99.6975 122.166 88.4825 120.333 83.5345C120.333 83.5345 117.848 82.4785 116.274 82.5815C114.025 83.8205 100.535 80.7345 101.012 83.9255C101.011 107.853 101.137 131.582 101.247 155.57" fill="#5C3E31" blush:i="0.0.2"/><path id="Fill 990" fill-rule="evenodd" clip-rule="evenodd" d="M151.205 72.3547C151.124 74.9267 148.528 73.1257 147.264 73.1227C145.143 70.5507 150.713 70.6577 151.205 72.3547" fill="#BBE668" blush:i="0.0.3"/><path id="Fill 992" fill-rule="evenodd" clip-rule="evenodd" d="M115.98 79.0334C116.094 77.7494 114.848 80.1414 113.909 78.8654C113.379 78.2254 113.434 76.3664 114.638 76.7054C115.486 76.3364 115.466 78.0594 115.941 77.3814C118.405 75.9724 118.859 81.1134 115.98 79.0334" fill="#BBE668" blush:i="0.0.4"/><path id="Fill 994" fill-rule="evenodd" clip-rule="evenodd" d="M117.335 63.1663C116.057 64.5853 114.169 61.5393 115.55 60.6873C117.56 59.2573 118.457 61.8863 117.335 63.1663" fill="#BBE668" blush:i="0.0.5"/><path id="Fill 996" fill-rule="evenodd" clip-rule="evenodd" d="M115.814 53.1369C115.898 55.3729 113.015 55.9249 113.06 53.5479C113.078 51.7079 115.345 51.7769 115.814 53.1369" fill="#BBE668" blush:i="0.0.6"/><path id="Fill 998" fill-rule="evenodd" clip-rule="evenodd" d="M115.905 90.6506C115.283 89.1296 116.659 87.6286 118.038 88.8266C118.519 90.0776 117.011 93.4386 115.905 90.6506" fill="#BBE668" blush:i="0.0.7"/><path id="Fill 1000" fill-rule="evenodd" clip-rule="evenodd" d="M123.213 37.2375C119.923 36.9735 121.876 32.9105 124.356 34.6755C124.109 35.4975 124.243 37.0055 123.213 37.2375" fill="#BBE668" blush:i="0.0.8"/><path id="Fill 1002" fill-rule="evenodd" clip-rule="evenodd" d="M99.2732 62.7659C99.2942 64.5249 96.0922 64.6779 96.5352 62.7689C96.4972 61.1609 99.3272 61.1909 99.2732 62.7659" fill="#BBE668" blush:i="0.0.9"/><path id="Fill 1004" fill-rule="evenodd" clip-rule="evenodd" d="M103.508 83.2951C103.972 84.1641 103.435 85.4111 102.234 85.0601C99.4951 84.8651 101.663 80.8711 103.508 83.2951" fill="#BBE668" blush:i="0.0.10"/><path id="Fill 1006" fill-rule="evenodd" clip-rule="evenodd" d="M104.496 38.4035C106.245 37.7245 107.093 40.3625 105.637 41.2835C104.402 41.6105 103.248 39.3445 104.496 38.4035" fill="#BBE668" blush:i="0.0.11"/><path id="Fill 1008" fill-rule="evenodd" clip-rule="evenodd" d="M116.608 85.4162C115.341 84.7132 115.8 82.7282 117.07 82.4862C118.775 82.8512 118.525 86.8662 116.608 85.4162" fill="#BBE668" blush:i="0.0.12"/><path id="Fill 1010" fill-rule="evenodd" clip-rule="evenodd" d="M96.1303 40.2287C96.4063 38.4847 99.0593 38.7357 98.7963 40.3617C98.7733 41.8627 95.3033 41.8927 96.1303 40.2287" fill="#BBE668" blush:i="0.0.13"/><path id="Fill 1012" fill-rule="evenodd" clip-rule="evenodd" d="M116.44 51.4396C115.113 50.5946 115.517 48.3666 117.297 49.0476C118.891 49.4646 117.879 52.5646 116.44 51.4396" fill="#BBE668" blush:i="0.0.14"/><path id="Fill 1014" fill-rule="evenodd" clip-rule="evenodd" d="M134.33 76.6916C135.444 76.7036 135.776 77.7706 135.402 78.7036C133.888 80.7596 131.232 76.3226 134.33 76.6916" fill="#BBE668" blush:i="0.0.15"/><path id="Fill 1016" fill-rule="evenodd" clip-rule="evenodd" d="M101.982 59.0764C101.148 56.5874 105.226 56.8924 104.482 59.2564C103.896 60.2134 102.462 60.0794 101.982 59.0764" fill="#BBE668" blush:i="0.0.16"/><path id="Fill 1018" fill-rule="evenodd" clip-rule="evenodd" d="M130.654 38.2189C132.039 38.5819 132.979 40.8509 130.886 41.0149C129.247 40.6739 129.168 38.7999 130.654 38.2189" fill="#BBE668" blush:i="0.0.17"/><path id="Fill 1020" fill-rule="evenodd" clip-rule="evenodd" d="M151.662 49.6439C150.897 48.9709 151.32 47.6199 152.202 47.1079C154.556 47.0059 153.729 51.0349 151.662 49.6439" fill="#BBE668" blush:i="0.0.18"/><path id="Fill 1022" fill-rule="evenodd" clip-rule="evenodd" d="M134.668 66.178C133.368 66.447 132.226 64.169 133.826 63.575C135.165 63.176 136.625 65.183 134.668 66.178" fill="#BBE668" blush:i="0.0.19"/><path id="Fill 1024" fill-rule="evenodd" clip-rule="evenodd" d="M132.881 56.3059C133.485 55.3429 134.716 55.5039 135.298 56.4449C136.058 58.8929 131.701 58.6699 132.881 56.3059" fill="#BBE668" blush:i="0.0.20"/><path id="Fill 1026" fill-rule="evenodd" clip-rule="evenodd" d="M118.111 68.4339C117.009 68.5909 116.921 66.2659 117.898 66.0399C120.051 65.7509 120.65 68.9279 118.111 68.4339" fill="#BBE668" blush:i="0.0.21"/><path id="Fill 1028" fill-rule="evenodd" clip-rule="evenodd" d="M97.4741 46.6555C95.9311 47.5775 94.3151 45.0395 96.1901 44.3565C97.7991 44.1345 98.6741 45.4245 97.4741 46.6555" fill="#BBE668" blush:i="0.0.22"/><path id="Fill 1030" fill-rule="evenodd" clip-rule="evenodd" d="M118.589 45.3273C120.192 44.7023 121.136 47.6063 119.211 47.7983C117.564 47.5393 116.851 46.2073 118.589 45.3273" fill="#BBE668" blush:i="0.0.23"/><path id="Fill 1032" fill-rule="evenodd" clip-rule="evenodd" d="M151.657 49.6398C154.487 53.1188 147.985 50.6778 148.774 49.3918C150.055 48.2228 150.645 50.4488 151.657 49.6398" fill="#BBE668" blush:i="0.0.24"/><path id="Fill 1034" fill-rule="evenodd" clip-rule="evenodd" d="M150.191 79.7375C150.177 81.0325 149.018 82.1635 147.936 81.2325C146.316 80.1345 149.382 77.9435 150.191 79.7375" fill="#BBE668" blush:i="0.0.25"/><path id="Fill 1036" fill-rule="evenodd" clip-rule="evenodd" d="M120.729 33.7288C119.97 33.3918 118.939 33.2018 119.319 32.1708C120.199 29.7138 123.768 32.8758 120.729 33.7288" fill="#BBE668" blush:i="0.0.26"/><path id="Fill 1038" fill-rule="evenodd" clip-rule="evenodd" d="M133.599 46.5803C133.501 44.7113 136.314 44.5683 136.195 46.2993C136.037 47.8943 134.29 47.7883 133.599 46.5803" fill="#BBE668" blush:i="0.0.27"/><path id="Fill 1040" fill-rule="evenodd" clip-rule="evenodd" d="M98.9463 47.8586C98.8143 47.1306 99.5933 45.6316 100.423 45.9606C102.751 47.1386 100.233 50.3386 98.9463 47.8586" fill="#BBE668" blush:i="0.0.28"/><path id="Fill 1042" fill-rule="evenodd" clip-rule="evenodd" d="M115.902 72.9211C115.929 71.4091 118.971 71.1511 118.303 72.9101C118.608 74.8471 115.256 74.8281 115.902 72.9211" fill="#BBE668" blush:i="0.0.29"/><path id="Fill 1044" fill-rule="evenodd" clip-rule="evenodd" d="M123.717 32.5598C123.465 31.0128 124.975 29.5298 125.936 31.3328C126.375 33.0568 124.957 34.0808 123.717 32.5598" fill="#BBE668" blush:i="0.0.30"/><path id="Fill 1046" fill-rule="evenodd" clip-rule="evenodd" d="M135.389 33.9094C134.978 34.0504 134.544 33.5644 133.984 33.8204C133.212 29.4224 138.95 32.3784 135.389 33.9094" fill="#BBE668" blush:i="0.0.31"/><path id="Fill 1048" fill-rule="evenodd" clip-rule="evenodd" d="M134.553 42.0013C135.805 42.6293 134.472 44.9963 133.182 44.1723C131.859 43.8513 133.042 40.6303 134.553 42.0013" fill="#BBE668" blush:i="0.0.32"/><path id="Fill 1050" fill-rule="evenodd" clip-rule="evenodd" d="M129.201 36.3782C128.706 38.1392 127.441 37.7322 126.674 36.5862C126.213 34.2732 129.054 34.4722 129.201 36.3782" fill="#BBE668" blush:i="0.0.33"/><path id="Fill 1052" fill-rule="evenodd" clip-rule="evenodd" d="M116.708 100.976C119.246 101.467 117.8 103.393 116.201 103.83C115.432 103.062 115.526 101.306 116.708 100.976" fill="#BBE668" blush:i="0.0.34"/><path id="Fill 1054" fill-rule="evenodd" clip-rule="evenodd" d="M112.937 33.177C112.122 33.849 110.371 33.308 110.624 31.985C111.038 29.796 114.046 31.579 112.937 33.177" fill="#BBE668" blush:i="0.0.35"/><path id="Fill 1056" fill-rule="evenodd" clip-rule="evenodd" d="M107.404 30.841C107.688 32.988 104.177 32.253 105.09 30.523C105.553 29.134 107.265 29.826 107.404 30.841" fill="#BBE668" blush:i="0.0.36"/><path id="Fill 1058" fill-rule="evenodd" clip-rule="evenodd" d="M109.187 36.3381C107.81 34.8721 110.03 32.9961 111.104 34.7081C111.96 36.0071 110.287 36.9971 109.187 36.3381" fill="#BBE668" blush:i="0.0.37"/><path id="Fill 1060" fill-rule="evenodd" clip-rule="evenodd" d="M103.223 75.5354C101.833 74.7544 103.456 73.1544 104.712 73.9244C106.356 74.9424 104.615 76.7634 103.223 75.5354" fill="#BBE668" blush:i="0.0.38"/><path id="Fill 1062" fill-rule="evenodd" clip-rule="evenodd" d="M102.701 48.8313C103.971 48.8603 104.919 51.4873 103.113 51.3073C101.654 51.4263 101.019 49.4063 102.701 48.8313" fill="#BBE668" blush:i="0.0.39"/><path id="Fill 1064" fill-rule="evenodd" clip-rule="evenodd" d="M123.213 37.2375C124.225 36.0715 125.529 36.6645 126.035 37.7835C126.039 39.8675 123.202 38.6905 123.213 37.2375" fill="#BBE668" blush:i="0.0.40"/><path id="Fill 1066" fill-rule="evenodd" clip-rule="evenodd" d="M132.611 33.01C132.266 33.404 132.049 35.638 130.61 34.324C128.856 33.025 132.254 30.92 132.611 33.01" fill="#BBE668" blush:i="0.0.41"/><path id="Fill 1068" fill-rule="evenodd" clip-rule="evenodd" d="M152.278 65.4914C152.501 67.0454 150.449 67.5254 149.882 66.2914C149.732 64.7234 151.668 63.9194 152.278 65.4914" fill="#BBE668" blush:i="0.0.42"/><path id="Fill 1070" fill-rule="evenodd" clip-rule="evenodd" d="M103.425 55.4611C101.592 55.7771 100.81 52.8811 102.971 53.0741C104.295 53.0011 104.498 54.9641 103.425 55.4611" fill="#BBE668" blush:i="0.0.43"/><path id="Fill 1072" fill-rule="evenodd" clip-rule="evenodd" d="M141.986 42.8059C140.462 41.4529 143.024 39.7389 143.979 41.2149C144.269 41.4609 143.422 44.3179 141.986 42.8059" fill="#BBE668" blush:i="0.0.44"/><path id="Fill 1074" fill-rule="evenodd" clip-rule="evenodd" d="M118.072 54.4935C116.367 53.7215 117.979 50.8425 119.266 52.6945C120.114 53.5255 119.59 55.8135 118.072 54.4935" fill="#BBE668" blush:i="0.0.45"/><path id="Fill 1076" fill-rule="evenodd" clip-rule="evenodd" d="M112.122 35.5275C113.226 34.6905 114.685 36.6345 113.726 37.5015C112.433 38.7795 110.472 36.4795 112.122 35.5275" fill="#BBE668" blush:i="0.0.46"/><path id="Fill 1078" fill-rule="evenodd" clip-rule="evenodd" d="M115.92 70.2326C117.854 72.8336 112.088 72.5836 114.21 70.3646C114.95 69.7196 115.31 70.2466 115.92 70.2326" fill="#BBE668" blush:i="0.0.47"/><path id="Fill 1080" fill-rule="evenodd" clip-rule="evenodd" d="M98.6505 34.9886C97.9035 33.0426 100.942 32.6176 100.891 34.5766C100.526 36.1586 99.5465 35.5746 98.6505 34.9886" fill="#BBE668" blush:i="0.0.48"/><path id="Fill 1082" fill-rule="evenodd" clip-rule="evenodd" d="M106.885 45.3254C107.984 44.9584 109.486 46.2144 108.324 47.2284C107.007 48.0604 105.254 45.5784 106.885 45.3254" fill="#BBE668" blush:i="0.0.49"/><path id="Fill 1084" fill-rule="evenodd" clip-rule="evenodd" d="M112.851 58.175C112.991 55.566 117.208 58.354 114.608 59.238C114.004 59.247 112.807 58.83 112.851 58.175" fill="#BBE668" blush:i="0.0.50"/><path id="Fill 1086" fill-rule="evenodd" clip-rule="evenodd" d="M106.743 41.8284C106.753 39.1174 110.716 41.2504 108.441 42.7354C108.036 43.0554 106.691 42.3874 106.743 41.8284" fill="#BBE668" blush:i="0.0.51"/><path id="Fill 1088" fill-rule="evenodd" clip-rule="evenodd" d="M116.54 43.175C117.39 43.983 117.748 45.246 116.327 45.664C114.465 45.512 114.692 42.352 116.54 43.175" fill="#BBE668" blush:i="0.0.52"/><path id="Fill 1090" fill-rule="evenodd" clip-rule="evenodd" d="M118.142 37.3225C117.394 36.9225 116.55 36.9495 117.021 35.7605C118.871 33.6475 121.087 38.5155 118.142 37.3225" fill="#BBE668" blush:i="0.0.53"/><path id="Fill 1092" fill-rule="evenodd" clip-rule="evenodd" d="M132.081 31.3928C130.83 29.8648 132.206 28.3978 133.772 29.6248C133.827 30.6908 133.519 32.3478 132.081 31.3928" fill="#BBE668" blush:i="0.0.54"/><path id="Fill 1094" fill-rule="evenodd" clip-rule="evenodd" d="M102.89 91.964C102.989 90.119 105.612 90.922 104.995 92.536C104.285 93.652 102.706 93.443 102.89 91.964" fill="#BBE668" blush:i="0.0.55"/><path id="Fill 1096" fill-rule="evenodd" clip-rule="evenodd" d="M148.231 87.3127C148.37 84.9037 151.748 86.7497 150.172 88.3567C149.476 88.7917 148.376 87.8847 148.231 87.3127" fill="#BBE668" blush:i="0.0.56"/><path id="Fill 1098" fill-rule="evenodd" clip-rule="evenodd" d="M132.532 55.8459C131.594 56.7219 130.043 54.7869 131.263 53.9539C132.795 53.2539 134.137 54.7619 132.532 55.8459" fill="#BBE668" blush:i="0.0.57"/><path id="Fill 1100" fill-rule="evenodd" clip-rule="evenodd" d="M129.365 32.5656C130.264 34.2566 127.749 34.9586 127.36 33.1176C127.189 31.7066 128.789 30.9426 129.365 32.5656" fill="#BBE668" blush:i="0.0.58"/><path id="Fill 1102" fill-rule="evenodd" clip-rule="evenodd" d="M125.689 39.4943C126.357 37.8503 128.992 38.2113 128.308 40.0033C127.679 40.6873 125.054 40.7943 125.689 39.4943" fill="#BBE668" blush:i="0.0.59"/><path id="Fill 1104" fill-rule="evenodd" clip-rule="evenodd" d="M151.577 61.6525C151.425 62.8445 150.301 63.1915 149.371 62.7255C148.715 61.0215 150.87 59.7845 151.577 61.6525" fill="#BBE668" blush:i="0.0.60"/><path id="Fill 1106" fill-rule="evenodd" clip-rule="evenodd" d="M146.099 61.882C144.096 59.071 149.378 59.413 147.8 61.691C147.708 62.412 146.61 61.519 146.099 61.882" fill="#BBE668" blush:i="0.0.61"/><path id="Fill 1108" fill-rule="evenodd" clip-rule="evenodd" d="M147.965 39.7551C147.418 41.3921 144.055 40.3951 145.693 38.8091C146.459 37.8811 148.128 38.6261 147.965 39.7551" fill="#BBE668" blush:i="0.0.62"/><path id="Fill 1110" fill-rule="evenodd" clip-rule="evenodd" d="M142.844 47.594C144.384 46.385 145.54 49.807 143.499 49.595C142.722 49.309 141.393 47.507 142.844 47.594" fill="#BBE668" blush:i="0.0.63"/><path id="Fill 1112" fill-rule="evenodd" clip-rule="evenodd" d="M132.342 68.6058C131.728 70.2928 129.597 68.3328 130.725 66.9368C131.883 65.9928 132.413 67.5348 132.342 68.6058" fill="#BBE668" blush:i="0.0.64"/><path id="Fill 1114" fill-rule="evenodd" clip-rule="evenodd" d="M146.191 43.3558C146.841 45.6538 142.346 45.2838 143.666 43.3878C144.304 43.0618 145.222 42.2948 146.191 43.3558" fill="#BBE668" blush:i="0.0.65"/><path id="Fill 1116" fill-rule="evenodd" clip-rule="evenodd" d="M132 50.1731C130.143 50.4081 129.62 48.5151 131.299 47.7211C132.639 47.9871 132.599 49.1541 132 50.1731" fill="#BBE668" blush:i="0.0.66"/><path id="Fill 1118" fill-rule="evenodd" clip-rule="evenodd" d="M132.516 62.5891C131.13 62.9481 129.851 61.0131 131.158 60.2561C132.563 59.9771 133.14 61.6481 132.516 62.5891" fill="#BBE668" blush:i="0.0.67"/><path id="Fill 1120" fill-rule="evenodd" clip-rule="evenodd" d="M149.503 45.2366C148.485 47.4746 145.663 44.1106 148.627 43.8206C149.148 43.7676 150.537 45.2966 149.503 45.2366" fill="#BBE668" blush:i="0.0.68"/><path id="Fill 1122" fill-rule="evenodd" clip-rule="evenodd" d="M131.828 84.0773C130.437 83.8493 130.751 81.7863 132.005 81.7173C133.6 81.7493 133.226 84.6723 131.828 84.0773" fill="#BBE668" blush:i="0.0.69"/><path id="Fill 1124" fill-rule="evenodd" clip-rule="evenodd" d="M144.647 59.2766C144.827 60.4636 142.892 60.6346 142.612 59.6946C142.015 57.7866 144.6 57.2496 144.647 59.2766" fill="#BBE668" blush:i="0.0.70"/><path id="Fill 1126" fill-rule="evenodd" clip-rule="evenodd" d="M104.412 84.2492C105.003 83.9172 104.982 84.4282 105.483 84.5202C108.213 86.9402 101.632 86.8732 104.412 84.2492" fill="#BBE668" blush:i="0.0.71"/><path id="Fill 1128" fill-rule="evenodd" clip-rule="evenodd" d="M118.103 99.1887C117.293 99.5437 115.665 98.9337 116.091 97.9497C116.631 95.9757 118.81 97.5937 118.103 99.1887" fill="#BBE668" blush:i="0.0.72"/><path id="Fill 1130" fill-rule="evenodd" clip-rule="evenodd" d="M149.813 78.0227C148.161 78.7577 148.38 75.6117 149.685 75.9057C151.229 75.9497 151.17 77.7507 149.813 78.0227" fill="#BBE668" blush:i="0.0.73"/><path id="Fill 1132" fill-rule="evenodd" clip-rule="evenodd" d="M104.476 46.3176C103.83 46.4186 103.675 45.8846 103.156 45.7816C101.472 43.0626 107.189 44.3476 104.476 46.3176" fill="#BBE668" blush:i="0.0.74"/><path id="Fill 1134" fill-rule="evenodd" clip-rule="evenodd" d="M145.912 36.59C145.655 35.026 147.772 34.187 148.223 35.879C148.343 37.32 146.763 37.216 145.912 36.59" fill="#BBE668" blush:i="0.0.75"/><path id="Fill 1136" fill-rule="evenodd" clip-rule="evenodd" d="M132.797 86.1945C133.082 84.4255 135.209 85.1525 135.048 86.6615C134.723 87.8905 132.821 87.2665 132.797 86.1945" fill="#BBE668" blush:i="0.0.76"/><path id="Fill 1138" fill-rule="evenodd" clip-rule="evenodd" d="M136.296 29.7864C137.025 28.5114 138.661 28.8364 138.791 30.1324C138.509 31.6654 135.809 31.3054 136.296 29.7864" fill="#BBE668" blush:i="0.0.77"/><path id="Fill 1140" fill-rule="evenodd" clip-rule="evenodd" d="M150.747 46.9865C150.808 48.5365 149.425 48.5135 148.553 47.8535C147.877 46.2355 150.082 45.5765 150.747 46.9865" fill="#BBE668" blush:i="0.0.78"/><path id="Fill 1142" fill-rule="evenodd" clip-rule="evenodd" d="M137.204 40.6652C136.457 38.0952 140.119 38.5682 139.257 40.6432C138.709 41.1192 137.842 40.8692 137.204 40.6652" fill="#BBE668" blush:i="0.0.79"/><path id="Fill 1144" fill-rule="evenodd" clip-rule="evenodd" d="M109.336 39.3898C108.608 40.1998 107.001 39.9078 107.022 38.6508C107.303 36.8458 109.781 37.8338 109.336 39.3898" fill="#BBE668" blush:i="0.0.80"/><path id="Fill 1146" fill-rule="evenodd" clip-rule="evenodd" d="M135.377 49.7297C136.372 50.3187 137.648 51.0997 136.02 52.1077C134.805 52.1637 133.695 49.9667 135.377 49.7297" fill="#BBE668" blush:i="0.0.81"/><path id="Fill 1148" fill-rule="evenodd" clip-rule="evenodd" d="M149.415 41.1896C150.396 41.3546 152.322 41.3596 151.217 42.7226C150.219 44.0076 147.68 41.8486 149.415 41.1896" fill="#BBE668" blush:i="0.0.82"/><path id="Fill 1150" fill-rule="evenodd" clip-rule="evenodd" d="M101.256 78.5949C100.834 79.7119 98.9668 79.3809 98.8818 78.2109C99.2578 76.7009 101.882 77.4049 101.256 78.5949" fill="#BBE668" blush:i="0.0.83"/><path id="Fill 1152" fill-rule="evenodd" clip-rule="evenodd" d="M140.605 46.8997C141.123 49.2327 137.162 47.9397 138.629 46.7497C139.207 46.0377 140.123 46.2817 140.605 46.8997" fill="#BBE668" blush:i="0.0.84"/><path id="Fill 1154" fill-rule="evenodd" clip-rule="evenodd" d="M132.874 73.5521C134.153 73.9571 132.906 76.4091 131.876 75.2851C130.52 74.6111 131.557 72.5641 132.874 73.5521" fill="#BBE668" blush:i="0.0.85"/><path id="Fill 1156" fill-rule="evenodd" clip-rule="evenodd" d="M140.706 52.2746C140.873 50.8726 142.237 50.7806 142.971 51.7646C143.188 53.1956 141.388 53.5286 140.706 52.2746" fill="#BBE668" blush:i="0.0.86"/><path id="Fill 1158" fill-rule="evenodd" clip-rule="evenodd" d="M101.434 70.8566C100.814 71.3116 100.659 70.6406 100.018 70.5846C97.3354 68.6026 103.21 68.6036 101.434 70.8566" fill="#BBE668" blush:i="0.0.87"/><path id="Fill 1160" fill-rule="evenodd" clip-rule="evenodd" d="M115.811 39.0285C116.542 38.0665 118.532 38.5525 117.926 40.1085C117.282 41.1015 115.11 40.0735 115.811 39.0285" fill="#BBE668" blush:i="0.0.88"/><path id="Fill 1162" fill-rule="evenodd" clip-rule="evenodd" d="M145.904 76.2307C145.857 74.2837 148.626 75.1317 147.984 76.5687C147.558 77.3177 146.053 77.2017 145.904 76.2307" fill="#BBE668" blush:i="0.0.89"/><path id="Fill 1164" fill-rule="evenodd" clip-rule="evenodd" d="M94.6078 51.2609C91.6748 52.7229 92.3028 49.0019 94.3818 49.3649C94.8838 49.9709 94.4208 50.7729 94.6078 51.2609" fill="#BBE668" blush:i="0.0.90"/><path id="Fill 1166" fill-rule="evenodd" clip-rule="evenodd" d="M99.7296 60.423C98.5626 60.681 98.0006 58.413 99.3756 58.623C100.904 58.201 101.165 60.703 99.7296 60.423" fill="#BBE668" blush:i="0.0.91"/><path id="Fill 1168" fill-rule="evenodd" clip-rule="evenodd" d="M135.487 36.0627C135.619 33.6727 137.909 34.7697 137.912 36.3007C136.961 36.6437 136.169 37.1967 135.487 36.0627" fill="#BBE668" blush:i="0.0.92"/><path id="Fill 1170" fill-rule="evenodd" clip-rule="evenodd" d="M135.395 43.6184C135.384 42.2704 137.227 42.4074 137.629 43.3534C138.142 45.0124 135.971 45.0404 135.395 43.6184" fill="#BBE668" blush:i="0.0.93"/><path id="Fill 1172" fill-rule="evenodd" clip-rule="evenodd" d="M150.318 56.2824C148.606 56.2554 148.587 54.7774 150.092 54.3634C151.452 54.5674 151.517 55.9004 150.318 56.2824" fill="#BBE668" blush:i="0.0.94"/><path id="Fill 1174" fill-rule="evenodd" clip-rule="evenodd" d="M102.695 96.8781C102.738 95.2431 105.044 95.6941 104.584 97.1711C104.5 97.8921 102.549 97.9111 102.695 96.8781" fill="#BBE668" blush:i="0.0.95"/><path id="Fill 1176" fill-rule="evenodd" clip-rule="evenodd" d="M117.066 35.8049C117.842 38.7069 114.307 37.7489 115.286 35.3549C115.792 35.4089 116.247 35.6989 117.066 35.8049" fill="#BBE668" blush:i="0.0.96"/><path id="Fill 1178" fill-rule="evenodd" clip-rule="evenodd" d="M132.792 88.4827C132.664 89.6027 130.649 89.3627 130.838 88.2527C130.785 87.0667 133.05 87.2667 132.792 88.4827" fill="#BBE668" blush:i="0.0.97"/><path id="Fill 1180" fill-rule="evenodd" clip-rule="evenodd" d="M149.22 91.2541C152.01 90.6921 149.992 95.4391 148.188 92.9931C148.161 91.1961 148.795 91.4301 149.014 92.8541C149.915 93.8231 150.354 91.4471 149.22 91.2541" fill="#BBE668" blush:i="0.0.98"/><path id="Fill 1182" fill-rule="evenodd" clip-rule="evenodd" d="M129.635 28.0695C129.608 28.9935 127.85 29.0705 127.629 28.3315C127.079 26.6445 129.343 26.5145 129.635 28.0695" fill="#BBE668" blush:i="0.0.99"/><path id="Fill 1184" fill-rule="evenodd" clip-rule="evenodd" d="M127.131 35.0744C126.437 35.8494 126.9 36.7114 127.155 37.2454C124.851 38.2004 125.227 33.2434 127.131 35.0744" fill="#BBE668" blush:i="0.0.100"/><path id="Fill 1186" fill-rule="evenodd" clip-rule="evenodd" d="M141.214 30.7736C139.884 30.7426 139.87 29.3776 141.07 28.9316C142.481 28.8766 142.821 30.9446 141.214 30.7736" fill="#BBE668" blush:i="0.0.101"/><path id="Fill 1188" fill-rule="evenodd" clip-rule="evenodd" d="M149.22 91.2541C150.64 91.1821 149.989 93.4421 149.3 93.3041C148.55 92.8741 148.341 91.6211 149.22 91.2541" fill="#BBE668" blush:i="0.0.102"/><path id="Fill 1190" fill-rule="evenodd" clip-rule="evenodd" d="M135.75 36.3361C137.254 37.1381 137.926 36.2891 137.373 34.9011C139.63 36.0581 136.529 38.6771 135.75 36.3361" fill="#BBE668" blush:i="0.0.103"/><path id="Fill 1192" fill-rule="evenodd" clip-rule="evenodd" d="M95.8667 52.7766C97.2197 53.1426 95.9177 54.4766 95.1457 54.3216C93.9047 53.7446 94.8317 52.4196 95.8667 52.7766" fill="#BBE668" blush:i="0.0.104"/><path id="Fill 1194" fill-rule="evenodd" clip-rule="evenodd" d="M115.892 38.8576C115.027 37.5926 111.198 38.1846 112.955 37.7206C115.622 35.1166 112.432 36.2736 115.892 38.8576" fill="#BBE668" blush:i="0.0.105"/><path id="Fill 1196" fill-rule="evenodd" clip-rule="evenodd" d="M101.435 70.8566C104.497 69.0736 102.55 74.9756 101.005 72.9336C102.682 73.3116 103.66 69.8126 101.435 70.8566" fill="#BBE668" blush:i="0.0.106"/><path id="Fill 1198" fill-rule="evenodd" clip-rule="evenodd" d="M115.812 89.0266C116.081 90.2016 114.224 89.8386 113.953 89.2026C113.884 87.7476 115.289 88.1356 115.812 89.0266" fill="#BBE668" blush:i="0.0.107"/><path id="Fill 1200" fill-rule="evenodd" clip-rule="evenodd" d="M98.9457 47.8586C99.3717 48.4666 100.357 48.8726 100.978 48.5756C100.862 49.9116 98.4427 49.4276 98.9457 47.8586" fill="#BBE668" blush:i="0.0.108"/><path id="Fill 1202" fill-rule="evenodd" clip-rule="evenodd" d="M101.982 59.0764C102.712 60.0284 103.722 59.9114 104.482 59.2564C108.984 60.5654 101.912 60.5714 101.982 59.0764" fill="#BBE668" blush:i="0.0.109"/><path id="Fill 1204" fill-rule="evenodd" clip-rule="evenodd" d="M113.638 39.0325C113.775 39.9085 116.058 40.3435 114.793 40.2715C114.409 42.7665 113.806 40.6295 113.638 39.0325" fill="#BBE668" blush:i="0.0.110"/><path id="Fill 1206" fill-rule="evenodd" clip-rule="evenodd" d="M94.608 51.261C93.516 50.907 95.544 49.564 93.707 49.275C94.807 48.35 95.743 50.364 94.608 51.261" fill="#BBE668" blush:i="0.0.111"/><path id="Fill 1208" fill-rule="evenodd" clip-rule="evenodd" d="M146.8 45.2415C145.104 45.5135 143.568 45.3465 145.897 44.5055C146.341 43.7485 146.114 45.0955 146.8 45.2415" fill="#BBE668" blush:i="0.0.112"/><path id="Fill 1210" fill-rule="evenodd" clip-rule="evenodd" d="M131.344 74.8215C132.264 75.7305 132.755 75.1155 133.329 74.9965C134.104 78.2925 133.344 76.2925 131.344 74.8215" fill="#BBE668" blush:i="0.0.113"/><path id="Fill 1212" fill-rule="evenodd" clip-rule="evenodd" d="M108.893 38.1359C110.963 38.2209 112.728 38.3829 110.075 38.6399C108.895 39.8509 109.67 39.1649 108.893 38.1359" fill="#BBE668" blush:i="0.0.114"/><path id="Fill 1214" fill-rule="evenodd" clip-rule="evenodd" d="M125.334 36.0667C126.152 36.5927 126.182 37.6037 127.397 37.1407C126.321 38.0787 124.884 37.4877 125.334 36.0667" fill="#BBE668" blush:i="0.0.115"/><path id="Fill 1216" fill-rule="evenodd" clip-rule="evenodd" d="M140.601 40.0285C141.587 40.4455 142.286 39.5045 142.227 38.6725C143.189 39.5895 141.516 41.5285 140.601 40.0285" fill="#BBE668" blush:i="0.0.116"/><path id="Fill 1218" fill-rule="evenodd" clip-rule="evenodd" d="M104.669 79.4025C104.719 78.9825 105.539 78.4955 104.71 78.3785C106.474 76.9655 106.222 79.4955 104.669 79.4025" fill="#BBE668" blush:i="0.0.117"/><path id="Fill 1220" fill-rule="evenodd" clip-rule="evenodd" d="M127.131 35.0744C126.575 34.6314 125.478 34.9524 125.864 35.6684C123.86 36.1874 127.826 32.6734 127.131 35.0744" fill="#BBE668" blush:i="0.0.118"/><path id="Fill 1222" fill-rule="evenodd" clip-rule="evenodd" d="M95.8669 52.7766C95.1809 52.7486 94.1339 53.3666 94.9709 54.0706C94.1379 55.9256 93.8209 51.4276 95.8669 52.7766" fill="#BBE668" blush:i="0.0.119"/><path id="Fill 1224" fill-rule="evenodd" clip-rule="evenodd" d="M124.348 34.719C126.133 34.487 123.383 36.12 124.619 36.615C123.307 37.103 123.949 35.425 124.348 34.719" fill="#BBE668" blush:i="0.0.120"/><path id="Fill 1226" fill-rule="evenodd" clip-rule="evenodd" d="M141.07 28.9318C140.753 29.5198 139.671 29.8428 140.711 30.6188C140.055 31.8578 139.306 28.5508 141.07 28.9318" fill="#BBE668" blush:i="0.0.121"/><path id="Fill 1228" fill-rule="evenodd" clip-rule="evenodd" d="M130.827 27.34C131.656 28.277 132.514 29.168 133.165 27.428C133.505 29.236 130.534 28.956 130.827 27.34" fill="#BBE668" blush:i="0.0.122"/><path id="Fill 1230" fill-rule="evenodd" clip-rule="evenodd" d="M119.603 55.9563C119.966 55.1323 118.844 54.4883 119.845 53.8643C120.023 54.6853 120.74 55.3433 119.603 55.9563" fill="#BBE668" blush:i="0.0.123"/><path id="Fill 1232" fill-rule="evenodd" clip-rule="evenodd" d="M103.226 37.5803C103.677 36.4473 102.828 35.9663 102.145 35.3343C103.116 34.7903 104.436 36.9473 103.226 37.5803" fill="#BBE668" blush:i="0.0.124"/><path id="Fill 1234" fill-rule="evenodd" clip-rule="evenodd" d="M104.577 73.1369C104.942 72.8759 105.613 72.7889 105.328 72.1979C105.658 69.8699 106.508 74.2849 104.577 73.1369" fill="#BBE668" blush:i="0.0.125"/><path id="Fill 1236" fill-rule="evenodd" clip-rule="evenodd" d="M116.54 43.175C116.18 42.966 115.003 42.099 115.513 41.369C115.727 41.689 117.817 43.737 116.54 43.175" fill="#BBE668" blush:i="0.0.126"/><path id="Fill 1238" fill-rule="evenodd" clip-rule="evenodd" d="M132.612 53.8684C131.627 52.9434 133.193 50.9764 134.232 52.1684C132.71 51.8004 132.655 52.6374 132.612 53.8684" fill="#BBE668" blush:i="0.0.127"/><path id="Fill 1240" fill-rule="evenodd" clip-rule="evenodd" d="M152.2 43.0764C151.516 43.0294 150.901 43.3014 150.841 44.0764C149.604 42.9394 151.373 42.5254 152.2 43.0764" fill="#BBE668" blush:i="0.0.128"/><path id="Fill 1242" fill-rule="evenodd" clip-rule="evenodd" d="M129.635 28.0695C129.272 27.7585 128.759 26.6655 127.963 27.2145C127.51 26.3325 130.206 26.9085 129.635 28.0695" fill="#BBE668" blush:i="0.0.129"/><path id="Fill 1244" fill-rule="evenodd" clip-rule="evenodd" d="M106.72 35.0881C107.196 35.0371 108.012 35.0551 107.842 34.1091C108.619 32.9901 107.73 36.5921 106.72 35.0881" fill="#BBE668" blush:i="0.0.130"/><path id="Fill 1246" fill-rule="evenodd" clip-rule="evenodd" d="M147.885 40.4006C147.538 40.8316 146.978 41.2076 146.537 40.6556C147.019 40.6036 147.993 39.5326 147.885 40.4006" fill="#BBE668" blush:i="0.0.131"/><path id="Fill 1248" fill-rule="evenodd" clip-rule="evenodd" d="M132.167 26.3518C131.338 26.1108 131.453 27.2578 130.832 27.1738C130.759 26.4538 131.728 25.4628 132.167 26.3518" fill="#BBE668" blush:i="0.0.132"/><path id="Fill 1250" fill-rule="evenodd" clip-rule="evenodd" d="M136.296 29.7863C136.302 30.1263 136.215 30.4813 136.707 30.6223C137.631 32.5563 135.13 29.6373 136.296 29.7863" fill="#BBE668" blush:i="0.0.133"/><path id="Fill 1252" fill-rule="evenodd" clip-rule="evenodd" d="M120.739 36.7912C121.304 37.0782 121.866 36.8142 122.453 36.9532C121.957 37.4502 120.958 37.6332 120.739 36.7912" fill="#BBE668" blush:i="0.0.134"/><path id="Fill 1254" fill-rule="evenodd" clip-rule="evenodd" d="M128.119 28.6906C128.767 28.6956 129.017 28.7766 129.627 28.3266C129.374 29.0616 128.718 29.5426 128.119 28.6906" fill="#BBE668" blush:i="0.0.135"/><path id="Fill 1256" fill-rule="evenodd" clip-rule="evenodd" d="M106.285 33.6359C106.297 33.9679 105.857 34.9599 106.526 34.7489C106.341 36.2269 105.367 33.9999 106.285 33.6359" fill="#BBE668" blush:i="0.0.136"/><path id="Fill 1258" fill-rule="evenodd" clip-rule="evenodd" d="M137.191 42.8996C136.659 42.6736 135.474 42.5776 135.485 43.3496C134.883 42.4946 137.072 41.9956 137.191 42.8996" fill="#BBE668" blush:i="0.0.137"/><path id="Fill 1260" fill-rule="evenodd" clip-rule="evenodd" d="M99.2058 40.7482C99.4498 41.2882 99.7848 41.7372 100.381 41.9282C99.4818 42.4662 99.1638 41.4932 99.2058 40.7482" fill="#BBE668" blush:i="0.0.138"/><path id="Fill 1262" fill-rule="evenodd" clip-rule="evenodd" d="M116.898 40.9123C116.445 41.0043 115.992 41.0973 115.54 41.1893C115.708 40.4303 116.43 40.5083 116.898 40.9123" fill="#BBE668" blush:i="0.0.139"/><path id="Fill 1264" fill-rule="evenodd" clip-rule="evenodd" d="M137.378 31.1877C138.002 30.8977 138.392 30.7467 138.79 30.1317C138.99 30.8057 137.946 31.5577 137.378 31.1877" fill="#BBE668" blush:i="0.0.140"/><path id="Fill 1266" fill-rule="evenodd" clip-rule="evenodd" d="M148.424 42.9748C149.105 41.9098 150.825 43.4098 149.192 42.8678C148.852 42.6788 148.831 43.1578 148.424 42.9748" fill="#BBE668" blush:i="0.0.141"/><path id="Fill 1268" fill-rule="evenodd" clip-rule="evenodd" d="M143.758 42.9837C142.973 43.0167 143.411 42.1497 144.025 42.0897C144.025 42.4167 143.925 42.7057 143.758 42.9837" fill="#BBE668" blush:i="0.0.142"/><path id="Fill 1270" fill-rule="evenodd" clip-rule="evenodd" d="M129.295 34.0062C129.031 33.4872 129.646 33.2122 129.469 32.7382C129.99 32.8722 129.776 33.8922 129.295 34.0062" fill="#BBE668" blush:i="0.0.143"/><path id="Fill 1272" fill-rule="evenodd" clip-rule="evenodd" d="M98.0441 44.5999C98.4191 44.6889 98.2441 45.0009 98.2971 45.2219C98.0591 46.5329 97.2761 44.2459 98.0441 44.5999" fill="#BBE668" blush:i="0.0.144"/><path id="Fill 1274" fill-rule="evenodd" clip-rule="evenodd" d="M118.595 37.5041C118.604 37.6431 118.297 37.8161 118.64 37.9171C118.115 38.8341 117.688 36.8391 118.595 37.5041" fill="#BBE668" blush:i="0.0.145"/><path id="Fill 1276" fill-rule="evenodd" clip-rule="evenodd" d="M135.394 43.6184C135.858 43.7334 135.875 44.1654 136.023 44.5054C135.52 44.5394 135.341 44.0704 135.394 43.6184" fill="#BBE668" blush:i="0.0.146"/><path id="Fill 1278" fill-rule="evenodd" clip-rule="evenodd" d="M127.928 33.8303C128.326 34.0703 128.678 34.3463 129.199 34.1793C128.701 34.7283 128.246 34.6033 127.928 33.8303" fill="#BBE668" blush:i="0.0.147"/><path id="Fill 1280" fill-rule="evenodd" clip-rule="evenodd" d="M116.799 34.8059C116.685 34.4749 116.917 34.5569 117.09 34.5559C118.569 34.3799 116.761 35.4109 116.799 34.8059" fill="#BBE668" blush:i="0.0.148"/><path id="Fill 1282" fill-rule="evenodd" clip-rule="evenodd" d="M100.807 39.5715C99.911 39.8835 99.501 39.5125 100.617 39.3335C100.667 39.3265 100.743 39.4875 100.807 39.5715" fill="#BBE668" blush:i="0.0.149"/><path id="Fill 1284" fill-rule="evenodd" clip-rule="evenodd" d="M98.8292 43.7072C98.9252 44.2812 98.5152 44.1512 98.2022 44.1572C98.1832 43.8012 98.2572 43.7492 98.8292 43.7072" fill="#BBE668" blush:i="0.0.150"/><path id="Fill 1286" fill-rule="evenodd" clip-rule="evenodd" d="M127.938 37.5988C126.975 38.0418 127.32 37.2168 128.115 37.3198C128.085 37.4188 127.99 37.5038 127.938 37.5988" fill="#BBE668" blush:i="0.0.151"/><path id="Fill 1288" fill-rule="evenodd" clip-rule="evenodd" d="M116.716 38.425C116.473 38.644 116.362 39.196 115.991 38.875C116.112 38.53 116.429 38.5 116.716 38.425" fill="#BBE668" blush:i="0.0.152"/><path id="Fill 1290" fill-rule="evenodd" clip-rule="evenodd" d="M132.165 53.7883C131.943 54.1003 131.588 53.9563 131.262 53.9543C131.531 53.7273 131.786 53.4243 132.165 53.7883" fill="#BBE668" blush:i="0.0.153"/><path id="Fill 1292" fill-rule="evenodd" clip-rule="evenodd" d="M103.674 72.843C104.223 72.603 104.562 73.739 103.912 73.236C103.815 73.12 103.752 72.975 103.674 72.843" fill="#BBE668" blush:i="0.0.154"/><path id="Fill 1294" fill-rule="evenodd" clip-rule="evenodd" d="M105.571 77.0599C105.058 77.2829 105.209 76.8269 105.119 76.6169C105.639 76.3859 105.505 76.8269 105.571 77.0599" fill="#BBE668" blush:i="0.0.155"/><path id="Fill 1296" fill-rule="evenodd" clip-rule="evenodd" d="M104.857 76.5989C104.523 76.5719 104.188 76.5449 103.854 76.5179C104.058 76.3499 104.558 76.3899 104.857 76.5989" fill="#BBE668" blush:i="0.0.156"/><path id="Fill 1298" fill-rule="evenodd" clip-rule="evenodd" d="M97.4743 46.6555C97.6203 46.4115 97.5563 45.7355 97.9253 45.9515C97.9573 46.3025 97.8313 46.5525 97.4743 46.6555" fill="#BBE668" blush:i="0.0.157"/><path id="Fill 1300" fill-rule="evenodd" clip-rule="evenodd" d="M141.213 30.7736C141.49 30.7106 141.768 30.6456 142.046 30.5826C141.792 30.7506 141.6 31.1876 141.213 30.7736" fill="#BBE668" blush:i="0.0.158"/><path id="Fill 1302" fill-rule="evenodd" clip-rule="evenodd" d="M120.384 35.3273C120.325 35.5753 120.267 35.8243 120.208 36.0723C119.854 35.8663 120.288 35.5913 120.384 35.3273" fill="#BBE668" blush:i="0.0.159"/><path id="Fill 1304" fill-rule="evenodd" clip-rule="evenodd" d="M115.811 39.0285C115.839 39.8635 115.414 40.2355 115.543 39.0615C115.544 39.0465 115.718 39.0395 115.811 39.0285" fill="#BBE668" blush:i="0.0.160"/><path id="Fill 1306" fill-rule="evenodd" clip-rule="evenodd" d="M144.102 41.5539C143.469 41.5549 143.827 41.4419 143.93 41.0179C144.233 41.1169 144.014 41.3849 144.102 41.5539" fill="#BBE668" blush:i="0.0.161"/><path id="Fill 1308" fill-rule="evenodd" clip-rule="evenodd" d="M147.973 39.1242C147.978 39.3352 147.968 39.5452 147.964 39.7552C147.517 39.4222 147.518 39.3222 147.973 39.1242" fill="#BBE668" blush:i="0.0.162"/><path id="Fill 1310" fill-rule="evenodd" clip-rule="evenodd" d="M143.753 43.4367C143.852 42.9247 143.916 43.1507 144.166 43.3117C144.33 43.4697 143.884 43.7327 143.753 43.4367" fill="#BBE668" blush:i="0.0.163"/><path id="Fill 1312" fill-rule="evenodd" clip-rule="evenodd" d="M149.053 91.2521C149.221 91.6501 148.904 91.5891 148.695 91.6261C148.66 91.4351 148.728 91.0531 149.053 91.2521" fill="#BBE668" blush:i="0.0.164"/><path id="Fill 1314" fill-rule="evenodd" clip-rule="evenodd" d="M104.144 43.2571C104.418 43.2511 104.695 43.2401 104.761 43.6051C104.502 43.5831 104.234 43.5781 104.144 43.2571" fill="#BBE668" blush:i="0.0.165"/><path id="Fill 1316" fill-rule="evenodd" clip-rule="evenodd" d="M103.771 76.5285C103.819 76.8705 103.698 77.0715 103.326 77.0645L103.771 76.5285Z" fill="#BBE668" blush:i="0.0.166"/><path id="Fill 1318" fill-rule="evenodd" clip-rule="evenodd" d="M120.207 36.0706C120.519 36.1156 120.647 36.2906 120.581 36.6016C120.457 36.4246 120.332 36.2476 120.207 36.0706" fill="#BBE668" blush:i="0.0.167"/><path id="Fill 1320" fill-rule="evenodd" clip-rule="evenodd" d="M115.727 88.926C115.633 88.81 115.54 88.693 115.446 88.576C115.718 88.549 115.894 88.6 115.727 88.926" fill="#BBE668" blush:i="0.0.168"/><path id="Fill 1322" fill-rule="evenodd" clip-rule="evenodd" d="M137.525 43.1711C137.242 43.2051 137.208 43.1041 137.375 42.8941C137.603 42.8661 137.597 42.9951 137.525 43.1711" fill="#BBE668" blush:i="0.0.169"/><path id="Fill 1324" fill-rule="evenodd" clip-rule="evenodd" d="M109.187 36.3382L109.6 36.4052C109.473 36.5852 109.316 36.5602 109.187 36.3382" fill="#BBE668" blush:i="0.0.170"/><path id="Fill 1326" fill-rule="evenodd" clip-rule="evenodd" d="M115.539 31.5715C115.42 31.4515 115.301 31.3325 115.182 31.2125C115.467 31.1665 115.581 31.2905 115.539 31.5715" fill="#BBE668" blush:i="0.0.171"/><path id="Fill 1328" fill-rule="evenodd" clip-rule="evenodd" d="M129.365 32.5656C129.28 32.4426 129.196 32.3186 129.111 32.1946C129.557 32.0716 129.316 32.4186 129.365 32.5656" fill="#BBE668" blush:i="0.0.172"/><path id="Fill 1330" fill-rule="evenodd" clip-rule="evenodd" d="M144.392 109.152C144.539 109.21 144.687 109.268 144.834 109.327C144.687 109.268 144.539 109.21 144.392 109.152" fill="#BBE668" blush:i="0.0.173"/><path id="Fill 1332" fill-rule="evenodd" clip-rule="evenodd" d="M133.523 71.759C133.461 71.877 133.492 71.819 133.523 71.759C133.975 71.749 133.687 71.845 133.523 71.759" fill="#BBE668" blush:i="0.0.174"/><path id="Fill 1334" fill-rule="evenodd" clip-rule="evenodd" d="M138.814 29.8625C138.835 29.7145 138.824 29.7885 138.814 29.8625C138.643 29.7495 138.613 29.6665 138.814 29.8625" fill="#BBE668" blush:i="0.0.175"/><path id="Fill 1336" fill-rule="evenodd" clip-rule="evenodd" d="M114.372 74.3664C114.525 74.4124 114.775 74.2384 114.81 74.5564C114.664 74.4934 114.518 74.4294 114.372 74.3664" fill="#BBE668" blush:i="0.0.176"/><path id="Fill 1338" fill-rule="evenodd" clip-rule="evenodd" d="M137.658 43.722C137.648 43.599 137.638 43.477 137.629 43.354C137.945 43.452 137.806 43.586 137.658 43.722" fill="#BBE668" blush:i="0.0.177"/><path id="Fill 1340" fill-rule="evenodd" clip-rule="evenodd" d="M96.2061 52.7894C96.2271 52.6314 96.2161 52.7104 96.2061 52.7894C95.9431 52.8304 96.1541 52.6624 96.2061 52.7894" fill="#BBE668" blush:i="0.0.178"/><path id="Fill 1342" fill-rule="evenodd" clip-rule="evenodd" d="M117.158 38.5832C117.068 38.5232 116.978 38.4642 116.889 38.4042C117.143 38.2152 117.147 38.4042 117.158 38.5832" fill="#BBE668" blush:i="0.0.179"/><path id="Fill 1344" fill-rule="evenodd" clip-rule="evenodd" d="M144.031 42.007C144.054 41.884 144.078 41.762 144.102 41.64C144.078 41.762 144.054 41.884 144.031 42.007" fill="#BBE668" blush:i="0.0.180"/><path id="Fill 1346" fill-rule="evenodd" clip-rule="evenodd" d="M142.222 30.3068C142.109 30.1118 142.173 30.0288 142.389 30.0408C142.333 30.1288 142.278 30.2178 142.222 30.3068" fill="#BBE668" blush:i="0.0.181"/><path id="Fill 1348" fill-rule="evenodd" clip-rule="evenodd" d="M144.477 42.9114C144.467 43.0924 144.447 43.2574 144.206 43.0934C144.296 43.0324 144.387 42.9724 144.477 42.9114" fill="#BBE668" blush:i="0.0.182"/><path id="Fill 1350" fill-rule="evenodd" clip-rule="evenodd" d="M95.4157 54.3215C95.4217 54.2005 95.3817 54.0295 95.6057 54.1485L95.4157 54.3215Z" fill="#BBE668" blush:i="0.0.183"/><path id="Fill 1352" fill-rule="evenodd" clip-rule="evenodd" d="M141.595 29.0549C141.472 29.0169 141.35 28.9799 141.227 28.9429C141.35 28.9799 141.472 29.0169 141.595 29.0549" fill="#BBE668" blush:i="0.0.184"/><path id="Fill 1354" fill-rule="evenodd" clip-rule="evenodd" d="M133.134 27.175C132.953 27.157 132.788 27.13 132.962 26.895C133.02 26.988 133.076 27.082 133.134 27.175" fill="#BBE668" blush:i="0.0.185"/><path id="Fill 1356" fill-rule="evenodd" clip-rule="evenodd" d="M106.47 33.3811C106.411 33.4691 106.598 33.7361 106.283 33.6361C106.346 33.5511 106.408 33.4661 106.47 33.3811" fill="#BBE668" blush:i="0.0.186"/><path id="Fill 1358" fill-rule="evenodd" clip-rule="evenodd" d="M107.003 33.2814C106.904 33.3884 106.806 33.4814 106.73 33.2614C106.821 33.2684 106.912 33.2744 107.003 33.2814" fill="#BBE668" blush:i="0.0.187"/><path id="Fill 1360" fill-rule="evenodd" clip-rule="evenodd" d="M105.829 77.2424C105.743 77.1804 105.656 77.1204 105.57 77.0584C105.656 77.1204 105.743 77.1804 105.829 77.2424" fill="#BBE668" blush:i="0.0.188"/><path id="Fill 1362" fill-rule="evenodd" clip-rule="evenodd" d="M99.365 40.1945C99.317 40.2875 99.269 40.3795 99.221 40.4715C99.269 40.3795 99.317 40.2875 99.365 40.1945" fill="#BBE668" blush:i="0.0.189"/><path id="Fill 1364" fill-rule="evenodd" clip-rule="evenodd" d="M144.222 108.611C144.272 108.677 144.322 108.745 144.37 108.811C144.322 108.745 144.272 108.677 144.222 108.611" fill="#BBE668" blush:i="0.0.190"/><path id="Fill 1366" fill-rule="evenodd" clip-rule="evenodd" d="M112.846 39.386C112.784 39.417 112.724 39.448 112.663 39.481C112.724 39.448 112.784 39.417 112.846 39.386" fill="#BBE668" blush:i="0.0.191"/><path id="Fill 1368" fill-rule="evenodd" clip-rule="evenodd" d="M136.294 44.5227C136.355 44.5497 136.414 44.5777 136.475 44.6057C136.414 44.5777 136.355 44.5497 136.294 44.5227" fill="#BBE668" blush:i="0.0.192"/><path id="Fill 1370" fill-rule="evenodd" clip-rule="evenodd" d="M119.398 53.4016C119.424 53.3476 119.451 53.2936 119.477 53.2386C119.451 53.2936 119.424 53.3476 119.398 53.4016" fill="#BBE668" blush:i="0.0.193"/><path id="Fill 1372" fill-rule="evenodd" clip-rule="evenodd" d="M99.5291 40.0734C99.4851 40.0884 99.5081 40.0824 99.5291 40.0734C99.5091 40.1874 99.4881 40.2334 99.5291 40.0734" fill="#BBE668" blush:i="0.0.194"/><path id="Fill 1374" fill-rule="evenodd" clip-rule="evenodd" d="M119.578 56.1936C119.585 56.1336 119.592 56.0736 119.599 56.0136C119.592 56.0736 119.585 56.1336 119.578 56.1936" fill="#BBE668" blush:i="0.0.195"/><path id="Fill 1376" fill-rule="evenodd" clip-rule="evenodd" d="M126.949 38.3978C126.925 38.4268 126.899 38.4578 126.875 38.4868C126.899 38.4578 126.925 38.4268 126.949 38.3978" fill="#BBE668" blush:i="0.0.196"/><path id="Fill 1378" fill-rule="evenodd" clip-rule="evenodd" d="M106.016 89.6497C106.019 89.6467 106.016 89.6497 106.016 89.6497C106.045 89.6677 106.048 89.6677 106.016 89.6497" fill="#BBE668" blush:i="0.0.197"/><path id="Fill 1380" fill-rule="evenodd" clip-rule="evenodd" d="M148.691 91.5159C148.629 91.5259 148.66 91.5209 148.691 91.5159C148.714 91.6509 148.663 91.6059 148.691 91.5159" fill="#BBE668" blush:i="0.0.198"/><path id="Fill 1382" fill-rule="evenodd" clip-rule="evenodd" d="M125.689 39.4943L125.598 39.5703L125.689 39.4943Z" fill="#BBE668" blush:i="0.0.199"/><path id="Fill 1384" fill-rule="evenodd" clip-rule="evenodd" d="M117.236 97.1086C117.214 97.0856 117.192 97.0626 117.171 97.0396C117.192 97.0626 117.214 97.0856 117.236 97.1086" fill="#BBE668" blush:i="0.0.200"/><path id="Fill 1386" fill-rule="evenodd" clip-rule="evenodd" d="M113.833 41.8176C113.865 41.7896 113.896 41.7616 113.929 41.7336C113.896 41.7616 113.865 41.7896 113.833 41.8176" fill="#BBE668" blush:i="0.0.201"/><path id="Fill 1388" fill-rule="evenodd" clip-rule="evenodd" d="M131.803 84.0979C131.776 84.0979 131.747 84.0979 131.719 84.0969C131.747 84.0869 131.776 84.0869 131.803 84.0979" fill="#BBE668" blush:i="0.0.202"/><path id="Fill 1390" fill-rule="evenodd" clip-rule="evenodd" d="M135.576 44.426C135.555 44.461 135.556 44.464 135.578 44.428L135.576 44.426Z" fill="#BBE668" blush:i="0.0.203"/><path id="Fill 1392" fill-rule="evenodd" clip-rule="evenodd" d="M137.572 43.9631C137.562 43.9161 137.566 43.9401 137.572 43.9631C137.511 43.9471 137.508 43.9241 137.572 43.9631" fill="#BBE668" blush:i="0.0.204"/><path id="Fill 1394" fill-rule="evenodd" clip-rule="evenodd" d="M114.552 35.883C114.583 35.882 114.614 35.881 114.644 35.88C114.614 35.881 114.583 35.882 114.552 35.883" fill="#BBE668" blush:i="0.0.205"/><path id="Fill 1396" fill-rule="evenodd" clip-rule="evenodd" d="M106.375 35.258C106.407 35.277 106.409 35.277 106.378 35.255L106.375 35.258Z" fill="#BBE668" blush:i="0.0.206"/><path id="Fill 1398" fill-rule="evenodd" clip-rule="evenodd" d="M114.644 72.5666C114.63 72.5536 114.618 72.5406 114.605 72.5276C114.634 72.5246 114.636 72.5496 114.644 72.5666" fill="#BBE668" blush:i="0.0.207"/><path id="Fill 1400" fill-rule="evenodd" clip-rule="evenodd" d="M115.278 72.6535L115.175 72.6505L115.278 72.6535Z" fill="#BBE668" blush:i="0.0.208"/><path id="Fill 1402" fill-rule="evenodd" clip-rule="evenodd" d="M101.614 76.7014C101.584 76.7044 101.551 76.6954 101.522 76.7044C101.554 76.6764 101.593 76.6844 101.614 76.7014" fill="#BBE668" blush:i="0.0.209"/><path id="Fill 1404" fill-rule="evenodd" clip-rule="evenodd" d="M119.406 35.888C119.423 35.856 119.423 35.852 119.402 35.885L119.406 35.888Z" fill="#BBE668" blush:i="0.0.210"/><path id="Fill 1406" fill-rule="evenodd" clip-rule="evenodd" d="M133.431 39.7482C133.384 39.7962 133.381 39.7952 133.424 39.7432L133.431 39.7482Z" fill="#BBE668" blush:i="0.0.211"/><path id="Fill 1408" fill-rule="evenodd" clip-rule="evenodd" d="M117.517 63.0393L117.699 62.6763L117.517 63.0393Z" fill="#BBE668" blush:i="0.0.212"/><path id="Fill 1410" fill-rule="evenodd" clip-rule="evenodd" d="M117.335 63.1662C117.397 63.1222 117.458 63.0792 117.52 63.0362C117.458 63.0792 117.397 63.1222 117.335 63.1662" fill="#BBE668" blush:i="0.0.213"/><path id="Fill 1412" fill-rule="evenodd" clip-rule="evenodd" d="M117.699 65.7336C117.679 65.6906 117.595 65.6326 117.668 65.6126C117.68 65.6506 117.678 65.7016 117.699 65.7336" fill="#BBE668" blush:i="0.0.214"/><path id="Fill 1414" fill-rule="evenodd" clip-rule="evenodd" d="M115.721 41.4611C115.719 41.4601 115.721 41.4611 115.721 41.4611C115.741 41.4231 115.741 41.4221 115.721 41.4611" fill="#BBE668" blush:i="0.0.215"/><path id="Fill 1416" fill-rule="evenodd" clip-rule="evenodd" d="M102.491 43.2746C102.455 43.2936 102.45 43.2756 102.445 43.2446C102.48 43.2246 102.485 43.2436 102.491 43.2746" fill="#BBE668" blush:i="0.0.216"/><path id="Fill 1418" fill-rule="evenodd" clip-rule="evenodd" d="M100.601 41.675C100.634 41.652 100.637 41.681 100.64 41.709C100.616 41.709 100.599 41.703 100.601 41.675" fill="#BBE668" blush:i="0.0.217"/><path id="Fill 1420" fill-rule="evenodd" clip-rule="evenodd" d="M109.778 30.3752C109.71 30.3152 109.763 30.2882 109.826 30.2632C109.864 30.3272 109.851 30.3572 109.778 30.3752" fill="#BBE668" blush:i="0.0.218"/><path id="Fill 1422" fill-rule="evenodd" clip-rule="evenodd" d="M103.711 83.719C103.641 83.592 103.569 83.464 103.499 83.336C103.569 83.464 103.641 83.592 103.711 83.719" fill="#BBE668" blush:i="0.0.219"/><path id="Fill 1424" fill-rule="evenodd" clip-rule="evenodd" d="M135.388 33.9094C135.454 33.9704 135.421 33.9394 135.388 33.9094C135.51 33.8654 135.576 33.8684 135.388 33.9094" fill="#BBE668" blush:i="0.0.220"/><path id="Fill 1426" fill-rule="evenodd" clip-rule="evenodd" d="M101.256 78.5949C101.266 78.5019 101.275 78.4089 101.284 78.3169C101.275 78.4089 101.266 78.5019 101.256 78.5949" fill="#BBE668" blush:i="0.0.221"/><path id="Fill 1428" fill-rule="evenodd" clip-rule="evenodd" d="M112.13 35.1614C112.342 35.1124 112.236 35.1374 112.13 35.1614C112.157 34.9404 112.301 35.0114 112.13 35.1614" fill="#BBE668" blush:i="0.0.222"/><path id="Fill 1430" fill-rule="evenodd" clip-rule="evenodd" d="M113.932 33.7854C113.868 33.8744 113.835 33.8014 113.803 33.7334C113.85 33.6474 113.902 33.6984 113.932 33.7854" fill="#BBE668" blush:i="0.0.223"/><path id="Fill 1432" fill-rule="evenodd" clip-rule="evenodd" d="M118.775 38.4934V38.4934C118.754 38.5324 118.754 38.5314 118.775 38.4934" fill="#BBE668" blush:i="0.0.224"/><path id="Fill 1434" fill-rule="evenodd" clip-rule="evenodd" d="M115.899 73.3753C115.9 73.2563 115.9 73.3153 115.899 73.3753C115.737 73.3303 115.779 73.2673 115.899 73.3753" fill="#BBE668" blush:i="0.0.225"/><path id="Fill 1436" fill-rule="evenodd" clip-rule="evenodd" d="M132.792 43.799C132.834 43.778 132.888 43.696 132.911 43.765C132.872 43.778 132.829 43.782 132.792 43.799" fill="#BBE668" blush:i="0.0.226"/><path id="Fill 1438" fill-rule="evenodd" clip-rule="evenodd" d="M128.115 37.3205C128.136 37.2825 128.137 37.1725 128.187 37.2275C128.164 37.2535 128.144 37.3255 128.115 37.3205" fill="#BBE668" blush:i="0.0.227"/><path id="Fill 1442" fill-rule="evenodd" clip-rule="evenodd" d="M112.938 32.9191C112.938 32.9801 112.938 32.9491 112.938 32.9191C112.956 32.9561 112.994 32.9861 112.938 32.9191" fill="#BBE668" blush:i="0.0.228"/><path id="Fill 1446" fill-rule="evenodd" clip-rule="evenodd" d="M125.337 37.1477C125.297 37.1847 125.296 37.1827 125.332 37.1427L125.337 37.1477Z" fill="#BBE668" blush:i="0.0.229"/><path id="Fill 1448" fill-rule="evenodd" clip-rule="evenodd" d="M105.085 77.8732C104.911 78.0502 104.831 77.7962 104.967 77.6822C105 77.7342 105.032 77.7882 105.085 77.8732" fill="#BBE668" blush:i="0.0.230"/><path id="Fill 1450" fill-rule="evenodd" clip-rule="evenodd" d="M115.629 99.1808C115.659 99.1498 115.691 99.1188 115.722 99.0878C115.691 99.1188 115.659 99.1498 115.629 99.1808" fill="#BBE668" blush:i="0.0.231"/><path id="Fill 1452" fill-rule="evenodd" clip-rule="evenodd" d="M143.576 44.5539C143.547 44.5129 143.516 44.4719 143.486 44.4309C143.516 44.4719 143.547 44.5129 143.576 44.5539" fill="#BBE668" blush:i="0.0.232"/><path id="Fill 1454" fill-rule="evenodd" clip-rule="evenodd" d="M149.502 45.2366C149.488 45.2226 149.475 45.2096 149.46 45.1956C149.49 45.1916 149.497 45.2126 149.502 45.2366" fill="#BBE668" blush:i="0.0.233"/><path id="Fill 1456" fill-rule="evenodd" clip-rule="evenodd" d="M105.875 43.0247C105.86 42.9827 105.854 42.9677 105.895 42.9627C105.89 42.9807 105.884 42.9977 105.875 43.0247" fill="#BBE668" blush:i="0.0.234"/><path id="Fill 1458" fill-rule="evenodd" clip-rule="evenodd" d="M100.674 78.9992C100.65 79.0612 100.626 79.0902 100.561 79.0512C100.577 78.9782 100.606 78.9622 100.674 78.9992" fill="#BBE668" blush:i="0.0.235"/><path id="Fill 1460" fill-rule="evenodd" clip-rule="evenodd" d="M103.951 72.8371C103.963 72.8241 103.975 72.8121 103.988 72.7991C103.989 72.8231 103.971 72.8301 103.951 72.8371" fill="#BBE668" blush:i="0.0.236"/><path id="Fill 1462" fill-rule="evenodd" clip-rule="evenodd" d="M137.204 40.6652C136.211 43.2922 134.236 39.7102 132.643 39.4352C131.684 35.5012 137.654 38.5002 137.204 40.6652" fill="#9DB989" blush:i="0.0.237"/><path id="Fill 1464" fill-rule="evenodd" clip-rule="evenodd" d="M117.699 65.7336C114.72 67.0976 115.581 63.2816 117.697 62.6796C120.798 63.1986 118.57 64.6206 117.699 65.7336" fill="#9DB989" blush:i="0.0.238"/><path id="Fill 1466" fill-rule="evenodd" clip-rule="evenodd" d="M116.899 40.9123C117.928 41.5293 121.349 45.2033 118.591 45.3273C117.783 44.0823 113.782 40.8093 116.899 40.9123" fill="#9DB989" blush:i="0.0.239"/><path id="Fill 1468" fill-rule="evenodd" clip-rule="evenodd" d="M99.3651 40.1945C101.842 38.1535 100.756 41.9505 103.237 40.9995C105.07 42.0225 102.012 45.5595 101.567 41.9395C101.732 41.6855 98.3571 42.3145 99.3651 40.1945" fill="#9DB989" blush:i="0.0.240"/><path id="Fill 1470" fill-rule="evenodd" clip-rule="evenodd" d="M102.246 51.3537C101.817 56.1647 97.1147 50.3747 100.909 49.8017C101.795 49.5047 102.248 50.6797 102.246 51.3537" fill="#9DB989" blush:i="0.0.241"/><path id="Fill 1472" fill-rule="evenodd" clip-rule="evenodd" d="M115.98 79.0334C117.605 79.5124 118.98 79.6794 119.759 81.3134C119.185 83.0024 114.227 80.6144 115.98 79.0334" fill="#9DB989" blush:i="0.0.242"/><path id="Fill 1474" fill-rule="evenodd" clip-rule="evenodd" d="M100.088 61.8801C100.077 58.9581 104.112 60.7181 102.492 62.9671C101.909 64.1931 99.7689 63.0821 100.088 61.8801" fill="#9DB989" blush:i="0.0.243"/><path id="Fill 1476" fill-rule="evenodd" clip-rule="evenodd" d="M111.67 29.8107C111.778 31.3137 110.007 30.6497 109.325 30.1417C106.389 28.6857 112.199 26.3897 111.67 29.8107" fill="#9DB989" blush:i="0.0.244"/><path id="Fill 1478" fill-rule="evenodd" clip-rule="evenodd" d="M133.6 46.5803C132.88 48.0813 131.364 47.8893 130.643 46.5333C130.577 44.0183 133.825 44.1943 133.6 46.5803" fill="#9DB989" blush:i="0.0.245"/><path id="Fill 1480" fill-rule="evenodd" clip-rule="evenodd" d="M100.531 42.013C102.614 40.919 101.256 42.396 102.385 43.494C104.228 42.648 103.422 43.191 103.024 44.706C103.796 47.384 99.2812 46.083 101.177 44.177C102.137 43.672 101.588 41.937 100.531 42.013" fill="#9DB989" blush:i="0.0.246"/><path id="Fill 1482" fill-rule="evenodd" clip-rule="evenodd" d="M100.085 66.2678C99.9695 64.6128 102.825 64.0138 102.76 65.7908C102.941 67.9938 100.256 68.7608 100.085 66.2678" fill="#9DB989" blush:i="0.0.247"/><path id="Fill 1484" fill-rule="evenodd" clip-rule="evenodd" d="M123.723 42.0451C123.546 43.7081 121.787 44.5091 120.899 42.8651C120.355 40.8571 123.217 39.7751 123.723 42.0451" fill="#9DB989" blush:i="0.0.248"/><path id="Fill 1486" fill-rule="evenodd" clip-rule="evenodd" d="M100.002 54.7639C102.079 54.4069 102.532 57.3269 100.814 57.7439C99.175 57.8769 98.163 54.9859 100.002 54.7639" fill="#9DB989" blush:i="0.0.249"/><path id="Fill 1488" fill-rule="evenodd" clip-rule="evenodd" d="M106.018 89.6468C103.828 91.8908 102.594 86.7168 104.908 86.9788C106.368 87.2508 106.317 88.5218 106.018 89.6468" fill="#9DB989" blush:i="0.0.250"/><path id="Fill 1490" fill-rule="evenodd" clip-rule="evenodd" d="M103.507 83.2952C103.196 81.6412 104.466 80.7952 105.912 81.5842C106.858 83.5572 104.589 85.4932 103.507 83.2952" fill="#9DB989" blush:i="0.0.251"/><path id="Fill 1492" fill-rule="evenodd" clip-rule="evenodd" d="M102.701 48.8313C102.068 47.8653 103.261 45.6573 104.476 46.3173C106.518 47.2533 104.211 50.6323 102.701 48.8313" fill="#9DB989" blush:i="0.0.252"/><path id="Fill 1494" fill-rule="evenodd" clip-rule="evenodd" d="M105.72 33.719C105.891 35.812 101.977 35.016 102.817 33.085C103.452 31.743 105.737 32.25 105.72 33.719" fill="#9DB989" blush:i="0.0.253"/><path id="Fill 1496" fill-rule="evenodd" clip-rule="evenodd" d="M117.696 60.7443C116.126 60.6143 115.05 57.9463 117.101 57.7063C118.866 57.1753 119.223 60.7563 117.696 60.7443" fill="#9DB989" blush:i="0.0.254"/><path id="Fill 1498" fill-rule="evenodd" clip-rule="evenodd" d="M119.603 51.3352C117.86 51.6312 118.188 47.8142 119.77 47.9852C120.744 48.4832 121.351 51.5732 119.603 51.3352" fill="#9DB989" blush:i="0.0.255"/><path id="Fill 1500" fill-rule="evenodd" clip-rule="evenodd" d="M103.226 37.5803C101.795 40.2583 99.2867 36.0183 101.812 35.4313C102.862 35.1613 103.966 36.7633 103.226 37.5803" fill="#9DB989" blush:i="0.0.256"/><path id="Fill 1502" fill-rule="evenodd" clip-rule="evenodd" d="M135.487 36.0627C133.445 37.3317 132.142 35.1417 133.984 33.8207C135.684 33.1557 136.555 34.6667 135.487 36.0627" fill="#9DB989" blush:i="0.0.257"/><path id="Fill 1504" fill-rule="evenodd" clip-rule="evenodd" d="M104.4 79.3986C103.096 79.5396 100.812 82.2306 101.212 78.3136C103.482 77.4076 103.178 77.2266 104.4 79.3986" fill="#9DB989" blush:i="0.0.258"/><path id="Fill 1506" fill-rule="evenodd" clip-rule="evenodd" d="M112.135 34.9191C113.321 34.6671 113.122 32.9081 114.318 32.8931C116.858 29.4901 114.303 39.2751 112.135 34.9191" fill="#9DB989" blush:i="0.0.259"/><path id="Fill 1508" fill-rule="evenodd" clip-rule="evenodd" d="M104.496 38.4036C102.422 35.9506 107.538 34.8406 106.733 37.7196C106.22 38.9246 105.392 38.3576 104.496 38.4036" fill="#9DB989" blush:i="0.0.260"/><path id="Fill 1510" fill-rule="evenodd" clip-rule="evenodd" d="M118.112 68.4338C118.607 69.9648 117.755 71.0758 116.171 70.8538C115.166 69.2808 116.224 66.9018 118.112 68.4338" fill="#9DB989" blush:i="0.0.261"/><path id="Fill 1512" fill-rule="evenodd" clip-rule="evenodd" d="M106.013 60.2551C106.835 61.6391 105.046 63.4331 103.883 62.2981C102.923 60.7781 104.474 58.8491 106.013 60.2551" fill="#9DB989" blush:i="0.0.262"/><path id="Fill 1514" fill-rule="evenodd" clip-rule="evenodd" d="M132.339 95.8605C131.28 95.8395 132.333 94.1945 131.84 94.0485C128.407 91.1865 135.397 90.9405 132.339 95.8605" fill="#9DB989" blush:i="0.0.263"/><path id="Fill 1516" fill-rule="evenodd" clip-rule="evenodd" d="M130.653 38.2189C129.35 37.6989 128.526 36.3149 129.981 35.4179C131.839 35.1689 132.587 37.8949 130.653 38.2189" fill="#9DB989" blush:i="0.0.264"/><path id="Fill 1518" fill-rule="evenodd" clip-rule="evenodd" d="M134.232 52.1682C135.099 52.6262 135.329 54.1592 134.676 54.7732C132.638 56.1612 131.381 50.9472 134.232 52.1682" fill="#9DB989" blush:i="0.0.265"/><path id="Fill 1520" fill-rule="evenodd" clip-rule="evenodd" d="M145.452 83.8381C146.672 84.0861 147.17 85.2671 146.558 86.3971C145.171 87.7941 143.33 84.2251 145.452 83.8381" fill="#9DB989" blush:i="0.0.266"/><path id="Fill 1522" fill-rule="evenodd" clip-rule="evenodd" d="M134.668 66.1779C136.257 68.2289 133.337 69.7239 132.729 67.3929C132.155 65.9499 134.092 65.4249 134.668 66.1779" fill="#9DB989" blush:i="0.0.267"/><path id="Fill 1524" fill-rule="evenodd" clip-rule="evenodd" d="M132.792 88.4826C134.939 87.6006 135.617 90.9696 133.541 90.9566C132.197 90.9216 132.018 89.3176 132.792 88.4826" fill="#9DB989" blush:i="0.0.268"/><path id="Fill 1526" fill-rule="evenodd" clip-rule="evenodd" d="M145.912 36.59C143.654 37.008 144.859 33.977 145.39 33.072C147.828 32.606 146.066 35.182 145.912 36.59" fill="#9DB989" blush:i="0.0.269"/><path id="Fill 1528" fill-rule="evenodd" clip-rule="evenodd" d="M132 50.1731C132.742 50.7011 132.539 51.9641 131.59 52.4641C129.032 52.5401 129.508 48.6181 132 50.1731" fill="#9DB989" blush:i="0.0.270"/><path id="Fill 1530" fill-rule="evenodd" clip-rule="evenodd" d="M132.881 56.306C132.596 57.249 133.993 59.486 132.168 58.994C129.795 58.808 131.539 54.792 132.881 56.306" fill="#9DB989" blush:i="0.0.271"/><path id="Fill 1532" fill-rule="evenodd" clip-rule="evenodd" d="M104.689 67.1564C103.78 67.1514 103.722 67.0414 103.651 66.0794C103.899 62.4054 108.428 66.8534 104.689 67.1564" fill="#9DB989" blush:i="0.0.272"/><path id="Fill 1534" fill-rule="evenodd" clip-rule="evenodd" d="M133.245 76.8801C133.294 79.9721 129.286 77.1901 131.449 75.5371C132.374 75.1941 133.609 75.7571 133.245 76.8801" fill="#9DB989" blush:i="0.0.273"/><path id="Fill 1536" fill-rule="evenodd" clip-rule="evenodd" d="M132.342 68.6057C133.633 68.6337 134.987 69.7817 133.78 70.9447C132.043 71.8617 130.728 69.8177 132.342 68.6057" fill="#9DB989" blush:i="0.0.274"/><path id="Fill 1538" fill-rule="evenodd" clip-rule="evenodd" d="M131.702 42.5433C130.453 45.9583 127.003 40.6433 130.685 41.2053C131.04 41.7313 131.537 41.8623 131.702 42.5433" fill="#9DB989" blush:i="0.0.275"/><path id="Fill 1540" fill-rule="evenodd" clip-rule="evenodd" d="M122.087 34.4788C120.684 35.8818 116.784 34.9268 118.399 33.0928C119.627 32.5988 120.834 34.2488 122.087 34.4788" fill="#9DB989" blush:i="0.0.276"/><path id="Fill 1542" fill-rule="evenodd" clip-rule="evenodd" d="M116.892 103.937C118.217 104.149 117.844 105.416 117.807 106.406C116.323 108.177 114.306 104.123 116.892 103.937" fill="#9DB989" blush:i="0.0.277"/><path id="Fill 1544" fill-rule="evenodd" clip-rule="evenodd" d="M144.445 36.9016C144.258 38.5476 142.996 38.3226 142.035 37.6416C141.337 35.4956 143.827 34.7996 144.445 36.9016" fill="#9DB989" blush:i="0.0.278"/><path id="Fill 1546" fill-rule="evenodd" clip-rule="evenodd" d="M144.99 80.7297C143.349 81.2457 143.773 78.6777 144.339 78.3597C146.127 77.8977 147.402 80.7447 144.99 80.7297" fill="#9DB989" blush:i="0.0.279"/><path id="Fill 1548" fill-rule="evenodd" clip-rule="evenodd" d="M116.375 113.1C115.923 112.5 114.947 110.838 116.441 110.264C118.537 109.862 118.855 113.842 116.375 113.1" fill="#9DB989" blush:i="0.0.280"/><path id="Fill 1550" fill-rule="evenodd" clip-rule="evenodd" d="M119.952 37.1301C122.425 39.7361 116.353 43.1161 118.396 38.2431C119.352 38.5881 120.461 38.6831 119.952 37.1301" fill="#9DB989" blush:i="0.0.281"/><path id="Fill 1552" fill-rule="evenodd" clip-rule="evenodd" d="M132.996 60.3986C133.025 58.4326 135.963 59.2766 135.372 60.9466C135.087 62.5256 132.973 61.7446 132.996 60.3986" fill="#9DB989" blush:i="0.0.282"/><path id="Fill 1554" fill-rule="evenodd" clip-rule="evenodd" d="M147.098 63.048C148.806 62.983 149.02 65.066 147.601 65.669C145.925 65.516 145.558 63.933 147.098 63.048" fill="#9DB989" blush:i="0.0.283"/><path id="Fill 1556" fill-rule="evenodd" clip-rule="evenodd" d="M133.826 63.5755C132.899 64.4905 132.964 65.5645 131.384 64.5635C130.139 62.4655 133.095 61.6545 133.826 63.5755" fill="#9DB989" blush:i="0.0.284"/><path id="Fill 1558" fill-rule="evenodd" clip-rule="evenodd" d="M147.206 99.3732C146.466 101.877 143.219 98.2212 145.752 97.5732C146.658 97.6462 147.255 98.4312 147.206 99.3732" fill="#9DB989" blush:i="0.0.285"/><path id="Fill 1560" fill-rule="evenodd" clip-rule="evenodd" d="M117.087 96.7092C115.145 97.0752 115.569 93.2872 117.143 94.1872C118.177 94.6382 118.64 96.7882 117.087 96.7092" fill="#9DB989" blush:i="0.0.286"/><path id="Fill 1562" fill-rule="evenodd" clip-rule="evenodd" d="M132.267 80.4123C132.811 78.8233 134.925 80.0433 134.826 81.4263C134.522 83.2493 132.26 81.7273 132.267 80.4123" fill="#9DB989" blush:i="0.0.287"/><path id="Fill 1564" fill-rule="evenodd" clip-rule="evenodd" d="M131.941 97.8625C134.147 97.6545 133.621 100.581 131.712 100.42C130.697 100.054 130.869 98.1725 131.941 97.8625" fill="#9DB989" blush:i="0.0.288"/><path id="Fill 1566" fill-rule="evenodd" clip-rule="evenodd" d="M103.223 75.5355C103.007 78.9695 98.6987 74.4925 101.915 74.2455C103.051 74.1725 102.677 74.9145 103.223 75.5355" fill="#9DB989" blush:i="0.0.289"/><path id="Fill 1568" fill-rule="evenodd" clip-rule="evenodd" d="M117.602 46.1164C118.041 47.4444 119.009 48.8624 116.603 48.4854C114.667 47.9184 116.355 45.3844 117.602 46.1164" fill="#9DB989" blush:i="0.0.290"/><path id="Fill 1570" fill-rule="evenodd" clip-rule="evenodd" d="M146.641 66.425C146.67 67.779 145.381 68.218 144.439 67.45C143.592 65.657 145.955 64.47 146.641 66.425" fill="#9DB989" blush:i="0.0.291"/><path id="Fill 1572" fill-rule="evenodd" clip-rule="evenodd" d="M115.902 72.9211C115.665 75.3421 119.925 73.0381 117.518 75.8881C115.477 76.7461 114.564 72.7071 115.902 72.9211" fill="#9DB989" blush:i="0.0.292"/><path id="Fill 1574" fill-rule="evenodd" clip-rule="evenodd" d="M146.449 56.5657C147.317 56.7487 147.902 57.8367 147.385 58.6537C146.01 60.4797 143.971 56.6177 146.449 56.5657" fill="#9DB989" blush:i="0.0.293"/><path id="Fill 1576" fill-rule="evenodd" clip-rule="evenodd" d="M115.899 66.9484C116.001 68.4594 114.45 68.3894 113.785 67.7164C112.841 65.7834 115.849 64.6824 115.899 66.9484" fill="#9DB989" blush:i="0.0.294"/><path id="Fill 1578" fill-rule="evenodd" clip-rule="evenodd" d="M144.557 71.1574C144.689 68.3004 148.342 71.0434 146.284 72.3874C145.701 72.5534 144.399 71.8364 144.557 71.1574" fill="#9DB989" blush:i="0.0.295"/><path id="Fill 1580" fill-rule="evenodd" clip-rule="evenodd" d="M146.098 61.882C146.866 63.904 143.012 63.119 143.888 61.362C144.345 60.072 146.185 60.594 146.098 61.882" fill="#9DB989" blush:i="0.0.296"/><path id="Fill 1582" fill-rule="evenodd" clip-rule="evenodd" d="M112.938 32.9191C111.878 29.3511 117.704 31.2931 114.478 32.5111C114.857 33.1791 113.151 33.7981 112.938 32.9191" fill="#9DB989" blush:i="0.0.297"/><path id="Fill 1584" fill-rule="evenodd" clip-rule="evenodd" d="M115.987 83.3068C116.302 84.9188 115.887 86.1268 114.145 85.1558C113.587 83.6818 114.534 82.2178 115.987 83.3068" fill="#9DB989" blush:i="0.0.298"/><path id="Fill 1586" fill-rule="evenodd" clip-rule="evenodd" d="M152.608 53.8234C150.919 53.7194 152.037 50.7374 153.452 51.7184C154.988 52.1434 153.841 54.0924 152.608 53.8234" fill="#9DB989" blush:i="0.0.299"/><path id="Fill 1588" fill-rule="evenodd" clip-rule="evenodd" d="M104.4 79.3986C101.697 77.6046 104.935 74.9606 105.849 77.6866C105.156 78.3016 105.344 79.1256 104.4 79.3986" fill="#9DB989" blush:i="0.0.300"/><path id="Fill 1590" fill-rule="evenodd" clip-rule="evenodd" d="M121.926 37.7854C123.157 38.0974 123.955 39.1534 122.828 40.1174C121.024 40.6894 120.29 38.8604 121.926 37.7854" fill="#9DB989" blush:i="0.0.301"/><path id="Fill 1592" fill-rule="evenodd" clip-rule="evenodd" d="M115.64 124.418C115.704 120.585 119.882 125.348 116.616 125.261C115.951 125.338 115.727 124.99 115.64 124.418" fill="#9DB989" blush:i="0.0.302"/><path id="Fill 1594" fill-rule="evenodd" clip-rule="evenodd" d="M104.451 70.3049C103.255 70.5239 102.525 68.8129 103.556 68.1679C105.214 67.6719 106.353 70.3609 104.451 70.3049" fill="#9DB989" blush:i="0.0.303"/><path id="Fill 1596" fill-rule="evenodd" clip-rule="evenodd" d="M118.31 52.0716C116.916 52.5856 118.105 54.5356 116.279 53.8556C114.496 52.4576 117.581 50.4396 118.31 52.0716" fill="#9DB989" blush:i="0.0.304"/><path id="Fill 1598" fill-rule="evenodd" clip-rule="evenodd" d="M112.847 39.3859C113.325 39.8019 114.364 39.7829 114.156 40.7629C114.701 43.6979 109.633 40.1099 112.847 39.3859" fill="#9DB989" blush:i="0.0.305"/><path id="Fill 1600" fill-rule="evenodd" clip-rule="evenodd" d="M115.724 102.622C117.146 104.916 116.505 104.135 114.414 104.272C113.006 103.533 114.176 101.601 115.724 102.622" fill="#9DB989" blush:i="0.0.306"/><path id="Fill 1602" fill-rule="evenodd" clip-rule="evenodd" d="M116.608 85.4163C117.857 85.3923 119.025 86.5553 117.547 87.4693C116.037 88.3413 115.229 85.9753 116.608 85.4163" fill="#9DB989" blush:i="0.0.307"/><path id="Fill 1604" fill-rule="evenodd" clip-rule="evenodd" d="M136.02 29.7258C134.679 30.5148 132.999 28.5298 134.592 27.6578C135.782 27.3158 136.495 28.6638 136.02 29.7258" fill="#9DB989" blush:i="0.0.308"/><path id="Fill 1606" fill-rule="evenodd" clip-rule="evenodd" d="M132.339 95.8605C132.343 95.4585 131.854 94.8675 132.356 94.6615C134.302 92.0685 135.561 98.6205 132.339 95.8605" fill="#9DB989" blush:i="0.0.309"/><path id="Fill 1608" fill-rule="evenodd" clip-rule="evenodd" d="M125.601 39.5667C125.574 40.4907 126.79 40.3127 127.391 40.4727C127.513 43.6497 123.081 41.2207 125.601 39.5667" fill="#9DB989" blush:i="0.0.310"/><path id="Fill 1610" fill-rule="evenodd" clip-rule="evenodd" d="M118.104 99.1887C118.346 101.524 114.852 101.519 115.641 99.1447C116.373 98.2327 117.255 99.4647 118.104 99.1887" fill="#9DB989" blush:i="0.0.311"/><path id="Fill 1612" fill-rule="evenodd" clip-rule="evenodd" d="M116.894 56.9162C115.621 56.8872 115.14 55.1252 116.153 54.3942C117.32 54.2782 118.484 56.6952 116.894 56.9162" fill="#9DB989" blush:i="0.0.312"/><path id="Fill 1614" fill-rule="evenodd" clip-rule="evenodd" d="M115.905 90.6506C115.975 91.3886 116.822 91.7296 117.464 91.3406C120.79 91.6766 114.507 95.4176 115.905 90.6506" fill="#9DB989" blush:i="0.0.313"/><path id="Fill 1616" fill-rule="evenodd" clip-rule="evenodd" d="M146.67 51.2209C146.66 52.4249 146.038 53.1329 144.89 52.3579C143.465 51.2319 145.88 49.3299 146.67 51.2209" fill="#9DB989" blush:i="0.0.314"/><path id="Fill 1618" fill-rule="evenodd" clip-rule="evenodd" d="M153.789 41.0451C152.837 43.0381 150.435 40.6921 152.129 39.4811C152.906 39.0591 153.573 40.3401 153.789 41.0451" fill="#9DB989" blush:i="0.0.315"/><path id="Fill 1620" fill-rule="evenodd" clip-rule="evenodd" d="M124.056 30.8049C123.59 31.9309 120.958 31.2849 121.558 30.0169C122.472 28.6559 123.824 29.5049 124.056 30.8049" fill="#9DB989" blush:i="0.0.316"/><path id="Fill 1622" fill-rule="evenodd" clip-rule="evenodd" d="M115.539 43.093C115.102 44.8 114.599 45.787 113.39 43.935C113.02 42.711 115.006 41.78 115.539 43.093" fill="#9DB989" blush:i="0.0.317"/><path id="Fill 1624" fill-rule="evenodd" clip-rule="evenodd" d="M107.276 33.3186C108.255 33.4226 107.684 31.0486 109.369 31.7556C111.964 32.7206 107.881 34.5216 107.276 33.3186" fill="#9DB989" blush:i="0.0.318"/><path id="Fill 1626" fill-rule="evenodd" clip-rule="evenodd" d="M132.874 73.5521C131.665 71.9961 135.277 71.0231 135.065 72.6331C135.198 73.9631 133.954 74.5361 132.874 73.5521" fill="#9DB989" blush:i="0.0.319"/><path id="Fill 1628" fill-rule="evenodd" clip-rule="evenodd" d="M148.776 49.3918C148.677 51.7558 145.345 50.0568 146.755 48.3998C147.499 48.2788 148.387 48.7368 148.776 49.3918" fill="#9DB989" blush:i="0.0.320"/><path id="Fill 1630" fill-rule="evenodd" clip-rule="evenodd" d="M146.191 43.3557C144.848 43.2147 143.645 41.3147 145.453 41.0427C146.682 41.1247 147.326 42.5867 146.191 43.3557" fill="#9DB989" blush:i="0.0.321"/><path id="Fill 1632" fill-rule="evenodd" clip-rule="evenodd" d="M151.325 58.3459C151.337 56.7719 153.597 56.8149 153.699 58.2049C153.755 59.6429 151.587 59.6239 151.325 58.3459" fill="#9DB989" blush:i="0.0.322"/><path id="Fill 1634" fill-rule="evenodd" clip-rule="evenodd" d="M145.458 39.0344C145.874 40.5964 144.598 41.5644 143.717 40.0444C142.597 38.8184 144.674 37.7634 145.458 39.0344" fill="#9DB989" blush:i="0.0.323"/><path id="Fill 1636" fill-rule="evenodd" clip-rule="evenodd" d="M131.828 84.0773C133.51 83.7113 134.094 85.1653 132.796 86.1943C131.492 86.6743 130.641 84.6333 131.828 84.0773" fill="#9DB989" blush:i="0.0.324"/><path id="Fill 1638" fill-rule="evenodd" clip-rule="evenodd" d="M96.1304 40.2287C96.1464 41.0357 96.0194 41.3427 96.9534 41.2877C96.4204 44.9577 92.4654 39.7517 96.1304 40.2287" fill="#9DB989" blush:i="0.0.325"/><path id="Fill 1640" fill-rule="evenodd" clip-rule="evenodd" d="M96.8109 48.6663C98.1139 48.8383 99.0429 50.3793 97.5599 50.9403C96.3219 51.0223 95.3859 49.2183 96.8109 48.6663" fill="#9DB989" blush:i="0.0.326"/><path id="Fill 1642" fill-rule="evenodd" clip-rule="evenodd" d="M123.718 32.5598C124.67 33.0938 126.674 33.6098 125.155 34.8088C123.858 35.1238 122.413 33.6518 123.718 32.5598" fill="#9DB989" blush:i="0.0.327"/><path id="Fill 1644" fill-rule="evenodd" clip-rule="evenodd" d="M138.796 31.8391C139.546 31.7541 140.249 33.2681 139.571 33.6451C137.679 34.6691 136.374 32.2251 138.796 31.8391" fill="#9DB989" blush:i="0.0.328"/><path id="Fill 1646" fill-rule="evenodd" clip-rule="evenodd" d="M141.143 36.177C140.627 37.424 138.316 36.762 138.894 35.448C139.495 33.77 140.961 35.111 141.143 36.177" fill="#9DB989" blush:i="0.0.329"/><path id="Fill 1648" fill-rule="evenodd" clip-rule="evenodd" d="M115.631 99.1769C115.253 99.6919 113.934 99.8659 113.639 99.1439C112.955 96.9099 116.481 97.0919 115.631 99.1769" fill="#9DB989" blush:i="0.0.330"/><path id="Fill 1650" fill-rule="evenodd" clip-rule="evenodd" d="M93.7095 46.3537C92.1055 46.3337 91.7515 45.0497 93.0615 44.1387C94.2565 44.2477 95.1935 45.5597 93.7095 46.3537" fill="#9DB989" blush:i="0.0.331"/><path id="Fill 1652" fill-rule="evenodd" clip-rule="evenodd" d="M118.475 29.2365C120.816 31.9055 113.853 29.9445 116.93 28.8705C117.319 28.7595 118.534 28.8635 118.475 29.2365" fill="#9DB989" blush:i="0.0.332"/><path id="Fill 1654" fill-rule="evenodd" clip-rule="evenodd" d="M135.376 49.7297C134.551 50.2767 134.034 51.2407 133.252 49.8447C131.868 48.1497 135.563 47.9567 135.376 49.7297" fill="#9DB989" blush:i="0.0.333"/><path id="Fill 1656" fill-rule="evenodd" clip-rule="evenodd" d="M144.192 93.174C144.443 91.193 147.003 93.202 146.111 94.47C145.088 94.778 144.025 94.378 144.192 93.174" fill="#9DB989" blush:i="0.0.334"/><path id="Fill 1658" fill-rule="evenodd" clip-rule="evenodd" d="M105.03 41.2785C109.025 41.8375 103.414 45.5545 104.312 42.4985C103.723 42.2745 104.148 41.2485 105.03 41.2785" fill="#9DB989" blush:i="0.0.335"/><path id="Fill 1660" fill-rule="evenodd" clip-rule="evenodd" d="M115.714 93.3401C115.667 94.9501 112.933 94.4911 113.524 92.9201C113.889 91.8481 115.611 92.3851 115.714 93.3401" fill="#9DB989" blush:i="0.0.336"/><path id="Fill 1662" fill-rule="evenodd" clip-rule="evenodd" d="M98.6488 34.9866C99.0208 37.2946 96.2688 36.6876 96.5258 35.0906C97.0268 34.1106 97.9388 34.4046 98.6488 34.9866" fill="#9DB989" blush:i="0.0.337"/><path id="Fill 1664" fill-rule="evenodd" clip-rule="evenodd" d="M98.0439 44.5998C98.3249 44.1318 99.0079 43.1148 99.6129 43.3768C101.923 44.2168 98.6149 46.9848 98.0439 44.5998" fill="#9DB989" blush:i="0.0.338"/><path id="Fill 1666" fill-rule="evenodd" clip-rule="evenodd" d="M152.2 43.0764C153.117 43.2034 153.215 44.0974 152.953 44.8334C151.542 46.3534 149.494 42.5084 152.2 43.0764" fill="#9DB989" blush:i="0.0.339"/><path id="Fill 1668" fill-rule="evenodd" clip-rule="evenodd" d="M97.0796 71.2443C97.8626 70.9413 98.2446 71.2233 98.2526 72.0343C99.9516 74.7123 94.1216 72.2953 97.0796 71.2443" fill="#9DB989" blush:i="0.0.340"/><path id="Fill 1670" fill-rule="evenodd" clip-rule="evenodd" d="M95.9569 67.6917C95.7839 66.2217 98.1829 66.2947 98.1709 67.5907C98.2009 68.7067 95.7489 69.0917 95.9569 67.6917" fill="#9DB989" blush:i="0.0.341"/><path id="Fill 1672" fill-rule="evenodd" clip-rule="evenodd" d="M149.415 41.1897C148.753 41.9907 148.805 43.9397 147.394 42.4027C146.818 40.8677 148.878 39.4117 149.415 41.1897" fill="#9DB989" blush:i="0.0.342"/><path id="Fill 1674" fill-rule="evenodd" clip-rule="evenodd" d="M101.004 72.9338C99.9504 71.4278 101.423 70.1038 102.774 70.8078C103.207 71.6308 101.953 73.7088 101.004 72.9338" fill="#9DB989" blush:i="0.0.343"/><path id="Fill 1676" fill-rule="evenodd" clip-rule="evenodd" d="M104.577 73.1369C102.139 72.9959 104.186 69.3699 105.737 71.4839C105.031 71.9719 105.911 73.1079 104.577 73.1369" fill="#9DB989" blush:i="0.0.344"/><path id="Fill 1678" fill-rule="evenodd" clip-rule="evenodd" d="M144.221 108.611C144.028 106.562 144.842 106.524 145.585 107.379C147.159 108.38 145.062 110.685 144.221 108.611" fill="#9DB989" blush:i="0.0.345"/><path id="Fill 1680" fill-rule="evenodd" clip-rule="evenodd" d="M148.425 54.1486C148.252 55.9726 145.658 55.0396 146.191 53.6306C146.612 52.6886 148.134 53.3846 148.425 54.1486" fill="#9DB989" blush:i="0.0.346"/><path id="Fill 1682" fill-rule="evenodd" clip-rule="evenodd" d="M138.341 38.758C137.67 38.981 137.086 38.725 136.663 38.155C135.555 35.83 140.889 37.526 138.341 38.758" fill="#9DB989" blush:i="0.0.347"/><path id="Fill 1684" fill-rule="evenodd" clip-rule="evenodd" d="M117.856 33.7404C117.955 34.6204 117.188 34.7594 116.494 34.8784C114.215 34.4684 116.979 31.0694 117.856 33.7404" fill="#9DB989" blush:i="0.0.348"/><path id="Fill 1686" fill-rule="evenodd" clip-rule="evenodd" d="M112.122 35.5275C111.766 38.5255 109.958 36.7315 110.444 36.4115C112.402 35.5425 109.978 34.2905 110.292 33.7645C111.161 33.9945 112.404 34.5525 112.122 35.5275" fill="#9DB989" blush:i="0.0.349"/><path id="Fill 1688" fill-rule="evenodd" clip-rule="evenodd" d="M146.8 45.2414C147.304 45.8204 146.658 46.7844 146.503 47.4094C144.332 47.3804 144.43 44.5254 146.8 45.2414" fill="#9DB989" blush:i="0.0.350"/><path id="Fill 1690" fill-rule="evenodd" clip-rule="evenodd" d="M113.637 39.0324C112.989 37.0714 116.442 37.8634 115.726 39.3564C115.686 40.7754 113.584 40.1764 113.637 39.0324" fill="#9DB989" blush:i="0.0.351"/><path id="Fill 1692" fill-rule="evenodd" clip-rule="evenodd" d="M118.039 111.31C117.138 109.686 115.935 110.746 114.941 110.68C111.858 109.167 118.282 108.908 118.039 111.31" fill="#9DB989" blush:i="0.0.352"/><path id="Fill 1694" fill-rule="evenodd" clip-rule="evenodd" d="M145.468 74.4641C147.297 75.7731 144.994 77.3461 144.104 75.6361C143.704 74.8891 144.818 73.7991 145.468 74.4641" fill="#9DB989" blush:i="0.0.353"/><path id="Fill 1696" fill-rule="evenodd" clip-rule="evenodd" d="M140.6 40.0285C138.812 38.7205 142.149 36.8825 142.342 39.2705C142.148 39.8915 141.182 40.6345 140.6 40.0285" fill="#9DB989" blush:i="0.0.354"/><path id="Fill 1698" fill-rule="evenodd" clip-rule="evenodd" d="M132.081 31.3928C132.975 31.9588 134.174 30.2888 134.232 31.8358C134.227 34.0718 131.304 32.9968 132.081 31.3928" fill="#9DB989" blush:i="0.0.355"/><path id="Fill 1700" fill-rule="evenodd" clip-rule="evenodd" d="M145.819 89.3742C145.584 89.8402 145.274 92.2002 143.729 90.1282C143.496 88.9682 145.66 88.2152 145.819 89.3742" fill="#9DB989" blush:i="0.0.356"/><path id="Fill 1702" fill-rule="evenodd" clip-rule="evenodd" d="M116.884 114.825C118.153 114.704 117.953 116.403 117.413 116.957C115.86 117.268 115.452 115.155 116.884 114.825" fill="#9DB989" blush:i="0.0.357"/><path id="Fill 1704" fill-rule="evenodd" clip-rule="evenodd" d="M117.76 109.156C117.01 109.347 116.353 108.151 116.878 107.596C118.415 106.458 119.906 108.889 117.76 109.156" fill="#9DB989" blush:i="0.0.358"/><path id="Fill 1706" fill-rule="evenodd" clip-rule="evenodd" d="M146.664 102.234C146.367 103.436 144.744 103.403 144.411 102.335C144.535 100.776 146.151 100.968 146.664 102.234" fill="#9DB989" blush:i="0.0.359"/><path id="Fill 1708" fill-rule="evenodd" clip-rule="evenodd" d="M111.659 38.9417C112.129 40.3957 109.984 40.8017 109.513 39.4907C109.344 38.2057 111.114 37.8237 111.659 38.9417" fill="#9DB989" blush:i="0.0.360"/><path id="Fill 1710" fill-rule="evenodd" clip-rule="evenodd" d="M98.3793 55.7922C98.3553 56.8082 96.8553 56.5842 96.3313 56.0452C95.4783 54.3932 98.2573 54.2252 98.3793 55.7922" fill="#9DB989" blush:i="0.0.361"/><path id="Fill 1712" fill-rule="evenodd" clip-rule="evenodd" d="M105.03 41.2785C103.524 41.5115 104.828 44.4085 103.417 41.9755C104.576 39.9255 100.969 42.1735 101.217 40.9275C100.041 37.4695 102.827 41.9685 105.03 41.2785" fill="#9DB989" blush:i="0.0.362"/><path id="Fill 1714" fill-rule="evenodd" clip-rule="evenodd" d="M143.176 55.1428C143.637 54.0498 145.394 54.3678 145.436 55.3358C145.149 56.8538 143.528 56.3908 143.176 55.1428" fill="#9DB989" blush:i="0.0.363"/><path id="Fill 1716" fill-rule="evenodd" clip-rule="evenodd" d="M128.308 40.0031C128.658 39.2301 127.596 38.1701 126.944 38.3991C127.801 35.7041 131.014 39.8721 128.308 40.0031" fill="#9DB989" blush:i="0.0.364"/><path id="Fill 1718" fill-rule="evenodd" clip-rule="evenodd" d="M130.827 27.34C131.221 25.727 133.554 26.365 133.041 27.955C132.575 29.254 131.113 28.139 130.827 27.34" fill="#9DB989" blush:i="0.0.365"/><path id="Fill 1720" fill-rule="evenodd" clip-rule="evenodd" d="M143.576 44.5539C142.574 45.7229 141.039 43.8389 141.986 42.8059C143.81 43.2699 143.74 42.6709 143.576 44.5539" fill="#9DB989" blush:i="0.0.366"/><path id="Fill 1722" fill-rule="evenodd" clip-rule="evenodd" d="M92.0057 63.634C91.8607 62.081 94.5157 62.801 93.9977 63.675C94.3127 64.672 91.9207 64.945 92.0057 63.634" fill="#9DB989" blush:i="0.0.367"/><path id="Fill 1724" fill-rule="evenodd" clip-rule="evenodd" d="M103.424 55.4611C104.151 54.8351 104.219 53.7741 103.406 53.1411C105.789 52.1341 105.85 56.0391 103.424 55.4611" fill="#9DB989" blush:i="0.0.368"/><path id="Fill 1726" fill-rule="evenodd" clip-rule="evenodd" d="M141.904 34.4455C140.777 34.3325 140.419 32.7285 141.658 32.3885C142.669 32.3425 143.421 34.5805 141.904 34.4455" fill="#9DB989" blush:i="0.0.369"/><path id="Fill 1728" fill-rule="evenodd" clip-rule="evenodd" d="M145.82 89.3742C144.993 88.7532 144.504 87.8472 145.921 87.5742C147.54 87.0202 147.205 90.3532 145.82 89.3742" fill="#9DB989" blush:i="0.0.370"/><path id="Fill 1730" fill-rule="evenodd" clip-rule="evenodd" d="M131.963 103.491C132.654 103.073 134.14 102.797 133.912 104.09C133.497 105.604 130.934 104.268 131.963 103.491" fill="#9DB989" blush:i="0.0.371"/><path id="Fill 1732" fill-rule="evenodd" clip-rule="evenodd" d="M134.553 42.0012C133.826 41.6232 133.206 41.9342 132.695 42.5472C130.872 40.5542 134.754 39.7612 134.553 42.0012" fill="#9DB989" blush:i="0.0.372"/><path id="Fill 1734" fill-rule="evenodd" clip-rule="evenodd" d="M147.974 39.1243C146.141 38.5453 147.349 36.8733 148.761 37.9333C149.834 38.5643 148.553 40.0593 147.974 39.1243" fill="#9DB989" blush:i="0.0.373"/><path id="Fill 1736" fill-rule="evenodd" clip-rule="evenodd" d="M143.95 95.9456C144.872 96.1846 145.626 97.3516 144.48 97.8356C143.032 98.1366 142.683 96.5926 143.95 95.9456" fill="#9DB989" blush:i="0.0.374"/><path id="Fill 1738" fill-rule="evenodd" clip-rule="evenodd" d="M115.89 119.679C115.665 118.149 117.582 117.76 117.865 119.317C117.723 120.713 116.658 120.604 115.89 119.679" fill="#9DB989" blush:i="0.0.375"/><path id="Fill 1740" fill-rule="evenodd" clip-rule="evenodd" d="M115.727 49.5432C116.028 51.3832 113.397 50.7872 113.938 49.2012C114.292 48.5712 115.379 49.0142 115.727 49.5432" fill="#9DB989" blush:i="0.0.376"/><path id="Fill 1742" fill-rule="evenodd" clip-rule="evenodd" d="M108.892 38.1359C108.269 37.6279 107.046 37.7329 107.921 36.6699C109.298 35.5909 110.596 38.5829 108.892 38.1359" fill="#9DB989" blush:i="0.0.377"/><path id="Fill 1744" fill-rule="evenodd" clip-rule="evenodd" d="M120.404 35.1644C122.144 33.0774 122.353 38.2854 120.739 36.7924C120.293 36.2554 120.051 35.8174 120.404 35.1644" fill="#9DB989" blush:i="0.0.378"/><path id="Fill 1746" fill-rule="evenodd" clip-rule="evenodd" d="M107.276 33.3186C108.092 33.6946 108.351 33.9596 107.761 34.8156C106.516 36.4746 105.086 32.8686 107.276 33.3186" fill="#9DB989" blush:i="0.0.379"/><path id="Fill 1748" fill-rule="evenodd" clip-rule="evenodd" d="M115.55 60.6867C115.457 61.8347 113.823 61.4187 113.664 60.6187C113.782 59.1527 115.216 59.6147 115.55 60.6867" fill="#9DB989" blush:i="0.0.380"/><path id="Fill 1750" fill-rule="evenodd" clip-rule="evenodd" d="M100.651 38.2443C100.253 39.2473 98.9668 38.7433 98.8018 37.8813C99.0078 36.4953 100.424 37.2153 100.651 38.2443" fill="#9DB989" blush:i="0.0.381"/><path id="Fill 1752" fill-rule="evenodd" clip-rule="evenodd" d="M132.823 105.732C134.178 106.37 132.171 108.317 131.657 107.072C131.307 106.279 132.297 106.029 132.823 105.732" fill="#9DB989" blush:i="0.0.382"/><path id="Fill 1754" fill-rule="evenodd" clip-rule="evenodd" d="M118.072 54.4934C119.093 54.8204 120.326 54.7564 119.578 56.1934C118.747 56.3014 116.991 55.3604 118.072 54.4934" fill="#9DB989" blush:i="0.0.383"/><path id="Fill 1756" fill-rule="evenodd" clip-rule="evenodd" d="M118.303 72.9105C118.397 72.2625 118.116 71.8105 117.303 71.6565C117.588 69.6245 120.58 72.4095 118.303 72.9105" fill="#9DB989" blush:i="0.0.384"/><path id="Fill 1758" fill-rule="evenodd" clip-rule="evenodd" d="M115.541 72.7453C115.755 73.6283 115.353 74.8843 114.372 74.3663C113.322 73.3763 114.483 72.4113 115.541 72.7453" fill="#9DB989" blush:i="0.0.385"/><path id="Fill 1760" fill-rule="evenodd" clip-rule="evenodd" d="M118.596 37.5041C119.646 36.8191 120.806 37.2321 120.013 38.4791C119.251 38.9151 117.874 38.2511 118.596 37.5041" fill="#9DB989" blush:i="0.0.386"/><path id="Fill 1762" fill-rule="evenodd" clip-rule="evenodd" d="M134.494 74.0158C135.432 72.8088 134.875 71.8288 133.43 71.9378C134.443 69.6948 136.847 73.6448 134.494 74.0158" fill="#9DB989" blush:i="0.0.387"/><path id="Fill 1764" fill-rule="evenodd" clip-rule="evenodd" d="M117.865 119.316C117.21 118.411 116.343 117.861 115.886 119.511C114.892 117.738 118.256 117.002 117.865 119.316" fill="#9DB989" blush:i="0.0.388"/><path id="Fill 1766" fill-rule="evenodd" clip-rule="evenodd" d="M117.067 35.805C115.599 35.908 115.27 35.608 115.732 34.356C115.984 34.914 117.581 34.994 117.067 35.805" fill="#9DB989" blush:i="0.0.389"/><path id="Fill 1768" fill-rule="evenodd" clip-rule="evenodd" d="M114.918 88.3849C112.499 89.3699 115.69 89.3529 115.904 89.8189C113.835 91.1159 113.061 87.0179 114.918 88.3849" fill="#9DB989" blush:i="0.0.390"/><path id="Fill 1770" fill-rule="evenodd" clip-rule="evenodd" d="M105.019 43.6457C105.54 43.3387 106.824 43.0127 105.936 41.6347C106.228 40.1707 107.269 44.9117 105.019 43.6457" fill="#9DB989" blush:i="0.0.391"/><path id="Fill 1772" fill-rule="evenodd" clip-rule="evenodd" d="M115.275 35.5266C115.208 36.6126 115.619 38.0956 116.971 37.4156C116.223 38.8486 114.335 36.7906 115.275 35.5266" fill="#9DB989" blush:i="0.0.392"/><path id="Fill 1774" fill-rule="evenodd" clip-rule="evenodd" d="M115.176 72.6487C114.333 73.0487 113.586 73.2947 114.373 74.3677C112.83 74.0077 113.973 72.1757 115.176 72.6487" fill="#9DB989" blush:i="0.0.393"/><path id="Fill 1776" fill-rule="evenodd" clip-rule="evenodd" d="M145.191 107.54C144.774 106.993 143.588 106.275 144.981 106.733C146.511 107.415 145.891 107.637 145.191 107.54" fill="#9DB989" blush:i="0.0.394"/><path id="Fill 1778" fill-rule="evenodd" clip-rule="evenodd" d="M147.369 41.0012C148.319 41.0982 146.912 42.2712 147.659 42.4592C147.547 43.8712 146.963 41.6112 147.369 41.0012" fill="#9DB989" blush:i="0.0.395"/><path id="Fill 1780" fill-rule="evenodd" clip-rule="evenodd" d="M116.376 113.1C117.029 113.086 117.67 112.872 118.129 112.394C118.1 113.25 116.9 113.527 116.376 113.1" fill="#9DB989" blush:i="0.0.396"/><path id="Fill 1782" fill-rule="evenodd" clip-rule="evenodd" d="M115.642 112.034C116.075 112.297 116.773 112.51 116.263 113.085C115.689 113.091 115.765 112.446 115.642 112.034" fill="#9DB989" blush:i="0.0.397"/><path id="Fill 1784" fill-rule="evenodd" clip-rule="evenodd" d="M115.89 119.679C116.282 119.51 116.443 120.075 116.717 120.287C116.32 120.393 115.695 120.217 115.89 119.679" fill="#9DB989" blush:i="0.0.398"/><path id="Fill 1786" fill-rule="evenodd" clip-rule="evenodd" d="M117.967 55.6662C118.348 55.5742 118.558 55.7242 118.596 56.1142C118.238 56.1122 117.661 56.1892 117.967 55.6662" fill="#9DB989" blush:i="0.0.399"/><path id="Fill 1788" fill-rule="evenodd" clip-rule="evenodd" d="M118.67 56.132C118.934 56.074 119.516 55.696 119.494 56.199C119.19 56.536 118.927 56.369 118.67 56.132" fill="#9DB989" blush:i="0.0.400"/><path id="Fill 1790" fill-rule="evenodd" clip-rule="evenodd" d="M142.353 29.8635C142.1 29.5935 141.848 29.3245 141.596 29.0545C142.124 29.1265 142.398 29.4185 142.353 29.8635" fill="#9DB989" blush:i="0.0.401"/><path id="Fill 1792" fill-rule="evenodd" clip-rule="evenodd" d="M145.92 87.5745C145.699 87.3895 145.81 87.4815 145.92 87.5745C145.388 87.8555 145.164 87.8645 145.92 87.5745" fill="#9DB989" blush:i="0.0.402"/><path id="Fill 1794" fill-rule="evenodd" clip-rule="evenodd" d="M144.223 107.452C144.588 107.62 144.5 107.843 144.297 108.078C144.273 107.869 144.248 107.661 144.223 107.452" fill="#9DB989" blush:i="0.0.403"/><path id="Fill 1796" fill-rule="evenodd" clip-rule="evenodd" d="M145.1 88.0187C145.071 88.2607 145.042 88.5037 145.013 88.7467C144.679 88.4597 144.853 88.2357 145.1 88.0187" fill="#9DB989" blush:i="0.0.404"/><path id="Fill 1798" fill-rule="evenodd" clip-rule="evenodd" d="M133.955 94.4142C133.757 94.3222 133.448 94.3932 133.424 94.0492C133.601 94.1702 133.778 94.2922 133.955 94.4142" fill="#9DB989" blush:i="0.0.405"/><path id="Fill 1800" fill-rule="evenodd" clip-rule="evenodd" d="M144.56 42.6301C144.508 42.8141 144.534 42.7221 144.56 42.6301C144.783 42.7751 144.712 42.8571 144.56 42.6301" fill="#9DB989" blush:i="0.0.406"/><path id="Fill 1802" fill-rule="evenodd" clip-rule="evenodd" d="M115.717 111.314C115.672 111.405 115.627 111.497 115.582 111.587C115.627 111.497 115.672 111.405 115.717 111.314" fill="#9DB989" blush:i="0.0.407"/><path id="Fill 1804" fill-rule="evenodd" clip-rule="evenodd" d="M118.117 112.127C118.11 112.005 118.114 112.065 118.117 112.127C117.927 112.087 117.945 112.023 118.117 112.127" fill="#9DB989" blush:i="0.0.408"/><path id="Fill 1806" fill-rule="evenodd" clip-rule="evenodd" d="M112.496 39.5071C112.431 39.5561 112.364 39.6061 112.299 39.6551C112.364 39.6061 112.431 39.5561 112.496 39.5071" fill="#9DB989" blush:i="0.0.409"/><path id="Fill 1808" fill-rule="evenodd" clip-rule="evenodd" d="M115.179 88.3908C115.158 88.3928 115.112 88.3928 115.09 88.3888C115.122 88.2708 115.152 88.2718 115.179 88.3908" fill="#9DB989" blush:i="0.0.410"/><path id="Fill 1810" fill-rule="evenodd" clip-rule="evenodd" d="M133.423 39.7434C132.094 38.3084 133.394 37.4664 134.855 37.9124C134.572 38.9154 134.868 40.0504 133.423 39.7434" fill="#9DB989" blush:i="0.0.411"/><path id="Fill 1812" fill-rule="evenodd" clip-rule="evenodd" d="M134.679 38.7629C134.713 38.8089 134.852 38.8489 134.786 38.9009C134.751 38.8549 134.714 38.8099 134.679 38.7629" fill="#9DB989" blush:i="0.0.412"/><path id="Fill 1814" fill-rule="evenodd" clip-rule="evenodd" d="M145.19 107.539C145.177 107.552 145.166 107.564 145.154 107.576C145.153 107.552 145.172 107.547 145.19 107.539" fill="#9DB989" blush:i="0.0.413"/><path id="Fill 1816" fill-rule="evenodd" clip-rule="evenodd" d="M116.798 34.8059C116.68 34.8139 116.739 34.8099 116.798 34.8059C116.836 35.0469 116.729 34.9349 116.798 34.8059" fill="#BBE668" blush:i="0.0.414"/><path id="Fill 1818" fill-rule="evenodd" clip-rule="evenodd" d="M145.467 74.4642C145.4 74.4732 145.306 74.5682 145.259 74.4992C145.325 74.4942 145.414 74.4232 145.467 74.4642" fill="#BBE668" blush:i="0.0.415"/><path id="Fill 1820" fill-rule="evenodd" clip-rule="evenodd" d="M94.2131 51.1945C94.1491 51.2365 94.1211 51.2235 94.1091 51.1485C94.1731 51.1065 94.2001 51.1195 94.2131 51.1945" fill="#BBE668" blush:i="0.0.416"/><path id="Fill 1822" fill-rule="evenodd" clip-rule="evenodd" d="M114.104 40.7404C114.102 40.7424 114.104 40.7404 114.104 40.7404C114.141 40.7784 114.14 40.7794 114.104 40.7404" fill="#BBE668" blush:i="0.0.417"/><path id="Fill 1824" fill-rule="evenodd" clip-rule="evenodd" d="M125.344 36.5969C125.381 36.6459 125.374 36.6519 125.325 36.6159L125.344 36.5969Z" fill="#BBE668" blush:i="0.0.418"/></g></g></svg>