<svg viewBox="24.67500000000001 16.450000000000003 48.17499999999999 76.37499999999999" fill="none" xmlns="http://www.w3.org/2000/svg" xmlns:xlink="http://www.w3.org/1999/xlink" xmlns:blush="http://design.blush" overflow="visible" width="48.17499999999999px" height="76.37499999999999px"><g id="Master/New Stickers/Coffee To go" blush:has-customizable-colors="true" blush:viewBox="24.91000000000001 17.39 47.46999999999999 74.72999999999999" blush:i="0"><g id="Group 275" blush:i="0.0"><path id="Rectangle 11" d="M27.3912 27.4698H69.881L66.8416 90.3807C66.803 91.1791 66.1445 91.8066 65.3452 91.8066H31.927C31.1277 91.8066 30.4691 91.1791 30.4305 90.3807L27.3912 27.4698Z" fill="#FBE9C7" blush:i="0.0.0"/><path id="Fill 14" fill-rule="evenodd" clip-rule="evenodd" d="M69.1957 27.4792L28.3748 28.7525C28.0488 28.764 27.7717 28.4187 27.7492 27.9719L29.656 19.526C29.6996 18.9476 29.9779 18.5819 30.3218 18.5712L66.6531 17.4583C66.979 17.4468 67.2553 17.7922 67.2778 18.239L69.7824 26.5979C69.806 27.068 69.5396 27.4685 69.1957 27.4792Z" fill="#FFF6ED" blush:i="0.0.1"/><path id="Rectangle 12" d="M27.6366 48.098C27.6201 47.8498 27.8169 47.6394 28.0657 47.6394H69.0342C69.2829 47.6394 69.4798 47.8498 69.4633 48.098L68.1443 67.9237C68.1293 68.1496 67.9417 68.3252 67.7152 68.3252H29.3847C29.1582 68.3252 28.9706 68.1496 28.9556 67.9237L27.6366 48.098Z" fill="#ECC49C" blush:i="0.0.2"/><path id="Fill 13" fill-rule="evenodd" clip-rule="evenodd" d="M71.3511 30.4732L25.9298 30.5048C25.5671 30.5063 25.2684 30.1526 25.2556 29.7052L25.1789 27.0273C25.1654 26.5553 25.4735 26.163 25.8562 26.1628L71.2774 26.1311C71.6402 26.1296 71.938 26.4834 71.9508 26.9308L72.0275 29.6098C72.041 30.0806 71.7338 30.473 71.3511 30.4732" fill="#FFF6ED" blush:i="0.0.3"/></g><path id="Vector 3 (Stroke)" fill-rule="evenodd" clip-rule="evenodd" d="M27.9937 26.8677C27.9937 26.5827 28.2248 26.3517 28.5098 26.3517H70.5695C70.8546 26.3517 71.0856 26.5827 71.0856 26.8677C71.0856 27.1527 70.8546 27.3838 70.5695 27.3838H28.5098C28.2248 27.3838 27.9937 27.1527 27.9937 26.8677Z" fill="#EABD91" blush:i="0.1"/><path id="Subtract" fill-rule="evenodd" clip-rule="evenodd" d="M48.0025 63.9011C49.6888 63.7262 51.3979 62.0753 52.1407 59.7178C52.9345 57.1984 52.3614 54.7075 50.8723 53.7068C50.9004 53.7566 50.9165 53.8142 50.9165 53.8755C50.9165 55.7594 50.3367 57.2322 49.3231 58.7702C49.1738 58.9968 49.0243 59.2079 48.879 59.4133C48.5824 59.8322 48.3028 60.2271 48.0764 60.6799C47.8179 61.1969 47.6959 61.7839 47.6804 62.38C47.6651 62.9681 47.7849 63.3565 48.0025 63.9011ZM47.2565 63.879C47.1372 63.8588 47.0187 63.8304 46.9015 63.7935C44.9145 63.1674 44.0385 60.3276 44.945 57.4506C45.8515 54.5736 48.1972 52.7488 50.1842 53.3749C50.3185 53.4172 50.4477 53.4696 50.5716 53.5315C50.382 53.5319 50.2284 53.6858 50.2284 53.8755C50.2284 55.5911 49.7091 56.9341 48.7486 58.3916C48.6263 58.5772 48.492 58.7672 48.3542 58.9622C48.0416 59.4044 47.7109 59.8723 47.461 60.3721C47.1486 60.997 47.0101 61.687 46.9925 62.362C46.9767 62.9685 47.0857 63.4129 47.2565 63.879Z" fill="#916A54" blush:i="0.2"/></g></svg>