<svg viewBox="18.525000000000006 21.956647398843927 209.95000000000005 170.08670520231215" fill="none" xmlns="http://www.w3.org/2000/svg" xmlns:xlink="http://www.w3.org/1999/xlink" xmlns:blush="http://design.blush" overflow="visible" width="209.95000000000005px" height="170.08670520231215px"><g id="Master/Backgrounds/Dots" blush:has-customizable-colors="true" blush:viewBox="0 -1.1120092378752702 246.99999999999994 216.22401847575057" blush:i="0"><g id="Blush/Backgrounds/Dots" blush:i="0.0"><g id="Texture Backgrounds" blush:component="Texture Backgrounds" blush:defaultValue="Spots 3" blush:width="247" blush:height="214" blush:i="0.0.0" blush:value="Spots 3" transform="scale(1 1)" blush:viewBox="20.995000000000005 24.834872979214794 205.01000000000005 166.80138568129334"><g id="Texture Backgrounds/Spots 3" blush:viewBox="20.995000000000005 24.834872979214794 205.01000000000005 166.80138568129334" blush:i="0.0.0.0"><g id="Group" blush:i="0.0.0.0.0"><path id="Fill 38" fill-rule="evenodd" clip-rule="evenodd" d="M45.3377 27.6623C42.2077 24.5324 35.7139 25.9518 30.8323 30.8323C25.9518 35.7139 24.5324 42.2077 27.6623 45.3377C30.7923 48.4676 37.2861 47.0482 42.1677 42.1677C47.0482 37.2861 48.4676 30.7923 45.3377 27.6623" fill="#FEDAD4" blush:i="0.0.0.0.0.0"/><path id="Fill 38 Copy 2" fill-rule="evenodd" clip-rule="evenodd" d="M41.3377 165.662C38.2077 162.532 31.7139 163.952 26.8323 168.832C21.9518 173.714 20.5324 180.208 23.6623 183.338C26.7923 186.468 33.2861 185.048 38.1677 180.168C43.0482 175.286 44.4676 168.792 41.3377 165.662" fill="#FEDAD4" blush:i="0.0.0.0.0.1"/><path id="Fill 38 Copy 6" fill-rule="evenodd" clip-rule="evenodd" d="M160.338 171.662C157.208 168.532 150.714 169.952 145.832 174.832C140.952 179.714 139.532 186.208 142.662 189.338C145.792 192.468 152.286 191.048 157.168 186.168C162.048 181.286 163.468 174.792 160.338 171.662" fill="#FEDAD4" blush:i="0.0.0.0.0.2"/><path id="Fill 38 Copy 4" fill-rule="evenodd" clip-rule="evenodd" d="M109.338 90.6623C106.208 87.5324 99.7139 88.9518 94.8323 93.8323C89.9518 98.7139 88.5324 105.208 91.6623 108.338C94.7923 111.468 101.286 110.048 106.168 105.168C111.048 100.286 112.468 93.7923 109.338 90.6623" fill="#FEDAD4" blush:i="0.0.0.0.0.3"/><path id="Fill 38 Copy 9" fill-rule="evenodd" clip-rule="evenodd" d="M220.338 95.6623C217.208 92.5324 210.714 93.9518 205.832 98.8323C200.952 103.714 199.532 110.208 202.662 113.338C205.792 116.468 212.286 115.048 217.168 110.168C222.048 105.286 223.468 98.7923 220.338 95.6623" fill="#FEDAD4" blush:i="0.0.0.0.0.4"/><path id="Fill 38 Copy 17" fill-rule="evenodd" clip-rule="evenodd" d="M221.338 28.6623C218.208 25.5324 211.714 26.9518 206.832 31.8323C201.952 36.7139 200.532 43.2077 203.662 46.3377C206.792 49.4676 213.286 48.0482 218.168 43.1677C223.048 38.2861 224.468 31.7923 221.338 28.6623" fill="#FEDAD4" blush:i="0.0.0.0.0.5"/><path id="Fill 38 Copy 11" fill-rule="evenodd" clip-rule="evenodd" d="M174.446 40.5541C173.403 39.5108 171.238 39.9839 169.611 41.6108C167.984 43.238 167.511 45.4026 168.554 46.4459C169.597 47.4892 171.762 47.0161 173.389 45.3892C175.016 43.762 175.489 41.5974 174.446 40.5541" fill="#FEDAD4" blush:i="0.0.0.0.0.6"/><path id="Fill 38 Copy 15" fill-rule="evenodd" clip-rule="evenodd" d="M123.446 66.5541C122.403 65.5108 120.238 65.9839 118.611 67.6108C116.984 69.238 116.511 71.4026 117.554 72.4459C118.597 73.4892 120.762 73.0161 122.389 71.3892C124.016 69.762 124.489 67.5974 123.446 66.5541" fill="#FEDAD4" blush:i="0.0.0.0.0.7"/><path id="Fill 38 Copy 16" fill-rule="evenodd" clip-rule="evenodd" d="M134.446 125.554C133.403 124.511 131.238 124.984 129.611 126.611C127.984 128.238 127.511 130.403 128.554 131.446C129.597 132.489 131.762 132.016 133.389 130.389C135.016 128.762 135.489 126.597 134.446 125.554" fill="#FEDAD4" blush:i="0.0.0.0.0.8"/><path id="Fill 38 Copy 12" fill-rule="evenodd" clip-rule="evenodd" d="M76.4459 142.554C75.4026 141.511 73.238 141.984 71.6108 143.611C69.9839 145.238 69.5108 147.403 70.5541 148.446C71.5974 149.489 73.762 149.016 75.3892 147.389C77.0161 145.762 77.4892 143.597 76.4459 142.554" fill="#FEDAD4" blush:i="0.0.0.0.0.9"/><path id="Fill 38 Copy 13" fill-rule="evenodd" clip-rule="evenodd" d="M189.446 138.554C188.403 137.511 186.238 137.984 184.611 139.611C182.984 141.238 182.511 143.403 183.554 144.446C184.597 145.489 186.762 145.016 188.389 143.389C190.016 141.762 190.489 139.597 189.446 138.554" fill="#FEDAD4" blush:i="0.0.0.0.0.10"/><path id="Fill 38 Copy 14" fill-rule="evenodd" clip-rule="evenodd" d="M76.4459 59.5541C75.4026 58.5108 73.238 58.9839 71.6108 60.6108C69.9839 62.238 69.5108 64.4026 70.5541 65.4459C71.5974 66.4892 73.762 66.0161 75.3892 64.3892C77.0161 62.762 77.4892 60.5974 76.4459 59.5541" fill="#FEDAD4" blush:i="0.0.0.0.0.11"/><path id="Fill 38 Copy" fill-rule="evenodd" clip-rule="evenodd" d="M41.9709 98.0291C40.0333 96.0915 36.0134 96.9702 32.9914 99.9914C29.9702 103.013 29.0915 107.033 31.0291 108.971C32.9667 110.909 36.9866 110.03 40.0086 107.009C43.0298 103.987 43.9085 99.9667 41.9709 98.0291" fill="#FEDAD4" blush:i="0.0.0.0.0.12"/><path id="Fill 38 Copy 7" fill-rule="evenodd" clip-rule="evenodd" d="M105.971 28.0291C104.033 26.0915 100.013 26.9702 96.9914 29.9914C93.9702 33.0134 93.0915 37.0333 95.0291 38.9709C96.9667 40.9085 100.987 40.0298 104.009 37.0086C107.03 33.9866 107.909 29.9667 105.971 28.0291" fill="#FEDAD4" blush:i="0.0.0.0.0.13"/><path id="Fill 38 Copy 10" fill-rule="evenodd" clip-rule="evenodd" d="M223.971 176.029C222.033 174.091 218.013 174.97 214.991 177.991C211.97 181.013 211.091 185.033 213.029 186.971C214.967 188.909 218.987 188.03 222.009 185.009C225.03 181.987 225.909 177.967 223.971 176.029" fill="#FEDAD4" blush:i="0.0.0.0.0.14"/><path id="Fill 38 Copy 5" fill-rule="evenodd" clip-rule="evenodd" d="M162.971 95.0291C161.033 93.0915 157.013 93.9702 153.991 96.9914C150.97 100.013 150.091 104.033 152.029 105.971C153.967 107.909 157.987 107.03 161.009 104.009C164.03 100.987 164.909 96.9667 162.971 95.0291" fill="#FEDAD4" blush:i="0.0.0.0.0.15"/><path id="Fill 38 Copy 3" fill-rule="evenodd" clip-rule="evenodd" d="M98.9709 175.029C97.0333 173.091 93.0134 173.97 89.9914 176.991C86.9702 180.013 86.0915 184.033 88.0291 185.971C89.9667 187.909 93.9866 187.03 97.0086 184.009C100.03 180.987 100.909 176.967 98.9709 175.029" fill="#FEDAD4" blush:i="0.0.0.0.0.16"/></g></g></g></g></g></svg>