<svg viewBox="33.96249999999998 40.5115606936416 179.07500000000002 136.0693641618497" fill="none" xmlns="http://www.w3.org/2000/svg" xmlns:xlink="http://www.w3.org/1999/xlink" xmlns:blush="http://design.blush" overflow="visible" width="179.07500000000002px" height="136.0693641618497px"><g id="Master/Stickers/Pink Composition" blush:has-customizable-colors="true" blush:viewBox="35.815 40.897228637413406 176.60500000000002 133.4411085450346" blush:i="0"><g id="Group 57 Copy" blush:i="0.0"><path id="Fill 2750" fill-rule="evenodd" clip-rule="evenodd" d="M136.507 117.533C134.511 118.096 135.922 121.137 137.341 119.331C137.654 117.051 139.475 119.915 140.267 119.374C141.301 113.009 144.149 121.788 146.031 120.367C147.65 116.598 129.118 102.167 139.192 102.917C141.588 103.664 142.918 105.463 143.831 107.158C149.611 118.248 145.199 116.142 152.637 103.19C150.733 98.3806 144.238 88.1203 153.647 94.0735C156.106 91.4393 158.557 96.5803 159.823 92.6857C161.269 89.0053 165.297 80.5791 165.703 87.8906C172.15 91.057 151.706 90.8533 166.232 96.3272C169.452 102.301 161.438 93.9963 154.32 104.896C150.653 108.479 155.572 107.133 158.264 106.444C158.556 108.184 167.44 111.279 163.567 111.597C159.309 116.063 158.449 108.287 156.546 112.788C157.393 114.489 161.028 114.058 156.866 116.177C150.195 119.324 150.519 109.227 148.353 119.153C146.3 123.756 151.723 116.997 150.588 121.082C150.049 122.951 142.165 134.479 147.533 134.399C148.374 131.156 154.16 127.43 156.66 130.296C156.344 136.579 158.257 129.152 159.274 128.446C161.078 128.628 158.539 131.836 158.529 132.612C158.436 133.385 159.687 136.46 157.808 134.676C157.763 133.659 156.128 133.115 155.884 134.268C155.476 135.194 157.047 136.302 154.97 135.903C152.082 135.311 147.949 136.549 144.382 137C141.408 136.535 144.84 133.411 143.249 132.161C140.73 131.361 138.629 124.923 135.644 125.73C135.173 124.769 139.681 121.917 135.815 122.07C132.892 125.719 131.04 116.255 136.507 117.533" fill="#FFB7B3" blush:i="0.0.0"/><path id="Fill 2752" fill-rule="evenodd" clip-rule="evenodd" d="M149.485 96.4615C149.499 96.4865 149.512 96.5135 149.527 96.5385C149.484 96.5295 149.456 96.4965 149.485 96.4615" fill="#FFB7B3" blush:i="0.0.1"/><path id="Fill 2754" fill-rule="evenodd" clip-rule="evenodd" d="M145.431 109.403C145.542 109.419 145.618 109.466 145.607 109.594C145.475 109.598 145.316 109.628 145.431 109.403" fill="#FFB7B3" blush:i="0.0.2"/><path id="Fill 2756" fill-rule="evenodd" clip-rule="evenodd" d="M80.1596 70.3039C79.4954 26.7167 91.6799 35.7423 106.563 71.257C109.128 79.9199 109.557 114.997 96.5781 106.756C85.3376 100.062 78.8839 83.3009 80.1596 70.3039" fill="#FFBCBB" blush:i="0.0.3"/><path id="Fill 2758" fill-rule="evenodd" clip-rule="evenodd" d="M80.0962 91.6997C82.3336 94.6913 79.7294 91.4835 79.5928 92.2036C78.542 93.2314 78.9995 89.5175 80.0962 91.6997" fill="#FFBCBB" blush:i="0.0.4"/><path id="Fill 2760" fill-rule="evenodd" clip-rule="evenodd" d="M101.431 109C101.29 109.069 101.005 108.851 101.045 109.286C101.057 109.42 100.975 109.315 100.95 109.276C100.871 109.152 100.78 109.267 100.695 109.253L100.693 109.256C100.69 109.349 100.714 109.466 100.628 109.513C100.531 109.565 100.464 109.432 100.448 109.375C100.366 109.097 100.166 109.196 100.008 109.163C99.9661 109.337 100.095 109.427 100.144 109.557C100.359 110.141 100.669 110.674 100.812 111.301C100.998 112.11 101.369 112.839 101.638 113.613C101.743 113.915 101.656 114.281 101.89 114.525C101.92 114.451 101.953 114.378 101.98 114.302C102.054 114.089 102.163 114.123 102.213 114.294C102.288 114.55 102.516 114.677 102.577 114.937C102.586 114.98 102.678 115.013 102.671 114.995C102.551 114.651 103.003 114.558 102.916 114.237C102.72 114.166 102.775 114.011 102.856 113.896C102.997 113.698 103.007 113.477 102.997 113.243C102.726 112.384 102.441 111.521 102.095 110.709C101.856 110.145 101.774 109.503 101.431 109" fill="#FFBCBB" blush:i="0.0.5"/><path id="Fill 2762" fill-rule="evenodd" clip-rule="evenodd" d="M101.511 114.59C101.576 114.584 101.638 114.552 101.614 114.485C101.573 114.374 101.464 114.421 101.381 114.413C101.386 114.5 101.425 114.563 101.511 114.59" fill="#95B65B" blush:i="0.0.6"/><path id="Fill 2764" fill-rule="evenodd" clip-rule="evenodd" d="M123.547 114.519C123.513 114.415 123.484 114.51 123.453 114.511C123.481 114.55 123.548 114.515 123.547 114.519" fill="#5F753A" blush:i="0.0.7"/><path id="Fill 2766" fill-rule="evenodd" clip-rule="evenodd" d="M68.8179 92.0446C68.2984 91.9837 67.8706 91.6696 67.3811 91.5299C66.9087 91.3944 66.5632 90.9728 66.018 90.9779C65.9399 90.9787 65.7428 90.7417 65.5859 90.6536C65.2361 90.4597 64.8623 90.3065 64.498 90.1363L64.5022 90.1406C64.2485 89.7951 63.8147 89.7647 63.4692 89.5835C63.0577 89.3676 62.5819 89.3134 62.1387 89.1737C61.8472 89.0823 61.5197 89.0332 61.2676 89.1077C60.9282 89.2076 60.6487 89.1399 60.346 89.062C60.1574 89.0129 59.6011 89.2237 59.523 89.3888C59.4862 89.4658 59.4682 89.5225 59.583 89.5979C59.9688 89.8476 60.3701 90.1008 60.5861 90.5199C60.7181 90.7738 60.9967 90.8086 61.1648 90.994C61.2102 91.0431 61.3311 91.0583 61.2779 91.1548C61.2582 91.1904 61.1656 91.1972 61.1065 91.1997C60.2603 91.2344 59.4176 91.1836 58.5757 91.1015C57.8942 91.0355 57.2949 90.729 56.6588 90.5292C56.3167 90.4208 55.9661 90.3624 55.6163 90.304C55.2511 90.2447 54.9047 90.7053 55.0239 91.0549C55.0505 91.1328 55.1071 91.2065 55.1859 91.1955C55.5477 91.143 55.5289 91.518 55.7226 91.6543C55.8041 91.7119 55.7681 91.7847 55.672 91.8177C55.5392 91.8635 55.4011 91.9015 55.3145 92.026C55.2177 92.1395 55.0882 92.2385 55.0471 92.3841C54.9588 92.6898 55.1628 92.7135 55.3891 92.705C55.1302 92.7736 55.1028 92.9023 55.2957 93.0775C55.342 93.1207 55.4157 93.1063 55.4783 93.1131C55.9627 93.1131 56.4385 93.0233 56.9177 92.9793C57.1766 92.9564 57.4424 93.0191 57.6841 92.8709C57.7116 92.8532 57.7536 92.8464 57.7801 92.8938C57.9327 93.1639 58.2474 93.0741 58.3888 93.0149C58.8663 92.8142 59.3233 93.0123 59.7819 93.0115C60.3032 93.0106 60.8218 93.0428 61.3388 92.9539L61.3354 92.9581C61.6029 92.7558 61.8129 93.0479 62.0667 93.0563C62.4199 93.0699 62.7834 93.1325 63.134 93.0961C63.5506 93.053 63.9433 93.1419 64.3334 93.2299C64.774 93.3298 65.2155 93.2976 65.6562 93.3349C66.5615 93.4111 67.4642 93.5432 68.3224 93.8234C68.631 93.9241 68.9482 94.002 69.2577 94.1036C69.5192 94.1883 69.7824 94.2323 69.9941 94.4677C70.1596 94.6505 70.4614 94.6234 70.7108 94.5557C70.9526 94.4897 71.1763 94.4533 71.3924 94.6345C71.5338 94.753 71.7293 94.7149 71.8999 94.7521C72.3363 94.8495 72.7306 95.062 73.1447 95.222C73.5802 95.3905 74.0054 95.5861 74.4795 95.6318C74.8302 95.6656 75.0676 95.9391 75.3728 96.0686C75.4406 96.0136 75.4397 95.9399 75.444 95.8629C75.4449 95.8146 75.3797 95.763 75.4509 95.7198C75.4731 95.7977 75.6009 95.7545 75.6077 95.8511C75.6292 96.1745 75.8778 96.2244 76.1273 96.2507C76.2756 96.2659 76.4239 96.2176 76.5799 96.2583C76.7119 96.293 76.778 96.1846 76.832 96.0737C76.8628 96.0085 76.8148 95.8697 76.9083 95.8892C76.964 95.9019 76.9108 96.0492 76.8671 96.1254C76.7111 96.3912 76.8174 96.4894 77.0892 96.5775C77.2881 96.6418 77.4947 96.7883 77.4458 97.0693C78.0648 97.513 78.7146 97.91 79.349 98.3283C80.1669 98.8676 81.0439 99.3315 81.7495 100.028C82.3264 100.066 82.5082 100.665 82.9694 100.868C82.9814 100.873 82.9925 100.878 83.0045 100.883C83.2489 101.026 83.5181 100.997 83.7847 100.999C83.9047 100.999 83.981 100.946 83.9956 100.828C84.0162 100.68 83.9639 100.552 83.8576 100.452C83.7761 100.376 83.6835 100.344 83.5935 100.447C83.5704 100.474 83.5678 100.513 83.5386 100.535C83.5489 100.502 83.5652 100.473 83.5747 100.441C83.6047 100.335 83.8198 100.299 83.6947 100.135C83.2669 99.7667 82.7962 99.4374 82.3907 99.064C81.9724 98.6788 81.5566 98.2953 81.0902 97.9702C80.5647 97.6044 80.0537 97.2192 79.5128 96.8738C79.2633 96.7146 79.0344 96.4852 78.7866 96.3023C78.6417 96.1948 78.8021 96.0974 78.7472 95.9967C78.5697 95.6673 78.4677 95.2745 78.2208 95.0146C77.9756 94.7555 77.8925 94.4262 77.6781 94.1536C77.2658 93.6295 76.8826 93.058 76.3956 92.6229C76.003 92.2732 75.7089 91.7957 75.1928 91.568C75.0874 91.5214 74.9931 91.3546 74.8953 91.2429C74.7839 91.1142 74.6098 91.038 74.4941 91.1049C74.3278 91.2014 74.3492 91.4012 74.4015 91.5866C74.495 91.9176 74.6913 92.1928 74.8696 92.4764C75.1268 92.8853 75.2622 93.3484 75.4783 93.776C75.5186 93.8581 75.5597 93.9512 75.504 94.0283C75.4174 94.146 75.3025 94.0427 75.2297 94.0088C74.7016 93.7607 74.1238 93.704 73.5674 93.5702C73.3127 93.5084 73.1301 93.3857 72.9741 93.1571C72.5403 92.5213 72.158 91.855 71.6453 91.2649C71.1978 90.7493 70.662 90.3573 70.1613 89.912C69.8261 89.6148 69.4815 89.3253 69.1317 89.0493C68.5624 88.6006 67.9186 88.2611 67.2276 88.035C66.9541 87.9453 66.6352 88.035 66.4389 88.2247C66.2066 88.449 66.4269 88.6869 66.5984 88.8376C66.9824 89.1754 67.4299 89.4497 67.79 89.8095C67.9555 89.9763 68.1355 90.1744 68.2221 90.4377C68.2847 90.6299 68.3987 90.8399 68.5821 90.9796C68.601 90.999 68.6233 91.0117 68.6482 91.0092C68.7022 91.0041 68.7973 90.8246 68.799 91.0515C68.7999 91.1235 68.8899 91.1641 68.9722 91.1701C68.9997 91.1709 69.0202 91.1591 69.0339 91.1362C69.0528 91.1574 69.0151 91.1658 69.0202 91.1853C69.0117 91.2378 69.0057 91.3148 69.0382 91.3284C69.5749 91.5604 69.154 91.8042 69.0511 92.0438V92.0446C68.9739 92.1335 68.8959 92.1344 68.8179 92.0446" fill="#BCE378" blush:i="0.0.8"/><path id="Fill 2768" fill-rule="evenodd" clip-rule="evenodd" d="M118.973 116.152C118.374 116.75 117.786 115.98 117.138 116.339C116.336 116.829 119.309 117.259 118.973 116.152" fill="#AED569" blush:i="0.0.9"/><path id="Fill 2770" fill-rule="evenodd" clip-rule="evenodd" d="M105.751 130.766C105.707 130.693 105.659 130.622 105.626 130.546C105.635 130.646 105.677 130.72 105.751 130.766M108.676 139.852C108.689 139.823 108.701 139.793 108.715 139.765C108.672 139.79 108.663 139.82 108.676 139.852M110.245 131.8C110.298 131.68 110.274 131.607 110.217 131.556C110.221 131.7 110.215 131.84 110.193 131.974C110.207 131.913 110.223 131.852 110.245 131.8M112.303 130.243C112.502 130.483 112.689 130.485 112.932 130.413C112.684 130.327 112.44 130.247 112.194 130.17C112.226 130.193 112.264 130.218 112.303 130.243M78.4591 91.7698C87.9922 95.6522 89.6587 119.714 101.796 114.112C119.99 104.268 142.115 129.148 135.945 151C132.341 142.586 122.104 133.713 113.18 130.505C113.264 130.599 113.31 130.746 113.348 130.913C108.218 128.375 111.718 131.199 109.99 132.528C109.501 132.659 109.996 132.746 110.17 132.915C110.139 132.881 110.162 132.851 110.184 132.818C112.271 134.206 108.041 146.779 108.439 140.396C108.223 140.637 110.814 129.097 107.097 128.693C106.505 131.438 108.297 135.876 107.888 139.175C107.507 146.872 105.078 137.121 106.561 134.841C106.119 135.515 105.781 134.346 106.045 134.263C105.805 133.935 105.881 133.594 106.013 133.157C105.316 132.283 105.588 130.559 105.268 129.396C105.077 129.284 105.036 128.696 105.269 128.839C105.225 128.635 105.155 128.439 105.065 128.249C105.053 128.269 105.049 128.289 105.033 128.311C104.793 127.658 102.73 127.826 102.932 127.337C96.6063 125.039 107.908 140.817 103.265 142.52C102.962 141.406 101.188 136.64 102.534 136.3C102.32 136.065 101.837 135.077 101.785 136.008C100.237 126.269 98.0788 127.275 93.7462 123.241C93.851 123.298 93.9489 123.363 94.0494 123.425C93.8952 123.246 93.7479 123.049 93.6076 122.834C93.6985 122.936 93.6899 123.084 93.7037 123.224C93.5539 123.102 93.4785 122.943 93.4742 122.749C93.5322 122.769 93.5747 122.797 93.6059 122.831C93.5452 122.74 93.4872 122.642 93.4292 122.542C93.4188 122.576 93.411 122.611 93.4006 122.646C93.1182 122.618 93.2577 122.341 93.1459 122.213C93.1788 122.193 93.204 122.188 93.2317 122.176C94.8194 104.762 71.9497 100.801 57.5556 98.7405C48.5093 96.6045 40.5647 106.864 36 109.373C36.7311 92.1899 66.7943 79.7671 78.4591 91.7698" fill="#FFBCBB" blush:i="0.0.10"/><path id="Fill 2772" fill-rule="evenodd" clip-rule="evenodd" d="M97.501 129.502C97.5 129.501 97.499 129.499 97.499 129.498H97.5C97.5 129.5 97.501 129.501 97.501 129.502" fill="#FFBCBB" blush:i="0.0.11"/><path id="Fill 2774" fill-rule="evenodd" clip-rule="evenodd" d="M85.0045 133.549C86.6533 135.657 85.9957 130.539 87.4497 130.691C92.135 126.468 96.0754 127.417 98.1355 130.372C98.3276 129.952 98.3949 130.7 98.435 130.806C98.8927 130.446 100.035 133.155 99.6105 133.278C106.535 148.439 85.5878 154.386 80.5183 166C62.4286 139.709 82.3208 112.4 85.0045 133.549" fill="#FFBCBB" blush:i="0.0.12"/><path id="Fill 2776" fill-rule="evenodd" clip-rule="evenodd" d="M83.5705 99.4988C83.5255 99.5388 83.4785 99.5448 83.4295 99.5038C83.4765 99.4578 83.5185 99.4568 83.5705 99.4988" fill="#FFBCBB" blush:i="0.0.13"/><path id="Fill 2778" fill-rule="evenodd" clip-rule="evenodd" d="M114.435 130.078C114.925 130.394 115.716 130.611 116 130.801C116.039 131.627 112.869 129.584 114.435 130.078" fill="#FFBCBB" blush:i="0.0.14"/><path id="Fill 2780" fill-rule="evenodd" clip-rule="evenodd" d="M117 131.864C116.657 131.691 116.317 131.508 116 131.236C116.283 130.945 116.897 131.33 117 131.864" fill="#FFBCBB" blush:i="0.0.15"/><path id="Fill 2782" fill-rule="evenodd" clip-rule="evenodd" d="M102.664 135.501C102.566 135.664 102.26 135.619 102.353 135.401L102.664 135.501Z" fill="#FFBCBB" blush:i="0.0.16"/><path id="Fill 2784" fill-rule="evenodd" clip-rule="evenodd" d="M102.55 136.603C102.452 136.561 102.407 136.499 102.473 136.397C102.563 136.442 102.566 136.519 102.55 136.603" fill="#FFBCBB" blush:i="0.0.17"/><path id="Fill 2786" fill-rule="evenodd" clip-rule="evenodd" d="M102.566 136.481C102.569 136.587 102.376 136.537 102.45 136.458C102.491 136.465 102.567 136.474 102.566 136.481" fill="#FFBCBB" blush:i="0.0.18"/><path id="Fill 2788" fill-rule="evenodd" clip-rule="evenodd" d="M100.401 126.531C100.412 126.581 100.444 126.616 100.489 126.584C100.534 126.552 100.563 126.496 100.599 126.451C100.566 126.434 100.53 126.402 100.498 126.404C100.426 126.409 100.402 126.465 100.401 126.531" fill="#95B65B" blush:i="0.0.19"/><path id="Fill 2790" fill-rule="evenodd" clip-rule="evenodd" d="M98.3999 98.5014C100.303 113.503 100.78 98.4205 104.354 94.1041C107.323 88.1176 98.9227 99.2399 102.009 91.1813C103.189 88.7709 105.744 83.5473 101.246 87.1173C101.226 83.3759 104.131 80.1965 104.144 76.6004C102.668 75.6723 101.821 78.435 100.502 79.1535C98.541 75.9793 103.3 69.9824 102.13 65.5573C97.7113 70.6966 95.2254 73.7516 97.7512 64.9023C97.7164 63.5288 96.4743 64.8867 95.9242 65.6896C93.554 62.244 92.7753 55.4441 88.8969 52.1951C85.447 48.018 89.3798 56 90.4348 57.678C91.3921 59.9275 88.0263 56.4419 86.8387 56.1861C85.1724 57.8781 92.2193 61.5959 92.5925 64.7014C90.4374 63.9976 87.1005 60.1319 85.0873 61.3845C91.5766 66.3194 94.2324 66.4864 94.8837 74.8537C95.1158 77.3633 87.8214 67.9617 84 67.886C113.502 99.1799 70.3942 65.6713 95.33 87.8106C100.831 94.7043 88.4956 84.8425 86.8523 85.5184C90.1143 90.1175 94.2988 94.7148 98.3999 98.5014" fill="#FFEEFF" blush:i="0.0.20"/><path id="Fill 2794" fill-rule="evenodd" clip-rule="evenodd" d="M92.0967 132.817C90.0027 131.847 86.2735 133.029 85.9515 135.646C85.1057 132.986 76.8847 128.448 77.7062 132.821C78.9891 132.295 82.5841 134.046 82.0206 135.167C80.6208 135.634 75.0764 137.996 76.8076 139.515C87.8836 138.517 78.1598 143.379 76 147.59C84.7136 147.065 79.3033 145.798 80.8251 156.475C83.2766 159.328 81.5618 149.707 82.8897 147.901C89.5881 151.571 88.8445 152.516 86.4241 143.756C87.8265 144.003 88.6471 146.196 89.5924 147.146C93.1563 147.661 85.5204 140.794 90.1698 144.106C97.0127 150.436 91.7574 140.012 87.7036 138.552C87.6179 137.52 91.1852 139.143 91.8162 138.81C92.4257 139.384 95.6796 141.928 94.872 139.315C93.6999 135.924 83.4541 134.969 90.6511 134.068C92.2733 133.574 93.5545 134.55 92.0967 132.817" fill="#FFEEFF" blush:i="0.0.21"/><path id="Fill 2796" fill-rule="evenodd" clip-rule="evenodd" d="M79.463 67.5C79.477 67.523 79.49 67.547 79.503 67.569C79.515 67.546 79.537 67.522 79.537 67.5C79.537 67.477 79.515 67.454 79.502 67.431C79.489 67.453 79.477 67.477 79.463 67.5" fill="#7EA535" blush:i="0.0.22"/><path id="Fill 2798" fill-rule="evenodd" clip-rule="evenodd" d="M107.482 139.515C107.492 139.517 107.506 139.525 107.511 139.52C107.519 139.513 107.52 139.499 107.525 139.488C107.508 139.485 107.492 139.481 107.475 139.478C107.477 139.491 107.479 139.502 107.482 139.515" fill="#95B65B" blush:i="0.0.23"/><path id="Fill 2800" fill-rule="evenodd" clip-rule="evenodd" d="M107.553 140.5C107.52 140.433 107.485 140.433 107.447 140.496L107.473 140.523L107.508 140.551L107.537 140.518L107.553 140.5Z" fill="#95B65B" blush:i="0.0.24"/><path id="Fill 2802" fill-rule="evenodd" clip-rule="evenodd" d="M115.113 107.304C116.528 105.823 121.115 107.261 120.827 105.881C120.403 105.315 119.851 104.432 120.758 104.155C122.121 103.256 124.049 104.066 125.471 104.278C123.909 99.1776 117.655 95.9856 119.751 90.2178C122.761 88.7949 122.309 94.8566 126.233 93.6348C126.19 96.2975 123.224 100.707 126.327 101.67C125.857 98.8407 132.429 92.9853 131.544 98.3922C131.494 100.35 128.211 109.63 131.204 107.626C133.377 104.426 137.264 103.627 138 108.197C135.78 111.786 130.508 115.011 132.486 119.334C132.09 121.378 134.632 122.521 135.878 124.356C135.242 124.706 135.362 124.722 135.397 125.485C134.585 125.628 133.975 126.277 134.051 126.926C132.873 127.55 132.068 124.074 131.844 122.831C129.355 121.377 126.782 119.129 124.391 117.026C119.869 113.904 118.991 113.747 124.804 114.057C126.587 114.242 129.545 116.702 129.39 114.152C129.027 110.285 113.531 110.922 115.113 107.304" fill="#FC9B98" blush:i="0.0.25"/><path id="Fill 2804" fill-rule="evenodd" clip-rule="evenodd" d="M107.532 141.445C107.511 141.446 107.489 141.449 107.468 141.451C107.478 141.486 107.49 141.52 107.502 141.554C107.511 141.518 107.521 141.481 107.532 141.445" fill="#7FA637" blush:i="0.0.26"/><path id="Fill 2806" fill-rule="evenodd" clip-rule="evenodd" d="M122.653 121.444C122.553 121.431 122.444 121.388 122.359 121.417C122.256 121.542 122.701 121.728 122.653 121.444" fill="#AED569" blush:i="0.0.27"/><path id="Fill 2808" fill-rule="evenodd" clip-rule="evenodd" d="M110.448 119.463C110.474 119.487 110.501 119.513 110.526 119.538C110.537 119.523 110.547 119.507 110.556 119.491C110.519 119.483 110.481 119.477 110.443 119.468L110.448 119.463Z" fill="#7FA637" blush:i="0.0.28"/><path id="Fill 2810" fill-rule="evenodd" clip-rule="evenodd" d="M107.481 120.479C107.496 120.494 107.509 120.507 107.523 120.521C107.52 120.512 107.52 120.499 107.514 120.496C107.503 120.489 107.49 120.487 107.477 120.482L107.481 120.479Z" fill="#7FA637" blush:i="0.0.29"/><path id="Fill 2812" fill-rule="evenodd" clip-rule="evenodd" d="M118.514 116.492C118.513 116.491 118.514 116.492 118.514 116.492C118.477 116.513 118.476 116.513 118.514 116.492" fill="#BCE378" blush:i="0.0.30"/><path id="Fill 2814" fill-rule="evenodd" clip-rule="evenodd" d="M126.147 123.464C126.136 123.428 126.129 123.398 126.126 123.37C126.123 123.399 126.136 123.432 126.147 123.464M125.54 122.765C125.587 122.86 125.625 122.962 125.645 123.078C125.749 122.933 125.848 122.728 125.54 122.765M98 119.978C100.474 114.285 114.152 114.325 119.213 115.935C105.943 117.645 123.305 117.888 120.183 120.731C120.64 122.463 125.152 121.185 126.243 122.984C126.751 122.911 129.635 126.661 128.31 125.429C127.386 125.837 125.558 124.923 124.289 125.484C126.581 125.492 135.501 132.367 130.321 130.673C125.639 126.932 126.506 129.465 128.25 131.513C129.462 133.195 133.619 134.335 134 137.833C133.088 138.381 131.926 135.102 130.665 134.601C129.715 134.765 133.683 140.357 133.342 143C131.788 140.867 129.428 135.47 128.7 133.434C128.826 134.649 127.881 132.969 127.655 132.545C126.404 131.601 126.947 134.928 127.857 135.693C125 137.792 126.177 124.901 122.036 129.851C121.579 130.955 121.823 133.486 120.467 131.81C118.432 129.558 123.4 126.126 120.379 125.556C116.656 122.239 110.988 127.912 111.868 125.644C120.46 118.875 107.716 120.286 103.894 124.57C103.973 121.626 108.175 118.978 111.244 119.296C112.299 118.096 100.14 116.778 98 119.978" fill="#FFEEFF" blush:i="0.0.31"/><path id="Fill 2816" fill-rule="evenodd" clip-rule="evenodd" d="M130.499 134.5C130.502 134.502 130.499 134.5 130.499 134.5C130.5 134.5 130.501 134.501 130.499 134.5" fill="#FFEEFF" blush:i="0.0.32"/><path id="Fill 2818" fill-rule="evenodd" clip-rule="evenodd" d="M98.4805 98.506C98.4935 98.5 98.5065 98.495 98.5195 98.49C98.5075 98.496 98.4965 98.503 98.4845 98.51L98.4805 98.506Z" fill="#7EA535" blush:i="0.0.33"/><path id="Fill 2820" fill-rule="evenodd" clip-rule="evenodd" d="M158.247 118C159.19 125.137 152.37 113.069 152.184 120.896C150.97 122.506 156.098 121.786 157.654 122.972C160.304 123.37 160.987 119.417 158.247 118" fill="#FFD9F4" blush:i="0.0.34"/><path id="Fill 2822" fill-rule="evenodd" clip-rule="evenodd" d="M157.332 140.092C156.292 138.537 156.378 138.69 156.109 140.251C154.595 141.98 151.387 138.426 150 141.265C150.858 143.107 165.996 141.018 157.332 140.092" fill="#FFD9F4" blush:i="0.0.35"/><path id="Fill 2824" fill-rule="evenodd" clip-rule="evenodd" d="M158.974 146C158.936 147.384 157.662 146.077 157 147.095C157.24 148.138 156.937 151.41 158.486 150.957C159.926 150.441 158.706 149.094 159.678 148.169C162.336 147.026 160.398 146.982 158.974 146" fill="#FFD9F4" blush:i="0.0.36"/><path id="Fill 2826" fill-rule="evenodd" clip-rule="evenodd" d="M137 140C137.595 138.48 138.811 140.639 138.889 139.478C138.598 137.906 140.255 138.078 140.418 136.662C141.064 135.811 142.783 137.368 141.588 135.671C139.281 130.773 137.436 138.008 137 140" fill="#FFD9F4" blush:i="0.0.37"/><path id="Fill 2828" fill-rule="evenodd" clip-rule="evenodd" d="M168.647 146.971C170.838 147.347 170.926 143.951 171 142.64C166.35 140.418 168.438 144.498 168.647 146.971" fill="#FFD9F4" blush:i="0.0.38"/><path id="Fill 2830" fill-rule="evenodd" clip-rule="evenodd" d="M140.373 141.958C143.287 142.403 145.196 139.196 143.139 138C138.587 138.224 140.306 138.109 140.373 141.958" fill="#FFD9F4" blush:i="0.0.39"/><path id="Fill 2832" fill-rule="evenodd" clip-rule="evenodd" d="M150 142.704C148.546 141.55 150.35 140.602 149.095 139.148C145.322 137.706 147.279 147.402 150 142.704" fill="#FFD9F4" blush:i="0.0.40"/><path id="Fill 2834" fill-rule="evenodd" clip-rule="evenodd" d="M185.634 174C190.019 172.611 182.387 169.126 183.04 172.286C183.573 173.07 184.596 173.758 185.634 174" fill="#FFD9F4" blush:i="0.0.41"/><path id="Fill 2836" fill-rule="evenodd" clip-rule="evenodd" d="M159.537 138C161.048 136.373 162.551 138.992 163 136.19C162.465 133.294 154.804 136.393 159.537 138" fill="#FFD9F4" blush:i="0.0.42"/><path id="Fill 2838" fill-rule="evenodd" clip-rule="evenodd" d="M176.68 103.224C174.209 101.838 174.688 107.346 176.666 106.966C179.323 107.387 177.295 103.777 176.68 103.224" fill="#FFD9F4" blush:i="0.0.43"/><path id="Fill 2840" fill-rule="evenodd" clip-rule="evenodd" d="M147.801 133C149.994 130.541 148.815 130.499 147.162 128.036C146.608 127.525 144.528 132.607 147.801 133" fill="#FFD9F4" blush:i="0.0.44"/><path id="Fill 2842" fill-rule="evenodd" clip-rule="evenodd" d="M168.834 152.418C169.154 152.514 169.883 152.731 169.242 153.035C166.83 156.137 173.464 155.219 169.95 152.686C171.792 148.397 165.902 147.285 168.834 152.418" fill="#FFD9F4" blush:i="0.0.45"/><path id="Fill 2844" fill-rule="evenodd" clip-rule="evenodd" d="M195.479 121.005C193.549 121.067 193.394 124.256 195.695 123.983C197.272 123.531 197.668 120.868 195.479 121.005" fill="#FFD9F4" blush:i="0.0.46"/><path id="Fill 2846" fill-rule="evenodd" clip-rule="evenodd" d="M140.933 141.671C141.138 140.439 140.888 138.176 139.953 138C138.361 138.257 138.814 143.317 140.933 141.671" fill="#FFD9F4" blush:i="0.0.47"/><path id="Fill 2848" fill-rule="evenodd" clip-rule="evenodd" d="M184.955 154.718C185.267 153.791 183.898 152.431 182.95 153.255C180.102 154.16 184.525 157.95 184.955 154.718" fill="#FFD9F4" blush:i="0.0.48"/><path id="Fill 2850" fill-rule="evenodd" clip-rule="evenodd" d="M172.037 140.677C171.545 145.633 176.184 141.234 172.681 140.479C175.623 139.834 172.555 137.392 172.037 140.677" fill="#FFD9F4" blush:i="0.0.49"/><path id="Fill 2852" fill-rule="evenodd" clip-rule="evenodd" d="M161.144 122.063C161.479 123.152 163.113 123.243 163.969 122.587C164.531 120.568 157.268 118.209 161.144 122.063" fill="#FFD9F4" blush:i="0.0.50"/><path id="Fill 2854" fill-rule="evenodd" clip-rule="evenodd" d="M195 133.043C195.077 134.517 197.263 135.938 197.963 134.2C198.363 132.384 195.367 130.935 195 133.043" fill="#FFD9F4" blush:i="0.0.51"/><path id="Fill 2856" fill-rule="evenodd" clip-rule="evenodd" d="M179.426 132C181.953 131.749 181.129 128.272 179.121 129.138C177.521 129.646 177.643 131.895 179.426 132" fill="#FFD9F4" blush:i="0.0.52"/><path id="Fill 2858" fill-rule="evenodd" clip-rule="evenodd" d="M203 167.582C202.449 164.823 199.143 166.032 200.211 168.467C201.08 169.234 202.998 169.358 203 167.582" fill="#FFD9F4" blush:i="0.0.53"/><path id="Fill 2860" fill-rule="evenodd" clip-rule="evenodd" d="M147.004 152.224C146.884 154.022 149.387 154.771 149.954 152.954C150.408 151.026 147.366 150.081 147.004 152.224" fill="#FFD9F4" blush:i="0.0.54"/><path id="Fill 2862" fill-rule="evenodd" clip-rule="evenodd" d="M153.993 122.091C152.359 119.952 151.411 121.222 151 123.623C152.507 123.612 154.123 125.15 153.993 122.091" fill="#FFD9F4" blush:i="0.0.55"/><path id="Fill 2864" fill-rule="evenodd" clip-rule="evenodd" d="M204.792 135C207.957 134.493 204.015 130.233 203.017 132.836C202.843 133.741 204.048 134.814 204.792 135" fill="#FFD9F4" blush:i="0.0.56"/><path id="Fill 2866" fill-rule="evenodd" clip-rule="evenodd" d="M181 147.482C181.003 149.094 183.541 149.638 184 148.042C183.894 146.008 181.247 144.955 181 147.482" fill="#FFD9F4" blush:i="0.0.57"/><path id="Fill 2868" fill-rule="evenodd" clip-rule="evenodd" d="M182.45 137.999C185.06 138.067 184.063 134.468 181.753 135.067C180.144 135.834 181.467 137.356 182.45 137.999" fill="#FFD9F4" blush:i="0.0.58"/><path id="Fill 2870" fill-rule="evenodd" clip-rule="evenodd" d="M155.345 142.066C153.546 141.547 153.724 144.254 154.868 145C156.31 144.839 156.266 142.958 155.345 142.066" fill="#FFD9F4" blush:i="0.0.59"/><path id="Fill 2872" fill-rule="evenodd" clip-rule="evenodd" d="M178.732 123.795C178.102 122.586 176.291 122.801 176 124.135C176.499 126.685 179.979 126.665 178.732 123.795" fill="#FFD9F4" blush:i="0.0.60"/><path id="Fill 2874" fill-rule="evenodd" clip-rule="evenodd" d="M205.931 163.999C208.572 163.513 205.637 159.901 204.415 161.334C203.319 162.724 204.595 164.048 205.931 163.999" fill="#FFD9F4" blush:i="0.0.61"/><path id="Fill 2876" fill-rule="evenodd" clip-rule="evenodd" d="M193.001 165.845C192.941 167.302 195.367 169.047 195.976 167.206C196.259 165.502 193.929 164.003 193.001 165.845" fill="#FFD9F4" blush:i="0.0.62"/><path id="Fill 2878" fill-rule="evenodd" clip-rule="evenodd" d="M143.767 146C142.676 146.251 142.897 147.811 143.515 148.69C145.284 150.148 145.6 145.989 143.767 146" fill="#FFD9F4" blush:i="0.0.63"/><path id="Fill 2880" fill-rule="evenodd" clip-rule="evenodd" d="M171 110.088C170.95 108.371 168.808 106.893 168 109.144C168.111 110.645 170.48 111.935 171 110.088" fill="#FFD9F4" blush:i="0.0.64"/><path id="Fill 2882" fill-rule="evenodd" clip-rule="evenodd" d="M172.045 141C173.959 140.543 172.526 138.894 171.794 138C168.898 138.734 169.899 140.077 172.045 141" fill="#FFD9F4" blush:i="0.0.65"/><path id="Fill 2884" fill-rule="evenodd" clip-rule="evenodd" d="M169.665 120C170.422 118.504 171.554 120.315 171.973 119.001C172.414 115.338 167.199 117.328 169.665 120" fill="#FFD9F4" blush:i="0.0.66"/><path id="Fill 2886" fill-rule="evenodd" clip-rule="evenodd" d="M174 151.671C174.058 152.583 174.178 154.454 175.284 153.899C176.995 152.855 175.262 149.611 174 151.671" fill="#FFD9F4" blush:i="0.0.67"/><path id="Fill 2888" fill-rule="evenodd" clip-rule="evenodd" d="M148.564 161C151.063 160.733 149.948 157.4 147.897 158.095C146.326 158.697 146.991 160.938 148.564 161" fill="#FFD9F4" blush:i="0.0.68"/><path id="Fill 2890" fill-rule="evenodd" clip-rule="evenodd" d="M165.036 126C162.909 126.875 164.419 130.091 166.32 128.621C167.872 127.571 166.475 126.166 165.036 126" fill="#FFD9F4" blush:i="0.0.69"/><path id="Fill 2892" fill-rule="evenodd" clip-rule="evenodd" d="M169.616 158.731C171.963 159.985 173.138 156.474 170.48 156.002C169.188 155.929 168.374 157.899 169.616 158.731" fill="#FFD9F4" blush:i="0.0.70"/><path id="Fill 2894" fill-rule="evenodd" clip-rule="evenodd" d="M187 132.044C186.619 130.84 184.419 130.535 184 131.892C184.038 133.2 186.668 133.472 187 132.044" fill="#FFD9F4" blush:i="0.0.71"/><path id="Fill 2896" fill-rule="evenodd" clip-rule="evenodd" d="M167.689 150C170.201 149.779 168.667 145.761 166.729 147.386C164.888 148.427 167.037 149.281 167.689 150" fill="#FFD9F4" blush:i="0.0.72"/><path id="Fill 2898" fill-rule="evenodd" clip-rule="evenodd" d="M180.003 141C180.731 142.004 180.822 142.559 180 143.335C182.301 145.692 183.007 141.027 180.003 141" fill="#FFD9F4" blush:i="0.0.73"/><path id="Fill 2900" fill-rule="evenodd" clip-rule="evenodd" d="M159.299 163.549C160.57 164.647 162.521 163.606 161.871 161.864C161.182 159.801 158.027 161.865 159.299 163.549" fill="#FFD9F4" blush:i="0.0.74"/><path id="Fill 2902" fill-rule="evenodd" clip-rule="evenodd" d="M154.007 157.647C154.185 160.29 156.824 158.58 155.739 156.603C155.197 155.242 153.895 156.445 154.007 157.647" fill="#FFD9F4" blush:i="0.0.75"/><path id="Fill 2904" fill-rule="evenodd" clip-rule="evenodd" d="M210.807 141C213.393 140.224 211.238 136.621 209.391 138.572C208.173 139.491 210.13 140.339 210.807 141" fill="#FFD9F4" blush:i="0.0.76"/><path id="Fill 2906" fill-rule="evenodd" clip-rule="evenodd" d="M162.229 168.368C162.777 170.152 164.45 167.704 163.885 166.622C163.045 164.989 161.395 166.927 162.229 168.368" fill="#FFD9F4" blush:i="0.0.77"/><path id="Fill 2908" fill-rule="evenodd" clip-rule="evenodd" d="M166.328 121C165.386 121.187 164.652 122.345 165.173 123.237C167.525 125.755 169.553 121.256 166.328 121" fill="#FFD9F4" blush:i="0.0.78"/><path id="Fill 2910" fill-rule="evenodd" clip-rule="evenodd" d="M150.897 162.005C149.554 162.246 149.808 165.017 151.069 165C152.455 164.689 152.206 161.871 150.897 162.005" fill="#FFD9F4" blush:i="0.0.79"/><path id="Fill 2912" fill-rule="evenodd" clip-rule="evenodd" d="M155.971 172.146C156.254 170.881 154.398 170.617 154.05 171.586C153.626 172.987 156.031 173.645 155.971 172.146" fill="#FFD9F4" blush:i="0.0.80"/><path id="Fill 2914" fill-rule="evenodd" clip-rule="evenodd" d="M166.006 166.364C165.891 167.816 167.363 168.563 167.854 167.497C168.598 165.617 166.269 163.582 166.006 166.364" fill="#FFD9F4" blush:i="0.0.81"/><path id="Fill 2916" fill-rule="evenodd" clip-rule="evenodd" d="M190.478 120C189.573 120.155 188.207 121.291 189.589 121.822C191.759 122.696 193.276 120.064 190.478 120" fill="#FFD9F4" blush:i="0.0.82"/><path id="Fill 2918" fill-rule="evenodd" clip-rule="evenodd" d="M153.306 148.571C152.799 149.027 152.871 151.59 153.913 150.875C155.939 150.431 154.779 146.571 153.306 148.571" fill="#FFD9F4" blush:i="0.0.83"/><path id="Fill 2920" fill-rule="evenodd" clip-rule="evenodd" d="M162.919 148.648C161.221 147.603 160.285 147.766 161.667 149.546C163.355 151.381 165.237 146.946 162.919 148.648" fill="#FFD9F4" blush:i="0.0.84"/><path id="Fill 2922" fill-rule="evenodd" clip-rule="evenodd" d="M181 159.531C181.163 163.001 184.389 159.417 182.296 158.022C181.706 157.857 181.014 158.653 181 159.531" fill="#FFD9F4" blush:i="0.0.85"/><path id="Fill 2924" fill-rule="evenodd" clip-rule="evenodd" d="M167.068 154C168.707 153.221 168.019 150.773 166.283 151.017C163.837 152.144 165.336 153.304 167.068 154" fill="#FFD9F4" blush:i="0.0.86"/><path id="Fill 2926" fill-rule="evenodd" clip-rule="evenodd" d="M184.007 138.888C183.817 140.527 187.322 140.22 186.976 138.841C186.592 137.599 184.309 137.833 184.007 138.888" fill="#FFD9F4" blush:i="0.0.87"/><path id="Fill 2928" fill-rule="evenodd" clip-rule="evenodd" d="M144.997 164.833C145.065 163.306 143.782 162.409 143.028 163.447C142.792 165.296 144.111 167.343 144.997 164.833" fill="#FFD9F4" blush:i="0.0.88"/><path id="Fill 2930" fill-rule="evenodd" clip-rule="evenodd" d="M184.033 113.611C183.793 115.083 184.923 116.671 185.914 115.704C186.342 113.784 185.083 112.036 184.033 113.611" fill="#FFD9F4" blush:i="0.0.89"/><path id="Fill 2932" fill-rule="evenodd" clip-rule="evenodd" d="M165 156.073C165.018 154.847 163.182 154.546 163.005 155.833C162.884 157.266 164.86 157.418 165 156.073" fill="#FFD9F4" blush:i="0.0.90"/><path id="Fill 2934" fill-rule="evenodd" clip-rule="evenodd" d="M158.94 146C159.594 144.992 160.744 144.091 159.318 143C157.982 143.05 157.35 145.803 158.94 146" fill="#FFD9F4" blush:i="0.0.91"/><path id="Fill 2936" fill-rule="evenodd" clip-rule="evenodd" d="M176.001 162C174.529 162.112 174.816 163.795 175.985 164C177.362 163.826 177.309 162.101 176.001 162" fill="#FFD9F4" blush:i="0.0.92"/><path id="Fill 2938" fill-rule="evenodd" clip-rule="evenodd" d="M155.328 125.423C154.621 126.21 155.128 127.993 156.163 128C157.902 127.582 156.586 123.743 155.328 125.423" fill="#FFD9F4" blush:i="0.0.93"/><path id="Fill 2940" fill-rule="evenodd" clip-rule="evenodd" d="M196.999 151.123C197.055 149.074 194.143 150.184 195.252 151.64C195.728 152.419 197.02 151.787 196.999 151.123" fill="#FFD9F4" blush:i="0.0.94"/><path id="Fill 2942" fill-rule="evenodd" clip-rule="evenodd" d="M177.945 148C176.613 148.044 176.794 149.986 177.834 150C179.393 150.002 179.347 148.071 177.945 148" fill="#FFD9F4" blush:i="0.0.95"/><path id="Fill 2944" fill-rule="evenodd" clip-rule="evenodd" d="M200.138 136.009C199.573 136.863 200.855 138.034 202.003 137.999C204.533 137.039 201.627 135.884 200.138 136.009" fill="#FFD9F4" blush:i="0.0.96"/><path id="Fill 2946" fill-rule="evenodd" clip-rule="evenodd" d="M177.103 111.026C174.59 110.592 177.026 115.846 177.973 113.301C178.133 112.329 177.551 111.629 177.103 111.026" fill="#FFD9F4" blush:i="0.0.97"/><path id="Fill 2948" fill-rule="evenodd" clip-rule="evenodd" d="M191.086 140.346C190.477 142.642 193.331 142.448 192.968 140.379C193.025 138.7 190.719 138.399 191.086 140.346" fill="#FFD9F4" blush:i="0.0.98"/><path id="Fill 2950" fill-rule="evenodd" clip-rule="evenodd" d="M176.406 140.324C177.156 141.311 178.095 141.287 177.992 139.783C177.727 137.99 174.986 139.758 176.406 140.324" fill="#FFD9F4" blush:i="0.0.99"/><path id="Fill 2952" fill-rule="evenodd" clip-rule="evenodd" d="M161.799 131.325C163.064 128.68 157.892 128.164 159.22 130.44C160.663 130.188 161.023 133.337 161.799 131.325" fill="#FFD9F4" blush:i="0.0.100"/><path id="Fill 2954" fill-rule="evenodd" clip-rule="evenodd" d="M158 135.379C157.979 134.369 156.715 133.29 156.143 134.615C155.444 135.769 157.515 136.643 158 135.379" fill="#FFD9F4" blush:i="0.0.101"/><path id="Fill 2956" fill-rule="evenodd" clip-rule="evenodd" d="M160 124.158C158.865 123.758 158.541 122.233 157.395 123.483C155.74 124.566 159.807 125.902 160 124.158" fill="#FFD9F4" blush:i="0.0.102"/><path id="Fill 2958" fill-rule="evenodd" clip-rule="evenodd" d="M176.853 129.999C178.622 129.909 178.193 127.719 176.601 128.03C175.873 128.485 175.642 130.034 176.853 129.999" fill="#FFD9F4" blush:i="0.0.103"/><path id="Fill 2960" fill-rule="evenodd" clip-rule="evenodd" d="M188 152.277C187.978 149.301 184.233 152.374 187.048 153C187.331 152.581 188.021 152.856 188 152.277" fill="#FFD9F4" blush:i="0.0.104"/><path id="Fill 2962" fill-rule="evenodd" clip-rule="evenodd" d="M178.05 133.955C178.714 133.494 179.649 132.73 180.284 133.998C182.909 134.117 177.427 129.473 178.05 133.955" fill="#FFD9F4" blush:i="0.0.105"/><path id="Fill 2964" fill-rule="evenodd" clip-rule="evenodd" d="M178.999 153.122C179.008 150.984 176.036 152.297 177.324 153.791C177.783 154.313 179.039 153.771 178.999 153.122" fill="#FFD9F4" blush:i="0.0.106"/><path id="Fill 2966" fill-rule="evenodd" clip-rule="evenodd" d="M176.968 146.237C176.113 143.111 174.16 146.745 175.402 147.998C176.303 148.053 177.179 147.145 176.968 146.237" fill="#FFD9F4" blush:i="0.0.107"/><path id="Fill 2968" fill-rule="evenodd" clip-rule="evenodd" d="M174.893 135C175.61 133.606 177.006 132.594 174.835 132C173.822 132.452 173.605 134.814 174.893 135" fill="#FFD9F4" blush:i="0.0.108"/><path id="Fill 2970" fill-rule="evenodd" clip-rule="evenodd" d="M164.775 131C164.066 131.21 163.982 132.164 163 132.222C164.402 134.357 167.82 131.47 164.775 131" fill="#FFD9F4" blush:i="0.0.109"/><path id="Fill 2972" fill-rule="evenodd" clip-rule="evenodd" d="M203.837 141.002C202.35 141.244 203.046 143.461 204.355 142.913C205.545 142.758 204.92 140.927 203.837 141.002" fill="#FFD9F4" blush:i="0.0.110"/><path id="Fill 2974" fill-rule="evenodd" clip-rule="evenodd" d="M164.011 169.7C163.855 170.993 165.383 171.537 165.932 170.319C166.373 169.059 164.551 168.418 164.011 169.7" fill="#FFD9F4" blush:i="0.0.111"/><path id="Fill 2976" fill-rule="evenodd" clip-rule="evenodd" d="M170.043 170.722C169.683 172.123 171.683 172.449 171.992 171.314C172.14 170.057 170.133 169.408 170.043 170.722" fill="#FFD9F4" blush:i="0.0.112"/><path id="Fill 2978" fill-rule="evenodd" clip-rule="evenodd" d="M159 151.199C158.999 152.299 160.685 152.142 160.993 151.472C161.131 149.778 159.264 149.364 159 151.199" fill="#FFD9F4" blush:i="0.0.113"/><path id="Fill 2980" fill-rule="evenodd" clip-rule="evenodd" d="M191.016 153.071C190.866 153.957 191.789 154.115 192.38 153.933C194.284 153.009 191.211 150.624 191.016 153.071" fill="#FFD9F4" blush:i="0.0.114"/><path id="Fill 2982" fill-rule="evenodd" clip-rule="evenodd" d="M168 126.885C169.656 126.866 169.07 128.944 170.218 129C172.422 127.105 169.411 124.661 168 126.885" fill="#FFD9F4" blush:i="0.0.115"/><path id="Fill 2984" fill-rule="evenodd" clip-rule="evenodd" d="M162.386 142C162.222 143.135 161.677 143.448 161 143.926C161.511 146.789 164.184 143.15 162.386 142" fill="#FFD9F4" blush:i="0.0.116"/><path id="Fill 2986" fill-rule="evenodd" clip-rule="evenodd" d="M177.214 158.886C178.958 158.146 177.441 156.186 176.118 157.373C175.752 157.93 176.272 159.421 177.214 158.886" fill="#FFD9F4" blush:i="0.0.117"/><path id="Fill 2988" fill-rule="evenodd" clip-rule="evenodd" d="M145 158.146C144.966 156.409 143.087 156.909 143 157.923C143.021 159.276 144.74 159.359 145 158.146" fill="#FFD9F4" blush:i="0.0.118"/><path id="Fill 2990" fill-rule="evenodd" clip-rule="evenodd" d="M151.721 153.962C152.699 154.195 152.729 153.316 153 152.68C152.366 150.816 149.754 153.304 151.721 153.962" fill="#FFD9F4" blush:i="0.0.119"/><path id="Fill 2992" fill-rule="evenodd" clip-rule="evenodd" d="M167 140.94C165.749 140.144 165.675 139.297 165.006 140.945C164.883 142.342 166.722 142.363 167 140.94" fill="#FFD9F4" blush:i="0.0.120"/><path id="Fill 2994" fill-rule="evenodd" clip-rule="evenodd" d="M166.691 136.786C167.616 134.024 166.279 135.62 165.094 135C164.664 135.821 165.8 137.616 166.691 136.786" fill="#FFD9F4" blush:i="0.0.121"/><path id="Fill 2996" fill-rule="evenodd" clip-rule="evenodd" d="M154.683 140.992C153.836 140.465 154.291 139.6 155 139.123C154.845 135.692 150.792 141.238 154.683 140.992" fill="#FFD9F4" blush:i="0.0.122"/><path id="Fill 2998" fill-rule="evenodd" clip-rule="evenodd" d="M147.984 170.119C148.164 166.877 143.79 171.804 147.493 170.883C147.675 170.499 148.087 170.699 147.984 170.119" fill="#FFD9F4" blush:i="0.0.123"/><path id="Fill 3000" fill-rule="evenodd" clip-rule="evenodd" d="M194.776 144.008C194.349 144.479 193.916 144.576 194.014 145.329C194.875 147.463 197.543 143.807 194.776 144.008" fill="#FFD9F4" blush:i="0.0.124"/><path id="Fill 3002" fill-rule="evenodd" clip-rule="evenodd" d="M140.994 169.018C141.091 168.033 139.954 167.841 139.263 168.111C138.126 169.557 141.049 171.029 140.994 169.018" fill="#FFD9F4" blush:i="0.0.125"/><path id="Fill 3004" fill-rule="evenodd" clip-rule="evenodd" d="M171 132.428C171.178 133.348 172.31 133.941 172.092 134.992C174.071 135.219 172.402 130.603 171 132.428" fill="#FFD9F4" blush:i="0.0.126"/><path id="Fill 3006" fill-rule="evenodd" clip-rule="evenodd" d="M160.662 117C160.947 118.035 159.333 119.372 160.327 119.757C162.242 121.002 162.72 117.06 160.662 117" fill="#FFD9F4" blush:i="0.0.127"/><path id="Fill 3008" fill-rule="evenodd" clip-rule="evenodd" d="M146.011 166.978C146.104 168.503 148.358 168.225 147.951 166.782C147.876 165.639 145.835 165.786 146.011 166.978" fill="#FFD9F4" blush:i="0.0.128"/><path id="Fill 3010" fill-rule="evenodd" clip-rule="evenodd" d="M187.106 164C189.2 163.819 187.098 161.13 186.058 162.289C185.774 163.074 186.599 163.921 187.106 164" fill="#FFD9F4" blush:i="0.0.129"/><path id="Fill 3012" fill-rule="evenodd" clip-rule="evenodd" d="M156 116.391C153.666 114.809 151.231 118.58 154.822 117.922C155.734 117.569 154.939 116.174 156 116.391" fill="#FFD9F4" blush:i="0.0.130"/><path id="Fill 3014" fill-rule="evenodd" clip-rule="evenodd" d="M140.998 149.05C141.091 146.725 137.917 148.843 139.392 149.853C140.06 150.269 140.812 149.739 140.998 149.05" fill="#FFD9F4" blush:i="0.0.131"/><path id="Fill 3016" fill-rule="evenodd" clip-rule="evenodd" d="M164.502 153.581C165.498 153.168 164.867 151.677 163.777 152.063C162.311 152.447 163.129 154.984 164.502 153.581" fill="#FFD9F4" blush:i="0.0.132"/><path id="Fill 3018" fill-rule="evenodd" clip-rule="evenodd" d="M202.999 148.077C203.023 146.657 200.622 146.58 201.052 148.213C201.009 149.54 203.04 148.977 202.999 148.077" fill="#FFD9F4" blush:i="0.0.133"/><path id="Fill 3020" fill-rule="evenodd" clip-rule="evenodd" d="M189.978 111C192.474 110.699 189.695 107.71 189.044 109.651C188.806 110.051 189.602 110.801 189.978 111" fill="#FFD9F4" blush:i="0.0.134"/><path id="Fill 3022" fill-rule="evenodd" clip-rule="evenodd" d="M168.867 103.656C168.269 102.334 167.179 103.269 167 104.199C167.328 105.586 169.562 105.021 168.867 103.656" fill="#FFD9F4" blush:i="0.0.135"/><path id="Fill 3024" fill-rule="evenodd" clip-rule="evenodd" d="M192.633 160C195.392 159.847 193.335 156.774 192.033 158.552C191.858 158.876 192.434 159.586 192.633 160" fill="#FFD9F4" blush:i="0.0.136"/><path id="Fill 3026" fill-rule="evenodd" clip-rule="evenodd" d="M204 138.796C204.008 137.323 201.224 138.167 202.212 139.136C202.804 140.611 203.569 139.995 204 138.796" fill="#FFD9F4" blush:i="0.0.137"/><path id="Fill 3028" fill-rule="evenodd" clip-rule="evenodd" d="M142 152.812C141.721 151.528 140.003 151.875 140 153.1C140.588 154.317 141.901 154.374 142 152.812" fill="#FFD9F4" blush:i="0.0.138"/><path id="Fill 3030" fill-rule="evenodd" clip-rule="evenodd" d="M158.081 159.256C161.911 162.643 158.992 153.023 158 159.012C158.232 159.036 158.937 159.262 158.604 158.691C158.817 155.678 160.785 160.851 158.081 159.256" fill="#FFD9F4" blush:i="0.0.139"/><path id="Fill 3032" fill-rule="evenodd" clip-rule="evenodd" d="M142.122 137.775C142.832 138.251 143.817 137.952 144 137.064C143.478 135.251 141.492 135.933 142.122 137.775" fill="#FFD9F4" blush:i="0.0.140"/><path id="Fill 3034" fill-rule="evenodd" clip-rule="evenodd" d="M174.222 148.393C173.296 149.93 175.538 150.736 175.968 149.095C176.147 148.324 175.572 147.489 174.222 148.393" fill="#FFD9F4" blush:i="0.0.141"/><path id="Fill 3036" fill-rule="evenodd" clip-rule="evenodd" d="M152.79 139.596C153.918 138.307 150.06 135.618 151.557 137.867C152.316 140.25 149.15 140.321 152.79 139.596" fill="#FFD9F4" blush:i="0.0.142"/><path id="Fill 3038" fill-rule="evenodd" clip-rule="evenodd" d="M145.008 137.516C145.444 137.244 145.949 137.394 146.331 138C148.46 137.894 144.808 133.89 145.008 137.516" fill="#FFD9F4" blush:i="0.0.143"/><path id="Fill 3040" fill-rule="evenodd" clip-rule="evenodd" d="M146.121 171.045C144.998 170.632 144.453 173.227 145.766 172.939C147.13 173.419 147.525 170.885 146.121 171.045" fill="#FFD9F4" blush:i="0.0.144"/><path id="Fill 3042" fill-rule="evenodd" clip-rule="evenodd" d="M162.821 139.568C163.567 138.206 161.791 137.825 161 138.069C162.229 138.149 161.604 141.079 162.821 139.568" fill="#FFD9F4" blush:i="0.0.145"/><path id="Fill 3044" fill-rule="evenodd" clip-rule="evenodd" d="M159.934 159.268C160.428 157.519 157.973 157.71 158.604 159.046C159.192 159.569 158.149 159.135 158 159.349C158.306 159.866 160.046 160.548 159.934 159.268" fill="#FFD9F4" blush:i="0.0.146"/><path id="Fill 3046" fill-rule="evenodd" clip-rule="evenodd" d="M159.686 155.768C160.676 154.106 159.056 155.394 158.527 154.014C157.245 153.765 158.568 156.852 159.686 155.768" fill="#FFD9F4" blush:i="0.0.147"/><path id="Fill 3048" fill-rule="evenodd" clip-rule="evenodd" d="M168.52 141C169.207 140.32 169.257 138.486 168 139.138C168.21 139.756 167.698 140.925 168.52 141" fill="#FFD9F4" blush:i="0.0.148"/><path id="Fill 3050" fill-rule="evenodd" clip-rule="evenodd" d="M189.511 126C190.406 125.611 189.977 123.125 189 124.324C189.097 124.903 189.019 125.696 189.511 126" fill="#FFD9F4" blush:i="0.0.149"/><path id="Fill 3052" fill-rule="evenodd" clip-rule="evenodd" d="M164.275 123.025C163.857 122.767 162.296 124.575 163.371 125C163.56 122.758 166.26 125.164 164.275 123.025" fill="#FFD9F4" blush:i="0.0.150"/><path id="Fill 3054" fill-rule="evenodd" clip-rule="evenodd" d="M147.202 149C147.644 147.819 148.728 147.217 150 148.012C149.356 146.12 146.177 147.129 147.202 149" fill="#FFD9F4" blush:i="0.0.151"/><path id="Fill 3056" fill-rule="evenodd" clip-rule="evenodd" d="M147.752 141.996C148.502 141.153 147.28 140.963 147.607 140.031C146.635 139.704 146.94 142.113 147.752 141.996" fill="#FFD9F4" blush:i="0.0.152"/><path id="Fill 3058" fill-rule="evenodd" clip-rule="evenodd" d="M211 141C210.287 140.074 207.878 139.382 209.901 138.306C210.616 136.888 206.812 140.845 211 141" fill="#FFD9F4" blush:i="0.0.153"/><path id="Fill 3060" fill-rule="evenodd" clip-rule="evenodd" d="M141.946 152.541C141.648 154.471 139.882 153.602 140.407 152C138.806 153.681 142.482 155.238 141.946 152.541" fill="#FFD9F4" blush:i="0.0.154"/><path id="Fill 3062" fill-rule="evenodd" clip-rule="evenodd" d="M148 141.92C147.666 141.851 147.307 141.179 147.33 140.79C147.504 138.275 146.117 142.631 148 141.92" fill="#FFD9F4" blush:i="0.0.155"/><path id="Fill 3064" fill-rule="evenodd" clip-rule="evenodd" d="M161 146.776C160.657 146.157 159.592 146.293 159.014 146C158.85 146.57 160.142 147.405 161 146.776" fill="#FFD9F4" blush:i="0.0.156"/><path id="Fill 3066" fill-rule="evenodd" clip-rule="evenodd" d="M150.256 156C150.341 155.207 150.866 155.13 151 154.444C150.571 153.032 149.516 155.387 150.256 156" fill="#FFD9F4" blush:i="0.0.157"/><path id="Fill 3068" fill-rule="evenodd" clip-rule="evenodd" d="M153.727 118.286C151.323 119.123 155.618 118.848 156 118.255C155.22 118.179 154.436 118.14 153.727 118.286" fill="#FFD9F4" blush:i="0.0.158"/><path id="Fill 3070" fill-rule="evenodd" clip-rule="evenodd" d="M199.749 140.973C200.829 140.408 198.082 139.402 198 140.471C198.8 140.499 198.534 141.137 199.749 140.973" fill="#FFD9F4" blush:i="0.0.159"/><path id="Fill 3072" fill-rule="evenodd" clip-rule="evenodd" d="M144.957 165C144.138 165.862 143.399 166.266 143.076 165.054C142.501 166.398 145.38 166.247 144.957 165" fill="#FFD9F4" blush:i="0.0.160"/><path id="Fill 3074" fill-rule="evenodd" clip-rule="evenodd" d="M175.78 149.095C175.281 152.144 177.445 146.328 174.005 148.497C173.884 148.914 176.113 147.757 175.78 149.095" fill="#FFD9F4" blush:i="0.0.161"/><path id="Fill 3076" fill-rule="evenodd" clip-rule="evenodd" d="M200 135.619C200.638 135.853 201.32 136.096 202 135.962C201.594 135.401 200.072 134.308 200 135.619" fill="#FFD9F4" blush:i="0.0.162"/><path id="Fill 3078" fill-rule="evenodd" clip-rule="evenodd" d="M204 169C203.14 169.992 201.985 169.788 201.015 169.365C200.753 170.213 204.022 170.324 204 169" fill="#FFD9F4" blush:i="0.0.163"/><path id="Fill 3080" fill-rule="evenodd" clip-rule="evenodd" d="M191.267 140C191.24 139.652 191.944 138.691 192.598 139.358C194.314 139.174 189.901 138.377 191.267 140" fill="#FFD9F4" blush:i="0.0.164"/><path id="Fill 3082" fill-rule="evenodd" clip-rule="evenodd" d="M193.375 158C194.291 158.892 193.787 159.418 193 159.941C193.963 160.398 194.485 158.065 193.375 158" fill="#FFD9F4" blush:i="0.0.165"/><path id="Fill 3084" fill-rule="evenodd" clip-rule="evenodd" d="M200 140.75C198.788 140.835 199.078 140.061 198.528 140.206C197.236 139.295 198.542 141.766 200 140.75" fill="#FFD9F4" blush:i="0.0.166"/><path id="Fill 3086" fill-rule="evenodd" clip-rule="evenodd" d="M190 126.946C189.436 126.311 189.643 125.703 189.256 125C188.657 125.457 189.193 127.342 190 126.946" fill="#FFD9F4" blush:i="0.0.167"/><path id="Fill 3088" fill-rule="evenodd" clip-rule="evenodd" d="M145.173 136.785C146.151 136.571 146.998 136.586 148 136.475C147.417 135.834 144.23 136.546 145.173 136.785" fill="#FFD9F4" blush:i="0.0.168"/><path id="Fill 3090" fill-rule="evenodd" clip-rule="evenodd" d="M132.987 145C133.107 144.206 132.331 143.712 132.404 143C131.317 143.012 132.739 144.359 132.987 145" fill="#FFD9F4" blush:i="0.0.169"/><path id="Fill 3092" fill-rule="evenodd" clip-rule="evenodd" d="M157 123.885C157.538 123.895 160.024 123.483 158.527 123.469C157.786 123.596 157.003 122.358 157 123.885" fill="#FFD9F4" blush:i="0.0.170"/><path id="Fill 3094" fill-rule="evenodd" clip-rule="evenodd" d="M164.382 169C165.259 168.197 164.681 168.615 164.706 167.794C164.955 165.663 163.584 168.433 164.382 169" fill="#FFD9F4" blush:i="0.0.171"/><path id="Fill 3096" fill-rule="evenodd" clip-rule="evenodd" d="M152.611 153C152.346 153.594 152.325 153.966 152.075 154.685C151.674 155.724 153.799 153.941 152.611 153" fill="#FFD9F4" blush:i="0.0.172"/><path id="Fill 3098" fill-rule="evenodd" clip-rule="evenodd" d="M168.897 154.995C168.911 154.341 168.015 153.492 168.452 153.447C169.121 151.827 167.038 155.143 168.897 154.995" fill="#FFD9F4" blush:i="0.0.173"/><path id="Fill 3100" fill-rule="evenodd" clip-rule="evenodd" d="M173 135C172.421 135.149 172.173 135.304 172 135.997C172.385 136.047 172.867 135.421 173 135" fill="#FFD9F4" blush:i="0.0.174"/><path id="Fill 3102" fill-rule="evenodd" clip-rule="evenodd" d="M146 170.735C146.589 170.985 147.93 171.107 148 170.09C147.523 170.442 146.446 170.334 146 170.735" fill="#FFD9F4" blush:i="0.0.175"/><path id="Fill 3104" fill-rule="evenodd" clip-rule="evenodd" d="M193 160C192.674 159.651 193.034 159.11 192.161 159C191.653 159.269 192.461 159.94 193 160" fill="#FFD9F4" blush:i="0.0.176"/><path id="Fill 3106" fill-rule="evenodd" clip-rule="evenodd" d="M168.948 153C169.205 152.206 168.421 152.313 168.623 151.407C167.336 150.01 168.348 152.627 168.948 153" fill="#FFD9F4" blush:i="0.0.177"/><path id="Fill 3108" fill-rule="evenodd" clip-rule="evenodd" d="M170.984 155C170.592 155.571 169.643 155.549 169 155.775C169.318 156.372 171.19 155.666 170.984 155" fill="#FFD9F4" blush:i="0.0.178"/><path id="Fill 3110" fill-rule="evenodd" clip-rule="evenodd" d="M190.383 124C190.391 124.654 190.362 125.217 190.187 126C191.043 125.926 190.932 124.417 190.383 124" fill="#FFD9F4" blush:i="0.0.179"/><path id="Fill 3112" fill-rule="evenodd" clip-rule="evenodd" d="M167.093 104C167.454 103.957 167.465 103.642 167.387 103.351C169.152 103.418 166.481 102.176 167.093 104" fill="#FFD9F4" blush:i="0.0.180"/><path id="Fill 3114" fill-rule="evenodd" clip-rule="evenodd" d="M185.424 114C184.77 114.033 185.623 114.189 185.313 114.427C184.954 115.674 186.541 114.582 185.424 114" fill="#FFD9F4" blush:i="0.0.181"/><path id="Fill 3116" fill-rule="evenodd" clip-rule="evenodd" d="M199.894 139.295C199.842 138.78 199.302 139.086 199.019 139.13C198.81 139.987 200.418 140.486 199.894 139.295" fill="#FFD9F4" blush:i="0.0.182"/><path id="Fill 3118" fill-rule="evenodd" clip-rule="evenodd" d="M199.882 139C199.925 139.864 199.778 139.294 199 139.358C199.779 140.316 200.227 140.206 199.882 139" fill="#FFD9F4" blush:i="0.0.183"/><path id="Fill 3120" fill-rule="evenodd" clip-rule="evenodd" d="M168.022 146C167.872 146.41 168.526 147.441 168.978 146.789C169.167 146.589 168.088 146.353 168.022 146" fill="#FFD9F4" blush:i="0.0.184"/><path id="Fill 3122" fill-rule="evenodd" clip-rule="evenodd" d="M179.363 124C179.069 124.448 179.28 124.659 179.359 125C179.726 124.727 180.104 124.232 179.363 124" fill="#FFD9F4" blush:i="0.0.185"/><path id="Fill 3124" fill-rule="evenodd" clip-rule="evenodd" d="M170.924 152C170.754 152.073 169.21 152.983 170.574 153C169.45 152.677 171.333 152.597 170.924 152" fill="#FFD9F4" blush:i="0.0.186"/><path id="Fill 3126" fill-rule="evenodd" clip-rule="evenodd" d="M186 115.19C185.676 115.52 185.28 115.161 185 115.369C185.206 116.032 185.948 115.93 186 115.19" fill="#FFD9F4" blush:i="0.0.187"/><path id="Fill 3128" fill-rule="evenodd" clip-rule="evenodd" d="M169 149.69C169.011 149.089 167.591 149.12 168.117 149.739C168.432 149.263 168.662 149.928 169 149.69" fill="#FFD9F4" blush:i="0.0.188"/><path id="Fill 3130" fill-rule="evenodd" clip-rule="evenodd" d="M189 124.777C189.379 124.484 189.604 124.6 190 124.676C189.756 123.939 189.19 124.198 189 124.777" fill="#FFD9F4" blush:i="0.0.189"/><path id="Fill 3132" fill-rule="evenodd" clip-rule="evenodd" d="M144.634 137.986C145.446 137.329 144.188 136.468 144.094 137.477C144.648 137.084 144.456 137.666 144.634 137.986" fill="#FFD9F4" blush:i="0.0.190"/><path id="Fill 3134" fill-rule="evenodd" clip-rule="evenodd" d="M191.682 142C191.258 141.577 191.99 141.168 191.531 141C191.161 141.147 191.289 141.807 191.682 142" fill="#FFD9F4" blush:i="0.0.191"/><path id="Fill 3136" fill-rule="evenodd" clip-rule="evenodd" d="M170.277 153C170.27 153.39 170.456 153.708 170.717 154C170.749 153.601 170.669 153.244 170.277 153" fill="#FFD9F4" blush:i="0.0.192"/><path id="Fill 3138" fill-rule="evenodd" clip-rule="evenodd" d="M167.263 150.995C167.35 150.619 167.656 150.358 167.784 150.005C167.335 150.118 167.112 150.545 167.263 150.995" fill="#FFD9F4" blush:i="0.0.193"/><path id="Fill 3140" fill-rule="evenodd" clip-rule="evenodd" d="M198.182 139.915C198.677 139.867 199.07 138.677 198.641 139.233C198.242 139.407 198.147 139.484 198.182 139.915" fill="#FFD9F4" blush:i="0.0.194"/><path id="Fill 3142" fill-rule="evenodd" clip-rule="evenodd" d="M169.946 147.439C170.058 146.953 169.11 147.934 169.227 147.353C168.628 147.457 169.679 148.027 169.946 147.439" fill="#FFD9F4" blush:i="0.0.195"/><path id="Fill 3144" fill-rule="evenodd" clip-rule="evenodd" d="M192.294 158.845C192.726 158.933 192.69 158.408 192.706 158.146C192.302 158.222 192.295 158.532 192.294 158.845" fill="#FFD9F4" blush:i="0.0.196"/><path id="Fill 3146" fill-rule="evenodd" clip-rule="evenodd" d="M160.15 128.642C160.444 128.816 160.638 128.603 160.851 128.462C160.582 128.197 160.43 128.236 160.15 128.642" fill="#FFD9F4" blush:i="0.0.197"/><path id="Fill 3148" fill-rule="evenodd" clip-rule="evenodd" d="M157.216 143.828C157.489 143.682 157.761 143.534 157.784 143.172C157.39 143.215 157.229 143.457 157.216 143.828" fill="#FFD9F4" blush:i="0.0.198"/><path id="Fill 3150" fill-rule="evenodd" clip-rule="evenodd" d="M199.384 139.148C199.117 139.388 199.458 139.643 199.66 139.851C199.794 139.587 199.671 139.198 199.384 139.148" fill="#FFD9F4" blush:i="0.0.199"/><path id="Fill 3152" fill-rule="evenodd" clip-rule="evenodd" d="M167.907 149.368C167.567 149.255 167.353 149.516 167.093 149.64C167.422 149.722 167.664 149.545 167.907 149.368" fill="#FFD9F4" blush:i="0.0.200"/><path id="Fill 3154" fill-rule="evenodd" clip-rule="evenodd" d="M169.462 103.324C169.306 103.452 169.318 103.518 169.529 103.676C169.702 103.569 169.682 103.46 169.462 103.324" fill="#FFD9F4" blush:i="0.0.201"/><path id="Fill 3156" fill-rule="evenodd" clip-rule="evenodd" d="M157.453 144.817C157.624 144.607 157.738 144.396 157.456 144.183C157.535 144.395 157.235 144.604 157.453 144.817" fill="#FFD9F4" blush:i="0.0.202"/><path id="Fill 3158" fill-rule="evenodd" clip-rule="evenodd" d="M199.311 139.442C199.332 139.604 199.449 139.692 199.584 139.659C199.859 139.465 199.529 139.176 199.311 139.442" fill="#FFD9F4" blush:i="0.0.203"/><path id="Fill 3160" fill-rule="evenodd" clip-rule="evenodd" d="M168.333 102.314C168.237 102.642 168.523 102.607 168.687 102.687C168.651 102.486 168.584 102.312 168.333 102.314" fill="#FFD9F4" blush:i="0.0.204"/><path id="Fill 3162" fill-rule="evenodd" clip-rule="evenodd" d="M211.708 140.326C211.496 140.353 211.299 140.398 211.292 140.674C211.469 140.602 211.651 140.539 211.708 140.326" fill="#FFD9F4" blush:i="0.0.205"/><path id="Fill 3164" fill-rule="evenodd" clip-rule="evenodd" d="M144.501 137.321C144.429 137.421 144.367 137.525 144.364 137.653C144.605 137.775 144.764 137.42 144.501 137.321" fill="#FFD9F4" blush:i="0.0.206"/><path id="Fill 3166" fill-rule="evenodd" clip-rule="evenodd" d="M165.592 155.342C165.451 155.37 165.349 155.455 165.357 155.598C165.488 155.779 165.756 155.515 165.592 155.342" fill="#FFD9F4" blush:i="0.0.207"/><path id="Fill 3168" fill-rule="evenodd" clip-rule="evenodd" d="M166.67 132.275C166.421 132.322 166.496 132.614 166.33 132.725C166.663 132.74 166.673 132.512 166.67 132.275" fill="#FFD9F4" blush:i="0.0.208"/><path id="Fill 3170" fill-rule="evenodd" clip-rule="evenodd" d="M172.624 142.638C172.664 142.431 172.578 142.341 172.37 142.364C172.347 142.555 172.422 142.655 172.624 142.638" fill="#FFD9F4" blush:i="0.0.209"/><path id="Fill 3172" fill-rule="evenodd" clip-rule="evenodd" d="M148.523 169.362C148.434 169.451 148.206 169.533 148.511 169.638C148.76 169.556 148.593 169.457 148.523 169.362" fill="#FFD9F4" blush:i="0.0.210"/><path id="Fill 3174" fill-rule="evenodd" clip-rule="evenodd" d="M136.33 140.46C136.23 140.747 136.712 140.682 136.683 140.41C136.549 140.296 136.435 140.373 136.33 140.46" fill="#FFD9F4" blush:i="0.0.211"/><path id="Fill 3176" fill-rule="evenodd" clip-rule="evenodd" d="M166.616 141.36C166.439 141.371 166.399 141.5 166.372 141.64C166.566 141.645 166.665 141.567 166.616 141.36" fill="#FFD9F4" blush:i="0.0.212"/><path id="Fill 3178" fill-rule="evenodd" clip-rule="evenodd" d="M179.431 123.322C179.306 123.536 179.472 123.601 179.614 123.678C179.6 123.535 179.619 123.375 179.431 123.322" fill="#FFD9F4" blush:i="0.0.213"/><path id="Fill 3180" fill-rule="evenodd" clip-rule="evenodd" d="M147.365 140.514C147.426 140.658 147.599 140.579 147.635 140.486C147.539 140.435 147.436 140.321 147.365 140.514" fill="#FFD9F4" blush:i="0.0.214"/><path id="Fill 3182" fill-rule="evenodd" clip-rule="evenodd" d="M178.631 125.433C178.397 125.302 178.337 125.397 178.382 125.626C178.5 125.607 178.595 125.558 178.631 125.433" fill="#FFD9F4" blush:i="0.0.215"/><path id="Fill 3184" fill-rule="evenodd" clip-rule="evenodd" d="M134.356 105.608C134.501 105.631 134.589 105.561 134.644 105.435C134.433 105.298 134.418 105.495 134.356 105.608" fill="#FFD9F4" blush:i="0.0.216"/><path id="Fill 3186" fill-rule="evenodd" clip-rule="evenodd" d="M171.356 132.635C171.523 132.656 171.601 132.479 171.649 132.375C171.472 132.327 171.322 132.435 171.356 132.635" fill="#FFD9F4" blush:i="0.0.217"/><path id="Fill 3188" fill-rule="evenodd" clip-rule="evenodd" d="M158.359 128.476C158.458 128.563 158.558 128.698 158.641 128.463C158.542 128.349 158.451 128.436 158.359 128.476" fill="#FFD9F4" blush:i="0.0.218"/><path id="Fill 3190" fill-rule="evenodd" clip-rule="evenodd" d="M203.496 168.373C203.355 168.473 203.477 168.546 203.521 168.627C203.592 168.534 203.59 168.449 203.496 168.373" fill="#FFD9F4" blush:i="0.0.219"/><path id="Fill 3192" fill-rule="evenodd" clip-rule="evenodd" d="M171.462 132.577C171.609 132.657 171.612 132.456 171.532 132.409C171.434 132.372 171.364 132.557 171.462 132.577" fill="#FFD9F4" blush:i="0.0.220"/><path id="Fill 3194" fill-rule="evenodd" clip-rule="evenodd" d="M152.425 152.399C152.404 152.52 152.461 152.584 152.578 152.601C152.587 152.488 152.515 152.437 152.425 152.399" fill="#FFD9F4" blush:i="0.0.221"/><path id="Fill 3196" fill-rule="evenodd" clip-rule="evenodd" d="M152.403 152.422C152.417 152.537 152.479 152.592 152.597 152.58C152.574 152.477 152.525 152.404 152.403 152.422" fill="#FFD9F4" blush:i="0.0.222"/><path id="Fill 3198" fill-rule="evenodd" clip-rule="evenodd" d="M170.405 153.411C170.402 153.541 170.457 153.608 170.595 153.584C170.578 153.475 170.526 153.406 170.405 153.411" fill="#FFD9F4" blush:i="0.0.223"/><path id="Fill 3200" fill-rule="evenodd" clip-rule="evenodd" d="M147.558 142.563L147.482 142.437C147.387 142.551 147.48 142.552 147.558 142.563" fill="#FFD9F4" blush:i="0.0.224"/><path id="Fill 3202" fill-rule="evenodd" clip-rule="evenodd" d="M144.539 137.403C144.448 137.438 144.415 137.504 144.434 137.598C144.525 137.563 144.622 137.531 144.539 137.403" fill="#FFD9F4" blush:i="0.0.225"/><path id="Fill 3204" fill-rule="evenodd" clip-rule="evenodd" d="M165.411 130.555C165.547 130.597 165.681 130.51 165.507 130.434C165.433 130.431 165.424 130.498 165.411 130.555" fill="#FFD9F4" blush:i="0.0.226"/><path id="Fill 3206" fill-rule="evenodd" clip-rule="evenodd" d="M151.45 154.415C151.364 154.573 151.471 154.581 151.582 154.585C151.58 154.496 151.562 154.418 151.45 154.415" fill="#FFD9F4" blush:i="0.0.227"/><path id="Fill 3208" fill-rule="evenodd" clip-rule="evenodd" d="M135.427 104.548C135.476 104.542 135.525 104.537 135.573 104.532C135.539 104.412 135.434 104.434 135.427 104.548" fill="#FFD9F4" blush:i="0.0.228"/><path id="Fill 3210" fill-rule="evenodd" clip-rule="evenodd" d="M176.478 103.481C176.546 103.529 176.543 103.53 176.473 103.486L176.478 103.481Z" fill="#FFD9F4" blush:i="0.0.229"/><path id="Fill 3212" fill-rule="evenodd" clip-rule="evenodd" d="M168.46 103.412C168.463 103.48 168.466 103.55 168.538 103.587C168.538 103.517 168.557 103.439 168.46 103.412" fill="#FFD9F4" blush:i="0.0.230"/><path id="Fill 3214" fill-rule="evenodd" clip-rule="evenodd" d="M166.518 165.496L166.483 165.491C166.48 165.524 166.502 165.502 166.518 165.496" fill="#FFD9F4" blush:i="0.0.231"/><path id="Fill 3216" fill-rule="evenodd" clip-rule="evenodd" d="M168.45 141.586C168.585 141.565 168.586 141.399 168.448 141.414C168.457 141.47 168.447 141.529 168.45 141.586" fill="#FFD9F4" blush:i="0.0.232"/><path id="Fill 3218" fill-rule="evenodd" clip-rule="evenodd" d="M164.538 141.547C164.543 141.492 164.513 141.465 164.462 141.454C164.487 141.485 164.513 141.516 164.538 141.547" fill="#FFD9F4" blush:i="0.0.233"/><path id="Fill 3220" fill-rule="evenodd" clip-rule="evenodd" d="M168.505 141.514C168.486 141.48 168.486 141.477 168.508 141.511L168.505 141.514Z" fill="#FFD9F4" blush:i="0.0.234"/><path id="Fill 3222" fill-rule="evenodd" clip-rule="evenodd" d="M164.496 157.494L164.506 157.506C164.505 157.504 164.489 157.497 164.496 157.494" fill="#FFD9F4" blush:i="0.0.235"/><path id="Fill 3224" fill-rule="evenodd" clip-rule="evenodd" d="M176.484 142.482C176.496 142.493 176.533 142.545 176.511 142.5C176.505 142.491 176.476 142.492 176.484 142.482" fill="#FFD9F4" blush:i="0.0.236"/><path id="Fill 3226" fill-rule="evenodd" clip-rule="evenodd" d="M194.504 143.506L194.495 143.495C194.495 143.496 194.51 143.504 194.504 143.506" fill="#FFD9F4" blush:i="0.0.237"/><path id="Fill 3230" fill-rule="evenodd" clip-rule="evenodd" d="M175.452 145.434C175.459 145.496 175.479 145.548 175.548 145.566C175.546 145.5 175.511 145.458 175.452 145.434" fill="#FFD9F4" blush:i="0.0.238"/><path id="Fill 3232" fill-rule="evenodd" clip-rule="evenodd" d="M136 134.283C136.254 136.624 137.495 138.552 136.601 135.194C137.632 133.359 140.687 131.491 137.772 130.34C135.766 129.056 139.182 131.64 136 134.283" fill="#FFD9F4" blush:i="0.0.239"/><path id="Fill 3234" fill-rule="evenodd" clip-rule="evenodd" d="M136.073 134C138.707 132.349 134.879 129.187 135.003 132.354C135.894 132.142 136.015 133.266 136.073 134" fill="#FFD9F4" blush:i="0.0.240"/><path id="Fill 3236" fill-rule="evenodd" clip-rule="evenodd" d="M135.297 131C137.582 130.153 133.55 126.517 133.744 126.343C131.543 124.645 134.885 129.739 135.297 131" fill="#FFD9F4" blush:i="0.0.241"/><path id="Fill 3238" fill-rule="evenodd" clip-rule="evenodd" d="M136.494 138.016C135.505 137.73 136.347 141.389 136.902 139.41C137.078 139.023 136.85 138.441 136.494 138.016" fill="#FFD9F4" blush:i="0.0.242"/><path id="Fill 3240" fill-rule="evenodd" clip-rule="evenodd" d="M123.005 121.175C122.916 121.615 124.094 122.227 123.994 121.456C123.653 121.439 123.331 121.287 123.005 121.175" fill="#FFD9F4" blush:i="0.0.243"/><path id="Fill 3242" fill-rule="evenodd" clip-rule="evenodd" d="M135.535 131.534L135.465 131.467L135.535 131.534Z" fill="#FFD9F4" blush:i="0.0.244"/><path id="Fill 3244" fill-rule="evenodd" clip-rule="evenodd" d="M141.372 113C136.075 116.178 131.316 117.274 139.095 119.53C141.235 121.235 139.513 117.766 141.412 117.568C143.662 118.48 143.405 113.823 141.372 113" fill="#FFD9F4" blush:i="0.0.245"/><path id="Fill 3246" fill-rule="evenodd" clip-rule="evenodd" d="M137 130.543C137.785 132.91 144.046 134.296 141.315 131.252C137.47 133.138 139.123 123.66 137 130.543" fill="#FFD9F4" blush:i="0.0.246"/><path id="Fill 3248" fill-rule="evenodd" clip-rule="evenodd" d="M151.024 132.179C150.631 134.139 155.263 134.846 154.988 132.631C153.375 132.021 152.167 129.568 151.024 132.179" fill="#FFD9F4" blush:i="0.0.247"/><path id="Fill 3250" fill-rule="evenodd" clip-rule="evenodd" d="M158.121 113.942C157.91 112.932 158.367 112.695 159 112.622C157.551 108.047 153.563 114.68 158.121 113.942" fill="#FFD9F4" blush:i="0.0.248"/><path id="Fill 3252" fill-rule="evenodd" clip-rule="evenodd" d="M141.264 128C142.437 127.494 142.072 125.637 141.12 125.008C139.449 124.819 139.774 127.883 141.264 128" fill="#FFD9F4" blush:i="0.0.249"/><path id="Fill 3254" fill-rule="evenodd" clip-rule="evenodd" d="M139.986 122.997C143.512 121.436 136.576 119.786 138.272 122.282C139.061 122.27 139.02 123.053 139.986 122.997" fill="#FFD9F4" blush:i="0.0.250"/><path id="Fill 3256" fill-rule="evenodd" clip-rule="evenodd" d="M160.734 133.336C159.809 133.763 156.783 131.994 158.536 133.914C157.809 135.963 162.086 134.732 160.734 133.336" fill="#FFD9F4" blush:i="0.0.251"/><path id="Fill 3258" fill-rule="evenodd" clip-rule="evenodd" d="M150.262 136C151.453 135.391 151.163 132.89 149.676 133.004C148.77 133.37 148.602 135.939 150.262 136" fill="#FFD9F4" blush:i="0.0.252"/><path id="Fill 3260" fill-rule="evenodd" clip-rule="evenodd" d="M151.583 119.082C150.482 118.588 149.608 120.44 150.181 121.536C151.691 122.986 152.568 120.719 151.583 119.082" fill="#FFD9F4" blush:i="0.0.253"/><path id="Fill 3262" fill-rule="evenodd" clip-rule="evenodd" d="M157.684 130.002C156.696 129.952 155.521 130.945 156.203 131.881C157.469 132.43 158.559 130.948 157.684 130.002" fill="#FFD9F4" blush:i="0.0.254"/><path id="Fill 3264" fill-rule="evenodd" clip-rule="evenodd" d="M142.255 117.91C143.829 118.397 144.687 116.785 143.311 116.116C141.609 115.558 141.939 117.157 142.255 117.91" fill="#FFD9F4" blush:i="0.0.255"/><path id="Fill 3266" fill-rule="evenodd" clip-rule="evenodd" d="M148.511 131.468C148.436 131.455 148.501 131.593 148.523 131.502C148.525 131.492 148.515 131.48 148.511 131.468" fill="#FFD9F4" blush:i="0.0.256"/><path id="Fill 3268" fill-rule="evenodd" clip-rule="evenodd" d="M144.489 130.503C144.515 130.488 144.519 130.488 144.494 130.507L144.489 130.503Z" fill="#FFD9F4" blush:i="0.0.257"/><path id="Fill 3270" fill-rule="evenodd" clip-rule="evenodd" d="M134.117 127C134.168 126.575 134.849 126.568 135 126.048C134.742 125.748 133.643 126.951 134.117 127" fill="#FFD9F4" blush:i="0.0.258"/><path id="Fill 3272" fill-rule="evenodd" clip-rule="evenodd" d="M132.589 119.691C132.608 119.539 132.615 119.39 132.443 119.309C132.376 119.481 132.366 119.63 132.589 119.691" fill="#FFD9F4" blush:i="0.0.259"/><path id="Fill 3274" fill-rule="evenodd" clip-rule="evenodd" d="M160.983 122C161.229 120.721 158.738 120.659 159.023 121.871C159.696 121.376 160.36 121.544 160.983 122" fill="#FFD9F4" blush:i="0.0.260"/><path id="Fill 3276" fill-rule="evenodd" clip-rule="evenodd" d="M160.317 120.771C162.005 121.968 160.162 118.019 159.101 119.236C158.579 119.466 160.246 120.088 160.317 120.771" fill="#FFD9F4" blush:i="0.0.261"/><path id="Fill 3278" fill-rule="evenodd" clip-rule="evenodd" d="M158.45 122.824C158.649 122.613 158.683 122.398 158.469 122.176C158.281 122.387 158.469 122.608 158.45 122.824" fill="#FFD9F4" blush:i="0.0.262"/><path id="Fill 3280" fill-rule="evenodd" clip-rule="evenodd" d="M159.414 122.592C159.521 122.579 159.603 122.539 159.603 122.413C159.497 122.377 159.346 122.512 159.414 122.592" fill="#FFD9F4" blush:i="0.0.263"/><path id="Fill 3282" fill-rule="evenodd" clip-rule="evenodd" d="M158.529 122.553C158.53 122.518 158.531 122.483 158.532 122.447C158.499 122.482 158.406 122.514 158.529 122.553" fill="#FFD9F4" blush:i="0.0.264"/><path id="Fill 3284" fill-rule="evenodd" clip-rule="evenodd" d="M160 138.399C159.224 137.885 158.76 137.669 159.129 139C159.296 139.011 159.83 138.54 160 138.399" fill="#FFD9F4" blush:i="0.0.265"/><path id="Fill 3286" fill-rule="evenodd" clip-rule="evenodd" d="M157.083 140.025C156.699 141.097 157.758 141.308 158 140.416C157.659 140.518 157.387 140.169 157.083 140.025" fill="#FFD9F4" blush:i="0.0.266"/><path id="Fill 3288" fill-rule="evenodd" clip-rule="evenodd" d="M161 133.289C161.707 138.707 161.512 129.045 164.634 134.337C166.294 132.529 161.822 130.692 161 133.289" fill="#FFD9F4" blush:i="0.0.267"/><path id="Fill 3290" fill-rule="evenodd" clip-rule="evenodd" d="M163.601 138.934C165.122 139.572 165.597 135.376 164.04 136.08C162.9 136.314 162.614 138.66 163.601 138.934" fill="#FFD9F4" blush:i="0.0.268"/><path id="Fill 3292" fill-rule="evenodd" clip-rule="evenodd" d="M163.556 138.537C163.565 138.487 163.543 138.45 163.494 138.454C163.382 138.487 163.473 138.572 163.556 138.537" fill="#FFD9F4" blush:i="0.0.269"/><path id="Fill 3294" fill-rule="evenodd" clip-rule="evenodd" d="M137.881 135C136.7 135.445 136.891 137.041 137.386 137.893C139.248 138.655 139.612 135.093 137.881 135" fill="#FFD9F4" blush:i="0.0.270"/><path id="Fill 3296" fill-rule="evenodd" clip-rule="evenodd" d="M140.818 134.985C141.48 135.198 140.027 133.069 141 132.686C140.696 130.484 139.024 134.219 140.818 134.985" fill="#FFD9F4" blush:i="0.0.271"/><path id="Fill 3298" fill-rule="evenodd" clip-rule="evenodd" d="M169.415 147.596C169.519 147.599 169.632 147.512 169.565 147.403C169.466 147.425 169.455 147.529 169.415 147.596" fill="#FFD9F4" blush:i="0.0.272"/><path id="Fill 3300" fill-rule="evenodd" clip-rule="evenodd" d="M160 144C159.646 144.025 158.864 144.525 159.02 145C159.396 144.735 159.87 144.603 160 144" fill="#FFD9F4" blush:i="0.0.273"/><path id="Fill 3302" fill-rule="evenodd" clip-rule="evenodd" d="M152.544 154.484C152.514 154.479 152.485 154.479 152.456 154.485C152.486 154.533 152.515 154.529 152.544 154.484" fill="#FFD9F4" blush:i="0.0.274"/><path id="Fill 3304" fill-rule="evenodd" clip-rule="evenodd" d="M147.497 126.472C147.472 126.494 147.474 126.51 147.503 126.527C147.528 126.504 147.526 126.488 147.497 126.472" fill="#FFD9F4" blush:i="0.0.275"/><path id="Fill 3306" fill-rule="evenodd" clip-rule="evenodd" d="M163.492 131.473C163.479 131.539 163.484 131.549 163.514 131.484L163.492 131.473Z" fill="#FFD9F4" blush:i="0.0.276"/><path id="Fill 3308" fill-rule="evenodd" clip-rule="evenodd" d="M162.493 148.486C162.491 148.488 162.493 148.486 162.493 148.486C162.512 148.522 162.512 148.525 162.493 148.486" fill="#FFD9F4" blush:i="0.0.277"/><path id="Fill 3310" fill-rule="evenodd" clip-rule="evenodd" d="M185.486 115.507C185.487 115.509 185.486 115.507 185.486 115.507C185.523 115.488 185.525 115.487 185.486 115.507" fill="#FFD9F4" blush:i="0.0.278"/><path id="Fill 3312" fill-rule="evenodd" clip-rule="evenodd" d="M185.514 115.493C185.513 115.491 185.514 115.493 185.514 115.493C185.476 115.514 185.475 115.514 185.514 115.493" fill="#FFD9F4" blush:i="0.0.279"/><path id="Fill 3314" fill-rule="evenodd" clip-rule="evenodd" d="M191.514 140.493C191.513 140.491 191.514 140.493 191.514 140.493C191.477 140.513 191.475 140.513 191.514 140.493" fill="#FFD9F4" blush:i="0.0.280"/><path id="Fill 3316" fill-rule="evenodd" clip-rule="evenodd" d="M191.486 140.507C191.487 140.509 191.486 140.507 191.486 140.507C191.522 140.486 191.523 140.486 191.486 140.507" fill="#FFD9F4" blush:i="0.0.281"/><path id="Fill 3318" fill-rule="evenodd" clip-rule="evenodd" d="M165.489 155.517C165.527 155.474 165.525 155.472 165.484 155.511L165.489 155.517Z" fill="#FFD9F4" blush:i="0.0.282"/><path id="Fill 3320" fill-rule="evenodd" clip-rule="evenodd" d="M153.486 139.508C153.484 139.506 153.486 139.508 153.486 139.508C153.525 139.486 153.523 139.486 153.486 139.508" fill="#FFD9F4" blush:i="0.0.283"/><path id="Fill 3322" fill-rule="evenodd" clip-rule="evenodd" d="M159.48 158.52C159.493 158.506 159.506 158.494 159.519 158.481C159.495 158.479 159.484 158.499 159.48 158.52" fill="#FFD9F4" blush:i="0.0.284"/><path id="Fill 3324" fill-rule="evenodd" clip-rule="evenodd" d="M175.618 149.45C175.532 149.478 175.42 149.4 175.355 149.516C175.455 149.53 175.729 149.617 175.618 149.45" fill="#FFD9F4" blush:i="0.0.285"/><path id="Fill 3326" fill-rule="evenodd" clip-rule="evenodd" d="M146.451 171.567C146.646 171.541 146.59 171.45 146.469 171.433C146.385 171.44 146.433 171.54 146.451 171.567" fill="#FFD9F4" blush:i="0.0.286"/><path id="Fill 3328" fill-rule="evenodd" clip-rule="evenodd" d="M161.874 134C162.138 133.191 163.288 133.463 162.933 132.54C162.251 130.886 159.668 133.514 161.874 134" fill="#FFD9F4" blush:i="0.0.287"/><path id="Fill 3330" fill-rule="evenodd" clip-rule="evenodd" d="M160.56 134.482C160.46 134.399 160.464 134.501 160.439 134.549C160.479 134.527 160.52 134.504 160.56 134.482" fill="#FFD9F4" blush:i="0.0.288"/><path id="Fill 3332" fill-rule="evenodd" clip-rule="evenodd" d="M160.538 134.48C160.513 134.489 160.487 134.49 160.462 134.482C160.488 134.516 160.515 134.547 160.538 134.48" fill="#FFD9F4" blush:i="0.0.289"/><path id="Fill 3334" fill-rule="evenodd" clip-rule="evenodd" d="M147.561 148.464C147.52 148.475 147.48 148.485 147.439 148.495C147.509 148.589 147.527 148.492 147.561 148.464" fill="#FFD9F4" blush:i="0.0.290"/><path id="Fill 3336" fill-rule="evenodd" clip-rule="evenodd" d="M141.521 153.578C141.662 153.522 141.607 153.405 141.482 153.424C141.315 153.451 141.427 153.504 141.521 153.578" fill="#FFD9F4" blush:i="0.0.291"/><path id="Fill 3338" fill-rule="evenodd" clip-rule="evenodd" d="M146.61 140.42C146.531 140.433 146.43 140.395 146.389 140.498C146.436 140.653 146.628 140.565 146.61 140.42" fill="#FFD9F4" blush:i="0.0.292"/><path id="Fill 3340" fill-rule="evenodd" clip-rule="evenodd" d="M198.678 139.315C198.462 139.339 198.348 139.465 198.322 139.677C198.622 139.736 198.593 139.469 198.678 139.315" fill="#FFD9F4" blush:i="0.0.293"/><path id="Fill 3342" fill-rule="evenodd" clip-rule="evenodd" d="M176.494 148.475C176.515 148.486 176.505 148.48 176.494 148.475C176.49 148.529 176.499 148.554 176.494 148.475" fill="#FFD9F4" blush:i="0.0.294"/><path id="Fill 3344" fill-rule="evenodd" clip-rule="evenodd" d="M157.504 122.479C157.466 122.528 157.472 122.534 157.521 122.497L157.504 122.479Z" fill="#FFD9F4" blush:i="0.0.295"/><path id="Fill 3346" fill-rule="evenodd" clip-rule="evenodd" d="M152.468 153.543C152.563 153.669 152.55 153.327 152.47 153.459C152.461 153.484 152.469 153.515 152.468 153.543" fill="#FFD9F4" blush:i="0.0.296"/><path id="Fill 3348" fill-rule="evenodd" clip-rule="evenodd" d="M169.456 155.544C169.486 155.515 169.515 155.485 169.544 155.456C169.515 155.485 169.486 155.515 169.456 155.544" fill="#FFD9F4" blush:i="0.0.297"/><path id="Fill 3350" fill-rule="evenodd" clip-rule="evenodd" d="M175.558 144.633C174.06 143.532 176.632 142.544 176.909 141.434C177.526 139.71 174.81 139.413 174.439 141.246C172.076 143.319 174.448 144.056 173.659 145.596C169.167 146.394 175.178 151.109 175.558 144.633" fill="white" blush:i="0.0.298"/><path id="Fill 3352" fill-rule="evenodd" clip-rule="evenodd" d="M157.399 137C153.189 139.372 159.76 139.542 160.428 144C164.575 142.013 159.436 137.895 157.399 137" fill="white" blush:i="0.0.299"/><path id="Fill 3354" fill-rule="evenodd" clip-rule="evenodd" d="M168.828 138.787C167.114 136.845 161.502 138.765 163.379 141.63C164.209 142.741 165.404 141.087 165.499 140.13C166.453 140.958 169.789 141.828 168.828 138.787" fill="white" blush:i="0.0.300"/><path id="Fill 3356" fill-rule="evenodd" clip-rule="evenodd" d="M160.857 146.374C161.73 148.695 165.6 148.753 163.257 145.09C162.423 144.473 161.56 145.891 161.172 145.757C160.488 141.727 156.84 145.813 160.857 146.374" fill="white" blush:i="0.0.301"/><path id="Fill 3358" fill-rule="evenodd" clip-rule="evenodd" d="M176 138.515C175.243 136.027 172.978 137.206 171 137.849C171.579 139.441 175.902 141.418 176 138.515" fill="white" blush:i="0.0.302"/><path id="Fill 3360" fill-rule="evenodd" clip-rule="evenodd" d="M152.089 129.827C155.249 131.119 154.018 124.699 151.793 126.241C150.432 126.922 151.018 129.092 152.089 129.827" fill="white" blush:i="0.0.303"/><path id="Fill 3362" fill-rule="evenodd" clip-rule="evenodd" d="M168 142.033C169.106 142.087 170.136 143.573 171.607 142.755C173.478 140.053 168.063 138.545 168 142.033" fill="white" blush:i="0.0.304"/><path id="Fill 3364" fill-rule="evenodd" clip-rule="evenodd" d="M158.202 130.749C160.01 129.972 158.402 127.141 156.769 128.257C154.941 129.014 156.761 131.85 158.202 130.749" fill="white" blush:i="0.0.305"/><path id="Fill 3366" fill-rule="evenodd" clip-rule="evenodd" d="M169 150.077C169.371 150.658 169.302 151.324 169.944 151.811C173.756 153.188 171.569 146.472 169 150.077" fill="white" blush:i="0.0.306"/><path id="Fill 3368" fill-rule="evenodd" clip-rule="evenodd" d="M159.194 122.652C158.38 124.035 160.313 125.845 161.538 124.562C163.11 123.379 160.252 120.794 159.194 122.652" fill="white" blush:i="0.0.307"/><path id="Fill 3370" fill-rule="evenodd" clip-rule="evenodd" d="M177.06 168.158C176.482 170.509 180.307 170.664 179.948 168.31C180.457 166.484 177.079 166.694 177.06 168.158" fill="white" blush:i="0.0.308"/><path id="Fill 3372" fill-rule="evenodd" clip-rule="evenodd" d="M164.773 111.266C162.781 110.429 161.579 111.704 161 113.194C162.704 114.614 165.873 114.269 164.773 111.266" fill="white" blush:i="0.0.309"/><path id="Fill 3374" fill-rule="evenodd" clip-rule="evenodd" d="M163.017 124.036C162.729 126.372 166.156 126.781 165.994 124.409C165.526 122.898 163.574 122.352 163.017 124.036" fill="white" blush:i="0.0.310"/><path id="Fill 3376" fill-rule="evenodd" clip-rule="evenodd" d="M151.244 155.104C149.843 155.966 148.978 158.888 152.3 157.734C153.696 157.399 152.828 154.412 151.244 155.104" fill="white" blush:i="0.0.311"/><path id="Fill 3378" fill-rule="evenodd" clip-rule="evenodd" d="M147.063 127.187C149.262 129.897 151.835 124.935 148.125 125.259C147.378 124.3 146.804 126.244 147.063 127.187" fill="white" blush:i="0.0.312"/><path id="Fill 3380" fill-rule="evenodd" clip-rule="evenodd" d="M170.541 133.002C167.953 132.903 168.992 136.768 170.966 135.862C172.846 135.141 171.83 133.839 170.541 133.002" fill="white" blush:i="0.0.313"/><path id="Fill 3382" fill-rule="evenodd" clip-rule="evenodd" d="M169.668 115C171.181 114.778 171.647 111.698 169.776 112.024C167.418 112.232 167.434 114.713 169.668 115" fill="white" blush:i="0.0.314"/><path id="Fill 3384" fill-rule="evenodd" clip-rule="evenodd" d="M177.179 133.731C176.145 136.401 179.922 136.907 180 134.21C179.437 133.001 178.016 132.455 177.179 133.731" fill="white" blush:i="0.0.315"/><path id="Fill 3386" fill-rule="evenodd" clip-rule="evenodd" d="M170.115 126.643C171.524 125.593 171.286 123.663 169.147 124.051C167.029 125.162 168.135 127.992 170.115 126.643" fill="white" blush:i="0.0.316"/><path id="Fill 3388" fill-rule="evenodd" clip-rule="evenodd" d="M184.99 143.937C185.186 141.789 182.31 141.306 182 143.103C182.119 144.876 184.602 145.892 184.99 143.937" fill="white" blush:i="0.0.317"/><path id="Fill 3390" fill-rule="evenodd" clip-rule="evenodd" d="M151.334 123.808C152.205 122.796 152.527 120.923 150.364 121.002C148.06 121.277 148.871 124.857 151.334 123.808" fill="white" blush:i="0.0.318"/><path id="Fill 3392" fill-rule="evenodd" clip-rule="evenodd" d="M192.734 151.987C194.432 151.909 194.358 149.483 192.895 149C190.856 149.123 189.989 152.225 192.734 151.987" fill="white" blush:i="0.0.319"/><path id="Fill 3394" fill-rule="evenodd" clip-rule="evenodd" d="M164.001 134.382C164.564 136.088 167.225 136.373 166.985 135.574C167.146 133.416 163.94 131.676 164.001 134.382" fill="white" blush:i="0.0.320"/><path id="Fill 3396" fill-rule="evenodd" clip-rule="evenodd" d="M170.104 119.745C169.495 121.583 171.71 122.758 172.962 121.433C173.327 120.008 170.956 117.847 170.104 119.745" fill="white" blush:i="0.0.321"/><path id="Fill 3398" fill-rule="evenodd" clip-rule="evenodd" d="M182.85 138.128C182.034 136.079 179.386 137.112 180.13 138.919C180.716 140.848 183.696 139.953 182.85 138.128" fill="white" blush:i="0.0.322"/><path id="Fill 3400" fill-rule="evenodd" clip-rule="evenodd" d="M161.288 129C163.962 128.832 163.273 124.725 160.813 126.401C159.432 127.132 159.957 128.739 161.288 129" fill="white" blush:i="0.0.323"/><path id="Fill 3402" fill-rule="evenodd" clip-rule="evenodd" d="M155.285 118.681C154.572 119.512 155.306 120.45 156.281 121C159.554 121.017 157.544 116.276 155.285 118.681" fill="white" blush:i="0.0.324"/><path id="Fill 3404" fill-rule="evenodd" clip-rule="evenodd" d="M165 130.382C164.446 128.145 163.015 129.17 162.026 129.704C161.711 132.287 164.338 132.933 165 130.382" fill="white" blush:i="0.0.325"/><path id="Fill 3406" fill-rule="evenodd" clip-rule="evenodd" d="M148 148.301C148.032 150.077 150.171 150.703 150.958 148.994C151.391 146.9 148.342 146.125 148 148.301" fill="white" blush:i="0.0.326"/><path id="Fill 3408" fill-rule="evenodd" clip-rule="evenodd" d="M180.093 141.292C177.66 139.976 177.314 143.51 179.234 143.99C181.246 144.15 181.548 142.295 180.093 141.292" fill="white" blush:i="0.0.327"/><path id="Fill 3410" fill-rule="evenodd" clip-rule="evenodd" d="M168.225 146.711C170.264 145.558 167.807 142.893 166.288 144.504C165.284 145.616 167.142 147.781 168.225 146.711" fill="white" blush:i="0.0.328"/><path id="Fill 3412" fill-rule="evenodd" clip-rule="evenodd" d="M159.646 156C164.579 151.261 154.008 153.019 159.773 155.272C160.246 155.317 159.317 155.693 159.646 156" fill="white" blush:i="0.0.329"/><path id="Fill 3414" fill-rule="evenodd" clip-rule="evenodd" d="M144.662 137.235C142.858 139.218 145.118 141.092 146.952 139.241C147.296 138.186 145.72 136.347 144.662 137.235" fill="white" blush:i="0.0.330"/><path id="Fill 3416" fill-rule="evenodd" clip-rule="evenodd" d="M163.997 158.29C164.14 155.972 159.327 157.179 161.62 158.779C162.135 159.179 164.044 159.047 163.997 158.29" fill="white" blush:i="0.0.331"/><path id="Fill 3418" fill-rule="evenodd" clip-rule="evenodd" d="M143.745 141.277C142.611 140.138 141.259 142.815 142.485 143.792C143.554 144.658 144.459 142.627 143.745 141.277" fill="white" blush:i="0.0.332"/><path id="Fill 3420" fill-rule="evenodd" clip-rule="evenodd" d="M158 118.623C158.947 120.728 161.437 120.401 160.934 117.769C159.483 116.464 158.578 116.867 158 118.623" fill="white" blush:i="0.0.333"/><path id="Fill 3422" fill-rule="evenodd" clip-rule="evenodd" d="M175 134.268C175.081 136.158 176.471 136.733 176.98 134.815C177.229 133.077 175.094 132.046 175 134.268" fill="white" blush:i="0.0.334"/><path id="Fill 3424" fill-rule="evenodd" clip-rule="evenodd" d="M149 138.493C149.242 141.43 153.236 139.515 151.614 137.483C150.567 136.271 149.548 137.618 149 138.493" fill="white" blush:i="0.0.335"/><path id="Fill 3426" fill-rule="evenodd" clip-rule="evenodd" d="M168.794 130.847C167.649 129.378 166.573 129.838 167.171 132.086C167.516 134.087 169.665 132.402 168.794 130.847" fill="white" blush:i="0.0.336"/><path id="Fill 3428" fill-rule="evenodd" clip-rule="evenodd" d="M155 135.771C153.935 134.411 151.945 135.072 152.001 136.053C153.265 137.397 154.076 137.317 155 135.771" fill="white" blush:i="0.0.337"/><path id="Fill 3430" fill-rule="evenodd" clip-rule="evenodd" d="M129 155.925C129.171 157.247 131.742 157.396 132 156.113C131.571 154.802 129.401 154.537 129 155.925" fill="white" blush:i="0.0.338"/><path id="Fill 3432" fill-rule="evenodd" clip-rule="evenodd" d="M166.124 151C167.513 150.171 167.166 148.533 165.676 148C164.88 149.486 164.521 150.498 166.124 151" fill="white" blush:i="0.0.339"/><path id="Fill 3434" fill-rule="evenodd" clip-rule="evenodd" d="M165.112 154.338C165.547 155.352 166.683 155.116 166.993 154.203C167.156 152.529 164.421 152.628 165.112 154.338" fill="white" blush:i="0.0.340"/><path id="Fill 3436" fill-rule="evenodd" clip-rule="evenodd" d="M188.088 157.978C189.597 158.091 189.062 155.543 187.725 156.073C186.572 156.199 186.868 158.234 188.088 157.978" fill="white" blush:i="0.0.341"/><path id="Fill 3438" fill-rule="evenodd" clip-rule="evenodd" d="M134 147.669C133.754 146.316 133.018 143.631 132.132 145.844C131.485 147.025 133.394 148.724 134 147.669" fill="white" blush:i="0.0.342"/><path id="Fill 3440" fill-rule="evenodd" clip-rule="evenodd" d="M161 113.434C159.489 112.573 158.386 112.981 159.38 114.761C160.35 115.624 160.657 113.905 161 113.434" fill="white" blush:i="0.0.343"/><path id="Fill 3442" fill-rule="evenodd" clip-rule="evenodd" d="M155.252 122.449C154.734 123.563 154.998 124.305 156.201 123.877C157.964 123.437 156.428 121.015 155.252 122.449" fill="white" blush:i="0.0.344"/><path id="Fill 3444" fill-rule="evenodd" clip-rule="evenodd" d="M147.288 113C147.986 112.418 148.419 111.534 147.381 111C145.724 110.985 145.399 113.029 147.288 113" fill="white" blush:i="0.0.345"/><path id="Fill 3446" fill-rule="evenodd" clip-rule="evenodd" d="M154.508 140.902C155.886 141.389 156.158 139.946 155.926 139.106C154.996 138.549 153.089 140.341 154.508 140.902" fill="white" blush:i="0.0.346"/><path id="Fill 3448" fill-rule="evenodd" clip-rule="evenodd" d="M183.021 110.844C182.767 112.524 184.855 112.24 185 110.844C184.737 109.642 183.48 109.798 183.021 110.844" fill="white" blush:i="0.0.347"/><path id="Fill 3450" fill-rule="evenodd" clip-rule="evenodd" d="M162.882 162.012C162.226 162.102 161.759 162.72 162.133 163.47C163.201 165.304 165.3 161.774 162.882 162.012" fill="white" blush:i="0.0.348"/><path id="Fill 3452" fill-rule="evenodd" clip-rule="evenodd" d="M157.727 142.994C158.813 143.081 158.768 142.193 159 141.399C157.776 140.074 155.98 142.424 157.727 142.994" fill="white" blush:i="0.0.349"/><path id="Fill 3454" fill-rule="evenodd" clip-rule="evenodd" d="M168.898 162.803C168.503 160.769 165.664 163.139 167.77 163.987C168.403 164.098 169.306 163.48 168.898 162.803" fill="white" blush:i="0.0.350"/><path id="Fill 3456" fill-rule="evenodd" clip-rule="evenodd" d="M183.019 110C183.364 109.587 184.623 108.755 184.801 109.943C185.795 109.133 182.731 108.279 183.019 110" fill="white" blush:i="0.0.351"/><path id="Fill 3458" fill-rule="evenodd" clip-rule="evenodd" d="M161.925 140C161.446 140.151 161.345 140.078 161.024 140.512C160.791 141.301 162.355 141.136 161.925 140" fill="white" blush:i="0.0.352"/><path id="Fill 3460" fill-rule="evenodd" clip-rule="evenodd" d="M135.971 134.078C136.089 133.288 135.856 132.15 135.101 132C134.683 132.617 135.675 136.825 135.971 134.078" fill="white" blush:i="0.0.353"/><path id="Fill 3462" fill-rule="evenodd" clip-rule="evenodd" d="M160.992 131.591C160.66 129.295 157.496 129.567 158.069 131.871C158.351 133.521 161.169 133.307 160.992 131.591" fill="white" blush:i="0.0.354"/><path id="Fill 3464" fill-rule="evenodd" clip-rule="evenodd" d="M138.37 128.285C137.378 129.371 138.538 131.035 139.987 130.999C142.361 130.313 140.037 127.024 138.37 128.285" fill="white" blush:i="0.0.355"/><path id="Fill 3466" fill-rule="evenodd" clip-rule="evenodd" d="M147.906 132.777C146.678 130.989 143.908 132.61 145.46 134.385C146.457 135.97 148.455 134.148 147.906 132.777" fill="white" blush:i="0.0.356"/><path id="Fill 3468" fill-rule="evenodd" clip-rule="evenodd" d="M144.992 130.139C145.1 129.248 144.05 128.354 143.259 128C140.22 128.788 143.442 132.707 144.992 130.139" fill="white" blush:i="0.0.357"/><path id="Fill 3470" fill-rule="evenodd" clip-rule="evenodd" d="M155 112.72C154.929 111.907 155.09 111.265 154.233 111.101C151.372 110.123 154.291 116.671 155 112.72" fill="white" blush:i="0.0.358"/><path id="Fill 3472" fill-rule="evenodd" clip-rule="evenodd" d="M149.147 116.242C150.233 118.492 152.124 115.062 150.116 114.607C149.568 112.938 148.639 115.122 149.147 116.242" fill="white" blush:i="0.0.359"/><path id="Fill 3474" fill-rule="evenodd" clip-rule="evenodd" d="M147 123.698C146.218 118.859 141.121 126.017 146.282 124.874C146.623 125.097 146.93 124.01 147 123.698" fill="white" blush:i="0.0.360"/><path id="Fill 3476" fill-rule="evenodd" clip-rule="evenodd" d="M142.567 132.072C139.786 131.361 141.14 136.215 143.274 134.708C144.745 134.239 143.709 132.228 142.567 132.072" fill="white" blush:i="0.0.361"/><path id="Fill 3478" fill-rule="evenodd" clip-rule="evenodd" d="M144.008 126.754C143.79 128.804 148.205 128.062 146.678 126.415C145.615 125.888 144.326 125.728 144.008 126.754" fill="white" blush:i="0.0.362"/><path id="Fill 3480" fill-rule="evenodd" clip-rule="evenodd" d="M135.097 124.021C135.221 125.609 137.127 125.115 136.993 123.613C136.804 121.199 134.506 121.625 135.097 124.021" fill="white" blush:i="0.0.363"/><path id="Fill 3482" fill-rule="evenodd" clip-rule="evenodd" d="M144.14 119.686C143.439 120.986 145.578 121.56 145.903 120.287C146.47 119.02 144.378 118.454 144.14 119.686" fill="white" blush:i="0.0.364"/><path id="Fill 3484" fill-rule="evenodd" clip-rule="evenodd" d="M136.982 118.689C136.698 117.44 134.732 118.06 135.031 119.188C135.365 120.669 137.201 119.895 136.982 118.689" fill="white" blush:i="0.0.365"/><path id="Fill 3486" fill-rule="evenodd" clip-rule="evenodd" d="M163.856 134.389C161.994 132.796 161.157 136.662 163.143 135.899C164.081 135.713 164.126 134.95 163.856 134.389" fill="white" blush:i="0.0.366"/><path id="Fill 3488" fill-rule="evenodd" clip-rule="evenodd" d="M142.808 136.264C141.472 135.834 139.491 135.745 140.12 137.453C141.182 138.611 143.713 137.795 142.808 136.264" fill="white" blush:i="0.0.367"/><path id="Fill 3490" fill-rule="evenodd" clip-rule="evenodd" d="M138.075 134.536C138.928 135.727 140.317 134.429 139.935 132.848C139.183 130.818 137.643 132.857 138.075 134.536" fill="white" blush:i="0.0.368"/><path id="Fill 3492" fill-rule="evenodd" clip-rule="evenodd" d="M137.532 128.322C135.385 127.191 133.938 129.353 135.988 129.976C137.17 130.162 138.819 129.227 137.532 128.322" fill="white" blush:i="0.0.369"/><path id="Fill 3494" fill-rule="evenodd" clip-rule="evenodd" d="M136.516 136.517C136.504 136.506 136.469 136.455 136.489 136.501C136.495 136.51 136.521 136.509 136.516 136.517" fill="#FFD9F4" blush:i="0.0.370"/><path id="Fill 3496" fill-rule="evenodd" clip-rule="evenodd" d="M140.461 112.529C140.49 112.535 140.517 112.528 140.539 112.509C140.491 112.428 140.48 112.492 140.461 112.529" fill="#FFD9F4" blush:i="0.0.371"/><path id="Fill 3498" fill-rule="evenodd" clip-rule="evenodd" d="M142.535 117.552C142.611 117.42 142.49 117.466 142.44 117.448C142.473 117.483 142.504 117.517 142.535 117.552" fill="#FFD9F4" blush:i="0.0.372"/><path id="Fill 3500" fill-rule="evenodd" clip-rule="evenodd" d="M141.182 132.394C141.187 132.751 141.613 132.555 141.818 132.557C141.712 132.386 141.713 132.386 141.182 132.394" fill="#FFD9F4" blush:i="0.0.373"/><path id="Fill 3502" fill-rule="evenodd" clip-rule="evenodd" d="M142.436 132.614C142.564 132.591 142.595 132.502 142.59 132.387C142.412 132.376 142.375 132.462 142.436 132.614" fill="#FFD9F4" blush:i="0.0.374"/><path id="Fill 3504" fill-rule="evenodd" clip-rule="evenodd" d="M153.482 132.493C153.496 132.472 153.489 132.483 153.482 132.493C153.489 132.56 153.558 132.473 153.482 132.493" fill="#FFD9F4" blush:i="0.0.375"/><path id="Fill 3506" fill-rule="evenodd" clip-rule="evenodd" d="M143.494 132.517C143.476 132.5 143.485 132.509 143.494 132.517C143.546 132.507 143.49 132.444 143.494 132.517" fill="#FFD9F4" blush:i="0.0.376"/><path id="Fill 3508" fill-rule="evenodd" clip-rule="evenodd" d="M141.519 134.485C141.508 134.496 141.453 134.532 141.5 134.512C141.509 134.506 141.509 134.474 141.519 134.485" fill="#FFD9F4" blush:i="0.0.377"/><path id="Fill 3510" fill-rule="evenodd" clip-rule="evenodd" d="M57.9478 91.9513C64.2852 91.3724 74.6263 94.1459 77.2194 95.6731C80.4657 98.8072 88.7449 103.115 80.3552 96.6127C78.1434 95.332 76.995 90.6026 74.6105 90.4241C77.3255 98.0109 69.6819 86.7995 66.6846 87.0027C66.3532 88.2109 69.4733 90.0378 69.475 90.516C68.1942 92.448 56.5741 84.1418 61.1581 90.1182C59.7327 91.3671 54.7927 88.0333 55.0759 90.097C55.7833 91.8682 53.2147 91.9389 57.9478 91.9513" fill="#FFEEFF" blush:i="0.0.378"/></g></g></svg>