<svg viewBox="89.53750000000002 25.049132947976886 64.83749999999999 163.9017341040462" fill="none" xmlns="http://www.w3.org/2000/svg" xmlns:xlink="http://www.w3.org/1999/xlink" xmlns:blush="http://design.blush" overflow="visible" width="64.83749999999999px" height="163.9017341040462px"><g id="Master/Stickers/Pink Pearls" blush:has-customizable-colors="true" blush:viewBox="91.38999999999999 26.070438799076214 62.985000000000056 161.8591224018476" blush:i="0"><g id="Group 42 Copy" blush:i="0.0"><path id="Fill 142" fill-rule="evenodd" clip-rule="evenodd" d="M131.033 78.3371C129.515 78.5371 127.837 78.5341 126.165 78.6051C125.22 78.6441 124.261 78.6171 123.314 78.6571C122.165 78.7071 121.019 78.7251 119.878 78.6261C118.518 78.5091 117.128 78.6751 115.801 78.2191C115.732 78.1951 115.654 78.1861 115.58 78.1911C113.921 78.2901 112.334 77.8561 110.738 77.5121C109.749 77.2991 108.724 77.3361 107.749 77.0351C106.924 76.7801 106.053 76.6411 105.269 76.2981C103.392 75.4781 101.699 74.3951 100.648 72.5401C100.575 72.4121 100.602 72.2791 100.585 72.1491C100.517 71.6511 100.548 71.1511 100.535 70.6581C100.496 69.0471 100.51 67.4361 100.483 65.8241C100.454 64.0871 100.335 62.3491 100.369 60.6131C100.385 59.8291 100.333 59.0451 100.385 58.2591C100.43 57.5631 100.232 56.8691 100.346 56.1541C100.375 55.9801 100.061 55.6981 100.002 55.4081C99.9745 55.2681 99.9665 55.0741 100.031 55.0331C100.546 54.7081 100.149 54.2371 100.243 53.8521C100.246 53.8421 100.22 53.8261 100.221 53.8151C100.31 53.1331 99.9535 52.4871 100.053 51.8091C100.092 51.5441 100.228 51.3161 100.269 51.0241C100.405 50.0431 100.158 49.0781 100.26 48.1241C100.323 47.5271 100.227 46.9441 100.25 46.3571C100.275 45.7061 100.276 45.0021 100.017 44.3441C99.8585 43.9381 100.007 43.4951 100.138 43.0921C100.183 42.9551 100.222 42.8471 100.169 42.7181C99.9965 42.3061 100.359 41.8021 99.9495 41.4311C100.234 41.2141 100.04 40.9351 100.065 40.6811C100.082 40.5061 100.053 40.4141 99.9305 40.3081C99.8055 40.1981 99.7985 40.0421 99.8695 39.8971C99.9595 39.7121 100.077 39.5471 99.8195 39.3851C99.7305 39.3291 99.8215 39.2231 99.8805 39.1561C100.139 38.8621 100.344 38.4781 100.845 38.5881C100.957 38.6121 101.032 38.5161 101.122 38.4661C101.486 38.2661 101.841 38.0311 102.293 38.1361C102.358 38.1501 102.468 38.1331 102.5 38.0891C102.759 37.7341 103.102 37.8351 103.432 37.9131C103.557 37.9431 103.668 37.9701 103.77 37.8861C104.55 37.2371 105.521 37.2801 106.441 37.1741C107.705 37.0261 108.976 36.9261 110.244 36.8141C110.733 36.7701 111.224 36.7361 111.715 36.7191C113.541 36.6561 115.366 36.5561 117.194 36.5071C118.373 36.4751 119.555 36.4271 120.731 36.4621C122.454 36.5131 124.18 36.4571 125.898 36.5581C128.01 36.6811 130.128 36.7201 132.233 36.9151C134.037 37.0821 135.845 37.2031 137.641 37.4951C139.299 37.7641 140.951 38.0291 142.598 38.3651C143.557 38.5611 144.463 38.9181 145.423 39.0841C145.891 39.1651 146.203 39.5611 146.569 39.8161C146.822 39.9911 146.594 40.4551 146.534 40.7761C146.345 41.7971 146.203 42.8111 146.27 43.8581C146.319 44.6061 146.2 45.3611 146.2 46.1131C146.201 46.7601 146.006 47.3971 146.184 48.0571C146.317 48.5441 146.187 49.0441 146.091 49.5461C145.958 50.2481 145.87 50.9811 145.991 51.6921C146.047 52.0251 145.837 52.2571 145.846 52.5811C145.866 53.2871 145.929 54.0101 145.782 54.7151C145.677 55.2171 145.842 55.7061 145.783 56.2211C145.646 57.4171 145.588 58.6291 145.608 59.8321C145.62 60.5491 145.461 61.2591 145.529 61.9531C145.591 62.5851 145.485 63.1961 145.491 63.8161C145.498 64.5051 145.419 65.2071 145.359 65.9001C145.332 66.2071 145.331 66.5161 145.317 66.8201C145.258 68.1171 145.237 69.4161 145.211 70.7141C145.2 71.2151 145.057 71.6761 144.84 72.1191C144.768 72.2671 144.705 72.4131 144.664 72.5751C144.609 72.7891 144.56 72.9851 144.343 73.1621C144.186 73.2891 144.083 73.6081 143.986 73.8401C143.82 74.2391 143.553 74.5261 143.215 74.7221C142.974 74.8601 142.783 75.0291 142.588 75.2111C141.493 76.2291 140.189 76.8271 138.735 77.1141C137.629 77.3331 136.526 77.5641 135.415 77.7491C134.375 77.9221 133.328 78.0501 132.282 78.1831C131.913 78.2301 131.568 78.4141 131.033 78.3371" fill="#FECDC7" blush:i="0.0.0"/><path id="Fill 144" fill-rule="evenodd" clip-rule="evenodd" d="M117.947 39.8439C121.172 39.8329 123.92 39.7709 126.667 39.9109C128.514 40.0059 130.363 40.1059 132.193 40.3689C133.855 40.6079 135.514 40.8769 137.161 41.2309C137.968 41.4039 138.798 41.5069 139.606 41.7029C139.726 41.7319 139.927 41.6899 139.904 41.8829C139.886 42.0319 139.705 42.0359 139.57 42.0479C138.338 42.1619 137.108 42.3219 135.873 42.3789C133.488 42.4899 131.104 42.6369 128.715 42.6889C126.418 42.7399 124.123 42.7389 121.826 42.7039C120.322 42.6819 118.814 42.6629 117.315 42.5979C115.634 42.5259 113.949 42.4529 112.272 42.2899C110.819 42.1499 109.367 41.9939 107.915 41.8369C107.515 41.7939 107.117 41.7269 106.719 41.6659C106.652 41.6559 106.554 41.6689 106.542 41.5709C106.53 41.4739 106.627 41.4619 106.688 41.4289C107.24 41.1319 107.868 41.1109 108.461 40.9789C110.31 40.5689 112.188 40.3229 114.072 40.1149C115.52 39.9569 116.967 39.8179 117.947 39.8439" fill="#614135" blush:i="0.0.1"/><path id="Fill 146" fill-rule="evenodd" clip-rule="evenodd" d="M101.247 156.571C101.326 186.9 99.1667 192.041 99.4527 157.532C99.4907 146.36 98.2357 13.7545 100.76 70.0395C101.166 73.7105 99.0687 79.0965 104.542 77.7395C109.329 78.0115 113.929 77.7585 118.447 78.0875C120.835 77.6065 122.828 78.8075 122.095 74.9815C123.142 69.7085 120.672 60.9795 123.312 57.2355C125.376 63.7675 122.197 71.9235 124.283 77.9655C141.737 76.6315 146.929 85.0265 145.563 62.6755C148.136 20.8615 146.599 164.395 146.16 172.407C146.342 172.43 146.462 172.311 146.595 172.206C146.757 191.609 144.049 179.494 145.03 169.547C144.676 142.741 144.896 114.447 145.059 87.0665C145.766 80.8595 134.872 85.1165 130.666 83.9225C129.318 83.7325 127.307 83.6865 126.311 83.9675C125.247 83.7745 123.55 83.0905 123.605 84.6925C123.54 118.217 123.435 151.973 123.257 185.313C119.833 196.509 121.595 168.312 121.448 165.393C121.416 147.55 121.328 106.644 121.65 103.265C121.896 100.698 122.166 89.4825 120.333 84.5345C120.333 84.5345 117.848 83.4785 116.274 83.5815C114.026 84.8205 100.536 81.7345 101.012 84.9255C101.011 108.854 101.137 132.583 101.247 156.571" fill="#5C3E31" blush:i="0.0.2"/><path id="Fill 148" fill-rule="evenodd" clip-rule="evenodd" d="M151.205 73.3547C151.124 75.9267 148.528 74.1257 147.264 74.1227C145.143 71.5507 150.713 71.6577 151.205 73.3547" fill="#FEBEBA" blush:i="0.0.3"/><path id="Fill 150" fill-rule="evenodd" clip-rule="evenodd" d="M137.205 41.6652C136.211 44.2922 134.237 40.7102 132.644 40.4352C131.685 36.5012 137.655 39.5002 137.205 41.6652" fill="#E5C1AF" blush:i="0.0.4"/><path id="Fill 152" fill-rule="evenodd" clip-rule="evenodd" d="M115.98 80.0334C116.094 78.7494 114.847 81.1414 113.908 79.8654C113.379 79.2254 113.434 77.3664 114.638 77.7054C115.485 77.3364 115.466 79.0594 115.941 78.3814C118.404 76.9724 118.858 82.1134 115.98 80.0334" fill="#FEBEBA" blush:i="0.0.5"/><path id="Fill 154" fill-rule="evenodd" clip-rule="evenodd" d="M117.699 66.7336C114.72 68.0976 115.581 64.2816 117.697 63.6796C120.798 64.1986 118.57 65.6206 117.699 66.7336" fill="#E5C1AF" blush:i="0.0.6"/><path id="Fill 156" fill-rule="evenodd" clip-rule="evenodd" d="M116.898 41.9123C117.928 42.5293 121.349 46.2033 118.591 46.3273C117.783 45.0823 113.782 41.8093 116.898 41.9123" fill="#E4BFAC" blush:i="0.0.7"/><path id="Fill 158" fill-rule="evenodd" clip-rule="evenodd" d="M99.366 41.1945C101.843 39.1535 100.756 42.9505 103.238 41.9995C105.071 43.0225 102.013 46.5595 101.568 42.9395C101.733 42.6855 98.358 43.3145 99.366 41.1945" fill="#E4BFAC" blush:i="0.0.8"/><path id="Fill 160" fill-rule="evenodd" clip-rule="evenodd" d="M102.245 52.3537C101.817 57.1647 97.1145 51.3747 100.908 50.8017C101.794 50.5047 102.247 51.6797 102.245 52.3537" fill="#E4BFAC" blush:i="0.0.9"/><path id="Fill 162" fill-rule="evenodd" clip-rule="evenodd" d="M115.98 80.0334C117.604 80.5124 118.98 80.6794 119.759 82.3134C119.185 84.0024 114.227 81.6144 115.98 80.0334" fill="#E4BFAC" blush:i="0.0.10"/><path id="Fill 164" fill-rule="evenodd" clip-rule="evenodd" d="M100.088 62.8801C100.078 59.9581 104.113 61.7181 102.493 63.9671C101.91 65.1931 99.7697 64.0821 100.088 62.8801" fill="#E5C1AF" blush:i="0.0.11"/><path id="Fill 166" fill-rule="evenodd" clip-rule="evenodd" d="M111.67 30.8107C111.779 32.3137 110.007 31.6497 109.326 31.1417C106.389 29.6857 112.2 27.3897 111.67 30.8107" fill="#E5C1AF" blush:i="0.0.12"/><path id="Fill 168" fill-rule="evenodd" clip-rule="evenodd" d="M133.6 47.5803C132.88 49.0813 131.363 48.8893 130.643 47.5333C130.576 45.0183 133.825 45.1943 133.6 47.5803" fill="#E5C1AF" blush:i="0.0.13"/><path id="Fill 170" fill-rule="evenodd" clip-rule="evenodd" d="M100.531 43.0129C102.614 41.9189 101.256 43.3959 102.385 44.4939C104.229 43.6479 103.422 44.1909 103.024 45.7059C103.796 48.3839 99.2812 47.0829 101.177 45.1769C102.137 44.6719 101.588 42.9369 100.531 43.0129" fill="#E6C3B2" blush:i="0.0.14"/><path id="Fill 172" fill-rule="evenodd" clip-rule="evenodd" d="M100.085 67.2678C99.9695 65.6128 102.826 65.0138 102.76 66.7908C102.942 68.9938 100.256 69.7608 100.085 67.2678" fill="#E4BFAC" blush:i="0.0.15"/><path id="Fill 174" fill-rule="evenodd" clip-rule="evenodd" d="M123.724 43.0451C123.547 44.7081 121.788 45.5091 120.899 43.8651C120.355 41.8571 123.218 40.7751 123.724 43.0451" fill="#E4BFAC" blush:i="0.0.16"/><path id="Fill 176" fill-rule="evenodd" clip-rule="evenodd" d="M100.002 55.7639C102.079 55.4069 102.532 58.3269 100.814 58.7439C99.1743 58.8769 98.1633 55.9859 100.002 55.7639" fill="#E5C1AF" blush:i="0.0.17"/><path id="Fill 178" fill-rule="evenodd" clip-rule="evenodd" d="M117.335 64.1662C116.056 65.5852 114.168 62.5392 115.549 61.6872C117.559 60.2572 118.457 62.8862 117.335 64.1662" fill="#FEBEBA" blush:i="0.0.18"/><path id="Fill 180" fill-rule="evenodd" clip-rule="evenodd" d="M106.018 90.6467C103.828 92.8907 102.595 87.7167 104.907 87.9787C106.368 88.2507 106.317 89.5217 106.018 90.6467" fill="#E5C1AF" blush:i="0.0.19"/><path id="Fill 182" fill-rule="evenodd" clip-rule="evenodd" d="M103.508 84.2951C103.197 82.6411 104.467 81.7951 105.913 82.5841C106.858 84.5571 104.59 86.4931 103.508 84.2951" fill="#E4BFAC" blush:i="0.0.20"/><path id="Fill 184" fill-rule="evenodd" clip-rule="evenodd" d="M102.7 49.8313C102.068 48.8653 103.26 46.6573 104.476 47.3173C106.517 48.2533 104.21 51.6323 102.7 49.8313" fill="#E4BFAC" blush:i="0.0.21"/><path id="Fill 186" fill-rule="evenodd" clip-rule="evenodd" d="M105.72 34.7189C105.891 36.8119 101.977 36.0159 102.817 34.0849C103.453 32.7429 105.737 33.2499 105.72 34.7189" fill="#E4BFAC" blush:i="0.0.22"/><path id="Fill 188" fill-rule="evenodd" clip-rule="evenodd" d="M117.697 61.7443C116.127 61.6143 115.051 58.9463 117.102 58.7063C118.867 58.1753 119.224 61.7563 117.697 61.7443" fill="#E5C1AF" blush:i="0.0.23"/><path id="Fill 190" fill-rule="evenodd" clip-rule="evenodd" d="M115.814 54.1369C115.898 56.3729 113.016 56.9249 113.06 54.5479C113.078 52.7079 115.345 52.7769 115.814 54.1369" fill="#FEBEBA" blush:i="0.0.24"/><path id="Fill 192" fill-rule="evenodd" clip-rule="evenodd" d="M119.604 52.3352C117.861 52.6312 118.188 48.8142 119.771 48.9852C120.744 49.4832 121.352 52.5732 119.604 52.3352" fill="#E5C1AF" blush:i="0.0.25"/><path id="Fill 194" fill-rule="evenodd" clip-rule="evenodd" d="M103.225 38.5803C101.795 41.2583 99.2865 37.0183 101.811 36.4313C102.861 36.1613 103.965 37.7633 103.225 38.5803" fill="#E4BFAC" blush:i="0.0.26"/><path id="Fill 196" fill-rule="evenodd" clip-rule="evenodd" d="M135.487 37.0627C133.445 38.3317 132.142 36.1417 133.984 34.8207C135.684 34.1557 136.555 35.6667 135.487 37.0627" fill="#E4BFAC" blush:i="0.0.27"/><path id="Fill 198" fill-rule="evenodd" clip-rule="evenodd" d="M104.4 80.3986C103.096 80.5396 100.813 83.2306 101.212 79.3136C103.483 78.4076 103.178 78.2266 104.4 80.3986" fill="#E5C1AF" blush:i="0.0.28"/><path id="Fill 200" fill-rule="evenodd" clip-rule="evenodd" d="M112.135 35.9191C113.32 35.6671 113.122 33.9081 114.317 33.8931C116.858 30.4901 114.303 40.2751 112.135 35.9191" fill="#E6C3B2" blush:i="0.0.29"/><path id="Fill 202" fill-rule="evenodd" clip-rule="evenodd" d="M115.906 91.6506C115.284 90.1296 116.66 88.6286 118.038 89.8266C118.52 91.0776 117.012 94.4386 115.906 91.6506" fill="#FEBEBA" blush:i="0.0.30"/><path id="Fill 204" fill-rule="evenodd" clip-rule="evenodd" d="M123.212 38.2375C119.922 37.9735 121.876 33.9105 124.355 35.6755C124.108 36.4975 124.242 38.0055 123.212 38.2375" fill="#FEBEBA" blush:i="0.0.31"/><path id="Fill 206" fill-rule="evenodd" clip-rule="evenodd" d="M99.2741 63.7658C99.2951 65.5248 96.0931 65.6778 96.5351 63.7688C96.4981 62.1608 99.3271 62.1908 99.2741 63.7658" fill="#FEBEBA" blush:i="0.0.32"/><path id="Fill 208" fill-rule="evenodd" clip-rule="evenodd" d="M104.497 39.4035C102.423 36.9505 107.539 35.8405 106.734 38.7195C106.221 39.9245 105.393 39.3575 104.497 39.4035" fill="#E4BFAC" blush:i="0.0.33"/><path id="Fill 210" fill-rule="evenodd" clip-rule="evenodd" d="M118.112 69.4338C118.607 70.9648 117.754 72.0758 116.17 71.8538C115.166 70.2808 116.223 67.9018 118.112 69.4338" fill="#E5C1AF" blush:i="0.0.34"/><path id="Fill 212" fill-rule="evenodd" clip-rule="evenodd" d="M106.013 61.2551C106.835 62.6391 105.046 64.4331 103.883 63.2981C102.923 61.7781 104.473 59.8491 106.013 61.2551" fill="#E4BFAC" blush:i="0.0.35"/><path id="Fill 214" fill-rule="evenodd" clip-rule="evenodd" d="M103.508 84.2951C103.971 85.1641 103.434 86.4111 102.234 86.0601C99.4951 85.8651 101.663 81.8711 103.508 84.2951" fill="#FEBEBA" blush:i="0.0.36"/><path id="Fill 216" fill-rule="evenodd" clip-rule="evenodd" d="M104.497 39.4035C106.246 38.7245 107.093 41.3625 105.638 42.2835C104.403 42.6105 103.248 40.3445 104.497 39.4035" fill="#FEBEBA" blush:i="0.0.37"/><path id="Fill 218" fill-rule="evenodd" clip-rule="evenodd" d="M116.608 86.4162C115.34 85.7132 115.8 83.7282 117.069 83.4862C118.775 83.8512 118.525 87.8662 116.608 86.4162" fill="#FEBEBA" blush:i="0.0.38"/><path id="Fill 220" fill-rule="evenodd" clip-rule="evenodd" d="M132.339 96.8605C131.28 96.8395 132.333 95.1945 131.839 95.0485C128.407 92.1865 135.396 91.9405 132.339 96.8605" fill="#E5C1AF" blush:i="0.0.39"/><path id="Fill 222" fill-rule="evenodd" clip-rule="evenodd" d="M130.653 39.2189C129.351 38.6989 128.526 37.3149 129.981 36.4179C131.839 36.1689 132.587 38.8949 130.653 39.2189" fill="#E4BFAC" blush:i="0.0.40"/><path id="Fill 224" fill-rule="evenodd" clip-rule="evenodd" d="M134.232 53.1682C135.099 53.6262 135.329 55.1592 134.677 55.7732C132.638 57.1612 131.381 51.9472 134.232 53.1682" fill="#E4BFAC" blush:i="0.0.41"/><path id="Fill 226" fill-rule="evenodd" clip-rule="evenodd" d="M96.1303 41.2287C96.4063 39.4847 99.0593 39.7357 98.7963 41.3617C98.7733 42.8627 95.3033 42.8927 96.1303 41.2287" fill="#FEBEBA" blush:i="0.0.42"/><path id="Fill 228" fill-rule="evenodd" clip-rule="evenodd" d="M145.451 84.8381C146.671 85.0861 147.169 86.2671 146.558 87.3971C145.171 88.7941 143.33 85.2251 145.451 84.8381" fill="#E4BFAC" blush:i="0.0.43"/><path id="Fill 230" fill-rule="evenodd" clip-rule="evenodd" d="M134.668 67.1779C136.257 69.2289 133.337 70.7239 132.729 68.3929C132.156 66.9499 134.092 66.4249 134.668 67.1779" fill="#E5C1AF" blush:i="0.0.44"/><path id="Fill 232" fill-rule="evenodd" clip-rule="evenodd" d="M116.441 52.4396C115.113 51.5946 115.518 49.3666 117.298 50.0476C118.892 50.4646 117.88 53.5646 116.441 52.4396" fill="#FEBEBA" blush:i="0.0.45"/><path id="Fill 234" fill-rule="evenodd" clip-rule="evenodd" d="M134.33 77.6916C135.444 77.7036 135.776 78.7706 135.402 79.7036C133.887 81.7596 131.232 77.3226 134.33 77.6916" fill="#FEBEBA" blush:i="0.0.46"/><path id="Fill 236" fill-rule="evenodd" clip-rule="evenodd" d="M132.792 89.4826C134.94 88.6006 135.617 91.9696 133.542 91.9566C132.197 91.9216 132.018 90.3176 132.792 89.4826" fill="#E5C1AF" blush:i="0.0.47"/><path id="Fill 238" fill-rule="evenodd" clip-rule="evenodd" d="M145.912 37.59C143.654 38.008 144.86 34.977 145.39 34.072C147.828 33.606 146.067 36.182 145.912 37.59" fill="#E6C3B2" blush:i="0.0.48"/><path id="Fill 240" fill-rule="evenodd" clip-rule="evenodd" d="M132 51.173C132.743 51.701 132.54 52.964 131.59 53.464C129.032 53.54 129.508 49.618 132 51.173" fill="#E4BFAC" blush:i="0.0.49"/><path id="Fill 242" fill-rule="evenodd" clip-rule="evenodd" d="M101.982 60.0764C101.149 57.5874 105.226 57.8924 104.482 60.2564C103.896 61.2134 102.462 61.0794 101.982 60.0764" fill="#FEBEBA" blush:i="0.0.50"/><path id="Fill 244" fill-rule="evenodd" clip-rule="evenodd" d="M130.653 39.2189C132.038 39.5819 132.978 41.8509 130.885 42.0149C129.246 41.6739 129.166 39.7999 130.653 39.2189" fill="#FEBEBA" blush:i="0.0.51"/><path id="Fill 246" fill-rule="evenodd" clip-rule="evenodd" d="M151.661 50.6438C150.897 49.9708 151.32 48.6198 152.202 48.1078C154.555 48.0058 153.729 52.0348 151.661 50.6438" fill="#FEBEBA" blush:i="0.0.52"/><path id="Fill 248" fill-rule="evenodd" clip-rule="evenodd" d="M134.668 67.1779C133.369 67.4469 132.225 65.1689 133.827 64.5749C135.166 64.1759 136.626 66.1829 134.668 67.1779" fill="#FEBEBA" blush:i="0.0.53"/><path id="Fill 250" fill-rule="evenodd" clip-rule="evenodd" d="M132.881 57.3059C133.486 56.3429 134.716 56.5039 135.298 57.4449C136.058 59.8929 131.701 59.6699 132.881 57.3059" fill="#FEBEBA" blush:i="0.0.54"/><path id="Fill 252" fill-rule="evenodd" clip-rule="evenodd" d="M132.881 57.3059C132.596 58.2489 133.993 60.4859 132.168 59.9939C129.795 59.8079 131.539 55.7919 132.881 57.3059" fill="#E4BFAC" blush:i="0.0.55"/><path id="Fill 254" fill-rule="evenodd" clip-rule="evenodd" d="M104.689 68.1564C103.78 68.1514 103.722 68.0414 103.65 67.0794C103.898 63.4054 108.428 67.8534 104.689 68.1564" fill="#E5C1AF" blush:i="0.0.56"/><path id="Fill 256" fill-rule="evenodd" clip-rule="evenodd" d="M133.246 77.8801C133.295 80.9721 129.287 78.1901 131.45 76.5371C132.374 76.1941 133.61 76.7571 133.246 77.8801" fill="#E4BFAC" blush:i="0.0.57"/><path id="Fill 258" fill-rule="evenodd" clip-rule="evenodd" d="M132.344 69.6057C133.635 69.6337 134.989 70.7817 133.782 71.9447C132.045 72.8617 130.729 70.8177 132.344 69.6057" fill="#E5C1AF" blush:i="0.0.58"/><path id="Fill 260" fill-rule="evenodd" clip-rule="evenodd" d="M118.112 69.4338C117.01 69.5908 116.922 67.2658 117.899 67.0398C120.052 66.7508 120.65 69.9278 118.112 69.4338" fill="#FEBEBA" blush:i="0.0.59"/><path id="Fill 262" fill-rule="evenodd" clip-rule="evenodd" d="M131.702 43.5432C130.452 46.9582 127.002 41.6432 130.685 42.2052C131.04 42.7312 131.536 42.8622 131.702 43.5432" fill="#E5C1AF" blush:i="0.0.60"/><path id="Fill 264" fill-rule="evenodd" clip-rule="evenodd" d="M97.475 47.6555C95.932 48.5775 94.316 46.0395 96.191 45.3565C97.8 45.1345 98.675 46.4245 97.475 47.6555" fill="#FEBEBA" blush:i="0.0.61"/><path id="Fill 266" fill-rule="evenodd" clip-rule="evenodd" d="M118.591 46.3273C120.193 45.7023 121.137 48.6063 119.213 48.7983C117.565 48.5393 116.853 47.2073 118.591 46.3273" fill="#FEBEBA" blush:i="0.0.62"/><path id="Fill 268" fill-rule="evenodd" clip-rule="evenodd" d="M151.658 50.6398C154.488 54.1188 147.986 51.6778 148.775 50.3918C150.056 49.2228 150.646 51.4488 151.658 50.6398" fill="#FEBEBA" blush:i="0.0.63"/><path id="Fill 270" fill-rule="evenodd" clip-rule="evenodd" d="M122.087 35.4787C120.684 36.8817 116.785 35.9267 118.4 34.0927C119.628 33.5987 120.835 35.2487 122.087 35.4787" fill="#E6C3B2" blush:i="0.0.64"/><path id="Fill 272" fill-rule="evenodd" clip-rule="evenodd" d="M116.892 104.937C118.218 105.149 117.844 106.416 117.808 107.406C116.323 109.177 114.306 105.123 116.892 104.937" fill="#E4BFAC" blush:i="0.0.65"/><path id="Fill 274" fill-rule="evenodd" clip-rule="evenodd" d="M150.191 80.7375C150.177 82.0325 149.019 83.1635 147.937 82.2325C146.316 81.1345 149.383 78.9435 150.191 80.7375" fill="#FEBEBA" blush:i="0.0.66"/><path id="Fill 276" fill-rule="evenodd" clip-rule="evenodd" d="M144.445 37.9016C144.258 39.5476 142.996 39.3226 142.035 38.6416C141.337 36.4956 143.826 35.7996 144.445 37.9016" fill="#E5C1AF" blush:i="0.0.67"/><path id="Fill 278" fill-rule="evenodd" clip-rule="evenodd" d="M144.99 81.7297C143.349 82.2457 143.773 79.6777 144.338 79.3597C146.127 78.8977 147.402 81.7447 144.99 81.7297" fill="#E5C1AF" blush:i="0.0.68"/><path id="Fill 280" fill-rule="evenodd" clip-rule="evenodd" d="M120.728 34.7287C119.97 34.3917 118.937 34.2017 119.318 33.1707C120.198 30.7137 123.767 33.8757 120.728 34.7287" fill="#FEBEBA" blush:i="0.0.69"/><path id="Fill 282" fill-rule="evenodd" clip-rule="evenodd" d="M116.375 114.1C115.923 113.5 114.947 111.838 116.441 111.264C118.537 110.862 118.856 114.842 116.375 114.1" fill="#E4BFAC" blush:i="0.0.70"/><path id="Fill 284" fill-rule="evenodd" clip-rule="evenodd" d="M119.952 38.1301C122.425 40.7361 116.353 44.1161 118.396 39.2431C119.353 39.5881 120.461 39.6831 119.952 38.1301" fill="#E6C3B2" blush:i="0.0.71"/><path id="Fill 286" fill-rule="evenodd" clip-rule="evenodd" d="M133.6 47.5803C133.502 45.7113 136.315 45.5683 136.196 47.2993C136.038 48.8943 134.291 48.7883 133.6 47.5803" fill="#FEBEBA" blush:i="0.0.72"/><path id="Fill 288" fill-rule="evenodd" clip-rule="evenodd" d="M98.9463 48.8586C98.8143 48.1306 99.5933 46.6316 100.423 46.9606C102.75 48.1386 100.233 51.3386 98.9463 48.8586" fill="#FEBEBA" blush:i="0.0.73"/><path id="Fill 290" fill-rule="evenodd" clip-rule="evenodd" d="M115.902 73.9211C115.93 72.4091 118.971 72.1511 118.303 73.9101C118.608 75.8471 115.256 75.8281 115.902 73.9211" fill="#FEBEBA" blush:i="0.0.74"/><path id="Fill 292" fill-rule="evenodd" clip-rule="evenodd" d="M123.717 33.5598C123.465 32.0128 124.975 30.5298 125.936 32.3328C126.375 34.0568 124.958 35.0808 123.717 33.5598" fill="#FEBEBA" blush:i="0.0.75"/><path id="Fill 294" fill-rule="evenodd" clip-rule="evenodd" d="M135.388 34.9094C134.977 35.0504 134.543 34.5644 133.983 34.8204C133.212 30.4224 138.949 33.3784 135.388 34.9094" fill="#FEBEBA" blush:i="0.0.76"/><path id="Fill 296" fill-rule="evenodd" clip-rule="evenodd" d="M132.996 61.3986C133.025 59.4326 135.963 60.2766 135.371 61.9466C135.087 63.5256 132.973 62.7446 132.996 61.3986" fill="#E5C1AF" blush:i="0.0.77"/><path id="Fill 298" fill-rule="evenodd" clip-rule="evenodd" d="M147.099 64.048C148.807 63.983 149.021 66.066 147.601 66.669C145.926 66.516 145.558 64.933 147.099 64.048" fill="#E5C1AF" blush:i="0.0.78"/><path id="Fill 300" fill-rule="evenodd" clip-rule="evenodd" d="M133.826 64.5754C132.899 65.4904 132.964 66.5644 131.384 65.5634C130.139 63.4654 133.094 62.6544 133.826 64.5754" fill="#E4BFAC" blush:i="0.0.79"/><path id="Fill 302" fill-rule="evenodd" clip-rule="evenodd" d="M134.553 43.0012C135.805 43.6292 134.472 45.9962 133.182 45.1722C131.859 44.8512 133.042 41.6302 134.553 43.0012" fill="#FEBEBA" blush:i="0.0.80"/><path id="Fill 304" fill-rule="evenodd" clip-rule="evenodd" d="M147.206 100.373C146.467 102.877 143.22 99.2212 145.753 98.5732C146.659 98.6462 147.255 99.4312 147.206 100.373" fill="#E6C3B2" blush:i="0.0.81"/><path id="Fill 306" fill-rule="evenodd" clip-rule="evenodd" d="M129.201 37.3781C128.706 39.1391 127.442 38.7321 126.674 37.5861C126.212 35.2731 129.054 35.4721 129.201 37.3781" fill="#FEBEBA" blush:i="0.0.82"/><path id="Fill 308" fill-rule="evenodd" clip-rule="evenodd" d="M117.087 97.7092C115.145 98.0752 115.57 94.2872 117.143 95.1872C118.177 95.6382 118.64 97.7882 117.087 97.7092" fill="#E4BFAC" blush:i="0.0.83"/><path id="Fill 310" fill-rule="evenodd" clip-rule="evenodd" d="M132.267 81.4123C132.811 79.8233 134.925 81.0433 134.825 82.4263C134.521 84.2493 132.26 82.7273 132.267 81.4123" fill="#E4BFAC" blush:i="0.0.84"/><path id="Fill 312" fill-rule="evenodd" clip-rule="evenodd" d="M131.941 98.8625C134.147 98.6545 133.621 101.581 131.712 101.42C130.697 101.054 130.869 99.1725 131.941 98.8625" fill="#E6C3B2" blush:i="0.0.85"/><path id="Fill 314" fill-rule="evenodd" clip-rule="evenodd" d="M116.708 101.976C119.246 102.467 117.799 104.393 116.2 104.83C115.431 104.062 115.526 102.306 116.708 101.976" fill="#FEBEBA" blush:i="0.0.86"/><path id="Fill 316" fill-rule="evenodd" clip-rule="evenodd" d="M112.937 34.177C112.122 34.849 110.371 34.308 110.624 32.985C111.038 30.796 114.046 32.579 112.937 34.177" fill="#FEBEBA" blush:i="0.0.87"/><path id="Fill 318" fill-rule="evenodd" clip-rule="evenodd" d="M103.223 76.5354C103.008 79.9694 98.6985 75.4924 101.915 75.2454C103.051 75.1724 102.677 75.9144 103.223 76.5354" fill="#E4BFAC" blush:i="0.0.88"/><path id="Fill 320" fill-rule="evenodd" clip-rule="evenodd" d="M117.602 47.1164C118.041 48.4444 119.01 49.8624 116.603 49.4854C114.667 48.9184 116.355 46.3844 117.602 47.1164" fill="#E4BFAC" blush:i="0.0.89"/><path id="Fill 322" fill-rule="evenodd" clip-rule="evenodd" d="M146.641 67.425C146.67 68.779 145.38 69.218 144.438 68.45C143.592 66.657 145.955 65.47 146.641 67.425" fill="#E5C1AF" blush:i="0.0.90"/><path id="Fill 324" fill-rule="evenodd" clip-rule="evenodd" d="M107.404 31.841C107.688 33.988 104.178 33.253 105.09 31.523C105.553 30.134 107.265 30.826 107.404 31.841" fill="#FEBEBA" blush:i="0.0.91"/><path id="Fill 326" fill-rule="evenodd" clip-rule="evenodd" d="M115.902 73.9211C115.665 76.3421 119.925 74.0381 117.519 76.8881C115.477 77.7461 114.564 73.7071 115.902 73.9211" fill="#E6C3B2" blush:i="0.0.92"/><path id="Fill 328" fill-rule="evenodd" clip-rule="evenodd" d="M146.449 57.5656C147.318 57.7486 147.903 58.8366 147.385 59.6536C146.01 61.4796 143.972 57.6176 146.449 57.5656" fill="#E5C1AF" blush:i="0.0.93"/><path id="Fill 330" fill-rule="evenodd" clip-rule="evenodd" d="M109.188 37.3381C107.811 35.8721 110.03 33.9961 111.105 35.7081C111.961 37.0071 110.287 37.9971 109.188 37.3381" fill="#FEBEBA" blush:i="0.0.94"/><path id="Fill 332" fill-rule="evenodd" clip-rule="evenodd" d="M103.223 76.5354C101.833 75.7544 103.457 74.1544 104.712 74.9244C106.356 75.9424 104.615 77.7634 103.223 76.5354" fill="#FEBEBA" blush:i="0.0.95"/><path id="Fill 334" fill-rule="evenodd" clip-rule="evenodd" d="M102.7 49.8313C103.971 49.8603 104.919 52.4873 103.113 52.3073C101.654 52.4263 101.019 50.4063 102.7 49.8313" fill="#FEBEBA" blush:i="0.0.96"/><path id="Fill 336" fill-rule="evenodd" clip-rule="evenodd" d="M115.899 67.9484C116.001 69.4594 114.45 69.3894 113.784 68.7164C112.842 66.7834 115.849 65.6824 115.899 67.9484" fill="#E5C1AF" blush:i="0.0.97"/><path id="Fill 338" fill-rule="evenodd" clip-rule="evenodd" d="M123.213 38.2375C124.225 37.0715 125.529 37.6645 126.036 38.7835C126.04 40.8675 123.203 39.6905 123.213 38.2375" fill="#E4BFAC" blush:i="0.0.98"/><path id="Fill 340" fill-rule="evenodd" clip-rule="evenodd" d="M144.558 72.1574C144.689 69.3004 148.343 72.0434 146.285 73.3874C145.701 73.5534 144.4 72.8364 144.558 72.1574" fill="#E5C1AF" blush:i="0.0.99"/><path id="Fill 342" fill-rule="evenodd" clip-rule="evenodd" d="M146.098 62.882C146.866 64.904 143.012 64.119 143.889 62.362C144.345 61.072 146.185 61.594 146.098 62.882" fill="#E4BFAC" blush:i="0.0.100"/><path id="Fill 344" fill-rule="evenodd" clip-rule="evenodd" d="M132.612 34.01C132.267 34.404 132.05 36.638 130.612 35.324C128.857 34.025 132.255 31.92 132.612 34.01" fill="#FEBEBA" blush:i="0.0.101"/><path id="Fill 346" fill-rule="evenodd" clip-rule="evenodd" d="M152.278 66.4914C152.5 68.0454 150.448 68.5254 149.882 67.2914C149.732 65.7234 151.667 64.9194 152.278 66.4914" fill="#FEBEBA" blush:i="0.0.102"/><path id="Fill 348" fill-rule="evenodd" clip-rule="evenodd" d="M103.425 56.4611C101.592 56.7771 100.81 53.8811 102.971 54.0741C104.296 54.0011 104.498 55.9641 103.425 56.4611" fill="#FEBEBA" blush:i="0.0.103"/><path id="Fill 350" fill-rule="evenodd" clip-rule="evenodd" d="M112.938 33.9191C111.878 30.3511 117.703 32.2931 114.478 33.5111C114.856 34.1791 113.15 34.7981 112.938 33.9191" fill="#E4BFAC" blush:i="0.0.104"/><path id="Fill 352" fill-rule="evenodd" clip-rule="evenodd" d="M141.985 43.8059C140.462 42.4529 143.024 40.7389 143.979 42.2149C144.269 42.4609 143.421 45.3179 141.985 43.8059" fill="#FEBEBA" blush:i="0.0.105"/><path id="Fill 354" fill-rule="evenodd" clip-rule="evenodd" d="M115.987 84.3068C116.302 85.9188 115.887 87.1268 114.145 86.1558C113.586 84.6818 114.533 83.2178 115.987 84.3068" fill="#E5C1AF" blush:i="0.0.106"/><path id="Fill 356" fill-rule="evenodd" clip-rule="evenodd" d="M118.072 55.4934C116.367 54.7214 117.979 51.8424 119.266 53.6944C120.114 54.5254 119.59 56.8134 118.072 55.4934" fill="#FEBEBA" blush:i="0.0.107"/><path id="Fill 358" fill-rule="evenodd" clip-rule="evenodd" d="M152.608 54.8234C150.919 54.7194 152.037 51.7374 153.452 52.7184C154.988 53.1434 153.842 55.0924 152.608 54.8234" fill="#E5C1AF" blush:i="0.0.108"/><path id="Fill 360" fill-rule="evenodd" clip-rule="evenodd" d="M104.4 80.3986C101.697 78.6046 104.935 75.9606 105.85 78.6866C105.156 79.3016 105.344 80.1256 104.4 80.3986" fill="#E4BFAC" blush:i="0.0.109"/><path id="Fill 362" fill-rule="evenodd" clip-rule="evenodd" d="M112.122 36.5275C113.227 35.6905 114.685 37.6345 113.726 38.5015C112.433 39.7795 110.472 37.4795 112.122 36.5275" fill="#FEBEBA" blush:i="0.0.110"/><path id="Fill 364" fill-rule="evenodd" clip-rule="evenodd" d="M121.927 38.7854C123.158 39.0974 123.956 40.1534 122.829 41.1174C121.024 41.6894 120.291 39.8604 121.927 38.7854" fill="#FEBEBA" blush:i="0.0.111"/><path id="Fill 366" fill-rule="evenodd" clip-rule="evenodd" d="M115.919 71.2326C117.853 73.8336 112.087 73.5836 114.21 71.3646C114.949 70.7196 115.309 71.2466 115.919 71.2326" fill="#FEBEBA" blush:i="0.0.112"/><path id="Fill 368" fill-rule="evenodd" clip-rule="evenodd" d="M98.6508 35.9885C97.9028 34.0425 100.942 33.6175 100.892 35.5765C100.526 37.1585 99.5458 36.5745 98.6508 35.9885" fill="#FEBEBA" blush:i="0.0.113"/><path id="Fill 370" fill-rule="evenodd" clip-rule="evenodd" d="M106.885 46.3254C107.984 45.9584 109.486 47.2144 108.324 48.2284C107.007 49.0604 105.254 46.5784 106.885 46.3254" fill="#FEBEBA" blush:i="0.0.114"/><path id="Fill 372" fill-rule="evenodd" clip-rule="evenodd" d="M112.851 59.175C112.991 56.566 117.208 59.354 114.607 60.238C114.005 60.247 112.807 59.83 112.851 59.175" fill="#FEBEBA" blush:i="0.0.115"/><path id="Fill 374" fill-rule="evenodd" clip-rule="evenodd" d="M106.743 42.8283C106.753 40.1173 110.716 42.2503 108.442 43.7353C108.036 44.0553 106.692 43.3873 106.743 42.8283" fill="#FEBEBA" blush:i="0.0.116"/><path id="Fill 376" fill-rule="evenodd" clip-rule="evenodd" d="M116.54 44.175C117.39 44.983 117.748 46.246 116.327 46.664C114.464 46.512 114.692 43.352 116.54 44.175" fill="#FEBEBA" blush:i="0.0.117"/><path id="Fill 378" fill-rule="evenodd" clip-rule="evenodd" d="M118.142 38.3225C117.393 37.9225 116.55 37.9495 117.021 36.7605C118.871 34.6475 121.087 39.5155 118.142 38.3225" fill="#FEBEBA" blush:i="0.0.118"/><path id="Fill 380" fill-rule="evenodd" clip-rule="evenodd" d="M115.64 125.418C115.705 121.585 119.883 126.348 116.616 126.261C115.951 126.338 115.727 125.99 115.64 125.418" fill="#E6C3B2" blush:i="0.0.119"/><path id="Fill 382" fill-rule="evenodd" clip-rule="evenodd" d="M104.451 71.3049C103.255 71.5239 102.525 69.8129 103.556 69.1679C105.213 68.6719 106.353 71.3609 104.451 71.3049" fill="#E6C3B2" blush:i="0.0.120"/><path id="Fill 384" fill-rule="evenodd" clip-rule="evenodd" d="M118.311 53.0715C116.917 53.5855 118.105 55.5355 116.279 54.8555C114.497 53.4575 117.581 51.4395 118.311 53.0715" fill="#E4BFAC" blush:i="0.0.121"/><path id="Fill 386" fill-rule="evenodd" clip-rule="evenodd" d="M132.081 32.3928C130.831 30.8648 132.206 29.3978 133.773 30.6248C133.827 31.6908 133.52 33.3478 132.081 32.3928" fill="#FEBEBA" blush:i="0.0.122"/><path id="Fill 388" fill-rule="evenodd" clip-rule="evenodd" d="M112.846 40.3859C113.325 40.8019 114.364 40.7829 114.156 41.7629C114.701 44.6979 109.633 41.1099 112.846 40.3859" fill="#E4BFAC" blush:i="0.0.123"/><path id="Fill 390" fill-rule="evenodd" clip-rule="evenodd" d="M102.89 92.964C102.989 91.119 105.612 91.922 104.996 93.536C104.285 94.652 102.707 94.443 102.89 92.964" fill="#FEBEBA" blush:i="0.0.124"/><path id="Fill 392" fill-rule="evenodd" clip-rule="evenodd" d="M148.231 88.3127C148.37 85.9037 151.748 87.7497 150.172 89.3567C149.476 89.7917 148.376 88.8847 148.231 88.3127" fill="#FEBEBA" blush:i="0.0.125"/><path id="Fill 394" fill-rule="evenodd" clip-rule="evenodd" d="M132.532 56.8459C131.594 57.7219 130.043 55.7869 131.263 54.9539C132.795 54.2539 134.137 55.7619 132.532 56.8459" fill="#FEBEBA" blush:i="0.0.126"/><path id="Fill 396" fill-rule="evenodd" clip-rule="evenodd" d="M115.725 103.622C117.147 105.916 116.506 105.135 114.415 105.272C113.006 104.533 114.176 102.601 115.725 103.622" fill="#E6C3B2" blush:i="0.0.127"/><path id="Fill 398" fill-rule="evenodd" clip-rule="evenodd" d="M129.364 33.5656C130.264 35.2566 127.748 35.9586 127.36 34.1176C127.189 32.7066 128.789 31.9426 129.364 33.5656" fill="#E4BFAC" blush:i="0.0.128"/><path id="Fill 400" fill-rule="evenodd" clip-rule="evenodd" d="M116.608 86.4162C117.857 86.3922 119.025 87.5552 117.547 88.4692C116.036 89.3412 115.229 86.9752 116.608 86.4162" fill="#E4BFAC" blush:i="0.0.129"/><path id="Fill 402" fill-rule="evenodd" clip-rule="evenodd" d="M125.689 40.4943C126.357 38.8503 128.992 39.2113 128.309 41.0033C127.68 41.6873 125.054 41.7943 125.689 40.4943" fill="#FEBEBA" blush:i="0.0.130"/><path id="Fill 404" fill-rule="evenodd" clip-rule="evenodd" d="M151.577 62.6525C151.424 63.8445 150.3 64.1915 149.37 63.7255C148.715 62.0215 150.869 60.7845 151.577 62.6525" fill="#FEBEBA" blush:i="0.0.131"/><path id="Fill 406" fill-rule="evenodd" clip-rule="evenodd" d="M136.019 30.7258C134.679 31.5148 132.998 29.5298 134.591 28.6578C135.781 28.3158 136.494 29.6638 136.019 30.7258" fill="#E5C1AF" blush:i="0.0.132"/><path id="Fill 408" fill-rule="evenodd" clip-rule="evenodd" d="M132.34 96.8605C132.344 96.4585 131.855 95.8675 132.357 95.6615C134.303 93.0685 135.562 99.6205 132.34 96.8605" fill="#E4BFAC" blush:i="0.0.133"/><path id="Fill 410" fill-rule="evenodd" clip-rule="evenodd" d="M146.099 62.882C144.096 60.071 149.378 60.413 147.8 62.691C147.709 63.412 146.61 62.519 146.099 62.882" fill="#FEBEBA" blush:i="0.0.134"/><path id="Fill 412" fill-rule="evenodd" clip-rule="evenodd" d="M147.965 40.7551C147.417 42.3921 144.054 41.3951 145.693 39.8091C146.459 38.8811 148.128 39.6261 147.965 40.7551" fill="#FEBEBA" blush:i="0.0.135"/><path id="Fill 414" fill-rule="evenodd" clip-rule="evenodd" d="M125.601 40.5666C125.573 41.4906 126.79 41.3126 127.391 41.4726C127.513 44.6496 123.081 42.2206 125.601 40.5666" fill="#E5C1AF" blush:i="0.0.136"/><path id="Fill 416" fill-rule="evenodd" clip-rule="evenodd" d="M142.844 48.5939C144.383 47.3849 145.54 50.8069 143.499 50.5949C142.721 50.3089 141.393 48.5069 142.844 48.5939" fill="#FEBEBA" blush:i="0.0.137"/><path id="Fill 418" fill-rule="evenodd" clip-rule="evenodd" d="M132.343 69.6057C131.728 71.2927 129.598 69.3327 130.725 67.9367C131.884 66.9927 132.414 68.5347 132.343 69.6057" fill="#FEBEBA" blush:i="0.0.138"/><path id="Fill 420" fill-rule="evenodd" clip-rule="evenodd" d="M118.104 100.189C118.346 102.524 114.852 102.519 115.642 100.145C116.373 99.2327 117.255 100.465 118.104 100.189" fill="#E5C1AF" blush:i="0.0.139"/><path id="Fill 422" fill-rule="evenodd" clip-rule="evenodd" d="M146.191 44.3557C146.841 46.6537 142.346 46.2837 143.666 44.3877C144.305 44.0617 145.223 43.2947 146.191 44.3557" fill="#FEBEBA" blush:i="0.0.140"/><path id="Fill 424" fill-rule="evenodd" clip-rule="evenodd" d="M116.894 57.9162C115.621 57.8872 115.14 56.1252 116.153 55.3942C117.32 55.2782 118.484 57.6952 116.894 57.9162" fill="#E6C3B2" blush:i="0.0.141"/><path id="Fill 426" fill-rule="evenodd" clip-rule="evenodd" d="M132 51.173C130.143 51.408 129.62 49.515 131.299 48.721C132.639 48.987 132.599 50.154 132 51.173" fill="#FEBEBA" blush:i="0.0.142"/><path id="Fill 428" fill-rule="evenodd" clip-rule="evenodd" d="M132.515 63.5891C131.13 63.9481 129.851 62.0131 131.157 61.2561C132.563 60.9771 133.14 62.6481 132.515 63.5891" fill="#FEBEBA" blush:i="0.0.143"/><path id="Fill 430" fill-rule="evenodd" clip-rule="evenodd" d="M149.504 46.2365C148.486 48.4745 145.664 45.1105 148.628 44.8205C149.149 44.7675 150.538 46.2965 149.504 46.2365" fill="#FEBEBA" blush:i="0.0.144"/><path id="Fill 432" fill-rule="evenodd" clip-rule="evenodd" d="M115.906 91.6506C115.976 92.3886 116.823 92.7296 117.465 92.3406C120.79 92.6766 114.507 96.4176 115.906 91.6506" fill="#E5C1AF" blush:i="0.0.145"/><path id="Fill 434" fill-rule="evenodd" clip-rule="evenodd" d="M146.671 52.2209C146.662 53.4249 146.04 54.1329 144.891 53.3579C143.465 52.2319 145.881 50.3299 146.671 52.2209" fill="#E5C1AF" blush:i="0.0.146"/><path id="Fill 436" fill-rule="evenodd" clip-rule="evenodd" d="M131.827 85.0773C130.437 84.8493 130.75 82.7863 132.004 82.7173C133.6 82.7493 133.226 85.6723 131.827 85.0773" fill="#FEBEBA" blush:i="0.0.147"/><path id="Fill 438" fill-rule="evenodd" clip-rule="evenodd" d="M144.647 60.2766C144.828 61.4636 142.893 61.6346 142.613 60.6946C142.016 58.7866 144.601 58.2496 144.647 60.2766" fill="#FEBEBA" blush:i="0.0.148"/><path id="Fill 440" fill-rule="evenodd" clip-rule="evenodd" d="M153.79 42.0451C152.837 44.0381 150.436 41.6921 152.129 40.4811C152.907 40.0591 153.574 41.3401 153.79 42.0451" fill="#E6C3B2" blush:i="0.0.149"/><path id="Fill 442" fill-rule="evenodd" clip-rule="evenodd" d="M124.057 31.8049C123.591 32.9309 120.959 32.2849 121.558 31.0169C122.473 29.6559 123.825 30.5049 124.057 31.8049" fill="#E5C1AF" blush:i="0.0.150"/><path id="Fill 444" fill-rule="evenodd" clip-rule="evenodd" d="M115.539 44.093C115.102 45.8 114.598 46.787 113.39 44.935C113.021 43.711 115.006 42.78 115.539 44.093" fill="#E4BFAC" blush:i="0.0.151"/><path id="Fill 446" fill-rule="evenodd" clip-rule="evenodd" d="M104.412 85.2492C105.003 84.9172 104.982 85.4282 105.484 85.5202C108.213 87.9402 101.632 87.8732 104.412 85.2492" fill="#FEBEBA" blush:i="0.0.152"/><path id="Fill 448" fill-rule="evenodd" clip-rule="evenodd" d="M107.276 34.3186C108.254 34.4226 107.684 32.0486 109.369 32.7556C111.965 33.7206 107.882 35.5216 107.276 34.3186" fill="#E6C3B2" blush:i="0.0.153"/><path id="Fill 450" fill-rule="evenodd" clip-rule="evenodd" d="M132.874 74.552C131.666 72.996 135.277 72.023 135.066 73.633C135.199 74.963 133.954 75.536 132.874 74.552" fill="#E4BFAC" blush:i="0.0.154"/><path id="Fill 452" fill-rule="evenodd" clip-rule="evenodd" d="M118.104 100.189C117.295 100.544 115.666 99.9337 116.093 98.9497C116.632 96.9757 118.811 98.5937 118.104 100.189" fill="#FEBEBA" blush:i="0.0.155"/><path id="Fill 454" fill-rule="evenodd" clip-rule="evenodd" d="M148.776 50.3918C148.677 52.7558 145.345 51.0568 146.755 49.3998C147.499 49.2788 148.387 49.7368 148.776 50.3918" fill="#E5C1AF" blush:i="0.0.156"/><path id="Fill 456" fill-rule="evenodd" clip-rule="evenodd" d="M146.191 44.3557C144.849 44.2147 143.645 42.3147 145.453 42.0427C146.683 42.1247 147.326 43.5867 146.191 44.3557" fill="#E4BFAC" blush:i="0.0.157"/><path id="Fill 458" fill-rule="evenodd" clip-rule="evenodd" d="M151.325 59.3459C151.337 57.7719 153.598 57.8149 153.699 59.2049C153.755 60.6429 151.587 60.6239 151.325 59.3459" fill="#E4BFAC" blush:i="0.0.158"/><path id="Fill 460" fill-rule="evenodd" clip-rule="evenodd" d="M149.813 79.0227C148.161 79.7577 148.38 76.6117 149.685 76.9057C151.229 76.9497 151.17 78.7507 149.813 79.0227" fill="#FEBEBA" blush:i="0.0.159"/><path id="Fill 462" fill-rule="evenodd" clip-rule="evenodd" d="M145.459 40.0344C145.874 41.5964 144.599 42.5644 143.717 41.0444C142.598 39.8184 144.675 38.7634 145.459 40.0344" fill="#E5C1AF" blush:i="0.0.160"/><path id="Fill 464" fill-rule="evenodd" clip-rule="evenodd" d="M131.827 85.0773C133.51 84.7113 134.094 86.1653 132.796 87.1943C131.492 87.6743 130.641 85.6333 131.827 85.0773" fill="#E4BFAC" blush:i="0.0.161"/><path id="Fill 466" fill-rule="evenodd" clip-rule="evenodd" d="M96.1304 41.2287C96.1464 42.0357 96.0194 42.3427 96.9534 42.2877C96.4204 45.9577 92.4654 40.7517 96.1304 41.2287" fill="#E6C3B2" blush:i="0.0.162"/><path id="Fill 468" fill-rule="evenodd" clip-rule="evenodd" d="M104.476 47.3176C103.83 47.4186 103.676 46.8846 103.156 46.7816C101.473 44.0626 107.189 45.3476 104.476 47.3176" fill="#FEBEBA" blush:i="0.0.163"/><path id="Fill 470" fill-rule="evenodd" clip-rule="evenodd" d="M145.912 37.59C145.656 36.026 147.772 35.187 148.223 36.879C148.343 38.32 146.763 38.216 145.912 37.59" fill="#FEBEBA" blush:i="0.0.164"/><path id="Fill 472" fill-rule="evenodd" clip-rule="evenodd" d="M96.8122 49.6662C98.1142 49.8382 99.0442 51.3792 97.5602 51.9402C96.3222 52.0222 95.3872 50.2182 96.8122 49.6662" fill="#E6C3B2" blush:i="0.0.165"/><path id="Fill 474" fill-rule="evenodd" clip-rule="evenodd" d="M132.796 87.1945C133.082 85.4255 135.208 86.1525 135.047 87.6615C134.722 88.8905 132.821 88.2665 132.796 87.1945" fill="#FEBEBA" blush:i="0.0.166"/><path id="Fill 476" fill-rule="evenodd" clip-rule="evenodd" d="M136.296 30.7863C137.024 29.5113 138.661 29.8363 138.791 31.1323C138.509 32.6653 135.809 32.3053 136.296 30.7863" fill="#FEBEBA" blush:i="0.0.167"/><path id="Fill 478" fill-rule="evenodd" clip-rule="evenodd" d="M123.718 33.5598C124.67 34.0938 126.675 34.6098 125.156 35.8088C123.858 36.1238 122.413 34.6518 123.718 33.5598" fill="#E5C1AF" blush:i="0.0.168"/><path id="Fill 480" fill-rule="evenodd" clip-rule="evenodd" d="M138.796 32.8391C139.546 32.7541 140.249 34.2681 139.571 34.6451C137.678 35.6691 136.374 33.2251 138.796 32.8391" fill="#E5C1AF" blush:i="0.0.169"/><path id="Fill 482" fill-rule="evenodd" clip-rule="evenodd" d="M141.143 37.177C140.627 38.424 138.316 37.762 138.893 36.448C139.495 34.77 140.962 36.111 141.143 37.177" fill="#E6C3B2" blush:i="0.0.170"/><path id="Fill 484" fill-rule="evenodd" clip-rule="evenodd" d="M150.746 47.9865C150.808 49.5365 149.425 49.5135 148.552 48.8535C147.876 47.2355 150.081 46.5765 150.746 47.9865" fill="#FEBEBA" blush:i="0.0.171"/><path id="Fill 486" fill-rule="evenodd" clip-rule="evenodd" d="M137.205 41.6652C136.458 39.0952 140.12 39.5682 139.257 41.6432C138.709 42.1192 137.843 41.8692 137.205 41.6652" fill="#FEBEBA" blush:i="0.0.172"/><path id="Fill 488" fill-rule="evenodd" clip-rule="evenodd" d="M115.632 100.177C115.254 100.692 113.934 100.866 113.64 100.144C112.956 97.9099 116.482 98.0919 115.632 100.177" fill="#E6C3B2" blush:i="0.0.173"/><path id="Fill 490" fill-rule="evenodd" clip-rule="evenodd" d="M93.7102 47.3537C92.1072 47.3337 91.7522 46.0497 93.0622 45.1387C94.2572 45.2477 95.1942 46.5597 93.7102 47.3537" fill="#E5C1AF" blush:i="0.0.174"/><path id="Fill 492" fill-rule="evenodd" clip-rule="evenodd" d="M109.337 40.3898C108.608 41.1998 107.002 40.9078 107.022 39.6508C107.303 37.8458 109.782 38.8338 109.337 40.3898" fill="#FEBEBA" blush:i="0.0.175"/><path id="Fill 494" fill-rule="evenodd" clip-rule="evenodd" d="M118.475 30.2365C120.816 32.9055 113.853 30.9445 116.93 29.8705C117.319 29.7595 118.534 29.8635 118.475 30.2365" fill="#E6C3B2" blush:i="0.0.176"/><path id="Fill 496" fill-rule="evenodd" clip-rule="evenodd" d="M135.377 50.7297C136.372 51.3187 137.647 52.0997 136.02 53.1077C134.804 53.1637 133.695 50.9667 135.377 50.7297" fill="#FEBEBA" blush:i="0.0.177"/><path id="Fill 498" fill-rule="evenodd" clip-rule="evenodd" d="M135.377 50.7297C134.551 51.2767 134.035 52.2407 133.252 50.8447C131.869 49.1497 135.564 48.9567 135.377 50.7297" fill="#E5C1AF" blush:i="0.0.178"/><path id="Fill 500" fill-rule="evenodd" clip-rule="evenodd" d="M144.192 94.174C144.443 92.193 147.003 94.202 146.11 95.47C145.088 95.778 144.025 95.378 144.192 94.174" fill="#E4BFAC" blush:i="0.0.179"/><path id="Fill 502" fill-rule="evenodd" clip-rule="evenodd" d="M105.031 42.2785C109.026 42.8375 103.414 46.5545 104.312 43.4985C103.724 43.2745 104.149 42.2485 105.031 42.2785" fill="#E4BFAC" blush:i="0.0.180"/><path id="Fill 504" fill-rule="evenodd" clip-rule="evenodd" d="M149.415 42.1896C150.396 42.3546 152.322 42.3596 151.216 43.7226C150.218 45.0076 147.68 42.8486 149.415 42.1896" fill="#FEBEBA" blush:i="0.0.181"/><path id="Fill 506" fill-rule="evenodd" clip-rule="evenodd" d="M115.714 94.34C115.667 95.95 112.933 95.491 113.523 93.92C113.889 92.848 115.611 93.385 115.714 94.34" fill="#E6C3B2" blush:i="0.0.182"/><path id="Fill 508" fill-rule="evenodd" clip-rule="evenodd" d="M98.6487 35.9865C99.0207 38.2945 96.2687 37.6875 96.5247 36.0905C97.0257 35.1105 97.9387 35.4045 98.6487 35.9865" fill="#E6C3B2" blush:i="0.0.183"/><path id="Fill 510" fill-rule="evenodd" clip-rule="evenodd" d="M101.256 79.5949C100.835 80.7119 98.9658 80.3809 98.8818 79.2109C99.2578 77.7009 101.882 78.4049 101.256 79.5949" fill="#FEBEBA" blush:i="0.0.184"/><path id="Fill 512" fill-rule="evenodd" clip-rule="evenodd" d="M98.0439 45.5998C98.3259 45.1318 99.0069 44.1148 99.6139 44.3768C101.923 45.2168 98.6159 47.9848 98.0439 45.5998" fill="#E6C3B2" blush:i="0.0.185"/><path id="Fill 514" fill-rule="evenodd" clip-rule="evenodd" d="M152.2 44.0764C153.117 44.2034 153.215 45.0974 152.952 45.8334C151.541 47.3534 149.493 43.5084 152.2 44.0764" fill="#E4BFAC" blush:i="0.0.186"/><path id="Fill 516" fill-rule="evenodd" clip-rule="evenodd" d="M97.0796 72.2443C97.8626 71.9413 98.2446 72.2233 98.2526 73.0343C99.9516 75.7123 94.1216 73.2953 97.0796 72.2443" fill="#E6C3B2" blush:i="0.0.187"/><path id="Fill 518" fill-rule="evenodd" clip-rule="evenodd" d="M95.9578 68.6916C95.7848 67.2216 98.1828 67.2946 98.1708 68.5906C98.2018 69.7066 95.7498 70.0916 95.9578 68.6916" fill="#E6C3B2" blush:i="0.0.188"/><path id="Fill 520" fill-rule="evenodd" clip-rule="evenodd" d="M149.416 42.1896C148.754 42.9906 148.806 44.9396 147.394 43.4026C146.818 41.8676 148.879 40.4116 149.416 42.1896" fill="#E5C1AF" blush:i="0.0.189"/><path id="Fill 522" fill-rule="evenodd" clip-rule="evenodd" d="M101.005 73.9338C99.9515 72.4278 101.423 71.1038 102.774 71.8078C103.208 72.6308 101.954 74.7088 101.005 73.9338" fill="#E4BFAC" blush:i="0.0.190"/><path id="Fill 524" fill-rule="evenodd" clip-rule="evenodd" d="M104.578 74.1369C102.14 73.9959 104.187 70.3699 105.738 72.4839C105.032 72.9719 105.912 74.1079 104.578 74.1369" fill="#E4BFAC" blush:i="0.0.191"/><path id="Fill 526" fill-rule="evenodd" clip-rule="evenodd" d="M140.605 47.8996C141.122 50.2326 137.161 48.9396 138.629 47.7496C139.206 47.0376 140.122 47.2816 140.605 47.8996" fill="#FEBEBA" blush:i="0.0.192"/><path id="Fill 528" fill-rule="evenodd" clip-rule="evenodd" d="M144.222 109.61C144.029 107.561 144.843 107.523 145.586 108.378C147.16 109.379 145.063 111.684 144.222 109.61" fill="#E5C1AF" blush:i="0.0.193"/><path id="Fill 530" fill-rule="evenodd" clip-rule="evenodd" d="M148.426 55.1486C148.253 56.9726 145.659 56.0396 146.191 54.6306C146.612 53.6886 148.135 54.3846 148.426 55.1486" fill="#E6C3B2" blush:i="0.0.194"/><path id="Fill 532" fill-rule="evenodd" clip-rule="evenodd" d="M138.342 39.758C137.671 39.981 137.087 39.725 136.664 39.155C135.555 36.83 140.89 38.526 138.342 39.758" fill="#E5C1AF" blush:i="0.0.195"/><path id="Fill 534" fill-rule="evenodd" clip-rule="evenodd" d="M117.855 34.7404C117.954 35.6204 117.188 35.7594 116.493 35.8784C114.215 35.4684 116.978 32.0694 117.855 34.7404" fill="#E4BFAC" blush:i="0.0.196"/><path id="Fill 536" fill-rule="evenodd" clip-rule="evenodd" d="M112.122 36.5275C111.766 39.5255 109.958 37.7315 110.445 37.4115C112.403 36.5425 109.979 35.2905 110.292 34.7645C111.162 34.9945 112.404 35.5525 112.122 36.5275" fill="#E4BFAC" blush:i="0.0.197"/><path id="Fill 538" fill-rule="evenodd" clip-rule="evenodd" d="M146.8 46.2414C147.303 46.8204 146.658 47.7844 146.502 48.4094C144.332 48.3804 144.429 45.5254 146.8 46.2414" fill="#E4BFAC" blush:i="0.0.198"/><path id="Fill 540" fill-rule="evenodd" clip-rule="evenodd" d="M113.637 40.0324C112.989 38.0714 116.442 38.8634 115.725 40.3564C115.686 41.7754 113.584 41.1764 113.637 40.0324" fill="#E4BFAC" blush:i="0.0.199"/><path id="Fill 542" fill-rule="evenodd" clip-rule="evenodd" d="M132.874 74.552C134.153 74.957 132.907 77.409 131.876 76.285C130.52 75.611 131.557 73.564 132.874 74.552" fill="#FEBEBA" blush:i="0.0.200"/><path id="Fill 544" fill-rule="evenodd" clip-rule="evenodd" d="M140.706 53.2746C140.873 51.8726 142.237 51.7806 142.971 52.7646C143.188 54.1956 141.388 54.5286 140.706 53.2746" fill="#FEBEBA" blush:i="0.0.201"/><path id="Fill 546" fill-rule="evenodd" clip-rule="evenodd" d="M118.04 112.31C117.139 110.686 115.935 111.746 114.942 111.68C111.858 110.167 118.283 109.908 118.04 112.31" fill="#E6C3B2" blush:i="0.0.202"/><path id="Fill 548" fill-rule="evenodd" clip-rule="evenodd" d="M145.468 75.4641C147.297 76.7731 144.994 78.3461 144.104 76.6361C143.705 75.8891 144.818 74.7991 145.468 75.4641" fill="#E5C1AF" blush:i="0.0.203"/><path id="Fill 550" fill-rule="evenodd" clip-rule="evenodd" d="M101.435 71.8566C100.815 72.3116 100.659 71.6406 100.019 71.5846C97.3369 69.6026 103.212 69.6036 101.435 71.8566" fill="#FEBEBA" blush:i="0.0.204"/><path id="Fill 552" fill-rule="evenodd" clip-rule="evenodd" d="M140.601 41.0285C138.813 39.7205 142.15 37.8825 142.343 40.2705C142.148 40.8915 141.183 41.6345 140.601 41.0285" fill="#E4BFAC" blush:i="0.0.205"/><path id="Fill 554" fill-rule="evenodd" clip-rule="evenodd" d="M115.811 40.0285C116.542 39.0665 118.531 39.5525 117.926 41.1085C117.282 42.1015 115.11 41.0735 115.811 40.0285" fill="#FEBEBA" blush:i="0.0.206"/><path id="Fill 556" fill-rule="evenodd" clip-rule="evenodd" d="M145.904 77.2307C145.857 75.2837 148.626 76.1317 147.984 77.5687C147.558 78.3177 146.053 78.2017 145.904 77.2307" fill="#FEBEBA" blush:i="0.0.207"/><path id="Fill 558" fill-rule="evenodd" clip-rule="evenodd" d="M132.081 32.3928C132.975 32.9588 134.174 31.2888 134.233 32.8358C134.227 35.0718 131.304 33.9968 132.081 32.3928" fill="#E4BFAC" blush:i="0.0.208"/><path id="Fill 560" fill-rule="evenodd" clip-rule="evenodd" d="M94.6091 52.2609C91.6761 53.7229 92.3031 50.0019 94.3831 50.3649C94.8851 50.9709 94.4221 51.7729 94.6091 52.2609" fill="#FEBEBA" blush:i="0.0.209"/><path id="Fill 562" fill-rule="evenodd" clip-rule="evenodd" d="M99.7296 61.423C98.5626 61.681 98.0006 59.413 99.3756 59.623C100.903 59.201 101.165 61.703 99.7296 61.423" fill="#FEBEBA" blush:i="0.0.210"/><path id="Fill 564" fill-rule="evenodd" clip-rule="evenodd" d="M135.487 37.0627C135.619 34.6727 137.909 35.7697 137.912 37.3007C136.961 37.6437 136.169 38.1967 135.487 37.0627" fill="#FEBEBA" blush:i="0.0.211"/><path id="Fill 566" fill-rule="evenodd" clip-rule="evenodd" d="M145.819 90.3742C145.583 90.8402 145.273 93.2002 143.729 91.1282C143.496 89.9682 145.66 89.2152 145.819 90.3742" fill="#E6C3B2" blush:i="0.0.212"/><path id="Fill 568" fill-rule="evenodd" clip-rule="evenodd" d="M116.883 115.825C118.152 115.704 117.953 117.403 117.412 117.957C115.86 118.268 115.452 116.155 116.883 115.825" fill="#E6C3B2" blush:i="0.0.213"/><path id="Fill 570" fill-rule="evenodd" clip-rule="evenodd" d="M117.761 110.156C117.011 110.347 116.354 109.151 116.879 108.596C118.415 107.458 119.907 109.889 117.761 110.156" fill="#E5C1AF" blush:i="0.0.214"/><path id="Fill 572" fill-rule="evenodd" clip-rule="evenodd" d="M135.395 44.6184C135.385 43.2704 137.227 43.4074 137.629 44.3534C138.142 46.0124 135.971 46.0404 135.395 44.6184" fill="#FEBEBA" blush:i="0.0.215"/><path id="Fill 574" fill-rule="evenodd" clip-rule="evenodd" d="M146.664 103.234C146.367 104.436 144.744 104.403 144.412 103.335C144.535 101.776 146.152 101.968 146.664 103.234" fill="#E5C1AF" blush:i="0.0.216"/><path id="Fill 576" fill-rule="evenodd" clip-rule="evenodd" d="M150.318 57.2824C148.607 57.2554 148.587 55.7774 150.092 55.3634C151.452 55.5674 151.518 56.9004 150.318 57.2824" fill="#FEBEBA" blush:i="0.0.217"/><path id="Fill 578" fill-rule="evenodd" clip-rule="evenodd" d="M111.659 39.9416C112.129 41.3956 109.984 41.8016 109.513 40.4906C109.344 39.2056 111.114 38.8236 111.659 39.9416" fill="#E4BFAC" blush:i="0.0.218"/><path id="Fill 580" fill-rule="evenodd" clip-rule="evenodd" d="M98.38 56.7922C98.355 57.8082 96.855 57.5842 96.331 57.0452C95.479 55.3932 98.257 55.2252 98.38 56.7922" fill="#E4BFAC" blush:i="0.0.219"/><path id="Fill 582" fill-rule="evenodd" clip-rule="evenodd" d="M105.031 42.2785C103.525 42.5115 104.828 45.4085 103.418 42.9755C104.576 40.9255 100.97 43.1735 101.218 41.9275C100.041 38.4695 102.828 42.9685 105.031 42.2785" fill="#E6C3B2" blush:i="0.0.220"/><path id="Fill 584" fill-rule="evenodd" clip-rule="evenodd" d="M143.176 56.1428C143.637 55.0498 145.394 55.3678 145.436 56.3358C145.149 57.8538 143.528 57.3908 143.176 56.1428" fill="#E6C3B2" blush:i="0.0.221"/><path id="Fill 586" fill-rule="evenodd" clip-rule="evenodd" d="M128.308 41.0031C128.658 40.2301 127.596 39.1701 126.944 39.3991C127.801 36.7041 131.015 40.8721 128.308 41.0031" fill="#E4BFAC" blush:i="0.0.222"/><path id="Fill 588" fill-rule="evenodd" clip-rule="evenodd" d="M130.827 28.34C131.22 26.727 133.553 27.365 133.041 28.955C132.575 30.254 131.113 29.139 130.827 28.34" fill="#E4BFAC" blush:i="0.0.223"/><path id="Fill 590" fill-rule="evenodd" clip-rule="evenodd" d="M143.577 45.5539C142.575 46.7229 141.039 44.8389 141.987 43.8059C143.811 44.2699 143.741 43.6709 143.577 45.5539" fill="#E4BFAC" blush:i="0.0.224"/><path id="Fill 592" fill-rule="evenodd" clip-rule="evenodd" d="M92.0057 64.634C91.8607 63.081 94.5147 63.801 93.9977 64.675C94.3127 65.672 91.9207 65.945 92.0057 64.634" fill="#E4BFAC" blush:i="0.0.225"/><path id="Fill 594" fill-rule="evenodd" clip-rule="evenodd" d="M103.424 56.4611C104.151 55.8351 104.219 54.7741 103.406 54.1411C105.79 53.1341 105.85 57.0391 103.424 56.4611" fill="#E4BFAC" blush:i="0.0.226"/><path id="Fill 596" fill-rule="evenodd" clip-rule="evenodd" d="M102.695 97.8781C102.738 96.2431 105.043 96.6941 104.583 98.1711C104.499 98.8921 102.549 98.9111 102.695 97.8781" fill="#FEBEBA" blush:i="0.0.227"/><path id="Fill 598" fill-rule="evenodd" clip-rule="evenodd" d="M117.066 36.8049C117.843 39.7069 114.308 38.7489 115.286 36.3549C115.791 36.4089 116.247 36.6989 117.066 36.8049" fill="#E4BFAC" blush:i="0.0.228"/><path id="Fill 600" fill-rule="evenodd" clip-rule="evenodd" d="M141.905 35.4455C140.778 35.3325 140.42 33.7285 141.658 33.3885C142.669 33.3425 143.422 35.5805 141.905 35.4455" fill="#E4BFAC" blush:i="0.0.229"/><path id="Fill 602" fill-rule="evenodd" clip-rule="evenodd" d="M145.82 90.3742C144.992 89.7532 144.503 88.8472 145.92 88.5742C147.54 88.0202 147.205 91.3532 145.82 90.3742" fill="#E5C1AF" blush:i="0.0.230"/><path id="Fill 604" fill-rule="evenodd" clip-rule="evenodd" d="M132.792 89.4826C132.664 90.6026 130.649 90.3626 130.838 89.2526C130.786 88.0666 133.05 88.2666 132.792 89.4826" fill="#FEBEBA" blush:i="0.0.231"/><path id="Fill 606" fill-rule="evenodd" clip-rule="evenodd" d="M131.963 104.491C132.654 104.073 134.139 103.797 133.913 105.09C133.497 106.604 130.934 105.268 131.963 104.491" fill="#E5C1AF" blush:i="0.0.232"/><path id="Fill 608" fill-rule="evenodd" clip-rule="evenodd" d="M134.554 43.0012C133.828 42.6232 133.207 42.9342 132.695 43.5472C130.873 41.5542 134.755 40.7612 134.554 43.0012" fill="#E4BFAC" blush:i="0.0.233"/><path id="Fill 610" fill-rule="evenodd" clip-rule="evenodd" d="M147.974 40.1242C146.141 39.5452 147.349 37.8732 148.761 38.9332C149.834 39.5642 148.552 41.0592 147.974 40.1242" fill="#E4BFAC" blush:i="0.0.234"/><path id="Fill 612" fill-rule="evenodd" clip-rule="evenodd" d="M143.951 96.9455C144.872 97.1845 145.627 98.3515 144.481 98.8355C143.032 99.1365 142.684 97.5925 143.951 96.9455" fill="#E6C3B2" blush:i="0.0.235"/><path id="Fill 614" fill-rule="evenodd" clip-rule="evenodd" d="M149.22 92.2541C152.01 91.6921 149.993 96.4391 148.188 93.9931C148.161 92.1961 148.796 92.4301 149.014 93.8541C149.915 94.8231 150.354 92.4471 149.22 92.2541" fill="#F4D3CA" blush:i="0.0.236"/><path id="Fill 616" fill-rule="evenodd" clip-rule="evenodd" d="M115.89 120.679C115.665 119.149 117.583 118.76 117.865 120.317C117.723 121.713 116.658 121.604 115.89 120.679" fill="#E4BFAC" blush:i="0.0.237"/><path id="Fill 618" fill-rule="evenodd" clip-rule="evenodd" d="M115.727 50.5432C116.028 52.3832 113.397 51.7872 113.938 50.2012C114.292 49.5712 115.379 50.0142 115.727 50.5432" fill="#E5C1AF" blush:i="0.0.238"/><path id="Fill 620" fill-rule="evenodd" clip-rule="evenodd" d="M129.635 29.0695C129.608 29.9935 127.849 30.0705 127.63 29.3315C127.079 27.6445 129.343 27.5145 129.635 29.0695" fill="#FEBEBA" blush:i="0.0.239"/><path id="Fill 622" fill-rule="evenodd" clip-rule="evenodd" d="M108.893 39.1359C108.27 38.6279 107.048 38.7329 107.922 37.6699C109.3 36.5909 110.597 39.5829 108.893 39.1359" fill="#E4BFAC" blush:i="0.0.240"/><path id="Fill 624" fill-rule="evenodd" clip-rule="evenodd" d="M120.404 36.1643C122.144 34.0773 122.353 39.2853 120.739 37.7923C120.293 37.2553 120.051 36.8173 120.404 36.1643" fill="#E4BFAC" blush:i="0.0.241"/><path id="Fill 626" fill-rule="evenodd" clip-rule="evenodd" d="M127.132 36.0744C126.438 36.8494 126.901 37.7114 127.156 38.2454C124.852 39.2004 125.228 34.2434 127.132 36.0744" fill="#E4BFAC" blush:i="0.0.242"/><path id="Fill 628" fill-rule="evenodd" clip-rule="evenodd" d="M141.214 31.7736C139.884 31.7426 139.871 30.3776 141.07 29.9316C142.481 29.8766 142.821 31.9446 141.214 31.7736" fill="#E4BFAC" blush:i="0.0.243"/><path id="Fill 630" fill-rule="evenodd" clip-rule="evenodd" d="M107.277 34.3186C108.094 34.6946 108.353 34.9596 107.762 35.8156C106.518 37.4746 105.087 33.8686 107.277 34.3186" fill="#E4BFAC" blush:i="0.0.244"/><path id="Fill 632" fill-rule="evenodd" clip-rule="evenodd" d="M115.55 61.6867C115.457 62.8347 113.824 62.4187 113.665 61.6187C113.783 60.1527 115.217 60.6147 115.55 61.6867" fill="#E5C1AF" blush:i="0.0.245"/><path id="Fill 634" fill-rule="evenodd" clip-rule="evenodd" d="M100.652 39.2443C100.253 40.2473 98.9677 39.7433 98.8027 38.8813C99.0087 37.4953 100.424 38.2153 100.652 39.2443" fill="#E6C3B2" blush:i="0.0.246"/><path id="Fill 636" fill-rule="evenodd" clip-rule="evenodd" d="M149.22 92.2541C150.64 92.1821 149.989 94.4421 149.301 94.3041C148.551 93.8741 148.342 92.6211 149.22 92.2541" fill="#FEBEBA" blush:i="0.0.247"/><path id="Fill 638" fill-rule="evenodd" clip-rule="evenodd" d="M132.824 106.732C134.179 107.37 132.171 109.317 131.657 108.072C131.308 107.279 132.297 107.029 132.824 106.732" fill="#E6C3B2" blush:i="0.0.248"/><path id="Fill 640" fill-rule="evenodd" clip-rule="evenodd" d="M118.072 55.4934C119.094 55.8204 120.326 55.7564 119.578 57.1934C118.747 57.3014 116.991 56.3604 118.072 55.4934" fill="#E5C1AF" blush:i="0.0.249"/><path id="Fill 642" fill-rule="evenodd" clip-rule="evenodd" d="M118.303 73.9104C118.396 73.2624 118.116 72.8104 117.303 72.6564C117.588 70.6244 120.58 73.4094 118.303 73.9104" fill="#E4BFAC" blush:i="0.0.250"/><path id="Fill 644" fill-rule="evenodd" clip-rule="evenodd" d="M135.75 37.3361C137.253 38.1381 137.925 37.2891 137.373 35.9011C139.63 37.0581 136.529 39.6771 135.75 37.3361" fill="#F4D3CA" blush:i="0.0.251"/><path id="Fill 646" fill-rule="evenodd" clip-rule="evenodd" d="M95.867 53.7766C97.22 54.1426 95.918 55.4766 95.147 55.3216C93.906 54.7446 94.832 53.4196 95.867 53.7766" fill="#FEBEBA" blush:i="0.0.252"/><path id="Fill 648" fill-rule="evenodd" clip-rule="evenodd" d="M115.542 73.7453C115.755 74.6283 115.353 75.8843 114.373 75.3663C113.323 74.3763 114.484 73.4113 115.542 73.7453" fill="#E4BFAC" blush:i="0.0.253"/><path id="Fill 650" fill-rule="evenodd" clip-rule="evenodd" d="M115.892 39.8576C115.026 38.5926 111.198 39.1846 112.955 38.7206C115.622 36.1166 112.432 37.2736 115.892 39.8576" fill="#F4D3CA" blush:i="0.0.254"/><path id="Fill 652" fill-rule="evenodd" clip-rule="evenodd" d="M118.596 38.5041C119.646 37.8191 120.806 38.2321 120.013 39.4791C119.252 39.9151 117.874 39.2511 118.596 38.5041" fill="#E4BFAC" blush:i="0.0.255"/><path id="Fill 654" fill-rule="evenodd" clip-rule="evenodd" d="M134.495 75.0158C135.433 73.8088 134.876 72.8288 133.431 72.9378C134.444 70.6948 136.847 74.6448 134.495 75.0158" fill="#E6C3B2" blush:i="0.0.256"/><path id="Fill 656" fill-rule="evenodd" clip-rule="evenodd" d="M101.435 71.8566C104.497 70.0736 102.551 75.9756 101.006 73.9336C102.682 74.3116 103.66 70.8126 101.435 71.8566" fill="#E6C3B2" blush:i="0.0.257"/><path id="Fill 658" fill-rule="evenodd" clip-rule="evenodd" d="M115.812 90.0265C116.081 91.2015 114.224 90.8385 113.952 90.2025C113.884 88.7475 115.289 89.1355 115.812 90.0265" fill="#E5C1AF" blush:i="0.0.258"/><path id="Fill 660" fill-rule="evenodd" clip-rule="evenodd" d="M117.865 120.316C117.21 119.411 116.343 118.861 115.886 120.511C114.893 118.738 118.256 118.002 117.865 120.316" fill="#F4D3CA" blush:i="0.0.259"/><path id="Fill 662" fill-rule="evenodd" clip-rule="evenodd" d="M98.9469 48.8586C99.3719 49.4666 100.358 49.8726 100.978 49.5756C100.863 50.9116 98.4429 50.4276 98.9469 48.8586" fill="#E5C1AF" blush:i="0.0.260"/><path id="Fill 664" fill-rule="evenodd" clip-rule="evenodd" d="M101.982 60.0764C102.713 61.0284 103.723 60.9114 104.482 60.2564C108.984 61.5654 101.912 61.5714 101.982 60.0764" fill="#F4D3CA" blush:i="0.0.261"/><path id="Fill 666" fill-rule="evenodd" clip-rule="evenodd" d="M117.066 36.8049C115.599 36.9079 115.269 36.6079 115.732 35.3559C115.983 35.9139 117.58 35.9939 117.066 36.8049" fill="#F4D3CA" blush:i="0.0.262"/><path id="Fill 668" fill-rule="evenodd" clip-rule="evenodd" d="M113.638 40.0324C113.775 40.9084 116.057 41.3434 114.793 41.2714C114.409 43.7664 113.805 41.6294 113.638 40.0324" fill="#F4D3CA" blush:i="0.0.263"/><path id="Fill 670" fill-rule="evenodd" clip-rule="evenodd" d="M94.609 52.2609C93.517 51.9069 95.544 50.5639 93.707 50.2749C94.808 49.3499 95.743 51.3639 94.609 52.2609" fill="#F4D3CA" blush:i="0.0.264"/><path id="Fill 672" fill-rule="evenodd" clip-rule="evenodd" d="M146.8 46.2414C145.104 46.5134 143.567 46.3464 145.896 45.5054C146.341 44.7484 146.114 46.0954 146.8 46.2414" fill="#F4D3CA" blush:i="0.0.265"/><path id="Fill 674" fill-rule="evenodd" clip-rule="evenodd" d="M131.344 75.8215C132.264 76.7305 132.756 76.1155 133.33 75.9965C134.104 79.2925 133.344 77.2925 131.344 75.8215" fill="#F4D3CA" blush:i="0.0.266"/><path id="Fill 676" fill-rule="evenodd" clip-rule="evenodd" d="M108.893 39.1359C110.964 39.2209 112.728 39.3829 110.075 39.6399C108.895 40.8509 109.671 40.1649 108.893 39.1359" fill="#F4D3CA" blush:i="0.0.267"/><path id="Fill 678" fill-rule="evenodd" clip-rule="evenodd" d="M125.334 37.0666C126.152 37.5926 126.182 38.6036 127.397 38.1406C126.321 39.0786 124.884 38.4876 125.334 37.0666" fill="#F4D3CA" blush:i="0.0.268"/><path id="Fill 680" fill-rule="evenodd" clip-rule="evenodd" d="M140.601 41.0285C141.587 41.4455 142.286 40.5045 142.227 39.6725C143.189 40.5895 141.516 42.5285 140.601 41.0285" fill="#F4D3CA" blush:i="0.0.269"/><path id="Fill 682" fill-rule="evenodd" clip-rule="evenodd" d="M104.669 80.4025C104.718 79.9825 105.538 79.4955 104.71 79.3785C106.473 77.9655 106.221 80.4955 104.669 80.4025" fill="#E5C1AF" blush:i="0.0.270"/><path id="Fill 684" fill-rule="evenodd" clip-rule="evenodd" d="M127.132 36.0744C126.576 35.6314 125.479 35.9524 125.864 36.6684C123.861 37.1874 127.827 33.6734 127.132 36.0744" fill="#F4D3CA" blush:i="0.0.271"/><path id="Fill 686" fill-rule="evenodd" clip-rule="evenodd" d="M95.8669 53.7766C95.1819 53.7486 94.1339 54.3666 94.9709 55.0706C94.1379 56.9256 93.8209 52.4276 95.8669 53.7766" fill="#F4D3CA" blush:i="0.0.272"/><path id="Fill 688" fill-rule="evenodd" clip-rule="evenodd" d="M114.918 89.3849C112.499 90.3699 115.69 90.3529 115.904 90.8189C113.835 92.1159 113.06 88.0179 114.918 89.3849" fill="#F4D3CA" blush:i="0.0.273"/><path id="Fill 690" fill-rule="evenodd" clip-rule="evenodd" d="M105.019 44.6457C105.54 44.3387 106.824 44.0127 105.936 42.6347C106.228 41.1707 107.269 45.9117 105.019 44.6457" fill="#E6C3B2" blush:i="0.0.274"/><path id="Fill 692" fill-rule="evenodd" clip-rule="evenodd" d="M124.348 35.7189C126.134 35.4869 123.384 37.1199 124.619 37.6149C123.307 38.1029 123.949 36.4249 124.348 35.7189" fill="#F4D3CA" blush:i="0.0.275"/><path id="Fill 694" fill-rule="evenodd" clip-rule="evenodd" d="M141.07 29.9318C140.753 30.5198 139.671 30.8428 140.711 31.6188C140.056 32.8578 139.306 29.5508 141.07 29.9318" fill="#E6C3B2" blush:i="0.0.276"/><path id="Fill 696" fill-rule="evenodd" clip-rule="evenodd" d="M130.828 28.34C131.657 29.277 132.515 30.168 133.166 28.428C133.505 30.236 130.535 29.956 130.828 28.34" fill="#F4D3CA" blush:i="0.0.277"/><path id="Fill 698" fill-rule="evenodd" clip-rule="evenodd" d="M119.604 56.9563C119.967 56.1323 118.845 55.4883 119.846 54.8643C120.023 55.6853 120.741 56.3433 119.604 56.9563" fill="#F4D3CA" blush:i="0.0.278"/><path id="Fill 700" fill-rule="evenodd" clip-rule="evenodd" d="M103.226 38.5803C103.677 37.4473 102.828 36.9663 102.145 36.3343C103.116 35.7903 104.435 37.9473 103.226 38.5803" fill="#F4D3CA" blush:i="0.0.279"/><path id="Fill 702" fill-rule="evenodd" clip-rule="evenodd" d="M104.577 74.1369C104.942 73.8759 105.613 73.7889 105.327 73.1979C105.658 70.8699 106.508 75.2849 104.577 74.1369" fill="#F4D3CA" blush:i="0.0.280"/><path id="Fill 704" fill-rule="evenodd" clip-rule="evenodd" d="M116.54 44.175C116.18 43.966 115.003 43.099 115.512 42.369C115.726 42.689 117.817 44.737 116.54 44.175" fill="#F4D3CA" blush:i="0.0.281"/><path id="Fill 706" fill-rule="evenodd" clip-rule="evenodd" d="M115.276 36.5266C115.209 37.6126 115.619 39.0956 116.972 38.4156C116.224 39.8486 114.335 37.7906 115.276 36.5266" fill="#F4D3CA" blush:i="0.0.282"/><path id="Fill 708" fill-rule="evenodd" clip-rule="evenodd" d="M115.175 73.6486C114.333 74.0486 113.585 74.2946 114.372 75.3676C112.83 75.0076 113.972 73.1756 115.175 73.6486" fill="#E6C3B2" blush:i="0.0.283"/><path id="Fill 710" fill-rule="evenodd" clip-rule="evenodd" d="M132.612 54.8684C131.627 53.9434 133.193 51.9764 134.232 53.1684C132.709 52.8004 132.655 53.6374 132.612 54.8684" fill="#F4D3CA" blush:i="0.0.284"/><path id="Fill 712" fill-rule="evenodd" clip-rule="evenodd" d="M152.201 44.0764C151.517 44.0294 150.902 44.3014 150.842 45.0764C149.604 43.9394 151.373 43.5254 152.201 44.0764" fill="#F4D3CA" blush:i="0.0.285"/><path id="Fill 714" fill-rule="evenodd" clip-rule="evenodd" d="M145.191 108.54C144.774 107.993 143.588 107.275 144.981 107.733C146.511 108.415 145.891 108.637 145.191 108.54" fill="#F4D3CA" blush:i="0.0.286"/><path id="Fill 716" fill-rule="evenodd" clip-rule="evenodd" d="M129.635 29.0695C129.272 28.7585 128.76 27.6655 127.963 28.2145C127.51 27.3325 130.206 27.9085 129.635 29.0695" fill="#F4D3CA" blush:i="0.0.287"/><path id="Fill 718" fill-rule="evenodd" clip-rule="evenodd" d="M106.72 36.0881C107.196 36.0371 108.012 36.0551 107.842 35.1091C108.619 33.9901 107.73 37.5921 106.72 36.0881" fill="#E6C3B2" blush:i="0.0.288"/><path id="Fill 720" fill-rule="evenodd" clip-rule="evenodd" d="M147.368 42.0012C148.318 42.0982 146.912 43.2712 147.659 43.4592C147.546 44.8712 146.962 42.6112 147.368 42.0012" fill="#F4D3CA" blush:i="0.0.289"/><path id="Fill 722" fill-rule="evenodd" clip-rule="evenodd" d="M147.885 41.4006C147.538 41.8316 146.977 42.2076 146.538 41.6556C147.019 41.6036 147.993 40.5326 147.885 41.4006" fill="#F4D3CA" blush:i="0.0.290"/><path id="Fill 724" fill-rule="evenodd" clip-rule="evenodd" d="M132.167 27.3518C131.338 27.1108 131.453 28.2578 130.831 28.1738C130.759 27.4538 131.727 26.4628 132.167 27.3518" fill="#F4D3CA" blush:i="0.0.291"/><path id="Fill 726" fill-rule="evenodd" clip-rule="evenodd" d="M136.297 30.7863C136.303 31.1263 136.216 31.4813 136.708 31.6223C137.631 33.5563 135.13 30.6373 136.297 30.7863" fill="#F4D3CA" blush:i="0.0.292"/><path id="Fill 728" fill-rule="evenodd" clip-rule="evenodd" d="M120.738 37.7912C121.304 38.0782 121.866 37.8142 122.452 37.9532C121.956 38.4502 120.957 38.6332 120.738 37.7912" fill="#E6C3B2" blush:i="0.0.293"/><path id="Fill 730" fill-rule="evenodd" clip-rule="evenodd" d="M128.119 29.6906C128.767 29.6956 129.017 29.7766 129.627 29.3266C129.374 30.0616 128.717 30.5426 128.119 29.6906" fill="#F4D3CA" blush:i="0.0.294"/><path id="Fill 732" fill-rule="evenodd" clip-rule="evenodd" d="M106.285 34.6359C106.297 34.9679 105.858 35.9599 106.527 35.7489C106.341 37.2269 105.368 34.9999 106.285 34.6359" fill="#E6C3B2" blush:i="0.0.295"/><path id="Fill 734" fill-rule="evenodd" clip-rule="evenodd" d="M137.191 43.8996C136.659 43.6736 135.474 43.5776 135.485 44.3496C134.883 43.4946 137.072 42.9956 137.191 43.8996" fill="#F4D3CA" blush:i="0.0.296"/><path id="Fill 736" fill-rule="evenodd" clip-rule="evenodd" d="M99.2058 41.7482C99.4508 42.2882 99.7858 42.7372 100.381 42.9282C99.4828 43.4662 99.1638 42.4932 99.2058 41.7482" fill="#E6C3B2" blush:i="0.0.297"/><path id="Fill 738" fill-rule="evenodd" clip-rule="evenodd" d="M116.898 41.9123C116.445 42.0043 115.993 42.0973 115.54 42.1893C115.708 41.4303 116.431 41.5083 116.898 41.9123" fill="#F4D3CA" blush:i="0.0.298"/><path id="Fill 740" fill-rule="evenodd" clip-rule="evenodd" d="M137.378 32.1877C138.002 31.8977 138.392 31.7467 138.791 31.1317C138.99 31.8057 137.947 32.5577 137.378 32.1877" fill="#F4D3CA" blush:i="0.0.299"/><path id="Fill 742" fill-rule="evenodd" clip-rule="evenodd" d="M116.376 114.1C117.029 114.086 117.67 113.872 118.129 113.394C118.1 114.25 116.901 114.527 116.376 114.1" fill="#E6C3B2" blush:i="0.0.300"/><path id="Fill 744" fill-rule="evenodd" clip-rule="evenodd" d="M115.642 113.034C116.075 113.297 116.773 113.51 116.264 114.085C115.689 114.091 115.766 113.446 115.642 113.034" fill="#E6C3B2" blush:i="0.0.301"/><path id="Fill 746" fill-rule="evenodd" clip-rule="evenodd" d="M148.424 43.9748C149.104 42.9098 150.825 44.4098 149.192 43.8678C148.851 43.6788 148.831 44.1578 148.424 43.9748" fill="#F4D3CA" blush:i="0.0.302"/><path id="Fill 748" fill-rule="evenodd" clip-rule="evenodd" d="M143.759 43.9836C142.973 44.0166 143.412 43.1496 144.025 43.0896C144.026 43.4166 143.926 43.7056 143.759 43.9836" fill="#F4D3CA" blush:i="0.0.303"/><path id="Fill 750" fill-rule="evenodd" clip-rule="evenodd" d="M129.295 35.0061C129.031 34.4871 129.646 34.2121 129.469 33.7381C129.991 33.8721 129.777 34.8921 129.295 35.0061" fill="#F4D3CA" blush:i="0.0.304"/><path id="Fill 752" fill-rule="evenodd" clip-rule="evenodd" d="M98.0441 45.5998C98.4191 45.6888 98.2441 46.0008 98.2971 46.2218C98.0591 47.5328 97.2761 45.2458 98.0441 45.5998" fill="#F4D3CA" blush:i="0.0.305"/><path id="Fill 754" fill-rule="evenodd" clip-rule="evenodd" d="M118.595 38.5041C118.604 38.6431 118.297 38.8161 118.64 38.9171C118.115 39.8341 117.688 37.8391 118.595 38.5041" fill="#E6C3B2" blush:i="0.0.306"/><path id="Fill 756" fill-rule="evenodd" clip-rule="evenodd" d="M135.394 44.6184C135.857 44.7334 135.876 45.1654 136.023 45.5054C135.52 45.5394 135.341 45.0704 135.394 44.6184" fill="#F4D3CA" blush:i="0.0.307"/><path id="Fill 758" fill-rule="evenodd" clip-rule="evenodd" d="M115.891 120.679C116.283 120.51 116.444 121.075 116.718 121.287C116.321 121.393 115.696 121.217 115.891 120.679" fill="#F4D3CA" blush:i="0.0.308"/><path id="Fill 760" fill-rule="evenodd" clip-rule="evenodd" d="M127.928 34.8303C128.326 35.0703 128.678 35.3463 129.199 35.1793C128.702 35.7283 128.246 35.6033 127.928 34.8303" fill="#F4D3CA" blush:i="0.0.309"/><path id="Fill 762" fill-rule="evenodd" clip-rule="evenodd" d="M116.799 35.8059C116.684 35.4749 116.917 35.5569 117.09 35.5559C118.568 35.3799 116.761 36.4109 116.799 35.8059" fill="#F4D3CA" blush:i="0.0.310"/><path id="Fill 764" fill-rule="evenodd" clip-rule="evenodd" d="M117.967 56.6662C118.348 56.5742 118.558 56.7242 118.596 57.1142C118.238 57.1122 117.661 57.1892 117.967 56.6662" fill="#F4D3CA" blush:i="0.0.311"/><path id="Fill 766" fill-rule="evenodd" clip-rule="evenodd" d="M100.808 40.5715C99.912 40.8835 99.502 40.5125 100.617 40.3335C100.668 40.3265 100.744 40.4875 100.808 40.5715" fill="#E6C3B2" blush:i="0.0.312"/><path id="Fill 768" fill-rule="evenodd" clip-rule="evenodd" d="M118.669 57.132C118.933 57.074 119.515 56.696 119.494 57.199C119.19 57.536 118.926 57.369 118.669 57.132" fill="#F4D3CA" blush:i="0.0.313"/><path id="Fill 770" fill-rule="evenodd" clip-rule="evenodd" d="M98.8288 44.7072C98.9248 45.2812 98.5148 45.1512 98.2028 45.1572C98.1828 44.8012 98.2558 44.7492 98.8288 44.7072" fill="#F4D3CA" blush:i="0.0.314"/><path id="Fill 772" fill-rule="evenodd" clip-rule="evenodd" d="M127.939 38.5988C126.976 39.0418 127.321 38.2168 128.115 38.3198C128.086 38.4188 127.991 38.5038 127.939 38.5988" fill="#F4D3CA" blush:i="0.0.315"/><path id="Fill 774" fill-rule="evenodd" clip-rule="evenodd" d="M142.352 30.8635L141.596 30.0545C142.124 30.1265 142.397 30.4185 142.352 30.8635" fill="#E6C3B2" blush:i="0.0.316"/><path id="Fill 776" fill-rule="evenodd" clip-rule="evenodd" d="M116.716 39.425C116.473 39.644 116.362 40.196 115.991 39.875C116.112 39.53 116.428 39.5 116.716 39.425" fill="#F4D3CA" blush:i="0.0.317"/><path id="Fill 778" fill-rule="evenodd" clip-rule="evenodd" d="M132.166 54.7883C131.944 55.1003 131.589 54.9563 131.263 54.9543C131.532 54.7273 131.788 54.4243 132.166 54.7883" fill="#F4D3CA" blush:i="0.0.318"/><path id="Fill 780" fill-rule="evenodd" clip-rule="evenodd" d="M103.674 73.843C104.223 73.603 104.562 74.739 103.912 74.236C103.815 74.12 103.753 73.975 103.674 73.843" fill="#F4D3CA" blush:i="0.0.319"/><path id="Fill 782" fill-rule="evenodd" clip-rule="evenodd" d="M105.571 78.0598C105.058 78.2828 105.208 77.8268 105.118 77.6168C105.639 77.3858 105.504 77.8268 105.571 78.0598" fill="#E5C1AF" blush:i="0.0.320"/><path id="Fill 784" fill-rule="evenodd" clip-rule="evenodd" d="M104.857 77.5988C104.523 77.5718 104.188 77.5448 103.854 77.5178C104.057 77.3498 104.558 77.3898 104.857 77.5988" fill="#E5C1AF" blush:i="0.0.321"/><path id="Fill 786" fill-rule="evenodd" clip-rule="evenodd" d="M145.92 88.5744C145.7 88.3894 145.81 88.4814 145.92 88.5744C145.389 88.8554 145.165 88.8644 145.92 88.5744" fill="#E6C3B2" blush:i="0.0.322"/><path id="Fill 788" fill-rule="evenodd" clip-rule="evenodd" d="M97.4754 47.6555C97.6214 47.4115 97.5574 46.7355 97.9264 46.9515C97.9574 47.3025 97.8324 47.5525 97.4754 47.6555" fill="#F4D3CA" blush:i="0.0.323"/><path id="Fill 790" fill-rule="evenodd" clip-rule="evenodd" d="M141.213 31.7736C141.49 31.7106 141.768 31.6456 142.046 31.5826C141.792 31.7506 141.6 32.1876 141.213 31.7736" fill="#E6C3B2" blush:i="0.0.324"/><path id="Fill 792" fill-rule="evenodd" clip-rule="evenodd" d="M120.384 36.3273C120.325 36.5753 120.267 36.8243 120.208 37.0723C119.854 36.8663 120.288 36.5913 120.384 36.3273" fill="#E6C3B2" blush:i="0.0.325"/><path id="Fill 794" fill-rule="evenodd" clip-rule="evenodd" d="M115.811 40.0285C115.839 40.8635 115.414 41.2355 115.543 40.0615C115.544 40.0465 115.718 40.0395 115.811 40.0285" fill="#F4D3CA" blush:i="0.0.326"/><path id="Fill 796" fill-rule="evenodd" clip-rule="evenodd" d="M144.103 42.5539C143.47 42.5549 143.828 42.4419 143.931 42.0179C144.233 42.1169 144.015 42.3849 144.103 42.5539" fill="#F4D3CA" blush:i="0.0.327"/><path id="Fill 798" fill-rule="evenodd" clip-rule="evenodd" d="M147.974 40.1242C147.978 40.3352 147.969 40.5452 147.965 40.7552C147.517 40.4222 147.519 40.3222 147.974 40.1242" fill="#F4D3CA" blush:i="0.0.328"/><path id="Fill 800" fill-rule="evenodd" clip-rule="evenodd" d="M143.753 44.4367C143.852 43.9247 143.916 44.1507 144.167 44.3117C144.33 44.4697 143.884 44.7327 143.753 44.4367" fill="#F4D3CA" blush:i="0.0.329"/><path id="Fill 802" fill-rule="evenodd" clip-rule="evenodd" d="M149.052 92.2521C149.219 92.6501 148.903 92.5891 148.694 92.6261C148.659 92.4351 148.727 92.0531 149.052 92.2521" fill="#F4D3CA" blush:i="0.0.330"/><path id="Fill 804" fill-rule="evenodd" clip-rule="evenodd" d="M104.144 44.257C104.418 44.251 104.694 44.24 104.761 44.605C104.502 44.583 104.234 44.578 104.144 44.257" fill="#E6C3B2" blush:i="0.0.331"/><path id="Fill 806" fill-rule="evenodd" clip-rule="evenodd" d="M144.223 108.452C144.588 108.62 144.5 108.843 144.297 109.078C144.272 108.869 144.247 108.661 144.223 108.452" fill="#F4D3CA" blush:i="0.0.332"/><path id="Fill 808" fill-rule="evenodd" clip-rule="evenodd" d="M103.771 77.5285C103.818 77.8705 103.698 78.0715 103.326 78.0645L103.771 77.5285Z" fill="#E5C1AF" blush:i="0.0.333"/><path id="Fill 810" fill-rule="evenodd" clip-rule="evenodd" d="M120.208 37.0705C120.52 37.1155 120.648 37.2905 120.582 37.6015C120.458 37.4245 120.333 37.2475 120.208 37.0705" fill="#E6C3B2" blush:i="0.0.334"/><path id="Fill 812" fill-rule="evenodd" clip-rule="evenodd" d="M145.1 89.0187C145.071 89.2607 145.042 89.5037 145.013 89.7467C144.679 89.4597 144.853 89.2357 145.1 89.0187" fill="#E6C3B2" blush:i="0.0.335"/><path id="Fill 814" fill-rule="evenodd" clip-rule="evenodd" d="M133.955 95.4142C133.757 95.3222 133.448 95.3932 133.424 95.0492C133.601 95.1702 133.778 95.2922 133.955 95.4142" fill="#E5C1AF" blush:i="0.0.336"/><path id="Fill 816" fill-rule="evenodd" clip-rule="evenodd" d="M115.726 89.926C115.633 89.81 115.539 89.693 115.446 89.576C115.718 89.549 115.893 89.6 115.726 89.926" fill="#F4D3CA" blush:i="0.0.337"/><path id="Fill 818" fill-rule="evenodd" clip-rule="evenodd" d="M137.525 44.1711C137.242 44.2051 137.208 44.1041 137.375 43.8941C137.603 43.8661 137.597 43.9951 137.525 44.1711" fill="#F4D3CA" blush:i="0.0.338"/><path id="Fill 820" fill-rule="evenodd" clip-rule="evenodd" d="M109.188 37.3381L109.601 37.4051C109.474 37.5851 109.317 37.5601 109.188 37.3381" fill="#E4BFAC" blush:i="0.0.339"/><path id="Fill 822" fill-rule="evenodd" clip-rule="evenodd" d="M115.54 32.5715C115.421 32.4515 115.302 32.3325 115.183 32.2125C115.468 32.1665 115.582 32.2905 115.54 32.5715" fill="#E6C3B2" blush:i="0.0.340"/><path id="Fill 824" fill-rule="evenodd" clip-rule="evenodd" d="M129.365 33.5656C129.281 33.4426 129.197 33.3186 129.112 33.1946C129.558 33.0716 129.317 33.4186 129.365 33.5656" fill="#F4D3CA" blush:i="0.0.341"/><path id="Fill 826" fill-rule="evenodd" clip-rule="evenodd" d="M144.393 110.153C144.54 110.211 144.687 110.269 144.835 110.328C144.687 110.269 144.54 110.211 144.393 110.153" fill="#F4D3CA" blush:i="0.0.342"/><path id="Fill 828" fill-rule="evenodd" clip-rule="evenodd" d="M133.523 72.759C133.461 72.877 133.492 72.819 133.523 72.759C133.975 72.749 133.687 72.845 133.523 72.759" fill="#E4BFAC" blush:i="0.0.343"/><path id="Fill 830" fill-rule="evenodd" clip-rule="evenodd" d="M138.814 30.8625C138.834 30.7145 138.824 30.7885 138.814 30.8625C138.644 30.7495 138.613 30.6665 138.814 30.8625" fill="#F4D3CA" blush:i="0.0.344"/><path id="Fill 832" fill-rule="evenodd" clip-rule="evenodd" d="M114.372 75.3664C114.526 75.4124 114.775 75.2384 114.81 75.5564C114.664 75.4934 114.518 75.4294 114.372 75.3664" fill="#E6C3B2" blush:i="0.0.345"/><path id="Fill 834" fill-rule="evenodd" clip-rule="evenodd" d="M137.658 44.7219C137.648 44.5989 137.639 44.4769 137.629 44.3539C137.946 44.4519 137.806 44.5859 137.658 44.7219" fill="#F4D3CA" blush:i="0.0.346"/><path id="Fill 836" fill-rule="evenodd" clip-rule="evenodd" d="M96.2064 53.7893C96.2264 53.6313 96.2164 53.7103 96.2064 53.7893C95.9434 53.8303 96.1544 53.6623 96.2064 53.7893" fill="#F4D3CA" blush:i="0.0.347"/><path id="Fill 838" fill-rule="evenodd" clip-rule="evenodd" d="M117.158 39.5832C117.069 39.5232 116.979 39.4642 116.889 39.4042C117.144 39.2152 117.148 39.4042 117.158 39.5832" fill="#F4D3CA" blush:i="0.0.348"/><path id="Fill 840" fill-rule="evenodd" clip-rule="evenodd" d="M144.031 43.007C144.055 42.884 144.078 42.762 144.102 42.64C144.078 42.762 144.055 42.884 144.031 43.007" fill="#F4D3CA" blush:i="0.0.349"/><path id="Fill 842" fill-rule="evenodd" clip-rule="evenodd" d="M142.222 31.3068C142.109 31.1118 142.174 31.0288 142.389 31.0408C142.334 31.1288 142.278 31.2178 142.222 31.3068" fill="#E6C3B2" blush:i="0.0.350"/><path id="Fill 844" fill-rule="evenodd" clip-rule="evenodd" d="M144.478 43.9113C144.468 44.0923 144.448 44.2573 144.207 44.0933L144.478 43.9113Z" fill="#F4D3CA" blush:i="0.0.351"/><path id="Fill 846" fill-rule="evenodd" clip-rule="evenodd" d="M95.4162 55.3215C95.4222 55.2005 95.3822 55.0295 95.6072 55.1485C95.5432 55.2065 95.4792 55.2635 95.4162 55.3215" fill="#F4D3CA" blush:i="0.0.352"/><path id="Fill 848" fill-rule="evenodd" clip-rule="evenodd" d="M144.56 43.6301C144.508 43.8141 144.534 43.7221 144.56 43.6301C144.783 43.7751 144.713 43.8571 144.56 43.6301" fill="#F4D3CA" blush:i="0.0.353"/><path id="Fill 850" fill-rule="evenodd" clip-rule="evenodd" d="M141.595 30.0549C141.472 30.0169 141.35 29.9799 141.227 29.9429C141.35 29.9799 141.472 30.0169 141.595 30.0549" fill="#E6C3B2" blush:i="0.0.354"/><path id="Fill 852" fill-rule="evenodd" clip-rule="evenodd" d="M115.717 112.314C115.672 112.405 115.627 112.497 115.582 112.587C115.627 112.497 115.672 112.405 115.717 112.314" fill="#E6C3B2" blush:i="0.0.355"/><path id="Fill 854" fill-rule="evenodd" clip-rule="evenodd" d="M133.134 28.175C132.953 28.157 132.788 28.13 132.962 27.895C133.019 27.988 133.077 28.082 133.134 28.175" fill="#F4D3CA" blush:i="0.0.356"/><path id="Fill 856" fill-rule="evenodd" clip-rule="evenodd" d="M106.471 34.3811C106.412 34.4691 106.599 34.7361 106.284 34.6361C106.346 34.5511 106.409 34.4661 106.471 34.3811" fill="#E6C3B2" blush:i="0.0.357"/><path id="Fill 858" fill-rule="evenodd" clip-rule="evenodd" d="M107.003 34.2814C106.904 34.3884 106.806 34.4814 106.73 34.2614C106.821 34.2684 106.912 34.2744 107.003 34.2814" fill="#E6C3B2" blush:i="0.0.358"/><path id="Fill 860" fill-rule="evenodd" clip-rule="evenodd" d="M105.829 78.2424C105.743 78.1804 105.657 78.1204 105.57 78.0584C105.657 78.1204 105.743 78.1804 105.829 78.2424" fill="#E5C1AF" blush:i="0.0.359"/><path id="Fill 862" fill-rule="evenodd" clip-rule="evenodd" d="M118.118 113.127C118.111 113.005 118.115 113.065 118.118 113.127C117.927 113.087 117.946 113.023 118.118 113.127" fill="#E6C3B2" blush:i="0.0.360"/><path id="Fill 864" fill-rule="evenodd" clip-rule="evenodd" d="M99.3659 41.1945C99.3179 41.2875 99.2699 41.3795 99.2219 41.4715C99.2699 41.3795 99.3179 41.2875 99.3659 41.1945" fill="#E6C3B2" blush:i="0.0.361"/><path id="Fill 866" fill-rule="evenodd" clip-rule="evenodd" d="M144.222 109.611C144.271 109.677 144.321 109.745 144.37 109.811C144.321 109.745 144.271 109.677 144.222 109.611" fill="#F4D3CA" blush:i="0.0.362"/><path id="Fill 868" fill-rule="evenodd" clip-rule="evenodd" d="M112.846 40.3859C112.785 40.4169 112.724 40.4479 112.664 40.4809C112.724 40.4479 112.785 40.4169 112.846 40.3859" fill="#F4D3CA" blush:i="0.0.363"/><path id="Fill 870" fill-rule="evenodd" clip-rule="evenodd" d="M112.496 40.507C112.43 40.556 112.364 40.606 112.299 40.655C112.364 40.606 112.43 40.556 112.496 40.507" fill="#F4D3CA" blush:i="0.0.364"/><path id="Fill 872" fill-rule="evenodd" clip-rule="evenodd" d="M136.295 45.5227C136.356 45.5497 136.416 45.5777 136.476 45.6057C136.416 45.5777 136.356 45.5497 136.295 45.5227" fill="#F4D3CA" blush:i="0.0.365"/><path id="Fill 874" fill-rule="evenodd" clip-rule="evenodd" d="M119.398 54.4016C119.424 54.3476 119.451 54.2936 119.477 54.2386C119.451 54.2936 119.424 54.3476 119.398 54.4016" fill="#F4D3CA" blush:i="0.0.366"/><path id="Fill 876" fill-rule="evenodd" clip-rule="evenodd" d="M99.5293 41.0734C99.4853 41.0884 99.5073 41.0824 99.5293 41.0734C99.5093 41.1874 99.4883 41.2334 99.5293 41.0734" fill="#E6C3B2" blush:i="0.0.367"/><path id="Fill 878" fill-rule="evenodd" clip-rule="evenodd" d="M115.18 89.3908C115.159 89.3928 115.112 89.3928 115.091 89.3888C115.123 89.2708 115.152 89.2718 115.18 89.3908" fill="#F4D3CA" blush:i="0.0.368"/><path id="Fill 880" fill-rule="evenodd" clip-rule="evenodd" d="M119.579 57.1936C119.585 57.1336 119.592 57.0736 119.599 57.0136C119.592 57.0736 119.585 57.1336 119.579 57.1936" fill="#F4D3CA" blush:i="0.0.369"/><path id="Fill 882" fill-rule="evenodd" clip-rule="evenodd" d="M126.949 39.3977C126.925 39.4267 126.9 39.4577 126.875 39.4867C126.9 39.4577 126.925 39.4267 126.949 39.3977" fill="#E4BFAC" blush:i="0.0.370"/><path id="Fill 884" fill-rule="evenodd" clip-rule="evenodd" d="M106.016 90.6496C106.018 90.6466 106.016 90.6496 106.016 90.6496C106.045 90.6676 106.047 90.6676 106.016 90.6496" fill="#E5C1AF" blush:i="0.0.371"/><path id="Fill 886" fill-rule="evenodd" clip-rule="evenodd" d="M148.69 92.5158C148.628 92.5258 148.659 92.5208 148.69 92.5158C148.714 92.6508 148.662 92.6058 148.69 92.5158" fill="#FEBEBA" blush:i="0.0.372"/><path id="Fill 888" fill-rule="evenodd" clip-rule="evenodd" d="M125.689 40.4943L125.598 40.5703L125.689 40.4943Z" fill="#E5C1AF" blush:i="0.0.373"/><path id="Fill 890" fill-rule="evenodd" clip-rule="evenodd" d="M117.236 98.1086C117.214 98.0856 117.192 98.0626 117.171 98.0396C117.192 98.0626 117.214 98.0856 117.236 98.1086" fill="#E4BFAC" blush:i="0.0.374"/><path id="Fill 892" fill-rule="evenodd" clip-rule="evenodd" d="M113.833 42.8176C113.865 42.7896 113.897 42.7616 113.929 42.7336C113.897 42.7616 113.865 42.7896 113.833 42.8176" fill="#F4D3CA" blush:i="0.0.375"/><path id="Fill 894" fill-rule="evenodd" clip-rule="evenodd" d="M131.803 85.0979C131.775 85.0979 131.747 85.0979 131.719 85.0969C131.747 85.0869 131.775 85.0869 131.803 85.0979" fill="#FEBEBA" blush:i="0.0.376"/><path id="Fill 896" fill-rule="evenodd" clip-rule="evenodd" d="M135.576 45.426C135.556 45.461 135.556 45.464 135.578 45.428L135.576 45.426Z" fill="#F4D3CA" blush:i="0.0.377"/><path id="Fill 898" fill-rule="evenodd" clip-rule="evenodd" d="M137.572 44.9631C137.562 44.9161 137.566 44.9401 137.572 44.9631C137.511 44.9471 137.507 44.9241 137.572 44.9631" fill="#F4D3CA" blush:i="0.0.378"/><path id="Fill 900" fill-rule="evenodd" clip-rule="evenodd" d="M114.552 36.883C114.583 36.882 114.614 36.881 114.644 36.88C114.614 36.881 114.583 36.882 114.552 36.883" fill="#F4D3CA" blush:i="0.0.379"/><path id="Fill 902" fill-rule="evenodd" clip-rule="evenodd" d="M106.375 36.258C106.407 36.277 106.41 36.277 106.378 36.255L106.375 36.258Z" fill="#E6C3B2" blush:i="0.0.380"/><path id="Fill 904" fill-rule="evenodd" clip-rule="evenodd" d="M114.643 73.5666C114.63 73.5536 114.617 73.5406 114.603 73.5276C114.633 73.5246 114.635 73.5496 114.643 73.5666" fill="#E6C3B2" blush:i="0.0.381"/><path id="Fill 906" fill-rule="evenodd" clip-rule="evenodd" d="M115.279 73.6535C115.245 73.6525 115.21 73.6515 115.176 73.6505C115.21 73.6515 115.245 73.6525 115.279 73.6535" fill="#E6C3B2" blush:i="0.0.382"/><path id="Fill 908" fill-rule="evenodd" clip-rule="evenodd" d="M101.614 77.7014C101.584 77.7044 101.55 77.6954 101.522 77.7044C101.554 77.6764 101.593 77.6844 101.614 77.7014" fill="#E4BFAC" blush:i="0.0.383"/><path id="Fill 910" fill-rule="evenodd" clip-rule="evenodd" d="M119.406 36.8879C119.423 36.8559 119.423 36.8519 119.403 36.8849L119.406 36.8879Z" fill="#FEBEBA" blush:i="0.0.384"/><path id="Fill 912" fill-rule="evenodd" clip-rule="evenodd" d="M133.423 40.7434C132.094 39.3084 133.394 38.4664 134.854 38.9124C134.573 39.9154 134.869 41.0504 133.423 40.7434" fill="#E4BFAC" blush:i="0.0.385"/><path id="Fill 914" fill-rule="evenodd" clip-rule="evenodd" d="M134.679 39.7629C134.713 39.8089 134.852 39.8489 134.787 39.9009C134.751 39.8549 134.714 39.8099 134.679 39.7629" fill="#E4BFAC" blush:i="0.0.386"/><path id="Fill 916" fill-rule="evenodd" clip-rule="evenodd" d="M133.431 40.7482C133.385 40.7962 133.381 40.7952 133.424 40.7432L133.431 40.7482Z" fill="#FEFDFD" blush:i="0.0.387"/><path id="Fill 918" fill-rule="evenodd" clip-rule="evenodd" d="M117.517 64.0393C117.578 63.9183 117.638 63.7973 117.699 63.6763C117.638 63.7973 117.578 63.9183 117.517 64.0393" fill="#FEFDFD" blush:i="0.0.388"/><path id="Fill 920" fill-rule="evenodd" clip-rule="evenodd" d="M117.335 64.1662C117.397 64.1222 117.458 64.0792 117.52 64.0362C117.458 64.0792 117.397 64.1222 117.335 64.1662" fill="#FEFDFD" blush:i="0.0.389"/><path id="Fill 922" fill-rule="evenodd" clip-rule="evenodd" d="M117.699 66.7336C117.679 66.6906 117.596 66.6326 117.668 66.6126C117.681 66.6506 117.679 66.7016 117.699 66.7336" fill="#FEFDFD" blush:i="0.0.390"/><path id="Fill 924" fill-rule="evenodd" clip-rule="evenodd" d="M115.721 42.4611C115.72 42.4601 115.721 42.4611 115.721 42.4611C115.741 42.4231 115.741 42.4221 115.721 42.4611" fill="#F4D3CA" blush:i="0.0.391"/><path id="Fill 926" fill-rule="evenodd" clip-rule="evenodd" d="M102.491 44.2746C102.455 44.2936 102.45 44.2756 102.445 44.2446C102.481 44.2246 102.486 44.2436 102.491 44.2746" fill="#E6C3B2" blush:i="0.0.392"/><path id="Fill 928" fill-rule="evenodd" clip-rule="evenodd" d="M100.6 42.675C100.633 42.652 100.636 42.681 100.64 42.709C100.615 42.709 100.598 42.703 100.6 42.675" fill="#E6C3B2" blush:i="0.0.393"/><path id="Fill 930" fill-rule="evenodd" clip-rule="evenodd" d="M109.778 31.3752C109.71 31.3152 109.763 31.2882 109.826 31.2632C109.864 31.3272 109.851 31.3572 109.778 31.3752" fill="#FEFDFD" blush:i="0.0.394"/><path id="Fill 932" fill-rule="evenodd" clip-rule="evenodd" d="M103.712 84.7189C103.641 84.5919 103.571 84.4639 103.501 84.3359C103.571 84.4639 103.641 84.5919 103.712 84.7189" fill="#FEFDFD" blush:i="0.0.395"/><path id="Fill 934" fill-rule="evenodd" clip-rule="evenodd" d="M135.388 34.9094C135.454 34.9704 135.421 34.9394 135.388 34.9094C135.511 34.8654 135.576 34.8684 135.388 34.9094" fill="#FEFDFD" blush:i="0.0.396"/><path id="Fill 936" fill-rule="evenodd" clip-rule="evenodd" d="M101.256 79.5949C101.266 79.5019 101.275 79.4089 101.285 79.3169C101.275 79.4089 101.266 79.5019 101.256 79.5949" fill="#FEFDFD" blush:i="0.0.397"/><path id="Fill 938" fill-rule="evenodd" clip-rule="evenodd" d="M112.13 36.1613C112.341 36.1123 112.236 36.1373 112.13 36.1613C112.157 35.9403 112.301 36.0113 112.13 36.1613" fill="#FEFDFD" blush:i="0.0.398"/><path id="Fill 940" fill-rule="evenodd" clip-rule="evenodd" d="M113.931 34.7854C113.867 34.8744 113.834 34.8014 113.803 34.7334C113.849 34.6474 113.901 34.6984 113.931 34.7854" fill="#FEFDFD" blush:i="0.0.399"/><path id="Fill 942" fill-rule="evenodd" clip-rule="evenodd" d="M118.775 39.4934V39.4934C118.754 39.5324 118.754 39.5314 118.775 39.4934" fill="#E4BFAC" blush:i="0.0.400"/><path id="Fill 944" fill-rule="evenodd" clip-rule="evenodd" d="M115.9 74.3752C115.901 74.2562 115.901 74.3152 115.9 74.3752C115.738 74.3302 115.779 74.2672 115.9 74.3752" fill="#E4BFAC" blush:i="0.0.401"/><path id="Fill 946" fill-rule="evenodd" clip-rule="evenodd" d="M132.792 44.799C132.834 44.778 132.887 44.696 132.911 44.765C132.872 44.778 132.829 44.782 132.792 44.799" fill="#FEFDFD" blush:i="0.0.402"/><path id="Fill 948" fill-rule="evenodd" clip-rule="evenodd" d="M128.115 38.3205C128.136 38.2825 128.138 38.1725 128.187 38.2275C128.164 38.2535 128.144 38.3255 128.115 38.3205" fill="#F4D3CA" blush:i="0.0.403"/><path id="Fill 952" fill-rule="evenodd" clip-rule="evenodd" d="M112.939 33.9191C112.939 33.9801 112.939 33.9491 112.939 33.9191C112.956 33.9561 112.995 33.9861 112.939 33.9191" fill="#E6C3B2" blush:i="0.0.404"/><path id="Fill 956" fill-rule="evenodd" clip-rule="evenodd" d="M125.337 38.1477C125.297 38.1847 125.296 38.1827 125.332 38.1427L125.337 38.1477Z" fill="#F4D3CA" blush:i="0.0.405"/><path id="Fill 958" fill-rule="evenodd" clip-rule="evenodd" d="M105.085 78.8732C104.911 79.0502 104.831 78.7962 104.967 78.6822C105 78.7342 105.033 78.7882 105.085 78.8732" fill="#E5C1AF" blush:i="0.0.406"/><path id="Fill 960" fill-rule="evenodd" clip-rule="evenodd" d="M115.629 100.181C115.66 100.15 115.691 100.119 115.722 100.088C115.691 100.119 115.66 100.15 115.629 100.181" fill="#FEFDFD" blush:i="0.0.407"/><path id="Fill 962" fill-rule="evenodd" clip-rule="evenodd" d="M143.576 45.5539C143.546 45.5129 143.516 45.4719 143.486 45.4309C143.516 45.4719 143.546 45.5129 143.576 45.5539" fill="#FEFDFD" blush:i="0.0.408"/><path id="Fill 964" fill-rule="evenodd" clip-rule="evenodd" d="M149.503 46.2365C149.489 46.2225 149.475 46.2095 149.461 46.1955C149.491 46.1915 149.498 46.2125 149.503 46.2365" fill="#FEFDFD" blush:i="0.0.409"/><path id="Fill 966" fill-rule="evenodd" clip-rule="evenodd" d="M105.875 44.0246C105.86 43.9826 105.853 43.9676 105.894 43.9626C105.889 43.9806 105.884 43.9976 105.875 44.0246" fill="#E6C3B2" blush:i="0.0.410"/><path id="Fill 968" fill-rule="evenodd" clip-rule="evenodd" d="M100.674 79.9992C100.65 80.0612 100.626 80.0902 100.561 80.0512C100.578 79.9782 100.606 79.9622 100.674 79.9992" fill="#FEFDFD" blush:i="0.0.411"/><path id="Fill 970" fill-rule="evenodd" clip-rule="evenodd" d="M103.951 73.8371C103.963 73.8241 103.976 73.8121 103.988 73.7991C103.989 73.8231 103.971 73.8301 103.951 73.8371" fill="#F4D3CA" blush:i="0.0.412"/><path id="Fill 972" fill-rule="evenodd" clip-rule="evenodd" d="M145.19 108.539C145.178 108.552 145.166 108.564 145.153 108.576C145.152 108.552 145.173 108.547 145.19 108.539" fill="#F4D3CA" blush:i="0.0.413"/><path id="Fill 974" fill-rule="evenodd" clip-rule="evenodd" d="M116.799 35.8059C116.68 35.8139 116.739 35.8099 116.799 35.8059C116.837 36.0469 116.73 35.9349 116.799 35.8059" fill="#FEFDFD" blush:i="0.0.414"/><path id="Fill 976" fill-rule="evenodd" clip-rule="evenodd" d="M145.467 75.4641C145.4 75.4731 145.306 75.5681 145.259 75.4991C145.326 75.4941 145.414 75.4231 145.467 75.4641" fill="#FEFDFD" blush:i="0.0.415"/><path id="Fill 978" fill-rule="evenodd" clip-rule="evenodd" d="M94.2131 52.1945C94.1491 52.2365 94.1211 52.2235 94.1091 52.1485C94.1731 52.1065 94.2001 52.1195 94.2131 52.1945" fill="#F4D3CA" blush:i="0.0.416"/><path id="Fill 980" fill-rule="evenodd" clip-rule="evenodd" d="M114.105 41.7404C114.103 41.7424 114.105 41.7404 114.105 41.7404C114.142 41.7784 114.141 41.7794 114.105 41.7404" fill="#E4BFAC" blush:i="0.0.417"/><path id="Fill 982" fill-rule="evenodd" clip-rule="evenodd" d="M125.345 37.5969C125.382 37.6459 125.375 37.6519 125.326 37.6159L125.345 37.5969Z" fill="#FEFDFD" blush:i="0.0.418"/></g></g></svg>