<svg viewBox="22.5 33.75 240.00000000000006 232.50000000000003" fill="none" xmlns="http://www.w3.org/2000/svg" xmlns:xlink="http://www.w3.org/1999/xlink" xmlns:blush="http://design.blush" overflow="visible" width="240.00000000000006px" height="232.50000000000003px"><g id="Master/Spot Illustrations/Pitch Meeting" blush:has-customizable-colors="true" blush:viewBox="-42 7.5 316.50000000000006 256.50000000000006" blush:i="0"><g id="Background" blush:i="0.0"><g id="Texture Backgrounds" opacity="0.5" blush:component="Texture Backgrounds" blush:defaultValue="Spots 3" blush:width="247" blush:height="214" transform="translate(27 11) scale(1 1)" blush:i="0.0.0" blush:value="Spots 3" blush:viewBox="20.995000000000005 24.834872979214794 205.01000000000005 166.80138568129334"><g id="Texture Backgrounds/Spots 3" blush:viewBox="20.995000000000005 24.834872979214794 205.01000000000005 166.80138568129334" blush:i="0.0.0.0"><g id="Group" blush:i="0.0.0.0.0"><path id="Fill 38" fill-rule="evenodd" clip-rule="evenodd" d="M45.3377 27.6623C42.2077 24.5324 35.7139 25.9518 30.8323 30.8323C25.9518 35.7139 24.5324 42.2077 27.6623 45.3377C30.7923 48.4676 37.2861 47.0482 42.1677 42.1677C47.0482 37.2861 48.4676 30.7923 45.3377 27.6623" fill="#FEDAD4" blush:i="0.0.0.0.0.0"/><path id="Fill 38 Copy 2" fill-rule="evenodd" clip-rule="evenodd" d="M41.3377 165.662C38.2077 162.532 31.7139 163.952 26.8323 168.832C21.9518 173.714 20.5324 180.208 23.6623 183.338C26.7923 186.468 33.2861 185.048 38.1677 180.168C43.0482 175.286 44.4676 168.792 41.3377 165.662" fill="#FEDAD4" blush:i="0.0.0.0.0.1"/><path id="Fill 38 Copy 6" fill-rule="evenodd" clip-rule="evenodd" d="M160.338 171.662C157.208 168.532 150.714 169.952 145.832 174.832C140.952 179.714 139.532 186.208 142.662 189.338C145.792 192.468 152.286 191.048 157.168 186.168C162.048 181.286 163.468 174.792 160.338 171.662" fill="#FEDAD4" blush:i="0.0.0.0.0.2"/><path id="Fill 38 Copy 4" fill-rule="evenodd" clip-rule="evenodd" d="M109.338 90.6623C106.208 87.5324 99.7139 88.9518 94.8323 93.8323C89.9518 98.7139 88.5324 105.208 91.6623 108.338C94.7923 111.468 101.286 110.048 106.168 105.168C111.048 100.286 112.468 93.7923 109.338 90.6623" fill="#FEDAD4" blush:i="0.0.0.0.0.3"/><path id="Fill 38 Copy 9" fill-rule="evenodd" clip-rule="evenodd" d="M220.338 95.6623C217.208 92.5324 210.714 93.9518 205.832 98.8323C200.952 103.714 199.532 110.208 202.662 113.338C205.792 116.468 212.286 115.048 217.168 110.168C222.048 105.286 223.468 98.7923 220.338 95.6623" fill="#FEDAD4" blush:i="0.0.0.0.0.4"/><path id="Fill 38 Copy 17" fill-rule="evenodd" clip-rule="evenodd" d="M221.338 28.6623C218.208 25.5324 211.714 26.9518 206.832 31.8323C201.952 36.7139 200.532 43.2077 203.662 46.3377C206.792 49.4676 213.286 48.0482 218.168 43.1677C223.048 38.2861 224.468 31.7923 221.338 28.6623" fill="#FEDAD4" blush:i="0.0.0.0.0.5"/><path id="Fill 38 Copy 11" fill-rule="evenodd" clip-rule="evenodd" d="M174.446 40.5541C173.403 39.5108 171.238 39.9839 169.611 41.6108C167.984 43.238 167.511 45.4026 168.554 46.4459C169.597 47.4892 171.762 47.0161 173.389 45.3892C175.016 43.762 175.489 41.5974 174.446 40.5541" fill="#FEDAD4" blush:i="0.0.0.0.0.6"/><path id="Fill 38 Copy 15" fill-rule="evenodd" clip-rule="evenodd" d="M123.446 66.5541C122.403 65.5108 120.238 65.9839 118.611 67.6108C116.984 69.238 116.511 71.4026 117.554 72.4459C118.597 73.4892 120.762 73.0161 122.389 71.3892C124.016 69.762 124.489 67.5974 123.446 66.5541" fill="#FEDAD4" blush:i="0.0.0.0.0.7"/><path id="Fill 38 Copy 16" fill-rule="evenodd" clip-rule="evenodd" d="M134.446 125.554C133.403 124.511 131.238 124.984 129.611 126.611C127.984 128.238 127.511 130.403 128.554 131.446C129.597 132.489 131.762 132.016 133.389 130.389C135.016 128.762 135.489 126.597 134.446 125.554" fill="#FEDAD4" blush:i="0.0.0.0.0.8"/><path id="Fill 38 Copy 12" fill-rule="evenodd" clip-rule="evenodd" d="M76.4459 142.554C75.4026 141.511 73.238 141.984 71.6108 143.611C69.9839 145.238 69.5108 147.403 70.5541 148.446C71.5974 149.489 73.762 149.016 75.3892 147.389C77.0161 145.762 77.4892 143.597 76.4459 142.554" fill="#FEDAD4" blush:i="0.0.0.0.0.9"/><path id="Fill 38 Copy 13" fill-rule="evenodd" clip-rule="evenodd" d="M189.446 138.554C188.403 137.511 186.238 137.984 184.611 139.611C182.984 141.238 182.511 143.403 183.554 144.446C184.597 145.489 186.762 145.016 188.389 143.389C190.016 141.762 190.489 139.597 189.446 138.554" fill="#FEDAD4" blush:i="0.0.0.0.0.10"/><path id="Fill 38 Copy 14" fill-rule="evenodd" clip-rule="evenodd" d="M76.4459 59.5541C75.4026 58.5108 73.238 58.9839 71.6108 60.6108C69.9839 62.238 69.5108 64.4026 70.5541 65.4459C71.5974 66.4892 73.762 66.0161 75.3892 64.3892C77.0161 62.762 77.4892 60.5974 76.4459 59.5541" fill="#FEDAD4" blush:i="0.0.0.0.0.11"/><path id="Fill 38 Copy" fill-rule="evenodd" clip-rule="evenodd" d="M41.9709 98.0291C40.0333 96.0915 36.0134 96.9702 32.9914 99.9914C29.9702 103.013 29.0915 107.033 31.0291 108.971C32.9667 110.909 36.9866 110.03 40.0086 107.009C43.0298 103.987 43.9085 99.9667 41.9709 98.0291" fill="#FEDAD4" blush:i="0.0.0.0.0.12"/><path id="Fill 38 Copy 7" fill-rule="evenodd" clip-rule="evenodd" d="M105.971 28.0291C104.033 26.0915 100.013 26.9702 96.9914 29.9914C93.9702 33.0134 93.0915 37.0333 95.0291 38.9709C96.9667 40.9085 100.987 40.0298 104.009 37.0086C107.03 33.9866 107.909 29.9667 105.971 28.0291" fill="#FEDAD4" blush:i="0.0.0.0.0.13"/><path id="Fill 38 Copy 10" fill-rule="evenodd" clip-rule="evenodd" d="M223.971 176.029C222.033 174.091 218.013 174.97 214.991 177.991C211.97 181.013 211.091 185.033 213.029 186.971C214.967 188.909 218.987 188.03 222.009 185.009C225.03 181.987 225.909 177.967 223.971 176.029" fill="#FEDAD4" blush:i="0.0.0.0.0.14"/><path id="Fill 38 Copy 5" fill-rule="evenodd" clip-rule="evenodd" d="M162.971 95.0291C161.033 93.0915 157.013 93.9702 153.991 96.9914C150.97 100.013 150.091 104.033 152.029 105.971C153.967 107.909 157.987 107.03 161.009 104.009C164.03 100.987 164.909 96.9667 162.971 95.0291" fill="#FEDAD4" blush:i="0.0.0.0.0.15"/><path id="Fill 38 Copy 3" fill-rule="evenodd" clip-rule="evenodd" d="M98.9709 175.029C97.0333 173.091 93.0134 173.97 89.9914 176.991C86.9702 180.013 86.0915 184.033 88.0291 185.971C89.9667 187.909 93.9866 187.03 97.0086 184.009C100.03 180.987 100.909 176.967 98.9709 175.029" fill="#FEDAD4" blush:i="0.0.0.0.0.16"/></g></g></g><g id="Chair 2" blush:i="0.0.1"><path id="Fill 1" fill-rule="evenodd" clip-rule="evenodd" d="M47.3497 151.178C39.4597 163.395 52.3434 192.081 72.5125 204.816C92.6803 217.55 115.404 216.676 123.294 204.46C131.185 192.244 121.231 172.018 101.064 159.284C80.8958 146.551 55.241 138.962 47.3497 151.178" fill="#B28A64" blush:i="0.0.1.0"/><path id="Fill 3" fill-rule="evenodd" clip-rule="evenodd" d="M135.22 248C135.566 248 135.894 247.901 136.175 247.707C137.394 246.865 138.914 245.816 127.363 223.628C121.903 213.139 116.014 202.76 115.956 202.655C115.603 202.036 114.816 201.818 114.191 202.168C113.57 202.521 113.351 203.309 113.704 203.93C122.938 220.192 132.24 238.196 134.073 244.218C129.715 239.221 118.314 220.412 108.425 202.664C108.078 202.044 107.293 201.814 106.665 202.164C106.041 202.51 105.816 203.297 106.163 203.921C113.356 216.829 130.544 246.961 134.793 247.951C134.938 247.983 135.08 248 135.22 248V248Z" fill="#3A332D" blush:i="0.0.1.1"/><path id="Fill 5" fill-rule="evenodd" clip-rule="evenodd" d="M69.706 252C78.0472 252 88.0418 214.613 89.9591 207.118C90.1346 206.436 89.7292 205.74 89.0522 205.563C88.3803 205.381 87.6894 205.796 87.5151 206.48C80.6264 233.376 73.0506 249.447 69.706 249.447C69.6429 249.447 69.4976 249.447 69.2639 249.174C65.6428 244.926 68.3798 215.814 70.9552 198.465C71.0587 197.768 70.5826 197.117 69.8929 197.013C69.1793 196.916 68.5604 197.389 68.4568 198.086C67.7571 202.798 61.7841 244.308 67.3517 250.841C68.1676 251.8 69.0821 252 69.706 252" fill="#3A332D" blush:i="0.0.1.2"/><g id="Group 9" blush:i="0.0.1.3"><path id="Fill 7" fill-rule="evenodd" clip-rule="evenodd" d="M37.3148 241.493C38.1347 241.493 39.8381 241.493 67.4743 201.404C67.8779 200.818 67.7408 200.008 67.1684 199.596C66.596 199.185 65.8014 199.323 65.3991 199.908C58.4945 209.925 48.3787 224.292 42.1582 232.557C47.2301 223.138 56.4713 207.18 62.9584 196.219C63.3214 195.605 63.1297 194.809 62.5294 194.438C61.929 194.064 61.1497 194.263 60.7867 194.875C34.9185 238.585 35.6801 239.965 36.1357 240.79C36.3604 241.197 36.8566 241.493 37.3148 241.493" fill="#3A332D" blush:i="0.0.1.3.0"/></g><path id="Fill 10" fill-rule="evenodd" clip-rule="evenodd" d="M46.8701 134.757C36.0175 151.753 48.7714 179.297 75.3514 196.275C101.933 213.255 132.279 213.239 143.13 196.243C153.982 179.247 141.23 151.704 114.648 134.725C88.0677 117.747 57.7215 117.759 46.8701 134.757" fill="#EABD91" blush:i="0.0.1.4"/><path id="Fill 12" fill-rule="evenodd" clip-rule="evenodd" d="M139.918 197C140.265 197 140.598 196.776 140.752 196.394C140.776 196.333 141.367 194.862 141.969 192.305C142.099 191.751 141.808 191.183 141.32 191.036C140.82 190.886 140.325 191.219 140.197 191.771C139.638 194.143 139.088 195.519 139.082 195.531C138.873 196.053 139.077 196.669 139.537 196.906C139.661 196.971 139.79 197 139.918 197" fill="#CB9A6E" blush:i="0.0.1.5"/><path id="Fill 14" fill-rule="evenodd" clip-rule="evenodd" d="M69.9648 126.166C69.9944 126.166 70.0253 126.165 70.0562 126.162C72.53 125.928 75.0489 125.874 77.8266 126.029C78.3584 126.06 78.8156 125.649 78.8452 125.113C78.8748 124.575 78.4679 124.118 77.9347 124.088C75.1622 123.934 72.4631 123.983 69.876 124.227C69.3454 124.277 68.9552 124.751 69.0041 125.285C69.0518 125.789 69.4716 126.166 69.9648 126.166M93.4123 128.973C93.8218 128.973 94.2017 128.709 94.3331 128.295C94.494 127.784 94.2133 127.237 93.7046 127.075C91.1111 126.246 88.4918 125.577 85.9201 125.083C85.3973 124.978 84.8912 125.328 84.7908 125.855C84.6903 126.382 85.0329 126.891 85.557 126.991C88.0539 127.47 90.5986 128.122 93.12 128.928C93.2179 128.959 93.3157 128.973 93.4123 128.973M107.912 135.332C108.251 135.332 108.581 135.152 108.759 134.832C109.016 134.363 108.847 133.771 108.381 133.511C106.001 132.184 103.587 130.978 101.206 129.929C100.72 129.714 100.149 129.937 99.9335 130.429C99.7185 130.92 99.9412 131.492 100.431 131.707C102.758 132.733 105.118 133.911 107.444 135.21C107.593 135.293 107.754 135.332 107.912 135.332M121.089 144.157C121.373 144.157 121.655 144.032 121.845 143.789C122.177 143.368 122.107 142.758 121.69 142.425C120.763 141.684 119.798 140.947 118.795 140.215C117.621 139.357 116.414 138.511 115.211 137.702C114.767 137.406 114.167 137.526 113.872 137.972C113.576 138.417 113.696 139.021 114.14 139.319C115.322 140.113 116.507 140.942 117.661 141.787C118.642 142.503 119.583 143.223 120.487 143.946C120.666 144.089 120.878 144.157 121.089 144.157M132.283 155.38C132.489 155.38 132.697 155.314 132.873 155.177C133.295 154.848 133.371 154.238 133.044 153.814C131.455 151.749 129.658 149.716 127.7 147.769C127.319 147.392 126.707 147.394 126.334 147.776C125.959 148.157 125.962 148.773 126.342 149.15C128.238 151.037 129.979 153.007 131.518 155.003C131.708 155.251 131.994 155.38 132.283 155.38M139.837 169.303C139.94 169.303 140.045 169.286 140.146 169.251C140.652 169.08 140.923 168.528 140.752 168.02C139.904 165.498 138.804 162.997 137.486 160.582C137.228 160.112 136.641 159.939 136.174 160.199C135.706 160.458 135.536 161.049 135.792 161.519C137.058 163.832 138.11 166.23 138.923 168.642C139.058 169.048 139.434 169.303 139.837 169.303M141.969 185C142.477 185 142.903 184.6 142.932 184.084C142.976 183.308 143 182.503 143 181.671C143 179.76 142.869 177.834 142.611 175.944C142.538 175.413 142.061 175.031 141.522 175.114C140.994 175.188 140.624 175.677 140.697 176.21C140.943 178.01 141.068 179.848 141.068 181.671C141.068 182.465 141.044 183.233 141.003 183.973C140.973 184.509 141.38 184.969 141.912 184.999C141.931 185 141.949 185 141.969 185" fill="#CB9A6E" blush:i="0.0.1.6"/><path id="Fill 16" fill-rule="evenodd" clip-rule="evenodd" d="M58.0415 129C58.1914 129 58.3454 128.972 58.4897 128.911C58.5036 128.906 59.8289 128.361 62.2407 127.772C62.7944 127.637 63.1163 127.139 62.9609 126.66C62.8069 126.181 62.2421 125.895 61.6773 126.036C59.0698 126.671 57.6474 127.261 57.5891 127.285C57.0715 127.501 56.855 128.039 57.102 128.488C57.2811 128.811 57.6543 129 58.0415 129" fill="#CB9A6E" blush:i="0.0.1.7"/><path id="Fill 18" fill-rule="evenodd" clip-rule="evenodd" d="M132.102 201C132.486 201 132.861 200.837 133.062 200.548C133.098 200.497 133.934 199.292 134.927 197.202C135.144 196.746 134.859 196.234 134.291 196.06C133.722 195.883 133.085 196.114 132.869 196.571C131.938 198.527 131.148 199.671 131.141 199.683C130.844 200.109 131.032 200.648 131.564 200.887C131.734 200.963 131.919 201 132.102 201" fill="#CB9A6E" blush:i="0.0.1.8"/><path id="Fill 20" fill-rule="evenodd" clip-rule="evenodd" d="M64.9662 133.641C65.0204 133.641 65.0746 133.637 65.1288 133.627C67.6538 133.202 70.2769 132.967 72.9258 132.926C73.46 132.918 73.8858 132.48 73.878 131.949C73.869 131.421 73.438 131 72.9103 131H72.8961C70.1505 131.044 67.4267 131.288 64.8062 131.729C64.2798 131.816 63.9237 132.315 64.014 132.838C64.0927 133.308 64.503 133.641 64.9662 133.641M88.716 134.844C89.1469 134.844 89.5418 134.555 89.6527 134.12C89.7843 133.605 89.4721 133.08 88.9547 132.949C86.2993 132.276 83.622 131.77 80.9964 131.445C80.4467 131.383 79.9809 131.755 79.9164 132.281C79.8506 132.81 80.2261 133.291 80.7564 133.356C83.3034 133.67 85.9006 134.161 88.476 134.814C88.556 134.835 88.6373 134.844 88.716 134.844M103.629 140.432C103.985 140.432 104.327 140.237 104.497 139.898C104.735 139.421 104.54 138.844 104.061 138.606C101.604 137.391 99.1168 136.304 96.664 135.38C96.1724 135.19 95.606 135.441 95.4176 135.94C95.2279 136.437 95.4782 136.993 95.9788 137.181C98.371 138.082 100.799 139.143 103.199 140.332C103.337 140.4 103.484 140.432 103.629 140.432M117.224 148.718C117.517 148.718 117.809 148.586 118 148.335C118.321 147.91 118.234 147.306 117.807 146.987C116.764 146.205 115.649 145.42 114.498 144.653C113.359 143.897 112.23 143.18 111.114 142.5C110.656 142.219 110.061 142.365 109.782 142.818C109.505 143.273 109.647 143.866 110.102 144.143C111.199 144.809 112.304 145.514 113.423 146.255C114.544 147.001 115.628 147.765 116.644 148.526C116.818 148.655 117.023 148.718 117.224 148.718M128.492 159.887C128.689 159.887 128.888 159.827 129.06 159.705C129.492 159.391 129.589 158.789 129.275 158.359C127.735 156.248 125.946 154.188 123.958 152.237C123.579 151.866 122.963 151.866 122.589 152.247C122.214 152.626 122.219 153.236 122.599 153.609C124.512 155.486 126.23 157.465 127.708 159.49C127.897 159.75 128.193 159.887 128.492 159.887M135.103 174.221C135.174 174.221 135.247 174.214 135.318 174.198C135.84 174.081 136.166 173.567 136.049 173.047C135.453 170.414 134.565 167.823 133.414 165.349C133.189 164.865 132.613 164.66 132.129 164.881C131.644 165.104 131.434 165.677 131.657 166.159C132.752 168.51 133.594 170.97 134.161 173.47C134.262 173.918 134.662 174.221 135.103 174.221M135.352 190C135.81 190 136.218 189.674 136.303 189.21C136.765 186.684 137 184.136 137 181.636L136.996 181.12C136.988 180.593 136.556 180.172 136.028 180.172H136.014C135.479 180.179 135.053 180.617 135.061 181.149L135.065 181.636C135.065 184.02 134.84 186.453 134.399 188.865C134.302 189.389 134.652 189.888 135.177 189.986C135.236 189.995 135.294 190 135.352 190" fill="#CB9A6E" blush:i="0.0.1.9"/><path id="Fill 22" fill-rule="evenodd" clip-rule="evenodd" d="M53.8843 137C54.0327 137 54.1823 136.964 54.3202 136.89C54.3308 136.884 55.4229 136.304 57.4174 135.62C57.8768 135.461 58.1136 134.983 57.9463 134.55C57.7814 134.116 57.2725 133.894 56.8142 134.05C54.6618 134.789 53.4932 135.414 53.4448 135.44C53.0219 135.669 52.8747 136.177 53.1162 136.578C53.2787 136.847 53.5768 137 53.8843 137" fill="#CB9A6E" blush:i="0.0.1.10"/><path id="Fill 24" fill-rule="evenodd" clip-rule="evenodd" d="M125.099 203C125.487 203 125.862 202.833 126.062 202.539C126.097 202.49 126.914 201.281 127.924 199.21C128.145 198.754 127.868 198.24 127.303 198.06C126.74 197.884 126.101 198.105 125.877 198.561C124.926 200.517 124.144 201.677 124.135 201.689C123.845 202.117 124.038 202.656 124.571 202.89C124.738 202.966 124.92 203 125.099 203" fill="#CB9A6E" blush:i="0.0.1.11"/><path id="Fill 26" fill-rule="evenodd" clip-rule="evenodd" d="M84.6387 140.941C85.0905 140.941 85.4922 140.621 85.582 140.161C85.6834 139.635 85.3446 139.129 84.8235 139.026C82.2387 138.518 79.6604 138.174 77.1565 138.001C76.6675 137.977 76.167 138.365 76.131 138.899C76.0951 139.432 76.4942 139.893 77.0255 139.929C79.4486 140.097 81.9474 140.43 84.4513 140.923C84.5142 140.934 84.5771 140.941 84.6387 140.941M61.9609 141.155C62.0392 141.155 62.1162 141.146 62.1945 141.126C64.5444 140.539 67.0188 140.143 69.5523 139.947C70.0823 139.906 70.4789 139.442 70.4391 138.91C70.398 138.376 69.9489 137.996 69.4047 138.019C66.7647 138.224 64.1838 138.638 61.7299 139.25C61.214 139.379 60.8996 139.903 61.0292 140.421C61.137 140.861 61.5297 141.155 61.9609 141.155M99.181 145.418C99.5596 145.418 99.9177 145.192 100.07 144.82C100.274 144.326 100.04 143.761 99.548 143.557C97.1198 142.552 94.6814 141.666 92.3032 140.928C91.7898 140.776 91.2547 141.057 91.0981 141.566C90.9415 142.076 91.2264 142.617 91.7334 142.776C94.0576 143.496 96.4396 144.361 98.8139 145.344C98.9346 145.395 99.0578 145.418 99.181 145.418M112.704 152.409C113.016 152.409 113.324 152.257 113.508 151.976C113.803 151.532 113.681 150.932 113.237 150.637C111.644 149.578 109.924 148.56 108.128 147.609C107.594 147.327 107.062 147.049 106.534 146.783C106.06 146.542 105.48 146.735 105.241 147.212C105.001 147.687 105.194 148.27 105.669 148.51C106.185 148.771 106.706 149.041 107.229 149.319C108.971 150.24 110.635 151.225 112.174 152.248C112.338 152.358 112.523 152.409 112.704 152.409M123.762 162.81C123.957 162.81 124.153 162.75 124.324 162.627C124.755 162.315 124.853 161.71 124.542 161.277C123.068 159.223 121.325 157.255 119.36 155.432C118.972 155.071 118.36 155.091 118 155.486C117.639 155.877 117.662 156.488 118.053 156.852C119.923 158.586 121.58 160.458 122.98 162.408C123.168 162.669 123.463 162.81 123.762 162.81M129.577 176.799C129.63 176.799 129.684 176.795 129.738 176.785C130.261 176.697 130.615 176.199 130.527 175.673C130.092 173.06 129.365 170.52 128.368 168.124C128.163 167.63 127.598 167.399 127.109 167.604C126.619 167.811 126.387 168.377 126.591 168.869C127.531 171.13 128.217 173.526 128.629 175.992C128.707 176.464 129.115 176.799 129.577 176.799M129.051 192C129.494 192 129.893 191.692 129.99 191.24C130.559 188.635 130.898 186.029 130.999 183.497C131.021 182.962 130.608 182.513 130.076 182.492C129.521 182.466 129.097 182.885 129.077 183.418C128.979 185.838 128.654 188.331 128.11 190.827C127.996 191.348 128.325 191.863 128.844 191.978C128.914 191.992 128.983 192 129.051 192" fill="#CB9A6E" blush:i="0.0.1.12"/><path id="Fill 28" fill-rule="evenodd" clip-rule="evenodd" d="M50.9185 146C51.113 146 51.3087 145.933 51.4751 145.796C51.4861 145.787 52.516 144.936 54.4828 143.898C54.9378 143.657 55.1287 143.06 54.9085 142.563C54.6883 142.067 54.1403 141.861 53.6829 142.099C51.5289 143.236 50.4048 144.17 50.3583 144.209C49.9571 144.546 49.8813 145.172 50.1895 145.61C50.3705 145.865 50.6421 146 50.9185 146" fill="#CB9A6E" blush:i="0.0.1.13"/><path id="Fill 30" fill-rule="evenodd" clip-rule="evenodd" d="M117.058 204C117.416 204 117.766 203.846 117.965 203.567C118 203.517 118.857 202.31 119.912 200.254C120.145 199.799 119.899 199.271 119.363 199.075C118.821 198.876 118.201 199.088 117.971 199.54C116.976 201.476 116.159 202.628 116.152 202.639C115.851 203.064 116.011 203.615 116.511 203.871C116.681 203.958 116.871 204 117.058 204" fill="#CB9A6E" blush:i="0.0.1.14"/><path id="Fill 32" fill-rule="evenodd" clip-rule="evenodd" d="M84.8264 148.164C85.2638 148.164 85.6578 147.861 85.7588 147.411C85.879 146.89 85.5554 146.369 85.04 146.25C82.3209 145.616 79.598 145.196 76.9479 145C76.4287 144.99 75.9606 145.362 75.9209 145.897C75.8826 146.431 76.279 146.896 76.8073 146.935C79.3614 147.123 81.9845 147.529 84.6103 148.138C84.6832 148.156 84.7548 148.164 84.8264 148.164M60.9595 148.613C61.0503 148.613 61.1424 148.6 61.2357 148.57C63.7016 147.82 66.2954 147.303 68.939 147.032C69.4659 146.978 69.8509 146.503 69.7972 145.97C69.7435 145.437 69.2562 145.04 68.7472 145.102C65.9807 145.386 63.268 145.928 60.6832 146.714C60.1768 146.868 59.8877 147.409 60.0412 147.922C60.1665 148.343 60.5477 148.613 60.9595 148.613M99.8876 153.775C100.241 153.775 100.577 153.58 100.746 153.241C100.985 152.762 100.793 152.179 100.32 151.938C97.831 150.672 95.3204 149.561 92.8571 148.632C92.3634 148.449 91.8096 148.702 91.6229 149.204C91.4387 149.705 91.6907 150.265 92.1882 150.452C94.585 151.355 97.0317 152.439 99.4579 153.672C99.5973 153.742 99.7431 153.775 99.8876 153.775M113.057 162.995C113.303 162.995 113.546 162.902 113.734 162.713C114.11 162.335 114.111 161.721 113.738 161.342C111.897 159.465 109.761 157.691 107.391 156.066C106.953 155.765 106.357 155.882 106.059 156.326C105.761 156.768 105.876 157.372 106.314 157.674C108.583 159.229 110.623 160.922 112.377 162.708C112.564 162.899 112.812 162.995 113.057 162.995M121.073 176.879C121.153 176.879 121.235 176.869 121.314 176.848C121.828 176.712 122.135 176.183 122.001 175.666C121.305 172.96 120.234 170.358 118.815 167.931C118.545 167.472 117.96 167.315 117.502 167.591C117.045 167.862 116.894 168.457 117.164 168.919C118.49 171.189 119.493 173.624 120.145 176.154C120.258 176.591 120.647 176.879 121.073 176.879M121.089 193C121.525 193 121.922 192.696 122.023 192.245C122.653 189.438 122.982 186.655 123 183.973C123.004 183.437 122.577 183 122.047 182.996H122.041C121.514 182.996 121.085 183.427 121.082 183.96C121.065 186.503 120.753 189.145 120.152 191.815C120.034 192.336 120.358 192.858 120.876 192.977C120.946 192.992 121.018 193 121.089 193" fill="#CB9A6E" blush:i="0.0.1.15"/><path id="Fill 34" fill-rule="evenodd" clip-rule="evenodd" d="M49.9382 154C50.1507 154 50.3657 153.926 50.5406 153.777C50.5506 153.768 51.5842 152.891 53.5214 151.786C53.9738 151.527 54.1326 150.946 53.8801 150.485C53.6264 150.025 53.0552 149.868 52.6041 150.12C50.4956 151.324 49.3796 152.277 49.3333 152.318C48.9371 152.656 48.8872 153.258 49.2208 153.66C49.4058 153.885 49.6708 154 49.9382 154" fill="#CB9A6E" blush:i="0.0.1.16"/><path id="Fill 36" fill-rule="evenodd" clip-rule="evenodd" d="M110.106 204C110.106 204 121.573 177.696 98.8577 160.599C76.1415 143.502 51 160.599 51 160.599" fill="#E8BB8F" blush:i="0.0.1.17"/><path id="Fill 38" fill-rule="evenodd" clip-rule="evenodd" d="M64.5622 160.562C71.2692 153.855 85.1844 156.897 95.6452 167.355C106.103 177.816 109.145 191.731 102.438 198.438C95.7308 205.145 81.8156 202.103 71.3548 191.645C60.8967 181.184 57.8551 167.269 64.5622 160.562" fill="#FEC1C7" blush:i="0.0.1.18"/></g><g id="Board" blush:i="0.0.2"><path id="Fill 1_2" fill-rule="evenodd" clip-rule="evenodd" d="M252.181 42.2524C252.181 42.2524 261.807 41.2455 259.158 64.3926C256.507 87.5382 250.349 114.099 261 127L185.733 119.562C185.733 119.562 180.686 84.1819 185.119 64.7714C190.884 39.529 179 39 179 39L252.181 42.2524Z" fill="#D0C5BA" blush:i="0.0.2.0"/><path id="Fill 13" fill-rule="evenodd" clip-rule="evenodd" d="M236.756 152.999L156.156 150.056C155.512 150.034 155 149.522 155 148.898V145.161C155 144.502 155.567 143.976 156.246 144.001L236.846 146.944C237.49 146.966 238 147.478 238 148.102V151.841C238 152.498 237.435 153.024 236.756 152.999" fill="#EABD91" blush:i="0.0.2.1"/><path id="Fill 14_2" fill-rule="evenodd" clip-rule="evenodd" d="M206.464 249C206.331 249 206.195 248.989 206.059 248.967C204.718 248.753 203.811 247.52 204.034 246.217L208.332 220.96L211.079 148.305C211.128 146.985 212.303 145.943 213.627 146.002C214.986 146.05 216.048 147.162 215.998 148.481L213.212 221.591L208.889 246.999C208.689 248.169 207.647 249 206.464 249" fill="#EABD91" blush:i="0.0.2.2"/><path id="Fill 15" fill-rule="evenodd" clip-rule="evenodd" d="M223.991 254C223.231 254 222.502 253.574 222.163 252.852L208.949 224.708L188.626 251.688C187.967 252.562 186.708 252.748 185.815 252.103C184.923 251.454 184.733 250.221 185.394 249.344L209.756 217L225.816 251.205C226.279 252.193 225.838 253.364 224.829 253.82C224.559 253.942 224.272 254 223.991 254" fill="#EABD91" blush:i="0.0.2.3"/><path id="Fill 16_2" fill-rule="evenodd" clip-rule="evenodd" d="M176.79 48L159 144.124L234.125 148L252 50.5813L176.79 48Z" fill="#FFF6ED" blush:i="0.0.2.4"/><path id="Fill 17" fill-rule="evenodd" clip-rule="evenodd" d="M251.971 52L177 49.7099L177.029 49L252 51.2901L251.971 52Z" fill="#9C9B9A" blush:i="0.0.2.5"/><path id="Fill 18_2" fill-rule="evenodd" clip-rule="evenodd" d="M253 42.2953C253 42.2953 246.679 46.5979 251.598 52L176.996 49.388C176.996 49.388 173.356 43.4872 179.993 39L253 42.2953Z" fill="#FFF6ED" blush:i="0.0.2.6"/><path id="Fill 19" fill-rule="evenodd" clip-rule="evenodd" d="M227.399 127C227.387 127 227.374 127 227.363 126.998L172.563 123.632C172.393 123.624 172.233 123.539 172.127 123.403C172.022 123.268 171.978 123.092 172.01 122.924L182.298 67.4921C182.359 67.165 182.663 66.9517 182.998 67.0094C183.325 67.0704 183.54 67.3847 183.48 67.7102L173.316 122.475L227.436 125.799C227.766 125.82 228.02 126.104 227.999 126.436C227.98 126.755 227.715 127 227.399 127" fill="#9C9B9A" blush:i="0.0.2.7"/><path id="Fill 20_2" fill-rule="evenodd" clip-rule="evenodd" d="M195.285 117C195.238 117 195.189 116.995 195.142 116.983C194.857 116.918 194.661 116.669 194.674 116.389L196.627 76.3394L180.21 108.03C180.092 108.257 179.828 108.383 179.571 108.349C179.308 108.312 179.101 108.117 179.059 107.867L177.008 95.8614C176.954 95.5425 177.181 95.2437 177.513 95.1908C177.857 95.1441 178.161 95.3573 178.214 95.6731L179.959 105.883L196.826 73.3241C196.955 73.0767 197.247 72.9538 197.527 73.016C197.807 73.086 197.998 73.3334 197.985 73.6088L196.045 113.406L208.693 86.7858C208.797 86.5664 209.022 86.4124 209.288 86.445C209.541 86.4606 209.759 86.624 209.834 86.8543L216.507 107.417L230.888 87.6555C231.079 87.3895 231.459 87.3226 231.738 87.5093C232.015 87.6929 232.083 88.0554 231.891 88.3199L216.794 109.065C216.662 109.248 216.448 109.356 216.199 109.309C215.969 109.275 215.778 109.119 215.708 108.906L209.141 88.6669L195.843 116.658C195.74 116.869 195.522 117 195.285 117" fill="#9C9B9A" blush:i="0.0.2.8"/></g></g><g id="Master/Female Character/Sitting" blush:has-customizable-colors="true" blush:component="Master/Female Character/Sitting" blush:width="271" blush:height="255" transform="translate(-42 8) scale(1 1)" blush:i="0.1" blush:value="Sitting" blush:viewBox="67.75 62.39361702127661 127.36999999999996 192.60638297872333"><g id="Master/Female Character/Sitting" blush:has-customizable-colors="true" blush:viewBox="67.75 62.39361702127661 127.36999999999996 192.60638297872333" blush:i="0.1.0"><g id="Female Character Sitting/Lower Body" blush:component="Female Character Sitting/Lower Body" blush:defaultValue="Skirt 2" blush:width="126" blush:height="147" transform="translate(68 108) scale(1 1)" blush:i="0.1.0.0" blush:value="Skirt 1" blush:viewBox="40.60489510489512 31.60499999999999 84.44055944055945 115.39499999999998"><g id="Female Character Sitting/Lower Body/Skirt 1" blush:viewBox="40.60489510489512 31.60499999999999 84.44055944055945 115.39499999999998" blush:i="0.1.0.0.0"><g id="Group 20" blush:i="0.1.0.0.0.0"><path id="Fill 1" fill-rule="evenodd" clip-rule="evenodd" d="M58.7325 35.215C58.7325 35.215 63.9955 31.613 69.6735 31.891C75.3515 32.168 79.6635 33.968 81.2465 42.694C81.2465 42.694 94.0485 45.048 106.789 56.958C119.53 68.868 120.085 69.284 118.422 78.979C116.761 88.673 111.914 100.445 111.914 100.445L110.236 118.667C110.236 118.667 112.583 125.131 115.661 127.208C118.739 129.286 120.689 130.286 119.099 131.748C117.508 133.21 117.123 131.441 114.045 131.748C110.967 132.056 110.659 130.441 110.659 130.441C110.659 130.441 114.276 139.136 120.663 142.906C120.663 142.906 122.817 144.907 120.663 145.83C118.508 146.754 112.506 146.677 109.659 144.753C106.812 142.829 100.963 137.904 99.0405 137.365C97.1165 136.827 98.0395 133.98 98.0395 133.98L100.81 126.285C100.81 126.285 100.04 125.284 97.8855 124.592C95.7315 123.9 94.5775 120.976 94.8075 119.898C95.0385 118.82 98.8865 113.358 98.9635 109.356C98.9635 109.356 97.0395 103.893 94.4235 99.044C91.8065 94.196 95.1925 82.423 97.1165 79.268C97.1165 79.268 94.1155 79.73 88.4205 80.192C82.7265 80.653 63.3865 82.041 52.0445 75.794C40.7015 69.546 41.8185 48.364 58.7325 35.215" fill="#ffd4aa" blush:color="Skin-500" blush:i="0.1.0.0.0.0.0"/><path id="Fill 3" fill-rule="evenodd" clip-rule="evenodd" d="M74.0571 50.8448C77.7781 51.6988 81.4541 52.7788 85.0481 54.0888C88.6381 55.4068 92.1761 56.8978 95.5571 58.7118C98.9291 60.5328 102.19 62.6088 105.095 65.1488C108.007 67.6598 110.502 70.7528 112.037 74.3318L112.063 74.3928V74.4598C112.091 78.7908 112.075 83.1208 112.051 87.4518C112.051 91.7828 111.963 96.1149 111.914 100.446C111.802 96.1159 111.651 91.7858 111.588 87.4548C111.502 83.1258 111.423 78.7958 111.388 74.4648L111.414 74.5928C109.914 71.1448 107.45 68.1798 104.608 65.7018C101.78 63.1898 98.5741 61.1128 95.2471 59.2838C91.9061 57.4758 88.4491 55.8658 84.8971 54.4878C81.3461 53.1118 77.7461 51.8328 74.0571 50.8448" fill="black" blush:i="0.1.0.0.0.0.1"/><path id="Fill 5" fill-rule="evenodd" clip-rule="evenodd" d="M98.9634 109.356C99.5864 110.666 100.068 112.037 100.49 113.424C100.904 114.816 101.23 116.235 101.459 117.673C101.644 119.115 101.797 120.572 101.711 122.033C101.624 123.487 101.377 124.947 100.81 126.286C101.179 124.882 101.319 123.453 101.326 122.023C101.332 120.592 101.185 119.163 100.965 117.748C100.78 116.325 100.452 114.924 100.121 113.525C99.7794 112.127 99.3934 110.738 98.9634 109.356" fill="black" blush:i="0.1.0.0.0.0.2"/><path id="Fill 7" fill-rule="evenodd" clip-rule="evenodd" d="M110.237 118.667C110.111 120.652 110.003 122.619 110.022 124.586C110.041 126.553 110.183 128.507 110.66 130.44C110.229 129.54 109.967 128.563 109.783 127.579C109.606 126.592 109.544 125.59 109.523 124.591C109.52 123.591 109.57 122.593 109.692 121.603C109.812 120.613 109.97 119.628 110.237 118.667" fill="black" blush:i="0.1.0.0.0.0.3"/><path id="Fill 9" fill-rule="evenodd" clip-rule="evenodd" d="M96.7886 79.3156C96.8556 78.7506 97.1166 78.2566 97.4306 77.8146C97.7596 77.3826 98.1606 76.9926 98.6776 76.7606C98.5616 77.0226 98.4146 77.2426 98.2756 77.4666C98.1386 77.6926 97.9826 77.8996 97.8326 78.1116C97.5156 78.5256 97.2006 78.9306 96.7886 79.3156" fill="#7A3710" blush:i="0.1.0.0.0.0.4"/><g id="Group 13" blush:i="0.1.0.0.0.0.5"><path id="Fill 11" fill-rule="evenodd" clip-rule="evenodd" d="M99.934 127.373C99.934 127.373 100.353 127.311 100.392 127.447C100.428 127.577 100.144 128.135 100.144 128.135C100.727 130.276 102.338 136.349 102.512 138.775C102.544 139.224 102.781 139.625 103.154 139.875L109.585 144.177C110.159 144.561 110.932 144.406 111.314 143.83C112.352 142.267 114.49 139.551 116.73 139.709C116.73 139.709 125.124 144.311 125.124 144.896C125.124 145.48 119.837 148.62 110.214 145.918C110.214 145.918 102.489 140.442 99.934 138.836C97.378 137.229 95.626 136.499 96.867 133.579C98.108 130.658 99.934 127.373 99.934 127.373" fill="#131313" blush:i="0.1.0.0.0.0.5.0"/></g><path id="Fill 14" fill-rule="evenodd" clip-rule="evenodd" d="M110.562 130.163L111.001 131.194C111.001 131.194 115.524 133.963 121.771 131.393C121.771 131.393 122.449 130.988 121.907 130.745C121.364 130.501 115.825 126.853 115.377 127C114.929 127.147 112.74 130.473 110.562 130.163" fill="#131313" blush:i="0.1.0.0.0.0.6"/><path id="Fill 16" fill-rule="evenodd" clip-rule="evenodd" d="M96.8716 115.22C96.8716 115.22 91.7066 120.217 93.5756 123.197C94.1856 124.169 100.691 126.616 100.691 126.616L100.81 126.285C100.433 125.338 99.3716 123.212 99.1036 121.764L96.8716 115.22Z" fill="#131313" blush:i="0.1.0.0.0.0.7"/><path id="Fill 18" fill-rule="evenodd" clip-rule="evenodd" d="M69.6735 31.8908C69.6735 31.8908 62.6954 30.5408 57.2704 35.1398C51.8444 39.7388 33.2734 56.9968 44.5894 70.1238C55.9044 83.2518 78.8134 82.3508 95.0294 79.7778C95.0294 79.7778 95.1524 80.3018 94.6544 80.8208C94.6544 80.8208 107.144 84.9008 111.914 82.7878C116.683 80.6758 116.591 81.1348 118.841 80.1708C118.841 80.1708 121.465 73.0438 117.726 67.6158C113.987 62.1878 95.5494 44.5498 81.2464 42.6938L79.7295 36.6158C79.7295 36.6158 79.3305 31.5098 69.6735 31.8908" fill="#003B01" blush:i="0.1.0.0.0.0.8"/></g></g></g><g id="Female Character/Upper Body" blush:component="Female Character/Upper Body" blush:defaultValue="Sweater 9" blush:width="106" blush:height="123" transform="translate(82 93) scale(1 1)" blush:i="0.1.0.1" blush:value="Sweater 6" blush:viewBox="28.713457076566115 0.6149999999999949 49.802784222737834 65.80499999999999"><g id="Female Character/Upper Body/Sweater 6" blush:viewBox="28.713457076566115 0.6149999999999949 49.802784222737834 65.80499999999999" blush:i="0.1.0.1.0"><g id="Group 112" blush:i="0.1.0.1.0.0"><path id="Fill 86" fill-rule="evenodd" clip-rule="evenodd" d="M68.6812 58.1291C66.4832 57.8701 63.4122 57.7971 63.1402 57.9091C62.8692 58.0231 62.0322 58.0501 61.2432 57.9661C60.4542 57.8811 57.7782 59.6851 55.7772 60.4381C53.7772 61.1911 53.7242 60.8051 53.7242 60.8051C48.6662 57.4151 40.4752 53.7121 40.4752 53.7121L39.7452 37.1791L43.6022 44.7691L44.0042 50.0291C48.8812 54.7541 65.4952 51.6501 65.4952 51.6501L66.8192 44.6851C66.8192 44.6851 67.6792 47.6951 68.6812 51.6501C69.6832 55.6051 68.6812 58.1291 68.6812 58.1291M72.4892 27.4581C70.3812 22.8201 62.5802 15.8621 57.1342 11.8271C57.1342 11.8271 58.4102 3.75008 55.2692 1.59908C52.1282 -0.553916 50.9562 2.82308 50.9562 2.82308C50.9562 2.82308 50.6082 9.75108 47.7762 11.7551C44.9442 13.7601 32.0682 19.8491 30.4312 29.4621C28.7942 39.0731 31.8452 57.6711 32.9752 58.4411C34.1062 59.2101 51.1202 67.1601 56.1712 65.9451C61.2232 64.7311 63.1402 63.1961 63.1402 63.1961C63.1402 63.1961 61.5972 64.4231 62.1132 65.4681C62.1132 65.4681 62.3852 65.6851 62.9412 65.4271C62.9412 65.4271 62.8192 66.1741 63.1992 66.2141C63.5792 66.2551 65.3852 63.6761 65.3852 63.6761C65.3852 63.6761 64.0952 66.0921 64.8012 66.3911C65.5072 66.6901 67.6242 63.3101 67.6242 63.3101C67.6242 63.3101 67.7602 62.8481 68.0182 63.0521C68.2762 63.2551 66.4762 65.6311 66.3242 65.9291C66.1722 66.2281 66.2582 66.4721 66.8192 66.3101C67.3802 66.1471 69.3212 64.3821 69.3212 64.3821C69.3212 64.3821 70.4042 65.3551 71.7662 64.4541C73.1292 63.5541 77.0172 58.5431 78.0212 54.2861C79.0262 50.0291 74.5982 32.0971 72.4892 27.4581" fill="#ffd4aa" blush:color="Skin-500" blush:i="0.1.0.1.0.0.0"/><path id="Fill 88" fill-rule="evenodd" clip-rule="evenodd" d="M63.3721 59.2102C64.7461 59.6372 66.0931 60.1122 67.4351 60.5962L69.4631 61.3172C69.8011 61.4442 70.1371 61.5752 70.4721 61.7282C70.6391 61.8062 70.8061 61.8842 70.9731 61.9832C71.0571 62.0342 71.1411 62.0872 71.2261 62.1582C71.3041 62.2412 71.4241 62.2972 71.4631 62.5502C71.4351 62.8412 71.3121 62.8802 71.2301 62.9692C71.1391 63.0462 71.0441 63.0982 70.9491 63.1422C70.7581 63.2272 70.5641 63.2822 70.3721 63.3092C69.9871 63.3702 69.6081 63.3572 69.2381 63.3172C68.5001 63.2322 67.7881 63.0232 67.1201 62.7682C65.8421 62.2852 64.2771 62.2722 63.1411 63.1962C63.6201 62.6512 64.3301 62.3432 65.0511 62.2112C65.7831 62.1022 66.5351 62.1932 67.2401 62.4022C67.9271 62.6012 68.5951 62.8082 69.2851 62.8642C69.6261 62.8962 69.9691 62.8982 70.2901 62.8382C70.4531 62.8142 70.6041 62.7632 70.7391 62.7002C70.8051 62.6682 70.8671 62.6302 70.9121 62.5912C70.9621 62.5692 70.9831 62.4682 70.9641 62.5752C71.0061 62.6502 70.8481 62.4582 70.7201 62.4002C70.5811 62.3142 70.4251 62.2352 70.2701 62.1592C69.9561 62.0082 69.6281 61.8722 69.2991 61.7402C68.6421 61.4712 67.9611 61.2582 67.3051 60.9562C65.9821 60.3952 64.6641 59.8262 63.3721 59.2102" fill="black" blush:i="0.1.0.1.0.0.1"/><path id="Fill 90" fill-rule="evenodd" clip-rule="evenodd" d="M62.9409 65.427C63.0739 64.815 63.3259 64.244 63.6079 63.69C63.7689 63.421 63.9249 63.15 64.1279 62.906C64.3289 62.671 64.5729 62.423 64.8869 62.359C64.6139 62.509 64.4529 62.775 64.2829 63.021C64.1209 63.275 63.9669 63.537 63.8279 63.809C63.5249 64.339 63.2639 64.894 62.9409 65.427" fill="black" blush:i="0.1.0.1.0.0.2"/><path id="Fill 92" fill-rule="evenodd" clip-rule="evenodd" d="M65.3846 63.676C65.3586 63.378 65.4576 63.098 65.5996 62.84C65.6866 62.72 65.7736 62.596 65.9016 62.508C66.0236 62.417 66.1766 62.363 66.3236 62.367C65.8736 62.712 65.7176 63.193 65.3846 63.676" fill="black" blush:i="0.1.0.1.0.0.3"/><path id="Fill 94" fill-rule="evenodd" clip-rule="evenodd" d="M62.5835 58.2355C63.4205 57.9055 64.3645 58.0325 65.2235 58.2255C66.1015 58.4245 66.9145 58.7865 67.7165 59.1525C68.5115 59.5395 69.2865 59.9715 70.0165 60.4615C70.3915 60.7075 70.7245 60.9465 71.1275 61.1615C71.2265 61.2315 71.3415 61.3375 71.3565 61.5015C71.3695 61.6695 71.2485 61.7765 71.1545 61.8395C70.9495 61.9685 70.7215 61.9965 70.5025 62.0065C70.7115 61.9455 70.9245 61.8665 71.0735 61.7335C71.2425 61.5865 71.1815 61.4475 71.0005 61.3715C70.6085 61.2185 70.2005 60.9875 69.8205 60.7925C69.0485 60.3825 68.2855 59.9725 67.5015 59.6025C66.7185 59.2325 65.9295 58.8685 65.1195 58.5935C64.3085 58.3365 63.4535 58.1125 62.5835 58.2355" fill="black" blush:i="0.1.0.1.0.0.4"/><path id="Fill 96" fill-rule="evenodd" clip-rule="evenodd" d="M67.3652 58.1291C68.1542 58.1731 68.9262 58.3391 69.6812 58.5881C70.0402 58.7511 70.4492 58.8511 70.7172 59.2471C70.8632 59.6501 70.8952 60.0401 70.8422 60.4381C70.8082 60.0561 70.6932 59.6531 70.5482 59.3391C70.3512 59.0921 69.9452 58.9481 69.5962 58.8231C68.8732 58.5541 68.1142 58.3741 67.3652 58.1291" fill="black" blush:i="0.1.0.1.0.0.5"/><path id="Fill 98" fill-rule="evenodd" clip-rule="evenodd" d="M70.8457 59.7248C71.3737 60.1328 71.8367 60.6108 72.3037 61.0808C72.7507 61.5718 73.1877 62.0678 73.5627 62.6238C73.0357 62.2088 72.5877 61.7198 72.1207 61.2518C71.6767 60.7628 71.2277 60.2788 70.8457 59.7248" fill="black" blush:i="0.1.0.1.0.0.6"/><path id="Fill 100" fill-rule="evenodd" clip-rule="evenodd" d="M44.0045 14.0754C44.0045 14.0754 53.7795 19.7154 61.9395 15.6644C61.9395 15.6644 76.5715 18.8254 78.1615 52.2214C78.1615 52.2214 73.2925 45.1304 68.9215 52.7754C68.9215 52.7754 67.9705 51.3184 67.6835 49.0414C67.3965 46.7644 66.8195 45.6184 66.8195 45.6184L65.8545 51.6604C65.8545 51.6604 50.5285 56.0124 43.4765 50.0294C43.4765 50.0294 43.3475 45.3814 43.1755 44.7794C43.0035 44.1774 40.6815 39.6624 40.4665 39.6624C40.2525 39.6624 40.8595 53.8884 40.8595 53.8884C40.8595 53.8884 35.1775 56.5244 33.5445 58.7574C33.5445 58.7574 33.0705 59.7414 32.2535 58.1294C31.4375 56.5174 27.7655 41.8314 29.4085 32.6534C31.0505 23.4744 34.6395 18.2034 44.0045 14.0754" fill="#FAB120" blush:i="0.1.0.1.0.0.7"/><path id="Fill 102" fill-rule="evenodd" clip-rule="evenodd" d="M51.3934 33.5568C45.1304 33.5568 41.1294 32.5618 40.6454 32.4348C32.7764 33.3478 29.8934 30.3328 29.7744 30.2038C29.6814 30.1028 29.6874 29.9458 29.7884 29.8518C29.8904 29.7578 30.0484 29.7648 30.1414 29.8648C30.1694 29.8938 33.0124 32.8308 40.6344 31.9328C40.6654 31.9298 40.6984 31.9308 40.7304 31.9398C40.7964 31.9578 47.4764 33.7808 57.6354 32.7318C67.7684 31.6858 70.2094 30.7588 70.2334 30.7488C70.2964 30.7328 72.6074 30.2268 73.7564 29.2988C73.8644 29.2128 74.0214 29.2298 74.1084 29.3358C74.1954 29.4438 74.1784 29.6008 74.0714 29.6878C72.8284 30.6918 70.4774 31.2038 70.3784 31.2258C70.3214 31.2518 67.9354 32.1708 57.6864 33.2298C55.4044 33.4648 53.2944 33.5568 51.3934 33.5568" fill="#FEFDFA" blush:i="0.1.0.1.0.0.8"/><path id="Fill 104" fill-rule="evenodd" clip-rule="evenodd" d="M52.1448 35.8186C45.5068 35.8186 41.0478 35.1586 40.6038 35.0896C33.6088 35.9476 29.4358 32.9836 29.2608 32.8556C29.1498 32.7746 29.1248 32.6186 29.2058 32.5066C29.2858 32.3946 29.4428 32.3696 29.5548 32.4516C29.5958 32.4796 33.7648 35.4316 40.5778 34.5896C40.6018 34.5886 40.6248 34.5876 40.6488 34.5906C40.7238 34.6036 48.1318 35.7796 58.4818 35.1176C68.7198 34.4626 70.3838 33.9006 70.4498 33.8776C70.4918 33.8626 70.5408 33.8596 70.5838 33.8666C70.6098 33.8726 73.3668 34.3816 74.9188 32.7166C75.0128 32.6166 75.1718 32.6116 75.2718 32.7056C75.3738 32.7986 75.3788 32.9576 75.2848 33.0586C73.6628 34.7976 71.0108 34.4456 70.5528 34.3686C70.1518 34.4856 67.9008 35.0156 58.5138 35.6156C56.2338 35.7616 54.0948 35.8186 52.1448 35.8186" fill="#FEFDFA" blush:i="0.1.0.1.0.0.9"/><path id="Fill 106" fill-rule="evenodd" clip-rule="evenodd" d="M54.8299 39.0939C47.3669 39.0939 41.1309 38.2059 40.5999 38.1279C31.3949 39.3319 28.9109 36.8429 28.8089 36.7379C28.7139 36.6369 28.7179 36.4789 28.8179 36.3839C28.9159 36.2869 29.0749 36.2899 29.1699 36.3919C29.2119 36.4329 31.6779 38.7989 40.5689 37.6279C40.5919 37.6249 40.6149 37.6249 40.6389 37.6289C40.8099 37.6549 57.8829 40.1909 69.8899 36.9379C69.9389 36.9239 69.9909 36.9269 70.0379 36.9429C70.0719 36.9549 73.5159 38.1149 75.7669 35.7609C75.8639 35.6609 76.0209 35.6589 76.1209 35.7529C76.2199 35.8489 76.2239 36.0069 76.1279 36.1069C73.8169 38.5239 70.5039 37.6149 69.9479 37.4399C65.2359 38.7049 59.7639 39.0939 54.8299 39.0939" fill="#FEFDFA" blush:i="0.1.0.1.0.0.10"/><path id="Fill 108" fill-rule="evenodd" clip-rule="evenodd" d="M40.4668 39.6623C40.2008 37.1593 40.3238 34.6293 40.7368 32.1413C40.9588 30.8993 41.2348 29.6603 41.6838 28.4723C42.1188 27.2843 42.6958 26.1223 43.5238 25.1693C42.9398 26.2853 42.5748 27.4653 42.2418 28.6483C41.9178 29.8363 41.6798 31.0493 41.4748 32.2663C41.2558 33.4833 41.0948 34.7133 40.9328 35.9443L40.4668 39.6623Z" fill="#D19219" blush:i="0.1.0.1.0.0.11"/><path id="Fill 110" fill-rule="evenodd" clip-rule="evenodd" d="M66.8193 23.3264C67.6733 25.0444 68.5373 26.7244 69.5593 28.3394C70.5633 30.0164 71.0993 32.0014 71.0273 33.9814C70.9873 34.9704 70.8093 35.9494 70.5093 36.8864C70.2033 37.8294 69.7803 38.6964 69.3693 39.5514C68.5523 41.2764 67.7233 42.9984 66.8193 44.6844C67.4383 42.8724 68.1343 41.0944 68.8403 39.3214C69.5903 37.5464 70.2463 35.8214 70.2783 33.9564C70.3613 32.1154 69.8923 30.2764 69.0553 28.6144C68.1373 26.9394 67.3813 25.1524 66.8193 23.3264" fill="#D19219" blush:i="0.1.0.1.0.0.12"/></g></g></g><g id="Female Character/Head" blush:component="Female Character/Head" blush:defaultValue="Pixie Cut 4" blush:width="53" blush:height="71" transform="translate(111 63) scale(1 1)" blush:i="0.1.0.2" blush:value="Afro Bun 1" blush:viewBox="9.98190348525469 -1.0650000000000048 30.549597855227873 40.47"><g id="Female Character/Head/Afro Bun 1" blush:viewBox="9.98190348525469 -1.0650000000000048 30.549597855227873 40.47" blush:i="0.1.0.2.0"><g id="Group 31" blush:i="0.1.0.2.0.0"><g id="Group 3" blush:i="0.1.0.2.0.0.0"><path id="Fill 1" fill-rule="evenodd" clip-rule="evenodd" d="M20.3114 32.0675C20.3114 32.0675 21.4454 34.3355 23.9254 35.8235C26.4064 37.3115 29.5244 39.5795 31.0824 39.0835C32.6424 38.5875 36.7734 35.4215 37.7654 31.8795C38.7574 28.3355 39.3744 22.4295 38.7364 19.5245C38.0984 16.6185 34.4844 10.5245 28.0364 10.5245C21.5864 10.5245 15.8464 17.3265 17.4064 24.8385C17.4064 24.8385 15.6134 27.0365 17.1474 29.3035C18.6814 31.5715 20.3114 32.0675 20.3114 32.0675" fill="#ffd4aa" blush:color="Skin-500" blush:i="0.1.0.2.0.0.0.0"/></g><path id="Fill 4" fill-rule="evenodd" clip-rule="evenodd" d="M24.159 27.3195C24.159 27.3195 27.006 27.3905 27.762 27.9395C27.762 27.9395 28.039 28.0375 27.932 27.6735C27.932 27.6735 28.341 27.9655 28.367 27.8065C28.393 27.6475 28.189 26.1055 26.586 25.8935C24.983 25.6805 23.778 27.1515 24.159 27.3195" fill="#20180F" blush:i="0.1.0.2.0.0.1"/><path id="Fill 6" fill-rule="evenodd" clip-rule="evenodd" d="M36.6317 26.9123C36.6317 26.9123 34.8247 26.8853 34.0937 27.4333C34.0937 27.4333 33.8247 27.5313 33.9287 27.1683C33.9287 27.1683 33.5337 27.4603 33.5077 27.3013C33.4827 27.1413 34.2177 25.6893 35.7697 25.4763C37.3207 25.2653 37.7307 26.6223 36.6317 26.9123" fill="#20180F" blush:i="0.1.0.2.0.0.2"/><path id="Fill 8" fill-rule="evenodd" clip-rule="evenodd" d="M31.9011 32.2629C31.9011 32.2629 31.6881 32.4399 31.9011 32.6169C32.1141 32.7939 33.5131 32.2979 33.8321 31.8369C34.1511 31.3759 33.9621 31.3239 33.5071 31.5889C33.0521 31.8549 31.9011 32.2629 31.9011 32.2629" fill="#20180F" blush:i="0.1.0.2.0.0.3"/><path id="Fill 10" fill-rule="evenodd" clip-rule="evenodd" d="M29.031 33.6974C29.031 33.6974 28.942 33.5384 29.704 33.5384C30.467 33.5384 30.395 33.6794 31.635 33.6974C32.876 33.7154 33.383 33.6974 32.899 34.0164C32.415 34.3354 32.45 34.3174 32.362 34.5654C32.273 34.8134 31.152 35.2574 30.268 34.9554C29.385 34.6544 28.483 33.8544 29.031 33.6974" fill="#EE4E2F" blush:i="0.1.0.2.0.0.4"/><path id="Fill 12" fill-rule="evenodd" clip-rule="evenodd" d="M23.7097 23.1388C23.8457 23.0968 23.6627 23.3738 24.2767 23.2688C24.8917 23.1618 26.5677 22.9728 28.0797 23.9178C28.0797 23.9178 28.3507 23.7048 28.3687 23.3038C28.3867 22.9278 25.8407 21.6408 23.6737 23.0678C23.5257 23.1648 23.5717 23.1808 23.7097 23.1388" fill="#20180F" blush:i="0.1.0.2.0.0.5"/><path id="Fill 14" fill-rule="evenodd" clip-rule="evenodd" d="M36.6316 23.2804C36.6316 23.2804 35.7346 22.3114 34.2226 22.7604C32.7096 23.2094 32.8516 23.8944 32.8996 24.0834C32.9456 24.2724 34.0326 23.3504 35.1666 23.3624C36.3006 23.3744 36.6316 23.6104 36.6316 23.2804" fill="#20180F" blush:i="0.1.0.2.0.0.6"/><path id="Fill 16" fill-rule="evenodd" clip-rule="evenodd" d="M24.3514 27.3195C24.3514 27.3195 27.1984 27.3905 27.9544 27.9395C27.9544 27.9395 28.2314 28.0375 28.1244 27.6735C28.1244 27.6735 28.5324 27.9655 28.5584 27.8065C28.5854 27.6475 28.3814 26.1055 26.7784 25.8935C25.1744 25.6805 23.9704 27.1515 24.3514 27.3195" fill="black" blush:i="0.1.0.2.0.0.7"/><path id="Fill 18" fill-rule="evenodd" clip-rule="evenodd" d="M36.8231 26.9123C36.8231 26.9123 35.0171 26.8853 34.2861 27.4333C34.2861 27.4333 34.0171 27.5313 34.1201 27.1683C34.1201 27.1683 33.7251 27.4603 33.7001 27.3013C33.6751 27.1413 34.4091 25.6893 35.9621 25.4763C37.5131 25.2653 37.9221 26.6223 36.8231 26.9123" fill="black" blush:i="0.1.0.2.0.0.8"/><path id="Fill 20" fill-rule="evenodd" clip-rule="evenodd" d="M32.0934 32.2629C32.0934 32.2629 31.8804 32.4399 32.0934 32.6169C32.3054 32.7939 33.7054 32.2979 34.0244 31.8369C34.3434 31.3759 34.1544 31.3239 33.6984 31.5889C33.2444 31.8549 32.0934 32.2629 32.0934 32.2629" fill="black" blush:i="0.1.0.2.0.0.9"/><path id="Fill 22" fill-rule="evenodd" clip-rule="evenodd" d="M29.2234 33.6974C29.2234 33.6974 29.1344 33.5384 29.8964 33.5384C30.6584 33.5384 30.5874 33.6794 31.8274 33.6974C33.0674 33.7154 33.5754 33.6974 33.0904 34.0164C32.6074 34.3354 32.6424 34.3174 32.5534 34.5654C32.4654 34.8134 31.3434 35.2574 30.4604 34.9554C29.5774 34.6544 28.6754 33.8544 29.2234 33.6974" fill="#EE4E2F" blush:i="0.1.0.2.0.0.10"/><path id="Fill 24" fill-rule="evenodd" clip-rule="evenodd" d="M23.9021 23.1388C24.0381 23.0968 23.8551 23.3738 24.4691 23.2688C25.0841 23.1618 26.7601 22.9728 28.2721 23.9178C28.2721 23.9178 28.5431 23.7048 28.5611 23.3038C28.5781 22.9278 26.0321 21.6408 23.8661 23.0678C23.7181 23.1648 23.7641 23.1808 23.9021 23.1388" fill="black" blush:i="0.1.0.2.0.0.11"/><path id="Fill 26" fill-rule="evenodd" clip-rule="evenodd" d="M36.8231 23.2804C36.8231 23.2804 35.9261 22.3114 34.4141 22.7604C32.9021 23.2094 33.0431 23.8944 33.0911 24.0834C33.1381 24.2724 34.2251 23.3504 35.3591 23.3624C36.4931 23.3744 36.8231 23.6104 36.8231 23.2804" fill="black" blush:i="0.1.0.2.0.0.12"/><g id="Group 30" blush:i="0.1.0.2.0.0.13"><path id="Fill 28" fill-rule="evenodd" clip-rule="evenodd" d="M38.5184 16.0636C37.9524 15.6216 39.6524 15.3286 38.9974 13.7436C38.5754 12.7236 36.7824 12.2926 36.2254 11.7326C35.8684 11.3736 36.8234 10.8836 35.8854 10.1196C35.2454 9.5966 33.3074 9.5406 32.2904 9.3556C30.2764 8.9896 29.6724 7.1406 27.2104 9.2296C27.0404 9.3746 26.7804 9.1986 26.8284 8.9796C26.8854 8.7096 26.9434 8.3636 26.9734 7.9536C26.9984 7.6196 27.9464 7.4406 28.1794 7.1006C28.7684 6.2456 27.5104 4.7106 27.2164 3.5426C26.9414 2.4456 24.6754 2.1256 24.3814 1.5896C21.8314 -3.0464 17.3454 -0.6574 16.0084 2.5266C15.7494 3.1406 14.5374 2.0446 12.6374 2.1526C11.0594 2.2416 8.33136 5.5766 11.3804 7.4216C11.3804 7.4216 9.92636 9.2666 10.4704 10.7396C10.7094 11.3856 12.7984 11.6596 13.1194 12.5846C13.4104 13.4256 15.0574 15.1746 16.1614 15.5046C16.2364 15.5276 16.2414 15.6306 16.1684 15.6616C15.2714 16.0436 12.3044 17.6226 14.1894 21.8406C14.5664 22.6856 13.4704 23.7766 14.0014 24.8386C14.4294 25.6936 15.1634 25.2426 15.6334 25.8726C15.9634 26.3136 15.3124 27.8536 15.7474 28.3126C16.3504 28.9496 17.0604 29.6016 17.8904 30.2686C17.8904 30.2686 15.7714 28.3376 16.9224 25.6456C17.5264 24.2356 19.0044 24.6226 19.5664 25.2836C20.2174 26.0486 20.9894 27.6296 21.3664 27.6296C21.7424 27.6296 20.7694 21.6976 25.0154 18.0746C26.3674 16.9206 28.5614 14.9036 33.2724 15.6966C38.4564 16.5686 38.9974 22.4116 38.9974 22.4116C38.9974 22.4116 40.1654 21.9336 40.2164 19.5456C40.2514 17.8756 39.8204 17.0836 38.5184 16.0636" fill="#8ae0d3" blush:color="Hair-500" blush:i="0.1.0.2.0.0.13.0"/></g></g><path id="Fill 28" fill-rule="evenodd" clip-rule="evenodd" d="M18.5637 27.6623C18.5637 27.6623 18.3907 27.4623 18.3967 27.7823C18.4037 28.1023 18.3237 28.2763 18.2307 28.2493C18.1367 28.2233 17.6967 27.4553 18.3567 27.0953C19.0177 26.7353 19.3777 27.4493 19.8517 28.3363C20.3247 29.2233 20.1447 30.4833 19.6847 30.5303C19.2247 30.5773 19.3577 30.2573 19.4037 29.6173C19.4507 28.9763 18.8037 27.7953 18.5637 27.6623" fill="black" blush:i="0.1.0.2.0.1"/></g></g><g id="Female Character/Accesories" blush:component="Female Character/Accesories" blush:defaultValue="Glasses 2" blush:width="34" blush:height="36" transform="translate(123 72) scale(1 1)" blush:i="0.1.0.3" blush:value="Shades 1" blush:viewBox="7.995762711864408 15.479999999999997 19.629237288135588 5.940000000000005"><g id="Female Character/Accesories/Shades 1" blush:viewBox="7.995762711864408 15.479999999999997 19.629237288135588 5.940000000000005" blush:i="0.1.0.3.0"><rect id="Rectangle" x="12" y="16" width="7" height="5" rx="1" fill="#1E2214" blush:i="0.1.0.3.0.0"/><rect id="Rectangle Copy 2" x="21" y="16" width="6" height="5" rx="1" fill="#1E2214" blush:i="0.1.0.3.0.1"/><g id="Accesories" blush:i="0.1.0.3.0.2"><path id="Rectangle_2" fill-rule="evenodd" clip-rule="evenodd" d="M13.0981 15.625H18.0981C18.8575 15.625 19.4731 16.2406 19.4731 17V20C19.4731 20.7594 18.8575 21.375 18.0981 21.375H13.0981C12.3388 21.375 11.7231 20.7594 11.7231 20V17C11.7231 16.2406 12.3388 15.625 13.0981 15.625ZM18.0981 16.375H13.0981C12.753 16.375 12.4731 16.6548 12.4731 17V20C12.4731 20.3452 12.753 20.625 13.0981 20.625H18.0981C18.4433 20.625 18.7231 20.3452 18.7231 20V17C18.7231 16.6548 18.4433 16.375 18.0981 16.375Z" fill="#FFFFF1" blush:i="0.1.0.3.0.2.0"/><path id="Rectangle Copy" fill-rule="evenodd" clip-rule="evenodd" d="M22.0981 15.625H26.0981C26.8575 15.625 27.4731 16.2406 27.4731 17V20C27.4731 20.7594 26.8575 21.375 26.0981 21.375H22.0981C21.3388 21.375 20.7231 20.7594 20.7231 20V17C20.7231 16.2406 21.3388 15.625 22.0981 15.625ZM26.0981 16.375H22.0981C21.753 16.375 21.4731 16.6548 21.4731 17V20C21.4731 20.3452 21.753 20.625 22.0981 20.625H26.0981C26.4433 20.625 26.7231 20.3452 26.7231 20V17C26.7231 16.6548 26.4433 16.375 26.0981 16.375Z" fill="#FFFFF1" blush:i="0.1.0.3.0.2.1"/><path id="Path 2" fill-rule="evenodd" clip-rule="evenodd" d="M19.0823 17.9888C19.0823 17.9888 20.4889 17.4275 21.0823 17.9888L21.2704 16.0113H18.9019L19.0823 17.9888Z" fill="#FFFFF1" blush:i="0.1.0.3.0.2.2"/><path id="Path 3" fill-rule="evenodd" clip-rule="evenodd" d="M12.3993 19.0903L8 18.2817L8 16.7135L12.3993 16.1693V19.0903Z" fill="#FFFFF1" blush:i="0.1.0.3.0.2.3"/></g></g></g></g></g><g id="Laptop" blush:i="0.2"><path id="Fill 24_2" fill-rule="evenodd" clip-rule="evenodd" d="M92.362 169.533L131.232 170C132.204 170.012 133 169.348 133 168.524V168.505L91 168V168.364C91 169.003 91.6068 169.524 92.362 169.533" fill="#807A74" blush:i="0.2.0"/><path id="Fill 21" fill-rule="evenodd" clip-rule="evenodd" d="M107.171 170.358L136.412 170.999C137.394 171.021 138.272 170.384 138.572 169.433L144.893 149.336C145.347 147.894 144.301 146.417 142.811 146.396L114.31 146C113.365 145.987 112.515 146.584 112.194 147.487L105.134 167.34C104.618 168.789 105.655 170.325 107.171 170.358" fill="#BFBAB4" blush:i="0.2.1"/></g></g></svg>