<svg viewBox="18.75 30.00000000000003 247.50000000000006 228.74999999999994" fill="none" xmlns="http://www.w3.org/2000/svg" xmlns:xlink="http://www.w3.org/1999/xlink" xmlns:blush="http://design.blush" overflow="visible" width="247.50000000000006px" height="228.74999999999994px"><g id="Master/Spot Illustrations/Alone Time" blush:has-customizable-colors="true" blush:viewBox="-48 1.5 363 255.00000000000006" blush:i="0"><g id="Background" blush:i="0.0"><g id="Plants" blush:component="Plants" blush:defaultValue="Small Monstera" blush:width="204" blush:height="225" transform="matrix(-1 0 0 1 315 19) scale(1 1)" blush:i="0.0.0" blush:value="Small Monstera" blush:viewBox="49.64900662251654 14.625 136.22516556291393 210.37499999999994"><g id="Plants/Small Monstera" blush:viewBox="49.64900662251654 14.625 136.22516556291393 210.37499999999994" blush:i="0.0.0.0"><g id="Group 61" blush:i="0.0.0.0.0"><path id="Fill 4816" fill-rule="evenodd" clip-rule="evenodd" d="M109.907 224.539C84.1091 225.399 91.7261 210.814 87.0781 193.635C99.5561 194.841 120.476 196.771 135.678 193.641C134.119 197.126 133.729 201.718 132.464 205.566C129.203 220.811 126.734 225.543 109.907 224.539" fill="#FECDC7" blush:i="0.0.0.0.0.0"/><path id="Fill 4818" fill-rule="evenodd" clip-rule="evenodd" d="M128.489 194.838C117.622 195.288 104.333 196.377 94.6045 194.222C105.38 192.446 118.479 191.934 128.489 194.838" fill="#5F4134" blush:i="0.0.0.0.0.1"/><path id="Fill 4820" fill-rule="evenodd" clip-rule="evenodd" d="M128.489 194.838C125.804 193.295 119.041 195.187 123.066 190.983C129.117 190.761 141.385 193.827 128.489 194.838" fill="#FDADA7" blush:i="0.0.0.0.0.2"/><path id="Fill 4822" fill-rule="evenodd" clip-rule="evenodd" d="M97.4251 193.842C94.8701 194.42 88.9381 195.288 88.1221 192.304C92.3231 191.246 96.8441 189.522 97.4251 193.842" fill="#FDADA7" blush:i="0.0.0.0.0.3"/><path id="Fill 4824" fill-rule="evenodd" clip-rule="evenodd" d="M89.2545 191.718C88.2435 192.692 87.6575 192.59 88.9855 193.668C86.4065 193.186 86.9165 192.087 89.2545 191.718" fill="#FDB7B2" blush:i="0.0.0.0.0.4"/><path id="Fill 4826" fill-rule="evenodd" clip-rule="evenodd" d="M134.602 193.941C134.747 193.522 135.28 193.333 134.739 193.023C131.275 191.182 138.221 193.58 134.602 193.941" fill="#FDB7B2" blush:i="0.0.0.0.0.5"/><path id="Fill 4828" fill-rule="evenodd" clip-rule="evenodd" d="M89.251 193.68C89.902 193.654 90.821 193.49 91.14 194.208C90.55 193.891 89.784 194.201 89.251 193.68" fill="#FDB7B2" blush:i="0.0.0.0.0.6"/><path id="Fill 4830" fill-rule="evenodd" clip-rule="evenodd" d="M92.5732 194.474C92.9072 194.117 93.3702 194.154 93.7442 194.566C93.3542 194.536 92.9642 194.504 92.5732 194.474" fill="#FDB7B2" blush:i="0.0.0.0.0.7"/><path id="Fill 4832" fill-rule="evenodd" clip-rule="evenodd" d="M87.2864 194.483C87.2564 194.182 87.2244 193.881 87.1934 193.581C87.5244 193.921 87.5634 194.302 87.2864 194.483" fill="#FED9D4" blush:i="0.0.0.0.0.8"/><path id="Fill 4834" fill-rule="evenodd" clip-rule="evenodd" d="M92.0354 194.303C92.2694 194.128 92.2944 194.292 92.3084 194.472C92.2184 194.416 92.1264 194.36 92.0354 194.303" fill="#FDB7B2" blush:i="0.0.0.0.0.9"/><path id="Fill 4836" fill-rule="evenodd" clip-rule="evenodd" d="M91.4069 194.216C91.5889 194.27 91.4979 194.242 91.4069 194.216C91.5509 194.059 91.6399 194.089 91.4069 194.216" fill="#FDB7B2" blush:i="0.0.0.0.0.10"/><path id="Fill 4838" fill-rule="evenodd" clip-rule="evenodd" d="M99.8404 193.532C92.6944 189.076 118.66 188.681 119.534 192.439C113.526 194.245 106.267 192.235 99.8404 193.532" fill="#FECDC7" blush:i="0.0.0.0.0.11"/><path id="Fill 4840" fill-rule="evenodd" clip-rule="evenodd" d="M116.173 193.142C118.977 193.227 119.538 192.755 118.893 190.657C126.652 190.135 121.381 194.984 116.173 193.142" fill="#FDB7B2" blush:i="0.0.0.0.0.12"/><path id="Fill 4842" fill-rule="evenodd" clip-rule="evenodd" d="M97.6922 190.798C99.1572 191.946 100.306 194.217 97.4262 193.841C96.0352 191.835 94.9062 191.83 97.6922 190.798" fill="#FDB7B2" blush:i="0.0.0.0.0.13"/><path id="Fill 4844" fill-rule="evenodd" clip-rule="evenodd" d="M94.8224 191.082C93.8064 191.378 91.8244 192.099 90.8574 191.479C92.1514 191.079 93.4804 191.071 94.8224 191.082" fill="#FDB7B2" blush:i="0.0.0.0.0.14"/><path id="Fill 4846" fill-rule="evenodd" clip-rule="evenodd" d="M133.435 192.342C133.315 192.455 133.208 192.607 133.066 192.66C132.014 191.828 132.229 192.033 133.435 192.342" fill="#FDB7B2" blush:i="0.0.0.0.0.15"/><path id="Fill 4848" fill-rule="evenodd" clip-rule="evenodd" d="M90.2301 191.5C89.7601 191.64 89.9961 191.569 90.2301 191.5C90.4451 192.112 89.8631 192.136 90.2301 191.5" fill="#FDB7B2" blush:i="0.0.0.0.0.16"/><path id="Fill 4850" fill-rule="evenodd" clip-rule="evenodd" d="M130.202 191.699C129.712 191.642 129.025 192.003 128.759 191.473C129.24 191.549 129.721 191.624 130.202 191.699" fill="#FDB7B2" blush:i="0.0.0.0.0.17"/><path id="Fill 4852" fill-rule="evenodd" clip-rule="evenodd" d="M127.595 191.363C127.282 191.686 127.036 191.467 126.788 191.263C127.057 191.297 127.326 191.33 127.595 191.363" fill="#FDB7B2" blush:i="0.0.0.0.0.18"/><path id="Fill 4854" fill-rule="evenodd" clip-rule="evenodd" d="M126.162 191.196C125.915 191.468 125.717 191.341 125.53 191.12C125.741 191.145 125.951 191.171 126.162 191.196" fill="#FDB7B2" blush:i="0.0.0.0.0.19"/><path id="Fill 4856" fill-rule="evenodd" clip-rule="evenodd" d="M128.316 191.444C128.133 191.746 127.994 191.624 127.864 191.399C128.014 191.415 128.166 191.429 128.316 191.444" fill="#FDB7B2" blush:i="0.0.0.0.0.20"/><path id="Fill 4858" fill-rule="evenodd" clip-rule="evenodd" d="M126.516 191.26L126.337 191.213L126.516 191.26Z" fill="#FDB7B2" blush:i="0.0.0.0.0.21"/><path id="Fill 4860" fill-rule="evenodd" clip-rule="evenodd" d="M110.362 193.07C111.493 192.892 112.851 192.815 113.952 193.113C112.756 193.098 111.558 193.084 110.362 193.07" fill="#FDB7B2" blush:i="0.0.0.0.0.22"/><path id="Fill 4862" fill-rule="evenodd" clip-rule="evenodd" d="M114.123 193.118C114.396 192.865 115.212 192.854 115.477 193.135C115.025 193.129 114.574 193.123 114.123 193.118" fill="#FDB7B2" blush:i="0.0.0.0.0.23"/><path id="Fill 4864" fill-rule="evenodd" clip-rule="evenodd" d="M99.8402 193.532C100.12 193.493 100.402 193.453 100.683 193.413C100.402 193.453 100.12 193.493 99.8402 193.532" fill="#FDB7B2" blush:i="0.0.0.0.0.24"/><path id="Fill 4866" fill-rule="evenodd" clip-rule="evenodd" d="M115.649 193.14C115.771 193.135 115.892 193.131 116.013 193.126C115.892 193.131 115.771 193.135 115.649 193.14" fill="#FDB7B2" blush:i="0.0.0.0.0.25"/><path id="Fill 4868" fill-rule="evenodd" clip-rule="evenodd" d="M110.162 193.05C110.232 193.055 110.303 193.06 110.373 193.064C110.303 193.06 110.232 193.055 110.162 193.05" fill="#FDB7B2" blush:i="0.0.0.0.0.26"/><path id="Fill 4870" fill-rule="evenodd" clip-rule="evenodd" d="M139.113 22.4164C139.111 22.4114 139.11 22.4094 139.107 22.4054L139.113 22.4164Z" fill="#416A36" blush:i="0.0.0.0.0.27"/><path id="Fill 4872" fill-rule="evenodd" clip-rule="evenodd" d="M103.361 155.679C103.363 155.654 103.362 155.666 103.361 155.679C103.371 155.667 103.379 155.655 103.361 155.679" fill="#416A36" blush:i="0.0.0.0.0.28"/><path id="Fill 4874" fill-rule="evenodd" clip-rule="evenodd" d="M176.164 63.6089C176.167 63.6119 176.169 63.6189 176.175 63.6179L176.164 63.6089Z" fill="#416A36" blush:i="0.0.0.0.0.29"/><path id="Fill 4876" fill-rule="evenodd" clip-rule="evenodd" d="M180.289 148.888C179.889 148.704 179.03 147.442 180 147.755C180.375 148.021 180.749 148.703 180.289 148.888V148.888ZM179.165 147.571C175.486 143.801 166.492 138.503 163.756 137.465C169.453 140.638 175.299 140.203 180.3 140.825C168.554 139.689 177.382 143.922 179.165 147.571V147.571ZM177.771 152.167C177.668 150.55 175.747 147.996 176.262 146.855C176.707 148.188 178.477 150.649 177.771 152.167V152.167ZM174.204 149.957C172.644 151.235 171.389 147.381 171.813 146.242C173.221 144.782 174.975 148.7 174.204 149.957V149.957ZM169.826 150.585C168.966 148.267 168.651 145.298 167.601 142.857C169.143 144.595 170.101 148.283 169.826 150.585V150.585ZM166.793 149.864C164.527 153.969 161.75 145.205 162.762 143.016C166.06 141.699 167.222 147.42 166.793 149.864V149.864ZM124.741 149.293C105.393 204.148 133.73 77.4751 146.694 72.8691C146.361 76.1661 148.071 79.9781 149.265 82.7821C149.241 80.3421 152.616 74.0811 151.284 79.6721C149.194 101.988 128.877 124.16 124.741 149.293V149.293ZM120.606 166.141C118.514 171.617 118.671 195.499 115.584 180.411C113.879 176.656 121.631 160.095 120.606 166.141V166.141ZM115.178 166.183C113.765 184.431 108.94 137.684 112.166 133.599C113.574 134.551 119.487 139.592 118.15 134.988C126.647 117.268 115.31 157.798 115.178 166.183V166.183ZM112.944 178.553C106.284 211.237 104.341 140.597 103.987 126.538C115.369 137.724 107.613 162.325 112.944 178.553V178.553ZM110.408 124.513C110.518 125.897 108.898 129.013 107.673 127.033C107.405 125.952 109.739 123.279 110.408 124.513V124.513ZM103.981 124.933C103.015 122.347 110.811 115.438 110.094 119.798C107.674 120.533 104.662 124.805 103.981 124.933V124.933ZM104.242 114.336C104.625 113.499 107.707 111.982 107.822 113.656C106.542 115.513 103.268 118.461 104.242 114.336V114.336ZM104.479 108.318C105.014 107.253 107.817 106.184 108.791 107.529C108.601 108.543 103.833 110.173 104.479 108.318V108.318ZM125.278 118.068C125.231 120.353 120.955 119.369 120.885 117.407C121.375 116.215 124.747 117.166 125.278 118.068V118.068ZM124.776 113.368C123.399 113.205 117.329 114.358 119.813 111.736C121.557 109.77 129.409 112.173 124.776 113.368V113.368ZM105.105 98.7981C108.454 85.9901 102.643 54.4841 120.304 74.2591C128.068 80.9561 125.078 91.5701 131.824 76.7661C133.519 73.1001 137.244 70.3811 139.068 67.3161C138.294 64.9781 127.537 56.5721 133.756 58.1391C141.643 65.8921 136.201 67.6191 143.752 64.8161C145.352 78.6511 130.995 92.2711 128.766 106.961C128.536 109.16 127.007 106.375 125.698 106.726C122.922 105.157 120.103 108.599 117.467 106.956C118.245 103.378 125.412 105.487 127.964 106.791C125.015 101.641 119.749 95.2761 114.281 101.103C107.361 96.9361 104.443 102.057 105.105 98.7981V98.7981ZM108.395 57.4691C108.954 56.6041 109.706 55.5411 110.75 55.1711C110.241 55.8691 109.016 57.7031 108.395 57.4691V57.4691ZM114.448 67.1771C112.697 68.9311 116.751 61.5581 118.956 61.4901C117.405 63.1331 115.3 64.8961 114.448 67.1771V67.1771ZM111.708 60.2181C113.082 56.9051 119.1 50.8741 122.238 54.3891C120.041 55.8481 109.486 65.9381 111.708 60.2181V60.2181ZM112.955 53.2901C114.117 52.6741 115.359 51.1951 116.523 51.0391C116.09 51.9101 111.301 55.4931 112.955 53.2901V53.2901ZM117.238 50.4161C119.204 49.1551 121.692 48.1461 123.187 46.8421C122.175 48.0871 118.146 51.1201 117.238 50.4161V50.4161ZM123.768 57.3671C125.721 56.1181 123.647 58.2281 122.561 58.7821C122.375 58.1361 123.377 57.7901 123.768 57.3671V57.3671ZM123.695 46.4041C124.344 45.8931 124.827 45.0171 125.616 44.7751C126.006 45.3561 123.103 47.3801 123.695 46.4041V46.4041ZM127.422 53.8961C128.418 53.7431 125.815 56.1921 125.215 56.7241C124.622 55.9871 126.954 54.7831 127.422 53.8961V53.8961ZM125.301 69.1021C125.906 68.4511 127.134 67.4981 127.997 66.5671C127.906 67.6081 125.394 69.5761 125.301 69.1021V69.1021ZM120.147 60.2051C120.771 59.7871 121.311 59.2271 121.985 58.8961C123.241 58.6581 118.723 62.0481 120.147 60.2051V60.2051ZM119.35 61.1741C119.702 61.3971 118.972 61.4521 119.039 61.2091C119.145 61.1861 119.266 61.2091 119.35 61.1741V61.1741ZM124.853 69.7601C123.704 70.3981 123.409 71.9411 122.31 72.4621C122.345 71.6601 124.356 68.8981 124.853 69.7601V69.7601ZM123.809 65.6141C121.964 69.1071 117.051 68.5911 120.65 64.7281C123.193 61.4881 129.109 61.7141 123.809 65.6141V65.6141ZM126.073 43.9421C126.689 43.4111 128.639 39.7961 127.915 41.3171C128.15 41.9901 126.185 45.1271 126.073 43.9421V43.9421ZM127.147 27.4151C127.415 26.8691 127.448 27.9241 127.431 28.1891C127.15 28.0401 126.989 27.7181 127.147 27.4151V27.4151ZM127.686 28.8391C127.601 28.9511 127.533 28.8251 127.457 28.7681C127.51 28.5971 127.616 28.7591 127.686 28.8391V28.8391ZM128.231 31.8161C128.418 32.6701 128.241 34.0791 128.518 34.5521C127.677 34.2191 127.563 31.9781 128.231 31.8161V31.8161ZM128.07 31.1841C128.149 31.2241 128.115 31.2821 128.112 31.3491C128.013 31.3231 128.053 31.2651 128.07 31.1841V31.1841ZM128.181 31.5381C128.201 31.5781 128.231 31.6181 128.185 31.6461C128.17 31.6061 128.129 31.5691 128.181 31.5381V31.5381ZM130.104 64.3221C130.077 65.0861 130.273 65.8951 129.973 66.6141C129.088 65.5411 129.831 60.9991 130.104 64.3221V64.3221ZM130.114 56.9291C129.746 59.0251 130.54 60.8601 129.678 62.5811C129.586 61.2601 129.373 53.9451 130.114 56.9291V56.9291ZM129.785 53.9231C129.831 54.9381 129.169 53.1691 129.424 52.7771C129.729 51.9831 130.266 53.6061 129.785 53.9231V53.9231ZM129.073 42.0641C129.185 44.1841 130.461 51.3571 129.336 51.7001C129.354 48.7431 128.375 45.1451 129.073 42.0641V42.0641ZM128.825 41.3121C128.781 41.3641 128.711 41.5811 128.711 41.4041C128.684 41.2891 128.75 41.2671 128.825 41.3121V41.3121ZM128.73 39.8741C128.842 40.0581 129.061 40.3201 128.75 40.3991C128.472 40.2801 128.507 40.0291 128.73 39.8741V39.8741ZM128.92 39.6931C128.746 39.7671 128.71 39.8011 128.621 39.6581C128.748 39.5571 128.777 39.5621 128.92 39.6931V39.6931ZM128.595 38.9491C128.854 39.4301 128.35 37.7171 128.663 37.7361C128.369 37.8261 129.316 38.5791 128.595 38.9491V38.9491ZM130.147 70.3691C129.775 73.9451 130.272 77.1941 129.14 80.6641C129.301 78.0901 129.849 64.1851 130.147 70.3691V70.3691ZM128.862 34.9361C131.735 40.1651 136.866 42.3231 141.812 44.6841C136.886 43.9291 128.668 37.7301 128.862 34.9361V34.9361ZM128.893 29.0741C129.094 29.3231 129.401 29.5491 129.626 29.6941C129.376 29.6341 128.538 28.8201 128.893 29.0741V29.0741ZM130.002 30.0431C131.469 31.0031 133.727 32.3131 135.101 32.5091C134.101 33.3271 129.431 30.5701 130.002 30.0431V30.0431ZM136.556 32.5001C136.894 32.5081 136.648 32.8791 136.495 32.9071C136.047 32.7891 136.139 32.5991 136.556 32.5001V32.5001ZM136.929 32.7601C137.099 32.3101 137.679 32.6101 138.058 32.6711C137.836 33.1361 136.934 33.3921 136.929 32.7601V32.7601ZM138.349 32.6521C138.653 32.9931 138.371 33.0251 138.112 32.8481C137.973 32.9451 138.254 32.7481 138.349 32.6521V32.6521ZM138.974 36.2811C142.72 36.3191 154.146 42.5671 151.142 44.2021C147.932 38.7071 141.402 40.6171 136.476 38.3071C131.496 35.3231 135.502 35.0571 138.974 36.2811V36.2811ZM140.639 32.5761C142.926 32.8791 145.302 32.4731 147.168 33.4711C146.665 32.8951 139.851 33.7781 140.639 32.5761V32.5761ZM141.672 60.3641C142.974 61.2841 136.807 56.2901 135.074 55.2961C137.574 56.1761 140.454 58.2311 141.672 60.3641V60.3641ZM142.516 61.8321C142.347 62.0291 142.233 62.0291 142.215 61.7411C142.288 61.6281 142.417 61.7991 142.516 61.8321V61.8321ZM144.051 56.2281C141.404 53.0191 137.205 50.7481 133.899 47.9721C133.276 41.5611 143.983 53.1501 144.051 56.2281V56.2281ZM145.374 46.5951C138.686 41.6851 150.091 48.2951 149.576 53.0171C149.813 55.8011 147.624 47.3551 145.374 46.5951V46.5951ZM145.509 59.6711C145.074 58.9591 144.349 57.7281 144.246 56.7621C145.196 57.0161 145.623 59.3031 145.509 59.6711V59.6711ZM152.87 49.4571C158.601 51.3431 150.247 59.6221 146.993 59.9231C149.673 57.4451 150.206 50.4791 152.87 49.4571V49.4571ZM152.768 62.6321C153.208 62.3241 154.436 60.5761 154.563 61.2031C154.406 61.7321 152.891 63.2741 152.768 62.6321V62.6321ZM156.054 63.1071C163.072 59.7471 154.422 69.2851 153.306 71.5781C151.235 70.4611 155.098 65.0761 156.054 63.1071V63.1071ZM157.969 69.7741C157.258 70.7781 155.851 74.0621 155.78 73.8471C155.761 72.9971 158.166 68.1271 157.969 69.7741V69.7741ZM152.472 63.7101C151.487 64.8111 150.694 66.3841 149.581 67.2031C149.477 66.3211 152.398 62.4511 152.472 63.7101V63.7101ZM102.419 117.444C101.205 118.436 101.84 115.174 102.541 116.093C102.496 116.587 102.458 117.015 102.419 117.444V117.444ZM107.225 59.7621C107.159 60.1341 106.441 60.8891 106.439 60.2151C107.012 59.0131 108.58 57.6251 107.225 59.7621V59.7621ZM118.304 36.7811C117.3 36.7811 116.226 37.2361 115.327 37.0441C115.155 36.8211 119.029 36.1011 118.304 36.7811V36.7811ZM114.376 37.3281C113.878 37.3311 111.651 38.0481 112.254 37.3161C112.741 37.3421 114.597 36.8151 114.376 37.3281V37.3281ZM159.942 48.3511C160.532 48.5751 160.805 50.1511 160.743 50.8791C160.131 50.4851 160.061 49.0471 159.942 48.3511V48.3511ZM161.974 70.2131C168.352 63.5411 162.796 75.0221 161.051 77.7611C158.61 76.1451 160.726 72.1491 161.974 70.2131V70.2131ZM162.161 54.3901C162.306 54.5401 162.235 54.5981 162.043 54.6181C161.915 54.5351 162.099 54.4641 162.161 54.3901V54.3901ZM162.417 55.1251C162.266 55.3961 162.192 55.5601 162.031 55.2561C162.165 55.1751 162.25 55.0021 162.417 55.1251V55.1251ZM163.053 56.3281C162.874 56.4641 162.806 56.5261 162.665 56.3431C162.823 56.2071 162.881 56.1011 163.053 56.3281V56.3281ZM162.695 49.5881C163.528 49.8101 164.469 49.7141 165.24 50.0861C164.775 50.4711 162.035 50.0051 162.695 49.5881V49.5881ZM162.832 45.2431C167.62 38.3561 180.739 48.2501 167.338 45.3831C165.921 45.4961 162.384 48.1641 162.832 45.2431V45.2431ZM166.005 60.8911C168.893 63.7821 177.804 84.1551 173.9 76.7291C172.907 72.0721 159.861 52.1541 166.005 60.8911V60.8911ZM174.635 70.3871C176.409 69.3641 178.779 72.0581 178.09 73.4061C177.008 73.9951 172.224 71.4711 174.635 70.3871V70.3871ZM176.385 84.5091C175.556 84.5001 175.766 81.3531 175.507 81.3671C176.222 81.8711 176.186 83.5531 176.385 84.5091V84.5091ZM170.897 77.7401C170.228 81.9131 167.375 78.7801 168.924 76.1071C170.055 72.9721 171.956 75.6251 170.897 77.7401V77.7401ZM161.706 90.6521C163.358 89.3961 167.05 93.5061 166.044 95.1691C164.012 96.1951 161.57 92.3881 161.706 90.6521V90.6521ZM166.879 93.4851C166.907 93.4901 166.933 93.5031 166.96 93.5131C166.931 93.5681 166.794 93.5041 166.879 93.4851V93.4851ZM185.673 151.8C183.744 145.957 182.199 135.536 175.401 134.615C173.896 135.081 170.092 138.22 170.115 134.911C178.882 129.297 169.672 128.686 165.309 134.117C161.699 138.112 168.531 129.514 171.579 129.513C169.805 127.543 164.71 126.432 162.219 127.555C160.368 128.873 159.955 131.05 158.754 132.67C158.318 131.778 160.438 129.376 160.967 128.086C161.72 126.093 152.685 132.348 155.1 136.018C150.923 138.707 139.71 139.391 134.521 145.102C112.243 170.652 144.375 99.9971 153.388 89.8151C158.702 94.6621 160.499 103.283 161.093 110.011C167.599 105.266 171.277 86.8541 159.682 84.5301C155.112 81.4761 163.577 82.6521 165.256 84.0811C166.027 84.0181 163.957 79.0811 165.417 80.4021C164.571 83.6221 172.127 82.0481 174.44 84.3941C176.251 84.9991 177.697 88.8141 177.892 85.4211C178.138 82.0361 180.448 78.0061 176.312 76.5791C181.792 78.9261 181.342 68.6661 175.833 67.6441C179.49 69.9201 184.425 71.5781 179.5 64.9751C176.951 62.8121 172.646 64.2371 170.537 61.6011C172.974 59.7131 179.175 63.9511 182.074 65.6481C184.044 61.7301 176.83 58.9161 173.736 57.7311C176.951 57.8051 180.176 60.3541 182.361 62.7391C185.133 58.1391 178.746 55.5601 174.477 54.9781C155.495 52.8721 174.518 50.0221 182.188 56.4991C181.666 49.8301 158.74 49.1321 177.635 51.4931C188.832 59.4041 173.546 35.2711 165.316 39.4821C158.325 43.7261 163.174 47.2111 153.357 44.7991C153.581 39.4701 151.942 34.3601 147.93 33.3191C158.574 36.7821 143.79 17.3861 135.085 23.0291C133.755 22.9791 127.375 26.0071 130.658 23.2281C140.556 17.6981 156.138 26.5601 137.71 15.4521C132.287 13.5341 129.567 22.0691 124.628 21.2321C118.571 13.2471 108.1 12.2911 102.969 22.1531C89.888 49.9201 102.081 26.9111 113.963 27.5721C122.691 30.3811 104.918 31.0051 102.522 33.7251C89.342 45.2681 103.277 38.0661 110.601 37.8611C99.814 38.2751 92.59 44.4701 99.123 53.5781C102.155 48.4541 113.97 36.8451 118.613 43.4441C112.198 46.8621 101.643 48.4441 99.503 56.1981C101.524 60.3381 105.212 62.9041 107.982 65.6271C103.574 80.3311 106.653 97.4431 98.839 110.254C95.786 117.086 104.626 105.674 101.955 110.693C95.602 113.736 105.499 140.046 103.005 151.138C103.554 160.985 107.905 215.539 113.015 184.131C113.871 184.943 110.794 195.014 114.288 192.355C114.66 190.355 114.293 181.81 115.79 186.947C116.662 189.145 117.705 197.342 119.472 192.375C118.49 172.203 123.718 148.732 144.591 141.003C156.865 136.436 150.091 140.046 152.301 148.054C156.862 155.553 162.619 153.594 159.43 144.885C159.462 143.251 156.481 136.777 158.738 140.314C160.67 144.519 160.463 149.462 161.093 153.735C163.648 153.881 171.243 155.734 169.878 151.586C170.543 154.246 173.948 153.338 177.471 152.921C182.243 151.733 183.294 153.2 181.422 149.152C182.496 150.001 185.106 153.779 185.673 151.8V151.8Z" fill="#416A36" blush:i="0.0.0.0.0.30"/><path id="Fill 4878" fill-rule="evenodd" clip-rule="evenodd" d="M119.414 61.1791C119.411 61.1791 119.413 61.1791 119.414 61.1791C119.413 61.1781 119.411 61.1781 119.414 61.1791" fill="#416A36" blush:i="0.0.0.0.0.31"/><path id="Fill 4880" fill-rule="evenodd" clip-rule="evenodd" d="M165.29 127.293C165.293 127.288 165.286 127.287 165.282 127.285L165.29 127.293Z" fill="#416A36" blush:i="0.0.0.0.0.32"/><path id="Fill 4882" fill-rule="evenodd" clip-rule="evenodd" d="M82.9256 68.1187C82.9216 68.1157 82.9226 68.1157 82.9256 68.1187C82.9286 68.1117 82.9246 68.1107 82.9256 68.1187" fill="#416A36" blush:i="0.0.0.0.0.33"/><path id="Fill 4886" fill-rule="evenodd" clip-rule="evenodd" d="M82.9165 68.1137C82.9195 68.1157 82.9225 68.1157 82.9255 68.1187C82.9255 68.1187 82.9145 68.1107 82.9165 68.1137" fill="#416A36" blush:i="0.0.0.0.0.34"/><path id="Fill 4888" fill-rule="evenodd" clip-rule="evenodd" d="M100.178 161.032C100.13 161.016 100.091 160.973 100.029 160.928C100.148 160.749 100.373 161.039 100.178 161.032M72.3284 117.548C72.2354 117.579 72.0334 117.493 72.0804 117.39C72.1744 117.423 72.2464 117.495 72.3284 117.548M77.6774 119.355C76.2304 119.135 73.9884 118.428 72.4664 117.655C74.2114 118.026 76.1094 118.49 77.6774 119.355M81.3104 122.27C81.0154 122.762 79.3874 121.052 79.1474 120.557C79.8744 120.389 80.6054 121.819 81.3104 122.27M80.7294 119.087C78.3694 117.694 74.4504 117.071 72.1144 115.552C73.4504 112.589 80.7134 115.93 80.7294 119.087M99.7644 170.13C93.6104 155.298 86.4804 139.706 75.8094 127.799C78.2914 127.323 82.0004 136.305 82.4544 132.184C83.3524 125.992 62.6194 117.758 77.3224 123.695C81.0544 127.119 85.6654 133.229 82.3334 124.294C82.5194 122.652 83.5864 127.06 83.8344 125.866C86.8204 106.053 67.6164 116.023 65.8574 107.025C68.3454 104.622 73.3004 105.301 72.1884 100.555C71.2884 96.6387 67.0294 87.1377 72.4804 95.8237C71.1204 106.817 79.0314 109.09 77.0634 96.8787C75.0474 92.1247 68.5154 83.7977 75.4974 92.6107C79.2284 95.9697 77.7844 101.37 77.7914 104.973C91.9074 104.19 95.8094 155.172 99.7644 170.13M75.5234 133.186C72.9534 133.589 70.2974 130.289 68.8784 128.499C69.9994 126.158 76.5024 131.273 75.5234 133.186M73.3244 135.922C72.0454 133.868 70.3394 132.521 68.6214 131.182C70.3884 131.612 73.2564 133.965 73.3244 135.922M67.5334 115.076C67.1914 115.492 66.2944 117.893 66.2234 116.594C67.2924 114.886 69.9814 111.459 67.5334 115.076M67.5264 130.664C66.9734 130.448 65.1044 128.665 66.1914 129.084C66.5434 129.431 68.7334 130.642 67.5264 130.664M65.1404 114.754C61.1314 117.275 51.6544 115.144 60.7814 113.303C61.5214 112.875 66.6034 112.792 65.1404 114.754M63.0804 124.767C61.6064 128.918 61.5624 139.597 61.2304 130.473C52.9774 136.456 63.9584 127.833 63.0804 124.767M62.1084 146.544C61.7644 146.331 61.4584 146.089 61.9334 145.834C61.9724 146.069 62.2514 146.361 62.1084 146.544M60.6504 137.632C60.2964 138.258 58.7274 140.887 58.4034 139.718C58.4814 139.494 60.6034 137.01 60.6504 137.632M57.1974 138.625C54.8934 141.463 55.9374 135.864 57.8094 135.434C60.9244 134.553 58.1444 137.652 57.1974 138.625M61.4514 102.314C62.5124 100.681 62.5414 95.0167 64.4244 94.9597C63.3094 96.7677 60.8704 107.845 61.4514 102.314M61.5324 87.4217C60.9154 87.0447 59.6534 88.1787 59.1264 87.3547C59.8014 86.7297 63.6564 86.4247 61.5324 87.4217M63.8724 86.7457C63.8654 86.7687 63.8404 86.7867 63.8174 86.8137C63.7664 86.7407 63.8534 86.6497 63.8724 86.7457M57.3994 85.5527C48.6574 87.1707 54.4864 81.4997 59.6824 82.0297C67.5494 82.4767 61.8054 85.4467 57.3994 85.5527M65.3654 99.1427C67.2264 96.2607 68.1504 102.617 67.3724 104.099C65.0944 105.999 64.7844 100.367 65.3654 99.1427M65.3554 90.6537C66.4934 89.5177 67.0244 85.3557 68.0894 85.6847C68.6134 86.9477 63.4974 95.7707 65.3554 90.6537M67.5974 78.1997C67.6154 78.1867 67.6634 78.2197 67.7244 78.2427C67.6414 78.3987 67.4924 78.3227 67.5974 78.1997M68.2704 78.1767C68.5324 78.4967 68.3744 78.6897 68.1984 78.9847C67.8704 78.6587 67.9274 78.5097 68.2704 78.1767M68.5504 84.6997C69.3094 83.7517 71.9364 78.4787 72.0894 80.4987C71.2894 80.9657 68.8934 87.2367 68.5504 84.6997M77.2964 77.6417C77.6854 79.0897 78.8644 81.1777 78.6874 81.9787C78.6044 82.3527 76.6774 78.7207 77.2964 77.6417M80.0834 89.1357C81.5324 91.4717 85.0844 98.5527 82.9294 99.7177C83.2844 97.1047 72.5244 83.6917 80.0834 89.1357M81.0734 85.0847C81.4454 85.6467 83.1114 86.5767 82.4704 87.0467C82.0454 86.7447 80.4264 85.0867 81.0734 85.0847M84.5544 69.0537C85.7014 76.4377 94.1384 81.6207 94.8654 88.7807C92.4704 81.6377 85.5374 76.4367 84.5544 69.0537M106.074 194.216C100.017 163.558 97.5514 132.958 85.4474 104.385C91.6764 101.042 86.7534 93.0827 83.6164 88.6767C87.2314 91.0977 89.3064 97.4017 89.1044 101.901C97.2204 95.8987 85.7054 89.0257 83.3554 83.3277C84.7224 76.0937 93.0764 90.3057 92.5424 93.8357C93.5814 105.479 94.4774 92.7617 95.1414 89.1597C95.2934 107.503 101.506 82.0737 91.5674 77.6347C92.8994 68.5267 99.2554 91.4447 98.5644 93.4437C104.832 84.2147 100.588 64.5137 87.7904 64.6627C82.2444 67.4277 76.7354 76.4907 72.7824 78.5277C72.7874 76.3197 82.2554 71.4277 75.0664 71.7757C69.7964 70.5527 66.5824 68.3827 74.2014 71.0967C96.3614 69.5597 82.8244 46.2937 64.4184 57.7267C49.1964 68.6707 74.4344 58.5157 76.8504 68.8277C71.1774 69.4897 64.7304 62.4987 58.2454 64.7377C48.9414 70.7037 65.6744 65.0097 66.5084 68.9377C58.3694 63.5527 44.1564 76.4267 59.4244 72.2707C61.2184 72.0427 63.3234 71.9267 65.2254 72.5777C79.4004 81.3897 56.1234 71.4767 52.3484 75.6317C48.7794 80.1377 53.9074 75.8037 56.0234 76.7897C59.1464 76.8767 66.3224 76.6757 67.0644 79.0107C59.9504 76.9997 48.0024 74.8197 50.2854 86.5447C49.6084 94.6537 53.5744 86.5227 58.2154 87.5917C54.6884 88.6757 48.7944 91.9007 51.8164 96.1417C53.7494 93.9887 58.2584 90.2177 61.0484 92.3077C58.4094 94.6217 47.9494 97.1827 54.4134 102.043C55.6904 97.5777 66.6364 93.7837 58.1134 98.2537C51.6154 101.687 57.3164 106.16 57.8214 110.196C53.0774 114.4 47.5464 128.892 57.6964 121.809C67.2194 121.303 49.1634 123.428 52.2514 128.374C55.4344 125.053 50.9414 130.365 52.7074 132.822C53.6074 133.132 54.9104 130.262 56.2984 129.855C65.1694 127.891 50.7174 132.518 53.6314 135.601C58.3884 130.953 54.5924 134.084 54.1034 137.436C56.7524 144.788 57.0394 141.087 57.8544 142.247C57.1564 144.791 61.4414 150.364 63.5474 150.433C67.5604 147.389 62.3854 142.124 63.9474 140.949C66.5484 142.342 65.6054 148.358 68.7574 144.167C68.2524 140.806 65.9074 138.314 63.9694 135.718C67.4524 139.452 73.8484 149.356 69.5594 137.999C63.6804 132.489 66.8084 131.53 70.3694 137.811C72.2204 144.839 76.0574 139.945 80.1364 136.681C92.1894 152.511 101.605 173.304 102.69 193.899C102.836 197.815 104.406 193.733 104.594 194.012C104.611 195.439 107.16 195.473 106.074 194.216" fill="#416A36" blush:i="0.0.0.0.0.35"/><path id="Fill 4890" fill-rule="evenodd" clip-rule="evenodd" d="M61.2355 96.2319C61.2215 96.2399 61.2285 96.2359 61.2355 96.2319C61.2285 96.2349 61.2225 96.2399 61.2355 96.2319" fill="#416A36" blush:i="0.0.0.0.0.36"/><path id="Fill 4892" fill-rule="evenodd" clip-rule="evenodd" d="M61.2071 96.2408C61.2121 96.2428 61.2101 96.2418 61.2071 96.2408C61.1971 96.2508 61.2041 96.2488 61.2071 96.2408" fill="#416A36" blush:i="0.0.0.0.0.37"/><path id="Fill 4894" fill-rule="evenodd" clip-rule="evenodd" d="M95.1424 89.1586C95.1084 89.1626 95.0654 89.1626 95.0314 89.1666C95.0684 89.1636 95.1054 89.1606 95.1424 89.1586" fill="#416A36" blush:i="0.0.0.0.0.38"/><path id="Fill 4896" fill-rule="evenodd" clip-rule="evenodd" d="M83.8062 123.603C83.8072 123.604 83.8062 123.604 83.8062 123.603C83.8032 123.605 83.8052 123.605 83.8062 123.603" fill="#416A36" blush:i="0.0.0.0.0.39"/><path id="Fill 4898" fill-rule="evenodd" clip-rule="evenodd" d="M61.2342 96.232C61.2252 96.235 61.2172 96.232 61.2072 96.241C61.2172 96.248 61.2252 96.236 61.2342 96.232" fill="#416A36" blush:i="0.0.0.0.0.40"/><path id="Fill 4900" fill-rule="evenodd" clip-rule="evenodd" d="M182.315 55.1704C182.525 54.9464 182.47 54.8844 182.298 54.7034C182.084 54.8684 182.168 54.9494 182.315 55.1704" fill="#416A36" blush:i="0.0.0.0.0.41"/><path id="Fill 4902" fill-rule="evenodd" clip-rule="evenodd" d="M182.213 53.8813C182.148 53.6323 182.099 53.6613 182.057 53.8823C182.092 54.0643 182.164 54.0573 182.213 53.8813" fill="#416A36" blush:i="0.0.0.0.0.42"/><path id="Fill 4904" fill-rule="evenodd" clip-rule="evenodd" d="M176.251 63.4672C176.292 63.4962 176.272 63.4822 176.251 63.4672C176.171 63.5962 176.204 63.5962 176.251 63.4672" fill="#416A36" blush:i="0.0.0.0.0.43"/><path id="Fill 4906" fill-rule="evenodd" clip-rule="evenodd" d="M176.187 63.5942C176.179 63.5992 176.172 63.6042 176.165 63.6092C176.177 63.6252 176.181 63.6052 176.187 63.5942" fill="#416A36" blush:i="0.0.0.0.0.44"/><path id="Fill 4908" fill-rule="evenodd" clip-rule="evenodd" d="M63.1937 78.0757C63.3567 78.0157 63.3307 77.8717 63.1627 77.8977C63.0697 77.9367 63.0447 78.1137 63.1937 78.0757" fill="#416A36" blush:i="0.0.0.0.0.45"/><path id="Fill 4910" fill-rule="evenodd" clip-rule="evenodd" d="M63.1944 78.0757C63.1664 78.0757 63.1364 78.0757 63.1084 78.0747C63.1364 78.1147 63.1624 78.0957 63.1944 78.0757" fill="#416A36" blush:i="0.0.0.0.0.46"/><path id="Fill 4912" fill-rule="evenodd" clip-rule="evenodd" d="M177.677 86.8159C177.68 86.8219 177.693 86.8219 177.698 86.8199L177.677 86.8159Z" fill="#416A36" blush:i="0.0.0.0.0.47"/><path id="Fill 4914" fill-rule="evenodd" clip-rule="evenodd" d="M65.3792 78.6382C65.3292 78.6412 65.2792 78.6442 65.2302 78.6462C65.3202 78.7462 65.3362 78.7782 65.3792 78.6382" fill="#416A36" blush:i="0.0.0.0.0.48"/><path id="Fill 4916" fill-rule="evenodd" clip-rule="evenodd" d="M50.9961 78.0668C51.0011 77.9888 50.9981 78.0278 50.9961 78.0668C51.0981 78.0148 51.0641 78.0278 50.9961 78.0668" fill="#416A36" blush:i="0.0.0.0.0.49"/><path id="Fill 4918" fill-rule="evenodd" clip-rule="evenodd" d="M54.823 77.4008C54.813 77.3958 54.801 77.3828 54.795 77.3858C54.722 77.4148 54.84 77.4588 54.823 77.4008" fill="#416A36" blush:i="0.0.0.0.0.50"/><path id="Fill 4920" fill-rule="evenodd" clip-rule="evenodd" d="M171.414 129.672C171.432 129.673 171.449 129.674 171.467 129.674C171.462 129.634 171.424 129.635 171.414 129.672" fill="#416A36" blush:i="0.0.0.0.0.51"/><path id="Fill 4922" fill-rule="evenodd" clip-rule="evenodd" d="M73.7722 68.4682C73.7902 68.4892 73.7812 68.4782 73.7722 68.4682C73.7162 68.4932 73.7892 68.5562 73.7722 68.4682" fill="#416A36" blush:i="0.0.0.0.0.52"/><path id="Fill 4924" fill-rule="evenodd" clip-rule="evenodd" d="M99.5947 53.4947C99.5537 53.5007 99.5737 53.4977 99.5947 53.4947C99.5597 53.4527 99.5327 53.4337 99.5947 53.4947" fill="#416A36" blush:i="0.0.0.0.0.53"/><path id="Fill 4926" fill-rule="evenodd" clip-rule="evenodd" d="M99.5385 53.4409C99.5435 53.4479 99.5425 53.4379 99.5435 53.4329L99.5385 53.4409Z" fill="#416A36" blush:i="0.0.0.0.0.54"/><path id="Fill 4928" fill-rule="evenodd" clip-rule="evenodd" d="M99.4436 53.4282C99.4596 53.3832 99.4516 53.4062 99.4436 53.4282C99.5376 53.4462 99.5306 53.4162 99.4436 53.4282" fill="#416A36" blush:i="0.0.0.0.0.55"/><path id="Fill 4930" fill-rule="evenodd" clip-rule="evenodd" d="M99.5317 53.433C99.5397 53.433 99.5357 53.433 99.5317 53.433C99.5357 53.44 99.5407 53.442 99.5317 53.433" fill="#416A36" blush:i="0.0.0.0.0.56"/><path id="Fill 4932" fill-rule="evenodd" clip-rule="evenodd" d="M59.5101 146.907L59.5191 146.891C59.5121 146.892 59.5101 146.902 59.5101 146.907" fill="#416A36" blush:i="0.0.0.0.0.57"/><path id="Fill 4934" fill-rule="evenodd" clip-rule="evenodd" d="M104.444 38.9594C104.405 38.9814 104.423 39.0154 104.444 39.0474C104.489 39.0214 104.461 38.9924 104.444 38.9594" fill="#416A36" blush:i="0.0.0.0.0.58"/><path id="Fill 4936" fill-rule="evenodd" clip-rule="evenodd" d="M134.423 59.0366C134.432 59.0366 134.44 59.0366 134.448 59.0356C134.443 59.0206 134.432 59.0326 134.423 59.0366" fill="#416A36" blush:i="0.0.0.0.0.59"/><path id="Fill 4938" fill-rule="evenodd" clip-rule="evenodd" d="M134.409 59.0444C134.436 59.0334 134.403 59.0384 134.39 59.0384C134.397 59.0404 134.404 59.0464 134.409 59.0444" fill="#416A36" blush:i="0.0.0.0.0.60"/><path id="Fill 4940" fill-rule="evenodd" clip-rule="evenodd" d="M151.498 77.1362C151.463 77.1642 151.428 77.1942 151.393 77.2222C151.463 77.2372 151.469 77.1722 151.498 77.1362" fill="#416A36" blush:i="0.0.0.0.0.61"/><path id="Fill 4942" fill-rule="evenodd" clip-rule="evenodd" d="M151.498 77.1362C151.469 77.1722 151.463 77.2372 151.393 77.2222C151.503 77.2842 151.538 77.2572 151.498 77.1362" fill="#416A36" blush:i="0.0.0.0.0.62"/><path id="Fill 4944" fill-rule="evenodd" clip-rule="evenodd" d="M164.188 71.2954C164.171 71.2704 164.152 71.2694 164.132 71.2914C164.15 71.3194 164.167 71.3204 164.188 71.2954" fill="#416A36" blush:i="0.0.0.0.0.63"/><path id="Fill 4946" fill-rule="evenodd" clip-rule="evenodd" d="M164.031 58.4145C163.966 58.4305 163.954 58.3315 163.888 58.3475C163.935 58.3695 163.983 58.3925 164.031 58.4145" fill="#416A36" blush:i="0.0.0.0.0.64"/><path id="Fill 4948" fill-rule="evenodd" clip-rule="evenodd" d="M163.889 58.3471C163.954 58.3311 163.966 58.4301 164.032 58.4141C164.03 58.2901 163.985 58.2621 163.889 58.3471" fill="#416A36" blush:i="0.0.0.0.0.65"/><path id="Fill 4950" fill-rule="evenodd" clip-rule="evenodd" d="M148.954 51.0337C148.932 50.9247 148.898 50.9097 148.801 50.9877C148.857 51.0547 148.903 51.1277 148.954 51.0337" fill="#416A36" blush:i="0.0.0.0.0.66"/><path id="Fill 4952" fill-rule="evenodd" clip-rule="evenodd" d="M130.143 70.2993C130.143 70.3343 130.144 70.3523 130.182 70.3263C130.166 70.3163 130.157 70.3093 130.143 70.2993" fill="#416A36" blush:i="0.0.0.0.0.67"/><path id="Fill 4954" fill-rule="evenodd" clip-rule="evenodd" d="M129.938 70.1773C129.699 70.2253 129.944 70.5433 130.146 70.3433C130.137 70.2473 129.988 70.2073 129.938 70.1773" fill="#416A36" blush:i="0.0.0.0.0.68"/><path id="Fill 4956" fill-rule="evenodd" clip-rule="evenodd" d="M129.283 78.1509C129.326 78.2769 129.371 78.3099 129.474 78.1849C129.404 78.0869 129.324 78.0259 129.283 78.1509" fill="#416A36" blush:i="0.0.0.0.0.69"/><path id="Fill 4958" fill-rule="evenodd" clip-rule="evenodd" d="M129.499 78.233C129.531 78.284 129.547 78.246 129.56 78.205C129.538 78.155 129.514 78.2 129.499 78.233" fill="#416A36" blush:i="0.0.0.0.0.70"/><path id="Fill 4960" fill-rule="evenodd" clip-rule="evenodd" d="M129.797 60.9155C129.851 60.8625 129.867 60.8045 129.793 60.7575C129.769 60.8115 129.774 60.8625 129.797 60.9155" fill="#416A36" blush:i="0.0.0.0.0.71"/><path id="Fill 4962" fill-rule="evenodd" clip-rule="evenodd" d="M119.414 61.1752C119.414 61.1772 119.414 61.1762 119.414 61.1752C119.412 61.1772 119.41 61.1792 119.414 61.1752" fill="#416A36" blush:i="0.0.0.0.0.72"/><path id="Fill 4964" fill-rule="evenodd" clip-rule="evenodd" d="M119.411 61.1782C119.393 61.1822 119.346 61.1622 119.352 61.1842C119.372 61.1822 119.391 61.1822 119.411 61.1782" fill="#416A36" blush:i="0.0.0.0.0.73"/><path id="Fill 4966" fill-rule="evenodd" clip-rule="evenodd" d="M119.416 61.1791L119.414 61.1751C119.414 61.1771 119.414 61.1791 119.416 61.1791" fill="#416A36" blush:i="0.0.0.0.0.74"/><path id="Fill 4968" fill-rule="evenodd" clip-rule="evenodd" d="M119.41 61.1791C119.382 61.2131 119.396 61.1971 119.41 61.1791C119.367 61.1771 119.342 61.1861 119.41 61.1791" fill="#416A36" blush:i="0.0.0.0.0.75"/><path id="Fill 4970" fill-rule="evenodd" clip-rule="evenodd" d="M138.227 32.8237L138.199 32.8377C138.204 32.8527 138.222 32.8257 138.227 32.8237" fill="#416A36" blush:i="0.0.0.0.0.76"/><path id="Fill 4972" fill-rule="evenodd" clip-rule="evenodd" d="M83.8917 123.515C83.8687 123.518 83.8317 123.577 83.8037 123.599C83.8377 123.583 83.8617 123.541 83.8917 123.515" fill="#416A36" blush:i="0.0.0.0.0.77"/><path id="Fill 4974" fill-rule="evenodd" clip-rule="evenodd" d="M83.8911 123.515C83.8991 123.532 83.8861 123.549 83.8931 123.549C83.8911 123.55 83.9021 123.497 83.8911 123.515" fill="#416A36" blush:i="0.0.0.0.0.78"/><path id="Fill 4976" fill-rule="evenodd" clip-rule="evenodd" d="M83.8491 123.597C83.8371 123.603 83.8141 123.592 83.8071 123.605C83.8181 123.603 83.8491 123.607 83.8491 123.597" fill="#416A36" blush:i="0.0.0.0.0.79"/><path id="Fill 4978" fill-rule="evenodd" clip-rule="evenodd" d="M83.8914 123.551C83.8924 123.599 83.8444 123.603 83.8074 123.605C83.9554 123.975 84.1564 123.506 83.8914 123.551" fill="#416A36" blush:i="0.0.0.0.0.80"/><path id="Fill 4980" fill-rule="evenodd" clip-rule="evenodd" d="M83.8116 123.598C83.8076 123.602 83.8096 123.6 83.8116 123.598C83.8056 123.598 83.8016 123.598 83.8116 123.598" fill="#416A36" blush:i="0.0.0.0.0.81"/><path id="Fill 4982" fill-rule="evenodd" clip-rule="evenodd" d="M83.8956 123.511C83.8946 123.51 83.8926 123.509 83.8916 123.507C83.8916 123.513 83.8906 123.517 83.8956 123.511" fill="#416A36" blush:i="0.0.0.0.0.82"/><path id="Fill 4984" fill-rule="evenodd" clip-rule="evenodd" d="M83.8916 123.551C83.9056 123.477 83.8376 123.578 83.8116 123.598C83.8486 123.604 83.8826 123.589 83.8916 123.551" fill="#416A36" blush:i="0.0.0.0.0.83"/><path id="Fill 4986" fill-rule="evenodd" clip-rule="evenodd" d="M83.8911 123.551C83.8861 123.575 83.8701 123.589 83.8491 123.597C83.8771 123.595 83.8901 123.579 83.8911 123.551" fill="#416A36" blush:i="0.0.0.0.0.84"/><path id="Fill 4988" fill-rule="evenodd" clip-rule="evenodd" d="M78.0392 101.353C78.0162 101.337 77.9902 101.314 77.9822 101.355C78.0042 101.385 78.0182 101.385 78.0392 101.353" fill="#416A36" blush:i="0.0.0.0.0.85"/><path id="Fill 4990" fill-rule="evenodd" clip-rule="evenodd" d="M81.87 133.82C81.842 133.788 81.813 133.757 81.786 133.725C81.774 133.792 81.827 133.801 81.87 133.82" fill="#416A36" blush:i="0.0.0.0.0.86"/><path id="Fill 4992" fill-rule="evenodd" clip-rule="evenodd" d="M81.8703 133.82C81.8273 133.801 81.7743 133.792 81.7863 133.725C81.6923 133.823 81.7753 133.824 81.8703 133.82" fill="#416A36" blush:i="0.0.0.0.0.87"/><path id="Fill 4994" fill-rule="evenodd" clip-rule="evenodd" d="M82.7451 98.8793C82.7741 98.9093 82.8031 98.9403 82.8311 98.9713C82.8921 98.8553 82.7561 98.9273 82.7451 98.8793" fill="#416A36" blush:i="0.0.0.0.0.88"/><path id="Fill 4996" fill-rule="evenodd" clip-rule="evenodd" d="M82.745 98.8793C82.756 98.9273 82.892 98.8553 82.831 98.9713C82.979 98.8243 82.906 98.8223 82.745 98.8793" fill="#416A36" blush:i="0.0.0.0.0.89"/><path id="Fill 4998" fill-rule="evenodd" clip-rule="evenodd" d="M72.0271 70.7455C72.1661 70.8075 72.2601 70.9075 72.2991 70.7515C72.1961 70.6365 72.1621 70.5755 72.0271 70.7455" fill="#416A36" blush:i="0.0.0.0.0.90"/><path id="Fill 5000" fill-rule="evenodd" clip-rule="evenodd" d="M67.5078 102.881C67.5028 102.86 67.4898 102.841 67.4798 102.82C67.4218 102.843 67.4808 102.947 67.5078 102.881" fill="#416A36" blush:i="0.0.0.0.0.91"/><path id="Fill 5002" fill-rule="evenodd" clip-rule="evenodd" d="M61.8593 129.041C61.8913 129.064 61.9263 129.082 61.9493 129.041C61.9143 129.023 61.8853 128.994 61.8593 129.041" fill="#416A36" blush:i="0.0.0.0.0.92"/><path id="Fill 5004" fill-rule="evenodd" clip-rule="evenodd" d="M62.1842 101.709C62.1802 101.711 62.1832 101.711 62.1842 101.709C62.1872 101.703 62.1812 101.711 62.1842 101.709" fill="#416A36" blush:i="0.0.0.0.0.93"/><path id="Fill 5006" fill-rule="evenodd" clip-rule="evenodd" d="M62.0267 101.312C61.9757 101.355 61.9257 101.397 61.8757 101.439C61.9767 101.458 62.0227 101.411 62.0267 101.312" fill="#416A36" blush:i="0.0.0.0.0.94"/><path id="Fill 5008" fill-rule="evenodd" clip-rule="evenodd" d="M62.1793 101.712C62.2573 101.554 62.3033 101.353 62.0273 101.312C61.8483 101.466 61.8283 101.964 62.1793 101.712" fill="#416A36" blush:i="0.0.0.0.0.95"/><path id="Fill 5010" fill-rule="evenodd" clip-rule="evenodd" d="M68.822 85.5083C68.838 85.4513 68.88 85.4153 68.919 85.3743C68.788 85.3513 68.75 85.3933 68.822 85.5083" fill="#416A36" blush:i="0.0.0.0.0.96"/></g></g></g><g id="Chair " blush:i="0.0.1"><path id="Fill 1" fill-rule="evenodd" clip-rule="evenodd" d="M42.3497 143.178C34.4597 155.395 47.3434 184.081 67.5125 196.816C87.6803 209.55 110.404 208.676 118.294 196.46C126.185 184.244 116.231 164.018 96.0635 151.284C75.8958 138.551 50.241 130.962 42.3497 143.178" fill="#B28A64" blush:i="0.0.1.0"/><path id="Fill 3" fill-rule="evenodd" clip-rule="evenodd" d="M130.22 240C130.566 240 130.894 239.901 131.175 239.707C132.394 238.865 133.914 237.816 122.363 215.628C116.903 205.139 111.014 194.76 110.956 194.655C110.603 194.036 109.816 193.818 109.191 194.168C108.57 194.521 108.351 195.309 108.704 195.93C117.938 212.192 127.24 230.196 129.073 236.218C124.715 231.221 113.314 212.412 103.425 194.664C103.078 194.044 102.293 193.814 101.665 194.164C101.041 194.51 100.816 195.297 101.163 195.921C108.356 208.829 125.544 238.961 129.793 239.951C129.938 239.983 130.08 240 130.22 240V240Z" fill="#3A332D" blush:i="0.0.1.1"/><path id="Fill 5" fill-rule="evenodd" clip-rule="evenodd" d="M64.706 244C73.0472 244 83.0418 206.613 84.9591 199.118C85.1346 198.436 84.7292 197.74 84.0522 197.563C83.3803 197.381 82.6894 197.796 82.5151 198.48C75.6264 225.376 68.0506 241.447 64.706 241.447C64.6429 241.447 64.4976 241.447 64.2639 241.174C60.6428 236.926 63.3798 207.814 65.9552 190.465C66.0587 189.768 65.5826 189.117 64.8929 189.013C64.1793 188.916 63.5604 189.389 63.4568 190.086C62.7571 194.798 56.7841 236.308 62.3517 242.841C63.1676 243.8 64.0821 244 64.706 244" fill="#3A332D" blush:i="0.0.1.2"/><g id="Group 9" blush:i="0.0.1.3"><path id="Fill 7" fill-rule="evenodd" clip-rule="evenodd" d="M32.3148 233.493C33.1347 233.493 34.8381 233.493 62.4743 193.404C62.8779 192.818 62.7408 192.008 62.1684 191.596C61.596 191.185 60.8014 191.323 60.3991 191.908C53.4945 201.925 43.3787 216.292 37.1582 224.557C42.2301 215.138 51.4713 199.18 57.9584 188.219C58.3214 187.605 58.1297 186.809 57.5294 186.438C56.929 186.064 56.1497 186.263 55.7867 186.875C29.9185 230.585 30.6801 231.965 31.1357 232.79C31.3604 233.197 31.8566 233.493 32.3148 233.493" fill="#3A332D" blush:i="0.0.1.3.0"/></g><path id="Fill 10" fill-rule="evenodd" clip-rule="evenodd" d="M41.8701 126.757C31.0175 143.753 43.7714 171.297 70.3514 188.275C96.9326 205.255 127.279 205.239 138.13 188.243C148.982 171.247 136.23 143.704 109.648 126.725C83.0677 109.747 52.7215 109.759 41.8701 126.757" fill="#EABD91" blush:i="0.0.1.4"/><path id="Fill 12" fill-rule="evenodd" clip-rule="evenodd" d="M134.918 189C135.265 189 135.598 188.776 135.752 188.394C135.776 188.333 136.367 186.862 136.969 184.305C137.099 183.751 136.808 183.183 136.32 183.036C135.82 182.886 135.325 183.219 135.197 183.771C134.638 186.143 134.088 187.519 134.082 187.531C133.873 188.053 134.077 188.669 134.537 188.906C134.661 188.971 134.79 189 134.918 189" fill="#CB9A6E" blush:i="0.0.1.5"/><path id="Fill 14" fill-rule="evenodd" clip-rule="evenodd" d="M64.9648 118.166C64.9944 118.166 65.0253 118.165 65.0562 118.162C67.53 117.928 70.0489 117.874 72.8266 118.029C73.3584 118.06 73.8156 117.649 73.8452 117.113C73.8748 116.575 73.4679 116.118 72.9347 116.088C70.1622 115.934 67.4631 115.983 64.876 116.227C64.3454 116.277 63.9552 116.751 64.0041 117.285C64.0518 117.789 64.4716 118.166 64.9648 118.166M88.4123 120.973C88.8218 120.973 89.2017 120.709 89.3331 120.295C89.494 119.784 89.2133 119.237 88.7046 119.075C86.1111 118.246 83.4918 117.577 80.9201 117.083C80.3973 116.978 79.8912 117.328 79.7908 117.855C79.6903 118.382 80.0329 118.891 80.557 118.991C83.0539 119.47 85.5986 120.122 88.12 120.928C88.2179 120.959 88.3157 120.973 88.4123 120.973M102.912 127.332C103.251 127.332 103.581 127.152 103.759 126.832C104.016 126.363 103.847 125.771 103.381 125.511C101.001 124.184 98.5869 122.978 96.2058 121.929C95.7203 121.714 95.1486 121.937 94.9335 122.429C94.7185 122.92 94.9412 123.492 95.4306 123.707C97.7576 124.733 100.118 125.911 102.444 127.21C102.593 127.293 102.754 127.332 102.912 127.332M116.089 136.157C116.373 136.157 116.655 136.032 116.845 135.789C117.177 135.368 117.107 134.758 116.69 134.425C115.763 133.684 114.798 132.947 113.795 132.215C112.621 131.357 111.414 130.511 110.211 129.702C109.767 129.406 109.167 129.526 108.872 129.972C108.576 130.417 108.696 131.021 109.14 131.319C110.322 132.113 111.507 132.942 112.661 133.787C113.642 134.503 114.583 135.223 115.487 135.946C115.666 136.089 115.878 136.157 116.089 136.157M127.283 147.38C127.489 147.38 127.697 147.314 127.873 147.177C128.295 146.848 128.371 146.238 128.044 145.814C126.455 143.749 124.658 141.716 122.7 139.769C122.319 139.392 121.707 139.394 121.334 139.776C120.959 140.157 120.962 140.773 121.342 141.15C123.238 143.037 124.979 145.007 126.518 147.003C126.708 147.251 126.994 147.38 127.283 147.38M134.837 161.303C134.94 161.303 135.045 161.286 135.146 161.251C135.652 161.08 135.923 160.528 135.752 160.02C134.904 157.498 133.804 154.997 132.486 152.582C132.228 152.112 131.641 151.939 131.174 152.199C130.706 152.458 130.536 153.049 130.792 153.519C132.058 155.832 133.11 158.23 133.923 160.642C134.058 161.048 134.434 161.303 134.837 161.303M136.969 177C137.477 177 137.903 176.6 137.932 176.084C137.976 175.308 138 174.503 138 173.671C138 171.76 137.869 169.834 137.611 167.944C137.538 167.413 137.061 167.031 136.522 167.114C135.994 167.188 135.624 167.677 135.697 168.21C135.943 170.01 136.068 171.848 136.068 173.671C136.068 174.465 136.044 175.233 136.003 175.973C135.973 176.509 136.38 176.969 136.912 176.999C136.931 177 136.949 177 136.969 177" fill="#CB9A6E" blush:i="0.0.1.6"/><path id="Fill 16" fill-rule="evenodd" clip-rule="evenodd" d="M53.0415 121C53.1914 121 53.3454 120.972 53.4897 120.911C53.5036 120.906 54.8289 120.361 57.2407 119.772C57.7944 119.637 58.1163 119.139 57.9609 118.66C57.8069 118.181 57.2421 117.895 56.6773 118.036C54.0698 118.671 52.6474 119.261 52.5891 119.285C52.0715 119.501 51.855 120.039 52.102 120.488C52.2811 120.811 52.6543 121 53.0415 121" fill="#CB9A6E" blush:i="0.0.1.7"/><path id="Fill 18" fill-rule="evenodd" clip-rule="evenodd" d="M127.102 193C127.486 193 127.861 192.837 128.062 192.548C128.098 192.497 128.934 191.292 129.927 189.202C130.144 188.746 129.859 188.234 129.291 188.06C128.722 187.883 128.085 188.114 127.869 188.571C126.938 190.527 126.148 191.671 126.141 191.683C125.844 192.109 126.032 192.648 126.564 192.887C126.734 192.963 126.919 193 127.102 193" fill="#CB9A6E" blush:i="0.0.1.8"/><path id="Fill 20" fill-rule="evenodd" clip-rule="evenodd" d="M59.9662 125.641C60.0204 125.641 60.0746 125.637 60.1288 125.627C62.6538 125.202 65.2769 124.967 67.9258 124.926C68.46 124.918 68.8858 124.48 68.878 123.949C68.869 123.421 68.438 123 67.9103 123H67.8961C65.1505 123.044 62.4267 123.288 59.8062 123.729C59.2798 123.816 58.9237 124.315 59.014 124.838C59.0927 125.308 59.503 125.641 59.9662 125.641M83.716 126.844C84.1469 126.844 84.5418 126.555 84.6527 126.12C84.7843 125.605 84.4721 125.08 83.9547 124.949C81.2993 124.276 78.622 123.77 75.9964 123.445C75.4467 123.383 74.9809 123.755 74.9164 124.281C74.8506 124.81 75.2261 125.291 75.7564 125.356C78.3034 125.67 80.9006 126.161 83.476 126.814C83.556 126.835 83.6373 126.844 83.716 126.844M98.6288 132.432C98.9849 132.432 99.3268 132.237 99.4971 131.898C99.7345 131.421 99.5397 130.844 99.061 130.606C96.6044 129.391 94.1168 128.304 91.664 127.38C91.1724 127.19 90.606 127.441 90.4176 127.94C90.2279 128.437 90.4782 128.993 90.9788 129.181C93.371 130.082 95.7992 131.143 98.1991 132.332C98.3372 132.4 98.4843 132.432 98.6288 132.432M112.224 140.718C112.517 140.718 112.809 140.586 113 140.335C113.321 139.91 113.234 139.306 112.807 138.987C111.764 138.205 110.649 137.42 109.498 136.653C108.359 135.897 107.23 135.18 106.114 134.5C105.656 134.219 105.061 134.365 104.782 134.818C104.505 135.273 104.647 135.866 105.102 136.143C106.199 136.809 107.304 137.514 108.423 138.255C109.544 139.001 110.628 139.765 111.644 140.526C111.818 140.655 112.023 140.718 112.224 140.718M123.492 151.887C123.689 151.887 123.888 151.827 124.06 151.705C124.492 151.391 124.589 150.789 124.275 150.359C122.735 148.248 120.946 146.188 118.958 144.237C118.579 143.866 117.963 143.866 117.589 144.247C117.214 144.626 117.219 145.236 117.599 145.609C119.512 147.486 121.23 149.465 122.708 151.49C122.897 151.75 123.193 151.887 123.492 151.887M130.103 166.221C130.174 166.221 130.247 166.214 130.318 166.198C130.84 166.081 131.166 165.567 131.049 165.047C130.453 162.414 129.565 159.823 128.414 157.349C128.189 156.865 127.613 156.66 127.129 156.881C126.644 157.104 126.434 157.677 126.657 158.159C127.752 160.51 128.594 162.97 129.161 165.47C129.262 165.918 129.662 166.221 130.103 166.221M130.352 182C130.81 182 131.218 181.674 131.303 181.21C131.765 178.684 132 176.136 132 173.636L131.996 173.12C131.988 172.593 131.556 172.172 131.028 172.172H131.014C130.479 172.179 130.053 172.617 130.061 173.149L130.065 173.636C130.065 176.02 129.84 178.453 129.399 180.865C129.302 181.389 129.652 181.888 130.177 181.986C130.236 181.995 130.294 182 130.352 182" fill="#CB9A6E" blush:i="0.0.1.9"/><path id="Fill 22" fill-rule="evenodd" clip-rule="evenodd" d="M48.8843 129C49.0327 129 49.1823 128.964 49.3202 128.89C49.3308 128.884 50.4229 128.304 52.4174 127.62C52.8768 127.461 53.1136 126.983 52.9463 126.55C52.7814 126.116 52.2725 125.894 51.8142 126.05C49.6618 126.789 48.4932 127.414 48.4448 127.44C48.0219 127.669 47.8747 128.177 48.1162 128.578C48.2787 128.847 48.5768 129 48.8843 129" fill="#CB9A6E" blush:i="0.0.1.10"/><path id="Fill 24" fill-rule="evenodd" clip-rule="evenodd" d="M120.099 195C120.487 195 120.862 194.833 121.062 194.539C121.097 194.49 121.914 193.281 122.924 191.21C123.145 190.754 122.868 190.24 122.303 190.06C121.74 189.884 121.101 190.105 120.877 190.561C119.926 192.517 119.144 193.677 119.135 193.689C118.845 194.117 119.038 194.656 119.571 194.89C119.738 194.966 119.92 195 120.099 195" fill="#CB9A6E" blush:i="0.0.1.11"/><path id="Fill 26" fill-rule="evenodd" clip-rule="evenodd" d="M79.6387 132.941C80.0905 132.941 80.4922 132.621 80.582 132.161C80.6834 131.635 80.3446 131.129 79.8235 131.026C77.2387 130.518 74.6604 130.174 72.1565 130.001C71.6675 129.977 71.167 130.365 71.131 130.899C71.0951 131.432 71.4942 131.893 72.0255 131.929C74.4486 132.097 76.9474 132.43 79.4513 132.923C79.5142 132.934 79.5771 132.941 79.6387 132.941M56.9609 133.155C57.0392 133.155 57.1162 133.146 57.1945 133.126C59.5444 132.539 62.0188 132.143 64.5523 131.947C65.0823 131.906 65.4789 131.442 65.4391 130.91C65.398 130.376 64.9489 129.996 64.4047 130.019C61.7647 130.224 59.1838 130.638 56.7299 131.25C56.214 131.379 55.8996 131.903 56.0292 132.421C56.137 132.861 56.5297 133.155 56.9609 133.155M94.181 137.418C94.5596 137.418 94.9177 137.192 95.0704 136.82C95.2744 136.326 95.0396 135.761 94.548 135.557C92.1198 134.552 89.6814 133.666 87.3032 132.928C86.7898 132.776 86.2547 133.057 86.0981 133.566C85.9415 134.076 86.2264 134.617 86.7334 134.776C89.0576 135.496 91.4396 136.361 93.8139 137.344C93.9346 137.395 94.0578 137.418 94.181 137.418M107.704 144.409C108.016 144.409 108.324 144.257 108.508 143.976C108.803 143.532 108.681 142.932 108.237 142.637C106.644 141.578 104.924 140.56 103.128 139.609C102.594 139.327 102.062 139.049 101.534 138.783C101.06 138.542 100.48 138.735 100.241 139.212C100.001 139.687 100.194 140.27 100.669 140.51C101.185 140.771 101.706 141.041 102.229 141.319C103.971 142.24 105.635 143.225 107.174 144.248C107.338 144.358 107.523 144.409 107.704 144.409M118.762 154.81C118.957 154.81 119.153 154.75 119.324 154.627C119.755 154.315 119.853 153.71 119.542 153.277C118.068 151.223 116.325 149.255 114.36 147.432C113.972 147.071 113.36 147.091 113 147.486C112.639 147.877 112.662 148.488 113.053 148.852C114.923 150.586 116.58 152.458 117.98 154.408C118.168 154.669 118.463 154.81 118.762 154.81M124.577 168.799C124.63 168.799 124.684 168.795 124.738 168.785C125.261 168.697 125.615 168.199 125.527 167.673C125.092 165.06 124.365 162.52 123.368 160.124C123.163 159.63 122.598 159.399 122.109 159.604C121.619 159.811 121.387 160.377 121.591 160.869C122.531 163.13 123.217 165.526 123.629 167.992C123.707 168.464 124.115 168.799 124.577 168.799M124.051 184C124.494 184 124.893 183.692 124.99 183.24C125.559 180.635 125.898 178.029 125.999 175.497C126.021 174.962 125.608 174.513 125.076 174.492C124.521 174.466 124.097 174.885 124.077 175.418C123.979 177.838 123.654 180.331 123.11 182.827C122.996 183.348 123.325 183.863 123.844 183.978C123.914 183.992 123.983 184 124.051 184" fill="#CB9A6E" blush:i="0.0.1.12"/><path id="Fill 28" fill-rule="evenodd" clip-rule="evenodd" d="M45.9185 138C46.113 138 46.3087 137.933 46.4751 137.796C46.4861 137.787 47.516 136.936 49.4828 135.898C49.9378 135.657 50.1287 135.06 49.9085 134.563C49.6883 134.067 49.1403 133.861 48.6829 134.099C46.5289 135.236 45.4048 136.17 45.3583 136.209C44.9571 136.546 44.8813 137.172 45.1895 137.61C45.3705 137.865 45.6421 138 45.9185 138" fill="#CB9A6E" blush:i="0.0.1.13"/><path id="Fill 30" fill-rule="evenodd" clip-rule="evenodd" d="M112.058 196C112.416 196 112.766 195.846 112.965 195.567C113 195.517 113.857 194.31 114.912 192.254C115.145 191.799 114.899 191.271 114.363 191.075C113.821 190.876 113.201 191.088 112.971 191.54C111.976 193.476 111.159 194.628 111.152 194.639C110.851 195.064 111.011 195.615 111.511 195.871C111.681 195.958 111.871 196 112.058 196" fill="#CB9A6E" blush:i="0.0.1.14"/><path id="Fill 32" fill-rule="evenodd" clip-rule="evenodd" d="M79.8264 140.164C80.2638 140.164 80.6578 139.861 80.7588 139.411C80.879 138.89 80.5554 138.369 80.04 138.25C77.3209 137.616 74.598 137.196 71.9479 137C71.4287 136.99 70.9606 137.362 70.9209 137.897C70.8826 138.431 71.279 138.896 71.8073 138.935C74.3614 139.123 76.9845 139.529 79.6103 140.138C79.6832 140.156 79.7548 140.164 79.8264 140.164M55.9595 140.613C56.0503 140.613 56.1424 140.6 56.2357 140.57C58.7016 139.82 61.2954 139.303 63.939 139.032C64.4659 138.978 64.8509 138.503 64.7972 137.97C64.7435 137.437 64.2562 137.04 63.7472 137.102C60.9807 137.386 58.268 137.928 55.6832 138.714C55.1768 138.868 54.8877 139.409 55.0412 139.922C55.1665 140.343 55.5477 140.613 55.9595 140.613M94.8876 145.775C95.2406 145.775 95.577 145.58 95.7458 145.241C95.985 144.762 95.7931 144.179 95.3199 143.938C92.831 142.672 90.3204 141.561 87.8571 140.632C87.3634 140.449 86.8096 140.702 86.6229 141.204C86.4387 141.705 86.6907 142.265 87.1882 142.452C89.585 143.355 92.0317 144.439 94.4579 145.672C94.5973 145.742 94.7431 145.775 94.8876 145.775M108.057 154.995C108.303 154.995 108.546 154.902 108.734 154.713C109.11 154.335 109.111 153.721 108.738 153.342C106.897 151.465 104.761 149.691 102.391 148.066C101.953 147.765 101.357 147.882 101.059 148.326C100.761 148.768 100.876 149.372 101.314 149.674C103.583 151.229 105.623 152.922 107.377 154.708C107.564 154.899 107.812 154.995 108.057 154.995M116.073 168.879C116.153 168.879 116.235 168.869 116.314 168.848C116.828 168.712 117.135 168.183 117.001 167.666C116.305 164.96 115.234 162.358 113.815 159.931C113.545 159.472 112.96 159.315 112.502 159.591C112.045 159.862 111.894 160.457 112.164 160.919C113.49 163.189 114.493 165.624 115.145 168.154C115.258 168.591 115.647 168.879 116.073 168.879M116.089 185C116.525 185 116.922 184.696 117.023 184.245C117.653 181.438 117.982 178.655 118 175.973C118.004 175.437 117.577 175 117.047 174.996H117.041C116.514 174.996 116.085 175.427 116.082 175.96C116.065 178.503 115.753 181.145 115.152 183.815C115.034 184.336 115.358 184.858 115.876 184.977C115.946 184.992 116.018 185 116.089 185" fill="#CB9A6E" blush:i="0.0.1.15"/><path id="Fill 34" fill-rule="evenodd" clip-rule="evenodd" d="M44.9382 146C45.1507 146 45.3657 145.926 45.5406 145.777C45.5506 145.768 46.5842 144.891 48.5214 143.786C48.9738 143.527 49.1326 142.946 48.8801 142.485C48.6264 142.025 48.0552 141.868 47.6041 142.12C45.4956 143.324 44.3796 144.277 44.3333 144.318C43.9371 144.656 43.8872 145.258 44.2208 145.66C44.4058 145.885 44.6708 146 44.9382 146" fill="#CB9A6E" blush:i="0.0.1.16"/><path id="Fill 36" fill-rule="evenodd" clip-rule="evenodd" d="M105.106 196C105.106 196 116.573 169.696 93.8577 152.599C71.1415 135.502 46 152.599 46 152.599" fill="#E8BB8F" blush:i="0.0.1.17"/><path id="Fill 38" fill-rule="evenodd" clip-rule="evenodd" d="M59.5622 152.562C66.2692 145.855 80.1844 148.897 90.6452 159.355C101.103 169.816 104.145 183.731 97.4378 190.438C90.7308 197.145 76.8156 194.103 66.3548 183.645C55.8967 173.184 52.8551 159.269 59.5622 152.562" fill="#FEC1C7" blush:i="0.0.1.18"/></g></g><g id="Master/Female Character/Sitting" blush:has-customizable-colors="true" blush:component="Master/Female Character/Sitting" blush:width="271" blush:height="255" transform="translate(-47 1.5) scale(1 1)" blush:i="0.1" blush:value="Sitting" blush:viewBox="67.75 62.39361702127661 127.36999999999996 192.60638297872333"><g id="Master/Female Character/Sitting" blush:has-customizable-colors="true" blush:viewBox="67.75 62.39361702127661 127.36999999999996 192.60638297872333" blush:i="0.1.0"><g id="Female Character Sitting/Lower Body" blush:component="Female Character Sitting/Lower Body" blush:defaultValue="Skirt 2" blush:width="126" blush:height="147" transform="translate(68 108) scale(1 1)" blush:i="0.1.0.0" blush:value="Skirt 1" blush:viewBox="40.60489510489512 31.60499999999999 84.44055944055945 115.39499999999998"><g id="Female Character Sitting/Lower Body/Skirt 1" blush:viewBox="40.60489510489512 31.60499999999999 84.44055944055945 115.39499999999998" blush:i="0.1.0.0.0"><g id="Group 20" blush:i="0.1.0.0.0.0"><path id="Fill 1" fill-rule="evenodd" clip-rule="evenodd" d="M58.7325 35.215C58.7325 35.215 63.9955 31.613 69.6735 31.891C75.3515 32.168 79.6635 33.968 81.2465 42.694C81.2465 42.694 94.0485 45.048 106.789 56.958C119.53 68.868 120.085 69.284 118.422 78.979C116.761 88.673 111.914 100.445 111.914 100.445L110.236 118.667C110.236 118.667 112.583 125.131 115.661 127.208C118.739 129.286 120.689 130.286 119.099 131.748C117.508 133.21 117.123 131.441 114.045 131.748C110.967 132.056 110.659 130.441 110.659 130.441C110.659 130.441 114.276 139.136 120.663 142.906C120.663 142.906 122.817 144.907 120.663 145.83C118.508 146.754 112.506 146.677 109.659 144.753C106.812 142.829 100.963 137.904 99.0405 137.365C97.1165 136.827 98.0395 133.98 98.0395 133.98L100.81 126.285C100.81 126.285 100.04 125.284 97.8855 124.592C95.7315 123.9 94.5775 120.976 94.8075 119.898C95.0385 118.82 98.8865 113.358 98.9635 109.356C98.9635 109.356 97.0395 103.893 94.4235 99.044C91.8065 94.196 95.1925 82.423 97.1165 79.268C97.1165 79.268 94.1155 79.73 88.4205 80.192C82.7265 80.653 63.3865 82.041 52.0445 75.794C40.7015 69.546 41.8185 48.364 58.7325 35.215" fill="#a15122" blush:color="Skin-500" blush:i="0.1.0.0.0.0.0"/><path id="Fill 3" fill-rule="evenodd" clip-rule="evenodd" d="M74.0571 50.8448C77.7781 51.6988 81.4541 52.7788 85.0481 54.0888C88.6381 55.4068 92.1761 56.8978 95.5571 58.7118C98.9291 60.5328 102.19 62.6088 105.095 65.1488C108.007 67.6598 110.502 70.7528 112.037 74.3318L112.063 74.3928V74.4598C112.091 78.7908 112.075 83.1208 112.051 87.4518C112.051 91.7828 111.963 96.1149 111.914 100.446C111.802 96.1159 111.651 91.7858 111.588 87.4548C111.502 83.1258 111.423 78.7958 111.388 74.4648L111.414 74.5928C109.914 71.1448 107.45 68.1798 104.608 65.7018C101.78 63.1898 98.5741 61.1128 95.2471 59.2838C91.9061 57.4758 88.4491 55.8658 84.8971 54.4878C81.3461 53.1118 77.7461 51.8328 74.0571 50.8448" fill="black" blush:i="0.1.0.0.0.0.1"/><path id="Fill 5" fill-rule="evenodd" clip-rule="evenodd" d="M98.9634 109.356C99.5864 110.666 100.068 112.037 100.49 113.424C100.904 114.816 101.23 116.235 101.459 117.673C101.644 119.115 101.797 120.572 101.711 122.033C101.624 123.487 101.377 124.947 100.81 126.286C101.179 124.882 101.319 123.453 101.326 122.023C101.332 120.592 101.185 119.163 100.965 117.748C100.78 116.325 100.452 114.924 100.121 113.525C99.7794 112.127 99.3934 110.738 98.9634 109.356" fill="black" blush:i="0.1.0.0.0.0.2"/><path id="Fill 7" fill-rule="evenodd" clip-rule="evenodd" d="M110.237 118.667C110.111 120.652 110.003 122.619 110.022 124.586C110.041 126.553 110.183 128.507 110.66 130.44C110.229 129.54 109.967 128.563 109.783 127.579C109.606 126.592 109.544 125.59 109.523 124.591C109.52 123.591 109.57 122.593 109.692 121.603C109.812 120.613 109.97 119.628 110.237 118.667" fill="black" blush:i="0.1.0.0.0.0.3"/><path id="Fill 9" fill-rule="evenodd" clip-rule="evenodd" d="M96.7886 79.3156C96.8556 78.7506 97.1166 78.2566 97.4306 77.8146C97.7596 77.3826 98.1606 76.9926 98.6776 76.7606C98.5616 77.0226 98.4146 77.2426 98.2756 77.4666C98.1386 77.6926 97.9826 77.8996 97.8326 78.1116C97.5156 78.5256 97.2006 78.9306 96.7886 79.3156" fill="#7A3710" blush:i="0.1.0.0.0.0.4"/><g id="Group 13" blush:i="0.1.0.0.0.0.5"><path id="Fill 11" fill-rule="evenodd" clip-rule="evenodd" d="M99.934 127.373C99.934 127.373 100.353 127.311 100.392 127.447C100.428 127.577 100.144 128.135 100.144 128.135C100.727 130.276 102.338 136.349 102.512 138.775C102.544 139.224 102.781 139.625 103.154 139.875L109.585 144.177C110.159 144.561 110.932 144.406 111.314 143.83C112.352 142.267 114.49 139.551 116.73 139.709C116.73 139.709 125.124 144.311 125.124 144.896C125.124 145.48 119.837 148.62 110.214 145.918C110.214 145.918 102.489 140.442 99.934 138.836C97.378 137.229 95.626 136.499 96.867 133.579C98.108 130.658 99.934 127.373 99.934 127.373" fill="#131313" blush:i="0.1.0.0.0.0.5.0"/></g><path id="Fill 14" fill-rule="evenodd" clip-rule="evenodd" d="M110.562 130.163L111.001 131.194C111.001 131.194 115.524 133.963 121.771 131.393C121.771 131.393 122.449 130.988 121.907 130.745C121.364 130.501 115.825 126.853 115.377 127C114.929 127.147 112.74 130.473 110.562 130.163" fill="#131313" blush:i="0.1.0.0.0.0.6"/><path id="Fill 16" fill-rule="evenodd" clip-rule="evenodd" d="M96.8716 115.22C96.8716 115.22 91.7066 120.217 93.5756 123.197C94.1856 124.169 100.691 126.616 100.691 126.616L100.81 126.285C100.433 125.338 99.3716 123.212 99.1036 121.764L96.8716 115.22Z" fill="#131313" blush:i="0.1.0.0.0.0.7"/><path id="Fill 18" fill-rule="evenodd" clip-rule="evenodd" d="M69.6735 31.8908C69.6735 31.8908 62.6954 30.5408 57.2704 35.1398C51.8444 39.7388 33.2734 56.9968 44.5894 70.1238C55.9044 83.2518 78.8134 82.3508 95.0294 79.7778C95.0294 79.7778 95.1524 80.3018 94.6544 80.8208C94.6544 80.8208 107.144 84.9008 111.914 82.7878C116.683 80.6758 116.591 81.1348 118.841 80.1708C118.841 80.1708 121.465 73.0438 117.726 67.6158C113.987 62.1878 95.5494 44.5498 81.2464 42.6938L79.7295 36.6158C79.7295 36.6158 79.3305 31.5098 69.6735 31.8908" fill="#003B01" blush:i="0.1.0.0.0.0.8"/></g></g></g><g id="Female Character/Upper Body" blush:component="Female Character/Upper Body" blush:defaultValue="Sweater 9" blush:width="106" blush:height="123" transform="translate(82 93) scale(1 1)" blush:i="0.1.0.1" blush:value="Button Shirt 1" blush:viewBox="14.57192575406033 0 57.18097447795821 86.10000000000001"><g id="Female Character/Upper Body/Button Shirt 1" blush:viewBox="14.57192575406033 0 57.18097447795821 86.10000000000001" blush:i="0.1.0.1.0"><path id="Fill 55" fill-rule="evenodd" clip-rule="evenodd" d="M51.124 1.21845C51.124 1.21845 52.0261 9.92579 44.0001 14.3982C44.0001 14.3982 43.8584 20 52.8344 20C61.8104 20 62 15.2458 62 15.2458C62 15.2458 57.8688 12.1847 57.3928 11.4321C57.3928 11.4321 57.6782 8.46699 58.4386 7.1961C59.1979 5.9252 59.8156 2.53683 56.1115 0.700194C52.4063 -1.13543 51.124 1.21845 51.124 1.21845" fill="#a15122" blush:color="Skin-500" blush:i="0.1.0.1.0.0"/><g id="Female Top" blush:i="0.1.0.1.0.1"><g id="Group 189" blush:i="0.1.0.1.0.1.0"><path id="Fill 187" fill-rule="evenodd" clip-rule="evenodd" d="M32.0829 23.0391C30.3819 29.9831 28.8229 42.7391 28.4689 44.5821C28.1149 46.4251 24.8549 65.8421 22.7289 68.4641C20.6029 71.0861 17.3429 75.6211 16.9889 76.2601C16.9889 76.2601 15.7839 78.3141 15.0399 82.5661C15.0399 82.5661 15.1459 82.9561 15.5359 83.0981C15.5359 83.0981 14.8269 84.5861 15.0399 84.6921C15.2519 84.7991 15.6779 85.2601 16.1389 84.8341C16.5989 84.4091 18.3699 79.3071 18.9019 78.8461C19.4329 78.3861 16.3149 84.8341 16.2799 85.2241C16.2439 85.6131 17.2019 85.5781 17.2019 85.5781C17.2019 85.5781 19.4329 82.2471 19.6109 81.7161C19.7879 81.1851 20.7799 79.8381 20.9929 79.8381C21.2049 79.8381 19.5039 82.7081 19.1499 83.1691C18.7959 83.6301 18.6539 84.3031 18.7599 84.4441C18.8669 84.5861 19.9649 84.2681 20.1779 84.0901C20.3899 83.9131 23.7209 79.3001 23.8629 79.3201C24.0039 79.3421 24.2519 79.0231 24.4299 78.7751C24.6069 78.5271 23.8629 80.6171 24.4649 81.6811C24.4649 81.6811 24.6779 81.8941 25.3859 81.8941C25.3859 81.8941 26.1299 79.1651 26.5199 78.8101C26.9099 78.4561 27.5119 74.9831 27.9369 73.9561C28.3629 72.9291 27.1579 71.9721 29.2479 67.5081C31.3389 63.0431 35.0949 55.4951 35.0949 47.2041C35.0949 47.2041 38.1069 36.5561 39.9139 33.9611C39.9139 33.9611 43.3399 41.4641 43.6999 50.7471C43.6999 50.7471 49.6579 54.9991 64.8229 50.8181C64.8229 50.8181 66.5949 44.7374 68.0829 41.3221C69.5709 37.9067 70.9679 36.0081 71.3429 34.3071C71.7179 32.6051 69.5709 28.4951 69.0749 27.4331C68.5789 26.3691 70.8699 22.4791 66.8899 19.3611C62.9099 16.2431 62.0279 15.1701 62.0279 15.1701C62.0279 15.1701 52.0479 23.3401 44.3689 14.3311C44.3689 14.3311 33.7839 16.0941 32.0829 23.0391Z" fill="#a15122" blush:color="Skin-500" blush:i="0.1.0.1.0.1.0.0"/></g><path id="Fill 190" fill-rule="evenodd" clip-rule="evenodd" d="M57.7819 10.6016C57.7819 10.6016 56.4359 12.7276 54.8409 12.6216C53.2469 12.5156 50.5889 11.7356 49.0659 9.11365C49.0659 9.11365 46.9899 11.4976 45.7499 12.9146C45.7499 12.9146 41.0109 14.6766 39.1679 15.4796C37.3249 16.2836 32.7309 18.0406 30.9729 25.3536C29.2089 32.6896 28.8779 34.0666 28.8779 34.0666C28.8779 34.0666 35.1049 37.0236 38.9789 36.8336L39.7819 34.8976C39.7819 34.8976 42.0499 41.1096 41.9079 43.8026C41.7659 46.4956 42.8289 50.2516 43.5379 50.7476C43.5379 50.7476 51.9599 56.1176 64.8229 50.8186C64.8229 50.8186 68.3409 47.2046 68.6959 45.9986C69.0499 44.7946 67.8449 40.8976 69.4749 38.7006C71.1049 36.5036 72.5929 35.0156 71.1049 31.4716C69.6169 27.9286 69.2619 27.6456 69.3329 26.0156C69.4039 24.3856 70.2669 21.0726 67.0779 18.5916C63.8889 16.1116 60.7589 14.8186 57.7819 10.6016" fill="#DAEDEB" blush:i="0.1.0.1.0.1.1"/><path id="Fill 192" fill-rule="evenodd" clip-rule="evenodd" d="M48.4785 16.3491C49.0005 16.8581 49.5805 17.3021 50.1825 17.6991C50.7905 18.0941 51.4455 18.3951 52.1145 18.6511L51.8505 18.7531C52.8815 16.8091 53.8065 14.8011 54.6675 12.7791L54.6695 12.7741C54.7215 12.6531 54.8605 12.5981 54.9805 12.6491C55.0215 12.6661 55.0545 12.6941 55.0795 12.7271C56.3025 14.4011 57.5355 16.0681 58.7285 17.7671L58.4875 17.7401C58.7355 17.5121 58.9695 17.1931 59.1745 16.8861C59.3795 16.5711 59.5755 16.2471 59.7575 15.9151C60.1245 15.2501 60.4385 14.5541 60.7225 13.8441C60.5005 14.5751 60.2465 15.2991 59.9345 16.0021C59.7815 16.3551 59.6085 16.7011 59.4075 17.0331C59.2035 17.3681 59.0035 17.6851 58.7035 17.9911C58.6445 18.0521 58.5465 18.0531 58.4865 17.9931L58.4745 17.9781L58.4625 17.9651C57.1835 16.3311 54.8371 13.0317 54.929 13.0201C54.9741 13.0144 53.2865 17.0071 52.2335 18.9621L52.2315 18.9671C52.1805 19.0611 52.0675 19.1011 51.9695 19.0631C51.2635 18.7911 50.5825 18.4541 49.9725 18.0141C49.3635 17.5761 48.7865 17.0951 48.2745 16.5531C47.2395 15.4801 46.4045 14.2341 45.7505 12.9141C46.4875 14.1921 47.4355 15.3331 48.4785 16.3491Z" fill="#9FB1B7" blush:i="0.1.0.1.0.1.2"/><path id="Fill 194" fill-rule="evenodd" clip-rule="evenodd" d="M54.8413 12.6211L56.0283 17.5251C56.4293 19.1561 56.8373 20.7871 57.3273 22.3851C57.5713 23.1941 57.8463 23.9451 58.1693 24.7291C58.4843 25.5191 58.7723 26.3161 59.0323 27.1231C59.5573 28.7341 59.9873 30.3781 60.3063 32.0491C60.5993 33.7231 60.7833 35.4281 60.6963 37.1461C60.6653 38.0051 60.5393 38.8651 60.3233 39.7081C60.1203 40.5211 59.9133 41.3091 59.7933 42.1361C59.5173 43.7741 59.4683 45.4551 59.2973 47.1391C59.0993 48.7901 58.7903 50.5921 57.6093 51.8501C58.6473 50.4881 58.8513 48.7601 58.9303 47.1081C59.0263 45.4401 59.0093 43.7481 59.2213 42.0561C59.3043 41.2101 59.4953 40.3601 59.6963 39.5431C59.8853 38.7541 59.9963 37.9401 60.0143 37.1181C60.0763 35.4731 59.8743 33.8141 59.5693 32.1831C59.2793 30.5451 58.8783 28.9231 58.3833 27.3291C58.1373 26.5321 57.8643 25.7431 57.5673 24.9681C57.2513 24.1951 56.9783 23.3541 56.7753 22.5431C55.9283 19.2661 55.3293 15.9541 54.8413 12.6211" fill="#9FB1B7" blush:i="0.1.0.1.0.1.3"/><path id="Fill 196" fill-rule="evenodd" clip-rule="evenodd" d="M39.7822 34.8976C40.1262 33.5856 40.5872 32.3286 41.0582 31.0746C41.5442 29.8256 42.0462 28.5896 42.6172 27.3616C42.5262 28.0356 42.3562 28.6906 42.1712 29.3386C41.9902 29.9896 41.7592 30.6226 41.5242 31.2526C41.0322 32.5046 40.4852 33.7366 39.7822 34.8976" fill="#9FB1B7" blush:i="0.1.0.1.0.1.4"/></g></g></g><g id="Female Character/Head" blush:component="Female Character/Head" blush:defaultValue="Pixie Cut 4" blush:width="53" blush:height="71" transform="translate(111 63) scale(1 1)" blush:i="0.1.0.2" blush:value="Hijab 5" blush:viewBox="8.916219839142094 8.519999999999996 30.549597855227873 40.47"><g id="Female Character/Head/Hijab 5" blush:viewBox="8.916219839142094 8.519999999999996 30.549597855227873 40.47" blush:i="0.1.0.2.0"><g id="Group 186" blush:i="0.1.0.2.0.0"><path id="Fill 55" fill-rule="evenodd" clip-rule="evenodd" d="M15.528 44.299C15.528 44.299 15.6941 48.1563 24.5001 48.1563C33.3061 48.1563 33.187 45.138 33.187 45.138C33.187 45.138 29.134 42.108 28.667 41.363C28.667 41.363 28.947 38.428 29.693 37.17C30.438 35.912 31.044 32.558 27.41 30.74C23.775 28.923 22.517 31.253 22.517 31.253C22.517 31.253 23.402 39.872 15.528 44.299Z" fill="#a15122" blush:color="Skin-500" blush:i="0.1.0.2.0.0.0"/><path id="Fill 57" fill-rule="evenodd" clip-rule="evenodd" d="M20.3004 32.0304C20.3004 32.0304 21.4344 34.2984 23.9144 35.7864C26.3944 37.2744 29.5124 39.5424 31.0714 39.0464C32.6314 38.5504 36.7624 35.3844 37.7544 31.8414C38.7464 28.2984 39.3634 22.3924 38.7254 19.4864C38.0884 16.5814 34.4734 10.4864 28.0254 10.4864C21.5754 10.4864 15.8364 17.2894 17.3944 24.8014C17.3944 24.8014 15.6024 26.9994 17.1364 29.2664C18.6704 31.5344 20.3004 32.0304 20.3004 32.0304" fill="#a15122" blush:color="Skin-500" blush:i="0.1.0.2.0.0.1"/><path id="Fill 59" fill-rule="evenodd" clip-rule="evenodd" d="M24.148 27.2823C24.148 27.2823 26.995 27.3523 27.751 27.9023C27.751 27.9023 28.028 28.0003 27.921 27.6363C27.921 27.6363 28.329 27.9283 28.356 27.7693C28.382 27.6093 28.178 26.0683 26.575 25.8553C24.972 25.6433 23.767 27.1133 24.148 27.2823" fill="black" blush:i="0.1.0.2.0.0.2"/><path id="Fill 61" fill-rule="evenodd" clip-rule="evenodd" d="M36.6202 26.8741C36.6202 26.8741 34.8142 26.8481 34.0822 27.3961C34.0822 27.3961 33.8142 27.4941 33.9162 27.1311C33.9162 27.1311 33.5222 27.4231 33.4962 27.2641C33.4712 27.1041 34.2052 25.6521 35.7582 25.4391C37.3102 25.2271 37.7182 26.5851 36.6202 26.8741" fill="black" blush:i="0.1.0.2.0.0.3"/><path id="Fill 63" fill-rule="evenodd" clip-rule="evenodd" d="M31.8901 32.2247C31.8901 32.2247 31.6771 32.4027 31.8901 32.5787C32.1021 32.7567 33.5021 32.2607 33.8211 31.7997C34.1401 31.3387 33.9511 31.2867 33.4961 31.5517C33.0411 31.8177 31.8901 32.2247 31.8901 32.2247" fill="black" blush:i="0.1.0.2.0.0.4"/><path id="Fill 65" fill-rule="evenodd" clip-rule="evenodd" d="M29.02 33.6602C29.02 33.6602 28.932 33.5012 29.693 33.5012C30.455 33.5012 30.384 33.6422 31.624 33.6602C32.864 33.6782 33.372 33.6602 32.888 33.9782C32.404 34.2982 32.439 34.2802 32.351 34.5282C32.262 34.7762 31.141 35.2192 30.257 34.9182C29.374 34.6162 28.472 33.8172 29.02 33.6602" fill="#EE4E2F" blush:i="0.1.0.2.0.0.5"/><path id="Fill 67" fill-rule="evenodd" clip-rule="evenodd" d="M23.6992 23.1007C23.8342 23.0587 23.6522 23.3367 24.2662 23.2307C24.8802 23.1247 26.5572 22.9357 28.0692 23.8807C28.0692 23.8807 28.3392 23.6677 28.3582 23.2667C28.3752 22.8907 25.8292 21.6037 23.6632 23.0307C23.5152 23.1277 23.5612 23.1437 23.6992 23.1007" fill="black" blush:i="0.1.0.2.0.0.6"/><path id="Fill 69" fill-rule="evenodd" clip-rule="evenodd" d="M36.6204 23.2423C36.6204 23.2423 35.7224 22.2743 34.2104 22.7223C32.6994 23.1723 32.8394 23.8563 32.8874 24.0463C32.9354 24.2343 34.0214 23.3123 35.1554 23.3253C36.2894 23.3373 36.6204 23.5733 36.6204 23.2423" fill="black" blush:i="0.1.0.2.0.0.7"/></g><g id="Group 23" blush:i="0.1.0.2.0.1"><g id="Group 3" blush:i="0.1.0.2.0.1.0"><path id="Fill 1" fill-rule="evenodd" clip-rule="evenodd" d="M38.3999 29.1102C38.3999 29.1102 41.3219 19.0035 36.8569 14.6405C32.3899 10.2755 24.6379 5.8605 19.6079 10.4305C14.5759 14.9995 13.2929 17.7715 12.4199 21.3145C11.5469 24.8565 10.7259 28.6545 14.3709 33.4295C14.3709 33.4295 14.9359 35.3805 15.8079 35.8935C16.6809 36.4065 18.4259 38.0495 18.4259 38.0495C18.4259 38.0495 16.9379 38.4605 17.2449 40.2575C17.2449 40.2575 16.2189 40.2575 15.8599 41.0265C15.4999 41.7975 15.0889 42.7215 13.9079 42.8755C12.7279 43.0295 11.8559 42.4645 10.5709 44.0565C9.28791 45.6485 8.51891 46.7265 9.33991 47.0335C9.33991 47.0335 10.9829 46.1095 11.3929 46.1095C11.3929 46.1095 23.7659 52.2185 34.5459 46.1095C34.5459 46.1095 32.6979 43.9535 32.4419 43.6965C32.1849 43.4405 31.4149 43.2345 31.4149 43.2345L30.2339 40.5145L30.9019 39.0765C30.9019 39.0765 24.2819 37.4345 22.7659 34.4045C21.2499 31.3755 19.9149 23.0085 23.2519 19.6195C26.5889 16.2315 40.6589 14.8813 38.3999 28.1773V29.1102Z" fill="#819500" blush:i="0.1.0.2.0.1.0.0"/></g><path id="Fill 4" fill-rule="evenodd" clip-rule="evenodd" d="M28.2313 12.5348C27.3083 13.1178 26.3753 13.6788 25.4693 14.2808C24.5553 14.8638 23.6433 15.4618 22.8123 16.1288C22.6093 16.2958 22.4023 16.4688 22.2343 16.6488C22.0413 16.8418 21.9523 16.9658 21.8353 17.2238C21.6243 17.6998 21.4373 18.2018 21.2873 18.7128C20.9773 19.7328 20.7723 20.7858 20.6403 21.8458C20.3603 23.9638 20.4103 26.1278 20.7963 28.2398C21.1683 30.3558 21.8683 32.4158 22.7653 34.4048C21.5923 32.5618 20.7323 30.5078 20.2313 28.3538C19.7143 26.2018 19.6653 23.9528 19.8973 21.7498C20.0573 20.6518 20.2933 19.5648 20.6373 18.5078C20.8063 17.9768 21.0093 17.4598 21.2513 16.9448C21.3533 16.7068 21.5823 16.3758 21.7943 16.2038C22.0113 15.9998 22.2363 15.8368 22.4633 15.6718C24.2903 14.4078 26.2393 13.4328 28.2313 12.5348" fill="#586600" blush:i="0.1.0.2.0.1.1"/><path id="Fill 6" fill-rule="evenodd" clip-rule="evenodd" d="M20.1172 23.6754C20.3882 22.7064 20.8712 21.8204 21.4652 21.0124C21.7742 20.6174 22.0972 20.2284 22.4952 19.9084C22.8842 19.5864 23.3152 19.2974 23.8012 19.1544C23.0392 19.8014 22.4462 20.5364 21.8642 21.3134C21.2752 22.0804 20.7342 22.8854 20.1172 23.6754" fill="#586600" blush:i="0.1.0.2.0.1.2"/><g id="Group 10" blush:i="0.1.0.2.0.1.3"><path id="Fill 8" fill-rule="evenodd" clip-rule="evenodd" d="M32.4922 13.151C33.6842 13.685 34.7562 14.467 35.7232 15.358C36.6952 16.249 37.5152 17.312 38.1582 18.478C38.8052 19.642 39.2072 20.951 39.3262 22.273C39.5022 23.598 39.2632 24.928 38.9082 26.169C38.9582 24.868 39.0392 23.591 38.7552 22.354C38.5122 21.125 38.1232 19.923 37.4992 18.834C36.9092 17.729 36.1532 16.713 35.3142 15.76C34.8922 15.286 34.4432 14.831 33.9662 14.405C33.5072 13.954 33.0042 13.553 32.4922 13.151" fill="#586600" blush:i="0.1.0.2.0.1.3.0"/></g><path id="Fill 11" fill-rule="evenodd" clip-rule="evenodd" d="M33.6221 17.566C34.2821 17.832 34.8981 18.186 35.4941 18.573C36.0931 18.958 36.6461 19.41 37.1691 19.9C37.6841 20.395 38.1571 20.953 38.5051 21.592C38.8511 22.221 39.0991 22.962 38.9611 23.675C38.8861 22.965 38.5661 22.349 38.1791 21.795C37.7791 21.246 37.3271 20.729 36.8221 20.26C35.8301 19.299 34.7301 18.447 33.6221 17.566" fill="#586600" blush:i="0.1.0.2.0.1.4"/><path id="Fill 13" fill-rule="evenodd" clip-rule="evenodd" d="M15.0381 24.2399C15.7901 26.1119 16.5801 27.9469 17.5001 29.7159C17.9611 30.5989 18.4671 31.4549 19.0011 32.2949C19.5551 33.1219 20.1651 33.9069 20.8391 34.6619C20.0241 34.0609 19.3201 33.3159 18.6871 32.5179C18.0661 31.7129 17.5361 30.8419 17.0571 29.9469C16.5971 29.0429 16.1841 28.1149 15.8491 27.1599C15.5121 26.2059 15.2171 25.2359 15.0381 24.2399" fill="#586600" blush:i="0.1.0.2.0.1.5"/><path id="Fill 15" fill-rule="evenodd" clip-rule="evenodd" d="M12.0703 29.0192C12.7483 30.0412 13.4753 31.0162 14.2503 31.9272C15.0243 32.8592 15.9053 33.5812 16.9163 34.2752C18.8823 35.6962 20.8823 37.0902 22.7653 38.6652C20.5573 37.5872 18.4783 36.3032 16.4773 34.8832C15.9863 34.5132 15.4883 34.1602 15.0153 33.7172C14.5583 33.2762 14.1503 32.7982 13.7923 32.2892C13.0653 31.2782 12.4913 30.1742 12.0703 29.0192" fill="#586600" blush:i="0.1.0.2.0.1.6"/><path id="Fill 17" fill-rule="evenodd" clip-rule="evenodd" d="M16.7109 36.5485C17.7739 37.2225 18.8849 37.8025 20.0269 38.2945C21.1719 38.7805 22.3489 39.1895 23.5609 39.4355C24.7619 39.7395 26.0059 39.7965 27.2379 39.7615L28.1649 39.6995L29.0809 39.5365C29.7079 39.4755 30.2799 39.2115 30.9009 39.0765C29.7679 39.6115 28.5459 40.0475 27.2669 40.1455C25.9979 40.2625 24.7019 40.1975 23.4549 39.9235C22.2129 39.6285 20.9999 39.2135 19.8659 38.6425C18.7349 38.0675 17.6529 37.3905 16.7109 36.5485" fill="#586600" blush:i="0.1.0.2.0.1.7"/><path id="Fill 19" fill-rule="evenodd" clip-rule="evenodd" d="M17.418 39.693C19.556 40.49 21.664 41.154 23.822 41.429C24.899 41.56 25.978 41.552 27.053 41.431C28.134 41.297 29.161 40.939 30.233 40.514C29.397 41.286 28.356 41.901 27.209 42.196C26.066 42.493 24.868 42.547 23.702 42.422C22.541 42.259 21.409 41.952 20.35 41.49C19.292 41.029 18.281 40.455 17.418 39.693" fill="#586600" blush:i="0.1.0.2.0.1.8"/><path id="Fill 21" fill-rule="evenodd" clip-rule="evenodd" d="M11.3877 43.2779C13.0677 42.9889 14.9037 43.1109 16.5297 43.6879C18.1417 44.1229 19.8027 44.4309 21.4657 44.6099C24.7947 44.9739 28.1697 44.8769 31.4657 43.9019C29.9727 44.7569 28.2827 45.2909 26.5607 45.5359C24.8367 45.7959 23.0817 45.7829 21.3547 45.6039C19.6287 45.3969 17.9237 45.0369 16.2857 44.4259C14.7347 43.7419 13.1127 43.3839 11.3877 43.2779" fill="#586600" blush:i="0.1.0.2.0.1.9"/></g></g></g><g id="Female Character/Accesories" blush:component="Female Character/Accesories" blush:defaultValue="Glasses 2" blush:width="34" blush:height="36" transform="translate(123 72) scale(1 1)" blush:i="0.1.0.3" blush:value="Glasses 2" blush:viewBox="7.995762711864408 15.479999999999997 19.629237288135588 5.940000000000005"><g id="Female Character/Accesories/Glasses 2" blush:viewBox="7.995762711864408 15.479999999999997 19.629237288135588 5.940000000000005" blush:i="0.1.0.3.0"><g id="Accesories" blush:i="0.1.0.3.0.0"><path id="Rectangle" fill-rule="evenodd" clip-rule="evenodd" d="M13.0981 15.625H18.0981C18.8575 15.625 19.4731 16.2406 19.4731 17V20C19.4731 20.7594 18.8575 21.375 18.0981 21.375H13.0981C12.3388 21.375 11.7231 20.7594 11.7231 20V17C11.7231 16.2406 12.3388 15.625 13.0981 15.625ZM18.0981 16.375H13.0981C12.753 16.375 12.4731 16.6548 12.4731 17V20C12.4731 20.3452 12.753 20.625 13.0981 20.625H18.0981C18.4433 20.625 18.7231 20.3452 18.7231 20V17C18.7231 16.6548 18.4433 16.375 18.0981 16.375Z" fill="#F90606" blush:i="0.1.0.3.0.0.0"/><path id="Rectangle Copy" fill-rule="evenodd" clip-rule="evenodd" d="M22.0981 15.625H26.0981C26.8575 15.625 27.4731 16.2406 27.4731 17V20C27.4731 20.7594 26.8575 21.375 26.0981 21.375H22.0981C21.3388 21.375 20.7231 20.7594 20.7231 20V17C20.7231 16.2406 21.3388 15.625 22.0981 15.625ZM26.0981 16.375H22.0981C21.753 16.375 21.4731 16.6548 21.4731 17V20C21.4731 20.3452 21.753 20.625 22.0981 20.625H26.0981C26.4433 20.625 26.7231 20.3452 26.7231 20V17C26.7231 16.6548 26.4433 16.375 26.0981 16.375Z" fill="#F90606" blush:i="0.1.0.3.0.0.1"/><path id="Path 3" fill-rule="evenodd" clip-rule="evenodd" d="M12.3993 19.0903L8 18.2817L8 16.7135L12.3993 16.1693V19.0903Z" fill="#F90606" blush:i="0.1.0.3.0.0.2"/></g><path id="Path 2" fill-rule="evenodd" clip-rule="evenodd" d="M19.0823 17.9887C19.0823 17.9887 20.4889 17.4275 21.0823 17.9887L21.2704 16.0113H18.9019L19.0823 17.9887Z" fill="#F90606" blush:i="0.1.0.3.0.1"/></g></g></g></g><g id="Laptop" blush:i="0.2"><path id="Fill 24_2" fill-rule="evenodd" clip-rule="evenodd" d="M82.7933 159.803L127.222 159.727C128.333 159.726 129.225 158.714 129.203 157.479L129.203 157.45L81.1968 157.531L81.2063 158.076C81.223 159.035 81.9301 159.805 82.7933 159.803" fill="#807A74" blush:i="0.2.0"/><path id="Fill 21" fill-rule="evenodd" clip-rule="evenodd" d="M98.7309 159.506L132.365 159.637C133.494 159.641 134.492 158.91 134.818 157.839L141.693 135.207C142.187 133.584 140.955 131.951 139.242 131.957L106.463 132.086C105.376 132.09 104.41 132.776 104.059 133.794L96.3292 156.167C95.7641 157.8 96.9866 159.499 98.7309 159.506" fill="#BFBAB4" blush:i="0.2.1"/></g></g></svg>