<svg viewBox="23.5 8.225000000000009 46.99999999999999 77.55000000000001" fill="none" xmlns="http://www.w3.org/2000/svg" xmlns:xlink="http://www.w3.org/1999/xlink" xmlns:blush="http://design.blush" overflow="visible" width="46.99999999999999px" height="77.55000000000001px"><g id="Master/New Stickers/Idea" blush:has-customizable-colors="true" blush:viewBox="23.97 7.990000000000009 46.52999999999999 78.02000000000001" blush:i="0"><path id="Union" d="M57.7511 64.7678C58.2229 58.196 62.3907 52.5563 66.0677 47.0891C68.7678 43.0744 70.3568 38.1569 70.3568 32.8447C70.3568 19.3064 60.0365 8.3315 47.3057 8.3315C34.5749 8.3315 24.2545 19.3064 24.2545 32.8447C24.2545 38.1903 25.8635 43.1362 28.5946 47.1647C32.2634 52.5763 36.4132 58.1535 36.9279 64.6712L37.053 66.2549H57.6443L57.7511 64.7678Z" fill="#FCDB83" blush:i="0.0"/><g id="Group 288" blush:i="0.1"><path id="Ellipse 6 (Stroke)" fill-rule="evenodd" clip-rule="evenodd" d="M40.7695 36.9734C38.9169 36.9734 37.4151 38.4752 37.4151 40.3278C37.4151 42.1804 38.9169 43.6823 40.7695 43.6823H44.0663C44.0656 42.5018 44.0645 41.5131 44.0628 40.8044C44.0619 40.4288 44.0608 40.1324 44.0595 39.9279C44.0589 39.8255 44.0582 39.7472 44.0575 39.6939C44.0573 39.6789 44.0571 39.6665 44.0569 39.6563C43.7461 38.1255 42.3918 36.9734 40.7695 36.9734ZM45.0984 43.6823C45.0978 42.5013 45.0966 41.5117 45.0949 40.8019C45.094 40.4259 45.0929 40.1279 45.0916 39.9215C45.091 39.8184 45.0903 39.7371 45.0895 39.6801C45.0891 39.6518 45.0887 39.6277 45.0882 39.6093C45.088 39.6004 45.0877 39.5904 45.0872 39.5808C45.087 39.5762 45.0867 39.5689 45.086 39.5606C45.0858 39.5578 45.084 39.531 45.078 39.4998C44.6906 37.4731 42.9095 35.9412 40.7695 35.9412C38.3469 35.9412 36.3829 37.9052 36.3829 40.3278C36.3829 42.7505 38.3469 44.7144 40.7695 44.7144H44.0667C44.0675 47.1481 44.0666 50.1846 44.0651 53.2176C44.0635 56.6008 44.0609 59.9797 44.0588 62.5127L44.055 66.7317C44.055 66.7319 44.055 66.7329 44.5711 66.7334L44.055 66.7329C44.0548 67.0179 44.2856 67.2492 44.5706 67.2495C44.8556 67.2498 45.0869 67.019 45.0872 66.734L44.5711 66.7334C45.0872 66.734 45.0872 66.7342 45.0872 66.734L45.091 62.5136C45.0931 59.9805 45.0956 56.6015 45.0973 53.2181C45.0988 50.1852 45.0996 47.1485 45.0989 44.7144H51.435C51.72 44.7144 51.9511 44.4834 51.9511 44.1984C51.9511 43.9133 51.72 43.6823 51.435 43.6823H45.0984Z" fill="#595453" blush:i="0.1.0"/><path id="Ellipse 7 (Stroke)" fill-rule="evenodd" clip-rule="evenodd" d="M53.8433 36.9733C55.6959 36.9733 57.1977 38.4752 57.1977 40.3278C57.1977 42.1804 55.6959 43.6823 53.8433 43.6823H50.5465C50.5472 42.5017 50.5483 41.5131 50.5501 40.8044C50.551 40.4287 50.5521 40.1323 50.5533 39.9279C50.554 39.8255 50.5547 39.7472 50.5554 39.6938C50.5556 39.6789 50.5558 39.6665 50.5559 39.6563C50.8667 38.1255 52.221 36.9733 53.8433 36.9733ZM49.5144 43.6823C49.515 42.5013 49.5162 41.5116 49.5179 40.8019C49.5188 40.4259 49.5199 40.1279 49.5212 39.9214C49.5219 39.8184 49.5226 39.7371 49.5233 39.68C49.5237 39.6517 49.5241 39.6277 49.5246 39.6093C49.5248 39.6004 49.5251 39.5903 49.5256 39.5808C49.5258 39.5762 49.5262 39.5689 49.5268 39.5606C49.527 39.5578 49.5289 39.531 49.5348 39.4998C49.9223 37.473 51.7033 35.9412 53.8433 35.9412C56.2659 35.9412 58.2299 37.9051 58.2299 40.3278C58.2299 42.7504 56.2659 44.7144 53.8433 44.7144H50.5461C50.5453 47.1481 50.5462 50.1845 50.5477 53.2176C50.5494 56.6008 50.5519 59.9796 50.554 62.5127L50.5578 66.7317C50.5578 66.7319 50.5578 66.7329 50.0417 66.7334L50.5578 66.7329C50.5581 67.0179 50.3272 67.2492 50.0422 67.2495C49.7572 67.2498 49.5259 67.0189 49.5256 66.7339L50.0417 66.7334C49.5256 66.7339 49.5256 66.7341 49.5256 66.7339L49.5219 62.5135C49.5198 59.9804 49.5172 56.6015 49.5155 53.2181C49.514 50.1851 49.5132 47.1485 49.514 44.7144H43.1778C42.8928 44.7144 42.6618 44.4833 42.6618 44.1983C42.6618 43.9133 42.8928 43.6823 43.1778 43.6823H49.5144Z" fill="#595453" blush:i="0.1.1"/></g><g id="Botton" blush:i="0.2"><path id="Union_2" fill-rule="evenodd" clip-rule="evenodd" d="M34.8174 67.1481C34.8174 65.6364 36.0429 64.4109 37.5546 64.4109H57.057C58.5687 64.4109 59.7941 65.6364 59.7941 67.1481C59.7941 68.6553 58.576 69.878 57.0705 69.8853C58.576 69.8925 59.7941 71.1152 59.7941 72.6224C59.7941 74.1341 58.5687 75.3596 57.057 75.3596H37.5546C36.0429 75.3596 34.8174 74.1341 34.8174 72.6224C34.8174 71.1152 36.0356 69.8925 37.5411 69.8853C36.0356 69.878 34.8174 68.6553 34.8174 67.1481ZM37.5546 75.3597C36.0429 75.3597 34.8174 76.5852 34.8174 78.0969C34.8174 79.6086 36.0429 80.8341 37.5546 80.8341H57.057C58.5687 80.8341 59.7941 79.6086 59.7941 78.0969C59.7941 76.5852 58.5687 75.3597 57.057 75.3597H37.5546Z" fill="#BBABA8" blush:i="0.2.0"/><rect id="Rectangle 24" x="39.9174" y="79.258" width="14.8158" height="6.30459" rx="3.15229" fill="#BBABA8" blush:i="0.2.1"/></g><path id="Vector 19 (Stroke)" fill-rule="evenodd" clip-rule="evenodd" d="M37.5006 70.1738C37.5006 70.0313 37.6161 69.9158 37.7586 69.9158H57.2403C57.3828 69.9158 57.4983 70.0313 57.4983 70.1738C57.4983 70.3163 57.3828 70.4319 57.2403 70.4319H37.7586C37.6161 70.4319 37.5006 70.3163 37.5006 70.1738Z" fill="#978D8B" blush:i="0.3"/><path id="Vector 20 (Stroke)" fill-rule="evenodd" clip-rule="evenodd" d="M37.5445 75.5926C37.5445 75.4501 37.66 75.3346 37.8025 75.3346H57.1551C57.2977 75.3346 57.4132 75.4501 57.4132 75.5926C57.4132 75.7351 57.2977 75.8506 57.1551 75.8506H37.8025C37.66 75.8506 37.5445 75.7351 37.5445 75.5926Z" fill="#978D8B" blush:i="0.4"/><path id="Vector 21 (Stroke)" fill-rule="evenodd" clip-rule="evenodd" d="M40.5108 81.0974C40.5108 80.9549 40.6263 80.8394 40.7688 80.8394H54.3157C54.4582 80.8394 54.5737 80.9549 54.5737 81.0974C54.5737 81.2399 54.4582 81.3555 54.3157 81.3555H40.7688C40.6263 81.3555 40.5108 81.2399 40.5108 81.0974Z" fill="#978D8B" blush:i="0.5"/><path id="Vector 22" d="M28.7713 23.0894C30.5266 16.6685 35.3111 13.3857 39.5893 12.0748C40.5453 11.7818 41.6812 12.0943 41.1445 12.9379C40.4461 14.0355 38.7255 15.5457 37.5806 16.2319C34.8226 17.885 32.6408 22.9135 31.673 24.3297C30.8158 25.584 26.8115 30.2585 28.7713 23.0894Z" fill="#FFEBB7" fill-opacity="0.71" blush:i="0.6"/></g></svg>