<svg viewBox="74.09999999999997 18.864161849710996 101.88750000000002 179.36416184971094" fill="none" xmlns="http://www.w3.org/2000/svg" xmlns:xlink="http://www.w3.org/1999/xlink" xmlns:blush="http://design.blush" overflow="visible" width="101.88750000000002px" height="179.36416184971094px"><g id="Master/Stickers/Pink Fiddle" blush:has-customizable-colors="true" blush:viewBox="74.09999999999997 18.657043879907633 100.03499999999995 177.92147806004618" blush:i="0"><g id="Group 8 Copy" blush:i="0.0"><path id="Fill 1" fill-rule="evenodd" clip-rule="evenodd" d="M106.021 62.7966C106.021 62.7966 102.383 54.1976 94.1155 51.1746C85.8485 48.1506 81.6435 46.8756 82.7295 45.1746C83.8165 43.4746 89.5805 44.9386 89.5805 44.9386C89.5805 44.9386 87.2655 42.5286 89.4855 41.8196C91.7065 41.1116 98.0375 47.8196 98.0375 47.8196C98.0375 47.8196 100.068 45.6006 101.391 47.6786C102.714 49.7576 105.974 58.4026 106.021 62.7966" fill="#FFC2BA" blush:i="0.0.0"/><path id="Fill 3" fill-rule="evenodd" clip-rule="evenodd" d="M126.83 119.135C126.83 119.135 132.005 104.892 145.659 102.576C159.312 100.262 155.391 104.532 155.013 106.129C154.635 107.727 151.611 108.907 146.414 109.947C141.218 110.987 131.107 113.632 129.218 118.404L126.83 119.135Z" fill="#FFC2BC" blush:i="0.0.1"/><path id="Fill 5" fill-rule="evenodd" clip-rule="evenodd" d="M136.853 80.0173C136.853 80.0173 140.013 71.5603 136.044 65.7963C132.076 60.0333 124.571 59.4423 124.32 59.4903C124.068 59.5373 129.808 55.6393 133.422 58.6863C133.422 58.6863 132.709 56.6313 133.952 56.1353C135.194 55.6393 136.853 59.4903 136.853 59.4903C136.853 59.4903 136.503 55.7343 138.045 55.6163C139.588 55.4973 141.997 58.4033 141.005 63.3643C141.005 63.3643 141.501 64.3083 142.706 62.8443C143.911 61.3793 145.611 65.7963 145.611 65.7963L136.853 80.0173Z" fill="#FFC2BC" blush:i="0.0.2"/><path id="Fill 7" fill-rule="evenodd" clip-rule="evenodd" d="M135.69 98.3005C135.69 98.3005 142.919 91.7805 152.698 90.2925C162.478 88.8045 166.588 92.7735 164.674 88.3085C162.761 83.8445 157.446 84.3535 157.446 84.3535C157.446 84.3535 152.769 79.4495 148.942 81.5755C145.115 83.7015 147.525 83.2055 145.753 83.3485C143.982 83.4895 144.619 86.2535 144.619 86.2535C144.619 86.2535 141.218 84.8355 140.863 85.5445C140.509 86.2535 136.682 92.8445 135.69 98.3005" fill="#FFC2BC" blush:i="0.0.3"/><path id="Fill 48" fill-rule="evenodd" clip-rule="evenodd" d="M123.627 195.664L126.125 195.568C123.341 122.675 131.369 104.976 131.45 104.826L129.253 103.635C128.907 104.271 120.816 122.088 123.627 195.664" fill="#D8B89D" blush:i="0.0.4"/><path id="Fill 50" fill-rule="evenodd" clip-rule="evenodd" d="M126.58 133.276C126.74 131.864 130.394 98.4861 120.867 80.9561C111.601 63.9061 107.963 51.8361 107.927 51.7151L105.531 52.4271C105.567 52.5491 109.268 64.8481 118.67 82.1491C127.825 98.9941 124.134 132.657 124.096 132.995L126.58 133.276Z" fill="#D8B89D" blush:i="0.0.5"/><path id="Fill 52" fill-rule="evenodd" clip-rule="evenodd" d="M121.098 87.8054L123.526 87.2094C121.311 78.1704 127.276 55.0764 127.337 54.8444L124.918 54.2134C124.664 55.1864 118.733 78.1544 121.098 87.8054" fill="#D8B89D" blush:i="0.0.6"/><path id="Fill 54" fill-rule="evenodd" clip-rule="evenodd" d="M120.549 82.7585L123.046 82.6375C122.426 69.9135 117.778 58.6765 117.581 58.2035L115.275 59.1685C115.321 59.2795 119.951 70.4875 120.549 82.7585" fill="#D8B89D" blush:i="0.0.7"/><path id="Fill 56" fill-rule="evenodd" clip-rule="evenodd" d="M126.498 131.487C127.377 107.071 139.686 78.937 139.81 78.656L137.523 77.646C137.397 77.931 124.896 106.494 124 131.397L126.498 131.487Z" fill="#D8B89D" blush:i="0.0.8"/><path id="Fill 58" fill-rule="evenodd" clip-rule="evenodd" d="M128.231 111.265C128.231 111.265 130.658 108.485 134.414 106.971C138.17 105.457 141.147 106.146 144.548 106.971C147.95 107.796 152.202 108.151 150.572 103.261C148.941 98.3713 145.257 101.064 142.422 98.7963C139.587 96.5293 147.241 97.4503 145.824 94.4033C144.406 91.3563 140.721 93.2693 140.65 90.9303C140.58 88.5923 140.084 88.5213 139.021 88.0253C137.958 87.5293 139.433 85.0483 136.853 85.4033C134.273 85.7573 133.328 90.2923 131.958 88.1663C130.587 86.0403 130.375 82.6413 127.895 85.3693C125.414 88.0963 127.847 88.9753 125.249 87.5073C122.65 86.0403 125.918 91.2853 126.127 93.3393C126.335 95.3953 129.512 104.21 128.231 111.265" fill="#F49D97" blush:i="0.0.9"/><path id="Fill 60" fill-rule="evenodd" clip-rule="evenodd" d="M140.287 91.8864C139.444 92.2434 138.807 92.8994 138.201 93.5434C137.599 94.2004 137.05 94.9024 136.529 95.6224C135.492 97.0704 134.598 98.6074 133.729 100.156C132.874 101.711 132.025 103.276 131.346 104.915C130.672 106.557 130.05 108.218 129.57 109.932L129.64 109.96C130.517 108.409 131.236 106.799 132.03 105.224C132.793 103.636 133.483 102.016 134.261 100.435C135.055 98.8654 135.876 97.3044 136.839 95.8334C137.312 95.0934 137.815 94.3714 138.37 93.6924C138.925 93.0244 139.533 92.3414 140.306 91.9584L140.287 91.8864Z" fill="#FFEBE7" blush:i="0.0.10"/><path id="Fill 62" fill-rule="evenodd" clip-rule="evenodd" d="M129.984 88.3171C130.501 90.9891 130.942 93.6751 131.266 96.3671C131.423 97.7141 131.499 99.0661 131.634 100.406C131.784 101.748 131.885 103.084 131.921 104.452L131.995 104.463C132.389 103.128 132.399 101.727 132.382 100.357C132.343 98.9801 132.099 97.6271 131.86 96.2811C131.401 93.5861 130.786 90.9261 130.057 88.2991L129.984 88.3171Z" fill="#FFEBE7" blush:i="0.0.11"/><path id="Fill 64" fill-rule="evenodd" clip-rule="evenodd" d="M134.914 88.3005C134.439 90.1545 134.065 92.0325 133.807 93.9375C133.675 94.8885 133.533 95.8505 133.579 96.8235C133.636 97.7825 133.772 98.8085 134.302 99.6575L134.372 99.6285C134.244 98.6785 134.286 97.7605 134.329 96.8215C134.381 95.8875 134.354 94.9435 134.404 93.9955C134.527 92.1045 134.727 90.2055 134.987 88.3165L134.914 88.3005Z" fill="#FFEBE7" blush:i="0.0.12"/><path id="Fill 66" fill-rule="evenodd" clip-rule="evenodd" d="M142.146 99.114C141.192 98.853 140.211 98.682 139.205 98.65C138.705 98.627 138.182 98.587 137.681 98.748C137.19 98.906 136.684 99.161 136.378 99.613L136.42 99.675C136.934 99.582 137.375 99.532 137.837 99.481C138.292 99.429 138.749 99.306 139.226 99.25C140.176 99.15 141.155 99.142 142.133 99.188L142.146 99.114Z" fill="#FFEBE7" blush:i="0.0.13"/><path id="Fill 68" fill-rule="evenodd" clip-rule="evenodd" d="M148.936 104.76C147.409 104.811 145.961 104.319 144.489 103.878C142.985 103.505 141.439 103.362 139.893 103.35C138.348 103.351 136.777 103.471 135.28 103.926C133.797 104.396 132.352 105.072 131.188 106.098L131.229 106.16C132.616 105.504 134.017 104.975 135.477 104.65C136.926 104.309 138.401 104.031 139.906 103.949C141.407 103.887 142.929 103.953 144.406 104.244C145.866 104.578 147.406 104.992 148.947 104.834L148.936 104.76Z" fill="#FFEBE7" blush:i="0.0.14"/><path id="Fill 70" fill-rule="evenodd" clip-rule="evenodd" d="M136.853 80.0173C136.853 80.0173 138.383 81.7183 139.269 80.3713C140.155 79.0253 155.178 60.3873 170.911 61.1663C170.911 61.1663 174 61.9463 174 60.3163C174 58.6863 169.422 56.7023 167.226 56.9863C167.226 56.9863 165.737 55.9943 165.596 55.0013C165.454 54.0093 166.092 53.8443 164.32 54.5293C162.548 55.2133 160.068 55.3313 158.722 54.5293C157.375 53.7263 156.312 59.5373 155.427 58.9703C154.54 58.4033 154.927 53.4383 150.411 54.1143C145.895 54.7883 148.942 60.6003 148.942 60.6003C148.942 60.6003 145.47 59.0403 144.974 60.6703C144.478 62.3003 145.186 64.0013 143.698 64.3563C142.21 64.7093 143.415 67.6163 142.139 68.6783C140.992 69.6343 139.206 76.3723 137.445 79.2183C137.248 79.5383 137.05 79.8093 136.853 80.0173" fill="#F49D97" blush:i="0.0.15"/><path id="Fill 72" fill-rule="evenodd" clip-rule="evenodd" d="M165.113 56.4021C164.26 57.2201 163.445 58.0781 162.671 58.9781C162.283 59.4271 161.88 59.8711 161.569 60.3841C161.283 60.9061 160.972 61.4571 160.941 62.0821L160.99 62.0931C161.288 61.5821 161.629 61.1271 161.984 60.6641C162.337 60.2031 162.643 59.7051 162.984 59.2261C163.68 58.2821 164.405 57.3511 165.15 56.4351L165.113 56.4021Z" fill="#FFEBE7" blush:i="0.0.16"/><path id="Fill 74" fill-rule="evenodd" clip-rule="evenodd" d="M161.513 55.6003C160.548 56.7633 159.634 57.9673 158.782 59.2203C158.352 59.8433 157.915 60.4703 157.583 61.1603C157.268 61.8493 156.958 62.5783 156.926 63.3593L156.975 63.3693C157.283 62.6763 157.636 62.0333 158.025 61.3933L159.119 59.4353C159.889 58.1463 160.705 56.8773 161.553 55.6303L161.513 55.6003Z" fill="#FFEBE7" blush:i="0.0.17"/><path id="Fill 76" fill-rule="evenodd" clip-rule="evenodd" d="M156.03 59.2409C155.292 60.3549 154.593 61.4959 153.941 62.6669C153.61 63.2489 153.267 63.8299 153.021 64.4589C152.79 65.0889 152.559 65.7379 152.531 66.4279L152.58 66.4399L153.477 64.6619C153.778 64.0729 154.015 63.4519 154.297 62.8489C154.865 61.6459 155.46 60.4529 156.073 59.2659L156.03 59.2409Z" fill="#FFEBE7" blush:i="0.0.18"/><path id="Fill 78" fill-rule="evenodd" clip-rule="evenodd" d="M149.414 61.279C148.959 62.757 148.529 64.24 148.124 65.732C147.918 66.478 147.685 67.217 147.551 67.98C147.432 68.746 147.294 69.515 147.334 70.306L147.384 70.311C147.627 69.571 147.831 68.833 148.039 68.09C148.237 67.344 148.36 66.582 148.513 65.826L149.462 61.291L149.414 61.279Z" fill="#FFEBE7" blush:i="0.0.19"/><path id="Fill 80" fill-rule="evenodd" clip-rule="evenodd" d="M147.571 61.0427C146.985 63.0267 146.429 65.0197 145.954 67.0387C145.834 67.5437 145.713 68.0477 145.615 68.5637C145.57 68.8227 145.522 69.0777 145.505 69.3567C145.488 69.6487 145.495 69.8577 145.467 70.1167C145.388 71.1157 145.138 72.1187 144.926 73.1347L144.973 73.1517C145.457 72.2237 145.786 71.2267 145.965 70.1737C146.025 69.6107 146.019 69.1497 146.104 68.6417C146.167 68.1367 146.257 67.6277 146.345 67.1207C146.731 65.0957 147.174 63.0737 147.619 61.0557L147.571 61.0427Z" fill="#FFEBE7" blush:i="0.0.20"/><path id="Fill 82" fill-rule="evenodd" clip-rule="evenodd" d="M125.025 129.517C125.025 129.517 129.489 119.986 133.706 120.517C137.922 121.048 141.678 124.698 147.1 122.182C152.521 119.666 154.222 122.572 155.533 125.194C156.844 127.816 157.73 129.446 155.143 129.021C152.556 128.596 152.769 128.242 152.06 130.048C151.352 131.856 150.111 131.005 149.296 130.048C148.482 129.092 147.773 128.064 146.639 130.792C145.505 133.521 141.997 133.698 141.608 132.742C141.218 131.785 142.176 130.261 141.325 130.226C140.474 130.19 139.056 131.147 138.454 130.226C137.852 129.304 139.198 128.773 137.993 128.596C136.789 128.418 136.576 128.711 135.655 126.882C134.733 125.052 129.048 125.407 127.32 129.198C125.592 132.99 125.025 129.517 125.025 129.517" fill="#F49D97" blush:i="0.0.21"/><path id="Fill 84" fill-rule="evenodd" clip-rule="evenodd" d="M153.786 125.335C153.761 124.797 153.501 124.252 153.05 123.905C152.596 123.563 152.027 123.416 151.475 123.376C150.924 123.35 150.361 123.365 149.839 123.527C149.317 123.69 148.819 123.908 148.366 124.215L148.384 124.262C148.934 124.224 149.436 124.082 149.952 124.015C150.46 123.923 150.956 123.806 151.466 123.775C151.97 123.766 152.48 123.849 152.906 124.109C153.336 124.358 153.645 124.825 153.736 125.338L153.786 125.335Z" fill="#FFF6F2" blush:i="0.0.22"/><path id="Fill 86" fill-rule="evenodd" clip-rule="evenodd" d="M151.41 130.004C150.602 128.077 149.392 126.291 147.75 124.927C146.923 124.26 145.967 123.709 144.914 123.451C143.86 123.187 142.755 123.276 141.744 123.547L141.753 123.597C142.803 123.611 143.823 123.602 144.787 123.935C145.742 124.234 146.674 124.644 147.506 125.244C148.323 125.858 149.053 126.594 149.693 127.404C150.335 128.213 150.912 129.087 151.364 130.024L151.41 130.004Z" fill="#FFF6F2" blush:i="0.0.23"/><path id="Fill 88" fill-rule="evenodd" clip-rule="evenodd" d="M144.749 131.83C145.293 130.471 145.58 128.999 145.547 127.508C145.533 126.765 145.432 126.005 145.154 125.3C144.867 124.6 144.422 123.965 143.863 123.478L143.824 123.511C144.156 124.174 144.497 124.786 144.684 125.47C144.88 126.141 145.081 126.82 145.148 127.533C145.267 128.953 145.107 130.418 144.702 131.811L144.749 131.83Z" fill="#FFF6F2" blush:i="0.0.24"/><path id="Fill 90" fill-rule="evenodd" clip-rule="evenodd" d="M141.549 123.222C141.962 124.257 142.174 125.366 142.21 126.46C142.224 127.01 142.164 127.553 142.13 128.095C142.124 128.644 142.026 129.179 142.008 129.757L142.056 129.773C142.348 129.275 142.528 128.719 142.626 128.151C142.73 127.581 142.679 126.997 142.609 126.431C142.48 125.292 142.143 124.185 141.593 123.199L141.549 123.222Z" fill="#FFF6F2" blush:i="0.0.25"/><path id="Fill 92" fill-rule="evenodd" clip-rule="evenodd" d="M137.487 121.626C137.817 122.648 138.049 123.7 138.181 124.751C138.235 125.279 138.229 125.805 138.264 126.325C138.301 126.849 138.284 127.362 138.288 127.916L138.337 127.93C138.613 127.441 138.712 126.879 138.764 126.326C138.795 125.77 138.686 125.222 138.576 124.688C138.351 123.615 138 122.583 137.533 121.606L137.487 121.626Z" fill="#FFF6F2" blush:i="0.0.26"/><path id="Fill 94" fill-rule="evenodd" clip-rule="evenodd" d="M134.994 121.023C135.271 121.975 135.429 122.957 135.52 123.933C135.557 124.424 135.55 124.915 135.598 125.401C135.667 125.888 135.688 126.377 135.807 126.88L135.857 126.883C136.024 126.394 136.076 125.888 136.097 125.382C136.115 124.875 136.009 124.374 135.916 123.879C135.733 122.888 135.457 121.916 135.04 121.003L134.994 121.023Z" fill="#FFF6F2" blush:i="0.0.27"/><path id="Fill 96" fill-rule="evenodd" clip-rule="evenodd" d="M125.025 130.226C125.025 130.226 124.281 130.261 123.501 128.986C122.722 127.709 116.273 121.438 108.903 123.033C101.533 124.627 100.682 127.108 102.206 123.529C103.73 119.95 113.686 119.631 114.005 119.631C114.324 119.631 114.076 117.965 115.458 117.86C116.84 117.753 119.108 120.872 119.108 120.872C119.108 120.872 121.304 119.277 122.722 120.339C124.139 121.403 121.517 122.218 123.324 124.344C125.131 126.47 126.265 128.631 125.025 130.226" fill="#FFC2BC" blush:i="0.0.28"/><path id="Fill 98" fill-rule="evenodd" clip-rule="evenodd" d="M125.804 113.182C125.804 113.182 127.151 113.36 125.627 114.529C124.103 115.698 120.808 121.19 110.639 121.331C100.47 121.474 96.784 118.391 97.351 117.009C97.918 115.627 98.166 115.308 103.304 116.796C103.304 116.796 101.71 114.139 104.119 113.678C106.529 113.218 108.158 118.32 109.647 117.505C111.135 116.69 108.371 113.218 110.887 112.083C113.403 110.95 115.706 114.139 116.131 114.422C116.556 114.706 117.973 113.395 119.497 113.926C121.021 114.458 120.879 113.536 123.253 114.033C125.627 114.529 125.804 113.182 125.804 113.182" fill="#F49D97" blush:i="0.0.29"/><path id="Fill 100" fill-rule="evenodd" clip-rule="evenodd" d="M111.824 100.934C111.824 100.934 108.524 97.4743 107.626 97.0013Z" fill="#F49D97" blush:i="0.0.30"/><path id="Fill 102" fill-rule="evenodd" clip-rule="evenodd" d="M121.798 103.642C121.798 103.642 108.052 97.2673 100.115 104.457C92.1779 111.647 88.4459 114.907 88.0679 113.868C87.6899 112.828 88.5409 108.67 89.0599 107.205C89.5799 105.742 90.5719 105.299 89.7689 104.457C88.9659 103.616 88.0209 99.6733 94.3989 100.322C94.3989 100.322 107.669 88.0303 121.798 103.642" fill="#FFC2BC" blush:i="0.0.31"/><path id="Fill 104" fill-rule="evenodd" clip-rule="evenodd" d="M105.422 101.313C104.935 100.88 104.392 100.567 103.837 100.286C103.279 100.008 102.67 99.8572 102.074 99.6772C101.478 99.4982 100.881 99.3202 100.275 99.1692C99.6649 99.0382 99.0489 98.8922 98.4149 98.9032V98.9782C99.0169 99.0662 99.5919 99.3022 100.162 99.5272C100.735 99.7462 101.3 99.9922 101.863 100.24C102.425 100.493 102.966 100.796 103.555 100.981C104.145 101.164 104.744 101.326 105.392 101.382L105.422 101.313Z" fill="#FFEBE7" blush:i="0.0.32"/><path id="Fill 106" fill-rule="evenodd" clip-rule="evenodd" d="M101.585 102.967C100.822 102.541 100.014 102.278 99.194 102.056C98.373 101.839 97.521 101.774 96.675 101.703C94.99 101.549 93.266 101.509 91.606 101.866L91.618 101.941C93.291 101.801 94.956 102.017 96.595 102.298C97.416 102.446 98.22 102.674 99.045 102.791C99.871 102.907 100.704 103.011 101.56 103.037L101.585 102.967Z" fill="#FFEBE7" blush:i="0.0.33"/><path id="Fill 108" fill-rule="evenodd" clip-rule="evenodd" d="M97.9951 105.799C97.4341 105.508 96.8461 105.353 96.2531 105.24C95.6591 105.13 95.0491 105.166 94.4451 105.177C93.8411 105.189 93.2351 105.22 92.6321 105.289C92.0351 105.38 91.4181 105.495 90.8851 105.803L90.9201 105.869C91.4721 105.665 92.0691 105.653 92.6551 105.664C93.2431 105.67 93.8311 105.713 94.4171 105.777C95.0051 105.847 95.5841 105.975 96.1771 105.986C96.7691 105.994 97.3651 105.987 97.9831 105.873L97.9951 105.799Z" fill="#FFEBE7" blush:i="0.0.34"/><path id="Fill 110" fill-rule="evenodd" clip-rule="evenodd" d="M92.9365 109.295C92.6755 109.076 92.4045 108.983 92.1325 108.921C91.8605 108.862 91.5825 108.938 91.3085 108.974C90.7595 109.037 90.2045 109.108 89.6675 109.296L89.6815 109.369C90.2235 109.4 90.7605 109.504 91.2985 109.573C91.5675 109.619 91.8335 109.71 92.1055 109.67C92.3765 109.629 92.6505 109.56 92.9325 109.37L92.9365 109.295Z" fill="#FFEBE7" blush:i="0.0.35"/><path id="Fill 112" fill-rule="evenodd" clip-rule="evenodd" d="M124.35 95.4226C124.35 95.4226 124.163 97.1396 122.934 95.7246C121.706 94.3086 118.21 88.4026 113.864 88.3086C109.517 88.2136 108.951 88.3146 108.478 87.5076C108.005 86.7016 107.155 87.1326 106.021 87.5076C104.888 87.8836 102.005 87.5526 101.249 86.4656C100.494 85.3796 100.871 83.4696 95.9577 84.3536C91.0447 85.2376 90.1467 82.1666 93.1227 79.1906C96.0997 76.2136 100.541 77.3956 101.911 76.1666C103.281 74.9386 106.021 75.5056 108.242 79.1906C110.462 82.8756 110.448 83.7736 111.825 82.4026C113.203 81.0326 115.261 84.1706 116.429 85.9326C117.596 87.6936 124.442 92.3796 124.35 95.4226" fill="#FFC2BA" blush:i="0.0.36"/><path id="Fill 114" fill-rule="evenodd" clip-rule="evenodd" d="M113.91 55.612C113.91 55.612 104.839 42.671 98.6502 38.182C92.4612 33.694 84.6662 31.474 84.9962 30.151C85.3272 28.828 90.8072 27.694 93.9732 32.135C93.9732 32.135 94.5402 29.868 96.4302 30.718C98.3202 31.568 100.162 35.064 100.162 35.064C100.162 35.064 101.059 32.608 102.666 33.033C104.272 33.458 106.02 38.986 106.02 38.986C106.02 38.986 107.248 37.616 108.146 38.135C109.044 38.655 111.784 50.931 113.91 55.612" fill="#FFC2BA" blush:i="0.0.37"/><path id="Fill 116" fill-rule="evenodd" clip-rule="evenodd" d="M125.363 57.6657C125.363 57.6657 124.626 57.7657 124.312 56.9147C123.997 56.0637 122.574 56.0057 121.798 54.0507C121.021 52.0967 113.509 45.6667 112.517 42.2907C111.525 38.9147 113.438 37.0017 111.525 35.7967C109.611 34.5927 110.603 33.3157 111.525 33.3157C112.446 33.3157 110.896 31.4027 110.431 30.1277C109.966 28.8527 110.532 27.2227 112.375 27.2927C112.375 27.2927 111.383 24.8117 113.438 23.7497C115.493 22.6867 117.312 23.3237 117.82 22.1897C118.328 21.0567 118.446 18.9307 121.788 19.0017C125.131 19.0717 126.619 24.6707 127.966 22.3317C129.312 19.9937 130.8 19.8527 132.572 21.6937C132.572 21.6937 134.84 19.5677 136.186 21.4107C137.532 23.2537 134.343 26.0177 134.343 26.8677C134.343 27.7187 135.69 36.9307 129.595 44.5137C123.501 52.0967 128.43 53.7397 125.363 57.6657" fill="#FFC2BC" blush:i="0.0.38"/><path id="Fill 118" fill-rule="evenodd" clip-rule="evenodd" d="M127.023 24.8689C125.734 26.8399 124.752 28.9959 123.965 31.2149C123.194 33.4389 122.609 35.7369 122.302 38.0779C121.975 40.4129 121.832 42.7889 122.036 45.1459C122.198 47.5059 122.7 49.8279 123.372 52.0789L123.42 52.0659C123.026 49.7489 122.605 47.4489 122.535 45.1129C122.35 42.7889 122.459 40.4489 122.698 38.1299C122.952 35.8079 123.483 33.5189 124.202 31.2949C124.92 29.0709 125.837 26.8949 127.064 24.8969L127.023 24.8689Z" fill="#FFEBE7" blush:i="0.0.39"/><path id="Fill 120" fill-rule="evenodd" clip-rule="evenodd" d="M119.508 22.6159C119.498 23.6399 119.529 24.6649 119.61 25.6889C119.709 26.7119 119.824 27.7379 120.134 28.7439C120.203 28.9979 120.307 29.2459 120.419 29.4929C120.56 29.7479 120.695 29.9669 120.815 30.1609C121.05 30.5839 121.235 31.0449 121.394 31.5139C121.732 32.4549 121.94 33.4489 122.158 34.4519L122.208 34.4489C122.275 33.4139 122.136 32.3789 121.871 31.3639C121.722 30.8609 121.53 30.3629 121.24 29.9069C121.076 29.6769 120.932 29.4679 120.813 29.2819C120.703 29.0699 120.592 28.8509 120.513 28.6149C120.172 27.6789 120.005 26.6659 119.858 25.6619C119.713 24.6539 119.615 23.6359 119.558 22.6149L119.508 22.6159Z" fill="#FFEBE7" blush:i="0.0.40"/><path id="Fill 122" fill-rule="evenodd" clip-rule="evenodd" d="M116.403 24.4607C116.511 25.9407 116.722 27.4167 117.078 28.8687C117.251 29.5937 117.429 30.3297 117.761 31.0127C118.102 31.6817 118.494 32.3587 119.094 32.8367L119.132 32.8047C118.763 32.1537 118.47 31.4977 118.221 30.8147C117.962 30.1397 117.686 29.4617 117.464 28.7617C117.028 27.3587 116.703 25.9137 116.453 24.4557L116.403 24.4607Z" fill="#FFEBE7" blush:i="0.0.41"/><path id="Fill 124" fill-rule="evenodd" clip-rule="evenodd" d="M113.133 28.9841C113.605 29.8221 114.07 30.6621 114.512 31.5071C114.73 31.9331 114.912 32.3751 115.148 32.7811C115.383 33.1901 115.65 33.5781 115.789 34.0201L115.838 34.0301C115.986 33.5041 115.753 33.0121 115.597 32.5601C115.41 32.1061 115.124 31.7091 114.858 31.3061C114.332 30.4951 113.767 29.7141 113.175 28.9561L113.133 28.9841Z" fill="#FFEBE7" blush:i="0.0.42"/><path id="Fill 126" fill-rule="evenodd" clip-rule="evenodd" d="M131.213 28.1218C129.924 28.8008 128.667 29.5388 127.449 30.3468C126.837 30.7448 126.219 31.1458 125.673 31.6428C125.143 32.1468 124.603 32.6868 124.291 33.3728L124.333 33.4008C124.865 32.8998 125.415 32.4548 125.995 32.0248L127.68 30.6728C128.835 29.8018 130.026 28.9668 131.238 28.1648L131.213 28.1218Z" fill="#FFEBE7" blush:i="0.0.43"/><path id="Fill 128" fill-rule="evenodd" clip-rule="evenodd" d="M133.556 32.0876C131.615 32.6766 129.74 33.4816 127.957 34.4706C127.069 34.9686 126.189 35.5016 125.402 36.1616C124.636 36.8426 123.915 37.5906 123.377 38.4626L123.416 38.4936C124.172 37.8096 124.911 37.1466 125.715 36.5516C126.519 35.9626 127.311 35.3526 128.161 34.8146C129.871 33.7646 131.685 32.8586 133.571 32.1356L133.556 32.0876Z" fill="#FFEBE7" blush:i="0.0.44"/><path id="Fill 130" fill-rule="evenodd" clip-rule="evenodd" d="M133.06 36.9782C132.229 37.2222 131.409 37.5012 130.602 37.8262C129.801 38.1652 129.003 38.5212 128.275 39.0482C127.909 39.2812 127.566 39.7122 127.335 39.9942C127.062 40.2912 126.749 40.5652 126.417 40.8212C125.764 41.3502 125.032 41.7942 124.302 42.2672L124.321 42.3142C125.175 42.0992 125.968 41.7082 126.714 41.2242C127.078 40.9682 127.424 40.6742 127.712 40.3142C128.001 39.9092 128.178 39.6362 128.521 39.3642C129.166 38.8352 129.935 38.4312 130.704 38.0542C131.475 37.6732 132.269 37.3322 133.075 37.0252L133.06 36.9782Z" fill="#FFEBE7" blush:i="0.0.45"/><path id="Fill 132" fill-rule="evenodd" clip-rule="evenodd" d="M115.375 61.0485C115.375 61.0485 116.178 63.2225 117.501 63.3165C118.824 63.4105 117.926 63.1275 118.115 60.5755C118.304 58.0255 119.976 53.9785 122.981 54.5285C125.987 55.0795 127.8 55.5565 128.178 54.0505C128.556 52.5445 127.848 51.6005 127.848 51.6005C127.848 51.6005 130.21 54.0095 131.485 52.8755C132.761 51.7415 132.43 49.8045 133.895 49.9455C135.359 50.0875 140.367 50.1825 140.462 49.1905C140.556 48.1975 135.737 47.5835 135.359 46.4495C134.981 45.3165 135.737 41.5835 133.47 40.9705C131.202 40.3565 125.878 42.0565 124.312 44.5605C122.745 47.0645 123.643 42.7185 122.556 42.5285C121.47 42.3395 120.903 43.8525 120.667 41.4425C120.43 39.0325 122.792 38.7015 122.226 37.0485C121.659 35.3955 115.753 33.6475 114.808 36.4825C113.863 39.3165 114.478 41.5365 113.202 40.8275C111.926 40.1195 111.265 38.8915 110.226 40.3565C109.186 41.8195 109.564 43.2845 110.792 44.3235C112.021 45.3635 109.422 46.6865 107.391 45.9305C105.359 45.1745 105.802 43.7755 104.447 43.6715C103.092 43.5685 103.753 46.2615 101.249 43.9455C98.7445 41.6315 96.6665 43.8045 97.1855 45.9785C97.7055 48.1515 99.4535 50.1115 101.816 49.1545C104.178 48.1975 104.651 47.9145 104.981 49.9935C105.312 52.0715 105.785 56.0335 110.037 55.6115C114.289 55.1905 114.241 60.2455 115.375 61.0485" fill="#F49D97" blush:i="0.0.46"/><path id="Fill 134" fill-rule="evenodd" clip-rule="evenodd" d="M112.871 70.072C112.871 70.072 110.887 64.593 109.328 61.994C107.769 59.395 104.225 54.723 102.572 59.8C102.572 59.8 101.863 58.545 100.163 58.403C98.4621 58.261 99.3591 54.198 96.6661 54.34C93.9741 54.482 96.0051 58.734 93.3121 57.364C90.6191 55.994 89.2021 50.608 87.9741 50.608C86.7451 50.608 87.8321 52.876 86.0371 52.639C84.2411 52.403 79.1391 55.758 79.1391 59.159C79.1391 62.56 78.0521 62.608 80.7451 63.884C80.7451 63.884 75.5121 63.552 75.0761 64.167C74.6401 64.781 75.6841 65.979 78.8761 65.782C82.0681 65.584 103.186 64.828 112.871 70.072" fill="#F49D97" blush:i="0.0.47"/><path id="Fill 136" fill-rule="evenodd" clip-rule="evenodd" d="M106.754 63.6452C106.85 63.1672 106.815 62.6992 106.77 62.2302C106.712 61.7622 106.544 61.3162 106.379 60.8742C106.216 60.4322 106.013 60.0002 105.757 59.5992C105.495 59.2102 105.16 58.8292 104.708 58.6642L104.688 58.7092C105.093 58.9282 105.348 59.3252 105.541 59.7252C105.739 60.1272 105.888 60.5552 105.997 60.9952C106.106 61.4362 106.159 61.8872 106.279 62.3262C106.41 62.7632 106.516 63.2072 106.704 63.6492L106.754 63.6452Z" fill="#FFEBE7" blush:i="0.0.48"/><path id="Fill 138" fill-rule="evenodd" clip-rule="evenodd" d="M103.352 63.6403C103.388 63.2173 103.309 62.8213 103.23 62.4243C103.138 62.0313 102.957 61.6653 102.787 61.2983C102.617 60.9323 102.443 60.5673 102.231 60.2183C102.009 59.8833 101.776 59.5203 101.402 59.3263L101.38 59.3703C101.69 59.6053 101.852 59.9803 102.01 60.3333C102.169 60.6913 102.293 61.0673 102.413 61.4423C102.529 61.8193 102.602 62.2103 102.754 62.5763C102.917 62.9383 103.063 63.3063 103.304 63.6533L103.352 63.6403Z" fill="#FFEBE7" blush:i="0.0.49"/><path id="Fill 140" fill-rule="evenodd" clip-rule="evenodd" d="M98.2021 60.3327C98.1961 59.8397 98.0781 59.3797 97.9631 58.9187C97.8351 58.4617 97.6201 58.0347 97.4181 57.6047C97.2191 57.1757 97.0131 56.7467 96.7791 56.3317C96.5291 55.9317 96.2961 55.4897 95.8821 55.2157L95.8581 55.2597C96.2001 55.5627 96.3701 56.0207 96.5551 56.4417C96.7391 56.8687 96.8961 57.3117 97.0471 57.7537C97.1961 58.1977 97.3041 58.6557 97.4921 59.0857C97.6911 59.5117 97.8751 59.9427 98.1541 60.3477L98.2021 60.3327Z" fill="#FFEBE7" blush:i="0.0.50"/><path id="Fill 142" fill-rule="evenodd" clip-rule="evenodd" d="M93.9498 61.1589C93.9578 60.7269 93.8518 60.3289 93.7458 59.9299C93.6268 59.5369 93.4198 59.1769 93.2228 58.8149C93.0248 58.4529 92.8218 58.0939 92.5818 57.7549C92.3308 57.4299 92.0638 57.0799 91.6678 56.9159L91.6488 56.9619C91.9858 57.1729 92.1828 57.5389 92.3688 57.8869C92.5578 58.2379 92.7118 58.6089 92.8588 58.9819C93.0028 59.3569 93.1028 59.7499 93.2798 60.1109C93.4688 60.4709 93.6388 60.8359 93.9028 61.1749L93.9498 61.1589Z" fill="#FFEBE7" blush:i="0.0.51"/><path id="Fill 144" fill-rule="evenodd" clip-rule="evenodd" d="M90.6855 59.3327C90.4345 58.7747 90.1145 58.2747 89.8105 57.7637C89.4965 57.2617 89.1225 56.8007 88.7845 56.3117C88.4475 55.8257 88.1285 55.3257 87.8385 54.8107C87.5445 54.2987 87.2635 53.7717 87.1005 53.2007L87.0515 53.2117C87.2785 54.4007 87.8605 55.4817 88.4455 56.5247C88.7415 57.0477 89.0285 57.5797 89.4015 58.0517C89.7835 58.5157 90.1665 58.9787 90.6465 59.3627L90.6855 59.3327Z" fill="#FFEBE7" blush:i="0.0.52"/><path id="Fill 146" fill-rule="evenodd" clip-rule="evenodd" d="M85.8633 60.32C85.5303 59.884 85.1443 59.521 84.7703 59.146C84.3883 58.78 83.9583 58.471 83.5563 58.129C83.1553 57.785 82.7643 57.429 82.3983 57.05C82.0273 56.676 81.6653 56.288 81.3823 55.84L81.3383 55.864C81.8133 56.832 82.5423 57.648 83.2813 58.42C83.6523 58.806 84.0163 59.206 84.4463 59.527C84.8843 59.838 85.3223 60.149 85.8333 60.36L85.8633 60.32Z" fill="#FFEBE7" blush:i="0.0.53"/><path id="Fill 148" fill-rule="evenodd" clip-rule="evenodd" d="M115.8 74.8444C115.8 74.8444 107.202 68.7494 96.9503 67.4264C86.6983 66.1044 75.9733 67.8044 75.9263 66.7184C75.8793 65.6314 80.8403 66.1514 82.4933 64.5444C84.1473 62.9384 86.6983 59.2534 89.1543 59.8674C91.6113 60.4824 93.2653 63.0794 95.3913 62.5134C97.5173 61.9464 99.4543 59.0644 102.477 64.9224C102.477 64.9224 102.95 63.8354 105.217 64.7344C105.217 64.7344 107.06 62.3234 110.178 65.9144C113.296 69.5054 116.036 71.7264 115.8 74.8444" fill="#FFC2BA" blush:i="0.0.54"/><path id="Fill 150" fill-rule="evenodd" clip-rule="evenodd" d="M125.769 111.506C125.769 111.506 123.737 103.238 112.163 100.262C100.588 97.2846 91.2813 99.8356 91.4223 96.7656C91.5643 93.6936 92.2733 88.5366 99.5483 92.6046C99.5483 92.6046 99.5963 84.8056 112.918 92.6046C112.918 92.6046 112.399 91.4266 112.635 90.9536C112.871 90.4826 124.972 93.2286 125.984 110.327C125.984 110.327 126.477 111.458 125.769 111.506" fill="#F49D97" blush:i="0.0.55"/><path id="Fill 152" fill-rule="evenodd" clip-rule="evenodd" d="M121.422 81.8357C121.422 81.8357 122.962 83.2057 123.397 80.0177C123.832 76.8277 122.981 75.8357 125.91 73.8987C128.839 71.9617 133.658 72.9067 133.469 70.0717C133.28 67.2377 131.532 66.7377 129.406 67.8147C129.406 67.8147 129.746 63.1747 126.151 63.9787C126.151 63.9787 124.091 60.3877 121.788 60.6707C119.485 60.9537 120.823 68.1617 118.784 67.3217C116.745 66.4817 116.462 65.4417 115.233 66.6237C114.005 67.8047 114.747 70.1167 114.092 70.3547C113.438 70.5927 109.833 71.8677 111.824 73.3317C113.816 74.7967 118.54 74.2307 119.721 77.2057C120.902 80.1827 121.422 81.8357 121.422 81.8357" fill="#F49D97" blush:i="0.0.56"/><path id="Fill 154" fill-rule="evenodd" clip-rule="evenodd" d="M132.478 69.7888C131.569 69.8018 130.666 69.8958 129.768 70.0228C128.868 70.1488 127.977 70.3388 127.096 70.6048C126.66 70.7568 126.221 70.8998 125.802 71.1558C125.398 71.4128 125.039 71.7248 124.738 72.0808C124.13 72.7858 123.674 73.5988 123.397 74.4668C123.861 73.6888 124.388 72.9558 125.017 72.3458C125.645 71.7148 126.386 71.3238 127.247 71.0818C128.944 70.5578 130.718 70.2228 132.478 69.7888" fill="#FFEAE6" blush:i="0.0.57"/><path id="Fill 156" fill-rule="evenodd" clip-rule="evenodd" d="M128.698 67.4704C128.116 67.7154 127.577 68.0354 127.049 68.3714C126.521 68.7084 126.011 69.0744 125.546 69.4904C124.609 70.3144 123.692 71.1694 122.887 72.1274C123.959 71.4564 124.92 70.6834 125.86 69.8784C126.787 69.0584 127.762 68.3094 128.698 67.4704" fill="#FFEAE6" blush:i="0.0.58"/><path id="Fill 158" fill-rule="evenodd" clip-rule="evenodd" d="M124.614 63.6472C124.078 64.9352 123.654 66.2642 123.269 67.6052C122.886 68.9472 122.587 70.3112 122.331 71.6852C122.115 73.0652 121.92 74.4552 121.901 75.8582C121.88 77.2552 121.954 78.6752 122.353 80.0172C122.158 78.6352 122.186 77.2512 122.284 75.8762C122.383 74.5012 122.572 73.1302 122.823 71.7712C123.035 70.4042 123.339 69.0522 123.64 67.6992C123.945 66.3472 124.275 64.9982 124.614 63.6472" fill="#FFEAE6" blush:i="0.0.59"/><path id="Fill 160" fill-rule="evenodd" clip-rule="evenodd" d="M115.375 68.3718C116.549 69.1318 117.74 69.8218 118.894 70.5648C119.478 70.9278 120.036 71.3198 120.587 71.7218C121.131 72.1318 121.657 72.5678 122.055 73.1428C121.84 72.4638 121.343 71.9088 120.836 71.4288C120.323 70.9408 119.752 70.5228 119.163 70.1438C118.568 69.7738 117.96 69.4278 117.325 69.1358C116.692 68.8408 116.049 68.5678 115.375 68.3718" fill="#FFEAE6" blush:i="0.0.60"/></g></g></svg>