<svg viewBox="1.1749999999999972 2.3499999999999943 91.64999999999998 89.29999999999997" fill="none" xmlns="http://www.w3.org/2000/svg" xmlns:xlink="http://www.w3.org/1999/xlink" xmlns:blush="http://design.blush" overflow="visible" width="91.64999999999998px" height="89.29999999999997px"><g id="Master/New Stickers/Lines Empty Bubble" blush:has-customizable-colors="true" blush:viewBox="1.4099999999999966 2.819999999999993 91.17999999999998 88.35999999999997" blush:i="0"><path id="Union (Stroke)" fill-rule="evenodd" clip-rule="evenodd" d="M83.8341 69.7386L84.0742 69.1817C88.1381 59.7546 88.1479 48.5042 88.1479 46.9077C88.1479 45.3546 88.0647 43.8213 87.9025 42.3121L87.8951 42.2434L87.894 42.2333C85.5666 20.9433 67.5179 4.37488 45.5992 4.37488C22.0997 4.37488 3.05043 23.4179 3.05043 46.9077C3.05043 70.3975 22.0997 89.4405 45.5992 89.4405C53.6546 89.4405 61.1836 87.204 67.6029 83.3191C68.0796 83.0306 68.6171 82.6602 69.2198 82.2449C69.2993 82.1901 69.3798 82.1346 69.4615 82.0784C70.143 81.6096 70.8914 81.1014 71.6248 80.6803C72.3424 80.2682 73.1432 79.8809 73.928 79.7228C74.628 79.5817 75.4768 79.5984 76.2057 80.1072L89.837 83.2511L90.1019 83.5239C90.3268 83.7553 90.6852 83.6723 90.8173 83.4236L83.8341 69.7386ZM92.1586 83.2136C92.1586 84.7723 90.2628 85.5411 89.1765 84.4229L75.6278 81.2979C74.4785 80.1873 72.0616 81.8532 69.9517 83.3074C69.355 83.7187 68.7829 84.113 68.2709 84.4229C61.6557 88.4263 53.8967 90.7307 45.5992 90.7307C21.3876 90.7307 1.76025 71.1105 1.76025 46.9077C1.76025 22.7049 21.3876 3.0847 45.5992 3.0847C68.183 3.0847 86.7783 20.1555 89.1765 42.0931H89.1853V42.1743C89.3524 43.7292 89.4381 45.3084 89.4381 46.9077C89.4381 48.507 89.4381 59.998 85.259 69.6924L92.1586 83.2136Z" fill="#EABD91" blush:i="0.0"/></g></svg>