<svg viewBox="77.91249999999997 69.85372340425533 115.17499999999995 183.11170212765953" fill="none" xmlns="http://www.w3.org/2000/svg" xmlns:xlink="http://www.w3.org/1999/xlink" xmlns:blush="http://design.blush" overflow="visible" width="115.17499999999995px" height="183.11170212765953px"><g id="Master/Male Character/Sitting" blush:has-customizable-colors="true" blush:viewBox="79.945 69.17553191489361 111.10999999999994 185.82446808510642" blush:i="0"><g id="Male Character/Head" blush:component="Male Character/Head" blush:defaultValue="Short Messy 2" blush:width="28" blush:height="48" transform="translate(110 70) scale(1 1)" blush:i="0.0" blush:value="Short Messy 2" blush:viewBox="0.09589041095890138 0 27.089041095890412 47.51999999999999"><g id="Male Character/Head/Short Messy 2" blush:viewBox="0.09589041095890138 0 27.089041095890412 47.51999999999999" blush:i="0.0.0"><g id="Head" blush:i="0.0.0.0"><path id="Fill 22" fill-rule="evenodd" clip-rule="evenodd" d="M6.60041 24.8188C6.60041 24.8188 7.89241 34.5038 1.23041 37.9608C1.23041 37.9608 0.776414 47.3828 13.9104 47.3828C27.0444 47.3828 20.3484 38.6928 20.3484 38.6928C20.3484 38.6928 15.9074 35.2788 17.0414 31.0768C18.1754 26.8758 13.9234 16.4158 6.60041 24.8188" fill="#a15122" blush:color="Skin-500" blush:i="0.0.0.0.0"/><path id="Fill 24" fill-rule="evenodd" clip-rule="evenodd" d="M2.58125 16.4257C2.07425 16.1337 1.62925 16.1337 1.12025 16.3307C-0.580748 16.9927 0.316252 19.1187 1.21425 20.4417C2.11225 21.7637 2.39525 24.5047 5.18325 23.8897C5.18325 23.8897 5.32425 25.7327 6.55325 27.0557C7.78125 28.3787 13.3093 32.2527 14.8683 32.5827C16.4273 32.9137 18.5053 33.4337 20.0643 32.6307C20.0643 32.6307 20.9623 31.6857 21.5293 29.7007C22.0963 27.7167 22.5213 27.3387 22.7103 25.5437C22.8993 23.7487 23.8913 19.7327 23.4193 17.8897C22.9463 16.0477 25.9583 2.01165 12.2813 2.38665C-1.79575 2.77265 2.66025 16.4707 2.58125 16.4257" fill="#a15122" blush:color="Skin-500" blush:i="0.0.0.0.1"/><path id="Fill 26" fill-rule="evenodd" clip-rule="evenodd" d="M2.58164 16.4257C2.58164 16.4257 4.60564 20.1577 5.24364 20.5827C5.88164 21.0087 5.73964 14.0637 7.01564 13.0717C8.29064 12.0787 9.03564 10.3787 9.21264 9.42167C9.38964 8.46467 20.6926 2.47667 23.3146 12.3977C23.3146 12.3977 23.5626 10.1657 27.1056 6.51567C27.1056 6.51567 25.9726 5.84267 25.2276 5.84267C24.4836 5.84267 23.4206 4.67367 23.4206 4.67367C23.4206 4.67367 24.8736 4.00067 25.6176 4.49667C25.6176 4.49667 25.4766 2.15767 22.0746 2.47667C22.0746 2.47667 22.6416 1.62667 22.7126 0.988672C22.7126 0.988672 19.9486 2.33467 17.6096 1.76767C17.6096 1.76767 18.7086 0.598672 18.8146 0.208672C18.8146 0.208672 18.7086 -0.00332758 15.5906 0.669672C12.4726 1.34267 9.49564 0.952672 7.08664 2.54767C4.67664 4.14167 0.672643 7.40167 1.06264 9.84667C1.45264 12.2917 2.58164 16.4257 2.58164 16.4257" fill="#110b05" blush:color="Hair-500" blush:i="0.0.0.0.2"/><path id="Fill 28" fill-rule="evenodd" clip-rule="evenodd" d="M2.19947 19.0522C2.19947 19.0522 2.02647 18.8522 2.03247 19.1722C2.03947 19.4922 1.95947 19.6662 1.86647 19.6392C1.77247 19.6132 1.33247 18.8452 1.99247 18.4852C2.65347 18.1252 3.01347 18.8392 3.48747 19.7262C3.96047 20.6132 3.78047 21.8732 3.32047 21.9202C2.86047 21.9672 2.99347 21.6472 3.03947 21.0072C3.08647 20.3662 2.43947 19.1852 2.19947 19.0522" fill="black" blush:i="0.0.0.0.3"/><path id="Fill 30" fill-rule="evenodd" clip-rule="evenodd" d="M4.01519 7.56726C3.77119 8.09226 3.66619 8.65026 3.66919 9.19226C3.69619 9.73526 3.76219 10.3123 3.82019 10.8743L3.98419 12.5773C4.04619 13.1443 4.07219 13.7153 4.20419 14.2753C3.87419 13.7813 3.74619 13.1963 3.60519 12.6383C3.46819 12.0733 3.38819 11.5003 3.32319 10.9253C3.27619 10.3453 3.22119 9.77526 3.28719 9.17026C3.36519 8.57026 3.59519 7.98226 4.01519 7.56726" fill="#2D1807" blush:i="0.0.0.0.4"/><path id="Fill 32" fill-rule="evenodd" clip-rule="evenodd" d="M6.25943 7.89789C5.99543 9.37489 5.67543 10.8179 5.43543 12.2739C5.30243 12.9999 5.20843 13.7289 5.13643 14.4579C5.07543 15.1869 5.03943 15.9229 5.17343 16.6619C4.83743 15.9779 4.76943 15.1959 4.75243 14.4439C4.73443 13.6859 4.81843 12.9319 4.94243 12.1899C5.07643 11.4499 5.23743 10.7159 5.46543 10.0009C5.68543 9.28489 5.93243 8.57589 6.25943 7.89789" fill="#2D1807" blush:i="0.0.0.0.5"/><path id="Fill 34" fill-rule="evenodd" clip-rule="evenodd" d="M10.6055 4.09468C11.6165 3.56268 12.6535 3.13968 13.6865 2.71068L15.2365 2.08168C15.7515 1.86568 16.2605 1.65068 16.7475 1.35468C16.3925 1.81168 15.8965 2.13568 15.4085 2.42568C14.9175 2.71868 14.3975 2.95368 13.8755 3.17368C12.8205 3.58968 11.7375 3.93268 10.6055 4.09468" fill="#2D1807" blush:i="0.0.0.0.6"/><path id="Fill 36" fill-rule="evenodd" clip-rule="evenodd" d="M11.0068 5.25235C12.2118 5.06635 13.3548 4.75335 14.4068 4.23735C14.9378 3.99135 15.4368 3.68335 15.9108 3.33535C16.3988 2.99835 16.8148 2.57435 17.2668 2.15735C16.7138 3.24835 15.7518 4.15735 14.6238 4.68735C13.4998 5.22135 12.2188 5.45935 11.0068 5.25235" fill="#2D1807" blush:i="0.0.0.0.7"/><path id="Fill 38" fill-rule="evenodd" clip-rule="evenodd" d="M15.4248 5.74846C16.0428 5.58346 16.6088 5.31746 17.1428 5.00746C17.4058 4.84246 17.6618 4.68146 17.9178 4.49746C18.2058 4.30546 18.5168 4.16546 18.8308 4.05946C19.4648 3.85446 20.1138 3.77146 20.7588 3.75546C21.4038 3.73846 22.0468 3.77446 22.6768 3.90546C22.0398 3.98246 21.4118 4.04246 20.7928 4.13846C20.1768 4.24246 19.5588 4.33746 18.9878 4.53446C18.6968 4.62146 18.4268 4.74546 18.1778 4.89146C17.9028 5.05346 17.6188 5.22746 17.3158 5.34946C16.7178 5.60346 16.0728 5.78846 15.4248 5.74846" fill="#2D1807" blush:i="0.0.0.0.8"/><path id="Fill 40" fill-rule="evenodd" clip-rule="evenodd" d="M18.0469 5.65365C18.4669 5.48965 18.8809 5.34865 19.2929 5.20265C19.7099 5.05065 20.0999 4.91265 20.5379 4.77265C21.3969 4.51065 22.3799 4.46465 23.2199 4.80365C22.7699 4.84565 22.3369 4.86765 21.9189 4.94565C21.5009 5.02765 21.0889 5.12565 20.6779 5.25265C20.2739 5.36965 19.8279 5.51065 19.3889 5.57265C18.9469 5.64465 18.4989 5.69365 18.0469 5.65365" fill="#2D1807" blush:i="0.0.0.0.9"/><path id="Fill 42" fill-rule="evenodd" clip-rule="evenodd" d="M10.8242 14.6127C10.8242 14.6127 11.1252 14.4357 11.8522 14.4177C12.5782 14.3997 15.5372 14.6477 15.5902 14.5417C15.6432 14.4357 15.5372 13.8507 15.5372 13.8507C15.5372 13.8507 15.0412 13.7797 15.0582 13.7087C15.0762 13.6377 15.6432 13.3367 15.6432 13.2657C15.6432 13.1957 11.8162 12.2567 10.8242 14.6127" fill="black" blush:i="0.0.0.0.10"/><path id="Fill 44" fill-rule="evenodd" clip-rule="evenodd" d="M23.4027 14.3647C23.4027 14.3647 22.0387 14.2937 21.4187 14.4887C20.7987 14.6837 20.4967 14.7367 20.4437 14.6477C20.3907 14.5597 20.6387 14.2407 20.9047 14.0987C21.1707 13.9567 20.6387 13.7447 21.2057 13.4967C21.7727 13.2487 23.1727 13.3547 23.3667 13.7617L23.4027 14.3647Z" fill="black" blush:i="0.0.0.0.11"/><path id="Fill 46" fill-rule="evenodd" clip-rule="evenodd" d="M11.5508 18.1025C11.5508 18.1025 13.0568 18.0315 13.8718 18.2265C14.6868 18.4215 15.7318 18.2085 15.7318 18.2085C15.7318 18.2085 14.9518 17.1635 13.9428 17.1635C12.9328 17.1635 11.9408 17.5715 11.5508 18.1025" fill="black" blush:i="0.0.0.0.12"/><path id="Fill 48" fill-rule="evenodd" clip-rule="evenodd" d="M20.4268 18.3862C20.4268 18.3862 22.1458 17.9072 22.9778 18.0322C22.9778 18.0322 23.1728 17.7662 23.0848 17.5892C22.9958 17.4112 22.3578 17.0042 21.6848 17.1992C21.0108 17.3942 20.5868 17.9432 20.4268 18.3862" fill="black" blush:i="0.0.0.0.13"/><path id="Fill 50" fill-rule="evenodd" clip-rule="evenodd" d="M17.6632 23.7187C17.6632 23.7187 18.1942 23.7547 18.5132 23.5947C18.8322 23.4357 20.2322 23.3647 20.2322 23.3647C20.2322 23.3647 19.3462 24.1087 18.9212 24.1267C18.4962 24.1437 17.5742 23.9487 17.6632 23.7187" fill="black" blush:i="0.0.0.0.14"/><path id="Fill 52" fill-rule="evenodd" clip-rule="evenodd" d="M15.1824 26.2524C15.1824 26.2524 17.5744 27.4574 20.0904 26.3764C20.0904 26.3764 20.4794 26.1814 20.4794 26.5004C20.4794 26.8194 19.4164 27.3684 17.7694 27.3864C16.1214 27.4034 14.9344 26.9254 14.6864 26.5004C14.4384 26.0754 15.1824 26.2524 15.1824 26.2524" fill="black" blush:i="0.0.0.0.15"/></g></g></g><g id="Facial Hair" blush:component="Facial Hair" blush:defaultValue="Mustache 1" blush:width="19" blush:height="14" transform="translate(115 90) scale(1 1)" blush:i="0.1" blush:value="Mustache 1" blush:viewBox="8.454999999999998 4.907608695652174 8.835000000000003 1.7119565217391264"><g id="Facial Hair/Mustache 1" blush:viewBox="8.454999999999998 4.907608695652174 8.835000000000003 1.7119565217391264" blush:i="0.1.0"><g id="Group 6" blush:i="0.1.0.0"><path id="Fill 4" fill-rule="evenodd" clip-rule="evenodd" d="M17.2675 6.27189C16.9035 5.45389 16.1105 4.77489 14.5135 5.03689C13.1295 5.26389 11.1245 4.65389 9.59149 5.53489C9.18049 5.77189 8.80249 6.11589 8.47949 6.61289C8.47949 6.61289 9.67349 6.10889 10.4365 6.12589C11.5175 6.14889 13.7025 6.35489 14.5175 6.12589C15.3315 5.89489 17.2675 6.27189 17.2675 6.27189" fill="#492308" blush:i="0.1.0.0.0"/></g></g></g><g id="Male Character Sitting/Lower body" blush:component="Male Character Sitting/Lower body" blush:defaultValue="Jeans 1" blush:width="104" blush:height="117" transform="translate(87 137) scale(1 1)" blush:i="0.2" blush:value="Jeans 1" blush:viewBox="18.036036036036037 19.304999999999993 85.49549549549549 95.93999999999998"><g id="Male Character Sitting/Lower body/Jeans 1" blush:viewBox="18.036036036036037 19.304999999999993 85.49549549549549 95.93999999999998" blush:i="0.2.0"><g id="Lower" blush:i="0.2.0.0"><path id="Fill 21" fill-rule="evenodd" clip-rule="evenodd" d="M77.2706 89.994C77.2706 89.994 77.3066 90.986 76.3136 93.041C75.3216 95.097 74.9676 99.136 75.8536 99.915C75.8536 99.915 75.5696 100.305 75.4286 100.376C75.2866 100.446 75.3576 101.828 75.3576 101.828C75.3576 101.828 79.7156 103.281 83.0106 102.395C83.0106 102.395 83.2586 101.58 83.0816 100.942C83.0816 100.942 85.5626 100.73 86.0586 101.014C86.5546 101.297 86.6956 102.785 90.0976 102.856C93.4996 102.927 102.5 102.75 103.066 100.163L102.783 99.986C102.783 99.986 102.748 98.568 101.614 98.143C100.48 97.719 91.1606 95.273 88.7506 89.958C86.3416 84.643 77.6606 83.934 77.2706 89.994" fill="#422D18" blush:i="0.2.0.0.0"/><path id="Fill 23" fill-rule="evenodd" clip-rule="evenodd" d="M81.7695 99.7381C82.0435 98.9501 82.3995 98.1951 82.7715 97.4441C83.1635 96.7031 83.6825 96.0401 84.1925 95.3751C84.7135 94.7171 85.2935 94.0951 85.9625 93.5641C86.6275 93.0391 87.3965 92.5761 88.2895 92.4391C88.3555 92.4281 88.4225 92.4481 88.4725 92.4851C89.5455 93.2791 90.6075 94.0821 91.6465 94.9251C92.1615 95.3491 92.6875 95.7731 93.1535 96.2821C93.5765 96.7401 94.1195 97.1401 94.6665 97.3371L94.6795 97.3411C94.8095 97.3871 94.8775 97.5311 94.8315 97.6621C94.8235 97.6821 94.8125 97.7031 94.8005 97.7201C94.5995 98.0091 94.4025 98.3121 94.2135 98.6141C94.0455 98.9291 93.8255 99.2131 93.6285 99.5121C93.4315 99.8101 93.2475 100.117 93.0825 100.433C92.9225 100.752 92.7665 101.078 92.7185 101.438C92.6875 100.697 93.0085 99.9961 93.2815 99.3241C93.4315 98.9891 93.5765 98.6481 93.7895 98.3501C93.9825 98.0401 94.1805 97.7361 94.3925 97.4321L94.5265 97.8161C93.8175 97.5621 93.2695 97.1321 92.7875 96.6221C92.3545 96.1481 91.8415 95.7331 91.3315 95.3121C90.3035 94.4791 89.2435 93.6761 88.1775 92.8881L88.3595 92.9341C87.6005 93.0501 86.8965 93.4621 86.2735 93.9561C85.6465 94.4531 85.0875 95.0491 84.5825 95.6871C84.0635 96.3171 83.6305 97.0111 83.1595 97.6831C82.6665 98.3421 82.2125 99.0341 81.7695 99.7381" fill="#040302" blush:i="0.2.0.0.1"/><path id="Fill 25" fill-rule="evenodd" clip-rule="evenodd" d="M75.8655 99.8934C76.3885 100.116 76.9515 100.239 77.5105 100.337C78.0695 100.439 78.6355 100.497 79.2015 100.529C79.7685 100.564 80.3365 100.526 80.9025 100.568C81.4695 100.618 82.0375 100.631 82.6195 100.74C82.6335 100.743 82.6425 100.755 82.6405 100.77C82.6385 100.78 82.6315 100.787 82.6225 100.789C82.0585 100.967 81.4795 101.027 80.8985 101.068C80.3165 101.091 79.7365 101.017 79.1615 100.927C78.0145 100.761 76.8625 100.497 75.8415 99.9364C75.8285 99.9304 75.8245 99.9144 75.8315 99.9034C75.8375 99.8914 75.8535 99.8884 75.8655 99.8934" fill="#040302" blush:i="0.2.0.0.2"/><path id="Fill 27" fill-rule="evenodd" clip-rule="evenodd" d="M84.568 100.138C85.34 100.089 86.116 100.075 86.891 100.19C87.666 100.362 88.379 100.592 89.144 100.725C90.651 101.021 92.181 101.195 93.712 101.233C95.245 101.267 96.771 101.134 98.281 100.932C99.797 100.742 101.284 100.386 102.773 99.9625C102.786 99.9585 102.8 99.9655 102.804 99.9795C102.808 99.9915 102.802 100.003 102.791 100.008C101.401 100.701 99.89 101.143 98.357 101.426C96.818 101.7 95.247 101.722 93.696 101.632C92.143 101.543 90.602 101.317 89.09 100.969C88.338 100.806 87.587 100.53 86.864 100.337C86.116 100.193 85.339 100.172 84.571 100.188C84.557 100.188 84.546 100.178 84.545 100.164C84.544 100.151 84.555 100.139 84.568 100.138" fill="#040302" blush:i="0.2.0.0.3"/><path id="Fill 29" fill-rule="evenodd" clip-rule="evenodd" d="M92.9314 96.7635C92.8864 96.7635 92.8404 96.7505 92.7984 96.7245C92.6814 96.6515 92.6464 96.4965 92.7204 96.3805C92.7474 96.3375 93.3874 95.3365 94.4284 95.0665C94.5654 95.0355 94.6984 95.1125 94.7334 95.2455C94.7674 95.3795 94.6874 95.5155 94.5544 95.5505C93.7074 95.7695 93.1484 96.6385 93.1434 96.6475C93.0954 96.7225 93.0144 96.7635 92.9314 96.7635" fill="#040302" blush:i="0.2.0.0.4"/><path id="Fill 31" fill-rule="evenodd" clip-rule="evenodd" d="M91.3725 95.5223C91.3295 95.5223 91.2865 95.5113 91.2465 95.4883C91.1275 95.4183 91.0875 95.2663 91.1575 95.1473C91.1805 95.1073 91.7405 94.1723 93.0025 94.1723C93.1415 94.1723 93.2525 94.2853 93.2525 94.4223C93.2525 94.5603 93.1415 94.6723 93.0025 94.6723C92.0345 94.6723 91.6055 95.3713 91.5885 95.4003C91.5415 95.4783 91.4575 95.5223 91.3725 95.5223" fill="#040302" blush:i="0.2.0.0.5"/><path id="Fill 33" fill-rule="evenodd" clip-rule="evenodd" d="M90.2026 94.5662C90.1596 94.5662 90.1156 94.5542 90.0756 94.5312C89.9566 94.4612 89.9176 94.3072 89.9886 94.1882C90.0536 94.0782 90.6486 93.1102 91.3726 93.1102C91.5106 93.1102 91.6226 93.2222 91.6226 93.3602C91.6226 93.4982 91.5106 93.6102 91.3726 93.6102C91.0386 93.6102 90.6096 94.1222 90.4176 94.4442C90.3706 94.5222 90.2876 94.5662 90.2026 94.5662" fill="#040302" blush:i="0.2.0.0.6"/><path id="Fill 35" fill-rule="evenodd" clip-rule="evenodd" d="M88.7869 93.6805C88.7319 93.6805 88.6769 93.6625 88.6309 93.6255C88.5229 93.5385 88.5059 93.3815 88.5919 93.2745C88.6279 93.2285 89.4939 92.1545 90.2239 91.8855C90.3519 91.8355 90.4969 91.9035 90.5449 92.0345C90.5929 92.1625 90.5259 92.3065 90.3969 92.3545C89.8989 92.5375 89.2069 93.3065 88.9819 93.5865C88.9329 93.6485 88.8599 93.6805 88.7869 93.6805" fill="#040302" blush:i="0.2.0.0.7"/><path id="Fill 37" fill-rule="evenodd" clip-rule="evenodd" d="M88.6628 91.2869C87.6778 91.9199 86.5808 92.8739 86.8518 93.4689C86.9428 93.6699 87.0298 93.6579 87.0718 93.6519C87.5368 93.5889 88.3218 92.4689 88.6628 91.2869M87.0438 94.1539C86.8508 94.1539 86.5778 94.0729 86.3968 93.6759C85.7878 92.3349 88.5908 90.7329 88.9128 90.5549C88.9958 90.5089 89.0998 90.5139 89.1768 90.5679C89.2558 90.6229 89.2958 90.7179 89.2808 90.8119C89.0608 92.2119 88.0298 94.0259 87.1398 94.1469C87.1108 94.1509 87.0788 94.1539 87.0438 94.1539" fill="#040302" blush:i="0.2.0.0.8"/><path id="Fill 39" fill-rule="evenodd" clip-rule="evenodd" d="M90.0005 90.6766C91.1485 91.2736 92.1765 91.6526 92.3865 91.5296C92.3825 91.5256 92.3845 91.4946 92.3705 91.4356C92.2095 90.7756 90.9585 90.6606 90.0005 90.6766M92.2865 92.0326C91.4135 92.0326 89.7705 91.1436 89.0155 90.7066C88.9225 90.6536 88.8745 90.5466 88.8955 90.4416C88.9165 90.3366 89.0015 90.2566 89.1075 90.2416C89.4525 90.1946 92.4955 89.8296 92.8555 91.3176C92.9435 91.6746 92.7895 91.8526 92.6895 91.9266C92.5915 92.0006 92.4525 92.0326 92.2865 92.0326" fill="#040302" blush:i="0.2.0.0.9"/><path id="Fill 41" fill-rule="evenodd" clip-rule="evenodd" d="M88.0773 97.5076C87.9603 97.5076 87.8563 97.4256 87.8323 97.3066C87.5063 95.6736 88.6383 91.3866 88.6863 91.2046C88.7223 91.0726 88.8573 90.9926 88.9933 91.0286C89.1263 91.0636 89.2053 91.1996 89.1703 91.3336C89.1583 91.3766 88.0193 95.6896 88.3233 97.2086C88.3493 97.3436 88.2623 97.4756 88.1263 97.5026C88.1103 97.5056 88.0943 97.5076 88.0773 97.5076" fill="#040302" blush:i="0.2.0.0.10"/><path id="Fill 43" fill-rule="evenodd" clip-rule="evenodd" d="M68.3877 94.3992C68.3877 94.3992 65.4117 96.2892 64.9867 98.7932C64.5607 101.296 64.6527 103.572 64.5607 105.265C64.2657 110.722 63.2387 115.434 72.1677 114.998C82.7557 114.479 75.7107 106.352 75.6637 105.643C75.6167 104.934 74.3877 99.3122 74.0097 97.6122C73.6317 95.9112 70.1357 92.3682 68.3877 94.3992" fill="#422D18" blush:i="0.2.0.0.11"/><path id="Fill 45" fill-rule="evenodd" clip-rule="evenodd" d="M64.5488 111.572C64.6228 110.802 64.8348 110.052 65.1038 109.326C65.3698 108.597 65.7338 107.905 66.1518 107.248C66.9918 105.942 68.1598 104.812 69.5448 104.132C68.9768 104.655 68.4028 105.143 67.9218 105.725C67.4328 106.296 66.9678 106.884 66.5708 107.52C65.7488 108.776 65.0968 110.137 64.5488 111.572" fill="#040302" blush:i="0.2.0.0.12"/><path id="Fill 47" fill-rule="evenodd" clip-rule="evenodd" d="M75.6635 105.643C75.0685 105.268 74.4945 104.972 73.8945 104.688C73.2985 104.397 72.6865 104.149 72.0605 103.812C72.4165 103.788 72.7665 103.827 73.1105 103.9C73.4565 103.967 73.7885 104.089 74.1095 104.237C74.4255 104.396 74.7335 104.576 74.9995 104.815C75.2655 105.049 75.5175 105.313 75.6635 105.643" fill="#040302" blush:i="0.2.0.0.13"/><path id="Fill 49" fill-rule="evenodd" clip-rule="evenodd" d="M68.2695 103.602C68.1695 103.602 68.0745 103.541 68.0365 103.442C67.9865 103.313 68.0505 103.168 68.1795 103.119C68.2835 103.079 70.7605 102.139 73.2205 102.755C73.3545 102.789 73.4355 102.924 73.4025 103.058C73.3685 103.191 73.2325 103.278 73.0995 103.24C70.7985 102.665 68.3845 103.577 68.3595 103.585C68.3305 103.597 68.2995 103.602 68.2695 103.602" fill="#040302" blush:i="0.2.0.0.14"/><path id="Fill 51" fill-rule="evenodd" clip-rule="evenodd" d="M68.1284 102.043C68.0104 102.043 67.9064 101.96 67.8834 101.84C67.8574 101.704 67.9464 101.573 68.0824 101.548C68.2054 101.523 71.1124 100.979 72.8664 101.154C73.0034 101.169 73.1044 101.291 73.0894 101.429C73.0764 101.566 72.9524 101.659 72.8154 101.652C71.1374 101.48 68.2054 102.034 68.1754 102.038C68.1594 102.042 68.1444 102.043 68.1284 102.043" fill="#040302" blush:i="0.2.0.0.15"/><path id="Fill 53" fill-rule="evenodd" clip-rule="evenodd" d="M69.2014 103.529C69.0584 103.313 69.0224 103.098 68.9764 102.883C68.9444 102.667 68.9994 102.451 69.0264 102.236C69.0714 101.804 69.1294 101.374 69.2014 100.942H69.2514C69.3244 101.374 69.3824 101.804 69.4264 102.236C69.4534 102.451 69.5094 102.667 69.4764 102.883C69.4304 103.098 69.3944 103.313 69.2514 103.529H69.2014Z" fill="#040302" blush:i="0.2.0.0.16"/><path id="Fill 55" fill-rule="evenodd" clip-rule="evenodd" d="M72.0722 103.288C71.8772 103.123 71.7862 102.926 71.6892 102.73C71.6042 102.532 71.6072 102.31 71.5852 102.097C71.5362 101.67 71.4972 101.236 71.5402 100.802L71.5902 100.8C71.6902 101.212 71.8412 101.607 71.9752 102.007C72.0492 102.205 72.1532 102.394 72.1732 102.605C72.1812 102.82 72.2012 103.032 72.1202 103.274L72.0722 103.288Z" fill="#040302" blush:i="0.2.0.0.17"/><path id="Fill 57" fill-rule="evenodd" clip-rule="evenodd" d="M24.2072 51.0984C32.9082 55.5014 46.2072 55.6074 57.1112 51.7274C57.1112 51.7274 53.9662 66.7194 57.5302 76.0504C61.0942 85.3814 64.3452 99.7454 64.2402 100.373C64.2402 100.373 70.7402 103.309 74.7242 98.3814C74.7242 98.3814 70.6352 81.1884 71.9982 69.3404C73.3612 57.4944 73.8852 45.3324 73.8852 45.3324L78.1842 45.2274C78.1842 45.2274 74.2002 62.6304 75.6682 73.9544C77.1352 85.2774 76.1922 90.9384 76.1922 90.9384C76.1922 90.9384 85.1032 93.9784 88.8782 90.5194C88.8782 90.5194 88.8782 60.5344 93.9102 45.3324C98.9422 30.1304 94.6442 29.9204 90.7652 28.5574C86.8852 27.1954 64.1482 22.5654 53.9202 23.2024C43.6912 23.8394 22.3032 15.4134 18.6342 22.2274C18.6342 22.2274 15.5052 46.6954 24.2072 51.0984Z" fill="#69313B" blush:i="0.2.0.0.18"/><path id="Fill 59" fill-rule="evenodd" clip-rule="evenodd" d="M31.2148 28.6629C34.7468 28.4489 38.2858 28.3299 41.8248 28.3009C45.3648 28.2539 48.9068 28.2899 52.4458 28.4399C55.9848 28.5849 59.5278 28.7889 63.0508 29.2449C64.8118 29.4719 66.5698 29.7419 68.3128 30.1219C70.0488 30.5109 71.7968 30.9759 73.3968 31.8789L73.4588 31.9139L73.4858 31.9609C74.1038 33.0169 74.3808 34.1189 74.5938 35.2459C74.7958 36.3709 74.8648 37.5109 74.8478 38.6429C74.8408 39.7779 74.7108 40.9039 74.5638 42.0219L74.2708 43.6879L73.8848 45.3329L74.1628 43.6689L74.3718 41.9989C74.4648 40.8819 74.5398 39.7629 74.4918 38.6459C74.4618 37.5319 74.3698 36.4179 74.1398 35.3329C73.9128 34.2649 73.5738 33.1589 73.0258 32.2839L73.1148 32.3659C71.5958 31.5799 69.8808 31.1389 68.1728 30.7679C66.4558 30.4119 64.7128 30.1609 62.9648 29.9529C59.4638 29.5639 55.9428 29.2979 52.4158 29.1239C45.3608 28.8089 38.2908 28.6759 31.2148 28.6629" fill="#150711" blush:i="0.2.0.0.19"/><path id="Fill 61" fill-rule="evenodd" clip-rule="evenodd" d="M38.0293 52.3563C39.8003 51.3903 41.5973 50.4873 43.3943 49.5853L48.8033 46.9233L54.2283 44.3043C55.1353 43.8743 56.0323 43.4243 56.9193 42.9583C57.8153 42.5043 58.7043 42.0433 59.5223 41.4533C58.0393 42.8393 56.2343 43.8073 54.4963 44.8153C52.7413 45.8123 50.9393 46.7123 49.1303 47.5973C47.3153 48.4683 45.4893 49.3173 43.6363 50.1053C41.7863 50.9003 39.9273 51.6723 38.0293 52.3563" fill="#150711" blush:i="0.2.0.0.20"/><path id="Fill 63" fill-rule="evenodd" clip-rule="evenodd" d="M67.0654 40.6824C65.7404 41.9714 64.3354 43.1664 62.9064 44.3344C61.4834 45.5104 59.9994 46.6084 58.4944 47.6794C56.9824 48.7384 55.4314 49.7494 53.8134 50.6514C52.2004 51.5484 50.5314 52.4064 48.7344 52.8714C50.4184 52.1154 51.9764 51.1494 53.5164 50.1564C55.0464 49.1494 56.5704 48.1314 58.0644 47.0654L62.5584 43.8784C64.0544 42.8094 65.5454 41.7314 67.0654 40.6824" fill="#150711" blush:i="0.2.0.0.21"/><path id="Fill 65" fill-rule="evenodd" clip-rule="evenodd" d="M67.727 41.1551C66.841 42.2781 65.874 43.3271 64.88 44.3481C63.892 45.3761 62.844 46.3441 61.773 47.2891C60.685 48.2141 59.571 49.1151 58.378 49.9121C57.182 50.6821 55.921 51.4721 54.498 51.7381C55.155 51.4471 55.767 51.1151 56.339 50.6981C56.926 50.3111 57.483 49.8791 58.038 49.4461C59.131 48.5541 60.215 47.6501 61.282 46.7221L64.486 43.9311C65.558 43.0011 66.622 42.0601 67.727 41.1551" fill="#150711" blush:i="0.2.0.0.22"/><path id="Fill 67" fill-rule="evenodd" clip-rule="evenodd" d="M70.4673 46.4461C69.3663 49.4341 68.1353 52.3611 66.9813 55.3191C66.3703 56.7851 65.8003 58.2651 65.2213 59.7431C64.6463 61.2211 64.0773 62.7021 63.5703 64.2101C63.8773 62.6451 64.3593 61.1221 64.8603 59.6111C65.3653 58.1001 65.9423 56.6171 66.5173 55.1341C67.7293 52.1911 68.9883 49.2681 70.4673 46.4461" fill="#150711" blush:i="0.2.0.0.23"/><path id="Fill 69" fill-rule="evenodd" clip-rule="evenodd" d="M89.3654 47.1082C87.6414 49.5572 85.8214 51.9232 84.0814 54.3492C83.1824 55.5402 82.3294 56.7632 81.4744 57.9832C80.6224 59.2082 79.7874 60.4412 79.0664 61.7542C79.6004 60.3492 80.3654 59.0452 81.1534 57.7722C81.9474 56.5002 82.8074 55.2722 83.6784 54.0542C84.5804 52.8592 85.4774 51.6612 86.4274 50.5032C87.3754 49.3452 88.3404 48.2012 89.3654 47.1082" fill="#150711" blush:i="0.2.0.0.24"/><path id="Fill 71" fill-rule="evenodd" clip-rule="evenodd" d="M77.5527 42.7616C78.0707 41.9096 78.6697 41.1156 79.2947 40.3416C79.9167 39.5646 80.5917 38.8306 81.3027 38.1316C82.0227 37.4416 82.7657 36.7696 83.5937 36.2016C84.4137 35.6326 85.2867 35.1116 86.2457 34.8246C85.3717 35.3016 84.5847 35.8866 83.8267 36.5076C83.0737 37.1326 82.3527 37.8006 81.6527 38.4896C80.2397 39.8566 78.9147 41.3136 77.5527 42.7616" fill="#150711" blush:i="0.2.0.0.25"/><path id="Fill 73" fill-rule="evenodd" clip-rule="evenodd" d="M90.6876 34.9188C89.7316 35.9398 88.7066 36.8838 87.6576 37.8018C86.6056 38.7218 85.5236 39.5938 84.3296 40.3738C83.1576 41.0608 82.1386 41.9708 81.0756 42.8598L77.9316 45.5968C78.7726 44.4788 79.7026 43.4378 80.6816 42.4398C81.6546 41.4458 82.7096 40.4768 83.9316 39.7388C85.0746 39.0158 86.1736 38.1568 87.2986 37.3538C88.4166 36.5328 89.5316 35.7038 90.6876 34.9188" fill="#150711" blush:i="0.2.0.0.26"/><path id="Fill 75" fill-rule="evenodd" clip-rule="evenodd" d="M78.7812 45.785C79.9173 44.499 81.2243 43.414 82.5923 42.409C83.2823 41.917 83.9912 41.445 84.7362 41.028C85.4732 40.606 86.2612 40.233 87.0962 40.021C86.3852 40.498 85.7323 41.02 85.0553 41.518L83.0312 43.017C81.6612 43.993 80.2843 44.961 78.7812 45.785" fill="#150711" blush:i="0.2.0.0.27"/></g></g></g><g id="Male Character Sitting/Upper body" blush:component="Male Character Sitting/Upper body" blush:defaultValue="Sweater 5" blush:width="108" blush:height="95" transform="translate(81 101) scale(1 1)" blush:i="0.3" blush:value="Sweater 5" blush:viewBox="0 0.5397727272727195 107.45999999999998 93.92045454545456"><g id="Male Character Sitting/Upper body/Sweater 5" blush:viewBox="0 0.5397727272727195 107.45999999999998 93.92045454545456" blush:i="0.3.0"><g id="Top" blush:i="0.3.0.0"><path id="Fill 116" fill-rule="evenodd" clip-rule="evenodd" d="M97.6244 53.2625C93.2804 52.4545 89.8144 52.4205 84.3194 49.0845C81.5084 47.3785 77.2234 44.6045 71.9324 42.7145C67.6514 41.1855 66.1504 36.8185 64.0794 36.1665C63.6404 36.0295 63.6634 46.3765 65.2704 48.8565C66.9244 51.4075 67.0334 52.2185 69.2394 53.1085C76.8034 56.1585 86.2344 55.8685 90.9764 57.9585C91.7644 58.3065 91.5414 58.4495 92.1774 59.2645C93.4774 60.9325 97.9314 59.9335 100.117 61.1105C100.585 62.0765 100.608 64.7565 102.339 64.5635L102.466 64.4335L102.448 63.6175C102.448 63.6175 103.458 63.9005 103.986 63.6585C103.986 63.6585 104.103 63.5485 104.106 63.4355C104.109 63.3555 103.673 62.5755 103.415 62.1205C104.802 63.1985 105.704 62.8695 106.022 62.4955C106.176 62.3165 104.926 60.7195 104.926 60.7195C107.428 62.0315 107.473 60.9255 107.354 60.4375C107.236 59.9495 104.992 57.6875 104.083 56.5745C103.201 55.4925 101.968 54.0695 97.6244 53.2625" fill="#a15122" blush:color="Skin-500" blush:i="0.3.0.0.0"/><path id="Fill 118" fill-rule="evenodd" clip-rule="evenodd" d="M8.1906 22.2567C8.1906 22.2567 0.426598 45.5817 0.433598 46.0827C0.441598 46.5837 2.0106 59.5327 4.9406 66.0527C7.2086 71.1017 6.9126 76.2767 6.9126 76.2767C6.9126 76.2767 9.3646 76.2657 11.6426 75.4257C12.7676 75.0117 14.6196 73.4777 14.5656 73.4587C14.5656 73.4587 11.8026 70.3527 12.3106 62.0367C12.6576 56.3487 11.8986 52.3287 11.6016 45.6777C11.6016 45.6777 16.6386 36.5697 17.8066 29.7077C18.9746 22.8467 13.6936 14.9577 8.1906 22.2567" fill="#a15122" blush:color="Skin-500" blush:i="0.3.0.0.1"/><path id="Fill 120" fill-rule="evenodd" clip-rule="evenodd" d="M102.449 63.618C101.96 63.437 101.599 63.019 101.336 62.579C101.224 62.345 101.116 62.107 101.062 61.854C101 61.604 100.986 61.346 100.994 61.092C101.3 62.059 101.701 62.927 102.449 63.618" fill="black" blush:i="0.3.0.0.2"/><path id="Fill 122" fill-rule="evenodd" clip-rule="evenodd" d="M102.176 60.7274C102.622 61.1884 103.036 61.5914 103.415 62.1214C103.104 62.0074 102.863 61.7914 102.636 61.5674C102.432 61.3244 102.235 61.0544 102.176 60.7274" fill="black" blush:i="0.3.0.0.3"/><path id="Fill 124" fill-rule="evenodd" clip-rule="evenodd" d="M100.117 61.1102C100.522 61.0842 100.925 61.0352 101.308 60.9512C101.681 60.8822 102.096 60.6412 101.963 60.5122C101.897 60.2492 101.628 59.9132 101.367 59.6472C101.098 59.3722 100.796 59.1192 100.481 58.8972C100.325 58.7892 100.159 58.6842 100.003 58.6182C99.8848 58.5612 99.6438 58.5222 99.4558 58.4662C99.0608 58.3622 98.6708 58.2492 98.2818 58.1272C97.8928 58.0042 97.5058 57.8742 97.1208 57.7182C96.9288 57.6402 96.7378 57.5582 96.5428 57.4492C96.4448 57.3882 96.3488 57.3402 96.2358 57.2182C96.1898 57.1712 96.0768 57.0212 96.1478 56.8272C96.2268 56.6622 96.3338 56.6492 96.4408 56.5942C96.9498 56.5192 97.3228 56.5962 97.7418 56.6402C98.1478 56.7002 98.5498 56.7672 98.9488 56.8472C99.7478 57.0062 100.537 57.1862 101.327 57.4212C101.534 57.4912 101.7 57.5252 101.959 57.6672C102.206 57.8522 102.27 57.9902 102.422 58.1462C102.682 58.4532 102.953 58.7442 103.227 59.0312C103.722 59.6552 104.273 60.2352 104.927 60.7192C104.169 60.4112 103.501 59.9052 102.868 59.3802C102.579 59.0892 102.311 58.7792 102.044 58.4742C101.921 58.3392 101.76 58.1252 101.678 58.0802C101.582 58.0292 101.356 57.9522 101.18 57.8982C100.422 57.6722 99.6368 57.4932 98.8528 57.3382C98.0918 57.1992 97.2208 57.0202 96.5648 57.0792C96.5928 57.0792 96.5758 57.0822 96.6138 57.0092C96.6468 56.9112 96.5898 56.8662 96.6118 56.8892C96.6338 56.9172 96.7158 56.9732 96.7908 57.0142C96.9478 57.1032 97.1278 57.1822 97.3088 57.2562C97.6728 57.4022 98.0518 57.5292 98.4318 57.6492C98.8128 57.7692 99.1978 57.8812 99.5828 57.9832C99.7808 58.0442 99.9468 58.0542 100.2 58.1582C100.414 58.2522 100.591 58.3662 100.766 58.4872C101.111 58.7292 101.43 58.9972 101.725 59.2982C102.006 59.6172 102.319 59.8952 102.458 60.4232C102.475 60.5702 102.442 60.7632 102.329 60.8852C102.226 61.0152 102.101 61.0642 101.991 61.1082C101.765 61.1862 101.553 61.2052 101.343 61.2142C100.924 61.2282 100.517 61.1862 100.117 61.1102" fill="black" blush:i="0.3.0.0.4"/><path id="Fill 126" fill-rule="evenodd" clip-rule="evenodd" d="M6.91016 76.2703C6.91016 76.2703 6.98816 85.2543 6.98816 86.0633C6.98816 86.8723 8.60516 91.6373 8.69216 92.0993C8.77916 92.5613 9.70316 92.6483 9.87616 92.4743C10.0492 92.3013 10.2802 91.6083 10.2802 91.6083C10.2802 91.6083 10.7142 93.1393 11.0602 93.3123C11.4072 93.4853 11.9272 93.8893 12.1582 93.8613C12.3892 93.8323 12.6202 93.2543 12.4472 92.4463C12.4472 92.4463 13.2552 93.9483 13.8622 94.2363C14.4682 94.5253 15.2772 94.5253 15.2482 94.0923C15.2192 93.6593 15.1612 93.3993 15.1612 93.3993C15.1612 93.3993 16.4032 93.6873 16.5192 93.0813C16.6342 92.4743 16.6342 89.5293 16.1152 87.6513C15.5952 85.7743 16.2012 82.5683 15.6812 81.7313C15.6812 81.7313 17.0102 85.6593 18.5122 85.5723C20.0142 85.4853 19.8982 84.9083 19.8112 84.7633C19.7242 84.6193 18.1942 82.8863 18.2812 81.5863C18.3672 80.2873 18.1362 80.2293 18.0782 79.6803C18.0202 79.1313 18.4252 79.1313 17.3562 77.7163C16.2872 76.3013 14.5302 73.4953 14.5302 73.4953L13.4962 74.2733C12.1112 75.3153 10.4602 75.9453 8.73316 76.0903L6.91016 76.2703Z" fill="#a15122" blush:color="Skin-500" blush:i="0.3.0.0.5"/><path id="Fill 128" fill-rule="evenodd" clip-rule="evenodd" d="M15.1614 93.3992C14.8164 92.5942 14.5284 91.7722 14.2524 90.9452C13.9744 90.1182 13.7304 89.2862 13.5214 88.4282C13.4754 88.2312 13.4224 87.9512 13.4254 87.7432L13.3954 87.0932L13.3444 85.7952C13.3004 84.9292 13.2814 84.0642 13.1484 83.2032C13.4844 84.0192 13.6034 84.9002 13.7274 85.7612C13.7934 86.1942 13.8254 86.6292 13.8684 87.0642L13.9134 87.7162C13.9174 87.9452 13.9594 88.0912 14.0084 88.3182C14.4074 89.9922 14.8624 91.6772 15.1614 93.3992" fill="black" blush:i="0.3.0.0.6"/><path id="Fill 130" fill-rule="evenodd" clip-rule="evenodd" d="M10.3145 83.5223C10.5845 84.1983 10.7955 84.8923 10.9765 85.5953C11.0715 85.9463 11.1485 86.3023 11.2125 86.6633C11.2755 87.0293 11.3275 87.3833 11.3045 87.8013L11.2955 87.7043C11.5305 88.4813 11.7505 89.2633 11.9445 90.0523C12.1345 90.8443 12.3215 91.6353 12.4475 92.4463C12.1095 91.6993 11.8345 90.9333 11.5605 90.1673C11.2925 89.3993 11.0485 88.6253 10.8215 87.8443L10.8085 87.7983L10.8135 87.7473C10.8395 87.4433 10.7925 87.0783 10.7585 86.7303L10.6165 85.6683C10.5105 84.9573 10.3985 84.2453 10.3145 83.5223" fill="black" blush:i="0.3.0.0.7"/><path id="Fill 132" fill-rule="evenodd" clip-rule="evenodd" d="M8.11719 83.6287C8.37019 84.2397 8.56819 84.8697 8.73219 85.5097C8.90619 86.1497 9.03419 86.7957 9.07219 87.4837L9.06019 87.4147C9.29619 88.1217 9.51319 88.8337 9.70819 89.5547C9.89619 90.2767 10.0822 90.9997 10.2072 91.7427C9.87219 91.0677 9.59719 90.3737 9.32519 89.6787C9.05819 88.9827 8.81619 88.2767 8.59119 87.5667L8.58019 87.5347L8.57819 87.4977C8.51519 86.2387 8.25019 84.9387 8.11719 83.6287" fill="black" blush:i="0.3.0.0.8"/><g id="Group 136" blush:i="0.3.0.0.9"><path id="Fill 134" fill-rule="evenodd" clip-rule="evenodd" d="M72.0031 40.8124C72.2151 40.1394 71.1881 40.4574 71.0461 39.5014C70.9051 38.5444 71.7901 38.4034 70.1961 37.1274C68.6011 35.8524 66.9001 20.1904 61.8691 14.6274C61.8691 14.6274 60.4871 13.2464 57.7231 11.5094C54.9591 9.77342 51.5581 8.32042 50.6011 6.33642C49.6441 4.35242 46.244 3.33592 46.103 3.01692C46.103 3.01692 46.7551 5.09642 46.0321 6.78242C45.4081 8.23742 44.6841 9.70242 40.2191 9.31242C36.5901 8.99642 33.8505 5.42467 34.2325 2.51267C34.2425 2.50067 34.8521 0.997247 34.8521 0.997247C34.8521 0.997247 33.4751 0.903423 32.0581 1.89542C30.6401 2.88742 19.1601 8.88742 16.9871 10.3524C14.8141 11.8164 9.52211 16.8724 7.25511 24.3364C4.98711 31.8004 0.499111 42.5254 0.168111 44.6514C-0.162889 46.7774 -0.0208889 50.4154 0.735111 50.8874C0.735111 50.8874 1.01811 51.2654 1.62111 50.9944C2.22311 50.7224 3.49911 49.3404 7.06611 50.3794C10.6331 51.4184 11.2701 51.8684 12.1211 51.1354C12.9711 50.4034 11.6721 47.4154 11.6721 47.4154C11.6721 47.4154 12.3101 45.9504 12.5701 45.5964C12.8291 45.2424 11.8371 44.5564 12.9001 44.2494C13.9631 43.9424 12.9001 43.8954 13.9161 42.1004C14.9321 40.3044 17.3181 34.7064 17.4831 34.3994C17.6481 34.0924 17.7901 37.1164 18.3811 38.3914C18.9711 39.6664 25.9401 52.7184 24.2391 58.6004C24.2391 58.6004 23.5661 59.4504 23.8491 60.1594C24.1331 60.8684 31.9281 63.3124 38.8731 62.7464C45.8181 62.1784 48.5461 62.5684 53.0461 60.9034C57.5461 59.2384 59.9201 59.2024 59.9201 59.2024C59.9201 59.2024 58.3251 53.3204 58.2551 49.1044C58.1841 44.8874 58.7151 39.9264 58.7151 39.9264C58.7151 39.9264 60.4511 43.0094 61.2311 43.7894C62.0101 44.5684 63.6401 47.2264 64.2431 48.7854C64.8451 50.3444 67.2191 52.5054 67.3961 52.0444C67.5731 51.5834 66.4401 47.2964 69.1331 44.9224C71.8251 42.5484 73.5971 43.8604 71.9671 41.7694C71.9671 41.7694 71.7901 41.4864 72.0031 40.8124Z" fill="#B9D0FF" blush:i="0.3.0.0.9.0"/></g><path id="Fill 137" fill-rule="evenodd" clip-rule="evenodd" d="M29.9648 3.99985C30.4708 3.60785 31.0088 3.25885 31.5808 2.95985C31.8658 2.80885 32.1488 2.63485 32.4738 2.56785C32.7978 2.51585 33.1368 2.47085 33.4718 2.57885L33.4768 2.62885C33.1818 2.80585 32.9028 2.91285 32.6228 3.04585C32.3428 3.16585 32.0378 3.22885 31.7408 3.32585C31.1528 3.53485 30.5678 3.77585 29.9918 4.04285L29.9648 3.99985Z" fill="#5D74E0" blush:i="0.3.0.0.10"/><path id="Fill 139" fill-rule="evenodd" clip-rule="evenodd" d="M30.8633 5.4178C31.2813 5.0728 31.7083 4.7388 32.1433 4.4168C32.3573 4.2518 32.5583 4.0628 32.8033 3.9478C33.0563 3.8458 33.3033 3.7338 33.6043 3.7168L33.6293 3.7598C33.4733 4.0248 33.2633 4.1968 33.0593 4.3778C32.8483 4.5478 32.5923 4.6408 32.3503 4.7598C31.8713 5.0038 31.3843 5.2368 30.8893 5.4598L30.8633 5.4178Z" fill="#5D74E0" blush:i="0.3.0.0.11"/><path id="Fill 141" fill-rule="evenodd" clip-rule="evenodd" d="M31.3789 7.59364C31.7079 7.20064 32.0409 6.81564 32.3759 6.43564C32.5399 6.24164 32.6809 6.02764 32.8799 5.87264C33.0879 5.72564 33.2839 5.57664 33.5489 5.47064L33.5889 5.50064C33.5419 5.79364 33.3819 6.01064 33.2359 6.22464C33.0779 6.43064 32.8549 6.56964 32.6519 6.72564C32.2519 7.04364 31.8379 7.34564 31.4119 7.63064L31.3789 7.59364Z" fill="#5D74E0" blush:i="0.3.0.0.12"/><path id="Fill 143" fill-rule="evenodd" clip-rule="evenodd" d="M34.3426 6.68441C34.0576 7.08241 33.7916 7.49141 33.5436 7.90141C33.4216 8.10941 33.3376 8.33641 33.1856 8.51841C33.0226 8.69641 32.8816 8.88141 32.6476 9.03941L32.6016 9.01841C32.5776 8.73641 32.6666 8.49341 32.7596 8.25641C32.8656 8.02541 33.0516 7.84641 33.2216 7.66341C33.5526 7.29041 33.9146 6.95141 34.3076 6.64941L34.3426 6.68441Z" fill="#5D74E0" blush:i="0.3.0.0.13"/><path id="Fill 145" fill-rule="evenodd" clip-rule="evenodd" d="M33.7344 10.4383C33.8714 9.89234 34.0784 9.36734 34.3294 8.86234C34.4514 8.60734 34.5584 8.33734 34.7504 8.12534C34.9484 7.92034 35.1534 7.71934 35.4394 7.59534L35.4784 7.62734C35.4144 7.93334 35.2764 8.16634 35.1584 8.41534C35.0284 8.65334 34.8364 8.84834 34.6714 9.06834C34.3554 9.51034 34.0494 9.97034 33.7814 10.4553L33.7344 10.4383Z" fill="#5D74E0" blush:i="0.3.0.0.14"/><path id="Fill 147" fill-rule="evenodd" clip-rule="evenodd" d="M36.3802 8.61213C36.2772 9.14513 36.1562 9.67413 36.0152 10.1981C35.9492 10.4621 35.9082 10.7351 35.7782 10.9781C35.6362 11.2131 35.5032 11.4641 35.2442 11.6401L35.2012 11.6151C35.1992 11.3181 35.2562 11.0631 35.3132 10.7981C35.3782 10.5381 35.5222 10.3051 35.6392 10.0621C35.8622 9.57313 36.0932 9.08313 36.3332 8.59613L36.3802 8.61213Z" fill="#5D74E0" blush:i="0.3.0.0.15"/><path id="Fill 149" fill-rule="evenodd" clip-rule="evenodd" d="M37.3735 9.36209C37.3975 9.91109 37.3995 10.4601 37.3725 11.0091C37.3635 11.2851 37.3795 11.5661 37.2975 11.8361C37.1975 12.0931 37.1195 12.3891 36.8485 12.5881L36.8085 12.5571C36.7985 12.2751 36.7955 12.0171 36.8055 11.7461C36.8205 11.4801 36.9145 11.2221 36.9765 10.9581L37.3235 9.35809L37.3735 9.36209Z" fill="#5D74E0" blush:i="0.3.0.0.16"/><path id="Fill 151" fill-rule="evenodd" clip-rule="evenodd" d="M38.8864 9.784C38.9674 10.313 39.0244 10.844 39.0524 11.378C39.0714 11.644 39.1144 11.915 39.0614 12.181C38.9954 12.445 38.9344 12.717 38.7444 12.955L38.6954 12.946C38.6014 12.664 38.5884 12.408 38.5634 12.144C38.5494 11.885 38.6174 11.627 38.6524 11.365L38.8364 9.786L38.8864 9.784Z" fill="#5D74E0" blush:i="0.3.0.0.17"/><path id="Fill 153" fill-rule="evenodd" clip-rule="evenodd" d="M40.0192 10.0672C40.1302 10.6132 40.2282 11.1592 40.3112 11.7062C40.3582 11.9792 40.4342 12.2502 40.4202 12.5272C40.3942 12.8062 40.3782 13.0852 40.2552 13.3742L40.2062 13.3782C40.0432 13.1152 39.9872 12.8422 39.9222 12.5702C39.8702 12.2962 39.9062 12.0162 39.9132 11.7382C39.9172 11.1822 39.9362 10.6272 39.9692 10.0702L40.0192 10.0672Z" fill="#5D74E0" blush:i="0.3.0.0.18"/><path id="Fill 155" fill-rule="evenodd" clip-rule="evenodd" d="M41.4833 10.1102C41.6703 10.5862 41.8483 11.0632 42.0193 11.5402C42.1093 11.7772 42.2273 12.0062 42.2653 12.2552C42.2923 12.5082 42.3233 12.7532 42.2853 13.0352L42.2393 13.0552C42.0063 12.8692 41.9003 12.6242 41.7843 12.3922C41.6813 12.1552 41.6703 11.8932 41.6313 11.6412C41.5463 11.1372 41.4813 10.6312 41.4353 10.1222L41.4833 10.1102Z" fill="#5D74E0" blush:i="0.3.0.0.19"/><path id="Fill 157" fill-rule="evenodd" clip-rule="evenodd" d="M43.7032 9.96375C43.9742 10.3907 44.2332 10.8247 44.4792 11.2677C44.6072 11.4857 44.7622 11.6947 44.8342 11.9377C44.8952 12.1837 44.9642 12.4267 44.9322 12.7057L44.8862 12.7237C44.6492 12.5457 44.5142 12.3317 44.3702 12.1207C44.2372 11.9057 44.1872 11.6587 44.1102 11.4207C43.9472 10.9497 43.7972 10.4717 43.6582 9.98475L43.7032 9.96375Z" fill="#5D74E0" blush:i="0.3.0.0.20"/><path id="Fill 159" fill-rule="evenodd" clip-rule="evenodd" d="M45.3535 9.15613L46.4105 10.2961C46.5885 10.4821 46.7895 10.6491 46.9255 10.8631C47.0575 11.0861 47.1825 11.2961 47.2845 11.5591L47.2555 11.6001C46.9525 11.5441 46.7465 11.3511 46.5425 11.1831C46.3475 11.0031 46.2305 10.7611 46.0935 10.5401C45.8115 10.1001 45.5525 9.64813 45.3125 9.18513L45.3535 9.15613Z" fill="#5D74E0" blush:i="0.3.0.0.21"/><path id="Fill 161" fill-rule="evenodd" clip-rule="evenodd" d="M46.4343 8.06329C46.8632 8.26829 47.2882 8.47729 47.7062 8.68929C47.9192 8.79129 48.1453 8.86429 48.3283 9.00929C48.5073 9.16529 48.6822 9.30629 48.8382 9.52529L48.8203 9.57229C48.5413 9.61229 48.3063 9.52029 48.0773 9.44129C47.8532 9.34829 47.6793 9.17629 47.4933 9.02829C47.1173 8.73729 46.7542 8.42929 46.4062 8.10529L46.4343 8.06329Z" fill="#5D74E0" blush:i="0.3.0.0.22"/><path id="Fill 163" fill-rule="evenodd" clip-rule="evenodd" d="M47.0475 6.36212C47.4785 6.53612 47.9015 6.72212 48.3175 6.92012C48.5275 7.01412 48.7515 7.08412 48.9315 7.23012C49.1055 7.38712 49.2835 7.53712 49.4095 7.77912L49.3845 7.82212C49.1165 7.82912 48.9015 7.74212 48.6805 7.66312C48.4665 7.57312 48.2975 7.40612 48.1145 7.26412C47.7425 6.99012 47.3785 6.70312 47.0215 6.40512L47.0475 6.36212Z" fill="#5D74E0" blush:i="0.3.0.0.23"/><path id="Fill 165" fill-rule="evenodd" clip-rule="evenodd" d="M47.1422 4.5672C47.5572 4.7412 47.9672 4.9282 48.3712 5.1292C48.5752 5.2242 48.7962 5.2962 48.9682 5.4432C49.1332 5.5992 49.3032 5.7492 49.4112 5.9852L49.3832 6.0262C49.1132 6.0262 48.9052 5.9392 48.6922 5.8592C48.4862 5.7692 48.3292 5.6052 48.1552 5.4652C47.8032 5.1932 47.4572 4.9082 47.1172 4.6102L47.1422 4.5672Z" fill="#5D74E0" blush:i="0.3.0.0.24"/><path id="Fill 167" fill-rule="evenodd" clip-rule="evenodd" d="M17.4824 34.3992C17.5084 33.4722 17.6554 32.5512 17.8904 31.6492C18.1214 30.7472 18.4624 29.8552 19.0164 29.0602C19.6054 28.3062 20.1824 27.6272 20.7954 26.9302C21.4044 26.2412 22.0194 25.5552 22.6794 24.9032C22.1834 25.6832 21.6424 26.4302 21.0944 27.1722C20.5594 27.9152 19.9574 28.6492 19.4224 29.3532C18.9114 30.0642 18.5654 30.9102 18.2554 31.7612C17.9514 32.6182 17.7114 33.5032 17.4824 34.3992" fill="#5D74E0" blush:i="0.3.0.0.25"/><path id="Fill 169" fill-rule="evenodd" clip-rule="evenodd" d="M26.2937 25.116C24.7327 26.372 23.1918 27.622 21.7288 28.958C20.2648 30.295 18.8848 31.705 17.7188 33.337C18.1267 32.418 18.6948 31.575 19.3168 30.782C19.9448 29.992 20.6568 29.275 21.3918 28.589C22.1398 27.916 22.9187 27.28 23.7397 26.702C24.5587 26.122 25.3987 25.573 26.2937 25.116" fill="#5D74E0" blush:i="0.3.0.0.26"/><path id="Fill 171" fill-rule="evenodd" clip-rule="evenodd" d="M4.75 37.9422C5.404 37.5392 6.227 37.4012 7.014 37.5272C7.411 37.5832 7.79 37.7272 8.151 37.9002C8.506 38.0972 8.818 38.3142 9.129 38.5392C9.744 38.9962 10.332 39.4842 10.883 40.0112C11.436 40.5362 11.971 41.0792 12.451 41.6742C11.212 40.7822 10.045 39.8272 8.833 38.9422C8.229 38.4772 7.641 38.0882 6.936 37.9022C6.242 37.7152 5.48 37.7322 4.75 37.9422" fill="#5D74E0" blush:i="0.3.0.0.27"/><path id="Fill 173" fill-rule="evenodd" clip-rule="evenodd" d="M10.6094 41.0135C11.0064 41.2845 11.3314 41.6245 11.6564 41.9655C11.9524 42.3275 12.2854 42.6785 12.4514 43.1395C12.2974 42.9595 12.1164 42.8105 11.9554 42.6405L11.4714 42.1325C11.1694 41.7745 10.8564 41.4255 10.6094 41.0135" fill="#5D74E0" blush:i="0.3.0.0.28"/><path id="Fill 175" fill-rule="evenodd" clip-rule="evenodd" d="M7.91602 42.8084C8.58202 43.1374 9.20502 43.5234 9.84602 43.8774C10.158 44.0694 10.479 44.2424 10.798 44.4194C11.12 44.5924 11.438 44.7704 11.79 44.8874C11.036 44.8234 10.369 44.4364 9.72102 44.0944C9.08802 43.7104 8.46702 43.3084 7.91602 42.8084" fill="#5D74E0" blush:i="0.3.0.0.29"/><path id="Fill 177" fill-rule="evenodd" clip-rule="evenodd" d="M8.15186 45.3123C6.78086 45.2023 5.41286 45.0373 4.04586 44.8633C3.35986 44.7863 2.68086 44.6733 1.99886 44.5783C1.90686 44.5613 1.84186 44.5613 1.72886 44.5323C1.67286 44.5163 1.58886 44.4903 1.50386 44.3963C1.38786 44.2733 1.44386 44.0573 1.49486 44.0073C1.70286 43.7563 1.86786 43.7363 2.04886 43.6523C2.40186 43.5283 2.75786 43.4643 3.11386 43.4293C4.54086 43.3353 5.94586 43.6413 7.23386 44.1693C8.52386 44.7053 9.70286 45.4583 10.7509 46.3523C9.58186 45.6273 8.37586 44.9733 7.09686 44.5293C5.82486 44.0893 4.47786 43.8013 3.15786 43.9263C2.83086 43.9513 2.50486 44.0043 2.20786 44.1013C2.07486 44.1413 1.89486 44.2413 1.88586 44.2603C1.88086 44.2763 1.92486 44.1613 1.86386 44.1063C1.83786 44.0753 1.83386 44.0853 1.86086 44.0913C1.91286 44.1063 2.02086 44.1203 2.09786 44.1343C2.77186 44.2503 3.44886 44.3513 4.11986 44.4873C5.46486 44.7383 6.81086 44.9983 8.15186 45.3123" fill="#5D74E0" blush:i="0.3.0.0.30"/><path id="Fill 179" fill-rule="evenodd" clip-rule="evenodd" d="M4.13672 45.5487C5.43972 45.5827 6.72872 45.8147 7.99672 46.1097C9.25872 46.4277 10.5057 46.8347 11.6727 47.4147C10.4297 47.0277 9.19872 46.6417 7.93772 46.3517C7.31272 46.1867 6.67872 46.0537 6.04672 45.9197C5.41272 45.7897 4.77772 45.6587 4.13672 45.5487" fill="#5D74E0" blush:i="0.3.0.0.31"/><path id="Fill 181" fill-rule="evenodd" clip-rule="evenodd" d="M1.13556 46.161C1.29256 46.855 1.43556 47.55 1.56556 48.244C1.63456 48.591 1.73256 48.932 1.74256 49.287C1.73956 49.645 1.74756 50.001 1.64856 50.378L1.59956 50.387C1.41556 50.06 1.33756 49.714 1.24956 49.369C1.17456 49.021 1.18556 48.659 1.16956 48.303C1.12756 47.591 1.09956 46.879 1.08556 46.167L1.13556 46.161Z" fill="#5D74E0" blush:i="0.3.0.0.32"/><path id="Fill 183" fill-rule="evenodd" clip-rule="evenodd" d="M2.18883 45.9178C2.34283 46.5458 2.48483 47.1748 2.61783 47.8048C2.68883 48.1178 2.78983 48.4278 2.80583 48.7478C2.81183 49.0708 2.81783 49.3908 2.75583 49.7258L2.70883 49.7408C2.48683 49.4538 2.40783 49.1348 2.31183 48.8238C2.22983 48.5088 2.23883 48.1828 2.22183 47.8588C2.17583 47.2158 2.14983 46.5708 2.13983 45.9238L2.18883 45.9178Z" fill="#5D74E0" blush:i="0.3.0.0.33"/><path id="Fill 185" fill-rule="evenodd" clip-rule="evenodd" d="M3.4054 45.9969C3.6024 46.5489 3.7854 47.1039 3.9554 47.6639C4.0444 47.9419 4.1624 48.2159 4.1934 48.5069C4.2124 48.8009 4.2394 49.0919 4.1624 49.4039L4.1134 49.4139C3.9094 49.1579 3.8114 48.8819 3.7034 48.6069C3.6094 48.3309 3.6004 48.0359 3.5634 47.7469C3.4814 47.1709 3.4124 46.5909 3.3564 46.0079L3.4054 45.9969Z" fill="#5D74E0" blush:i="0.3.0.0.34"/><path id="Fill 187" fill-rule="evenodd" clip-rule="evenodd" d="M5.24514 46.2684C5.38914 46.7724 5.51814 47.2774 5.63514 47.7844C5.69714 48.0364 5.78814 48.2844 5.79214 48.5444C5.78314 48.8084 5.78314 49.0704 5.67814 49.3504L5.62814 49.3594C5.45114 49.1254 5.37914 48.8734 5.29814 48.6234C5.22914 48.3714 5.24814 48.1054 5.23914 47.8434C5.21114 47.3224 5.19614 46.7994 5.19614 46.2764L5.24514 46.2684Z" fill="#5D74E0" blush:i="0.3.0.0.35"/><path id="Fill 189" fill-rule="evenodd" clip-rule="evenodd" d="M7.00242 46.5672C7.12442 47.0782 7.23142 47.5942 7.32642 48.1142C7.37742 48.3732 7.45842 48.6322 7.45042 48.8952C7.42942 49.1582 7.41842 49.4202 7.30042 49.6792H7.25042C7.08242 49.4212 7.02142 49.1652 6.95042 48.9092C6.89342 48.6532 6.92442 48.3942 6.92642 48.1352C6.92142 47.6182 6.93042 47.0982 6.95242 46.5722L7.00242 46.5672Z" fill="#5D74E0" blush:i="0.3.0.0.36"/><path id="Fill 191" fill-rule="evenodd" clip-rule="evenodd" d="M8.84063 47.3231C8.99263 47.8501 9.13263 48.3791 9.26163 48.9081C9.33163 49.1731 9.42963 49.4311 9.44263 49.7031C9.44563 49.9751 9.44763 50.2551 9.37763 50.5321L9.33563 50.5571C9.11363 50.3121 9.04563 50.0501 8.94963 49.7871C8.87163 49.5231 8.88263 49.2451 8.86663 48.9711C8.82463 48.4271 8.79963 47.8801 8.79063 47.3311L8.84063 47.3231Z" fill="#5D74E0" blush:i="0.3.0.0.37"/><path id="Fill 193" fill-rule="evenodd" clip-rule="evenodd" d="M10.7063 47.6746C10.8543 48.2096 10.9893 48.7516 11.1103 49.2996C11.1763 49.5716 11.2703 49.8456 11.2763 50.1226C11.2683 50.4006 11.2713 50.6766 11.1663 50.9496H11.1163C10.9353 50.6786 10.8603 50.4096 10.7763 50.1416C10.7053 49.8736 10.7233 49.6026 10.7113 49.3296C10.6803 48.7856 10.6623 48.2376 10.6573 47.6826L10.7063 47.6746Z" fill="#5D74E0" blush:i="0.3.0.0.38"/><path id="Fill 195" fill-rule="evenodd" clip-rule="evenodd" d="M36.1445 57.2889C37.3615 56.8119 38.6175 56.4479 39.8815 56.1229C41.1465 55.7959 42.4305 55.5519 43.7165 55.3229C46.2965 54.9239 48.9135 54.6829 51.5225 54.8089C50.2255 54.9609 48.9325 55.0739 47.6455 55.2519C46.3585 55.4159 45.0735 55.5869 43.7965 55.8159C42.5135 56.0019 41.2405 56.2519 39.9655 56.4969C38.6895 56.7419 37.4195 57.0109 36.1445 57.2889" fill="#5D74E0" blush:i="0.3.0.0.39"/><path id="Fill 197" fill-rule="evenodd" clip-rule="evenodd" d="M35.5059 61.0448C37.0939 60.4308 38.7199 59.9208 40.3559 59.4498C41.9929 58.9788 43.6529 58.5928 45.3209 58.2378C46.9949 57.9198 48.6799 57.6328 50.3839 57.5028C52.0829 57.3758 53.8109 57.3208 55.4899 57.6438C53.7909 57.5288 52.0999 57.6808 50.4229 57.8848C48.7459 58.0928 47.0749 58.3728 45.4189 58.7278C43.7539 59.0388 42.1039 59.4298 40.4529 59.8208C38.8019 60.2128 37.1559 60.6268 35.5059 61.0448" fill="#5D74E0" blush:i="0.3.0.0.40"/><path id="Fill 199" fill-rule="evenodd" clip-rule="evenodd" d="M60.8771 21.5721C61.0131 23.1191 61.0331 24.6751 60.9631 26.2301C60.9181 27.7831 60.6211 29.3551 60.2151 30.8471C59.8011 32.3411 59.3971 33.8291 59.0961 35.3371C58.7871 36.8431 58.6101 38.3781 58.7151 39.9261C58.4021 38.4001 58.4831 36.8081 58.7171 35.2701C58.9441 33.7241 59.3561 32.2191 59.7321 30.7191C59.9341 29.9741 60.1451 29.2291 60.2811 28.4841C60.4211 27.7331 60.4961 26.9681 60.5821 26.2021C60.7301 24.6681 60.8071 23.1221 60.8771 21.5721" fill="#5D74E0" blush:i="0.3.0.0.41"/><path id="Fill 201" fill-rule="evenodd" clip-rule="evenodd" d="M63.498 43.4705C64.21 42.7955 65.009 42.2175 65.859 41.7145C66.288 41.4695 66.73 41.2415 67.204 41.0695C67.675 40.8995 68.169 40.7515 68.702 40.7435C68.838 40.7425 68.95 40.8515 68.951 40.9865C68.953 41.0885 68.889 41.1775 68.801 41.2165C68.103 41.5225 67.417 41.9195 66.769 42.3505C66.123 42.7925 65.525 43.3025 64.986 43.8955C65.376 43.1955 65.929 42.5805 66.553 42.0665C67.173 41.5375 67.858 41.1085 68.612 40.7635L68.711 41.2355C67.816 41.2895 66.91 41.6655 66.051 42.0775C65.18 42.4855 64.344 42.9785 63.498 43.4705" fill="#5D74E0" blush:i="0.3.0.0.42"/><path id="Fill 203" fill-rule="evenodd" clip-rule="evenodd" d="M71.1164 42.0174C70.1814 42.4934 69.3024 42.9884 68.4854 43.5814C68.0704 43.8684 67.6824 44.1884 67.3004 44.5214C66.9104 44.8484 66.5714 45.2274 66.1914 45.5964C66.5994 44.6244 67.3304 43.7884 68.1954 43.1754C69.0624 42.5674 70.0624 42.1204 71.1164 42.0174" fill="#5D74E0" blush:i="0.3.0.0.43"/><path id="Fill 205" fill-rule="evenodd" clip-rule="evenodd" d="M64.738 48.1415C65.06 48.6935 65.392 49.2395 65.736 49.7745L66.268 50.5605C66.436 50.8275 66.593 51.0955 66.811 51.3255C66.817 51.3295 66.819 51.3365 66.815 51.3425C66.812 51.3475 66.804 51.3485 66.8 51.3475C66.481 51.2235 66.27 50.9475 66.063 50.7045C65.873 50.4415 65.712 50.1625 65.564 49.8765C65.255 49.3135 64.974 48.7385 64.716 48.1535C64.713 48.1465 64.716 48.1395 64.722 48.1365C64.728 48.1335 64.735 48.1365 64.738 48.1415" fill="#5D74E0" blush:i="0.3.0.0.44"/><path id="Fill 207" fill-rule="evenodd" clip-rule="evenodd" d="M65.0924 47.5496C65.3904 47.8856 65.6924 48.2166 65.9994 48.5396C66.1604 48.6946 66.3144 48.8546 66.4664 49.0126C66.6094 49.1816 66.7454 49.3466 66.9054 49.5056C66.9114 49.5096 66.9134 49.5186 66.9094 49.5246C66.9064 49.5276 66.9004 49.5286 66.8964 49.5286C66.6534 49.4886 66.4664 49.3296 66.2894 49.1896C66.1244 49.0296 65.9804 48.8546 65.8474 48.6706C65.5704 48.3146 65.3134 47.9446 65.0724 47.5646C65.0684 47.5586 65.0704 47.5506 65.0764 47.5466C65.0814 47.5436 65.0884 47.5446 65.0924 47.5496" fill="#5D74E0" blush:i="0.3.0.0.45"/><path id="Fill 209" fill-rule="evenodd" clip-rule="evenodd" d="M66.0619 46.7489C66.2089 46.9829 66.3699 47.2069 66.5399 47.4159C66.7369 47.6119 66.8869 47.8019 67.0259 48.0659C67.0299 48.0729 67.0279 48.0809 67.0209 48.0849C67.0189 48.0869 67.0149 48.0869 67.0119 48.0869C66.7039 48.0249 66.4949 47.7859 66.3759 47.5299C66.2339 47.2839 66.1219 47.0259 66.0389 46.7589C66.0369 46.7519 66.0409 46.7449 66.0469 46.7429C66.0529 46.7409 66.0589 46.7439 66.0619 46.7489" fill="#5D74E0" blush:i="0.3.0.0.46"/><path id="Fill 211" fill-rule="evenodd" clip-rule="evenodd" d="M66.817 46.1092L67.205 46.5662C67.359 46.7022 67.444 46.8702 67.495 47.0722L67.498 47.0832C67.499 47.0882 67.496 47.0942 67.49 47.0952C67.489 47.0962 67.488 47.0962 67.487 47.0962C67.346 47.0932 67.269 47.0052 67.19 46.9412C67.126 46.8602 67.075 46.7722 67.038 46.6762C66.946 46.4972 66.866 46.3112 66.796 46.1222C66.793 46.1162 66.796 46.1082 66.803 46.1062C66.808 46.1042 66.814 46.1052 66.817 46.1092" fill="#5D74E0" blush:i="0.3.0.0.47"/><path id="Fill 213" fill-rule="evenodd" clip-rule="evenodd" d="M67.0277 45.2099L67.5057 45.6379C67.6867 45.7599 67.8057 45.9219 67.8957 46.1279L67.8987 46.1349C67.9017 46.1409 67.8987 46.1469 67.8927 46.1499C67.8917 46.1509 67.8897 46.1509 67.8887 46.1509C67.7457 46.1609 67.6517 46.0829 67.5587 46.0249C67.4787 45.9499 67.4117 45.8639 67.3567 45.7709C67.2307 45.5959 67.1147 45.4139 67.0077 45.2269C67.0047 45.2199 67.0067 45.2119 67.0127 45.2089C67.0177 45.2059 67.0237 45.2069 67.0277 45.2099" fill="#5D74E0" blush:i="0.3.0.0.48"/><path id="Fill 215" fill-rule="evenodd" clip-rule="evenodd" d="M67.737 44.7616C67.873 44.8666 68 44.9816 68.117 45.1086C68.254 45.2166 68.355 45.3776 68.306 45.5906C68.304 45.5996 68.296 45.6046 68.287 45.6026C68.286 45.6026 68.284 45.6016 68.283 45.6016C68.097 45.5076 68.012 45.3886 67.955 45.2236L67.718 44.7776C67.715 44.7716 67.717 44.7636 67.723 44.7606C67.728 44.7576 67.733 44.7586 67.737 44.7616" fill="#5D74E0" blush:i="0.3.0.0.49"/><path id="Fill 217" fill-rule="evenodd" clip-rule="evenodd" d="M68.988 43.8856C69.097 43.9386 69.199 44.0026 69.294 44.0756C69.407 44.1316 69.486 44.2386 69.439 44.4076C69.436 44.4176 69.427 44.4226 69.418 44.4216C69.247 44.3996 69.182 44.3246 69.144 44.2086L68.971 43.9046C68.967 43.8986 68.969 43.8906 68.976 43.8866C68.979 43.8846 68.984 43.8846 68.988 43.8856" fill="#5D74E0" blush:i="0.3.0.0.50"/><path id="Fill 219" fill-rule="evenodd" clip-rule="evenodd" d="M70.0984 43.1307C70.2244 43.2077 70.3444 43.2927 70.4574 43.3887C70.5844 43.4657 70.6914 43.5957 70.6444 43.7957C70.6414 43.8037 70.6334 43.8097 70.6254 43.8077L70.6214 43.8057C70.4464 43.7477 70.3614 43.6607 70.3064 43.5197L70.0804 43.1487C70.0774 43.1427 70.0784 43.1347 70.0844 43.1307C70.0894 43.1277 70.0944 43.1277 70.0984 43.1307" fill="#5D74E0" blush:i="0.3.0.0.51"/><path id="Fill 221" fill-rule="evenodd" clip-rule="evenodd" d="M71.0673 42.4227C71.2033 42.5327 71.3323 42.6517 71.4513 42.7797C71.5853 42.8907 71.7073 43.0517 71.6363 43.2787C71.6343 43.2857 71.6283 43.2897 71.6213 43.2877C71.6203 43.2877 71.6193 43.2867 71.6183 43.2867L71.6123 43.2827C71.4463 43.1797 71.3463 43.0677 71.2893 42.8967L71.0473 42.4387C71.0443 42.4327 71.0463 42.4247 71.0533 42.4217C71.0583 42.4187 71.0633 42.4197 71.0673 42.4227" fill="#5D74E0" blush:i="0.3.0.0.52"/></g></g></g><g id="Male Character/Accesories" blush:component="Male Character/Accesories" blush:defaultValue="Shades 2" blush:width="34" blush:height="36" transform="translate(108 70) scale(1 1)" blush:i="0.4" blush:value="Shades 2" blush:viewBox="5.834745762711865 15.479999999999997 21.970338983050844 5.940000000000005"><g id="Male Character/Accesories/Shades 2" blush:viewBox="5.834745762711865 15.479999999999997 21.970338983050844 5.940000000000005" blush:i="0.4.0"><g id="Accesories" blush:i="0.4.0.0"><path id="Rectangle" fill-rule="evenodd" clip-rule="evenodd" d="M13.0977 15.625H18.0977C18.857 15.625 19.4727 16.2406 19.4727 17V20C19.4727 20.7594 18.857 21.375 18.0977 21.375H13.0977C12.3383 21.375 11.7227 20.7594 11.7227 20V17C11.7227 16.2406 12.3383 15.625 13.0977 15.625ZM18.0977 16.375H13.0977C12.7525 16.375 12.4727 16.6548 12.4727 17V20C12.4727 20.3452 12.7525 20.625 13.0977 20.625H18.0977C18.4428 20.625 18.7227 20.3452 18.7227 20V17C18.7227 16.6548 18.4428 16.375 18.0977 16.375Z" fill="#1E2214" blush:i="0.4.0.0.0"/><path id="Rectangle Copy" fill-rule="evenodd" clip-rule="evenodd" d="M22.375 15.625H26.375C27.1344 15.625 27.75 16.2406 27.75 17V20C27.75 20.7594 27.1344 21.375 26.375 21.375H22.375C21.6156 21.375 21 20.7594 21 20V17C21 16.2406 21.6156 15.625 22.375 15.625ZM26.375 16.375H22.375C22.0298 16.375 21.75 16.6548 21.75 17V20C21.75 20.3452 22.0298 20.625 22.375 20.625H26.375C26.7202 20.625 27 20.3452 27 20V17C27 16.6548 26.7202 16.375 26.375 16.375Z" fill="#1E2214" blush:i="0.4.0.0.1"/><path id="Path 2" fill-rule="evenodd" clip-rule="evenodd" d="M19.0819 18.0113C19.0819 18.0113 20.4884 17.4437 21.0819 18.0113L21.5475 16.0113H18.9014L19.0819 18.0113Z" fill="#1E2214" blush:i="0.4.0.0.2"/><path id="Path 3" fill-rule="evenodd" clip-rule="evenodd" d="M12.3993 18.0903L6 17.532L6 17L12.3993 16.1693V18.0903Z" fill="#1E2214" blush:i="0.4.0.0.3"/></g><rect id="Rectangle_2" x="12" y="16" width="7" height="5" rx="1" fill="#1E2214" blush:i="0.4.0.1"/><rect id="Rectangle Copy 2" x="21.2773" y="16" width="6" height="5" rx="1" fill="#1E2214" blush:i="0.4.0.2"/></g></g></g></svg>