<svg viewBox="57.587500000000034 69.85372340425533 135.49999999999997 186.5026595744681" fill="none" xmlns="http://www.w3.org/2000/svg" xmlns:xlink="http://www.w3.org/1999/xlink" xmlns:blush="http://design.blush" overflow="visible" width="135.49999999999997px" height="186.5026595744681px"><g id="Master/Male Character/Sitting Wheelchair" blush:has-customizable-colors="true" blush:viewBox="50.13499999999999 69.17553191489361 144.98499999999999 188.53723404255314" blush:i="0"><g id="Male Character/Head" blush:component="Male Character/Head" blush:defaultValue="Fade 1" blush:width="28" blush:height="48" transform="translate(110 70) scale(1 1)" blush:i="0.0" blush:value="Fade 1" blush:viewBox="0.09589041095890138 0 23.493150684931507 47.51999999999999"><g id="Male Character/Head/Fade 1" blush:viewBox="0.09589041095890138 0 23.493150684931507 47.51999999999999" blush:i="0.0.0"><g id="Head" blush:i="0.0.0.0"><path id="Fill 22" fill-rule="evenodd" clip-rule="evenodd" d="M6.60041 24.8188C6.60041 24.8188 7.89241 34.5038 1.23041 37.9608C1.23041 37.9608 0.776414 47.3828 13.9104 47.3828C27.0444 47.3828 20.3484 38.6928 20.3484 38.6928C20.3484 38.6928 15.9074 35.2788 17.0414 31.0768C18.1754 26.8758 13.9234 16.4158 6.60041 24.8188" fill="#ffc280" blush:color="Skin-500" blush:i="0.0.0.0.0"/><path id="Fill 24" fill-rule="evenodd" clip-rule="evenodd" d="M2.58125 16.4257C2.07425 16.1337 1.62925 16.1337 1.12025 16.3307C-0.580748 16.9927 0.316252 19.1187 1.21425 20.4417C2.11225 21.7637 2.39525 24.5047 5.18325 23.8897C5.18325 23.8897 5.32425 25.7327 6.55325 27.0557C7.78125 28.3787 13.3093 32.2527 14.8683 32.5827C16.4273 32.9137 18.5053 33.4337 20.0643 32.6307C20.0643 32.6307 20.9623 31.6857 21.5293 29.7007C22.0963 27.7167 22.5213 27.3387 22.7103 25.5437C22.8993 23.7487 23.8913 19.7327 23.4193 17.8897C22.9463 16.0477 25.9583 2.0117 12.2813 2.3867C-1.79575 2.7727 2.66025 16.4707 2.58125 16.4257" fill="#ffc280" blush:color="Skin-500" blush:i="0.0.0.0.1"/><path id="Fill 28" fill-rule="evenodd" clip-rule="evenodd" d="M2.19947 19.0522C2.19947 19.0522 2.02647 18.8522 2.03247 19.1722C2.03947 19.4922 1.95947 19.6662 1.86647 19.6392C1.77247 19.6132 1.33247 18.8452 1.99247 18.4852C2.65347 18.1252 3.01347 18.8392 3.48747 19.7262C3.96047 20.6132 3.78047 21.8732 3.32047 21.9202C2.86047 21.9672 2.99347 21.6472 3.03947 21.0072C3.08647 20.3662 2.43947 19.1852 2.19947 19.0522" fill="black" blush:i="0.0.0.0.2"/><path id="Fill 42" fill-rule="evenodd" clip-rule="evenodd" d="M10.8242 14.6127C10.8242 14.6127 11.1252 14.4357 11.8522 14.4177C12.5782 14.3997 15.5372 14.6477 15.5902 14.5417C15.6432 14.4357 15.5372 13.8507 15.5372 13.8507C15.5372 13.8507 15.0412 13.7797 15.0582 13.7087C15.0762 13.6377 15.6432 13.3367 15.6432 13.2657C15.6432 13.1957 11.8162 12.2567 10.8242 14.6127" fill="black" blush:i="0.0.0.0.3"/><path id="Fill 44" fill-rule="evenodd" clip-rule="evenodd" d="M23.4027 14.3647C23.4027 14.3647 22.0387 14.2937 21.4187 14.4887C20.7987 14.6837 20.4967 14.7367 20.4437 14.6477C20.3907 14.5597 20.6387 14.2407 20.9047 14.0987C21.1707 13.9567 20.6387 13.7447 21.2057 13.4967C21.7727 13.2487 23.1727 13.3547 23.3667 13.7617L23.4027 14.3647Z" fill="black" blush:i="0.0.0.0.4"/><path id="Fill 46" fill-rule="evenodd" clip-rule="evenodd" d="M11.5508 18.1025C11.5508 18.1025 13.0568 18.0315 13.8718 18.2265C14.6868 18.4215 15.7318 18.2085 15.7318 18.2085C15.7318 18.2085 14.9518 17.1635 13.9428 17.1635C12.9328 17.1635 11.9408 17.5715 11.5508 18.1025" fill="black" blush:i="0.0.0.0.5"/><path id="Fill 48" fill-rule="evenodd" clip-rule="evenodd" d="M20.4268 18.3862C20.4268 18.3862 22.1458 17.9072 22.9778 18.0322C22.9778 18.0322 23.1728 17.7662 23.0848 17.5892C22.9958 17.4112 22.3578 17.0042 21.6848 17.1992C21.0108 17.3942 20.5868 17.9432 20.4268 18.3862" fill="black" blush:i="0.0.0.0.6"/><path id="Fill 50" fill-rule="evenodd" clip-rule="evenodd" d="M17.6632 23.7187C17.6632 23.7187 18.1942 23.7547 18.5132 23.5947C18.8322 23.4357 20.2322 23.3647 20.2322 23.3647C20.2322 23.3647 19.3462 24.1087 18.9212 24.1267C18.4962 24.1437 17.5742 23.9487 17.6632 23.7187" fill="black" blush:i="0.0.0.0.7"/><path id="Fill 52" fill-rule="evenodd" clip-rule="evenodd" d="M15.1824 26.2524C15.1824 26.2524 17.5744 27.4574 20.0904 26.3764C20.0904 26.3764 20.4794 26.1814 20.4794 26.5004C20.4794 26.8194 19.4164 27.3684 17.7694 27.3864C16.1214 27.4034 14.9344 26.9254 14.6864 26.5004C14.4384 26.0754 15.1824 26.2524 15.1824 26.2524" fill="black" blush:i="0.0.0.0.8"/><path id="Path 10" opacity="0.35" fill-rule="evenodd" clip-rule="evenodd" d="M9.30467 7.35502C9.30467 7.35502 10.1819 13.0227 8.01845 13.0227C5.85501 13.0227 6.12223 19.8939 6.12223 19.8939C6.12223 19.8939 4.68542 19.8069 4.68542 19.1987C4.68542 18.5905 4.35726 16.9023 2.88503 16.5874C1.41281 16.2725 1.92796 7.01983 3.09987 7.01983C4.27177 7.01983 7.29893 6.66908 9.30467 7.35502Z" fill="#625252" blush:i="0.0.0.0.9"/><path id="Fill 26" fill-rule="evenodd" clip-rule="evenodd" d="M9.30511 7.35502C9.71532 4.74865 14.5 6.8618 18.127 6.94332C20.456 6.99566 20.729 4.67632 22.3047 7.79409C22.3047 7.79409 23.1646 6.73142 22.8158 3.96065C22.528 1.67444 19.6593 0 15.7317 0C14.3045 0.0446377 9.30511 0.650958 10.1403 0.827099C12.4916 1.32298 8.21962 2.51126 5.84592 2.88741C2.92925 3.3496 2.00049 6.94332 2.70092 7.35502C2.70092 7.35502 4.01936 6.95056 5.48565 6.94332C7.28677 6.93442 9.30511 7.32469 9.30511 7.35502Z" fill="#110b05" blush:color="Hair-500" blush:i="0.0.0.0.10"/></g></g></g><g id="Facial Hair" blush:component="Facial Hair" blush:defaultValue="None" blush:width="19" blush:height="14" transform="translate(115 90) scale(19 14)" blush:i="0.1" blush:value="None" blush:viewBox="1.75 1.75 0 0"><g id="Facial Hair/None" stroke="none" stroke-width="1" fill="none" fill-rule="evenodd" fill-opacity="0" blush:viewBox="1.75 1.75 0 0" blush:i="0.1.0"/></g><g id="Male Character Sitting Wheelchair/Lower Body" blush:component="Male Character Sitting Wheelchair/Lower Body" blush:defaultValue="Jeans 1" blush:width="144" blush:height="148" transform="translate(51 109) scale(1 1)" blush:i="0.2" blush:value="Jeans 1" blush:viewBox="9.777777777777786 6.659999999999997 131.85185185185185 138.37999999999997"><g id="Male Character Sitting Wheelchair/Lower Body/Jeans 1" blush:viewBox="9.777777777777786 6.659999999999997 131.85185185185185 138.37999999999997" blush:i="0.2.0"><g id="Back Wheelchair" blush:i="0.2.0.0"><g id="Group 3" blush:i="0.2.0.0.0"><path id="Fill 1" fill-rule="evenodd" clip-rule="evenodd" d="M124.856 116.851L93.7248 132.054C93.7248 132.054 92.4929 133.402 94.0871 135.005C95.6811 136.605 110.756 144.738 110.756 144.738C110.756 144.738 111.872 145.699 114.1 144.327C116.328 142.955 140.445 129.611 140.445 129.611C140.445 129.611 141.713 128.558 141.225 127.021C140.736 125.483 124.856 116.851 124.856 116.851" fill="#2E2E2E" blush:i="0.2.0.0.0.0"/></g><path id="Fill 4" fill-rule="evenodd" clip-rule="evenodd" d="M115.321 80.5637L115.072 79.5948L81.9549 88.1062L108.755 65.823L108.116 65.0542L81.5001 87.1838L97.8462 55.5459L96.9576 55.0867L80.6072 86.7312L83.3561 50.4498L82.3594 50.3737L79.6178 86.5666L68.4709 52.0145L67.5184 52.3229L78.6213 86.7383L56.315 59.135L55.5378 59.7634L78.0616 87.6362L47.0683 71.8386L46.6155 72.7294L76.8552 88.142L43.9095 82.8154L43.7487 83.8033L77.4798 89.2572L44.5254 97.7274L44.7743 98.6963L77.8918 90.1839L51.0908 112.468L51.7304 113.238L78.3467 91.1073L62.0006 122.745L62.8893 123.205L79.2385 91.56L76.4896 127.841L77.4875 127.918L80.2298 91.7234L91.3759 126.277L92.3285 125.969L81.2251 91.5498L103.533 119.156L104.309 118.528L81.7863 90.6558L112.777 106.453L113.231 105.563L82.9903 90.1472L115.938 95.4756L116.098 94.4878L82.368 89.0338L115.321 80.5637Z" fill="#A1A1A1" blush:i="0.2.0.0.1"/><path id="Fill 6" fill-rule="evenodd" clip-rule="evenodd" d="M75.5029 47.309C53.9041 49.961 38.6231 70.7775 41.4392 93.7132C44.2552 116.648 64.1183 133.149 85.7171 130.497C107.317 127.845 122.598 107.029 119.782 84.0939C116.966 61.1582 97.1027 44.6569 75.5029 47.309M75.8075 49.7904C96.0386 47.3063 114.652 62.8316 117.301 84.3986C119.949 105.966 105.643 125.532 85.4124 128.016C65.1814 130.5 46.5687 114.976 43.9206 93.4085C41.2725 71.8415 55.5765 52.2744 75.8075 49.7904" fill="#2E2E2E" blush:i="0.2.0.0.2"/><path id="Fill 8" fill-rule="evenodd" clip-rule="evenodd" d="M75.808 49.7904C55.4985 52.2841 41.129 71.8592 43.7771 93.4262C46.4252 114.993 65.1034 130.51 85.4129 128.016C105.723 125.522 120.094 105.948 117.446 84.3808C114.798 62.8138 96.1185 47.2966 75.808 49.7904M76.0945 52.1238C95.1186 49.788 112.622 64.3866 115.112 84.6673C117.602 104.947 104.151 123.347 85.1264 125.682C66.1022 128.018 48.6006 113.419 46.1106 93.1397C43.6204 72.859 57.0704 54.4597 76.0945 52.1238" fill="#A1A1A1" blush:i="0.2.0.0.3"/><path id="Fill 10" fill-rule="evenodd" clip-rule="evenodd" d="M122.287 83.6086L75.5642 72.9633L73.1387 53.2086L119.861 63.8549L122.287 83.6086Z" fill="#2E2E2E" blush:i="0.2.0.0.4"/><path id="Fill 12" fill-rule="evenodd" clip-rule="evenodd" d="M77.75 90.7662C76.9282 90.8671 76.1793 90.282 76.0784 89.4602L66.3161 9.95324L59.2939 10.8155C58.4721 10.9164 57.7232 10.3313 57.6223 9.50945C57.5212 8.68663 58.1064 7.93874 58.9283 7.83783L67.4394 6.7928C68.2612 6.69189 69.0099 7.27599 69.111 8.09881L79.056 89.0945C79.1569 89.9164 78.5718 90.6653 77.75 90.7662" fill="#A1A1A1" blush:i="0.2.0.0.5"/><path id="Fill 14" fill-rule="evenodd" clip-rule="evenodd" d="M60.8275 10.6268L53.704 11.5015C52.8822 11.6024 52.1333 11.0173 52.0324 10.1955C51.9314 9.37266 52.5166 8.62477 53.3384 8.52386L60.4619 7.6492C61.2848 7.54817 62.0325 8.1324 62.1336 8.95522C62.2345 9.77704 61.6504 10.5258 60.8275 10.6268" fill="#2E2E2E" blush:i="0.2.0.0.6"/><path id="Fill 16" fill-rule="evenodd" clip-rule="evenodd" d="M126.872 120.963V120.963C126.049 121.064 125.301 120.479 125.201 119.657L118.149 62.225C117.534 57.2167 114.881 50.7578 105.738 48.4378L71.2438 41.6177L71.8255 38.6749L106.398 45.5126C117.832 48.4127 120.53 56.9979 121.126 61.8594L128.178 119.291C128.279 120.113 127.694 120.862 126.872 120.963" fill="#A1A1A1" blush:i="0.2.0.0.7"/><path id="Fill 18" fill-rule="evenodd" clip-rule="evenodd" d="M39.9004 26.8272C39.9004 26.8272 38.0109 27.0784 38.2605 28.6184C38.4296 29.6596 39.4202 29.7264 40.053 29.6618C40.149 31.3214 40.2756 33.2635 40.3886 34.1836C40.688 36.6223 41.6079 41.3 41.9696 43.6797C42.0891 44.464 42.2859 46.075 42.4468 47.4345C41.893 47.6587 40.8196 48.2217 40.9368 49.1765C41.094 50.4569 42.7096 49.7064 42.7096 49.7064L71.0742 40.23L68.265 17.3508L39.9004 26.8272Z" fill="#2E2E2E" blush:i="0.2.0.0.8"/></g><g id="Lower" blush:i="0.2.0.1"><path id="Fill 21" fill-rule="evenodd" clip-rule="evenodd" d="M113.386 117.851C113.386 117.851 113.422 118.843 112.429 120.898C111.437 122.954 111.083 126.993 111.969 127.772C111.969 127.772 111.685 128.162 111.544 128.233C111.402 128.303 111.473 129.685 111.473 129.685C111.473 129.685 115.831 131.138 119.126 130.252C119.126 130.252 119.374 129.437 119.197 128.799C119.197 128.799 121.678 128.587 122.174 128.871C122.67 129.154 122.811 130.642 126.213 130.713C129.615 130.784 138.615 130.607 139.181 128.02L138.898 127.843C138.898 127.843 138.863 126.425 137.729 126C136.595 125.576 127.276 123.13 124.866 117.815C122.457 112.5 113.776 111.791 113.386 117.851" fill="#7D6E4D" blush:i="0.2.0.1.0"/><path id="Fill 23" fill-rule="evenodd" clip-rule="evenodd" d="M117.885 127.596C118.159 126.808 118.515 126.053 118.887 125.302C119.279 124.561 119.798 123.898 120.308 123.233C120.829 122.575 121.409 121.953 122.078 121.422C122.743 120.897 123.512 120.434 124.405 120.297C124.471 120.286 124.538 120.306 124.588 120.343C125.661 121.137 126.723 121.94 127.762 122.783C128.277 123.207 128.803 123.631 129.269 124.14C129.692 124.598 130.235 124.998 130.782 125.195L130.795 125.199C130.925 125.245 130.993 125.389 130.947 125.52C130.939 125.54 130.928 125.561 130.916 125.578C130.715 125.867 130.518 126.17 130.329 126.472C130.161 126.787 129.941 127.071 129.744 127.37C129.547 127.668 129.363 127.975 129.198 128.291C129.038 128.61 128.882 128.936 128.834 129.296C128.803 128.555 129.124 127.854 129.397 127.182C129.547 126.847 129.692 126.506 129.905 126.208C130.098 125.898 130.296 125.594 130.508 125.29L130.642 125.674C129.933 125.42 129.385 124.99 128.903 124.48C128.47 124.006 127.957 123.591 127.447 123.17C126.419 122.337 125.359 121.534 124.293 120.746L124.475 120.792C123.716 120.908 123.012 121.32 122.389 121.814C121.762 122.311 121.203 122.907 120.698 123.545C120.179 124.175 119.746 124.869 119.275 125.541C118.782 126.2 118.328 126.892 117.885 127.596" fill="#040302" blush:i="0.2.0.1.1"/><path id="Fill 25" fill-rule="evenodd" clip-rule="evenodd" d="M111.981 127.751C112.504 127.974 113.067 128.097 113.626 128.195C114.185 128.297 114.751 128.355 115.317 128.387C115.884 128.422 116.452 128.384 117.018 128.426C117.585 128.476 118.153 128.489 118.735 128.598C118.749 128.601 118.758 128.613 118.756 128.628C118.754 128.638 118.747 128.645 118.738 128.647C118.174 128.825 117.595 128.885 117.014 128.926C116.432 128.949 115.852 128.875 115.277 128.785C114.13 128.619 112.978 128.355 111.957 127.794C111.944 127.788 111.94 127.772 111.947 127.761C111.953 127.749 111.969 127.746 111.981 127.751" fill="#040302" blush:i="0.2.0.1.2"/><path id="Fill 27" fill-rule="evenodd" clip-rule="evenodd" d="M120.683 127.996C121.455 127.947 122.231 127.933 123.006 128.048C123.781 128.22 124.494 128.45 125.259 128.583C126.766 128.879 128.296 129.053 129.827 129.091C131.36 129.125 132.886 128.992 134.396 128.79C135.912 128.6 137.399 128.244 138.888 127.82C138.901 127.816 138.915 127.823 138.919 127.837C138.923 127.849 138.917 127.861 138.906 127.866C137.516 128.559 136.005 129.001 134.472 129.284C132.933 129.558 131.362 129.58 129.811 129.49C128.258 129.401 126.717 129.175 125.205 128.827C124.453 128.664 123.702 128.388 122.979 128.195C122.231 128.051 121.454 128.03 120.686 128.046C120.672 128.046 120.661 128.036 120.66 128.022C120.659 128.009 120.67 127.997 120.683 127.996" fill="#040302" blush:i="0.2.0.1.3"/><path id="Fill 29" fill-rule="evenodd" clip-rule="evenodd" d="M129.047 124.621C129.002 124.621 128.956 124.608 128.914 124.582C128.797 124.509 128.762 124.354 128.836 124.238C128.863 124.195 129.503 123.194 130.544 122.924C130.681 122.893 130.814 122.97 130.849 123.103C130.883 123.237 130.803 123.373 130.67 123.408C129.823 123.627 129.264 124.496 129.259 124.505C129.211 124.58 129.13 124.621 129.047 124.621" fill="#040302" blush:i="0.2.0.1.4"/><path id="Fill 31" fill-rule="evenodd" clip-rule="evenodd" d="M127.488 123.38C127.445 123.38 127.402 123.369 127.362 123.346C127.243 123.276 127.203 123.124 127.273 123.005C127.296 122.965 127.856 122.03 129.118 122.03C129.257 122.03 129.368 122.143 129.368 122.28C129.368 122.418 129.257 122.53 129.118 122.53C128.15 122.53 127.721 123.229 127.704 123.258C127.657 123.336 127.573 123.38 127.488 123.38" fill="#040302" blush:i="0.2.0.1.5"/><path id="Fill 33" fill-rule="evenodd" clip-rule="evenodd" d="M126.318 122.424C126.275 122.424 126.231 122.412 126.191 122.389C126.072 122.319 126.033 122.165 126.104 122.046C126.169 121.936 126.764 120.968 127.488 120.968C127.626 120.968 127.738 121.08 127.738 121.218C127.738 121.356 127.626 121.468 127.488 121.468C127.154 121.468 126.725 121.98 126.533 122.302C126.486 122.38 126.403 122.424 126.318 122.424" fill="#040302" blush:i="0.2.0.1.6"/><path id="Fill 35" fill-rule="evenodd" clip-rule="evenodd" d="M124.9 121.538C124.845 121.538 124.79 121.52 124.744 121.483C124.636 121.396 124.619 121.239 124.705 121.132C124.741 121.086 125.607 120.012 126.337 119.743C126.465 119.693 126.61 119.761 126.658 119.892C126.706 120.02 126.639 120.164 126.51 120.212C126.012 120.395 125.32 121.164 125.095 121.444C125.046 121.506 124.973 121.538 124.9 121.538" fill="#040302" blush:i="0.2.0.1.7"/><path id="Fill 37" fill-rule="evenodd" clip-rule="evenodd" d="M124.778 119.144C123.793 119.777 122.696 120.731 122.967 121.326C123.058 121.527 123.145 121.515 123.187 121.509C123.652 121.446 124.437 120.326 124.778 119.144M123.159 122.011C122.966 122.011 122.693 121.93 122.512 121.533C121.903 120.192 124.706 118.59 125.028 118.412C125.111 118.366 125.215 118.371 125.292 118.425C125.371 118.48 125.411 118.575 125.396 118.669C125.176 120.069 124.145 121.883 123.255 122.004C123.226 122.008 123.194 122.011 123.159 122.011" fill="#040302" blush:i="0.2.0.1.8"/><path id="Fill 39" fill-rule="evenodd" clip-rule="evenodd" d="M126.116 118.534C127.264 119.131 128.292 119.51 128.502 119.387C128.498 119.383 128.5 119.352 128.486 119.293C128.325 118.633 127.074 118.518 126.116 118.534M128.402 119.89C127.529 119.89 125.886 119.001 125.131 118.564C125.038 118.511 124.99 118.404 125.011 118.299C125.032 118.194 125.117 118.114 125.223 118.099C125.568 118.052 128.611 117.687 128.971 119.175C129.059 119.532 128.905 119.71 128.805 119.784C128.707 119.858 128.568 119.89 128.402 119.89" fill="#040302" blush:i="0.2.0.1.9"/><path id="Fill 41" fill-rule="evenodd" clip-rule="evenodd" d="M124.193 125.365C124.076 125.365 123.972 125.283 123.948 125.164C123.622 123.531 124.754 119.244 124.802 119.062C124.838 118.93 124.973 118.85 125.109 118.886C125.242 118.921 125.321 119.057 125.286 119.191C125.274 119.234 124.135 123.547 124.439 125.066C124.465 125.201 124.378 125.333 124.242 125.36C124.226 125.363 124.21 125.365 124.193 125.365" fill="#040302" blush:i="0.2.0.1.10"/><path id="Fill 43" fill-rule="evenodd" clip-rule="evenodd" d="M104.503 122.257C104.503 122.257 101.527 124.147 101.102 126.651C100.676 129.154 100.768 131.43 100.676 133.123C100.381 138.58 99.3539 143.292 108.283 142.856C118.871 142.337 111.826 134.21 111.779 133.501C111.732 132.792 110.503 127.17 110.125 125.47C109.747 123.769 106.251 120.226 104.503 122.257" fill="#7D6E4D" blush:i="0.2.0.1.11"/><path id="Fill 45" fill-rule="evenodd" clip-rule="evenodd" d="M100.664 139.43C100.738 138.66 100.95 137.91 101.219 137.184C101.485 136.455 101.849 135.763 102.267 135.106C103.107 133.8 104.275 132.67 105.66 131.99C105.092 132.513 104.518 133.001 104.037 133.583C103.548 134.154 103.083 134.742 102.686 135.378C101.864 136.634 101.212 137.995 100.664 139.43" fill="#040302" blush:i="0.2.0.1.12"/><path id="Fill 47" fill-rule="evenodd" clip-rule="evenodd" d="M111.779 133.501C111.184 133.126 110.61 132.83 110.01 132.546C109.414 132.255 108.802 132.007 108.176 131.67C108.532 131.646 108.882 131.685 109.226 131.758C109.572 131.825 109.904 131.947 110.225 132.095C110.541 132.254 110.849 132.434 111.115 132.673C111.381 132.907 111.633 133.171 111.779 133.501" fill="#040302" blush:i="0.2.0.1.13"/><path id="Fill 49" fill-rule="evenodd" clip-rule="evenodd" d="M104.385 131.46C104.285 131.46 104.19 131.399 104.152 131.3C104.102 131.171 104.166 131.026 104.295 130.977C104.399 130.937 106.876 129.997 109.336 130.613C109.47 130.647 109.551 130.782 109.518 130.916C109.484 131.049 109.348 131.136 109.215 131.098C106.914 130.523 104.5 131.435 104.475 131.443C104.446 131.455 104.415 131.46 104.385 131.46" fill="#040302" blush:i="0.2.0.1.14"/><path id="Fill 51" fill-rule="evenodd" clip-rule="evenodd" d="M104.244 129.9C104.126 129.9 104.022 129.817 103.999 129.697C103.973 129.561 104.062 129.43 104.198 129.405C104.321 129.38 107.228 128.836 108.982 129.011C109.119 129.026 109.22 129.148 109.205 129.286C109.192 129.423 109.068 129.516 108.931 129.509C107.253 129.337 104.321 129.891 104.291 129.895C104.275 129.899 104.26 129.9 104.244 129.9" fill="#040302" blush:i="0.2.0.1.15"/><path id="Fill 53" fill-rule="evenodd" clip-rule="evenodd" d="M105.317 131.387C105.174 131.171 105.138 130.956 105.092 130.741C105.06 130.525 105.115 130.309 105.142 130.094C105.187 129.662 105.245 129.232 105.317 128.8H105.367C105.44 129.232 105.498 129.662 105.542 130.094C105.569 130.309 105.625 130.525 105.592 130.741C105.546 130.956 105.51 131.171 105.367 131.387H105.317Z" fill="#040302" blush:i="0.2.0.1.16"/><path id="Fill 55" fill-rule="evenodd" clip-rule="evenodd" d="M108.187 131.145C107.992 130.98 107.901 130.783 107.804 130.587C107.719 130.389 107.722 130.167 107.7 129.954C107.651 129.527 107.612 129.093 107.655 128.659L107.705 128.657C107.805 129.069 107.956 129.464 108.09 129.864C108.164 130.062 108.268 130.251 108.288 130.462C108.296 130.677 108.316 130.889 108.235 131.131L108.187 131.145Z" fill="#040302" blush:i="0.2.0.1.17"/><path id="Fill 57" fill-rule="evenodd" clip-rule="evenodd" d="M56.3222 78.9558C65.0232 83.3588 82.3222 83.4648 93.2262 79.5848C93.2262 79.5848 90.0812 94.5768 93.6452 103.908C97.2092 113.239 100.46 127.603 100.355 128.231C100.355 128.231 106.855 131.167 110.839 126.239C110.839 126.239 106.75 109.046 108.113 97.1978C109.476 85.3518 110 73.1898 110 73.1898L114.299 73.0848C114.299 73.0848 110.315 90.4878 111.783 101.812C113.25 113.135 112.307 118.796 112.307 118.796C112.307 118.796 121.218 121.836 124.993 118.377C124.993 118.377 124.993 88.3918 130.025 73.1898C135.057 57.9878 130.759 57.7778 126.88 56.4148C123 55.0528 100.263 50.4228 90.0352 51.0598C79.8062 51.6968 58.4182 43.2708 54.7492 50.0848C54.7492 50.0848 47.6202 74.5528 56.3222 78.9558Z" fill="#69313B" blush:i="0.2.0.1.18"/><path id="Fill 59" fill-rule="evenodd" clip-rule="evenodd" d="M67.3301 56.5203C70.8621 56.3063 74.4011 56.1873 77.9401 56.1583C81.4801 56.1113 85.0221 56.1473 88.5611 56.2973C92.1001 56.4423 95.6431 56.6463 99.1661 57.1023C100.927 57.3293 102.685 57.5993 104.428 57.9793C106.164 58.3683 107.912 58.8333 109.512 59.7363L109.574 59.7713L109.601 59.8183C110.219 60.8743 110.496 61.9763 110.709 63.1033C110.911 64.2283 110.98 65.3683 110.963 66.5003C110.956 67.6353 110.826 68.7613 110.679 69.8793L110.386 71.5453L110 73.1903L110.278 71.5263L110.487 69.8563C110.58 68.7393 110.655 67.6203 110.607 66.5033C110.577 65.3893 110.485 64.2753 110.255 63.1903C110.028 62.1223 109.689 61.0163 109.141 60.1413L109.23 60.2233C107.711 59.4373 105.996 58.9963 104.288 58.6253C102.571 58.2693 100.828 58.0183 99.0801 57.8103C95.5791 57.4213 92.0581 57.1553 88.5311 56.9813C81.4761 56.6663 74.4061 56.5333 67.3301 56.5203" fill="#150711" blush:i="0.2.0.1.19"/><path id="Fill 61" fill-rule="evenodd" clip-rule="evenodd" d="M74.1445 80.2137C75.9155 79.2477 77.7125 78.3447 79.5095 77.4427L84.9185 74.7807L90.3435 72.1617C91.2505 71.7317 92.1475 71.2817 93.0345 70.8157C93.9305 70.3617 94.8195 69.9007 95.6375 69.3107C94.1545 70.6967 92.3495 71.6647 90.6115 72.6727C88.8565 73.6697 87.0545 74.5697 85.2455 75.4547C83.4305 76.3257 81.6045 77.1747 79.7515 77.9627C77.9015 78.7577 76.0425 79.5297 74.1445 80.2137" fill="#150711" blush:i="0.2.0.1.20"/><path id="Fill 63" fill-rule="evenodd" clip-rule="evenodd" d="M103.181 68.5398C101.856 69.8288 100.451 71.0238 99.0216 72.1918C97.5986 73.3678 96.1146 74.4658 94.6096 75.5368C93.0976 76.5958 91.5466 77.6068 89.9286 78.5088C88.3156 79.4058 86.6466 80.2638 84.8496 80.7288C86.5336 79.9728 88.0916 79.0068 89.6316 78.0138C91.1616 77.0068 92.6856 75.9888 94.1796 74.9228L98.6736 71.7358C100.17 70.6668 101.661 69.5888 103.181 68.5398" fill="#150711" blush:i="0.2.0.1.21"/><path id="Fill 65" fill-rule="evenodd" clip-rule="evenodd" d="M103.842 69.0125C102.956 70.1355 101.989 71.1845 100.995 72.2055C100.007 73.2335 98.9593 74.2015 97.8883 75.1465C96.8003 76.0715 95.6863 76.9725 94.4933 77.7695C93.2973 78.5395 92.0363 79.3295 90.6133 79.5955C91.2703 79.3045 91.8823 78.9725 92.4543 78.5555C93.0413 78.1685 93.5983 77.7365 94.1533 77.3035C95.2463 76.4115 96.3303 75.5075 97.3973 74.5795L100.601 71.7885C101.673 70.8585 102.737 69.9175 103.842 69.0125" fill="#150711" blush:i="0.2.0.1.22"/><path id="Fill 67" fill-rule="evenodd" clip-rule="evenodd" d="M106.583 74.3035C105.482 77.2915 104.251 80.2185 103.097 83.1765C102.486 84.6425 101.916 86.1225 101.337 87.6005C100.762 89.0785 100.193 90.5595 99.6855 92.0675C99.9925 90.5025 100.475 88.9795 100.976 87.4685C101.481 85.9575 102.058 84.4745 102.633 82.9915C103.845 80.0485 105.104 77.1255 106.583 74.3035" fill="#150711" blush:i="0.2.0.1.23"/><path id="Fill 69" fill-rule="evenodd" clip-rule="evenodd" d="M125.481 74.9656C123.757 77.4146 121.937 79.7806 120.197 82.2066C119.298 83.3976 118.445 84.6206 117.59 85.8406C116.738 87.0656 115.903 88.2986 115.182 89.6116C115.716 88.2066 116.481 86.9026 117.269 85.6296C118.063 84.3576 118.923 83.1296 119.794 81.9116C120.696 80.7166 121.593 79.5186 122.543 78.3606C123.491 77.2026 124.456 76.0586 125.481 74.9656" fill="#150711" blush:i="0.2.0.1.24"/><path id="Fill 71" fill-rule="evenodd" clip-rule="evenodd" d="M113.668 70.619C114.186 69.767 114.785 68.973 115.41 68.199C116.032 67.422 116.707 66.688 117.418 65.989C118.138 65.299 118.881 64.627 119.709 64.059C120.529 63.49 121.402 62.969 122.361 62.682C121.487 63.159 120.7 63.744 119.942 64.365C119.189 64.99 118.468 65.658 117.768 66.347C116.355 67.714 115.03 69.171 113.668 70.619" fill="#150711" blush:i="0.2.0.1.25"/><path id="Fill 73" fill-rule="evenodd" clip-rule="evenodd" d="M126.803 62.7762C125.847 63.7972 124.822 64.7412 123.773 65.6592C122.721 66.5792 121.639 67.4512 120.445 68.2312C119.273 68.9182 118.254 69.8282 117.191 70.7172L114.047 73.4542C114.888 72.3362 115.818 71.2952 116.797 70.2972C117.77 69.3032 118.825 68.3342 120.047 67.5962C121.19 66.8732 122.289 66.0142 123.414 65.2112C124.532 64.3902 125.647 63.5612 126.803 62.7762" fill="#150711" blush:i="0.2.0.1.26"/><path id="Fill 75" fill-rule="evenodd" clip-rule="evenodd" d="M114.896 73.6424C116.032 72.3564 117.339 71.2714 118.707 70.2664C119.397 69.7744 120.106 69.3024 120.851 68.8854C121.588 68.4634 122.376 68.0904 123.211 67.8784C122.5 68.3554 121.847 68.8774 121.17 69.3754L119.146 70.8744C117.776 71.8504 116.399 72.8184 114.896 73.6424" fill="#150711" blush:i="0.2.0.1.27"/></g><g id="Front Wheelchair" blush:i="0.2.0.2"><path id="Fill 74" fill-rule="evenodd" clip-rule="evenodd" d="M93.5211 95.6086L46.7985 84.9633L44.373 65.2096L91.0956 75.8549L93.5211 95.6086Z" fill="#2E2E2E" blush:i="0.2.0.2.0"/><path id="Fill 76" fill-rule="evenodd" clip-rule="evenodd" d="M48.9863 102.766C48.1645 102.867 47.4156 102.282 47.3147 101.46L37.5525 21.9532L30.5302 22.8155C29.7084 22.9164 28.9595 22.3313 28.8586 21.5095C28.7576 20.6866 29.3428 19.9387 30.1646 19.8378L38.6757 18.7928C39.4975 18.6919 40.2463 19.276 40.3473 20.0988L50.2923 101.095C50.3932 101.916 49.8081 102.665 48.9863 102.766" fill="#A1A1A1" blush:i="0.2.0.2.1"/><path id="Fill 78" fill-rule="evenodd" clip-rule="evenodd" d="M32.0619 22.6268L24.9384 23.5014C24.1166 23.6023 23.3677 23.0172 23.2668 22.1954C23.1659 21.3736 23.751 20.6247 24.5728 20.5238L31.6963 19.6491C32.5181 19.5482 33.267 20.1333 33.3679 20.9552C33.4688 21.777 32.8837 22.5259 32.0619 22.6268" fill="#2E2E2E" blush:i="0.2.0.2.2"/><path id="Fill 80" fill-rule="evenodd" clip-rule="evenodd" d="M98.1085 132.963V132.963C97.2857 133.064 96.5378 132.479 96.4369 131.657L89.3852 74.225C88.7702 69.2166 86.1173 62.7578 76.9744 60.4378L42.4801 53.6177L43.0618 50.6749L77.6338 57.5126C89.0685 60.4127 91.7659 68.9979 92.3628 73.8594L99.4145 131.291C99.5154 132.113 98.9313 132.862 98.1085 132.963" fill="#A1A1A1" blush:i="0.2.0.2.3"/><path id="Fill 82" fill-rule="evenodd" clip-rule="evenodd" d="M84.2198 92.8505L83.9709 91.8816L50.8534 100.394L77.6534 78.1099L77.014 77.3411L50.3985 99.4707L66.7446 67.8327L65.8561 67.3736L49.5057 99.0181L52.2546 62.7366L51.2579 62.6605L48.5153 98.8536L37.3693 64.3014L36.4168 64.6097L47.5197 99.0252L25.2135 71.4219L24.4363 72.0503L46.96 99.9231L15.9667 84.1255L15.5139 85.0163L45.7538 100.43L12.8079 95.1022L12.6471 96.0902L46.3782 101.544L13.4238 110.014L13.6728 110.983L46.7892 102.471L19.9892 124.755L20.6288 125.525L47.2451 103.394L30.899 135.032L31.7877 135.492L48.1371 103.848L45.3881 140.128L46.3859 140.205L49.1284 104.011L60.2743 138.563L61.227 138.256L50.1227 103.838L72.4312 131.443L73.2074 130.815L50.6849 102.944L81.6759 118.74L82.1298 117.85L51.8889 102.435L84.8367 107.763L84.9965 106.775L51.2665 101.322L84.2198 92.8505Z" fill="#A1A1A1" blush:i="0.2.0.2.4"/><g id="Group 86" blush:i="0.2.0.2.5"><path id="Fill 84" fill-rule="evenodd" clip-rule="evenodd" d="M44.4013 59.5959C22.8025 62.2479 7.52161 83.0653 10.3376 106C13.1538 128.936 33.0167 145.436 54.6155 142.784C76.2153 140.132 91.4965 119.317 88.6803 96.3808C85.8643 73.4461 66.0011 56.9438 44.4013 59.5959M44.706 62.0773C64.937 59.5932 83.5508 75.1185 86.1989 96.6855C88.847 118.253 74.5419 137.819 54.3109 140.303C34.0798 142.787 15.4671 127.262 12.819 105.695C10.1709 84.1284 24.4749 64.5613 44.706 62.0773" fill="#2E2E2E" blush:i="0.2.0.2.5.0"/></g><path id="Fill 87" fill-rule="evenodd" clip-rule="evenodd" d="M44.7064 62.0773C24.396 64.5711 10.0275 84.1461 12.6756 105.713C15.3237 127.28 34.0009 142.797 54.3113 140.303C74.6218 137.809 88.9914 118.235 86.3433 96.6678C83.6952 75.1008 65.0169 59.5834 44.7064 62.0773M44.9929 64.4107C64.0171 62.0749 81.5207 76.6735 84.0108 96.9542C86.501 117.235 73.0491 135.634 54.0249 137.97C35.0008 140.306 17.4982 125.707 15.008 105.427C12.5179 85.146 25.9688 66.7466 44.9929 64.4107" fill="#A1A1A1" blush:i="0.2.0.2.6"/></g></g></g><g id="Male Character Sitting/Upper body" blush:component="Male Character Sitting/Upper body" blush:defaultValue="Sweater 5" blush:width="108" blush:height="95" transform="translate(81 101) scale(1 1)" blush:i="0.3" blush:value="Sweater 5" blush:viewBox="0 0.5397727272727195 107.45999999999998 93.92045454545456"><g id="Male Character Sitting/Upper body/Sweater 5" blush:viewBox="0 0.5397727272727195 107.45999999999998 93.92045454545456" blush:i="0.3.0"><g id="Top" blush:i="0.3.0.0"><path id="Fill 116" fill-rule="evenodd" clip-rule="evenodd" d="M97.6244 53.2625C93.2804 52.4545 89.8144 52.4205 84.3194 49.0845C81.5084 47.3785 77.2234 44.6045 71.9324 42.7145C67.6514 41.1855 66.1504 36.8185 64.0794 36.1665C63.6404 36.0295 63.6634 46.3765 65.2704 48.8565C66.9244 51.4075 67.0334 52.2185 69.2394 53.1085C76.8034 56.1585 86.2344 55.8685 90.9764 57.9585C91.7644 58.3065 91.5414 58.4495 92.1774 59.2645C93.4774 60.9325 97.9314 59.9335 100.117 61.1105C100.585 62.0765 100.608 64.7565 102.339 64.5635L102.466 64.4335L102.448 63.6175C102.448 63.6175 103.458 63.9005 103.986 63.6585C103.986 63.6585 104.103 63.5485 104.106 63.4355C104.109 63.3555 103.673 62.5755 103.415 62.1205C104.802 63.1985 105.704 62.8695 106.022 62.4955C106.176 62.3165 104.926 60.7195 104.926 60.7195C107.428 62.0315 107.473 60.9255 107.354 60.4375C107.236 59.9495 104.992 57.6875 104.083 56.5745C103.201 55.4925 101.968 54.0695 97.6244 53.2625" fill="#ffc280" blush:color="Skin-500" blush:i="0.3.0.0.0"/><path id="Fill 118" fill-rule="evenodd" clip-rule="evenodd" d="M8.1906 22.2567C8.1906 22.2567 0.426598 45.5817 0.433598 46.0827C0.441598 46.5837 2.0106 59.5327 4.9406 66.0527C7.2086 71.1017 6.9126 76.2767 6.9126 76.2767C6.9126 76.2767 9.3646 76.2657 11.6426 75.4257C12.7676 75.0117 14.6196 73.4777 14.5656 73.4587C14.5656 73.4587 11.8026 70.3527 12.3106 62.0367C12.6576 56.3487 11.8986 52.3287 11.6016 45.6777C11.6016 45.6777 16.6386 36.5697 17.8066 29.7077C18.9746 22.8467 13.6936 14.9577 8.1906 22.2567" fill="#ffc280" blush:color="Skin-500" blush:i="0.3.0.0.1"/><path id="Fill 120" fill-rule="evenodd" clip-rule="evenodd" d="M102.449 63.618C101.96 63.437 101.599 63.019 101.336 62.579C101.224 62.345 101.116 62.107 101.062 61.854C101 61.604 100.986 61.346 100.994 61.092C101.3 62.059 101.701 62.927 102.449 63.618" fill="black" blush:i="0.3.0.0.2"/><path id="Fill 122" fill-rule="evenodd" clip-rule="evenodd" d="M102.176 60.7274C102.622 61.1884 103.036 61.5914 103.415 62.1214C103.104 62.0074 102.863 61.7914 102.636 61.5674C102.432 61.3244 102.235 61.0544 102.176 60.7274" fill="black" blush:i="0.3.0.0.3"/><path id="Fill 124" fill-rule="evenodd" clip-rule="evenodd" d="M100.117 61.1102C100.522 61.0842 100.925 61.0352 101.308 60.9512C101.681 60.8822 102.096 60.6412 101.963 60.5122C101.897 60.2492 101.628 59.9132 101.367 59.6472C101.098 59.3722 100.796 59.1192 100.481 58.8972C100.325 58.7892 100.159 58.6842 100.003 58.6182C99.8848 58.5612 99.6438 58.5222 99.4558 58.4662C99.0608 58.3622 98.6708 58.2492 98.2818 58.1272C97.8928 58.0042 97.5058 57.8742 97.1208 57.7182C96.9288 57.6402 96.7378 57.5582 96.5428 57.4492C96.4448 57.3882 96.3488 57.3402 96.2358 57.2182C96.1898 57.1712 96.0768 57.0212 96.1478 56.8272C96.2268 56.6622 96.3338 56.6492 96.4408 56.5942C96.9498 56.5192 97.3228 56.5962 97.7418 56.6402C98.1478 56.7002 98.5498 56.7672 98.9488 56.8472C99.7478 57.0062 100.537 57.1862 101.327 57.4212C101.534 57.4912 101.7 57.5252 101.959 57.6672C102.206 57.8522 102.27 57.9902 102.422 58.1462C102.682 58.4532 102.953 58.7442 103.227 59.0312C103.722 59.6552 104.273 60.2352 104.927 60.7192C104.169 60.4112 103.501 59.9052 102.868 59.3802C102.579 59.0892 102.311 58.7792 102.044 58.4742C101.921 58.3392 101.76 58.1252 101.678 58.0802C101.582 58.0292 101.356 57.9522 101.18 57.8982C100.422 57.6722 99.6368 57.4932 98.8528 57.3382C98.0918 57.1992 97.2208 57.0202 96.5648 57.0792C96.5928 57.0792 96.5758 57.0822 96.6138 57.0092C96.6468 56.9112 96.5898 56.8662 96.6118 56.8892C96.6338 56.9172 96.7158 56.9732 96.7908 57.0142C96.9478 57.1032 97.1278 57.1822 97.3088 57.2562C97.6728 57.4022 98.0518 57.5292 98.4318 57.6492C98.8128 57.7692 99.1978 57.8812 99.5828 57.9832C99.7808 58.0442 99.9468 58.0542 100.2 58.1582C100.414 58.2522 100.591 58.3662 100.766 58.4872C101.111 58.7292 101.43 58.9972 101.725 59.2982C102.006 59.6172 102.319 59.8952 102.458 60.4232C102.475 60.5702 102.442 60.7632 102.329 60.8852C102.226 61.0152 102.101 61.0642 101.991 61.1082C101.765 61.1862 101.553 61.2052 101.343 61.2142C100.924 61.2282 100.517 61.1862 100.117 61.1102" fill="black" blush:i="0.3.0.0.4"/><path id="Fill 126" fill-rule="evenodd" clip-rule="evenodd" d="M6.91016 76.2703C6.91016 76.2703 6.98816 85.2543 6.98816 86.0633C6.98816 86.8723 8.60516 91.6373 8.69216 92.0993C8.77916 92.5613 9.70316 92.6483 9.87616 92.4743C10.0492 92.3013 10.2802 91.6083 10.2802 91.6083C10.2802 91.6083 10.7142 93.1393 11.0602 93.3123C11.4072 93.4853 11.9272 93.8893 12.1582 93.8613C12.3892 93.8323 12.6202 93.2543 12.4472 92.4463C12.4472 92.4463 13.2552 93.9483 13.8622 94.2363C14.4682 94.5253 15.2772 94.5253 15.2482 94.0923C15.2192 93.6593 15.1612 93.3993 15.1612 93.3993C15.1612 93.3993 16.4032 93.6873 16.5192 93.0813C16.6342 92.4743 16.6342 89.5293 16.1152 87.6513C15.5952 85.7743 16.2012 82.5683 15.6812 81.7313C15.6812 81.7313 17.0102 85.6593 18.5122 85.5723C20.0142 85.4853 19.8982 84.9083 19.8112 84.7633C19.7242 84.6193 18.1942 82.8863 18.2812 81.5863C18.3672 80.2873 18.1362 80.2293 18.0782 79.6803C18.0202 79.1313 18.4252 79.1313 17.3562 77.7163C16.2872 76.3013 14.5302 73.4953 14.5302 73.4953L13.4962 74.2733C12.1112 75.3153 10.4602 75.9453 8.73316 76.0903L6.91016 76.2703Z" fill="#ffc280" blush:color="Skin-500" blush:i="0.3.0.0.5"/><path id="Fill 128" fill-rule="evenodd" clip-rule="evenodd" d="M15.1614 93.3992C14.8164 92.5942 14.5284 91.7722 14.2524 90.9452C13.9744 90.1182 13.7304 89.2862 13.5214 88.4282C13.4754 88.2312 13.4224 87.9512 13.4254 87.7432L13.3954 87.0932L13.3444 85.7952C13.3004 84.9292 13.2814 84.0642 13.1484 83.2032C13.4844 84.0192 13.6034 84.9002 13.7274 85.7612C13.7934 86.1942 13.8254 86.6292 13.8684 87.0642L13.9134 87.7162C13.9174 87.9452 13.9594 88.0912 14.0084 88.3182C14.4074 89.9922 14.8624 91.6772 15.1614 93.3992" fill="black" blush:i="0.3.0.0.6"/><path id="Fill 130" fill-rule="evenodd" clip-rule="evenodd" d="M10.3145 83.5223C10.5845 84.1983 10.7955 84.8923 10.9765 85.5953C11.0715 85.9463 11.1485 86.3023 11.2125 86.6633C11.2755 87.0293 11.3275 87.3833 11.3045 87.8013L11.2955 87.7043C11.5305 88.4813 11.7505 89.2633 11.9445 90.0523C12.1345 90.8443 12.3215 91.6353 12.4475 92.4463C12.1095 91.6993 11.8345 90.9333 11.5605 90.1673C11.2925 89.3993 11.0485 88.6253 10.8215 87.8443L10.8085 87.7983L10.8135 87.7473C10.8395 87.4433 10.7925 87.0783 10.7585 86.7303L10.6165 85.6683C10.5105 84.9573 10.3985 84.2453 10.3145 83.5223" fill="black" blush:i="0.3.0.0.7"/><path id="Fill 132" fill-rule="evenodd" clip-rule="evenodd" d="M8.11719 83.6287C8.37019 84.2397 8.56819 84.8697 8.73219 85.5097C8.90619 86.1497 9.03419 86.7957 9.07219 87.4837L9.06019 87.4147C9.29619 88.1217 9.51319 88.8337 9.70819 89.5547C9.89619 90.2767 10.0822 90.9997 10.2072 91.7427C9.87219 91.0677 9.59719 90.3737 9.32519 89.6787C9.05819 88.9827 8.81619 88.2767 8.59119 87.5667L8.58019 87.5347L8.57819 87.4977C8.51519 86.2387 8.25019 84.9387 8.11719 83.6287" fill="black" blush:i="0.3.0.0.8"/><g id="Group 136" blush:i="0.3.0.0.9"><path id="Fill 134" fill-rule="evenodd" clip-rule="evenodd" d="M72.0031 40.8124C72.2151 40.1394 71.1881 40.4574 71.0461 39.5014C70.9051 38.5444 71.7901 38.4034 70.1961 37.1274C68.6011 35.8524 66.9001 20.1904 61.8691 14.6274C61.8691 14.6274 60.4871 13.2464 57.7231 11.5094C54.9591 9.77342 51.5581 8.32042 50.6011 6.33642C49.6441 4.35242 46.244 3.33592 46.103 3.01692C46.103 3.01692 46.7551 5.09642 46.0321 6.78242C45.4081 8.23742 44.6841 9.70242 40.2191 9.31242C36.5901 8.99642 33.8505 5.42467 34.2325 2.51267C34.2425 2.50067 34.8521 0.997247 34.8521 0.997247C34.8521 0.997247 33.4751 0.903423 32.0581 1.89542C30.6401 2.88742 19.1601 8.88742 16.9871 10.3524C14.8141 11.8164 9.52211 16.8724 7.25511 24.3364C4.98711 31.8004 0.499111 42.5254 0.168111 44.6514C-0.162889 46.7774 -0.0208889 50.4154 0.735111 50.8874C0.735111 50.8874 1.01811 51.2654 1.62111 50.9944C2.22311 50.7224 3.49911 49.3404 7.06611 50.3794C10.6331 51.4184 11.2701 51.8684 12.1211 51.1354C12.9711 50.4034 11.6721 47.4154 11.6721 47.4154C11.6721 47.4154 12.3101 45.9504 12.5701 45.5964C12.8291 45.2424 11.8371 44.5564 12.9001 44.2494C13.9631 43.9424 12.9001 43.8954 13.9161 42.1004C14.9321 40.3044 17.3181 34.7064 17.4831 34.3994C17.6481 34.0924 17.7901 37.1164 18.3811 38.3914C18.9711 39.6664 25.9401 52.7184 24.2391 58.6004C24.2391 58.6004 23.5661 59.4504 23.8491 60.1594C24.1331 60.8684 31.9281 63.3124 38.8731 62.7464C45.8181 62.1784 48.5461 62.5684 53.0461 60.9034C57.5461 59.2384 59.9201 59.2024 59.9201 59.2024C59.9201 59.2024 58.3251 53.3204 58.2551 49.1044C58.1841 44.8874 58.7151 39.9264 58.7151 39.9264C58.7151 39.9264 60.4511 43.0094 61.2311 43.7894C62.0101 44.5684 63.6401 47.2264 64.2431 48.7854C64.8451 50.3444 67.2191 52.5054 67.3961 52.0444C67.5731 51.5834 66.4401 47.2964 69.1331 44.9224C71.8251 42.5484 73.5971 43.8604 71.9671 41.7694C71.9671 41.7694 71.7901 41.4864 72.0031 40.8124Z" fill="#B9D0FF" blush:i="0.3.0.0.9.0"/></g><path id="Fill 137" fill-rule="evenodd" clip-rule="evenodd" d="M29.9648 3.99985C30.4708 3.60785 31.0088 3.25885 31.5808 2.95985C31.8658 2.80885 32.1488 2.63485 32.4738 2.56785C32.7978 2.51585 33.1368 2.47085 33.4718 2.57885L33.4768 2.62885C33.1818 2.80585 32.9028 2.91285 32.6228 3.04585C32.3428 3.16585 32.0378 3.22885 31.7408 3.32585C31.1528 3.53485 30.5678 3.77585 29.9918 4.04285L29.9648 3.99985Z" fill="#5D74E0" blush:i="0.3.0.0.10"/><path id="Fill 139" fill-rule="evenodd" clip-rule="evenodd" d="M30.8633 5.4178C31.2813 5.0728 31.7083 4.7388 32.1433 4.4168C32.3573 4.2518 32.5583 4.0628 32.8033 3.9478C33.0563 3.8458 33.3033 3.7338 33.6043 3.7168L33.6293 3.7598C33.4733 4.0248 33.2633 4.1968 33.0593 4.3778C32.8483 4.5478 32.5923 4.6408 32.3503 4.7598C31.8713 5.0038 31.3843 5.2368 30.8893 5.4598L30.8633 5.4178Z" fill="#5D74E0" blush:i="0.3.0.0.11"/><path id="Fill 141" fill-rule="evenodd" clip-rule="evenodd" d="M31.3789 7.59364C31.7079 7.20064 32.0409 6.81564 32.3759 6.43564C32.5399 6.24164 32.6809 6.02764 32.8799 5.87264C33.0879 5.72564 33.2839 5.57664 33.5489 5.47064L33.5889 5.50064C33.5419 5.79364 33.3819 6.01064 33.2359 6.22464C33.0779 6.43064 32.8549 6.56964 32.6519 6.72564C32.2519 7.04364 31.8379 7.34564 31.4119 7.63064L31.3789 7.59364Z" fill="#5D74E0" blush:i="0.3.0.0.12"/><path id="Fill 143" fill-rule="evenodd" clip-rule="evenodd" d="M34.3426 6.68441C34.0576 7.08241 33.7916 7.49141 33.5436 7.90141C33.4216 8.10941 33.3376 8.33641 33.1856 8.51841C33.0226 8.69641 32.8816 8.88141 32.6476 9.03941L32.6016 9.01841C32.5776 8.73641 32.6666 8.49341 32.7596 8.25641C32.8656 8.02541 33.0516 7.84641 33.2216 7.66341C33.5526 7.29041 33.9146 6.95141 34.3076 6.64941L34.3426 6.68441Z" fill="#5D74E0" blush:i="0.3.0.0.13"/><path id="Fill 145" fill-rule="evenodd" clip-rule="evenodd" d="M33.7344 10.4383C33.8714 9.89234 34.0784 9.36734 34.3294 8.86234C34.4514 8.60734 34.5584 8.33734 34.7504 8.12534C34.9484 7.92034 35.1534 7.71934 35.4394 7.59534L35.4784 7.62734C35.4144 7.93334 35.2764 8.16634 35.1584 8.41534C35.0284 8.65334 34.8364 8.84834 34.6714 9.06834C34.3554 9.51034 34.0494 9.97034 33.7814 10.4553L33.7344 10.4383Z" fill="#5D74E0" blush:i="0.3.0.0.14"/><path id="Fill 147" fill-rule="evenodd" clip-rule="evenodd" d="M36.3802 8.61213C36.2772 9.14513 36.1562 9.67413 36.0152 10.1981C35.9492 10.4621 35.9082 10.7351 35.7782 10.9781C35.6362 11.2131 35.5032 11.4641 35.2442 11.6401L35.2012 11.6151C35.1992 11.3181 35.2562 11.0631 35.3132 10.7981C35.3782 10.5381 35.5222 10.3051 35.6392 10.0621C35.8622 9.57313 36.0932 9.08313 36.3332 8.59613L36.3802 8.61213Z" fill="#5D74E0" blush:i="0.3.0.0.15"/><path id="Fill 149" fill-rule="evenodd" clip-rule="evenodd" d="M37.3735 9.36209C37.3975 9.91109 37.3995 10.4601 37.3725 11.0091C37.3635 11.2851 37.3795 11.5661 37.2975 11.8361C37.1975 12.0931 37.1195 12.3891 36.8485 12.5881L36.8085 12.5571C36.7985 12.2751 36.7955 12.0171 36.8055 11.7461C36.8205 11.4801 36.9145 11.2221 36.9765 10.9581L37.3235 9.35809L37.3735 9.36209Z" fill="#5D74E0" blush:i="0.3.0.0.16"/><path id="Fill 151" fill-rule="evenodd" clip-rule="evenodd" d="M38.8864 9.784C38.9674 10.313 39.0244 10.844 39.0524 11.378C39.0714 11.644 39.1144 11.915 39.0614 12.181C38.9954 12.445 38.9344 12.717 38.7444 12.955L38.6954 12.946C38.6014 12.664 38.5884 12.408 38.5634 12.144C38.5494 11.885 38.6174 11.627 38.6524 11.365L38.8364 9.786L38.8864 9.784Z" fill="#5D74E0" blush:i="0.3.0.0.17"/><path id="Fill 153" fill-rule="evenodd" clip-rule="evenodd" d="M40.0192 10.0672C40.1302 10.6132 40.2282 11.1592 40.3112 11.7062C40.3582 11.9792 40.4342 12.2502 40.4202 12.5272C40.3942 12.8062 40.3782 13.0852 40.2552 13.3742L40.2062 13.3782C40.0432 13.1152 39.9872 12.8422 39.9222 12.5702C39.8702 12.2962 39.9062 12.0162 39.9132 11.7382C39.9172 11.1822 39.9362 10.6272 39.9692 10.0702L40.0192 10.0672Z" fill="#5D74E0" blush:i="0.3.0.0.18"/><path id="Fill 155" fill-rule="evenodd" clip-rule="evenodd" d="M41.4833 10.1102C41.6703 10.5862 41.8483 11.0632 42.0193 11.5402C42.1093 11.7772 42.2273 12.0062 42.2653 12.2552C42.2923 12.5082 42.3233 12.7532 42.2853 13.0352L42.2393 13.0552C42.0063 12.8692 41.9003 12.6242 41.7843 12.3922C41.6813 12.1552 41.6703 11.8932 41.6313 11.6412C41.5463 11.1372 41.4813 10.6312 41.4353 10.1222L41.4833 10.1102Z" fill="#5D74E0" blush:i="0.3.0.0.19"/><path id="Fill 157" fill-rule="evenodd" clip-rule="evenodd" d="M43.7032 9.96375C43.9742 10.3907 44.2332 10.8247 44.4792 11.2677C44.6072 11.4857 44.7622 11.6947 44.8342 11.9377C44.8952 12.1837 44.9642 12.4267 44.9322 12.7057L44.8862 12.7237C44.6492 12.5457 44.5142 12.3317 44.3702 12.1207C44.2372 11.9057 44.1872 11.6587 44.1102 11.4207C43.9472 10.9497 43.7972 10.4717 43.6582 9.98475L43.7032 9.96375Z" fill="#5D74E0" blush:i="0.3.0.0.20"/><path id="Fill 159" fill-rule="evenodd" clip-rule="evenodd" d="M45.3535 9.15613L46.4105 10.2961C46.5885 10.4821 46.7895 10.6491 46.9255 10.8631C47.0575 11.0861 47.1825 11.2961 47.2845 11.5591L47.2555 11.6001C46.9525 11.5441 46.7465 11.3511 46.5425 11.1831C46.3475 11.0031 46.2305 10.7611 46.0935 10.5401C45.8115 10.1001 45.5525 9.64813 45.3125 9.18513L45.3535 9.15613Z" fill="#5D74E0" blush:i="0.3.0.0.21"/><path id="Fill 161" fill-rule="evenodd" clip-rule="evenodd" d="M46.4343 8.06329C46.8632 8.26829 47.2882 8.47729 47.7062 8.68929C47.9192 8.79129 48.1453 8.86429 48.3283 9.00929C48.5073 9.16529 48.6822 9.30629 48.8382 9.52529L48.8203 9.57229C48.5413 9.61229 48.3063 9.52029 48.0773 9.44129C47.8532 9.34829 47.6793 9.17629 47.4933 9.02829C47.1173 8.73729 46.7542 8.42929 46.4062 8.10529L46.4343 8.06329Z" fill="#5D74E0" blush:i="0.3.0.0.22"/><path id="Fill 163" fill-rule="evenodd" clip-rule="evenodd" d="M47.0475 6.36212C47.4785 6.53612 47.9015 6.72212 48.3175 6.92012C48.5275 7.01412 48.7515 7.08412 48.9315 7.23012C49.1055 7.38712 49.2835 7.53712 49.4095 7.77912L49.3845 7.82212C49.1165 7.82912 48.9015 7.74212 48.6805 7.66312C48.4665 7.57312 48.2975 7.40612 48.1145 7.26412C47.7425 6.99012 47.3785 6.70312 47.0215 6.40512L47.0475 6.36212Z" fill="#5D74E0" blush:i="0.3.0.0.23"/><path id="Fill 165" fill-rule="evenodd" clip-rule="evenodd" d="M47.1422 4.5672C47.5572 4.7412 47.9672 4.9282 48.3712 5.1292C48.5752 5.2242 48.7962 5.2962 48.9682 5.4432C49.1332 5.5992 49.3032 5.7492 49.4112 5.9852L49.3832 6.0262C49.1132 6.0262 48.9052 5.9392 48.6922 5.8592C48.4862 5.7692 48.3292 5.6052 48.1552 5.4652C47.8032 5.1932 47.4572 4.9082 47.1172 4.6102L47.1422 4.5672Z" fill="#5D74E0" blush:i="0.3.0.0.24"/><path id="Fill 167" fill-rule="evenodd" clip-rule="evenodd" d="M17.4824 34.3992C17.5084 33.4722 17.6554 32.5512 17.8904 31.6492C18.1214 30.7472 18.4624 29.8552 19.0164 29.0602C19.6054 28.3062 20.1824 27.6272 20.7954 26.9302C21.4044 26.2412 22.0194 25.5552 22.6794 24.9032C22.1834 25.6832 21.6424 26.4302 21.0944 27.1722C20.5594 27.9152 19.9574 28.6492 19.4224 29.3532C18.9114 30.0642 18.5654 30.9102 18.2554 31.7612C17.9514 32.6182 17.7114 33.5032 17.4824 34.3992" fill="#5D74E0" blush:i="0.3.0.0.25"/><path id="Fill 169" fill-rule="evenodd" clip-rule="evenodd" d="M26.2937 25.116C24.7327 26.372 23.1918 27.622 21.7288 28.958C20.2648 30.295 18.8848 31.705 17.7188 33.337C18.1267 32.418 18.6948 31.575 19.3168 30.782C19.9448 29.992 20.6568 29.275 21.3918 28.589C22.1398 27.916 22.9187 27.28 23.7397 26.702C24.5587 26.122 25.3987 25.573 26.2937 25.116" fill="#5D74E0" blush:i="0.3.0.0.26"/><path id="Fill 171" fill-rule="evenodd" clip-rule="evenodd" d="M4.75 37.9422C5.404 37.5392 6.227 37.4012 7.014 37.5272C7.411 37.5832 7.79 37.7272 8.151 37.9002C8.506 38.0972 8.818 38.3142 9.129 38.5392C9.744 38.9962 10.332 39.4842 10.883 40.0112C11.436 40.5362 11.971 41.0792 12.451 41.6742C11.212 40.7822 10.045 39.8272 8.833 38.9422C8.229 38.4772 7.641 38.0882 6.936 37.9022C6.242 37.7152 5.48 37.7322 4.75 37.9422" fill="#5D74E0" blush:i="0.3.0.0.27"/><path id="Fill 173" fill-rule="evenodd" clip-rule="evenodd" d="M10.6094 41.0135C11.0064 41.2845 11.3314 41.6245 11.6564 41.9655C11.9524 42.3275 12.2854 42.6785 12.4514 43.1395C12.2974 42.9595 12.1164 42.8105 11.9554 42.6405L11.4714 42.1325C11.1694 41.7745 10.8564 41.4255 10.6094 41.0135" fill="#5D74E0" blush:i="0.3.0.0.28"/><path id="Fill 175" fill-rule="evenodd" clip-rule="evenodd" d="M7.91602 42.8084C8.58202 43.1374 9.20502 43.5234 9.84602 43.8774C10.158 44.0694 10.479 44.2424 10.798 44.4194C11.12 44.5924 11.438 44.7704 11.79 44.8874C11.036 44.8234 10.369 44.4364 9.72102 44.0944C9.08802 43.7104 8.46702 43.3084 7.91602 42.8084" fill="#5D74E0" blush:i="0.3.0.0.29"/><path id="Fill 177" fill-rule="evenodd" clip-rule="evenodd" d="M8.15186 45.3123C6.78086 45.2023 5.41286 45.0373 4.04586 44.8633C3.35986 44.7863 2.68086 44.6733 1.99886 44.5783C1.90686 44.5613 1.84186 44.5613 1.72886 44.5323C1.67286 44.5163 1.58886 44.4903 1.50386 44.3963C1.38786 44.2733 1.44386 44.0573 1.49486 44.0073C1.70286 43.7563 1.86786 43.7363 2.04886 43.6523C2.40186 43.5283 2.75786 43.4643 3.11386 43.4293C4.54086 43.3353 5.94586 43.6413 7.23386 44.1693C8.52386 44.7053 9.70286 45.4583 10.7509 46.3523C9.58186 45.6273 8.37586 44.9733 7.09686 44.5293C5.82486 44.0893 4.47786 43.8013 3.15786 43.9263C2.83086 43.9513 2.50486 44.0043 2.20786 44.1013C2.07486 44.1413 1.89486 44.2413 1.88586 44.2603C1.88086 44.2763 1.92486 44.1613 1.86386 44.1063C1.83786 44.0753 1.83386 44.0853 1.86086 44.0913C1.91286 44.1063 2.02086 44.1203 2.09786 44.1343C2.77186 44.2503 3.44886 44.3513 4.11986 44.4873C5.46486 44.7383 6.81086 44.9983 8.15186 45.3123" fill="#5D74E0" blush:i="0.3.0.0.30"/><path id="Fill 179" fill-rule="evenodd" clip-rule="evenodd" d="M4.13672 45.5487C5.43972 45.5827 6.72872 45.8147 7.99672 46.1097C9.25872 46.4277 10.5057 46.8347 11.6727 47.4147C10.4297 47.0277 9.19872 46.6417 7.93772 46.3517C7.31272 46.1867 6.67872 46.0537 6.04672 45.9197C5.41272 45.7897 4.77772 45.6587 4.13672 45.5487" fill="#5D74E0" blush:i="0.3.0.0.31"/><path id="Fill 181" fill-rule="evenodd" clip-rule="evenodd" d="M1.13556 46.161C1.29256 46.855 1.43556 47.55 1.56556 48.244C1.63456 48.591 1.73256 48.932 1.74256 49.287C1.73956 49.645 1.74756 50.001 1.64856 50.378L1.59956 50.387C1.41556 50.06 1.33756 49.714 1.24956 49.369C1.17456 49.021 1.18556 48.659 1.16956 48.303C1.12756 47.591 1.09956 46.879 1.08556 46.167L1.13556 46.161Z" fill="#5D74E0" blush:i="0.3.0.0.32"/><path id="Fill 183" fill-rule="evenodd" clip-rule="evenodd" d="M2.18883 45.9178C2.34283 46.5458 2.48483 47.1748 2.61783 47.8048C2.68883 48.1178 2.78983 48.4278 2.80583 48.7478C2.81183 49.0708 2.81783 49.3908 2.75583 49.7258L2.70883 49.7408C2.48683 49.4538 2.40783 49.1348 2.31183 48.8238C2.22983 48.5088 2.23883 48.1828 2.22183 47.8588C2.17583 47.2158 2.14983 46.5708 2.13983 45.9238L2.18883 45.9178Z" fill="#5D74E0" blush:i="0.3.0.0.33"/><path id="Fill 185" fill-rule="evenodd" clip-rule="evenodd" d="M3.4054 45.9969C3.6024 46.5489 3.7854 47.1039 3.9554 47.6639C4.0444 47.9419 4.1624 48.2159 4.1934 48.5069C4.2124 48.8009 4.2394 49.0919 4.1624 49.4039L4.1134 49.4139C3.9094 49.1579 3.8114 48.8819 3.7034 48.6069C3.6094 48.3309 3.6004 48.0359 3.5634 47.7469C3.4814 47.1709 3.4124 46.5909 3.3564 46.0079L3.4054 45.9969Z" fill="#5D74E0" blush:i="0.3.0.0.34"/><path id="Fill 187" fill-rule="evenodd" clip-rule="evenodd" d="M5.24514 46.2684C5.38914 46.7724 5.51814 47.2774 5.63514 47.7844C5.69714 48.0364 5.78814 48.2844 5.79214 48.5444C5.78314 48.8084 5.78314 49.0704 5.67814 49.3504L5.62814 49.3594C5.45114 49.1254 5.37914 48.8734 5.29814 48.6234C5.22914 48.3714 5.24814 48.1054 5.23914 47.8434C5.21114 47.3224 5.19614 46.7994 5.19614 46.2764L5.24514 46.2684Z" fill="#5D74E0" blush:i="0.3.0.0.35"/><path id="Fill 189" fill-rule="evenodd" clip-rule="evenodd" d="M7.00242 46.5672C7.12442 47.0782 7.23142 47.5942 7.32642 48.1142C7.37742 48.3732 7.45842 48.6322 7.45042 48.8952C7.42942 49.1582 7.41842 49.4202 7.30042 49.6792H7.25042C7.08242 49.4212 7.02142 49.1652 6.95042 48.9092C6.89342 48.6532 6.92442 48.3942 6.92642 48.1352C6.92142 47.6182 6.93042 47.0982 6.95242 46.5722L7.00242 46.5672Z" fill="#5D74E0" blush:i="0.3.0.0.36"/><path id="Fill 191" fill-rule="evenodd" clip-rule="evenodd" d="M8.84063 47.3231C8.99263 47.8501 9.13263 48.3791 9.26163 48.9081C9.33163 49.1731 9.42963 49.4311 9.44263 49.7031C9.44563 49.9751 9.44763 50.2551 9.37763 50.5321L9.33563 50.5571C9.11363 50.3121 9.04563 50.0501 8.94963 49.7871C8.87163 49.5231 8.88263 49.2451 8.86663 48.9711C8.82463 48.4271 8.79963 47.8801 8.79063 47.3311L8.84063 47.3231Z" fill="#5D74E0" blush:i="0.3.0.0.37"/><path id="Fill 193" fill-rule="evenodd" clip-rule="evenodd" d="M10.7063 47.6746C10.8543 48.2096 10.9893 48.7516 11.1103 49.2996C11.1763 49.5716 11.2703 49.8456 11.2763 50.1226C11.2683 50.4006 11.2713 50.6766 11.1663 50.9496H11.1163C10.9353 50.6786 10.8603 50.4096 10.7763 50.1416C10.7053 49.8736 10.7233 49.6026 10.7113 49.3296C10.6803 48.7856 10.6623 48.2376 10.6573 47.6826L10.7063 47.6746Z" fill="#5D74E0" blush:i="0.3.0.0.38"/><path id="Fill 195" fill-rule="evenodd" clip-rule="evenodd" d="M36.1445 57.2889C37.3615 56.8119 38.6175 56.4479 39.8815 56.1229C41.1465 55.7959 42.4305 55.5519 43.7165 55.3229C46.2965 54.9239 48.9135 54.6829 51.5225 54.8089C50.2255 54.9609 48.9325 55.0739 47.6455 55.2519C46.3585 55.4159 45.0735 55.5869 43.7965 55.8159C42.5135 56.0019 41.2405 56.2519 39.9655 56.4969C38.6895 56.7419 37.4195 57.0109 36.1445 57.2889" fill="#5D74E0" blush:i="0.3.0.0.39"/><path id="Fill 197" fill-rule="evenodd" clip-rule="evenodd" d="M35.5059 61.0448C37.0939 60.4308 38.7199 59.9208 40.3559 59.4498C41.9929 58.9788 43.6529 58.5928 45.3209 58.2378C46.9949 57.9198 48.6799 57.6328 50.3839 57.5028C52.0829 57.3758 53.8109 57.3208 55.4899 57.6438C53.7909 57.5288 52.0999 57.6808 50.4229 57.8848C48.7459 58.0928 47.0749 58.3728 45.4189 58.7278C43.7539 59.0388 42.1039 59.4298 40.4529 59.8208C38.8019 60.2128 37.1559 60.6268 35.5059 61.0448" fill="#5D74E0" blush:i="0.3.0.0.40"/><path id="Fill 199" fill-rule="evenodd" clip-rule="evenodd" d="M60.8771 21.5721C61.0131 23.1191 61.0331 24.6751 60.9631 26.2301C60.9181 27.7831 60.6211 29.3551 60.2151 30.8471C59.8011 32.3411 59.3971 33.8291 59.0961 35.3371C58.7871 36.8431 58.6101 38.3781 58.7151 39.9261C58.4021 38.4001 58.4831 36.8081 58.7171 35.2701C58.9441 33.7241 59.3561 32.2191 59.7321 30.7191C59.9341 29.9741 60.1451 29.2291 60.2811 28.4841C60.4211 27.7331 60.4961 26.9681 60.5821 26.2021C60.7301 24.6681 60.8071 23.1221 60.8771 21.5721" fill="#5D74E0" blush:i="0.3.0.0.41"/><path id="Fill 201" fill-rule="evenodd" clip-rule="evenodd" d="M63.498 43.4705C64.21 42.7955 65.009 42.2175 65.859 41.7145C66.288 41.4695 66.73 41.2415 67.204 41.0695C67.675 40.8995 68.169 40.7515 68.702 40.7435C68.838 40.7425 68.95 40.8515 68.951 40.9865C68.953 41.0885 68.889 41.1775 68.801 41.2165C68.103 41.5225 67.417 41.9195 66.769 42.3505C66.123 42.7925 65.525 43.3025 64.986 43.8955C65.376 43.1955 65.929 42.5805 66.553 42.0665C67.173 41.5375 67.858 41.1085 68.612 40.7635L68.711 41.2355C67.816 41.2895 66.91 41.6655 66.051 42.0775C65.18 42.4855 64.344 42.9785 63.498 43.4705" fill="#5D74E0" blush:i="0.3.0.0.42"/><path id="Fill 203" fill-rule="evenodd" clip-rule="evenodd" d="M71.1164 42.0174C70.1814 42.4934 69.3024 42.9884 68.4854 43.5814C68.0704 43.8684 67.6824 44.1884 67.3004 44.5214C66.9104 44.8484 66.5714 45.2274 66.1914 45.5964C66.5994 44.6244 67.3304 43.7884 68.1954 43.1754C69.0624 42.5674 70.0624 42.1204 71.1164 42.0174" fill="#5D74E0" blush:i="0.3.0.0.43"/><path id="Fill 205" fill-rule="evenodd" clip-rule="evenodd" d="M64.738 48.1415C65.06 48.6935 65.392 49.2395 65.736 49.7745L66.268 50.5605C66.436 50.8275 66.593 51.0955 66.811 51.3255C66.817 51.3295 66.819 51.3365 66.815 51.3425C66.812 51.3475 66.804 51.3485 66.8 51.3475C66.481 51.2235 66.27 50.9475 66.063 50.7045C65.873 50.4415 65.712 50.1625 65.564 49.8765C65.255 49.3135 64.974 48.7385 64.716 48.1535C64.713 48.1465 64.716 48.1395 64.722 48.1365C64.728 48.1335 64.735 48.1365 64.738 48.1415" fill="#5D74E0" blush:i="0.3.0.0.44"/><path id="Fill 207" fill-rule="evenodd" clip-rule="evenodd" d="M65.0924 47.5496C65.3904 47.8856 65.6924 48.2166 65.9994 48.5396C66.1604 48.6946 66.3144 48.8546 66.4664 49.0126C66.6094 49.1816 66.7454 49.3466 66.9054 49.5056C66.9114 49.5096 66.9134 49.5186 66.9094 49.5246C66.9064 49.5276 66.9004 49.5286 66.8964 49.5286C66.6534 49.4886 66.4664 49.3296 66.2894 49.1896C66.1244 49.0296 65.9804 48.8546 65.8474 48.6706C65.5704 48.3146 65.3134 47.9446 65.0724 47.5646C65.0684 47.5586 65.0704 47.5506 65.0764 47.5466C65.0814 47.5436 65.0884 47.5446 65.0924 47.5496" fill="#5D74E0" blush:i="0.3.0.0.45"/><path id="Fill 209" fill-rule="evenodd" clip-rule="evenodd" d="M66.0619 46.7489C66.2089 46.9829 66.3699 47.2069 66.5399 47.4159C66.7369 47.6119 66.8869 47.8019 67.0259 48.0659C67.0299 48.0729 67.0279 48.0809 67.0209 48.0849C67.0189 48.0869 67.0149 48.0869 67.0119 48.0869C66.7039 48.0249 66.4949 47.7859 66.3759 47.5299C66.2339 47.2839 66.1219 47.0259 66.0389 46.7589C66.0369 46.7519 66.0409 46.7449 66.0469 46.7429C66.0529 46.7409 66.0589 46.7439 66.0619 46.7489" fill="#5D74E0" blush:i="0.3.0.0.46"/><path id="Fill 211" fill-rule="evenodd" clip-rule="evenodd" d="M66.817 46.1092L67.205 46.5662C67.359 46.7022 67.444 46.8702 67.495 47.0722L67.498 47.0832C67.499 47.0882 67.496 47.0942 67.49 47.0952C67.489 47.0962 67.488 47.0962 67.487 47.0962C67.346 47.0932 67.269 47.0052 67.19 46.9412C67.126 46.8602 67.075 46.7722 67.038 46.6762C66.946 46.4972 66.866 46.3112 66.796 46.1222C66.793 46.1162 66.796 46.1082 66.803 46.1062C66.808 46.1042 66.814 46.1052 66.817 46.1092" fill="#5D74E0" blush:i="0.3.0.0.47"/><path id="Fill 213" fill-rule="evenodd" clip-rule="evenodd" d="M67.0277 45.2099L67.5057 45.6379C67.6867 45.7599 67.8057 45.9219 67.8957 46.1279L67.8987 46.1349C67.9017 46.1409 67.8987 46.1469 67.8927 46.1499C67.8917 46.1509 67.8897 46.1509 67.8887 46.1509C67.7457 46.1609 67.6517 46.0829 67.5587 46.0249C67.4787 45.9499 67.4117 45.8639 67.3567 45.7709C67.2307 45.5959 67.1147 45.4139 67.0077 45.2269C67.0047 45.2199 67.0067 45.2119 67.0127 45.2089C67.0177 45.2059 67.0237 45.2069 67.0277 45.2099" fill="#5D74E0" blush:i="0.3.0.0.48"/><path id="Fill 215" fill-rule="evenodd" clip-rule="evenodd" d="M67.737 44.7616C67.873 44.8666 68 44.9816 68.117 45.1086C68.254 45.2166 68.355 45.3776 68.306 45.5906C68.304 45.5996 68.296 45.6046 68.287 45.6026C68.286 45.6026 68.284 45.6016 68.283 45.6016C68.097 45.5076 68.012 45.3886 67.955 45.2236L67.718 44.7776C67.715 44.7716 67.717 44.7636 67.723 44.7606C67.728 44.7576 67.733 44.7586 67.737 44.7616" fill="#5D74E0" blush:i="0.3.0.0.49"/><path id="Fill 217" fill-rule="evenodd" clip-rule="evenodd" d="M68.988 43.8856C69.097 43.9386 69.199 44.0026 69.294 44.0756C69.407 44.1316 69.486 44.2386 69.439 44.4076C69.436 44.4176 69.427 44.4226 69.418 44.4216C69.247 44.3996 69.182 44.3246 69.144 44.2086L68.971 43.9046C68.967 43.8986 68.969 43.8906 68.976 43.8866C68.979 43.8846 68.984 43.8846 68.988 43.8856" fill="#5D74E0" blush:i="0.3.0.0.50"/><path id="Fill 219" fill-rule="evenodd" clip-rule="evenodd" d="M70.0984 43.1307C70.2244 43.2077 70.3444 43.2927 70.4574 43.3887C70.5844 43.4657 70.6914 43.5957 70.6444 43.7957C70.6414 43.8037 70.6334 43.8097 70.6254 43.8077L70.6214 43.8057C70.4464 43.7477 70.3614 43.6607 70.3064 43.5197L70.0804 43.1487C70.0774 43.1427 70.0784 43.1347 70.0844 43.1307C70.0894 43.1277 70.0944 43.1277 70.0984 43.1307" fill="#5D74E0" blush:i="0.3.0.0.51"/><path id="Fill 221" fill-rule="evenodd" clip-rule="evenodd" d="M71.0673 42.4227C71.2033 42.5327 71.3323 42.6517 71.4513 42.7797C71.5853 42.8907 71.7073 43.0517 71.6363 43.2787C71.6343 43.2857 71.6283 43.2897 71.6213 43.2877C71.6203 43.2877 71.6193 43.2867 71.6183 43.2867L71.6123 43.2827C71.4463 43.1797 71.3463 43.0677 71.2893 42.8967L71.0473 42.4387C71.0443 42.4327 71.0463 42.4247 71.0533 42.4217C71.0583 42.4187 71.0633 42.4197 71.0673 42.4227" fill="#5D74E0" blush:i="0.3.0.0.52"/></g></g></g><g id="Male Character/Accesories" blush:component="Male Character/Accesories" blush:defaultValue="Glasses" blush:width="34" blush:height="36" transform="translate(108 70) scale(1 1)" blush:i="0.4" blush:value="Glasses" blush:viewBox="5.834745762711865 15.479999999999997 21.790254237288135 5.940000000000005"><g id="Male Character/Accesories/Glasses" blush:viewBox="5.834745762711865 15.479999999999997 21.790254237288135 5.940000000000005" blush:i="0.4.0"><g id="Accesories" blush:i="0.4.0.0"><path id="Rectangle" fill-rule="evenodd" clip-rule="evenodd" d="M13.0977 15.625H18.0977C18.857 15.625 19.4727 16.2406 19.4727 17V20C19.4727 20.7594 18.857 21.375 18.0977 21.375H13.0977C12.3383 21.375 11.7227 20.7594 11.7227 20V17C11.7227 16.2406 12.3383 15.625 13.0977 15.625ZM18.0977 16.375H13.0977C12.7525 16.375 12.4727 16.6548 12.4727 17V20C12.4727 20.3452 12.7525 20.625 13.0977 20.625H18.0977C18.4428 20.625 18.7227 20.3452 18.7227 20V17C18.7227 16.6548 18.4428 16.375 18.0977 16.375Z" fill="#1E2214" blush:i="0.4.0.0.0"/><path id="Rectangle Copy" fill-rule="evenodd" clip-rule="evenodd" d="M22.0977 15.625H26.0977C26.857 15.625 27.4727 16.2406 27.4727 17V20C27.4727 20.7594 26.857 21.375 26.0977 21.375H22.0977C21.3383 21.375 20.7227 20.7594 20.7227 20V17C20.7227 16.2406 21.3383 15.625 22.0977 15.625ZM26.0977 16.375H22.0977C21.7525 16.375 21.4727 16.6548 21.4727 17V20C21.4727 20.3452 21.7525 20.625 22.0977 20.625H26.0977C26.4428 20.625 26.7227 20.3452 26.7227 20V17C26.7227 16.6548 26.4428 16.375 26.0977 16.375Z" fill="#1E2214" blush:i="0.4.0.0.1"/><path id="Path 2" fill-rule="evenodd" clip-rule="evenodd" d="M19.082 17.9887C19.082 17.9887 20.4886 17.4275 21.082 17.9887L20.9949 17.0113H19.082V17.9887Z" fill="#1E2214" blush:i="0.4.0.0.2"/><path id="Path 3" fill-rule="evenodd" clip-rule="evenodd" d="M12.2395 17.5L6 17.2817V16.7135L12.3993 16.1693L12.2395 17.5Z" fill="#1E2214" blush:i="0.4.0.0.3"/></g></g></g></g></svg>