<svg viewBox="2.3499999999999943 19.97500000000001 89.29999999999997 51.699999999999996" fill="none" xmlns="http://www.w3.org/2000/svg" xmlns:xlink="http://www.w3.org/1999/xlink" xmlns:blush="http://design.blush" overflow="visible" width="89.29999999999997px" height="51.699999999999996px"><g id="Master/New Stickers/Lines Three Dots Bubble" blush:has-customizable-colors="true" blush:viewBox="2.3499999999999943 20.210000000000008 89.29999999999997 51.22999999999999" blush:i="0"><g id="Group 290" blush:i="0.0"><path id="Rectangle 25 (Stroke)" fill-rule="evenodd" clip-rule="evenodd" d="M78.4254 21.6633H15.7487C9.22347 21.6633 3.93373 26.9531 3.93373 33.4783V44.0194C3.93373 50.5446 9.22347 55.8343 15.7487 55.8343H70.0353C73.9263 55.8343 77.6517 57.4095 80.3624 60.201L89.8467 69.9674C89.8956 70.0178 89.9348 70.0316 89.9634 70.0368C89.9994 70.0435 90.047 70.0406 90.0973 70.0202C90.1476 69.9998 90.1838 69.9687 90.205 69.9389C90.2218 69.9151 90.2404 69.8779 90.2404 69.8077V33.4783C90.2404 26.9531 84.9506 21.6633 78.4254 21.6633ZM15.7487 20.3731C8.51093 20.3731 2.64355 26.2405 2.64355 33.4783V44.0194C2.64355 51.2571 8.51093 57.1245 15.7487 57.1245H70.0353C73.5776 57.1245 76.969 58.5585 79.4369 61.0998L88.9211 70.8663C89.8716 71.8451 91.5306 71.1722 91.5306 69.8077V33.4783C91.5306 26.2405 85.6632 20.3731 78.4254 20.3731H15.7487Z" fill="#EABD91" blush:i="0.0.0"/><g id="Group 289" blush:i="0.0.1"><circle id="Ellipse 8" cx="29.1383" cy="40.2209" r="2.84894" fill="#EABD91" blush:i="0.0.1.0"/><circle id="Ellipse 9" cx="47.0865" cy="40.2209" r="2.84894" fill="#EABD91" blush:i="0.0.1.1"/><circle id="Ellipse 10" cx="65.0348" cy="40.2209" r="2.84894" fill="#EABD91" blush:i="0.0.1.2"/></g></g></g></svg>