<svg viewBox="37.04999999999998 21.956647398843927 179.07500000000002 170.08670520231215" fill="none" xmlns="http://www.w3.org/2000/svg" xmlns:xlink="http://www.w3.org/1999/xlink" xmlns:blush="http://design.blush" overflow="visible" width="179.07500000000002px" height="170.08670520231215px"><g id="Master/Backgrounds/Brush Dots" blush:has-customizable-colors="true" blush:viewBox="0 -1.1120092378752702 246.99999999999994 216.22401847575057" blush:i="0"><g id="Blush/Backgrounds/Brush Dots" blush:i="0.0"><g id="Texture Backgrounds" blush:component="Texture Backgrounds" blush:defaultValue="Spots 2" blush:width="247" blush:height="214" blush:i="0.0.0" blush:value="Spots 2" transform="scale(1 1)" blush:viewBox="38.285 24.834872979214794 177.84000000000003 165.56581986143186"><g id="Texture Backgrounds/Spots 2" blush:viewBox="38.285 24.834872979214794 177.84000000000003 165.56581986143186" blush:i="0.0.0.0"><g id="Group 2" blush:i="0.0.0.0.0"><path id="Fill 2056" fill-rule="evenodd" clip-rule="evenodd" d="M34.498 99.4987C34.507 99.5047 34.498 99.4987 34.498 99.4987C34.501 99.4987 34.504 99.5017 34.498 99.4987" fill="#BCE378" blush:i="0.0.0.0.0.0"/><path id="Fill 2084" fill-rule="evenodd" clip-rule="evenodd" d="M84.9038 89.654C93.3312 92.2381 90.0488 79.3977 84.1148 82.4814C80.4859 83.8444 82.0469 88.1841 84.9038 89.654" fill="#FCFEA6" blush:i="0.0.0.0.0.1"/><path id="Fill 2088" fill-rule="evenodd" clip-rule="evenodd" d="M104.381 106C107.704 103.288 111.012 107.654 112 102.983C110.824 98.1574 93.9679 103.322 104.381 106" fill="#BFE050" blush:i="0.0.0.0.0.2"/><path id="Fill 2094" fill-rule="evenodd" clip-rule="evenodd" d="M125.224 143.975C126.08 144.2 128.022 144.706 126.31 145.415C119.878 152.654 137.571 150.51 128.199 144.602C133.114 134.593 117.402 131.999 125.224 143.975" fill="#BCDF48" blush:i="0.0.0.0.0.3"/><path id="Fill 2096" fill-rule="evenodd" clip-rule="evenodd" d="M190.464 69.0136C187.248 69.1793 186.989 77.6827 190.826 76.9559C193.452 75.748 194.114 68.6482 190.464 69.0136" fill="#BCDF48" blush:i="0.0.0.0.0.4"/><path id="Fill 2098" fill-rule="evenodd" clip-rule="evenodd" d="M59.8331 116.097C60.3451 112.706 59.7206 106.485 57.3822 106C53.403 106.706 54.5357 120.623 59.8331 116.097" fill="#B4D741" blush:i="0.0.0.0.0.5"/><path id="Fill 2100" fill-rule="evenodd" clip-rule="evenodd" d="M126 117.422C128.211 117.565 130.273 121.527 133.214 119.346C136.956 112.142 126.128 108.119 126 117.422" fill="#F8FB9B" blush:i="0.0.0.0.0.6"/><path id="Fill 2104" fill-rule="evenodd" clip-rule="evenodd" d="M128 136.872C128.618 138.422 128.503 140.199 129.573 141.495C135.926 145.169 132.284 127.259 128 136.872" fill="#FCFEA6" blush:i="0.0.0.0.0.7"/><path id="Fill 2108" fill-rule="evenodd" clip-rule="evenodd" d="M101.517 70.7375C99.3473 74.4276 104.502 79.2544 107.768 75.831C111.959 72.6766 104.341 65.7839 101.517 70.7375" fill="#FCFEA6" blush:i="0.0.0.0.0.8"/><path id="Fill 2112" fill-rule="evenodd" clip-rule="evenodd" d="M116.547 47.4438C112.561 46.0476 110.159 48.1733 109 50.6563C112.407 53.0234 118.746 52.4478 116.547 47.4438" fill="#F8FB9B" blush:i="0.0.0.0.0.9"/><path id="Fill 2114" fill-rule="evenodd" clip-rule="evenodd" d="M134.093 113.612C132.861 127.24 144.461 115.142 135.703 113.068C143.056 111.293 135.386 104.577 134.093 113.612" fill="#BFE050" blush:i="0.0.0.0.0.10"/><path id="Fill 2120" fill-rule="evenodd" clip-rule="evenodd" d="M84.0733 147.276C81.7377 149.576 80.2969 157.369 85.8325 154.29C88.1601 153.396 86.7129 145.432 84.0733 147.276" fill="#FCFEA6" blush:i="0.0.0.0.0.11"/><path id="Fill 2128" fill-rule="evenodd" clip-rule="evenodd" d="M152.376 93C156.588 92.3309 155.215 83.0594 151.869 85.3685C149.203 86.7221 149.405 92.7201 152.376 93" fill="#BFE050" blush:i="0.0.0.0.0.12"/><path id="Fill 2132" fill-rule="evenodd" clip-rule="evenodd" d="M127.447 55C131.483 54.4084 132.725 46.194 127.738 47.0645C121.448 47.6176 121.492 54.2353 127.447 55" fill="#FCFEA6" blush:i="0.0.0.0.0.13"/><path id="Fill 2134" fill-rule="evenodd" clip-rule="evenodd" d="M147.477 97.9503C144.721 105.07 154.793 106.418 155 99.2262C153.498 96.0024 149.71 94.5454 147.477 97.9503" fill="#FCFEA6" blush:i="0.0.0.0.0.14"/><path id="Fill 2136" fill-rule="evenodd" clip-rule="evenodd" d="M74.0071 142.265C73.8053 147.059 77.9788 149.056 78.9233 144.212C79.6797 139.07 74.6095 136.549 74.0071 142.265" fill="#BCDF48" blush:i="0.0.0.0.0.15"/><path id="Fill 2138" fill-rule="evenodd" clip-rule="evenodd" d="M126.524 81.0493C128.873 78.2476 128.477 73.1006 124.913 74.1354C121.381 77.0975 123.225 84.644 126.524 81.0493" fill="#FCFEA6" blush:i="0.0.0.0.0.16"/><path id="Fill 2140" fill-rule="evenodd" clip-rule="evenodd" d="M92.9803 72.818C88.6233 69.2535 86.0974 71.3708 85 75.3717C89.0198 75.3542 93.3277 77.9159 92.9803 72.818" fill="#BCDF48" blush:i="0.0.0.0.0.17"/><path id="Fill 2142" fill-rule="evenodd" clip-rule="evenodd" d="M165.975 121.228C166.496 117.649 158.826 116.844 158 119.838C158.318 122.793 164.939 124.486 165.975 121.228" fill="#FCFEA6" blush:i="0.0.0.0.0.18"/><path id="Fill 2144" fill-rule="evenodd" clip-rule="evenodd" d="M82.8904 76.4879C84.3417 73.7883 84.8782 68.7956 81.2724 69.0065C77.4334 69.7379 78.7847 79.2863 82.8904 76.4879" fill="#F8FB9B" blush:i="0.0.0.0.0.19"/><path id="Fill 2146" fill-rule="evenodd" clip-rule="evenodd" d="M211.777 101C220.221 100.155 209.708 93.0553 207.045 97.3935C206.58 98.9014 209.793 100.69 211.777 101" fill="#BCDF48" blush:i="0.0.0.0.0.20"/><path id="Fill 2150" fill-rule="evenodd" clip-rule="evenodd" d="M158.417 108.997C162.767 109.178 161.106 99.5818 157.255 101.18C154.574 103.223 156.777 107.282 158.417 108.997" fill="#BFE050" blush:i="0.0.0.0.0.21"/><path id="Fill 2152" fill-rule="evenodd" clip-rule="evenodd" d="M181.623 141.978C186.153 141.848 185.953 137.805 182.054 137C176.616 137.205 174.303 142.375 181.623 141.978" fill="#FCFEA6" blush:i="0.0.0.0.0.22"/><path id="Fill 2154" fill-rule="evenodd" clip-rule="evenodd" d="M115.002 98.3026C116.506 101.146 123.597 101.622 122.96 100.29C123.386 96.6933 114.841 93.7937 115.002 98.3026" fill="#FCFEA6" blush:i="0.0.0.0.0.23"/><path id="Fill 2156" fill-rule="evenodd" clip-rule="evenodd" d="M93.3624 117.175C88.8648 115.792 89.31 123.01 92.1704 125C95.7741 124.57 95.6649 119.556 93.3624 117.175" fill="#BCDF48" blush:i="0.0.0.0.0.24"/><path id="Fill 2158" fill-rule="evenodd" clip-rule="evenodd" d="M152.285 75.3249C150.605 73.3098 145.778 73.6684 145 75.8914C146.33 80.1423 155.61 80.109 152.285 75.3249" fill="#BCDF48" blush:i="0.0.0.0.0.25"/><path id="Fill 2162" fill-rule="evenodd" clip-rule="evenodd" d="M128.173 64.2412C127.158 67.3043 130.85 69.2636 132.937 67.0545C133.545 64.6803 129.593 61.0782 128.173 64.2412" fill="#FCFEA6" blush:i="0.0.0.0.0.26"/><path id="Fill 2164" fill-rule="evenodd" clip-rule="evenodd" d="M186.002 173.408C185.9 175.837 189.944 178.746 190.96 175.677C191.433 172.837 187.548 170.338 186.002 173.408" fill="#BFE050" blush:i="0.0.0.0.0.27"/><path id="Fill 2166" fill-rule="evenodd" clip-rule="evenodd" d="M157.75 110.007C156.389 104.545 151.978 107.297 153.217 112.118C154.192 117.262 159.159 114.875 157.75 110.007" fill="#FCFEA6" blush:i="0.0.0.0.0.28"/><path id="Fill 2168" fill-rule="evenodd" clip-rule="evenodd" d="M64.9178 128C62.1896 128.669 62.7423 132.831 64.2874 135.173C68.709 139.062 69.5001 127.97 64.9178 128" fill="#BFE050" blush:i="0.0.0.0.0.29"/><path id="Fill 2170" fill-rule="evenodd" clip-rule="evenodd" d="M131 42.4798C130.915 39.6187 127.346 37.1557 126 40.9062C126.184 43.4081 130.132 45.5586 131 42.4798" fill="#BFE050" blush:i="0.0.0.0.0.30"/><path id="Fill 2172" fill-rule="evenodd" clip-rule="evenodd" d="M131.409 115C134.598 113.781 132.21 109.384 130.99 107C126.163 108.956 127.83 112.54 131.409 115" fill="#BCDF48" blush:i="0.0.0.0.0.31"/><path id="Fill 2174" fill-rule="evenodd" clip-rule="evenodd" d="M109.146 87C113.602 86.5526 112.456 75.6007 108.355 80.0695C106.055 82.0199 106.928 86.3041 109.146 87" fill="#FCFEA6" blush:i="0.0.0.0.0.32"/><path id="Fill 2176" fill-rule="evenodd" clip-rule="evenodd" d="M96.4763 61.8156C95.2852 64.0324 96.5117 66.5331 98.134 67.9999C103.591 68.0448 100.24 55.4019 96.4763 61.8156" fill="#F8FB9B" blush:i="0.0.0.0.0.33"/><path id="Fill 2178" fill-rule="evenodd" clip-rule="evenodd" d="M117 90.3027C115.524 86.5756 111.707 88.2832 109.07 89.174C108.227 93.4784 115.234 94.5554 117 90.3027" fill="#FCFEA6" blush:i="0.0.0.0.0.34"/><path id="Fill 2180" fill-rule="evenodd" clip-rule="evenodd" d="M77 133.168C77.0516 136.129 80.6187 137.171 81.9298 134.323C82.6526 130.834 77.5679 129.542 77 133.168" fill="#FCFEA6" blush:i="0.0.0.0.0.35"/><path id="Fill 2182" fill-rule="evenodd" clip-rule="evenodd" d="M151.489 115.778C147.434 112.269 146.857 121.695 150.056 122.974C153.41 123.401 153.913 118.454 151.489 115.778" fill="#FCFEA6" blush:i="0.0.0.0.0.36"/><path id="Fill 2184" fill-rule="evenodd" clip-rule="evenodd" d="M123.708 127.519C127.106 125.597 123.011 121.154 120.48 123.841C118.807 125.693 121.903 129.302 123.708 127.519" fill="#FCFEA6" blush:i="0.0.0.0.0.37"/><path id="Fill 2186" fill-rule="evenodd" clip-rule="evenodd" d="M129.774 66C131.795 63.5071 134.81 66.5248 135.929 64.3347C137.105 58.2302 123.198 61.5474 129.774 66" fill="#BFE050" blush:i="0.0.0.0.0.38"/><path id="Fill 2188" fill-rule="evenodd" clip-rule="evenodd" d="M139 140.79C139.145 143.221 139.445 148.209 142.211 146.731C146.488 143.947 142.156 135.295 139 140.79" fill="#BCDF48" blush:i="0.0.0.0.0.39"/><path id="Fill 2190" fill-rule="evenodd" clip-rule="evenodd" d="M76.6071 161C80.7717 160.555 78.9139 155 75.4945 156.159C72.8763 157.162 73.9855 160.896 76.6071 161" fill="#BFE050" blush:i="0.0.0.0.0.40"/><path id="Fill 2192" fill-rule="evenodd" clip-rule="evenodd" d="M116.726 82C113.182 83.458 115.699 88.8179 118.868 86.3677C121.453 84.619 119.124 82.2766 116.726 82" fill="#BFE050" blush:i="0.0.0.0.0.41"/><path id="Fill 2194" fill-rule="evenodd" clip-rule="evenodd" d="M127.026 157.552C130.937 159.642 132.897 153.79 128.467 153.003C126.314 152.881 124.957 156.165 127.026 157.552" fill="#BCDF48" blush:i="0.0.0.0.0.42"/><path id="Fill 2196" fill-rule="evenodd" clip-rule="evenodd" d="M103.743 150C111.965 137.362 94.3469 142.051 103.955 148.059C104.742 148.178 103.195 149.182 103.743 150" fill="#FCFEA6" blush:i="0.0.0.0.0.43"/><path id="Fill 2198" fill-rule="evenodd" clip-rule="evenodd" d="M169 95.6112C168.365 92.5995 164.698 91.837 164 95.2309C164.063 98.4997 168.447 99.1788 169 95.6112" fill="#BFE050" blush:i="0.0.0.0.0.44"/><path id="Fill 2200" fill-rule="evenodd" clip-rule="evenodd" d="M121.503 136C128.202 135.631 124.113 128.935 118.943 131.643C114.034 133.379 119.765 134.802 121.503 136" fill="#BCDF48" blush:i="0.0.0.0.0.45"/><path id="Fill 2202" fill-rule="evenodd" clip-rule="evenodd" d="M153.01 115C154.829 117.678 155.054 119.156 153 121.227C158.753 127.512 160.518 115.072 153.01 115" fill="#BFE050" blush:i="0.0.0.0.0.46"/><path id="Fill 2204" fill-rule="evenodd" clip-rule="evenodd" d="M104.499 168.249C106.617 170.078 109.869 168.343 108.784 165.441C107.636 162.001 102.377 165.442 104.499 168.249" fill="#BCDF48" blush:i="0.0.0.0.0.47"/><path id="Fill 2206" fill-rule="evenodd" clip-rule="evenodd" d="M90.0169 155.744C90.4614 160.151 97.059 157.299 94.3488 154.005C92.9919 151.737 89.7376 153.742 90.0169 155.744" fill="#BCDF48" blush:i="0.0.0.0.0.48"/><path id="Fill 2210" fill-rule="evenodd" clip-rule="evenodd" d="M70.1018 107.392C67.0974 110.697 70.864 113.821 73.9195 110.735C74.4937 108.976 71.8671 105.912 70.1018 107.392" fill="#FCFEA6" blush:i="0.0.0.0.0.49"/><path id="Fill 2212" fill-rule="evenodd" clip-rule="evenodd" d="M109.573 180.946C110.942 183.921 115.126 179.839 113.712 178.037C111.614 175.314 107.486 178.546 109.573 180.946" fill="#BCDF48" blush:i="0.0.0.0.0.50"/><path id="Fill 2214" fill-rule="evenodd" clip-rule="evenodd" d="M120.214 69C118.645 69.3111 117.42 71.2425 118.288 72.7277C122.209 76.9255 125.587 69.4273 120.214 69" fill="#BFE050" blush:i="0.0.0.0.0.51"/><path id="Fill 2216" fill-rule="evenodd" clip-rule="evenodd" d="M81.2431 166.008C77.8843 166.411 78.5203 171.028 81.6732 171C85.1368 170.481 84.5171 165.784 81.2431 166.008" fill="#BCDF48" blush:i="0.0.0.0.0.52"/><path id="Fill 2218" fill-rule="evenodd" clip-rule="evenodd" d="M113.995 156.226C114.232 150.43 106.214 153.447 110.033 157.448C110.892 158.448 114.071 158.118 113.995 156.226" fill="#FCFEA6" blush:i="0.0.0.0.0.53"/><path id="Fill 2220" fill-rule="evenodd" clip-rule="evenodd" d="M94.927 187.864C95.6338 184.701 90.9979 184.044 90.1258 186.465C89.0639 189.968 95.0784 191.613 94.927 187.864" fill="#BCDF48" blush:i="0.0.0.0.0.54"/><path id="Fill 2222" fill-rule="evenodd" clip-rule="evenodd" d="M120.016 174.273C119.73 176.694 123.407 177.938 124.635 176.162C126.495 173.029 120.673 169.637 120.016 174.273" fill="#BCDF48" blush:i="0.0.0.0.0.55"/><path id="Fill 2224" fill-rule="evenodd" clip-rule="evenodd" d="M64.3627 118.462C61.5278 116.564 58.1477 121.025 61.2112 122.653C63.8843 124.097 66.1494 120.712 64.3627 118.462" fill="#FCFEA6" blush:i="0.0.0.0.0.56"/><path id="Fill 2226" fill-rule="evenodd" clip-rule="evenodd" d="M177.463 66C175.955 66.387 173.678 69.2282 175.981 70.556C179.598 72.7411 182.127 66.1597 177.463 66" fill="#BFE050" blush:i="0.0.0.0.0.57"/><path id="Fill 2228" fill-rule="evenodd" clip-rule="evenodd" d="M101 60.7055C102.577 64.2138 106.728 63.6678 105.889 59.2812C103.472 57.1068 101.961 57.7778 101 60.7055" fill="#F8FB9B" blush:i="0.0.0.0.0.58"/><path id="Fill 2230" fill-rule="evenodd" clip-rule="evenodd" d="M88.7634 134.952C87.4973 135.711 87.6779 139.984 90.2807 138.791C95.347 138.052 92.4478 131.618 88.7634 134.952" fill="#BCDF48" blush:i="0.0.0.0.0.59"/><path id="Fill 2232" fill-rule="evenodd" clip-rule="evenodd" d="M139 101.114C139.2 104.264 142.677 105.221 143.95 102.025C144.572 99.1279 139.234 97.4105 139 101.114" fill="#FCFEA6" blush:i="0.0.0.0.0.60"/><path id="Fill 2234" fill-rule="evenodd" clip-rule="evenodd" d="M112.12 132.619C107.591 130.008 105.092 130.416 108.779 134.865C113.28 139.453 118.298 128.364 112.12 132.619" fill="#BCDF48" blush:i="0.0.0.0.0.61"/><path id="Fill 2236" fill-rule="evenodd" clip-rule="evenodd" d="M153 160.552C153.409 166.336 161.473 160.362 156.24 158.036C154.765 157.761 153.034 159.088 153 160.552" fill="#BFE050" blush:i="0.0.0.0.0.62"/><path id="Fill 2240" fill-rule="evenodd" clip-rule="evenodd" d="M164.012 109.221C163.695 113.317 169.537 112.549 168.96 109.104C168.322 105.997 164.517 106.583 164.012 109.221" fill="#BCDF48" blush:i="0.0.0.0.0.63"/><path id="Fill 2242" fill-rule="evenodd" clip-rule="evenodd" d="M67.9936 172.055C68.163 169.51 64.955 168.015 63.0696 169.745C62.4793 172.826 65.7766 176.238 67.9936 172.055" fill="#BCDF48" blush:i="0.0.0.0.0.64"/><path id="Fill 2244" fill-rule="evenodd" clip-rule="evenodd" d="M79 111.489C79.403 116.383 86.0606 113.191 83.3552 109.805C81.6112 107.785 79.9117 110.031 79 111.489" fill="#F8FB9B" blush:i="0.0.0.0.0.65"/><path id="Fill 2246" fill-rule="evenodd" clip-rule="evenodd" d="M161.081 51.0188C160.483 53.4712 163.308 56.1186 165.786 54.5066C166.855 51.3063 163.707 48.3933 161.081 51.0188" fill="#BFE050" blush:i="0.0.0.0.0.66"/><path id="Fill 2248" fill-rule="evenodd" clip-rule="evenodd" d="M117 149.683C117.043 146.618 112.454 145.865 112.013 149.084C111.711 152.665 116.651 153.045 117 149.683" fill="#BCDF48" blush:i="0.0.0.0.0.67"/><path id="Fill 2250" fill-rule="evenodd" clip-rule="evenodd" d="M127.485 91.4121C124.623 88.9628 121.932 89.7302 123.427 93.4768C124.292 96.8115 129.661 94.0035 127.485 91.4121" fill="#FCFEA6" blush:i="0.0.0.0.0.68"/><path id="Fill 2252" fill-rule="evenodd" clip-rule="evenodd" d="M101.351 128C102.984 125.313 105.858 122.91 102.295 120C98.9542 120.132 97.3753 127.476 101.351 128" fill="#BCDF48" blush:i="0.0.0.0.0.69"/><path id="Fill 2254" fill-rule="evenodd" clip-rule="evenodd" d="M93 102.927C91.2271 99.5273 87.9085 101.18 88.0019 103.632C90.1079 106.992 91.4606 106.793 93 102.927" fill="#FCFEA6" blush:i="0.0.0.0.0.70"/><path id="Fill 2256" fill-rule="evenodd" clip-rule="evenodd" d="M141.5 164C137.822 164.28 138.542 168.487 141.461 169C144.905 168.565 144.774 164.254 141.5 164" fill="#BFE050" blush:i="0.0.0.0.0.71"/><path id="Fill 2258" fill-rule="evenodd" clip-rule="evenodd" d="M93.8207 77.705C92.0533 79.0174 93.3204 81.988 95.9063 82C100.256 81.3034 96.9664 74.9047 93.8207 77.705" fill="#BFE050" blush:i="0.0.0.0.0.72"/><path id="Fill 2260" fill-rule="evenodd" clip-rule="evenodd" d="M192.998 139.808C193.139 134.684 185.855 137.459 188.632 141.1C189.819 143.049 193.051 141.468 192.998 139.808" fill="#BFE050" blush:i="0.0.0.0.0.73"/><path id="Fill 2262" fill-rule="evenodd" clip-rule="evenodd" d="M150.365 131C147.033 131.11 147.485 135.966 150.084 136C153.982 136.005 153.867 131.178 150.365 131" fill="#BCDF48" blush:i="0.0.0.0.0.74"/><path id="Fill 2264" fill-rule="evenodd" clip-rule="evenodd" d="M202.23 104.023C201.287 106.156 203.427 109.086 205.337 108.998C209.556 106.597 204.711 103.71 202.23 104.023" fill="#BFE050" blush:i="0.0.0.0.0.75"/><path id="Fill 2266" fill-rule="evenodd" clip-rule="evenodd" d="M144.757 47.0426C138.476 46.3207 144.565 55.0766 146.932 50.8343C147.333 49.2149 145.878 48.0477 144.757 47.0426" fill="#BFE050" blush:i="0.0.0.0.0.76"/><path id="Fill 2268" fill-rule="evenodd" clip-rule="evenodd" d="M180.214 114.243C178.69 118.071 185.828 117.746 184.92 114.298C185.063 111.5 179.297 110.999 180.214 114.243" fill="#BCDF48" blush:i="0.0.0.0.0.77"/><path id="Fill 2272" fill-rule="evenodd" clip-rule="evenodd" d="M143.014 112.311C144.89 114.778 147.239 114.718 146.98 110.958C146.318 106.476 139.465 110.896 143.014 112.311" fill="#BCDF48" blush:i="0.0.0.0.0.78"/><path id="Fill 2274" fill-rule="evenodd" clip-rule="evenodd" d="M108.664 91.8742C110.775 87.4671 102.152 86.6069 104.367 90.3994C106.772 89.9796 107.373 95.2278 108.664 91.8742" fill="#BCDF48" blush:i="0.0.0.0.0.79"/><path id="Fill 2276" fill-rule="evenodd" clip-rule="evenodd" d="M101 102.447C100.949 99.9221 97.7859 97.226 96.3572 100.538C94.6081 103.422 99.7879 105.607 101 102.447" fill="#B4D741" blush:i="0.0.0.0.0.80"/><path id="Fill 2278" fill-rule="evenodd" clip-rule="evenodd" d="M120.811 139C124.283 137.619 123.414 134.888 119.69 134C117.699 136.476 116.802 138.163 120.811 139" fill="#FCFEA6" blush:i="0.0.0.0.0.81"/><path id="Fill 2280" fill-rule="evenodd" clip-rule="evenodd" d="M104 76.8948C102.108 75.8954 101.568 72.0825 99.6591 75.2069C96.8992 77.9152 103.679 81.2539 104 76.8948" fill="#BFE050" blush:i="0.0.0.0.0.82"/><path id="Fill 2282" fill-rule="evenodd" clip-rule="evenodd" d="M144.133 89.9986C148.554 89.7734 147.482 84.2984 143.503 85.0755C141.682 86.2129 141.106 90.0849 144.133 89.9986" fill="#BFE050" blush:i="0.0.0.0.0.83"/><path id="Fill 2284" fill-rule="evenodd" clip-rule="evenodd" d="M171.999 142.193C171.944 134.753 162.583 142.435 169.62 144C170.327 142.952 172.05 143.64 171.999 142.193" fill="#BFE050" blush:i="0.0.0.0.0.84"/><path id="Fill 2286" fill-rule="evenodd" clip-rule="evenodd" d="M147.133 97.8869C148.904 96.7356 151.398 94.8259 153.091 97.9943C160.089 98.2929 145.471 86.6827 147.133 97.8869" fill="#BFE050" blush:i="0.0.0.0.0.85"/><path id="Fill 2288" fill-rule="evenodd" clip-rule="evenodd" d="M149.998 144.804C150.019 139.459 142.589 142.743 145.809 146.477C146.957 147.781 150.097 146.428 149.998 144.804" fill="#BCDF48" blush:i="0.0.0.0.0.86"/><path id="Fill 2290" fill-rule="evenodd" clip-rule="evenodd" d="M146.921 128.061C144.781 122.852 139.903 128.908 143.004 130.996C145.256 131.089 147.446 129.574 146.921 128.061" fill="#BCDF48" blush:i="0.0.0.0.0.87"/><path id="Fill 2292" fill-rule="evenodd" clip-rule="evenodd" d="M139.233 101C141.027 98.6762 144.515 96.9906 139.088 96C136.555 96.7534 136.012 100.689 139.233 101" fill="#BFE050" blush:i="0.0.0.0.0.88"/><path id="Fill 2294" fill-rule="evenodd" clip-rule="evenodd" d="M115.28 148.346C116.369 150.881 119.208 150.29 119.982 148.008C120.391 143.822 113.554 144.07 115.28 148.346" fill="#FCFEA6" blush:i="0.0.0.0.0.89"/><path id="Fill 2296" fill-rule="evenodd" clip-rule="evenodd" d="M117.958 90C116.777 90.5249 116.637 92.9097 115 93.0558C117.336 98.3934 123.033 91.1743 117.958 90" fill="#BCDF48" blush:i="0.0.0.0.0.90"/><path id="Fill 2298" fill-rule="evenodd" clip-rule="evenodd" d="M171.721 157.944C175.494 158.228 174.155 151.857 170.813 153.181C167.932 153.497 168.67 158.585 171.721 157.944" fill="#FCFEA6" blush:i="0.0.0.0.0.91"/><path id="Fill 2300" fill-rule="evenodd" clip-rule="evenodd" d="M209.093 115.006C205.376 115.61 207.114 121.152 210.388 119.783C213.363 119.396 211.801 114.818 209.093 115.006" fill="#BFE050" blush:i="0.0.0.0.0.92"/><path id="Fill 2302" fill-rule="evenodd" clip-rule="evenodd" d="M115.028 181.75C114.636 184.982 118.456 186.341 119.83 183.298C120.931 180.147 116.375 178.545 115.028 181.75" fill="#BCDF48" blush:i="0.0.0.0.0.93"/><path id="Fill 2304" fill-rule="evenodd" clip-rule="evenodd" d="M128.109 186.806C127.206 190.308 132.207 191.123 132.981 188.286C133.349 185.142 128.332 183.521 128.109 186.806" fill="#BFE050" blush:i="0.0.0.0.0.94"/><path id="Fill 2306" fill-rule="evenodd" clip-rule="evenodd" d="M44 130.448C43.3858 128.193 41.5452 123.718 39.3305 127.407C37.7117 129.375 42.4857 132.206 44 130.448" fill="#FCFEA6" blush:i="0.0.0.0.0.95"/><path id="Fill 2308" fill-rule="evenodd" clip-rule="evenodd" d="M104 139.997C104 142.747 108.215 142.355 108.982 140.681C109.327 136.446 104.659 135.411 104 139.997" fill="#BFE050" blush:i="0.0.0.0.0.96"/><path id="Fill 2310" fill-rule="evenodd" clip-rule="evenodd" d="M180.041 144.678C179.665 146.892 181.974 147.289 183.452 146.832C188.209 144.522 180.528 138.56 180.041 144.678" fill="#BCDF48" blush:i="0.0.0.0.0.97"/><path id="Fill 2312" fill-rule="evenodd" clip-rule="evenodd" d="M123 83.4753C125.759 83.4426 124.783 86.9069 126.697 87C130.371 83.8414 125.351 79.7676 123 83.4753" fill="#BCDF48" blush:i="0.0.0.0.0.98"/><path id="Fill 2314" fill-rule="evenodd" clip-rule="evenodd" d="M106 51.0856C102.222 48.9333 99.464 49.9521 101.95 54.403C104.376 56.5609 105.143 52.2637 106 51.0856" fill="#FCFEA6" blush:i="0.0.0.0.0.99"/><path id="Fill 2316" fill-rule="evenodd" clip-rule="evenodd" d="M110.465 118C110.054 119.892 108.692 120.413 107 121.21C108.277 125.981 114.96 119.917 110.465 118" fill="#BFE050" blush:i="0.0.0.0.0.100"/><path id="Fill 2318" fill-rule="evenodd" clip-rule="evenodd" d="M145.036 157.715C149.396 155.866 145.603 150.965 142.294 153.933C141.381 155.324 142.68 159.053 145.036 157.715" fill="#BCDF48" blush:i="0.0.0.0.0.101"/><path id="Fill 2320" fill-rule="evenodd" clip-rule="evenodd" d="M68 155.864C67.9158 151.522 63.2201 152.771 63 155.306C63.0517 158.691 67.3494 158.897 68 155.864" fill="#BFE050" blush:i="0.0.0.0.0.102"/><path id="Fill 2322" fill-rule="evenodd" clip-rule="evenodd" d="M83.8019 146.904C86.2472 147.487 86.3253 145.29 87 143.7C85.4143 139.041 78.8865 145.259 83.8019 146.904" fill="#BCDF48" blush:i="0.0.0.0.0.103"/><path id="Fill 2324" fill-rule="evenodd" clip-rule="evenodd" d="M93.628 72.1214C92.336 74.9074 92.9951 76.7622 96.001 75.6936C100.411 74.5925 96.5686 68.5377 93.628 72.1214" fill="#F8FB9B" blush:i="0.0.0.0.0.104"/><path id="Fill 2326" fill-rule="evenodd" clip-rule="evenodd" d="M123 114.351C119.872 112.359 119.685 110.242 118.015 114.361C117.706 117.856 122.304 117.907 123 114.351" fill="#BCDF48" blush:i="0.0.0.0.0.105"/><path id="Fill 2328" fill-rule="evenodd" clip-rule="evenodd" d="M74.2222 48.9992C75.9659 47.5456 77.0466 45.3356 74.4526 44.0002C70.3086 43.9637 69.497 49.0723 74.2222 48.9992" fill="#FCFEA6" blush:i="0.0.0.0.0.106"/><path id="Fill 2330" fill-rule="evenodd" clip-rule="evenodd" d="M122.229 105.465C124.54 98.56 121.198 102.549 118.235 101C117.16 103.052 119.999 107.54 122.229 105.465" fill="#BCDF48" blush:i="0.0.0.0.0.107"/><path id="Fill 2332" fill-rule="evenodd" clip-rule="evenodd" d="M91.2706 113.755C94.7141 114.972 95.396 111.366 94.8147 109.265C92.4895 107.872 87.7225 112.353 91.2706 113.755" fill="#F8FB9B" blush:i="0.0.0.0.0.108"/><path id="Fill 2334" fill-rule="evenodd" clip-rule="evenodd" d="M158.053 44.1098C157.419 48.3097 162.638 47.6008 163 44.1098C162.345 41.1057 159.201 41.4944 158.053 44.1098" fill="#FCFEA6" blush:i="0.0.0.0.0.109"/><path id="Fill 2336" fill-rule="evenodd" clip-rule="evenodd" d="M92.2062 113.987C90.0885 113.109 91.227 111.667 93 110.872C92.6118 105.154 82.4817 114.397 92.2062 113.987" fill="#BCDF48" blush:i="0.0.0.0.0.110"/><path id="Fill 2340" fill-rule="evenodd" clip-rule="evenodd" d="M187.939 120.02C186.871 121.196 185.791 121.44 186.035 123.323C188.19 128.657 194.856 119.517 187.939 120.02" fill="#BFE050" blush:i="0.0.0.0.0.111"/><path id="Fill 2344" fill-rule="evenodd" clip-rule="evenodd" d="M131 96.7135C131.445 98.2463 134.275 99.2345 133.73 100.986C138.677 101.364 134.504 93.6715 131 96.7135" fill="#BFE050" blush:i="0.0.0.0.0.112"/><path id="Fill 2346" fill-rule="evenodd" clip-rule="evenodd" d="M105.655 61C106.368 62.7255 102.334 64.9536 104.818 65.5953C109.607 67.6695 110.799 61.0999 105.655 61" fill="#BCDF48" blush:i="0.0.0.0.0.113"/><path id="Fill 2348" fill-rule="evenodd" clip-rule="evenodd" d="M71.0267 177.445C71.261 181.258 76.8959 180.562 75.8769 176.956C75.6894 174.098 70.5885 174.466 71.0267 177.445" fill="#BFE050" blush:i="0.0.0.0.0.114"/><path id="Fill 2350" fill-rule="evenodd" clip-rule="evenodd" d="M169.764 169C174.999 168.549 169.745 161.824 167.145 164.723C166.435 166.686 168.497 168.802 169.764 169" fill="#BFE050" blush:i="0.0.0.0.0.115"/><path id="Fill 2352" fill-rule="evenodd" clip-rule="evenodd" d="M111.206 164.029C109.565 164.255 108.398 165.801 109.333 167.674C112.002 172.259 117.25 163.435 111.206 164.029" fill="#FCFEA6" blush:i="0.0.0.0.0.116"/><path id="Fill 2354" fill-rule="evenodd" clip-rule="evenodd" d="M95 55.9786C91.1094 52.0222 87.0503 61.4491 93.0373 59.8055C94.556 58.9234 93.2321 55.4344 95 55.9786" fill="#BFE050" blush:i="0.0.0.0.0.117"/><path id="Fill 2356" fill-rule="evenodd" clip-rule="evenodd" d="M100.819 119.985C103.533 120.202 103.419 117.982 104 115.998C100.938 112.685 96.4487 118.561 100.819 119.985" fill="#FCFEA6" blush:i="0.0.0.0.0.118"/><path id="Fill 2358" fill-rule="evenodd" clip-rule="evenodd" d="M59.995 133.624C60.2272 127.812 52.2931 133.107 55.9776 135.633C57.6489 136.672 59.5284 135.347 59.995 133.624" fill="#BCDF48" blush:i="0.0.0.0.0.119"/><path id="Fill 2360" fill-rule="evenodd" clip-rule="evenodd" d="M115.754 145.952C118.246 144.921 116.668 141.194 113.942 142.158C110.277 143.118 112.322 149.46 115.754 145.952" fill="#BFE050" blush:i="0.0.0.0.0.120"/><path id="Fill 2362" fill-rule="evenodd" clip-rule="evenodd" d="M206.999 133.692C207.057 130.143 201.054 129.95 202.129 134.031C202.022 137.35 207.099 135.944 206.999 133.692" fill="#BFE050" blush:i="0.0.0.0.0.121"/><path id="Fill 2364" fill-rule="evenodd" clip-rule="evenodd" d="M177.446 44C183.685 43.2477 176.736 35.7742 175.108 40.6281C174.515 41.6263 176.507 43.5019 177.446 44" fill="#BFE050" blush:i="0.0.0.0.0.122"/><path id="Fill 2366" fill-rule="evenodd" clip-rule="evenodd" d="M127.667 26.6399C126.173 23.3339 123.45 25.6727 123 27.9979C123.82 31.4642 129.403 30.0515 127.667 26.6399" fill="#BFE050" blush:i="0.0.0.0.0.123"/><path id="Fill 2368" fill-rule="evenodd" clip-rule="evenodd" d="M184.582 161C191.479 160.618 186.337 152.935 183.081 157.38C182.645 158.189 184.085 159.966 184.582 161" fill="#BCDF48" blush:i="0.0.0.0.0.124"/><path id="Fill 2370" fill-rule="evenodd" clip-rule="evenodd" d="M210 110.99C210.017 107.308 203.059 109.418 205.531 111.84C207.01 115.528 208.92 113.988 210 110.99" fill="#BFE050" blush:i="0.0.0.0.0.125"/><path id="Fill 2372" fill-rule="evenodd" clip-rule="evenodd" d="M63 141.029C62.3013 137.819 58.0066 138.687 58 141.751C59.4694 144.793 62.7533 144.935 63 141.029" fill="#BCDF48" blush:i="0.0.0.0.0.126"/><path id="Fill 2376" fill-rule="evenodd" clip-rule="evenodd" d="M63.306 108.438C65.0804 109.628 67.5433 108.88 68 106.66C66.6958 102.127 61.7292 103.832 63.306 108.438" fill="#B4D741" blush:i="0.0.0.0.0.127"/><path id="Fill 2378" fill-rule="evenodd" clip-rule="evenodd" d="M139.555 131.983C137.241 135.824 142.846 137.839 143.92 133.738C144.368 131.81 142.929 129.722 139.555 131.983" fill="#BFE050" blush:i="0.0.0.0.0.128"/><path id="Fill 2382" fill-rule="evenodd" clip-rule="evenodd" d="M69.0199 107.791C70.1094 107.109 71.3718 107.485 72.3287 109C77.6494 108.734 68.5203 98.7243 69.0199 107.791" fill="#BCDF48" blush:i="0.0.0.0.0.129"/><path id="Fill 2386" fill-rule="evenodd" clip-rule="evenodd" d="M127.744 168.007C126.758 162.923 119.659 168.848 124.926 170.968C126.509 171.244 128.764 169.701 127.744 168.007" fill="#FCFEA6" blush:i="0.0.0.0.0.130"/><path id="Fill 2388" fill-rule="evenodd" clip-rule="evenodd" d="M111.552 112.919C113.418 109.516 108.977 108.563 107 109.172C110.073 109.372 108.509 116.698 111.552 112.919" fill="#BFE050" blush:i="0.0.0.0.0.131"/><path id="Fill 2390" fill-rule="evenodd" clip-rule="evenodd" d="M103.901 159.17C104.642 154.798 100.958 155.274 101.905 158.614C102.788 159.924 101.222 158.837 101 159.372C101.457 160.664 104.068 162.37 103.901 159.17" fill="#BCDF48" blush:i="0.0.0.0.0.132"/><path id="Fill 2392" fill-rule="evenodd" clip-rule="evenodd" d="M105.214 151.421C107.691 147.265 103.64 150.485 102.317 147.036C99.1113 146.413 102.42 154.131 105.214 151.421" fill="#BCDF48" blush:i="0.0.0.0.0.133"/><path id="Fill 2394" fill-rule="evenodd" clip-rule="evenodd" d="M126.559 114C128.623 112.299 128.771 107.716 125 109.345C125.629 110.889 124.094 113.812 126.559 114" fill="#BFE050" blush:i="0.0.0.0.0.134"/><path id="Fill 2396" fill-rule="evenodd" clip-rule="evenodd" d="M175.532 82C178.217 81.0273 176.93 74.812 174 77.8104C174.292 79.2574 174.058 81.2401 175.532 82" fill="#BCDF48" blush:i="0.0.0.0.0.135"/><path id="Fill 2398" fill-rule="evenodd" clip-rule="evenodd" d="M115.187 74.0377C114.141 73.6504 110.241 76.3628 112.927 77C113.399 73.6373 120.151 77.2467 115.187 74.0377" fill="#BCE378" blush:i="0.0.0.0.0.136"/><path id="Fill 2400" fill-rule="evenodd" clip-rule="evenodd" d="M77.3368 134C78.0714 132.229 79.8808 131.325 82 132.517C80.9269 129.681 75.6273 131.194 77.3368 134" fill="#BFE050" blush:i="0.0.0.0.0.137"/><path id="Fill 2410" fill-rule="evenodd" clip-rule="evenodd" d="M106 130.327C105.143 128.47 102.481 128.879 101.036 128C100.626 129.709 103.856 132.214 106 130.327" fill="#F8FB9B" blush:i="0.0.0.0.0.138"/><path id="Fill 2412" fill-rule="evenodd" clip-rule="evenodd" d="M158.048 44C158.909 42.7624 162.059 40.2653 162.502 43.8278C164.987 41.3987 157.328 38.8375 158.048 44" fill="#F8FB9B" blush:i="0.0.0.0.0.139"/><path id="Fill 2414" fill-rule="evenodd" clip-rule="evenodd" d="M82.7694 150C83.0231 148.811 84.5967 148.695 85 147.665C83.7143 145.548 80.5482 149.08 82.7694 150" fill="#BFE050" blush:i="0.0.0.0.0.140"/><path id="Fill 2420" fill-rule="evenodd" clip-rule="evenodd" d="M198.623 114.919C200.243 113.224 196.123 110.207 196 113.414C197.202 113.497 196.803 115.411 198.623 114.919" fill="#BCDF48" blush:i="0.0.0.0.0.141"/><path id="Fill 2422" fill-rule="evenodd" clip-rule="evenodd" d="M70.8936 171C68.8457 173.587 66.9989 174.797 66.191 171.163C64.7521 175.193 71.9506 174.74 70.8936 171" fill="#BCE378" blush:i="0.0.0.0.0.142"/><path id="Fill 2426" fill-rule="evenodd" clip-rule="evenodd" d="M202 102.857C203.592 103.559 205.298 104.287 207 103.886C205.982 102.203 202.178 98.9243 202 102.857" fill="#BCE378" blush:i="0.0.0.0.0.143"/><path id="Fill 2432" fill-rule="evenodd" clip-rule="evenodd" d="M186.124 156C188.873 158.231 187.361 159.546 185 160.852C187.889 161.995 189.456 156.163 186.124 156" fill="#BCE378" blush:i="0.0.0.0.0.144"/><path id="Fill 2444" fill-rule="evenodd" clip-rule="evenodd" d="M116.148 183C118.776 181.796 117.042 182.423 117.117 181.191C117.867 177.995 113.754 182.15 116.148 183" fill="#BCE378" blush:i="0.0.0.0.0.145"/><path id="Fill 2450" fill-rule="evenodd" clip-rule="evenodd" d="M137 101C135.266 101.446 134.522 101.911 134 103.992C135.157 104.14 136.604 102.263 137 101" fill="#BCE378" blush:i="0.0.0.0.0.146"/><path id="Fill 2454" fill-rule="evenodd" clip-rule="evenodd" d="M183 161C182.022 159.952 183.101 158.33 180.484 158C178.958 158.808 181.387 160.819 183 161" fill="#BCE378" blush:i="0.0.0.0.0.147"/><path id="Fill 2462" fill-rule="evenodd" clip-rule="evenodd" d="M123.28 28C124.361 27.8705 124.396 26.9257 124.162 26.0524C129.456 26.2535 121.442 22.5292 123.28 28" fill="#BCE378" blush:i="0.0.0.0.0.148"/><path id="Fill 2464" fill-rule="evenodd" clip-rule="evenodd" d="M167.273 52C165.314 52.0997 167.87 52.5684 166.94 53.2823C165.863 57.0216 170.624 53.747 167.273 52" fill="#BCE378" blush:i="0.0.0.0.0.149"/><path id="Fill 2466" fill-rule="evenodd" clip-rule="evenodd" d="M201.683 112.886C201.527 111.341 199.906 112.258 199.056 112.39C198.433 114.961 203.255 116.458 201.683 112.886" fill="#BCDF48" blush:i="0.0.0.0.0.150"/><path id="Fill 2468" fill-rule="evenodd" clip-rule="evenodd" d="M201.646 112C201.775 114.592 201.335 112.881 199 113.074C201.338 115.948 202.682 115.618 201.646 112" fill="#BFE050" blush:i="0.0.0.0.0.151"/><path id="Fill 2470" fill-rule="evenodd" clip-rule="evenodd" d="M125.065 128C124.618 129.229 126.577 132.324 127.934 130.368C128.498 129.766 125.262 129.06 125.065 128" fill="#BCE378" blush:i="0.0.0.0.0.152"/><path id="Fill 2472" fill-rule="evenodd" clip-rule="evenodd" d="M151.088 74C150.206 75.344 150.842 75.9758 151.076 77C152.18 76.1818 153.311 74.6946 151.088 74" fill="#BCE378" blush:i="0.0.0.0.0.153"/><path id="Fill 2476" fill-rule="evenodd" clip-rule="evenodd" d="M167 55.5687C166.028 56.5587 164.842 55.4817 164 56.1057C164.619 58.0947 166.845 57.7887 167 55.5687" fill="#BCE378" blush:i="0.0.0.0.0.154"/><path id="Fill 2478" fill-rule="evenodd" clip-rule="evenodd" d="M128 135.07C128.034 133.267 123.774 133.36 125.35 135.217C126.297 133.789 126.989 135.784 128 135.07" fill="#BCE378" blush:i="0.0.0.0.0.155"/><path id="Fill 2492" fill-rule="evenodd" clip-rule="evenodd" d="M127.837 132.317C128.173 130.859 125.329 133.802 125.68 132.059C123.883 132.371 127.039 134.081 127.837 132.317" fill="#BCE378" blush:i="0.0.0.0.0.156"/><path id="Fill 2494" fill-rule="evenodd" clip-rule="evenodd" d="M180.882 157.534C182.178 157.798 182.07 156.223 182.118 155.437C180.906 155.665 180.885 156.595 180.882 157.534" fill="#BCE378" blush:i="0.0.0.0.0.157"/><path id="Fill 2498" fill-rule="evenodd" clip-rule="evenodd" d="M98.651 122.484C99.467 122.046 100.283 121.602 100.349 120.516C99.17 120.645 98.69 121.371 98.651 122.484" fill="#FCFEA6" blush:i="0.0.0.0.0.158"/><path id="Fill 2504" fill-rule="evenodd" clip-rule="evenodd" d="M126.387 25.972C125.916 26.356 125.952 26.554 126.585 27.028C127.107 26.707 127.044 26.38 126.387 25.972" fill="#BCE378" blush:i="0.0.0.0.0.159"/><path id="Fill 2508" fill-rule="evenodd" clip-rule="evenodd" d="M199.934 110.325C199.997 110.811 200.348 111.075 200.753 110.976C201.578 110.394 200.588 109.527 199.934 110.325" fill="#BFE050" blush:i="0.0.0.0.0.160"/><path id="Fill 2522" fill-rule="evenodd" clip-rule="evenodd" d="M77.5673 183.086C77.3003 183.353 76.6163 183.599 77.5343 183.914C78.2813 183.668 77.7773 183.371 77.5673 183.086" fill="#BCE378" blush:i="0.0.0.0.0.161"/><path id="Fill 2524" fill-rule="evenodd" clip-rule="evenodd" d="M49.9888 113.381C49.6918 114.242 51.1348 114.047 51.0478 113.231C50.6458 112.889 50.3038 113.12 49.9888 113.381" fill="#7C984A" blush:i="0.0.0.0.0.162"/><path id="Fill 2528" fill-rule="evenodd" clip-rule="evenodd" d="M151.291 74.966C150.919 75.608 151.414 75.803 151.84 76.034C151.798 75.605 151.855 75.125 151.291 74.966" fill="#BCE378" blush:i="0.0.0.0.0.163"/><path id="Fill 2532" fill-rule="evenodd" clip-rule="evenodd" d="M151.894 77.2996C151.192 76.9066 151.012 77.1916 151.147 77.8786C151.501 77.8216 151.786 77.6746 151.894 77.2996" fill="#BCE378" blush:i="0.0.0.0.0.164"/><path id="Fill 2540" fill-rule="evenodd" clip-rule="evenodd" d="M208.487 178.119C208.064 178.419 208.43 178.638 208.565 178.881C208.775 178.602 208.769 178.347 208.487 178.119" fill="#BCE378" blush:i="0.0.0.0.0.165"/><path id="Fill 2548" fill-rule="evenodd" clip-rule="evenodd" d="M129.217 145.234C129.205 145.624 129.37 145.825 129.784 145.753C129.736 145.426 129.577 145.219 129.217 145.234" fill="#BCE378" blush:i="0.0.0.0.0.166"/><path id="Fill 2552" fill-rule="evenodd" clip-rule="evenodd" d="M67.6196 107.207C67.3466 107.312 67.2446 107.511 67.3016 107.793C67.5746 107.688 67.8686 107.594 67.6196 107.207" fill="#BCE378" blush:i="0.0.0.0.0.167"/><path id="Fill 2560" fill-rule="evenodd" clip-rule="evenodd" d="M143.433 26.4444C143.64 26.5884 143.628 26.5914 143.418 26.4594L143.433 26.4444Z" fill="#BFE050" blush:i="0.0.0.0.0.168"/><path id="Fill 2562" fill-rule="evenodd" clip-rule="evenodd" d="M126.382 26.2375C126.388 26.4415 126.397 26.6515 126.616 26.7625C126.613 26.5525 126.67 26.3185 126.382 26.2375" fill="#BCE378" blush:i="0.0.0.0.0.169"/><path id="Fill 2564" fill-rule="evenodd" clip-rule="evenodd" d="M118.553 172.488L118.448 172.473C118.439 172.572 118.508 172.506 118.553 172.488" fill="#BCDF48" blush:i="0.0.0.0.0.170"/><path id="Fill 2566" fill-rule="evenodd" clip-rule="evenodd" d="M124.351 118.759C124.756 118.696 124.759 118.198 124.345 118.243C124.372 118.411 124.342 118.588 124.351 118.759" fill="#F8FB9B" blush:i="0.0.0.0.0.171"/><path id="Fill 2568" fill-rule="evenodd" clip-rule="evenodd" d="M116.612 115.64C116.627 115.475 116.537 115.393 116.387 115.36C116.462 115.453 116.537 115.547 116.612 115.64" fill="#FCFEA6" blush:i="0.0.0.0.0.172"/><path id="Fill 2570" fill-rule="evenodd" clip-rule="evenodd" d="M124.515 118.541C124.461 118.439 124.461 118.43 124.524 118.532L124.515 118.541Z" fill="#F8FB9B" blush:i="0.0.0.0.0.173"/><path id="Fill 2574" fill-rule="evenodd" clip-rule="evenodd" d="M145.451 118.446C145.487 118.479 145.598 118.635 145.535 118.5C145.514 118.473 145.427 118.476 145.451 118.446" fill="#FCFEA6" blush:i="0.0.0.0.0.174"/><path id="Fill 2576" fill-rule="evenodd" clip-rule="evenodd" d="M186.511 121.516L186.484 121.484C186.484 121.487 186.529 121.51 186.511 121.516" fill="#BFE050" blush:i="0.0.0.0.0.175"/><path id="Fill 2580" fill-rule="evenodd" clip-rule="evenodd" d="M143.355 124.302C143.379 124.488 143.435 124.644 143.645 124.698C143.639 124.5 143.532 124.374 143.355 124.302" fill="#BCDF48" blush:i="0.0.0.0.0.176"/><path id="Fill 2584" fill-rule="evenodd" clip-rule="evenodd" d="M49.6827 98C56.2664 93.5972 46.6974 85.166 47.0074 93.6117C49.2345 93.0451 49.5374 96.0416 49.6827 98" fill="#B4D741" blush:i="0.0.0.0.0.177"/><path id="Fill 2588" fill-rule="evenodd" clip-rule="evenodd" d="M48.9143 98.542C49.2653 96.4359 48.5655 93.4001 46.3048 93C45.0486 94.6461 48.0246 105.867 48.9143 98.542" fill="#F8FB9B" blush:i="0.0.0.0.0.178"/><path id="Fill 2590" fill-rule="evenodd" clip-rule="evenodd" d="M50.4811 109.04C47.5171 108.325 50.0401 117.474 51.7051 112.525C52.2361 111.557 51.5521 110.103 50.4811 109.04" fill="#F8FB9B" blush:i="0.0.0.0.0.179"/><path id="Fill 2594" fill-rule="evenodd" clip-rule="evenodd" d="M45.6065 94.6005C45.5345 94.5345 45.4625 94.4655 45.3935 94.3995C45.4625 94.4655 45.5345 94.5345 45.6065 94.6005" fill="#F8FB9B" blush:i="0.0.0.0.0.180"/><path id="Fill 2604" fill-rule="evenodd" clip-rule="evenodd" d="M101.657 48.9034C101.095 47.2206 102.313 46.8242 104 46.7039C100.137 39.0782 89.5014 50.1327 101.657 48.9034" fill="#B4D741" blush:i="0.0.0.0.0.181"/><path id="Fill 2606" fill-rule="evenodd" clip-rule="evenodd" d="M55.6159 85.7608C53.9642 88.6563 55.8968 93.0922 58.3136 92.9985C62.2671 91.1685 58.3941 82.3972 55.6159 85.7608" fill="#F8FB9B" blush:i="0.0.0.0.0.182"/><path id="Fill 2608" fill-rule="evenodd" clip-rule="evenodd" d="M75.7503 95.0709C72.4779 90.3046 65.0883 94.6277 69.2272 99.3599C71.8866 103.587 77.2128 98.728 75.7503 95.0709" fill="#F8FB9B" blush:i="0.0.0.0.0.183"/><path id="Fill 2610" fill-rule="evenodd" clip-rule="evenodd" d="M67.9874 90.7029C68.1658 88.3274 66.4173 85.9451 65.0983 85C60.0327 87.1018 65.4032 97.5532 67.9874 90.7029" fill="#F8FB9B" blush:i="0.0.0.0.0.184"/><path id="Fill 2612" fill-rule="evenodd" clip-rule="evenodd" d="M95 48.586C94.8216 46.4188 95.2226 44.7079 93.0815 44.2692C85.9304 41.6611 93.2264 59.1236 95 48.586" fill="#F8FB9B" blush:i="0.0.0.0.0.185"/><path id="Fill 2614" fill-rule="evenodd" clip-rule="evenodd" d="M79.3668 57.9781C82.0817 63.978 86.8103 54.8313 81.7897 53.6186C80.4209 49.1676 78.0977 54.9909 79.3668 57.9781" fill="#F8FB9B" blush:i="0.0.0.0.0.186"/><path id="Fill 2616" fill-rule="evenodd" clip-rule="evenodd" d="M61.1622 85C64.091 83.6494 63.1802 78.6986 60.7986 77.0225C56.6223 76.5176 57.4342 84.6878 61.1622 85" fill="#B4D741" blush:i="0.0.0.0.0.187"/><path id="Fill 2618" fill-rule="evenodd" clip-rule="evenodd" d="M74 73.8301C72.6969 65.7658 64.2013 77.6954 72.803 75.7906C73.3724 76.161 73.8837 74.3501 74 73.8301" fill="#F8FB9B" blush:i="0.0.0.0.0.188"/><path id="Fill 2620" fill-rule="evenodd" clip-rule="evenodd" d="M62.6133 96.1192C57.9759 94.9347 60.2343 103.026 63.7893 100.513C66.2413 99.732 64.5146 96.3808 62.6133 96.1192" fill="#F8FB9B" blush:i="0.0.0.0.0.189"/><path id="Fill 2622" fill-rule="evenodd" clip-rule="evenodd" d="M58.3092 73.993C64.1868 70.0907 52.6275 65.9661 55.4526 72.2055C56.768 72.1758 56.7006 74.1313 58.3092 73.993" fill="#B4D741" blush:i="0.0.0.0.0.190"/><path id="Fill 2626" fill-rule="evenodd" clip-rule="evenodd" d="M66.013 81.8846C65.6506 87.0105 73.0091 85.1557 70.4634 81.0385C68.6912 79.719 66.5428 79.3196 66.013 81.8846" fill="#F8FB9B" blush:i="0.0.0.0.0.191"/><path id="Fill 2628" fill-rule="evenodd" clip-rule="evenodd" d="M47.2429 74.3683C47.5516 77.0151 52.3182 76.1912 51.9831 73.6886C51.5087 69.6652 45.7632 70.3758 47.2429 74.3683" fill="#F8FB9B" blush:i="0.0.0.0.0.192"/><path id="Fill 2630" fill-rule="evenodd" clip-rule="evenodd" d="M66.3504 64.7138C64.5983 67.9638 69.9449 69.4002 70.7575 66.2175C72.1745 63.0508 66.9443 61.6357 66.3504 64.7138" fill="#FCFEA6" blush:i="0.0.0.0.0.193"/><path id="Fill 2632" fill-rule="evenodd" clip-rule="evenodd" d="M51.9549 62.7226C51.2444 59.6011 46.3305 61.15 47.0769 63.9712C47.9115 67.6715 52.5017 65.7385 51.9549 62.7226" fill="#F8FB9B" blush:i="0.0.0.0.0.194"/><path id="Fill 2634" fill-rule="evenodd" clip-rule="evenodd" d="M82.1566 104C85.1323 102.986 84.4074 98.8173 80.6883 99.0062C78.4252 99.6168 78.003 103.899 82.1566 104" fill="#B4D741" blush:i="0.0.0.0.0.195"/><path id="Fill 2636" fill-rule="evenodd" clip-rule="evenodd" d="M85.9569 63.1369C83.2044 62.3132 81.0201 65.4003 82.453 67.2272C86.2286 69.6438 88.419 65.8648 85.9569 63.1369" fill="#B4D741" blush:i="0.0.0.0.0.196"/><path id="Fill 2638" fill-rule="evenodd" clip-rule="evenodd" d="M100.211 90.0045C97.7422 89.8796 94.8012 92.3615 96.5078 94.7034C99.6716 96.076 102.398 92.371 100.211 90.0045" fill="#B4D741" blush:i="0.0.0.0.0.197"/><path id="Fill 2640" fill-rule="evenodd" clip-rule="evenodd" d="M63.6383 59.7738C67.5731 60.9934 69.7187 56.9616 66.2758 55.2897C62.0226 53.8942 62.8471 57.8932 63.6383 59.7738" fill="#B4D741" blush:i="0.0.0.0.0.198"/><path id="Fill 2642" fill-rule="evenodd" clip-rule="evenodd" d="M77.5361 94.4034C77.3081 94.3644 77.5061 94.7784 77.5691 94.5054C77.5781 94.4754 77.5481 94.4394 77.5361 94.4034" fill="#BCDF48" blush:i="0.0.0.0.0.199"/><path id="Fill 2644" fill-rule="evenodd" clip-rule="evenodd" d="M69.4673 91.5102C69.5453 91.4652 69.5573 91.4652 69.4823 91.5222L69.4673 91.5102Z" fill="#F8FB9B" blush:i="0.0.0.0.0.200"/><path id="Fill 2650" fill-rule="evenodd" clip-rule="evenodd" d="M108.957 71C109.574 67.1643 103.345 66.9757 104.057 70.6134C105.74 69.1288 107.4 69.6312 108.957 71" fill="#B4D741" blush:i="0.0.0.0.0.201"/><path id="Fill 2658" fill-rule="evenodd" clip-rule="evenodd" d="M102.588 69.6605C102.591 69.5555 102.594 69.4475 102.597 69.3395C102.501 69.4445 102.219 69.5435 102.588 69.6605" fill="#FCFEA6" blush:i="0.0.0.0.0.202"/><path id="Fill 2662" fill-rule="evenodd" clip-rule="evenodd" d="M98.2497 112.076C97.0959 115.292 100.275 115.925 101 113.249C99.9758 113.555 99.1604 112.508 98.2497 112.076" fill="#B4D741" blush:i="0.0.0.0.0.203"/><path id="Fill 2666" fill-rule="evenodd" clip-rule="evenodd" d="M113.505 108.889C117.305 109.954 118.493 102.959 114.6 104.133C111.751 104.524 111.034 108.434 113.505 108.889" fill="#BFE050" blush:i="0.0.0.0.0.204"/><path id="Fill 2668" fill-rule="evenodd" clip-rule="evenodd" d="M113.641 99.9726C108.987 95.9888 106.892 105.655 111.86 103.748C114.205 103.282 114.315 101.376 113.641 99.9726" fill="#FCFEA6" blush:i="0.0.0.0.0.205"/><path id="Fill 2670" fill-rule="evenodd" clip-rule="evenodd" d="M113.668 110.612C113.695 110.462 113.629 110.351 113.482 110.363C113.146 110.462 113.419 110.717 113.668 110.612" fill="#FCFEA6" blush:i="0.0.0.0.0.206"/><path id="Fill 2672" fill-rule="evenodd" clip-rule="evenodd" d="M52.2036 101C49.2506 102.188 49.7281 106.444 50.9659 108.715C55.6197 110.747 56.5296 101.248 52.2036 101" fill="#B4D741" blush:i="0.0.0.0.0.207"/><path id="Fill 2674" fill-rule="evenodd" clip-rule="evenodd" d="M62.6812 104.661C60.4545 103.584 57.1513 103.363 58.2004 107.632C59.9693 110.528 64.1865 108.488 62.6812 104.661" fill="#F8FB9B" blush:i="0.0.0.0.0.208"/><path id="Fill 2676" fill-rule="evenodd" clip-rule="evenodd" d="M52.1877 100.227C54.319 102.212 57.7922 100.049 56.8375 97.4128C54.9586 94.0306 51.1078 97.428 52.1877 100.227" fill="#F8FB9B" blush:i="0.0.0.0.0.209"/><path id="Fill 2678" fill-rule="evenodd" clip-rule="evenodd" d="M59.454 100.975C61.4408 101.33 57.079 97.7809 60 97.1436C59.0886 93.4735 54.0708 99.6991 59.454 100.975" fill="#B4D741" blush:i="0.0.0.0.0.210"/><path id="Fill 2680" fill-rule="evenodd" clip-rule="evenodd" d="M126.245 129.789C126.557 129.798 126.896 129.537 126.695 129.21C126.398 129.276 126.365 129.588 126.245 129.789" fill="#BCE378" blush:i="0.0.0.0.0.211"/><path id="Fill 2682" fill-rule="evenodd" clip-rule="evenodd" d="M104 123C102.939 123.076 100.591 124.576 101.061 126C102.189 125.204 103.613 124.808 104 123" fill="#F8FB9B" blush:i="0.0.0.0.0.212"/><path id="Fill 2686" fill-rule="evenodd" clip-rule="evenodd" d="M75.491 80.4175C75.416 80.4835 75.422 80.5315 75.509 80.5825C75.584 80.5135 75.578 80.4655 75.491 80.4175" fill="#7C984A" blush:i="0.0.0.0.0.213"/><path id="Fill 2688" fill-rule="evenodd" clip-rule="evenodd" d="M113.477 94.4176C113.438 94.6156 113.453 94.6456 113.543 94.4506L113.477 94.4176Z" fill="#BCDF48" blush:i="0.0.0.0.0.214"/><path id="Fill 2690" fill-rule="evenodd" clip-rule="evenodd" d="M113.482 132.458C113.473 132.464 113.482 132.458 113.482 132.458C113.536 132.566 113.536 132.575 113.482 132.458" fill="#FCFEA6" blush:i="0.0.0.0.0.215"/><path id="Fill 2692" fill-rule="evenodd" clip-rule="evenodd" d="M165.457 53.5206C165.463 53.5266 165.457 53.5206 165.457 53.5206C165.571 53.4636 165.574 53.4606 165.457 53.5206" fill="#BCE378" blush:i="0.0.0.0.0.216"/><path id="Fill 2694" fill-rule="evenodd" clip-rule="evenodd" d="M165.544 53.4777C165.538 53.4717 165.544 53.4777 165.544 53.4777C165.427 53.5407 165.424 53.5407 165.544 53.4777" fill="#BCE378" blush:i="0.0.0.0.0.217"/><path id="Fill 2696" fill-rule="evenodd" clip-rule="evenodd" d="M181.543 113.479C181.54 113.473 181.543 113.479 181.543 113.479C181.432 113.539 181.426 113.539 181.543 113.479" fill="#BCE378" blush:i="0.0.0.0.0.218"/><path id="Fill 2698" fill-rule="evenodd" clip-rule="evenodd" d="M181.459 113.522C181.462 113.528 181.459 113.522 181.459 113.522C181.567 113.459 181.57 113.459 181.459 113.522" fill="#BCE378" blush:i="0.0.0.0.0.219"/><path id="Fill 2700" fill-rule="evenodd" clip-rule="evenodd" d="M118.466 148.551C118.58 148.422 118.577 148.416 118.451 148.533L118.466 148.551Z" fill="#BCDF48" blush:i="0.0.0.0.0.220"/><path id="Fill 2702" fill-rule="evenodd" clip-rule="evenodd" d="M88.4568 113.525C88.4538 113.519 88.4568 113.525 88.4568 113.525C88.5768 113.459 88.5708 113.459 88.4568 113.525" fill="#BFE050" blush:i="0.0.0.0.0.221"/><path id="Fill 2704" fill-rule="evenodd" clip-rule="evenodd" d="M105.44 156.559C105.482 156.517 105.518 156.481 105.56 156.442C105.485 156.436 105.452 156.496 105.44 156.559" fill="#BCDF48" blush:i="0.0.0.0.0.222"/><path id="Fill 2710" fill-rule="evenodd" clip-rule="evenodd" d="M111.185 101C111.846 98.9763 114.72 99.6569 113.831 97.3502C112.127 93.2152 105.671 99.784 111.185 101" fill="#B4D741" blush:i="0.0.0.0.0.223"/><path id="Fill 2716" fill-rule="evenodd" clip-rule="evenodd" d="M75.683 132.393C75.563 132.426 75.44 132.456 75.317 132.486C75.53 132.768 75.581 132.477 75.683 132.393" fill="#FCFEA6" blush:i="0.0.0.0.0.224"/><path id="Fill 2722" fill-rule="evenodd" clip-rule="evenodd" d="M198.037 112.944C197.383 113.016 197.044 113.394 196.963 114.03C197.863 114.207 197.779 113.406 198.037 112.944" fill="#BFE050" blush:i="0.0.0.0.0.225"/><path id="Fill 2724" fill-rule="evenodd" clip-rule="evenodd" d="M143.483 134.425C143.546 134.458 143.516 134.44 143.483 134.425C143.474 134.587 143.498 134.662 143.483 134.425" fill="#BFE050" blush:i="0.0.0.0.0.226"/><path id="Fill 2726" fill-rule="evenodd" clip-rule="evenodd" d="M99.5115 72.4372C99.3975 72.5842 99.4155 72.6022 99.5625 72.4912L99.5115 72.4372Z" fill="#7C984A" blush:i="0.0.0.0.0.227"/><path id="Fill 2730" fill-rule="evenodd" clip-rule="evenodd" d="M126.368 148.633C126.455 148.546 126.545 148.454 126.632 148.367C126.545 148.454 126.455 148.546 126.368 148.633" fill="#BCDF48" blush:i="0.0.0.0.0.228"/><path id="Fill 2732" fill-rule="evenodd" clip-rule="evenodd" d="M51.2192 85.8061C47.6418 82.9768 45.2302 88.3822 48.6474 89.9403C50.6159 90.4059 53.3649 88.0671 51.2192 85.8061" fill="#FCFEA6" blush:i="0.0.0.0.0.229"/><path id="Fill 2734" fill-rule="evenodd" clip-rule="evenodd" d="M47.5486 105.552C47.5126 105.519 47.4076 105.366 47.4676 105.504C47.4856 105.531 47.5636 105.528 47.5486 105.552" fill="#B4D741" blush:i="0.0.0.0.0.230"/><path id="Fill 2736" fill-rule="evenodd" clip-rule="evenodd" d="M58.3845 48.5856C58.4685 48.6036 58.5495 48.5826 58.6155 48.5256C58.4715 48.2826 58.4385 48.4746 58.3845 48.5856" fill="#7C984A" blush:i="0.0.0.0.0.231"/><path id="Fill 2738" fill-rule="evenodd" clip-rule="evenodd" d="M64.6041 58.656C64.8321 58.26 64.4721 58.398 64.3221 58.344C64.4181 58.449 64.5111 58.551 64.6041 58.656" fill="#7C984A" blush:i="0.0.0.0.0.232"/><path id="Fill 2744" fill-rule="evenodd" clip-rule="evenodd" d="M91.4479 94.4793C91.4869 94.4163 91.4659 94.4493 91.4479 94.4793C91.4659 94.6803 91.6729 94.4193 91.4479 94.4793" fill="#7C984A" blush:i="0.0.0.0.0.233"/><path id="Fill 2746" fill-rule="evenodd" clip-rule="evenodd" d="M64.4843 94.5522C64.4273 94.5012 64.4543 94.5282 64.4843 94.5522C64.6373 94.5222 64.4693 94.3332 64.4843 94.5522" fill="#7C984A" blush:i="0.0.0.0.0.234"/><path id="Fill 2748" fill-rule="evenodd" clip-rule="evenodd" d="M61.5566 99.454C61.5236 99.487 61.3586 99.595 61.4996 99.535C61.5296 99.517 61.5266 99.421 61.5566 99.454" fill="#F8FB9B" blush:i="0.0.0.0.0.235"/></g></g></g></g></g></svg>