<svg viewBox="5.875 27.02499999999999 76.37499999999999 51.699999999999996" fill="none" xmlns="http://www.w3.org/2000/svg" xmlns:xlink="http://www.w3.org/1999/xlink" xmlns:blush="http://design.blush" overflow="visible" width="76.37499999999999px" height="51.699999999999996px"><g id="Master/New Stickers/Play Button" blush:has-customizable-colors="true" blush:viewBox="6.109999999999999 27.25999999999999 75.67000000000002 50.75999999999999" blush:i="0"><path id="Rectangle 38 (Stroke)" fill-rule="evenodd" clip-rule="evenodd" d="M73.9471 28.8442H13.7389C10.3662 28.8442 7.63206 31.5784 7.63206 34.9511V70.2159C7.63206 73.5886 10.3662 76.3227 13.7389 76.3227H73.9471C77.3198 76.3227 80.054 73.5886 80.054 70.2159V34.9511C80.054 31.5784 77.3198 28.8442 73.9471 28.8442ZM13.7389 27.5541C9.65364 27.5541 6.34189 30.8658 6.34189 34.9511V70.2159C6.34189 74.3012 9.65365 77.6129 13.7389 77.6129H73.9471C78.0324 77.6129 81.3441 74.3012 81.3441 70.2159V34.9511C81.3441 30.8658 78.0324 27.5541 73.9471 27.5541H13.7389Z" fill="#EABD91" blush:i="0.0"/><path id="Rectangle 39" d="M63.1261 49.9171C65.2702 50.9432 65.2845 53.4441 63.1522 54.486L34.3998 68.5362C32.1652 69.6282 29.3194 68.2904 29.3934 66.1827L30.3536 38.8326C30.4248 36.8032 33.1704 35.5819 35.3339 36.6173L63.1261 49.9171Z" fill="#EABD91" blush:i="0.1"/></g></svg>