<svg viewBox="7.049999999999997 7.049999999999997 79.90000000000002 79.90000000000002" fill="none" xmlns="http://www.w3.org/2000/svg" xmlns:xlink="http://www.w3.org/1999/xlink" xmlns:blush="http://design.blush" overflow="visible" width="79.90000000000002px" height="79.90000000000002px"><g id="Master/New Stickers/X Button" blush:has-customizable-colors="true" blush:viewBox="7.52000000000001 7.049999999999997 79.43000000000002 79.43000000000002" blush:i="0"><g id="Group 293" blush:i="0.0"><path id="Ellipse 11 (Stroke)" fill-rule="evenodd" clip-rule="evenodd" d="M47.3056 84.8379C68.3494 84.8379 85.4088 67.7785 85.4088 46.7347C85.4088 25.6908 68.3494 8.63144 47.3056 8.63144C26.2618 8.63144 9.20241 25.6908 9.20241 46.7347C9.20241 67.7785 26.2618 84.8379 47.3056 84.8379ZM47.3056 86.128C69.062 86.128 86.699 68.491 86.699 46.7347C86.699 24.9783 69.062 7.34126 47.3056 7.34126C25.5493 7.34126 7.91223 24.9783 7.91223 46.7347C7.91223 68.491 25.5493 86.128 47.3056 86.128Z" fill="#EABD91" blush:i="0.0.0"/><g id="Group 279" blush:i="0.0.1"><path id="Vector 17 (Stroke)" fill-rule="evenodd" clip-rule="evenodd" d="M29.7642 28.3983C30.8697 27.3307 32.6313 27.3614 33.6989 28.4669L70.5566 66.634C71.6242 67.7394 71.5934 69.501 70.4879 70.5686C69.3825 71.6362 67.6209 71.6054 66.5533 70.4999L29.6956 32.3329C28.628 31.2274 28.6588 29.4658 29.7642 28.3983Z" fill="#EABD91" blush:i="0.0.1.0"/><path id="Vector 18 (Stroke)" fill-rule="evenodd" clip-rule="evenodd" d="M64.153 27.7807C65.2961 28.8078 65.3901 30.5672 64.3629 31.7103L28.8995 71.1763C27.8724 72.3194 26.113 72.4134 24.9699 71.3862C23.8268 70.359 23.7328 68.5996 24.76 67.4565L60.2234 27.9906C61.2505 26.8475 63.0099 26.7535 64.153 27.7807Z" fill="#EABD91" blush:i="0.0.1.1"/></g></g></g></svg>