<svg viewBox="71.01249999999999 9.586705202312146 104.97499999999995 194.8265895953757" fill="none" xmlns="http://www.w3.org/2000/svg" xmlns:xlink="http://www.w3.org/1999/xlink" xmlns:blush="http://design.blush" overflow="visible" width="104.97499999999995px" height="194.8265895953757px"><g id="Master/Stickers/Sakura" blush:has-customizable-colors="true" blush:viewBox="72.86500000000001 10.008083140877602 101.26999999999995 193.98383371824485" blush:i="0"><g id="Group 48 Copy" blush:i="0.0"><path id="Fill 99" fill-rule="evenodd" clip-rule="evenodd" d="M132.919 49.3337C131.726 50.1403 130.566 50.992 129.39 51.8239C130.839 49.8055 132.275 47.7758 133.689 45.7319C135.842 42.5242 138.004 39.3235 140 36C137.467 38.9309 135.1 41.9846 132.722 45.0285C130.391 48.1077 128.085 51.2053 125.857 54.3593L123.487 57.7154C122.37 58.9809 121.271 60.2649 120.177 61.5474C118.977 62.9599 117.817 64.4048 116.646 65.8413C115.501 67.2609 114.34 68.6691 113.222 70.1155C110.924 72.0477 108.643 74.004 106.386 75.9829L102.231 79.6313C102.825 78.8516 103.413 78.0677 104.001 77.2824C105.271 75.5111 106.562 73.754 107.789 71.9559C109.004 70.148 110.02 68.2157 111.103 66.3244L114.316 60.6378L114.371 60.5403L114.382 60.4485C114.622 58.4386 114.846 56.4258 115.073 54.4144L115.255 54.5881L120.857 47.6755L115.271 52.6841C115.646 49.338 116.014 45.989 116.378 42.6414L116.238 42.6217C115.651 46.2079 115.067 49.7956 114.492 53.3833L114.234 53.6135L114.426 53.7972C114.085 55.9314 113.744 58.0671 113.413 60.2027L110.005 65.6492C108.834 67.477 107.72 69.34 106.583 71.1889C105.395 73.0054 104.271 74.8642 103.126 76.7103C102.28 78.1411 101.444 79.5776 100.634 81.0339L99.5628 81.9732L99.3853 82.13L99.3613 82.3517L97.6644 97.9779L93.9776 104.132L92.0129 90.4805L89.9581 80.8545C89.9271 80.6892 89.648 79.1454 89.2196 77.1411L91.8509 63.8441V59.6688H90.7938L90.8037 63.741L88.6474 74.5972C87.9371 71.6113 87.0281 68.4276 86.15 67.1832L85 67.9968C86.3403 69.8994 88.0315 78.1044 88.5741 81.1285L90.6247 90.7291L92.7655 105.593L91.9157 110.415L89.9045 126.829L91.304 127L93.3095 110.624L94.1918 105.615L94.1298 105.184L98.434 98.3381L98.4819 98.2632L98.4946 98.1658L100.494 82.7246L107.293 77.0493C109.616 75.1086 111.919 73.1438 114.198 71.1536L114.258 71.1014L114.299 71.0463L120.974 62.1873C122.434 60.2508 123.9 58.3171 125.379 56.3975L126.818 55.3127C129.073 53.6178 131.301 51.8903 133.493 50.1106C134.588 49.2179 135.707 48.3591 136.78 47.4396C137.856 46.5243 138.947 45.6302 140 44.6811C138.789 45.4141 137.617 46.1995 136.427 46.9622C135.236 47.7235 134.091 48.5456 132.919 49.3337" fill="#794A33" blush:i="0.0.0"/><path id="Fill 100" fill-rule="evenodd" clip-rule="evenodd" d="M106 136.056C106 129.396 100.64 124 94.0272 124H84.9714C78.36 124 73 129.396 73 136.056V158L106 149.037V136.056Z" fill="#FEC1C7" blush:i="0.0.1"/><path id="Fill 101" fill-rule="evenodd" clip-rule="evenodd" d="M84.9714 203H94.0272C100.64 203 106 197.607 106 190.954V149L73 157.954V190.954C73 197.607 78.36 203 84.9714 203" fill="#FDDCB5" blush:i="0.0.2"/><path id="Fill 102" fill-rule="evenodd" clip-rule="evenodd" d="M121.919 34.759C121.919 34.759 120.218 35.1972 120.076 34.8918C119.934 34.5878 120.007 32.424 120.162 32.2013C120.317 31.9786 121.335 31.1865 121.584 31.0295C121.83 30.8711 121.313 31.3663 121.749 32.1485C122.186 32.9307 121.919 34.759 121.919 34.759" fill="#ECC9C0" blush:i="0.0.3"/><path id="Fill 103" fill-rule="evenodd" clip-rule="evenodd" d="M129.98 25C129.98 25 126.987 26.2265 127 26.5358C127.011 26.8438 128.043 27.118 127.724 27.7921C127.406 28.4661 128.076 28.5904 128.404 28.4715C128.733 28.3527 128.827 28.9524 129.123 28.997C129.419 29.0402 129.354 28.6039 129.689 28.608C130.023 28.612 130.441 28.6714 130.539 28.485C130.633 28.2973 130.657 28.0514 130.919 27.8569C131.181 27.6638 130.741 26.6115 130.536 26.3251C130.329 26.0401 130.796 25.6605 129.98 25" fill="#ECC9C0" blush:i="0.0.4"/><path id="Fill 104" fill-rule="evenodd" clip-rule="evenodd" d="M134.167 32.3633C134.167 32.3633 134.399 32.0356 134.301 31.7836C134.202 31.5316 134.474 31.2904 134.358 31.1636C134.242 31.0353 133.645 31.1203 133.536 31.0106C133.426 30.9008 132.286 31.6723 131.529 32.1531C130.772 32.6355 130.976 32.8643 131.234 33.4208C131.493 33.9743 131.676 33.9264 131.733 34.4969C131.79 35.0674 132.071 35.6301 132.564 35.9007C133.056 36.1728 133.806 35.8311 134.242 35.5312C134.677 35.2313 133.297 35.3673 134.091 34.8849C134.886 34.401 135.037 34.1475 134.993 33.9295C134.948 33.71 134.936 33.0653 134.911 33.0127C134.889 32.9617 134.242 33.3049 134.228 33.1565C134.216 33.0065 134.167 32.3633 134.167 32.3633" fill="#ECC9C0" blush:i="0.0.5"/><path id="Fill 105" fill-rule="evenodd" clip-rule="evenodd" d="M130.881 32.2435C130.487 31.9086 130.277 31.9493 129.896 32.1831C129.517 32.4168 128.329 33.1075 127.939 33.2466C127.547 33.3832 127.524 33.6497 127.482 33.8835C127.441 34.1185 127.224 34.1093 127.209 34.3916C127.194 34.6752 127.557 34.7947 127.127 35.3672C126.698 35.9384 127.454 35.9292 127.931 36.2614C128.407 36.5936 129.282 37.3446 129.82 36.8181C130.358 36.2929 129.364 35.9029 130.18 35.4591C130.995 35.0153 131 34.4415 130.773 34.1421C130.546 33.8428 131.275 32.5796 130.881 32.2435" fill="#ECC9C0" blush:i="0.0.6"/><path id="Fill 106" fill-rule="evenodd" clip-rule="evenodd" d="M134.655 38.1818C134.655 38.1818 134.747 38.7284 134.488 38.8752C134.226 39.0251 134.148 38.9579 134.43 39.3749C134.708 39.7903 134.99 39.7185 134.993 40.0948C134.996 40.4681 135.05 41.2583 134.808 41.4847C134.564 41.7127 133.882 41.986 134.089 42.3014C134.297 42.6185 134.226 42.7246 133.642 42.948C133.061 43.1682 132.994 42.6325 132.811 42.4029C132.629 42.1749 131.794 41.7877 132.145 41.1224C132.145 41.1224 131.475 41.4597 131.329 41.0115C131.18 40.5649 130.669 40.4353 131.33 40.0808C131.99 39.7247 134.128 37.3307 134.655 38.1818" fill="#ECC9C0" blush:i="0.0.7"/><path id="Fill 107" fill-rule="evenodd" clip-rule="evenodd" d="M163.011 31.126C163.011 31.126 163.357 30.8757 163.519 31.0806C163.679 31.2868 163.479 31.7125 163.422 31.7358C163.364 31.7616 163.152 31.915 163.181 31.9616C163.213 32.007 163.567 31.7702 163.632 31.9395C163.698 32.11 163.714 32.5346 163.923 32.6622C164.13 32.7886 163.551 32.7272 163.94 33.0892C164.331 33.4511 162.685 34.018 162.55 33.9996C162.414 33.9787 162.247 33.8756 161.962 33.9223C161.676 33.9689 161.069 33.6118 161.215 33.2867C161.363 32.9603 161.141 32.7027 161.053 32.6818C160.965 32.6609 160.936 32.3972 161.388 32.1984C161.841 31.9984 161.788 31.6315 161.985 31.5616C162.182 31.4917 162.849 31.3555 163.011 31.126" fill="#ECC9C0" blush:i="0.0.8"/><path id="Fill 108" fill-rule="evenodd" clip-rule="evenodd" d="M144 35.056C144 35.056 143.794 33.7456 143.269 34.0443C142.744 34.343 142.748 34.7192 142.215 34.7544C141.68 34.7925 141.649 35.3434 141.337 35.5195C141.025 35.6971 140.921 35.7393 141.061 36.0127C141.205 36.2832 141.276 36.7087 141.219 36.7637C141.163 36.8172 141.587 36.7313 141.784 36.62C141.981 36.5087 140.999 37.4428 141.045 37.5288C141.09 37.6133 141.769 38.4277 141.572 38.539C141.376 38.6518 141.327 38.966 141.444 39.19C141.56 39.4126 141.338 40.0481 141.908 39.8353C142.478 39.6226 142.61 39.5479 142.742 39.8043C142.877 40.0622 143.42 40.0411 143.549 39.8804C143.677 39.7184 143.458 39.2886 143.751 39.1421C144.045 38.9984 144.075 38.8476 143.859 38.4376C143.644 38.0262 143.67 37.3456 143.758 36.7721C143.847 36.1987 144 35.056 144 35.056" fill="#ECC9C0" blush:i="0.0.9"/><path id="Fill 109" fill-rule="evenodd" clip-rule="evenodd" d="M138.758 32.3064C138.758 32.3064 138.714 31.5662 138.427 31.2865C138.14 31.0053 137.959 30.9076 137.662 31.1C137.364 31.2938 136.253 32.5804 136.13 32.6605C136.008 32.7406 135.937 32.7858 136.077 33.0874C136.214 33.389 136.193 33.5916 136.055 33.7358C135.916 33.8801 136.477 34.7864 136.281 34.9131C136.084 35.0399 136.269 35.8398 136.451 35.9899C136.634 36.1429 138.27 34.5139 138.517 33.813C138.517 33.813 139.093 33.4386 138.987 33.1574C138.882 32.8747 138.758 32.3064 138.758 32.3064" fill="#ECC9C0" blush:i="0.0.10"/><path id="Fill 110" fill-rule="evenodd" clip-rule="evenodd" d="M139.845 26.0994C139.845 26.0994 139.376 25.2915 139.352 25.1918C139.325 25.0952 138.83 24.8052 137.986 25.2069C137.141 25.6116 135.53 26.5147 135.105 26.6611C134.682 26.8091 135.672 28.3691 135.672 28.3691C135.672 28.3691 135.512 28.7919 135.338 28.887C135.164 28.9807 134.953 29.8248 135.417 30.2159C135.884 30.6055 136.432 29.9154 136.474 30.453C136.513 30.9906 136.819 31.1884 137.552 30.7882C138.289 30.3896 139.715 29.4171 139.567 28.5759C139.419 27.7318 139.249 27.6276 139.812 27.3226C140.374 27.016 139.458 26.3667 139.845 26.0994" fill="#ECC9C0" blush:i="0.0.11"/><path id="Fill 111" fill-rule="evenodd" clip-rule="evenodd" d="M142.306 26.4602C142.306 26.4602 142.218 26.3665 142.58 26.1902C142.94 26.0152 143.084 25.5702 142.951 25.3434C142.82 25.1166 142.882 24.8886 142.506 25.0599C142.13 25.2325 140.744 25.9573 140.512 26.1286C140.282 26.3012 140.365 26.5514 140.162 26.6451C139.958 26.7388 139.942 26.9348 140.138 27.1998C140.335 27.4623 140.607 28.2697 141.466 27.9085C142.325 27.5486 142.231 27.4032 142.306 27.0913C142.381 26.7807 142.741 26.7264 142.651 26.5674C142.562 26.4084 142.306 26.4602 142.306 26.4602" fill="#ECC9C0" blush:i="0.0.12"/><path id="Fill 112" fill-rule="evenodd" clip-rule="evenodd" d="M161.547 46.2247C161.547 46.2247 161.318 45.8839 161.632 45.6447C161.948 45.404 162.061 45.4337 161.969 44.9428C161.876 44.4488 161.631 43.0778 161.527 43.0028C161.423 42.9277 159.351 44.4113 159.361 44.5348C159.368 44.6583 159.297 45.3039 159.197 45.3743C159.097 45.4446 159.517 45.9715 159.312 46.095C159.108 46.2185 158.933 46.6578 159.026 46.7781C159.118 46.8985 159.194 46.9751 159.203 47.0627C159.211 47.1502 159.428 47.7021 159.711 47.5223C159.994 47.3409 160.16 47.4285 160.095 47.5489C160.03 47.6677 159.937 47.9569 160.141 47.9991C160.346 48.0413 161.609 46.6077 161.547 46.2247" fill="#ECC9C0" blush:i="0.0.13"/><path id="Fill 113" fill-rule="evenodd" clip-rule="evenodd" d="M146.074 32.7455C146.074 32.7455 145.854 32.8666 145.759 32.9193C145.663 32.9707 145.319 33.047 145.249 32.9615C145.176 32.8759 145.007 32.3096 144.985 32.1332C144.964 31.958 145.355 31.8329 145.41 31.7513C145.466 31.6723 143.945 30.5359 144.002 29.6589C144.059 28.7806 147.572 27.6428 147.739 28.1077C147.905 28.5725 147.777 28.7911 147.921 29.0571C147.921 29.0571 148.105 29.2783 147.912 29.3837C147.72 29.4877 147.273 29.6023 147.523 30.0421C147.771 30.4819 147.888 30.5174 147.689 30.6689C147.489 30.8216 145.579 32.2346 145.707 32.4703C145.834 32.706 146.069 32.3346 146.074 32.7455" fill="#ECC9C0" blush:i="0.0.14"/><path id="Fill 114" fill-rule="evenodd" clip-rule="evenodd" d="M152.55 38.472C152.55 38.472 152.157 37.9189 151.943 38.0102C151.731 38.0986 149.479 39.1754 149.253 39.2386C149.026 39.3017 148.947 39.4 149.035 39.5755C149.123 39.7496 149.317 40.2606 149.505 40.3434C149.692 40.4262 149.869 40.6158 149.778 40.9134C149.686 41.211 149.471 41.4595 150.003 42C150.003 42 151.389 41.5353 151.586 41.3683C151.782 41.1998 151.35 41.0187 151.642 40.8306C151.934 40.641 152.944 40.0163 152.996 39.8633C153.048 39.7117 152.55 38.472 152.55 38.472" fill="#ECC9C0" blush:i="0.0.15"/><path id="Fill 115" fill-rule="evenodd" clip-rule="evenodd" d="M152.559 28.6265C152.559 28.6265 152.688 27.9143 152.236 28.0086C151.785 28.1029 148.89 28.8629 149.003 29.7391C149.116 30.6167 149.916 30.1232 149.916 30.1232C149.916 30.1232 150.225 31.1908 150.309 31.2428C150.396 31.2947 151.05 31.184 151.154 31.3849C151.259 31.5859 151.254 32.0889 151.719 31.9864C152.184 31.8825 153.259 31.6542 153.25 31.4191C153.244 31.1826 153.064 31.2441 153.404 31.0118C153.743 30.778 153.592 30.264 153.459 29.9182C153.325 29.5737 154.142 29.5915 153.978 29.2047C153.814 28.8165 154.024 28.7768 153.868 28.6265C153.711 28.4747 153.587 28.5649 153.481 28.3654C153.376 28.1631 152.559 28.6265 152.559 28.6265" fill="#ECC9C0" blush:i="0.0.16"/><path id="Fill 116" fill-rule="evenodd" clip-rule="evenodd" d="M140 19.0755C140 19.0755 139.466 22.1358 139.115 22.6262C138.762 23.1166 136.89 24.1577 136.698 23.9798C136.506 23.8018 135.805 21.1731 136.052 20.8578C136.299 20.544 136.462 20.5776 136.247 20.1698C136.032 19.7621 139.391 18.7112 140 19.0755" fill="#ECC9C0" blush:i="0.0.17"/><path id="Fill 117" fill-rule="evenodd" clip-rule="evenodd" d="M164.932 26.774C164.932 26.774 165.059 26.2836 164.959 26.0839C164.86 25.8827 161.378 26.049 161.099 26.5225C160.817 26.9961 161.228 27.4193 161.228 27.4193C161.228 27.4193 161.931 27.5032 161.723 27.7504C161.514 27.9977 161.996 28.8638 162.125 28.8666C162.255 28.8694 162.859 28.7897 162.9 28.949C162.942 29.1054 163.556 28.8987 163.683 28.3748C163.811 27.8524 164.206 28.467 164.367 28.0466C164.526 27.6261 164.432 27.4389 164.674 27.5157C164.914 27.5954 165.108 27.0939 164.932 26.774" fill="#ECC9C0" blush:i="0.0.18"/><path id="Fill 118" fill-rule="evenodd" clip-rule="evenodd" d="M163.479 13.5328C163.479 13.5328 163.787 13.0645 163.853 12.842C163.918 12.6196 163.789 12.3406 163.72 12.2149C163.65 12.0891 163.261 12.0657 162.639 12.0063C162.019 11.9455 162.264 12.3489 161.624 12.2964C160.985 12.2453 161.167 12.918 161.038 12.9857C160.911 13.0534 159.934 13.3725 160.004 13.4982C160.073 13.6226 160.252 14.6683 160.715 14.4874C161.178 14.3092 161.814 15.0372 162.146 14.9985C162.476 14.9584 163.895 14.7996 163.989 14.3755C164.087 13.9514 163.479 13.5328 163.479 13.5328" fill="#ECC9C0" blush:i="0.0.19"/><path id="Fill 119" fill-rule="evenodd" clip-rule="evenodd" d="M151 22.479C151 22.479 151.708 22.4629 151.955 22.9087C152.201 23.3532 152.018 23.6681 152.522 23.5335C153.026 23.3989 152.068 24.1559 153.121 23.9706C154.177 23.7854 154.97 23.5236 154.987 23.1087C155.005 22.6926 155.043 21.9134 154.776 21.7319C154.509 21.5491 154.281 21.6973 153.98 21.3454C153.677 20.9922 153.101 20.949 152.519 21.0428C151.938 21.1367 151.368 21.2528 151.18 21.4084C150.989 21.5639 151 22.479 151 22.479" fill="#ECC9C0" blush:i="0.0.20"/><path id="Fill 120" fill-rule="evenodd" clip-rule="evenodd" d="M155.35 37C155.35 37 158.163 37.4022 158.242 37.5131C158.319 37.6241 158.238 37.9721 158.514 38.011C158.792 38.047 158.814 38.2398 158.681 38.3105C158.548 38.3812 158.57 38.7044 158.705 38.7279C158.837 38.7515 159.007 38.9651 159 39.3257C158.993 39.6862 158.764 39.707 158.473 39.8623C158.181 40.0204 158.659 40.2049 158.17 40.467C157.68 40.7305 157.64 40.3449 157.501 40.4032C157.362 40.4614 157.119 41.2367 156.622 40.9274C156.126 40.6168 156.069 40.5474 156.034 40.3269C156 40.1092 155.841 40.1952 155.624 40.1758C155.408 40.1563 155.287 39.7805 155.315 39.6141C155.342 39.4463 155.881 38.5241 155.614 38.2287C155.349 37.9333 154.543 37.9943 155.35 37" fill="#ECC9C0" blush:i="0.0.21"/><path id="Fill 121" fill-rule="evenodd" clip-rule="evenodd" d="M146.376 21.6012C146.376 21.6012 146.152 21.2528 146.573 21.0403C146.995 20.8277 148.003 21.537 148.8 21.3056C149.597 21.073 150.118 21.6276 149.977 21.8036C149.839 21.981 149.247 23.5429 149.176 23.7504C149.103 23.9567 148.212 23.9227 148.025 23.8234C147.836 23.724 147.816 24.0887 147.521 23.9793C147.228 23.8711 147.238 23.5806 147.146 23.6297C147.055 23.6787 145.817 23.348 146.023 22.8324C146.23 22.3167 146.376 21.6012 146.376 21.6012" fill="#ECC9C0" blush:i="0.0.22"/><path id="Fill 122" fill-rule="evenodd" clip-rule="evenodd" d="M145.043 11C145.043 11 143.951 11.7593 144.002 11.8899C144.055 12.0232 144.484 14.1717 144.461 14.4724C144.438 14.7704 144.396 15.1841 145.227 14.9106C146.056 14.6384 147.061 14.6997 147.167 14.4888C147.275 14.2806 146.87 13.954 147.409 13.8737C147.948 13.7962 148.007 13.8452 148.166 13.4791C148.324 13.1145 148.339 12.6097 148.859 12.3566C149.38 12.1035 148.319 11.5198 147.875 11.6558C147.43 11.7933 145.043 11 145.043 11" fill="#ECC9C0" blush:i="0.0.23"/><path id="Fill 123" fill-rule="evenodd" clip-rule="evenodd" d="M153 16.4209C153 16.4209 153.244 17.3491 153.472 17.4562C153.7 17.5633 153.37 16.8151 153.942 17.6262C154.513 18.4386 154.114 19.1703 154.761 18.965C155.409 18.7598 157.483 18.2975 157.564 17.897C157.643 17.4965 157.153 17.2295 157.562 17.067C157.972 16.9045 158.116 16.5154 157.9 16.1212C157.683 15.7269 153 16.4209 153 16.4209" fill="#ECC9C0" blush:i="0.0.24"/><path id="Fill 124" fill-rule="evenodd" clip-rule="evenodd" d="M169.916 27.7778L170.486 27.4765C171.055 27.1753 173.065 27.1522 173.425 27.0312C173.785 26.9086 173.373 27.1508 173.516 27.7C173.656 28.2506 173.444 28.3399 173.315 28.4077C173.188 28.4754 174.104 28.7536 173.99 28.9309C173.874 29.1067 173.447 29.1932 173.572 29.5449C173.698 29.8952 173.169 30.3723 172.603 30.6072C172.038 30.8422 171.665 30.6015 171.125 30.956C170.586 31.3106 170.256 29.4037 170.256 29.4037C170.256 29.4037 169.895 29.5694 169.786 29.3734C169.677 29.1774 168.527 28.1886 169.222 27.9839L169.916 27.7778Z" fill="#ECC9C0" blush:i="0.0.25"/><path id="Fill 125" fill-rule="evenodd" clip-rule="evenodd" d="M166.278 18.4442C166.278 18.4442 168.154 17.978 168.507 18.0008C168.86 18.0252 169.048 18.1882 169.257 18.336C169.466 18.4838 169.82 19.0781 169.966 19.9025C170.112 20.7268 169.787 21.9321 169.076 21.9961C168.365 22.0601 168.582 21.3165 168.254 21.4033C167.924 21.4932 167.093 21.8148 167.027 21.382C166.963 20.9477 167.152 20.9508 166.585 20.4327C166.019 19.9146 166.625 19.8903 166.421 19.5672C166.218 19.2442 165.67 18.9699 166.278 18.4442" fill="#ECC9C0" blush:i="0.0.26"/><path id="Fill 126" fill-rule="evenodd" clip-rule="evenodd" d="M161.219 18.0592C161.219 18.0592 162.33 18.3235 162.72 18.137C163.11 17.9505 163.226 17.9599 163.332 18.1317C163.439 18.3034 163.301 18.0699 163.771 18.4295C164.242 18.7905 164.823 19.2199 164.701 19.5875C164.577 19.9538 165.348 21.0836 164.803 20.9951C164.255 20.9092 163.85 21.1038 163.199 20.6744C162.547 20.2477 162.134 20.4758 161.681 19.5822C161.228 18.6899 160.69 19.6492 161.219 18.0592" fill="#ECC9C0" blush:i="0.0.27"/><path id="Fill 127" fill-rule="evenodd" clip-rule="evenodd" d="M155 47.2756C155 47.2756 154.386 46.633 154.632 46.412C154.879 46.191 154.908 45.7964 154.255 46.1267C153.601 46.4583 153.533 46.7487 152.497 47.0199C151.46 47.291 152.368 48.6108 152.368 48.6108C152.368 48.6108 152.011 49.1107 152.322 49.5258C152.632 49.9396 152.93 49.6299 153.008 49.9396C153.086 50.2493 153.15 51.2349 153.905 50.9484C154.658 50.6618 153.301 49.7918 154.076 49.3985C154.851 49.0053 154.921 49.1261 154.926 48.49C154.928 47.8526 154.273 47.8989 155 47.2756" fill="#ECC9C0" blush:i="0.0.28"/><path id="Fill 128" fill-rule="evenodd" clip-rule="evenodd" d="M84.932 57.774C84.932 57.774 85.0585 57.2822 84.9586 57.0839C84.8599 56.8827 81.3787 57.049 81.0991 57.5225C80.817 57.9961 81.2269 58.4193 81.2269 58.4193C81.2269 58.4193 81.9302 58.5032 81.7215 58.7504C81.514 58.9977 81.996 59.8638 82.125 59.8666C82.2553 59.8694 82.8587 59.7897 82.9004 59.949C82.9422 60.1054 83.5557 59.8987 83.6835 59.3748C83.8112 58.8524 84.2059 59.467 84.3666 59.0466C84.5259 58.6261 84.4323 58.4389 84.674 58.5157C84.9143 58.5954 85.1078 58.0939 84.932 57.774" fill="#ECC9C0" blush:i="0.0.29"/><path id="Fill 129" fill-rule="evenodd" clip-rule="evenodd" d="M79.0692 61C79.0692 61 77.0347 61.231 76.7716 61.3048C76.5072 61.3803 76.2717 61.5696 76.0741 61.6001C75.8752 61.6305 76.1182 62.0509 76.3171 62.1696C76.516 62.29 75.9923 63.1371 76.5009 63.2414C77.0095 63.3457 77.2172 63.0392 77.2651 63.5992C77.3142 64.1575 77.1455 65.2453 77.5685 64.9501C77.9928 64.6549 78.5064 64.6228 78.9609 64.3067C79.4167 63.9891 79.8195 63.7917 79.9492 63.405C80.0801 63.0184 79.9366 61.9659 79.7604 61.6787C79.5841 61.3931 79.1598 61.6081 79.0692 61" fill="#ECC9C0" blush:i="0.0.30"/><path id="Fill 130" fill-rule="evenodd" clip-rule="evenodd" d="M92 35.1166C92 35.1166 92.6873 35.4338 92.7361 36.0385C92.7836 36.6446 92.4709 36.904 93.0157 36.9944C93.5579 37.0833 92.3113 37.4657 93.4062 37.7577C94.501 38.0496 95.3756 38.1356 95.5682 37.6865C95.7634 37.2389 96.1315 36.3986 95.9521 36.074C95.7727 35.7465 95.4904 35.8028 95.3506 35.2722C95.2107 34.7417 94.6752 34.4215 94.075 34.2526C93.4748 34.0836 92.8772 33.9414 92.6292 34.0244C92.3799 34.1044 92 35.1166 92 35.1166" fill="#ECC9C0" blush:i="0.0.31"/><path id="Fill 131" fill-rule="evenodd" clip-rule="evenodd" d="M102.22 33C102.22 33 104.75 34.3767 104.777 34.4994C104.806 34.6234 104.579 34.8908 104.83 35.0238C105.081 35.1581 105.021 35.3299 104.864 35.3415C104.705 35.3544 104.59 35.6372 104.708 35.707C104.827 35.7754 104.899 36.0221 104.74 36.3256C104.58 36.6317 104.351 36.5658 104.007 36.5917C103.66 36.6188 104.042 36.952 103.46 36.9959C102.879 37.0411 103.004 36.6976 102.845 36.695C102.686 36.6937 102.126 37.2671 101.78 36.8203C101.434 36.3734 101.411 36.292 101.47 36.0931C101.528 35.893 101.34 35.9072 101.142 35.8116C100.942 35.716 100.983 35.3505 101.082 35.2175C101.179 35.0845 102.085 34.4956 101.955 34.1456C101.825 33.7956 101.026 33.5528 102.22 33" fill="#ECC9C0" blush:i="0.0.32"/><path id="Fill 132" fill-rule="evenodd" clip-rule="evenodd" d="M105.081 37.4906C105.081 37.4906 105.003 37.0316 105.564 37.0005C106.127 36.9723 106.891 38.1544 107.872 38.2716C108.855 38.3888 109.16 39.1938 108.924 39.3125C108.687 39.4325 107.297 40.7756 107.118 40.9564C106.941 41.1386 105.983 40.7022 105.824 40.5172C105.666 40.3308 105.47 40.6966 105.199 40.4522C104.929 40.2093 105.079 39.9141 104.956 39.9254C104.835 39.9339 103.638 39.0385 104.109 38.5993C104.579 38.1628 105.081 37.4906 105.081 37.4906" fill="#ECC9C0" blush:i="0.0.33"/><path id="Fill 133" fill-rule="evenodd" clip-rule="evenodd" d="M113.085 40C113.085 40 111.831 40.3081 111.819 40.4472C111.809 40.5876 111.279 42.7143 111.135 42.9815C110.99 43.2488 110.782 43.6128 111.608 43.6591C112.434 43.7055 113.271 44.1199 113.449 43.9659C113.629 43.8132 113.418 43.3674 113.913 43.4887C114.409 43.6073 114.437 43.6741 114.726 43.396C115.014 43.1165 115.239 42.6584 115.79 42.6121C116.343 42.5657 115.678 41.6496 115.241 41.6182C114.802 41.5842 113.085 40 113.085 40" fill="#ECC9C0" blush:i="0.0.34"/><path id="Fill 134" fill-rule="evenodd" clip-rule="evenodd" d="M81 67.5295C81 67.5295 84.4984 66.275 85.2774 67.6278C86.055 68.9819 85.0299 68.1967 85.768 69.1838C86.5045 70.1709 85.2789 69.7291 84.9772 69.5692C84.6755 69.4106 83.8496 70.302 83.1878 69.8904C82.5273 69.4774 83.0735 69.0278 82.0909 69.3228C81.1084 69.619 82.1817 69.4696 81.5901 68.4995L81 67.5295Z" fill="#ECC9C0" blush:i="0.0.35"/><path id="Fill 135" fill-rule="evenodd" clip-rule="evenodd" d="M88.1024 39C88.1024 39 87.897 40.1993 88.0679 40.4278C88.2389 40.6564 88.2733 39.631 88.4428 40.8415C88.6122 42.0521 87.8775 42.7266 88.6017 42.7813C89.3258 42.8344 91.5611 43.2336 91.828 42.8006C92.0949 42.3676 91.7471 41.8315 92.2208 41.8267C92.6946 41.8219 93.0214 41.4339 92.9989 40.8721C92.9749 40.3103 88.1024 39 88.1024 39" fill="#ECC9C0" blush:i="0.0.36"/><path id="Fill 136" fill-rule="evenodd" clip-rule="evenodd" d="M95.8963 44.0905L96.4431 44.0316C96.9887 43.9727 98.5552 44.7878 98.8776 44.8188C99.1987 44.8482 98.7961 44.9149 98.7133 45.5161C98.633 46.1173 98.4373 46.1173 98.3144 46.1297C98.1903 46.1436 98.8048 46.7991 98.6543 46.9261C98.5038 47.0517 98.1426 46.9602 98.1175 47.3569C98.0924 47.7536 97.518 48.0031 96.9975 48C96.477 47.9969 96.2713 47.6033 95.7294 47.7273C95.1901 47.8528 95.5952 45.8337 95.5952 45.8337C95.5952 45.8337 95.2591 45.8492 95.2428 45.609C95.2252 45.3704 94.6771 43.917 95.2879 44.0037L95.8963 44.0905Z" fill="#ECC9C0" blush:i="0.0.37"/><path id="Fill 137" fill-rule="evenodd" clip-rule="evenodd" d="M93.1671 48.2428C93.1671 48.2428 93.7042 48.2523 93.7095 48.3148C93.7148 48.3774 93.9847 48.478 93.998 48.1013C94.0113 47.7233 93.9675 47.5546 93.5314 47.5927C93.0979 47.6335 92.2337 47.3806 91.666 47.2119C91.0996 47.0433 90.1396 46.9263 90.1197 47.0542C90.0984 47.182 90 47.9898 90 47.9898C90 47.9898 90.4547 48.2156 90.4919 48.4168C90.5305 48.6167 90.4454 49.7074 90.6262 49.9726C90.8084 50.2405 92.832 50.5914 93.0474 50.7749C93.2628 50.9599 93.7441 51.1992 93.7175 50.7138C93.6909 50.231 93.5353 50.2133 93.5114 49.9332C93.4875 49.653 93.3864 49.7251 93.3718 49.5537C93.3572 49.3824 93.4729 49.1362 93.4037 49.0329C93.3333 48.9295 92.7948 48.5487 93.1671 48.2428" fill="#ECC9C0" blush:i="0.0.38"/><path id="Fill 138" fill-rule="evenodd" clip-rule="evenodd" d="M101.57 50C101.57 50 103.744 50.4077 104.112 50.5703C104.479 50.7341 104.613 50.9399 104.779 51.1431C104.944 51.3463 105.093 51.9612 104.929 52.6717C104.767 53.3822 103.957 54.1989 103.178 53.9564C102.397 53.7139 102.914 53.2157 102.529 53.1489C102.145 53.0846 101.138 52.9942 101.235 52.6258C101.335 52.2574 101.533 52.3374 101.132 51.695C100.73 51.0527 101.383 51.2834 101.291 50.9452C101.198 50.607 100.723 50.1626 101.57 50" fill="#ECC9C0" blush:i="0.0.39"/><path id="Fill 139" fill-rule="evenodd" clip-rule="evenodd" d="M90.5935 54L93.784 54.5039C93.784 54.5039 94.4834 55.256 94.7413 55.2964C94.9992 55.3368 94.8975 56.6885 94.7231 56.8589C94.5471 57.0309 95.1645 56.8215 94.9567 58.0581C94.7504 59.2932 94.409 60.0737 94.2421 59.9945C94.0768 59.9152 92.7417 59.1556 92.7417 59.1556L92.8085 58.4319L91.0061 57.1236L91.0911 55.099C91.0911 55.099 89.9805 55.3039 90.0003 54.9585C90.0215 54.6131 90.5935 54 90.5935 54" fill="#ECC9C0" blush:i="0.0.40"/><path id="Fill 140" fill-rule="evenodd" clip-rule="evenodd" d="M95.5771 61C95.5771 61 96.4119 61.6344 96.8251 61.5994C97.2382 61.5657 97.3322 61.6129 97.3507 61.8095C97.3693 62.0048 97.3507 61.7422 97.5986 62.2392C97.8479 62.7362 98.1628 63.3356 97.9021 63.6306C97.6414 63.9256 97.8209 65.2362 97.3921 64.9627C96.9633 64.6906 96.5344 64.727 96.1584 64.1034C95.7837 63.4811 95.3335 63.5457 95.325 62.5638C95.3178 61.5846 94.4517 62.2756 95.5771 61" fill="#ECC9C0" blush:i="0.0.41"/><path id="Fill 141" fill-rule="evenodd" clip-rule="evenodd" d="M83.9237 47C83.9237 47 85.2647 47.6194 86.2601 47.6964C87.254 47.7719 87.9703 48.0356 87.9037 48.4009C87.8371 48.7649 87.9009 48.8899 87.9884 49.2401C88.0758 49.5917 87.6372 49.4668 87.7454 49.9461C87.8537 50.4254 87.3304 51.5792 87.3304 51.5792C87.3304 51.5792 85.9505 51.3415 86.3142 51.6684C86.6751 51.9953 87.1319 51.9225 86.6751 51.9953C86.2212 52.0667 85.2633 51.3045 85.4813 50.7963C85.6992 50.2881 84.5137 50.6521 84.5317 50.1288L84.5512 49.6041C84.5512 49.6041 83.3004 49.8692 83.4989 49.2031C83.6988 48.5383 82.008 47.3104 83.9237 47" fill="#ECC9C0" blush:i="0.0.42"/></g></g></svg>