<svg viewBox="21.61250000000001 21.956647398843927 203.77500000000003 170.08670520231215" fill="none" xmlns="http://www.w3.org/2000/svg" xmlns:xlink="http://www.w3.org/1999/xlink" xmlns:blush="http://design.blush" overflow="visible" width="203.77500000000003px" height="170.08670520231215px"><g id="Master/Stickers/Plants Composition" blush:has-customizable-colors="true" blush:viewBox="20.995000000000005 23.599307159353344 205.01000000000005 166.80138568129325" blush:i="0"><g id="Group 58 Copy" blush:i="0.0"><path id="Fill 130" fill-rule="evenodd" clip-rule="evenodd" d="M120.789 138.029C120.789 138.029 124.768 175.825 124.768 179.415C124.768 183.006 129.208 190.259 143.853 189.467C158.499 188.675 162.279 186.88 163.035 179.509C163.791 172.139 169.177 138.029 169.177 138.029H120.789Z" fill="#FED6D3" blush:i="0.0.0"/><path id="Fill 132" fill-rule="evenodd" clip-rule="evenodd" d="M169.176 138.029C169.176 135.889 158.344 134.155 144.982 134.155C131.62 134.155 120.788 135.889 120.788 138.029C120.788 140.169 131.62 141.903 144.982 141.903C158.344 141.903 169.176 140.169 169.176 138.029" fill="#FFACA7" blush:i="0.0.1"/><path id="Fill 134" fill-rule="evenodd" clip-rule="evenodd" d="M161.806 140.249C161.806 139.336 154.274 138.596 144.982 138.596C135.691 138.596 128.159 139.336 128.159 140.249C128.159 141.162 135.691 141.902 144.982 141.902C154.274 141.902 161.806 141.162 161.806 140.249" fill="#A27B64" blush:i="0.0.2"/><path id="Fill 1990" fill-rule="evenodd" clip-rule="evenodd" d="M109.825 112.527C112.144 113.177 110.505 116.685 108.856 114.602C108.492 111.972 106.377 115.275 105.456 114.652C104.255 107.308 100.945 117.436 98.7586 115.797C96.8766 111.449 118.411 94.7998 106.706 95.6658C103.922 96.5268 102.376 98.6028 101.315 100.558C94.5986 113.352 99.7246 110.923 91.0836 95.9798C93.2956 90.4318 100.842 78.5948 89.9096 85.4628C87.0516 82.4238 84.2046 88.3548 82.7336 83.8618C81.0536 79.6158 76.3736 69.8948 75.9016 78.3298C68.4106 81.9828 92.1646 81.7478 75.2856 88.0628C71.5446 94.9548 80.8566 85.3738 89.1276 97.9488C93.3876 102.082 87.6726 100.529 84.5446 99.7338C84.2056 101.742 73.8826 105.313 78.3826 105.679C83.3296 110.832 84.3306 101.861 86.5406 107.053C85.5566 109.016 81.3326 108.519 86.1696 110.963C93.9206 114.594 93.5446 102.945 96.0606 114.397C98.4466 119.707 92.1446 111.909 93.4636 116.622C94.0896 118.778 103.251 132.078 97.0126 131.985C96.0366 128.244 89.3136 123.945 86.4076 127.252C86.7756 134.5 84.5536 125.932 83.3716 125.117C81.2756 125.328 84.2256 129.029 84.2356 129.924C84.3446 130.815 82.8916 134.363 85.0736 132.305C85.1276 131.132 87.0266 130.504 87.3096 131.834C87.7846 132.902 85.9586 134.181 88.3716 133.72C91.7276 133.037 96.5296 134.466 100.675 134.986C104.131 134.45 100.143 130.845 101.99 129.403C104.918 128.48 107.36 121.053 110.828 121.984C111.375 120.875 106.137 117.585 110.628 117.762C114.026 121.971 116.177 111.053 109.825 112.527" fill="#7C984A" blush:i="0.0.3"/><path id="Fill 1992" fill-rule="evenodd" clip-rule="evenodd" d="M94.683 88.2191C94.669 88.2441 94.655 88.2711 94.641 88.2961C94.684 88.2871 94.712 88.2541 94.683 88.2191" fill="#7C984A" blush:i="0.0.4"/><path id="Fill 1994" fill-rule="evenodd" clip-rule="evenodd" d="M99.5091 103.45C99.3981 103.466 99.3221 103.513 99.3331 103.641C99.4651 103.645 99.6241 103.675 99.5091 103.45" fill="#7C984A" blush:i="0.0.5"/><path id="Fill 1996" fill-rule="evenodd" clip-rule="evenodd" d="M175.35 57.8539C176.12 7.49891 162.013 17.9259 144.782 58.9549C141.812 68.9629 141.315 109.486 156.341 99.9659C169.355 92.2319 176.828 72.8689 175.35 57.8539" fill="#7EA535" blush:i="0.0.6"/><path id="Fill 1998" fill-rule="evenodd" clip-rule="evenodd" d="M175.414 82.4555C172.926 85.3345 175.823 82.2475 175.974 82.9405C177.143 83.9295 176.635 80.3555 175.414 82.4555" fill="#7EA535" blush:i="0.0.7"/><path id="Fill 2000" fill-rule="evenodd" clip-rule="evenodd" d="M150.319 102.559C150.495 102.634 150.854 102.398 150.803 102.869C150.788 103.014 150.89 102.9 150.922 102.858C151.022 102.724 151.136 102.848 151.242 102.833L151.245 102.836C151.248 102.937 151.218 103.064 151.325 103.114C151.448 103.171 151.532 103.027 151.552 102.965C151.655 102.664 151.905 102.771 152.103 102.735C152.156 102.924 151.994 103.021 151.933 103.162C151.663 103.794 151.275 104.371 151.094 105.05C150.863 105.926 150.396 106.715 150.06 107.553C149.929 107.88 150.037 108.276 149.744 108.54C149.706 108.46 149.665 108.381 149.632 108.299C149.538 108.068 149.402 108.105 149.339 108.29C149.244 108.567 148.96 108.705 148.883 108.986C148.871 109.032 148.757 109.068 148.764 109.049C148.915 108.676 148.349 108.576 148.458 108.228C148.704 108.151 148.634 107.984 148.532 107.859C148.357 107.645 148.344 107.405 148.356 107.152C148.696 106.222 149.052 105.288 149.486 104.409C149.787 103.799 149.888 103.103 150.319 102.559" fill="#95B65B" blush:i="0.0.8"/><path id="Fill 2002" fill-rule="evenodd" clip-rule="evenodd" d="M149.581 108.767C149.517 108.761 149.455 108.729 149.479 108.662C149.52 108.551 149.629 108.598 149.712 108.59C149.707 108.677 149.668 108.74 149.581 108.767" fill="#95B65B" blush:i="0.0.9"/><path id="Fill 2004" fill-rule="evenodd" clip-rule="evenodd" d="M124.978 108.866C125.012 108.762 125.041 108.857 125.072 108.858C125.044 108.897 124.976 108.862 124.978 108.866" fill="#5F753A" blush:i="0.0.10"/><path id="Fill 2006" fill-rule="evenodd" clip-rule="evenodd" d="M187.855 82.5111C188.461 82.4391 188.959 82.0681 189.531 81.9031C190.081 81.7431 190.485 81.2451 191.121 81.2511C191.212 81.2521 191.441 80.9721 191.625 80.8681C192.033 80.6391 192.468 80.4581 192.893 80.2571L192.888 80.2621C193.185 79.8541 193.69 79.8181 194.093 79.6041C194.574 79.3491 195.129 79.2851 195.646 79.1201C195.985 79.0121 196.367 78.9541 196.661 79.0421C197.057 79.1601 197.384 79.0801 197.737 78.9881C197.956 78.9301 198.605 79.1791 198.697 79.3741C198.74 79.4651 198.761 79.5321 198.627 79.6211C198.177 79.9161 197.709 80.2151 197.457 80.7101C197.303 81.0101 196.977 81.0511 196.782 81.2701C196.729 81.3281 196.588 81.3461 196.65 81.4601C196.673 81.5021 196.781 81.5101 196.85 81.5131C197.837 81.5541 198.82 81.4941 199.802 81.3971C200.597 81.3191 201.296 80.9571 202.038 80.7211C202.437 80.5931 202.846 80.5241 203.253 80.4551C203.68 80.3851 204.084 80.9291 203.945 81.3421C203.914 81.4341 203.848 81.5211 203.756 81.5081C203.333 81.4461 203.356 81.8891 203.13 82.0501C203.035 82.1181 203.077 82.2041 203.189 82.2431C203.344 82.2971 203.505 82.3421 203.605 82.4891C203.719 82.6231 203.869 82.7401 203.918 82.9121C204.021 83.2731 203.782 83.3011 203.519 83.2911C203.821 83.3721 203.853 83.5241 203.628 83.7311C203.574 83.7821 203.488 83.7651 203.415 83.7731C202.85 83.7731 202.295 83.6671 201.736 83.6151C201.434 83.5881 201.124 83.6621 200.842 83.4871C200.81 83.4661 200.761 83.4581 200.73 83.5141C200.552 83.8331 200.185 83.7271 200.019 83.6571C199.463 83.4201 198.93 83.6541 198.395 83.6531C197.787 83.6521 197.181 83.6901 196.578 83.5851L196.583 83.5901C196.271 83.3511 196.026 83.6961 195.73 83.7061C195.318 83.7221 194.894 83.7961 194.485 83.7531C193.998 83.7021 193.54 83.8071 193.085 83.9111C192.572 84.0291 192.056 83.9911 191.543 84.0351C190.487 84.1251 189.434 84.2811 188.432 84.6121C188.072 84.7311 187.703 84.8231 187.342 84.9431C187.037 85.0431 186.73 85.0951 186.482 85.3731C186.29 85.5891 185.938 85.5571 185.647 85.4771C185.365 85.3991 185.103 85.3561 184.851 85.5701C184.686 85.7101 184.459 85.6651 184.26 85.7091C183.751 85.8241 183.291 86.0751 182.808 86.2641C182.3 86.4631 181.804 86.6941 181.25 86.7481C180.842 86.7881 180.565 87.1111 180.208 87.2641C180.13 87.1991 180.131 87.1121 180.126 87.0211C180.124 86.9641 180.201 86.9031 180.118 86.8521C180.091 86.9441 179.943 86.8931 179.935 87.0071C179.909 87.3891 179.619 87.4481 179.329 87.4791C179.156 87.4971 178.982 87.4401 178.801 87.4881C178.647 87.5291 178.569 87.4011 178.507 87.2701C178.471 87.1931 178.527 87.0291 178.417 87.0521C178.352 87.0671 178.415 87.2411 178.466 87.3311C178.647 87.6451 178.524 87.7611 178.207 87.8651C177.975 87.9411 177.733 88.1141 177.79 88.4461C177.069 88.9701 176.311 89.4391 175.571 89.9331C174.617 90.5701 173.593 91.1181 172.771 91.9411C172.097 91.9861 171.885 92.6931 171.348 92.9331C171.334 92.9391 171.321 92.9451 171.307 92.9511C171.022 93.1201 170.707 93.0851 170.397 93.0871C170.257 93.0871 170.168 93.0251 170.15 92.8851C170.127 92.7111 170.187 92.5601 170.312 92.4421C170.407 92.3521 170.515 92.3141 170.62 92.4361C170.647 92.4671 170.65 92.5131 170.684 92.5401C170.672 92.5011 170.653 92.4661 170.642 92.4281C170.606 92.3031 170.356 92.2611 170.502 92.0671C171.001 91.6321 171.55 91.2431 172.023 90.8021C172.511 90.3471 172.995 89.8941 173.539 89.5101C174.152 89.0781 174.749 88.6231 175.38 88.2151C175.671 88.0271 175.938 87.7561 176.226 87.5401C176.396 87.4131 176.209 87.2981 176.273 87.1791C176.48 86.7901 176.599 86.3261 176.887 86.0191C177.173 85.7131 177.27 85.3241 177.52 85.0021C178.001 84.3831 178.447 83.7081 179.016 83.1941C179.473 82.7811 179.817 82.2171 180.419 81.9481C180.542 81.8931 180.651 81.6961 180.765 81.5641C180.896 81.4121 181.099 81.3221 181.234 81.4011C181.427 81.5151 181.403 81.7511 181.341 81.9701C181.233 82.3611 181.004 82.6861 180.795 83.0211C180.496 83.5041 180.337 84.0511 180.086 84.5561C180.038 84.6531 179.991 84.7631 180.056 84.8541C180.157 84.9931 180.291 84.8711 180.376 84.8311C180.992 84.5381 181.666 84.4711 182.315 84.3131C182.612 84.2401 182.825 84.0951 183.007 83.8251C183.513 83.0741 183.959 82.2871 184.557 81.5901C185.079 80.9811 185.704 80.5181 186.288 79.9921C186.679 79.6411 187.08 79.2991 187.489 78.9731C188.152 78.4431 188.903 78.0421 189.709 77.7751C190.029 77.6691 190.401 77.7751 190.63 77.9991C190.901 78.2641 190.644 78.5451 190.444 78.7231C189.996 79.1221 189.474 79.4461 189.054 79.8711C188.86 80.0681 188.651 80.3021 188.55 80.6131C188.476 80.8401 188.344 81.0881 188.13 81.2531C188.108 81.2761 188.082 81.2911 188.053 81.2881C187.989 81.2821 187.879 81.0701 187.877 81.3381C187.876 81.4231 187.771 81.4711 187.674 81.4781C187.643 81.4791 187.619 81.4651 187.603 81.4381C187.581 81.4631 187.625 81.4731 187.618 81.4961C187.628 81.5581 187.636 81.6491 187.598 81.6651C186.972 81.9391 187.463 82.2271 187.582 82.5101L187.583 82.5111C187.673 82.6161 187.764 82.6171 187.855 82.5111" fill="#BCE378" blush:i="0.0.11"/><path id="Fill 2008" fill-rule="evenodd" clip-rule="evenodd" d="M129.483 110.751C130.2 111.349 130.905 110.579 131.681 110.938C132.64 111.428 129.082 111.858 129.483 110.751" fill="#AED569" blush:i="0.0.12"/><path id="Fill 2010" fill-rule="evenodd" clip-rule="evenodd" d="M200.239 83.5482C193.01 82.8932 181.213 86.0312 178.256 87.7592C174.552 91.3052 165.109 96.1792 174.678 88.8222C177.201 87.3732 178.511 82.0222 181.231 81.8202C178.135 90.4042 186.854 77.7192 190.273 77.9492C190.65 79.3162 187.091 81.3832 187.09 81.9242C188.551 84.1102 201.806 74.7122 196.577 81.4742C198.203 82.8872 203.838 79.1152 203.515 81.4502C202.708 83.4542 205.638 83.5342 200.239 83.5482M144.982 127.252C145.033 127.168 145.089 127.086 145.127 126.998C145.116 127.113 145.068 127.198 144.982 127.252M139.794 128.441C139.733 128.303 139.761 128.219 139.827 128.159C139.821 128.325 139.829 128.486 139.854 128.64C139.837 128.569 139.82 128.499 139.794 128.441M137.418 126.65C137.188 126.926 136.972 126.929 136.692 126.846C136.977 126.746 137.26 126.654 137.544 126.566C137.507 126.593 137.463 126.62 137.418 126.65M176.49 82.4122C165.485 86.8772 163.561 114.544 149.548 108.102C128.544 96.7832 103 125.391 110.124 150.517C114.284 140.842 126.103 130.64 136.406 126.951C136.308 127.06 136.255 127.228 136.212 127.421C142.135 124.502 138.093 127.75 140.089 129.277C140.652 129.428 140.082 129.527 139.88 129.722C139.917 129.683 139.889 129.649 139.865 129.611C137.455 131.206 142.339 145.663 141.879 138.323C142.129 138.602 139.136 125.331 143.429 124.867C144.112 128.024 142.043 133.127 142.515 136.92C142.955 145.771 145.76 134.559 144.046 131.937C144.558 132.712 144.947 131.367 144.643 131.272C144.92 130.895 144.832 130.503 144.68 130.001C145.484 128.995 145.171 127.013 145.54 125.676C145.761 125.548 145.808 124.871 145.538 125.035C145.59 124.801 145.671 124.575 145.774 124.358C145.788 124.381 145.792 124.403 145.811 124.429C146.089 123.678 148.47 123.87 148.236 123.309C155.54 120.665 142.492 138.808 147.852 140.767C148.202 139.486 150.251 134.006 148.696 133.614C148.943 133.344 149.501 132.208 149.56 133.278C151.347 122.08 153.84 123.236 158.842 118.599C158.721 118.664 158.607 118.738 158.492 118.811C158.67 118.605 158.84 118.378 159.002 118.131C158.896 118.247 158.906 118.419 158.891 118.579C159.064 118.439 159.15 118.256 159.155 118.033C159.089 118.057 159.04 118.089 159.004 118.128C159.073 118.023 159.141 117.91 159.208 117.796C159.22 117.835 159.229 117.875 159.241 117.914C159.566 117.883 159.406 117.564 159.535 117.416C159.497 117.394 159.468 117.388 159.436 117.374C157.602 97.3522 184.006 92.7972 200.624 90.4282C211.068 87.9722 220.24 99.7692 225.51 102.653C224.666 82.8962 189.957 68.6112 176.49 82.4122" fill="#7FA637" blush:i="0.0.13"/><path id="Fill 2012" fill-rule="evenodd" clip-rule="evenodd" d="M154.649 126.303C154.65 126.302 154.65 126.301 154.651 126.3H154.65C154.65 126.302 154.649 126.302 154.649 126.303" fill="#7FA637" blush:i="0.0.14"/><path id="Fill 2014" fill-rule="evenodd" clip-rule="evenodd" d="M169.337 130.444C167.449 132.892 168.201 126.949 166.537 127.125C161.172 122.22 156.66 123.322 154.301 126.755C154.081 126.267 154.004 127.136 153.958 127.258C153.433 126.84 152.126 129.987 152.612 130.13C144.683 147.738 168.669 154.644 174.474 168.133C195.188 137.598 172.41 105.882 169.337 130.444" fill="#7FA637" blush:i="0.0.15"/><path id="Fill 2016" fill-rule="evenodd" clip-rule="evenodd" d="M170.827 92.1752C170.871 92.2152 170.919 92.2212 170.968 92.1802C170.92 92.1342 170.879 92.1332 170.827 92.1752" fill="#7FA637" blush:i="0.0.16"/><path id="Fill 2018" fill-rule="evenodd" clip-rule="evenodd" d="M135.497 127.374C134.998 127.703 134.192 127.929 133.902 128.127C133.863 128.988 137.092 126.859 135.497 127.374" fill="#7FA637" blush:i="0.0.17"/><path id="Fill 2020" fill-rule="evenodd" clip-rule="evenodd" d="M132.263 129.096C132.788 128.923 133.309 128.74 133.793 128.468C133.359 128.177 132.42 128.562 132.263 129.096" fill="#7FA637" blush:i="0.0.18"/><path id="Fill 2022" fill-rule="evenodd" clip-rule="evenodd" d="M149.176 133.684C149.275 133.847 149.58 133.802 149.488 133.584C149.384 133.618 149.28 133.651 149.176 133.684" fill="#7FA637" blush:i="0.0.19"/><path id="Fill 2024" fill-rule="evenodd" clip-rule="evenodd" d="M149.279 134.249C149.377 134.207 149.421 134.145 149.356 134.043C149.266 134.088 149.263 134.165 149.279 134.249" fill="#7FA637" blush:i="0.0.20"/><path id="Fill 2026" fill-rule="evenodd" clip-rule="evenodd" d="M149.256 133.894C149.253 134 149.447 133.95 149.373 133.871C149.332 133.878 149.256 133.887 149.256 133.894" fill="#7FA637" blush:i="0.0.21"/><path id="Fill 2028" fill-rule="evenodd" clip-rule="evenodd" d="M151.683 122.945C151.672 122.995 151.639 123.03 151.595 122.998C151.55 122.966 151.521 122.91 151.486 122.865C151.519 122.848 151.553 122.816 151.586 122.818C151.658 122.823 151.682 122.879 151.683 122.945" fill="#95B65B" blush:i="0.0.22"/><path id="Fill 2030" fill-rule="evenodd" clip-rule="evenodd" d="M153.675 90.0619C151.436 107.308 150.875 89.9689 146.672 85.0069C143.179 78.1249 153.06 90.9109 149.43 81.6469C148.042 78.8759 145.035 72.8709 150.327 76.9749C150.351 72.6739 146.934 69.0189 146.919 64.8849C148.654 63.8179 149.65 66.9939 151.202 67.8199C153.508 64.1709 147.911 57.2769 149.287 52.1899C154.485 58.0979 157.408 61.6099 154.438 51.4369C154.478 49.8579 155.94 51.4189 156.587 52.3419C159.374 48.3809 160.29 40.5639 164.853 36.8289C168.91 32.0269 164.285 41.2029 163.044 43.1319C161.918 45.7179 165.876 41.7109 167.274 41.4169C169.234 43.3619 160.945 47.6359 160.506 51.2059C163.041 50.3969 166.966 45.9529 169.334 47.3929C161.701 53.0659 158.577 53.2579 157.811 62.8769C157.537 65.7619 166.118 54.9539 170.613 54.8669C135.911 90.8419 186.616 52.3209 157.286 77.7719C150.815 85.6969 165.325 74.3599 167.258 75.1369C163.421 80.4239 158.499 85.7089 153.675 90.0619" fill="#BCE378" blush:i="0.0.23"/><path id="Fill 2032" fill-rule="evenodd" clip-rule="evenodd" d="M151.242 102.833C151.253 102.766 151.254 102.689 151.352 102.696C151.363 102.697 151.381 102.714 151.382 102.725C151.389 102.825 151.309 102.822 151.245 102.836L151.242 102.833Z" fill="#95B65B" blush:i="0.0.24"/><path id="Fill 2034" fill-rule="evenodd" clip-rule="evenodd" d="M161.044 129.815C163.463 128.705 167.771 130.057 168.143 133.049C169.119 130.008 178.617 124.819 177.667 129.819C176.186 129.218 172.032 131.22 172.683 132.502C174.3 133.036 180.705 135.737 178.706 137.474C165.911 136.332 177.144 141.892 179.639 146.707C169.573 146.107 175.823 144.658 174.065 156.867C171.233 160.129 173.214 149.128 171.68 147.063C163.942 151.259 164.801 152.34 167.597 142.323C165.977 142.605 165.029 145.113 163.937 146.199C159.82 146.788 168.641 138.936 163.269 142.723C155.365 149.962 161.435 138.042 166.119 136.373C166.217 135.192 162.097 137.048 161.367 136.668C160.664 137.324 156.905 140.233 157.838 137.245C159.192 133.367 171.027 132.275 162.714 131.245C160.84 130.68 159.36 131.796 161.044 129.815" fill="#BCE378" blush:i="0.0.25"/><path id="Fill 2036" fill-rule="evenodd" clip-rule="evenodd" d="M175.166 54.4896C175.152 54.5126 175.14 54.5366 175.127 54.5586C175.114 54.5356 175.093 54.5116 175.093 54.4896C175.093 54.4666 175.115 54.4436 175.127 54.4206C175.141 54.4426 175.153 54.4666 175.166 54.4896" fill="#7EA535" blush:i="0.0.26"/><path id="Fill 2038" fill-rule="evenodd" clip-rule="evenodd" d="M143.661 137.936C143.651 137.938 143.637 137.946 143.632 137.941C143.623 137.934 143.622 137.92 143.617 137.909C143.634 137.906 143.651 137.902 143.668 137.899C143.666 137.912 143.664 137.923 143.661 137.936" fill="#95B65B" blush:i="0.0.27"/><path id="Fill 2040" fill-rule="evenodd" clip-rule="evenodd" d="M143.051 139.613C143.083 139.546 143.119 139.546 143.157 139.609L143.131 139.636L143.096 139.664L143.067 139.631L143.051 139.613Z" fill="#95B65B" blush:i="0.0.28"/><path id="Fill 2042" fill-rule="evenodd" clip-rule="evenodd" d="M134.245 100.974C132.603 99.2508 127.278 100.924 127.612 99.3178C128.103 98.6588 128.745 97.6318 127.692 97.3088C126.109 96.2628 123.871 97.2058 122.22 97.4518C124.034 91.5158 131.294 87.8008 128.861 81.0878C125.367 79.4318 125.89 86.4868 121.336 85.0648C121.386 88.1638 124.829 93.2958 121.227 94.4168C121.772 91.1238 114.143 84.3088 115.17 90.6018C115.227 92.8808 119.04 103.681 115.565 101.349C113.041 97.6248 108.529 96.6948 107.675 102.013C110.252 106.191 116.372 109.944 114.077 114.976C114.536 117.354 111.585 118.685 110.139 120.82C110.877 121.228 110.737 121.246 110.697 122.134C111.64 122.301 112.347 123.056 112.26 123.811C113.627 124.538 114.562 120.492 114.822 119.045C117.711 117.353 120.698 114.737 123.474 112.289C128.724 108.656 129.743 108.473 122.994 108.834C120.925 109.049 117.491 111.912 117.671 108.944C118.091 104.444 136.082 105.185 134.245 100.974" fill="#5F753A" blush:i="0.0.29"/><path id="Fill 2044" fill-rule="evenodd" clip-rule="evenodd" d="M143.067 139.63C143.088 139.631 143.11 139.634 143.131 139.636C143.12 139.671 143.109 139.705 143.097 139.739C143.088 139.703 143.077 139.666 143.067 139.63" fill="#7FA637" blush:i="0.0.30"/><path id="Fill 2046" fill-rule="evenodd" clip-rule="evenodd" d="M125.339 117.493C125.438 117.48 125.548 117.437 125.633 117.466C125.736 117.591 125.291 117.777 125.339 117.493" fill="#AED569" blush:i="0.0.31"/><path id="Fill 2048" fill-rule="evenodd" clip-rule="evenodd" d="M139.817 114.705C139.792 114.729 139.765 114.755 139.739 114.78C139.729 114.765 139.719 114.75 139.71 114.734C139.747 114.726 139.785 114.719 139.822 114.71L139.817 114.705Z" fill="#7FA637" blush:i="0.0.32"/><path id="Fill 2050" fill-rule="evenodd" clip-rule="evenodd" d="M143.685 115.784C143.671 115.799 143.658 115.813 143.644 115.827C143.647 115.818 143.647 115.805 143.653 115.802C143.663 115.795 143.677 115.793 143.689 115.788L143.685 115.784Z" fill="#7FA637" blush:i="0.0.33"/><path id="Fill 2052" fill-rule="evenodd" clip-rule="evenodd" d="M130.734 110.93C130.734 110.929 130.734 110.93 130.734 110.93C130.771 110.951 130.772 110.951 130.734 110.93" fill="#BCE378" blush:i="0.0.34"/><path id="Fill 2054" fill-rule="evenodd" clip-rule="evenodd" d="M121.491 119.307C121.503 119.267 121.511 119.232 121.515 119.201C121.519 119.234 121.504 119.271 121.491 119.307M122.189 118.513C122.136 118.62 122.092 118.736 122.07 118.868C121.95 118.704 121.836 118.47 122.189 118.513M153.938 115.343C151.086 108.869 135.318 108.915 129.483 110.746C144.781 112.69 124.767 112.967 128.366 116.2C127.838 118.169 122.637 116.716 121.38 118.762C120.795 118.679 117.47 122.943 118.997 121.542C120.062 122.006 122.17 120.966 123.632 121.604C120.99 121.614 110.708 129.432 116.679 127.505C122.076 123.251 121.077 126.131 119.066 128.46C117.669 130.373 112.877 131.67 112.438 135.647C113.489 136.271 114.828 132.542 116.283 131.972C117.378 132.159 112.803 138.517 113.196 141.523C114.988 139.098 117.708 132.96 118.548 130.645C118.402 132.026 119.492 130.116 119.751 129.634C121.193 128.56 120.567 132.344 119.52 133.214C122.813 135.601 121.456 120.942 126.23 126.57C126.757 127.826 126.475 130.704 128.038 128.798C130.384 126.237 124.657 122.334 128.14 121.686C132.432 117.914 138.966 124.366 137.951 121.786C128.047 114.089 142.737 115.693 147.144 120.565C147.053 117.217 142.208 114.206 138.671 114.568C137.454 113.203 151.471 111.704 153.938 115.343" fill="#BCE378" blush:i="0.0.35"/><path id="Fill 2056" fill-rule="evenodd" clip-rule="evenodd" d="M116.704 131.796C116.701 131.798 116.704 131.796 116.704 131.796C116.703 131.796 116.702 131.797 116.704 131.796" fill="#BCE378" blush:i="0.0.36"/><path id="Fill 2058" fill-rule="evenodd" clip-rule="evenodd" d="M153.674 90.0619C153.661 90.0559 153.648 90.0509 153.634 90.0459C153.647 90.0519 153.658 90.0589 153.67 90.0659L153.674 90.0619Z" fill="#7EA535" blush:i="0.0.37"/><path id="Fill 2060" fill-rule="evenodd" clip-rule="evenodd" d="M84.5955 113.309C83.5325 121.263 91.2215 107.814 91.4315 116.536C92.8005 118.331 87.0195 117.528 85.2645 118.85C82.2765 119.293 81.5055 114.888 84.5955 113.309" fill="#7C984A" blush:i="0.0.38"/><path id="Fill 2062" fill-rule="evenodd" clip-rule="evenodd" d="M64.1707 144.345C66.0667 143.017 62.8117 141.825 62.4607 140.486C61.6797 138.406 65.1167 138.048 65.5867 140.259C68.5767 142.76 65.5747 143.649 66.5737 145.507C72.2577 146.469 64.6507 152.157 64.1707 144.345" fill="#FCFEA6" blush:i="0.0.39"/><path id="Fill 2064" fill-rule="evenodd" clip-rule="evenodd" d="M84.7186 135.299C89.5186 137.864 82.0266 138.048 81.2656 142.868C76.5366 140.719 82.3966 136.267 84.7186 135.299" fill="#F8FB9B" blush:i="0.0.40"/><path id="Fill 2066" fill-rule="evenodd" clip-rule="evenodd" d="M85.5617 138.35C86.8237 136.336 86.7197 136.534 87.0457 138.555C88.8827 140.794 92.7727 136.192 94.4547 139.868C93.4137 142.253 75.0537 139.548 85.5617 138.35" fill="#7C984A" blush:i="0.0.41"/><path id="Fill 2068" fill-rule="evenodd" clip-rule="evenodd" d="M83.9533 145.476C84.0003 147.191 85.5753 145.571 86.3933 146.833C86.0963 148.124 86.4713 152.178 84.5553 151.617C82.7773 150.978 84.2853 149.309 83.0823 148.163C79.7983 146.747 82.1943 146.693 83.9533 145.476" fill="#BFE050" blush:i="0.0.42"/><path id="Fill 2070" fill-rule="evenodd" clip-rule="evenodd" d="M72.7098 137.112C74.5408 135.128 80.5418 137.089 78.5348 140.015C77.6478 141.149 76.3688 139.46 76.2678 138.483C75.2488 139.329 71.6808 140.217 72.7098 137.112" fill="#FCFEA6" blush:i="0.0.43"/><path id="Fill 2072" fill-rule="evenodd" clip-rule="evenodd" d="M108.867 138.818C108.176 136.917 106.765 139.617 106.673 138.165C107.012 136.2 105.087 136.414 104.899 134.644C104.148 133.58 102.154 135.526 103.541 133.404C106.219 127.279 108.361 136.327 108.867 138.818" fill="#7C984A" blush:i="0.0.44"/><path id="Fill 2074" fill-rule="evenodd" clip-rule="evenodd" d="M71.814 147.258C69.386 147.734 69.289 143.434 69.207 141.775C74.36 138.962 72.046 144.127 71.814 147.258" fill="#BCDF48" blush:i="0.0.45"/><path id="Fill 2076" fill-rule="evenodd" clip-rule="evenodd" d="M104.372 140.679C101.253 141.169 99.2103 137.639 101.412 136.323C106.283 136.569 104.443 136.443 104.372 140.679" fill="#7C984A" blush:i="0.0.46"/><path id="Fill 2078" fill-rule="evenodd" clip-rule="evenodd" d="M93.3643 141.22C95.0223 139.943 92.9643 138.894 94.3953 137.286C98.6973 135.691 96.4663 146.416 93.3643 141.22" fill="#BCDF48" blush:i="0.0.47"/><path id="Fill 2080" fill-rule="evenodd" clip-rule="evenodd" d="M81.3553 146.285C80.3073 148.692 75.6653 148.752 78.4763 144.953C79.4763 144.313 80.5113 145.784 80.9773 145.645C81.7973 141.465 86.1733 145.703 81.3553 146.285" fill="#FCFEA6" blush:i="0.0.48"/><path id="Fill 2082" fill-rule="evenodd" clip-rule="evenodd" d="M63.5371 136.289C64.3421 133.336 66.7501 134.735 68.8551 135.498C68.2391 137.387 63.6411 139.733 63.5371 136.289" fill="#FCFEA6" blush:i="0.0.49"/><path id="Fill 2084" fill-rule="evenodd" clip-rule="evenodd" d="M91.4086 126.955C87.4676 128.284 89.0026 121.68 91.7776 123.266C93.4746 123.967 92.7446 126.199 91.4086 126.955" fill="#FCFEA6" blush:i="0.0.50"/><path id="Fill 2086" fill-rule="evenodd" clip-rule="evenodd" d="M52.6778 178.382C47.9558 176.536 56.1768 171.903 55.4728 176.103C54.8988 177.145 53.7978 178.06 52.6778 178.382" fill="#BCDF48" blush:i="0.0.51"/><path id="Fill 2088" fill-rule="evenodd" clip-rule="evenodd" d="M83.153 136.106C81.542 134.33 79.939 137.189 79.46 134.13C80.03 130.97 88.2 134.352 83.153 136.106" fill="#BFE050" blush:i="0.0.52"/><path id="Fill 2090" fill-rule="evenodd" clip-rule="evenodd" d="M63.2747 96.3627C66.0717 94.9147 65.5297 100.666 63.2907 100.269C60.2827 100.709 62.5787 96.9397 63.2747 96.3627" fill="#BFE050" blush:i="0.0.53"/><path id="Fill 2092" fill-rule="evenodd" clip-rule="evenodd" d="M96.039 129.831C93.73 127.183 94.971 127.137 96.712 124.485C97.295 123.935 99.485 129.408 96.039 129.831" fill="#BCDF48" blush:i="0.0.54"/><path id="Fill 2094" fill-rule="evenodd" clip-rule="evenodd" d="M72.1709 153.366C71.8139 153.47 71.0039 153.703 71.7179 154.03C74.4009 157.367 67.0209 156.379 70.9299 153.655C68.8799 149.041 75.4339 147.845 72.1709 153.366" fill="#BCDF48" blush:i="0.0.55"/><path id="Fill 2096" fill-rule="evenodd" clip-rule="evenodd" d="M41.0456 116.438C43.1746 116.521 43.3466 120.78 40.8056 120.416C39.0666 119.811 38.6286 116.255 41.0456 116.438" fill="#BCDF48" blush:i="0.0.56"/><path id="Fill 2098" fill-rule="evenodd" clip-rule="evenodd" d="M104.372 140.679C104.099 139.133 104.432 136.296 105.679 136.075C107.801 136.397 107.197 142.743 104.372 140.679" fill="#B4D741" blush:i="0.0.57"/><path id="Fill 2100" fill-rule="evenodd" clip-rule="evenodd" d="M72.3556 140.69C71.2156 140.755 70.1526 142.559 68.6366 141.566C66.7076 138.286 72.2896 136.454 72.3556 140.69" fill="#F8FB9B" blush:i="0.0.58"/><path id="Fill 2102" fill-rule="evenodd" clip-rule="evenodd" d="M84.8519 127.305C82.6689 126.368 84.6099 122.957 86.5819 124.302C88.7889 125.214 86.5919 128.632 84.8519 127.305" fill="#F8FB9B" blush:i="0.0.59"/><path id="Fill 2104" fill-rule="evenodd" clip-rule="evenodd" d="M71.2895 149.883C70.8825 150.661 70.9585 151.553 70.2545 152.204C66.0735 154.048 68.4705 145.057 71.2895 149.883" fill="#FCFEA6" blush:i="0.0.60"/><path id="Fill 2106" fill-rule="evenodd" clip-rule="evenodd" d="M52.9813 155.452C52.6323 154.291 54.1623 152.588 55.2233 153.62C58.4083 154.754 53.4613 159.5 52.9813 155.452" fill="#BCDF48" blush:i="0.0.61"/><path id="Fill 2108" fill-rule="evenodd" clip-rule="evenodd" d="M83.424 117.946C84.453 119.634 82.009 121.842 80.46 120.276C78.473 118.833 82.085 115.68 83.424 117.946" fill="#FCFEA6" blush:i="0.0.62"/><path id="Fill 2110" fill-rule="evenodd" clip-rule="evenodd" d="M62.2484 170.682C62.8804 173.495 58.6984 173.681 59.0914 170.863C58.5344 168.678 62.2274 168.929 62.2484 170.682" fill="#FCFEA6" blush:i="0.0.63"/><path id="Fill 2112" fill-rule="evenodd" clip-rule="evenodd" d="M77.0457 105.817C79.1237 104.973 80.3757 106.258 80.9797 107.759C79.2037 109.19 75.8997 108.842 77.0457 105.817" fill="#F8FB9B" blush:i="0.0.64"/><path id="Fill 2114" fill-rule="evenodd" clip-rule="evenodd" d="M68.5954 139.274C69.3074 145.258 62.6004 139.946 67.6644 139.035C63.4124 138.256 67.8474 135.307 68.5954 139.274" fill="#BFE050" blush:i="0.0.65"/><path id="Fill 2116" fill-rule="evenodd" clip-rule="evenodd" d="M78.9287 120.547C79.2897 123.151 74.9797 123.606 75.1827 120.963C75.7727 119.279 78.2287 118.671 78.9287 120.547" fill="#FCFEA6" blush:i="0.0.66"/><path id="Fill 2118" fill-rule="evenodd" clip-rule="evenodd" d="M80.4712 117.977C80.1092 119.385 78.3502 119.503 77.4282 118.654C76.8222 116.043 84.6452 112.992 80.4712 117.977" fill="#7C984A" blush:i="0.0.67"/><path id="Fill 2120" fill-rule="evenodd" clip-rule="evenodd" d="M92.1469 155.281C93.6139 156.403 94.5189 160.205 91.0419 158.703C89.5799 158.267 90.4889 154.381 92.1469 155.281" fill="#FCFEA6" blush:i="0.0.68"/><path id="Fill 2122" fill-rule="evenodd" clip-rule="evenodd" d="M42.0365 130.686C41.9435 132.35 39.3195 133.954 38.4795 131.992C37.9995 129.943 41.5955 128.307 42.0365 130.686" fill="#BCDF48" blush:i="0.0.69"/><path id="Fill 2124" fill-rule="evenodd" clip-rule="evenodd" d="M96.6716 123.982C94.4276 127.446 91.8046 121.103 95.5886 121.517C96.3506 120.292 96.9356 122.776 96.6716 123.982" fill="#FCFEA6" blush:i="0.0.70"/><path id="Fill 2126" fill-rule="evenodd" clip-rule="evenodd" d="M69.6583 129.977C72.4043 129.845 71.3013 135.027 69.2063 133.813C67.2103 132.845 68.2883 131.1 69.6583 129.977" fill="#FCFEA6" blush:i="0.0.71"/><path id="Fill 2128" fill-rule="evenodd" clip-rule="evenodd" d="M59.7457 128.917C57.1627 128.611 58.0047 124.371 60.0567 125.427C61.6917 126.046 61.5677 128.789 59.7457 128.917" fill="#BFE050" blush:i="0.0.72"/><path id="Fill 2130" fill-rule="evenodd" clip-rule="evenodd" d="M31.9775 170.923C32.6305 167.86 36.5435 169.202 35.2795 171.905C34.2515 172.757 31.9785 172.894 31.9775 170.923" fill="#BCDF48" blush:i="0.0.73"/><path id="Fill 2132" fill-rule="evenodd" clip-rule="evenodd" d="M70.8371 109.705C69.0921 109.459 68.5551 106.043 70.7111 106.405C73.4311 106.635 73.4121 109.387 70.8371 109.705" fill="#FCFEA6" blush:i="0.0.74"/><path id="Fill 2134" fill-rule="evenodd" clip-rule="evenodd" d="M61.7977 131.592C62.9707 134.739 58.6847 135.335 58.5967 132.156C59.2357 130.731 60.8477 130.087 61.7977 131.592" fill="#FCFEA6" blush:i="0.0.75"/><path id="Fill 2136" fill-rule="evenodd" clip-rule="evenodd" d="M97.3658 152.36C97.4968 154.377 94.7878 155.217 94.1748 153.179C93.6838 151.016 96.9748 149.955 97.3658 152.36" fill="#BCDF48" blush:i="0.0.76"/><path id="Fill 2138" fill-rule="evenodd" clip-rule="evenodd" d="M71.0054 122.802C69.4504 121.562 69.7124 119.284 72.0724 119.742C74.4114 121.053 73.1904 124.393 71.0054 122.802" fill="#FCFEA6" blush:i="0.0.77"/><path id="Fill 2140" fill-rule="evenodd" clip-rule="evenodd" d="M88.4413 118.402C90.5733 116.173 91.8093 117.497 92.3463 119.999C90.3793 119.988 88.2713 121.59 88.4413 118.402" fill="#BCDF48" blush:i="0.0.78"/><path id="Fill 2142" fill-rule="evenodd" clip-rule="evenodd" d="M52.9312 143.027C52.7002 140.72 56.0982 140.201 56.4642 142.131C56.3232 144.036 53.3902 145.127 52.9312 143.027" fill="#FCFEA6" blush:i="0.0.79"/><path id="Fill 2144" fill-rule="evenodd" clip-rule="evenodd" d="M92.3466 119.998C91.4756 118.769 91.1536 116.496 93.3176 116.592C95.6216 116.925 94.8106 121.272 92.3466 119.998" fill="#F8FB9B" blush:i="0.0.80"/><path id="Fill 2146" fill-rule="evenodd" clip-rule="evenodd" d="M29.9439 132.856C26.0969 132.305 30.8869 127.677 32.0999 130.505C32.3119 131.488 30.8479 132.654 29.9439 132.856" fill="#BCDF48" blush:i="0.0.81"/><path id="Fill 2148" fill-rule="evenodd" clip-rule="evenodd" d="M58.4062 146.95C58.4032 148.639 55.4082 149.21 54.8662 147.537C54.9922 145.405 58.1152 144.302 58.4062 146.95" fill="#BCDF48" blush:i="0.0.82"/><path id="Fill 2150" fill-rule="evenodd" clip-rule="evenodd" d="M56.4445 136.371C53.5795 136.449 54.6735 132.293 57.2095 132.985C58.9755 133.87 57.5245 135.628 56.4445 136.371" fill="#BFE050" blush:i="0.0.83"/><path id="Fill 2152" fill-rule="evenodd" clip-rule="evenodd" d="M44.3881 152.373C42.4631 152.29 42.5481 149.709 44.2051 149.195C46.5161 149.326 47.4991 152.626 44.3881 152.373" fill="#FCFEA6" blush:i="0.0.84"/><path id="Fill 2154" fill-rule="evenodd" clip-rule="evenodd" d="M77.3118 131.466C76.5858 133.337 73.1608 133.65 73.4688 132.774C73.2628 130.407 77.3898 128.499 77.3118 131.466" fill="#FCFEA6" blush:i="0.0.85"/><path id="Fill 2156" fill-rule="evenodd" clip-rule="evenodd" d="M87.8495 140.352C90.4455 139.709 90.1885 143.065 88.5375 143.99C86.4575 143.79 86.5205 141.459 87.8495 140.352" fill="#BCDF48" blush:i="0.0.86"/><path id="Fill 2158" fill-rule="evenodd" clip-rule="evenodd" d="M60.2096 119.384C60.9436 118.114 63.0516 118.34 63.3916 119.741C62.8106 122.42 58.7576 122.399 60.2096 119.384" fill="#BCDF48" blush:i="0.0.87"/><path id="Fill 2160" fill-rule="evenodd" clip-rule="evenodd" d="M29.0174 166.036C25.9094 165.562 29.3634 162.036 30.8014 163.435C32.0924 164.792 30.5904 166.084 29.0174 166.036" fill="#BFE050" blush:i="0.0.88"/><path id="Fill 2162" fill-rule="evenodd" clip-rule="evenodd" d="M70.5706 115.103C71.2416 117.126 68.8006 118.42 67.4206 116.961C67.0186 115.393 69.6316 113.014 70.5706 115.103" fill="#FCFEA6" blush:i="0.0.89"/><path id="Fill 2164" fill-rule="evenodd" clip-rule="evenodd" d="M43.8385 168.269C43.9055 169.816 41.2555 171.669 40.5895 169.714C40.2795 167.905 42.8255 166.313 43.8385 168.269" fill="#BFE050" blush:i="0.0.90"/><path id="Fill 2166" fill-rule="evenodd" clip-rule="evenodd" d="M56.4441 136.37C57.2731 134.072 59.9601 135.23 59.2051 137.258C58.6111 139.422 55.5861 138.418 56.4441 136.37" fill="#FCFEA6" blush:i="0.0.91"/><path id="Fill 2168" fill-rule="evenodd" clip-rule="evenodd" d="M101.589 146.025C103.134 146.31 102.821 148.083 101.946 149.081C99.4422 150.738 98.9942 146.012 101.589 146.025" fill="#BFE050" blush:i="0.0.92"/><path id="Fill 2170" fill-rule="evenodd" clip-rule="evenodd" d="M69.4854 103.493C69.5414 101.653 71.8854 100.069 72.7694 102.481C72.6484 104.09 70.0554 105.473 69.4854 103.493" fill="#BFE050" blush:i="0.0.93"/><path id="Fill 2172" fill-rule="evenodd" clip-rule="evenodd" d="M68.5953 139.274C66.6133 138.699 68.0973 136.624 68.8553 135.499C71.8553 136.422 70.8193 138.113 68.5953 139.274" fill="#BCDF48" blush:i="0.0.94"/><path id="Fill 2174" fill-rule="evenodd" clip-rule="evenodd" d="M80.811 125.762C78.157 125.573 78.84 120.946 81.282 122.834C82.652 123.658 82.132 125.468 80.811 125.762" fill="#FCFEA6" blush:i="0.0.95"/><path id="Fill 2176" fill-rule="evenodd" clip-rule="evenodd" d="M87.0025 113.912C87.7095 114.849 86.9815 115.906 86.0185 116.526C82.7795 116.545 84.7685 111.201 87.0025 113.912" fill="#F8FB9B" blush:i="0.0.96"/><path id="Fill 2178" fill-rule="evenodd" clip-rule="evenodd" d="M76.2178 127.46C76.9098 125.297 78.6988 126.288 79.9348 126.805C80.3298 129.303 77.0458 129.928 76.2178 127.46" fill="#FCFEA6" blush:i="0.0.97"/><path id="Fill 2180" fill-rule="evenodd" clip-rule="evenodd" d="M96.3785 148.436C96.3455 150.325 94.0655 150.99 93.2275 149.173C92.7655 146.947 96.0155 146.123 96.3785 148.436" fill="#FCFEA6" blush:i="0.0.98"/><path id="Fill 2182" fill-rule="evenodd" clip-rule="evenodd" d="M59.4741 139.646C61.8451 138.143 62.1821 142.18 60.3121 142.728C58.3511 142.911 58.0571 140.792 59.4741 139.646" fill="#FCFEA6" blush:i="0.0.99"/><path id="Fill 2184" fill-rule="evenodd" clip-rule="evenodd" d="M72.5384 145.659C70.4184 144.436 72.9734 141.608 74.5524 143.318C75.5964 144.497 73.6644 146.794 72.5384 145.659" fill="#FCFEA6" blush:i="0.0.100"/><path id="Fill 2186" fill-rule="evenodd" clip-rule="evenodd" d="M70.5715 115.103C69.7175 113.621 68.4435 115.415 67.9705 114.113C67.4735 110.484 73.3505 112.456 70.5715 115.103" fill="#BFE050" blush:i="0.0.101"/><path id="Fill 2188" fill-rule="evenodd" clip-rule="evenodd" d="M65.9463 151.789C65.8653 152.817 65.6973 154.926 64.1483 154.301C61.7533 153.124 64.1793 149.466 65.9463 151.789" fill="#BCDF48" blush:i="0.0.102"/><path id="Fill 2190" fill-rule="evenodd" clip-rule="evenodd" d="M96.0785 162.372C93.6305 162.098 94.7225 158.676 96.7325 159.39C98.2715 160.008 97.6195 162.308 96.0785 162.372" fill="#BFE050" blush:i="0.0.103"/><path id="Fill 2192" fill-rule="evenodd" clip-rule="evenodd" d="M76.8675 122.995C78.9445 123.928 77.4695 127.358 75.6115 125.79C74.0965 124.671 75.4615 123.172 76.8675 122.995" fill="#BFE050" blush:i="0.0.104"/><path id="Fill 2194" fill-rule="evenodd" clip-rule="evenodd" d="M71.3599 160.456C69.0419 161.74 67.8809 158.145 70.5059 157.662C71.7819 157.587 72.5859 159.604 71.3599 160.456" fill="#BCDF48" blush:i="0.0.105"/><path id="Fill 2196" fill-rule="evenodd" clip-rule="evenodd" d="M82.5357 156.772C77.1477 151.133 88.6927 153.225 82.3967 155.906C81.8807 155.959 82.8947 156.407 82.5357 156.772" fill="#FCFEA6" blush:i="0.0.106"/><path id="Fill 2198" fill-rule="evenodd" clip-rule="evenodd" d="M51.5605 129.389C51.9535 127.655 54.2235 127.216 54.6555 129.17C54.6165 131.052 51.9025 131.443 51.5605 129.389" fill="#BFE050" blush:i="0.0.107"/><path id="Fill 2200" fill-rule="evenodd" clip-rule="evenodd" d="M73.881 149.707C71.101 149.478 72.798 145.319 74.943 147.001C76.98 148.079 74.602 148.963 73.881 149.707" fill="#BCDF48" blush:i="0.0.108"/><path id="Fill 2202" fill-rule="evenodd" clip-rule="evenodd" d="M59.4742 139.646C58.5372 140.979 58.4212 141.715 59.4792 142.746C56.5152 145.875 55.6062 139.682 59.4742 139.646" fill="#BFE050" blush:i="0.0.109"/><path id="Fill 2204" fill-rule="evenodd" clip-rule="evenodd" d="M82.7541 165.946C81.4971 167.016 79.5661 166.001 80.2101 164.303C80.8921 162.291 84.0141 164.304 82.7541 165.946" fill="#BCDF48" blush:i="0.0.110"/><path id="Fill 2206" fill-rule="evenodd" clip-rule="evenodd" d="M89.3495 158.732C89.1045 161.526 85.4675 159.718 86.9615 157.629C87.7095 156.191 89.5035 157.462 89.3495 158.732" fill="#BCDF48" blush:i="0.0.111"/><path id="Fill 2208" fill-rule="evenodd" clip-rule="evenodd" d="M23.3249 139.687C20.4519 138.853 22.8469 134.979 24.8989 137.076C26.2519 138.064 24.0779 138.976 23.3249 139.687" fill="#BCDF48" blush:i="0.0.112"/><path id="Fill 2210" fill-rule="evenodd" clip-rule="evenodd" d="M99.8608 135.923C101.682 137.973 99.3988 139.911 97.5468 137.997C97.1988 136.906 98.7908 135.005 99.8608 135.923" fill="#FCFEA6" blush:i="0.0.113"/><path id="Fill 2212" fill-rule="evenodd" clip-rule="evenodd" d="M79.8119 171.448C79.0219 173.37 76.6069 170.733 77.4229 169.568C78.6339 167.809 81.0169 169.897 79.8119 171.448" fill="#BCDF48" blush:i="0.0.114"/><path id="Fill 2214" fill-rule="evenodd" clip-rule="evenodd" d="M74.8026 116.579C75.7146 116.761 76.4266 117.891 75.9226 118.76C73.6436 121.216 71.6796 116.829 74.8026 116.579" fill="#BFE050" blush:i="0.0.115"/><path id="Fill 2216" fill-rule="evenodd" clip-rule="evenodd" d="M93.1362 163.897C94.9952 164.144 94.6432 166.975 92.8982 166.958C90.9812 166.64 91.3242 163.76 93.1362 163.897" fill="#BCDF48" blush:i="0.0.116"/><path id="Fill 2218" fill-rule="evenodd" clip-rule="evenodd" d="M77.7287 159.419C77.5857 156.184 82.4207 157.868 80.1177 160.101C79.5997 160.659 77.6827 160.475 77.7287 159.419" fill="#FCFEA6" blush:i="0.0.117"/><path id="Fill 2220" fill-rule="evenodd" clip-rule="evenodd" d="M86.2197 175.341C85.8137 173.528 88.4767 173.151 88.9777 174.539C89.5877 176.547 86.1327 177.49 86.2197 175.341" fill="#BCDF48" blush:i="0.0.118"/><path id="Fill 2222" fill-rule="evenodd" clip-rule="evenodd" d="M75.5478 168.701C75.7048 170.157 73.6858 170.905 73.0118 169.837C71.9908 167.953 75.1868 165.914 75.5478 168.701" fill="#BCDF48" blush:i="0.0.119"/><path id="Fill 2224" fill-rule="evenodd" clip-rule="evenodd" d="M101.144 140.287C102.756 139.142 104.678 141.833 102.936 142.815C101.416 143.686 100.128 141.644 101.144 140.287" fill="#FCFEA6" blush:i="0.0.120"/><path id="Fill 2226" fill-rule="evenodd" clip-rule="evenodd" d="M47.3133 115.291C48.1893 115.514 49.5123 117.151 48.1743 117.916C46.0733 119.175 44.6043 115.383 47.3133 115.291" fill="#BFE050" blush:i="0.0.121"/><path id="Fill 2228" fill-rule="evenodd" clip-rule="evenodd" d="M84.5951 113.309C83.5751 115.442 80.8891 115.11 81.4321 112.443C82.9961 111.121 83.9731 111.529 84.5951 113.309" fill="#F8FB9B" blush:i="0.0.122"/><path id="Fill 2230" fill-rule="evenodd" clip-rule="evenodd" d="M89.8019 148.707C90.4469 149.205 90.3549 152.01 89.0289 151.227C86.4479 150.742 87.9249 146.518 89.8019 148.707" fill="#BCDF48" blush:i="0.0.123"/><path id="Fill 2232" fill-rule="evenodd" clip-rule="evenodd" d="M65.4296 132.295C65.3156 134.206 63.3386 134.787 62.6146 132.848C62.2606 131.09 65.2966 130.048 65.4296 132.295" fill="#FCFEA6" blush:i="0.0.124"/><path id="Fill 2234" fill-rule="evenodd" clip-rule="evenodd" d="M78.8294 148.253C80.7744 146.839 81.8474 147.06 80.2644 149.469C78.3314 151.953 76.1764 145.949 78.8294 148.253" fill="#BCDF48" blush:i="0.0.125"/><path id="Fill 2236" fill-rule="evenodd" clip-rule="evenodd" d="M58.5718 161.593C58.3448 164.976 53.8728 161.482 56.7748 160.122C57.5928 159.961 58.5528 160.737 58.5718 161.593" fill="#BFE050" blush:i="0.0.126"/><path id="Fill 2238" fill-rule="evenodd" clip-rule="evenodd" d="M74.2496 154.456C72.6516 153.63 73.3216 151.037 75.0136 151.295C77.3986 152.489 75.9376 153.719 74.2496 154.456" fill="#BCDF48" blush:i="0.0.127"/><path id="Fill 2240" fill-rule="evenodd" clip-rule="evenodd" d="M54.4103 137.077C54.5973 139.243 51.1553 138.837 51.4953 137.015C51.8713 135.372 54.1133 135.682 54.4103 137.077" fill="#BCDF48" blush:i="0.0.128"/><path id="Fill 2242" fill-rule="evenodd" clip-rule="evenodd" d="M99.4967 167.428C99.4037 165.824 101.165 164.881 102.2 165.972C102.524 167.914 100.714 170.065 99.4967 167.428" fill="#BCDF48" blush:i="0.0.129"/><path id="Fill 2244" fill-rule="evenodd" clip-rule="evenodd" d="M94.3955 137.286C94.1515 140.186 90.1205 138.295 91.7585 136.288C92.8145 135.091 93.8435 136.422 94.3955 137.286" fill="#F8FB9B" blush:i="0.0.130"/><path id="Fill 2246" fill-rule="evenodd" clip-rule="evenodd" d="M54.994 107.961C55.327 109.42 53.755 110.995 52.376 110.036C51.781 108.132 53.533 106.399 54.994 107.961" fill="#BFE050" blush:i="0.0.131"/><path id="Fill 2248" fill-rule="evenodd" clip-rule="evenodd" d="M75.8273 156.856C75.8033 155.117 78.3533 154.69 78.5983 156.516C78.7663 158.548 76.0213 158.764 75.8273 156.856" fill="#BCDF48" blush:i="0.0.132"/><path id="Fill 2250" fill-rule="evenodd" clip-rule="evenodd" d="M71.5493 128.109C73.1573 126.593 74.6693 127.068 73.8293 129.387C73.3433 131.451 70.3263 129.713 71.5493 128.109" fill="#FCFEA6" blush:i="0.0.133"/><path id="Fill 2252" fill-rule="evenodd" clip-rule="evenodd" d="M83.9536 144.909C83.0266 143.792 81.3956 142.793 83.4176 141.583C85.3136 141.638 86.2096 144.691 83.9536 144.909" fill="#BCDF48" blush:i="0.0.134"/><path id="Fill 2254" fill-rule="evenodd" clip-rule="evenodd" d="M88.1943 133.894C89.3333 132.086 91.4653 132.965 91.4053 134.269C90.0523 136.056 89.1833 135.95 88.1943 133.894" fill="#FCFEA6" blush:i="0.0.135"/><path id="Fill 2256" fill-rule="evenodd" clip-rule="evenodd" d="M64.2236 163.407C66.1866 163.565 65.8026 165.937 64.2446 166.226C62.4066 165.981 62.4766 163.55 64.2236 163.407" fill="#BFE050" blush:i="0.0.136"/><path id="Fill 2258" fill-rule="evenodd" clip-rule="evenodd" d="M87.9829 121.29C88.9049 122.053 88.2439 123.78 86.8949 123.787C84.6259 123.382 86.3419 119.662 87.9829 121.29" fill="#BFE050" blush:i="0.0.137"/><path id="Fill 2260" fill-rule="evenodd" clip-rule="evenodd" d="M38.9992 151.654C38.9222 148.938 42.8912 150.409 41.3782 152.339C40.7312 153.372 38.9702 152.534 38.9992 151.654" fill="#BFE050" blush:i="0.0.138"/><path id="Fill 2262" fill-rule="evenodd" clip-rule="evenodd" d="M60.9635 147.729C62.7055 147.79 62.4695 150.488 61.1105 150.507C59.0725 150.51 59.1325 147.828 60.9635 147.729" fill="#BCDF48" blush:i="0.0.139"/><path id="Fill 2264" fill-rule="evenodd" clip-rule="evenodd" d="M35.256 133.682C35.828 134.868 34.53 136.497 33.371 136.448C30.812 135.113 33.751 133.508 35.256 133.682" fill="#BFE050" blush:i="0.0.140"/><path id="Fill 2266" fill-rule="evenodd" clip-rule="evenodd" d="M62.8464 105.737C66.1824 105.314 62.9484 110.445 61.6914 107.959C61.4784 107.01 62.2514 106.326 62.8464 105.737" fill="#BFE050" blush:i="0.0.141"/><path id="Fill 2268" fill-rule="evenodd" clip-rule="evenodd" d="M46.079 139.167C46.845 141.514 43.259 141.315 43.715 139.201C43.643 137.485 46.54 137.178 46.079 139.167" fill="#BCDF48" blush:i="0.0.142"/><path id="Fill 2270" fill-rule="evenodd" clip-rule="evenodd" d="M117.607 156.733C117.431 158.377 114.791 158.562 114.525 156.967C114.967 155.337 117.195 155.008 117.607 156.733" fill="#FCFEA6" blush:i="0.0.143"/><path id="Fill 2272" fill-rule="evenodd" clip-rule="evenodd" d="M63.3863 138.807C62.3183 140.193 60.9813 140.159 61.1283 138.047C61.5053 135.529 65.4073 138.012 63.3863 138.807" fill="#BCDF48" blush:i="0.0.144"/><path id="Fill 2274" fill-rule="evenodd" clip-rule="evenodd" d="M79.9016 128.071C78.5496 125.289 84.0716 124.746 82.6536 127.14C81.1136 126.875 80.7286 130.188 79.9016 128.071" fill="#BCDF48" blush:i="0.0.145"/><path id="Fill 2276" fill-rule="evenodd" clip-rule="evenodd" d="M84.8555 132.83C84.8835 131.441 86.6215 129.958 87.4065 131.78C88.3675 133.366 85.5215 134.568 84.8555 132.83" fill="#B4D741" blush:i="0.0.146"/><path id="Fill 2278" fill-rule="evenodd" clip-rule="evenodd" d="M75.1457 151.394C73.3687 150.543 73.8137 148.86 75.7197 148.313C76.7387 149.839 77.1977 150.878 75.1457 151.394" fill="#FCFEA6" blush:i="0.0.147"/><path id="Fill 2280" fill-rule="evenodd" clip-rule="evenodd" d="M82.2627 120.721C83.3827 120.152 83.7027 117.981 84.8327 119.76C86.4667 121.302 82.4527 123.203 82.2627 120.721" fill="#BFE050" blush:i="0.0.148"/><path id="Fill 2282" fill-rule="evenodd" clip-rule="evenodd" d="M63.2176 127.284C60.9996 127.164 61.5376 124.247 63.5336 124.661C64.4466 125.267 64.7356 127.33 63.2176 127.284" fill="#BFE050" blush:i="0.0.149"/><path id="Fill 2284" fill-rule="evenodd" clip-rule="evenodd" d="M50.0319 152.395C50.0629 148.653 55.3869 152.517 51.3849 153.304C50.9829 152.777 50.0029 153.123 50.0319 152.395" fill="#BFE050" blush:i="0.0.150"/><path id="Fill 2286" fill-rule="evenodd" clip-rule="evenodd" d="M61.7974 131.592C60.9994 131.056 59.8754 130.167 59.1124 131.642C55.9584 131.781 62.5464 126.376 61.7974 131.592" fill="#BFE050" blush:i="0.0.151"/><path id="Fill 2288" fill-rule="evenodd" clip-rule="evenodd" d="M59.8049 153.54C59.7939 150.68 63.6059 152.437 61.9539 154.435C61.3649 155.133 59.7539 154.409 59.8049 153.54" fill="#BCDF48" blush:i="0.0.152"/><path id="Fill 2290" fill-rule="evenodd" clip-rule="evenodd" d="M62.4226 145.818C63.3736 142.392 65.5416 146.375 64.1636 147.748C63.1626 147.809 62.1896 146.813 62.4226 145.818" fill="#BCDF48" blush:i="0.0.153"/><path id="Fill 2292" fill-rule="evenodd" clip-rule="evenodd" d="M65.4294 132.295C64.4874 130.904 62.6564 129.895 65.5054 129.302C66.8354 129.753 67.1204 132.109 65.4294 132.295" fill="#BFE050" blush:i="0.0.154"/><path id="Fill 2294" fill-rule="evenodd" clip-rule="evenodd" d="M76.9412 155.283C76.3522 156.61 74.8162 156.301 74.3972 155.106C74.1762 152.914 77.8752 153.044 76.9412 155.283" fill="#FCFEA6" blush:i="0.0.155"/><path id="Fill 2296" fill-rule="evenodd" clip-rule="evenodd" d="M76.2172 127.46C76.9812 127.751 77.0712 129.073 78.1302 129.154C76.6192 132.113 72.9352 128.111 76.2172 127.46" fill="#BCDF48" blush:i="0.0.156"/><path id="Fill 2298" fill-rule="evenodd" clip-rule="evenodd" d="M50.0245 159.77C48.0295 159.915 48.7375 156.662 50.5045 157.338C52.0275 157.499 51.6375 160.097 50.0245 159.77" fill="#FCFEA6" blush:i="0.0.157"/><path id="Fill 2300" fill-rule="evenodd" clip-rule="evenodd" d="M31.4661 139.849C33.2791 140.178 32.4311 143.195 30.8341 142.45C29.3831 142.239 30.1451 139.747 31.4661 139.849" fill="#BFE050" blush:i="0.0.158"/><path id="Fill 2302" fill-rule="evenodd" clip-rule="evenodd" d="M77.517 172.277C77.722 173.972 75.723 174.685 75.004 173.089C74.428 171.436 76.812 170.596 77.517 172.277" fill="#BCDF48" blush:i="0.0.159"/><path id="Fill 2304" fill-rule="evenodd" clip-rule="evenodd" d="M71.2962 174.464C71.8132 176.097 68.9502 176.477 68.5072 175.154C68.2962 173.688 71.1682 172.932 71.2962 174.464" fill="#BFE050" blush:i="0.0.160"/><path id="Fill 2306" fill-rule="evenodd" clip-rule="evenodd" d="M111.939 147.618C112.274 146.291 113.278 143.658 114.486 145.829C115.369 146.987 112.765 148.653 111.939 147.618" fill="#FCFEA6" blush:i="0.0.161"/><path id="Fill 2308" fill-rule="evenodd" clip-rule="evenodd" d="M83.3208 151.388C83.3208 152.855 81.2938 152.646 80.9248 151.753C80.7588 149.494 83.0038 148.942 83.3208 151.388" fill="#BFE050" blush:i="0.0.162"/><path id="Fill 2310" fill-rule="evenodd" clip-rule="evenodd" d="M46.0291 154.04C46.2381 155.136 44.9541 155.332 44.1321 155.106C41.4871 153.963 45.7581 151.012 46.0291 154.04" fill="#BCDF48" blush:i="0.0.163"/><path id="Fill 2312" fill-rule="evenodd" clip-rule="evenodd" d="M73.3319 123.79C71.6609 123.77 72.2519 125.89 71.0929 125.947C68.8679 124.014 71.9079 121.521 73.3319 123.79" fill="#BCDF48" blush:i="0.0.164"/><path id="Fill 2314" fill-rule="evenodd" clip-rule="evenodd" d="M81.2803 107.692C83.4363 106.53 85.0103 107.08 83.5913 109.483C82.2073 110.648 81.7693 108.328 81.2803 107.692" fill="#FCFEA6" blush:i="0.0.165"/><path id="Fill 2316" fill-rule="evenodd" clip-rule="evenodd" d="M79.2727 140.771C79.5087 142.007 80.2917 142.347 81.2637 142.868C80.5297 145.984 76.6897 142.023 79.2727 140.771" fill="#BFE050" blush:i="0.0.166"/><path id="Fill 2318" fill-rule="evenodd" clip-rule="evenodd" d="M62.7154 160.613C60.5574 159.62 62.4344 156.988 64.0724 158.582C64.5244 159.329 63.8814 161.332 62.7154 160.613" fill="#BCDF48" blush:i="0.0.167"/><path id="Fill 2320" fill-rule="evenodd" clip-rule="evenodd" d="M99.7959 159.461C99.8399 157.375 102.294 157.975 102.409 159.193C102.382 160.819 100.136 160.918 99.7959 159.461" fill="#BFE050" blush:i="0.0.168"/><path id="Fill 2322" fill-rule="evenodd" clip-rule="evenodd" d="M92.1467 155.281C90.8637 155.6 90.8228 154.399 90.4688 153.53C91.3008 150.984 94.7257 154.382 92.1467 155.281" fill="#BCDF48" blush:i="0.0.169"/><path id="Fill 2324" fill-rule="evenodd" clip-rule="evenodd" d="M88.4413 118.402C89.1333 119.862 88.7803 120.834 87.1703 120.274C84.8083 119.697 86.8663 116.524 88.4413 118.402" fill="#F8FB9B" blush:i="0.0.170"/><path id="Fill 2326" fill-rule="evenodd" clip-rule="evenodd" d="M74.2852 139.647C75.9572 138.545 76.0572 137.373 76.9502 139.653C77.1152 141.587 74.6572 141.615 74.2852 139.647" fill="#BCDF48" blush:i="0.0.171"/><path id="Fill 2328" fill-rule="evenodd" clip-rule="evenodd" d="M96.7516 107.959C95.9416 107.123 95.4396 105.852 96.6446 105.084C98.5696 105.063 98.9466 108.001 96.7516 107.959" fill="#FCFEA6" blush:i="0.0.172"/><path id="Fill 2330" fill-rule="evenodd" clip-rule="evenodd" d="M73.8068 135.021C72.5188 131.71 74.3808 133.623 76.0318 132.88C76.6308 133.864 75.0488 136.016 73.8068 135.021" fill="#BCDF48" blush:i="0.0.173"/><path id="Fill 2332" fill-rule="evenodd" clip-rule="evenodd" d="M88.6139 139.335C86.9019 140.009 86.5629 138.011 86.8519 136.847C88.0079 136.075 90.3779 138.558 88.6139 139.335" fill="#F8FB9B" blush:i="0.0.174"/><path id="Fill 2334" fill-rule="evenodd" clip-rule="evenodd" d="M56.1553 104.542C56.4763 106.811 53.8373 106.428 53.6543 104.542C53.9853 102.919 55.5753 103.129 56.1553 104.542" fill="#FCFEA6" blush:i="0.0.175"/><path id="Fill 2336" fill-rule="evenodd" clip-rule="evenodd" d="M88.614 139.335C89.585 138.755 89.063 137.803 88.25 137.278C88.428 133.501 93.073 139.606 88.614 139.335" fill="#BCDF48" blush:i="0.0.176"/><path id="Fill 2338" fill-rule="evenodd" clip-rule="evenodd" d="M96.0785 172.893C95.8475 168.862 101.451 174.989 96.7075 173.844C96.4735 173.366 95.9465 173.615 96.0785 172.893" fill="#BFE050" blush:i="0.0.177"/><path id="Fill 2340" fill-rule="evenodd" clip-rule="evenodd" d="M42.1296 142.588C42.6366 143.191 43.1496 143.316 43.0336 144.281C42.0106 147.016 38.8466 142.33 42.1296 142.588" fill="#BFE050" blush:i="0.0.178"/><path id="Fill 2342" fill-rule="evenodd" clip-rule="evenodd" d="M104.548 172.353C104.431 171.198 105.809 170.973 106.649 171.289C108.029 172.985 104.482 174.711 104.548 172.353" fill="#BFE050" blush:i="0.0.179"/><path id="Fill 2344" fill-rule="evenodd" clip-rule="evenodd" d="M69.6577 129.977C69.4097 130.886 67.8347 131.472 68.1377 132.511C65.3837 132.735 67.7067 128.173 69.6577 129.977" fill="#BFE050" blush:i="0.0.180"/><path id="Fill 2346" fill-rule="evenodd" clip-rule="evenodd" d="M81.4321 112.443C81.1211 113.497 82.8801 114.858 81.7971 115.25C79.7091 116.517 79.1891 112.504 81.4321 112.443" fill="#BCDF48" blush:i="0.0.181"/><path id="Fill 2348" fill-rule="evenodd" clip-rule="evenodd" d="M98.6855 169.581C98.5705 171.313 95.8055 170.997 96.3055 169.359C96.3975 168.061 98.9005 168.228 98.6855 169.581" fill="#BFE050" blush:i="0.0.182"/><path id="Fill 2350" fill-rule="evenodd" clip-rule="evenodd" d="M50.6387 165.714C47.7697 165.525 50.6487 162.709 52.0737 163.923C52.4627 164.745 51.3327 165.631 50.6387 165.714" fill="#BFE050" blush:i="0.0.183"/><path id="Fill 2352" fill-rule="evenodd" clip-rule="evenodd" d="M78.5644 163.393C79.4264 163.5 80.0394 164.232 79.5484 165.119C78.1464 167.29 75.3894 163.112 78.5644 163.393" fill="#FCFEA6" blush:i="0.0.184"/><path id="Fill 2354" fill-rule="evenodd" clip-rule="evenodd" d="M87.3721 111.393C89.7291 109.59 92.1881 113.886 88.5611 113.137C87.6411 112.735 88.4431 111.145 87.3721 111.393" fill="#BFE050" blush:i="0.0.185"/><path id="Fill 2356" fill-rule="evenodd" clip-rule="evenodd" d="M84.6725 142.05C83.3695 142.153 83.4245 141.098 83.1455 140.155C84.6155 138.58 86.7705 141.373 84.6725 142.05" fill="#FCFEA6" blush:i="0.0.186"/><path id="Fill 2358" fill-rule="evenodd" clip-rule="evenodd" d="M104.082 148.673C103.976 145.933 107.598 148.429 105.916 149.62C105.153 150.11 104.295 149.485 104.082 148.673" fill="#BCDF48" blush:i="0.0.187"/><path id="Fill 2360" fill-rule="evenodd" clip-rule="evenodd" d="M77.2207 154.174C76.1407 153.648 76.8247 151.746 78.0057 152.238C79.5937 152.728 78.7077 155.964 77.2207 154.174" fill="#BFE050" blush:i="0.0.188"/><path id="Fill 2362" fill-rule="evenodd" clip-rule="evenodd" d="M32.4323 148.273C32.4053 146.673 35.1583 146.586 34.6653 148.426C34.7143 149.922 32.3863 149.288 32.4323 148.273" fill="#BFE050" blush:i="0.0.189"/><path id="Fill 2364" fill-rule="evenodd" clip-rule="evenodd" d="M47.6064 104.717C44.7964 104.35 47.9264 100.704 48.6594 103.072C48.9264 103.559 48.0294 104.474 47.6064 104.717" fill="#BFE050" blush:i="0.0.190"/><path id="Fill 2366" fill-rule="evenodd" clip-rule="evenodd" d="M71.8241 96.2719C72.4951 94.5799 73.7171 95.7769 73.9191 96.9669C73.5511 98.7409 71.0451 98.0179 71.8241 96.2719" fill="#BFE050" blush:i="0.0.191"/><path id="Fill 2368" fill-rule="evenodd" clip-rule="evenodd" d="M44.0255 161.754C40.8505 161.547 43.2175 157.379 44.7165 159.79C44.9175 160.229 44.2545 161.193 44.0255 161.754" fill="#BCDF48" blush:i="0.0.192"/><path id="Fill 2370" fill-rule="evenodd" clip-rule="evenodd" d="M31.4756 137.625C31.4686 135.876 34.2636 136.878 33.2706 138.029C32.6766 139.781 31.9096 139.049 31.4756 137.625" fill="#BFE050" blush:i="0.0.193"/><path id="Fill 2372" fill-rule="evenodd" clip-rule="evenodd" d="M102.861 152.839C103.181 151.362 105.148 151.761 105.151 153.171C104.478 154.571 102.974 154.636 102.861 152.839" fill="#BCDF48" blush:i="0.0.194"/><path id="Fill 2374" fill-rule="evenodd" clip-rule="evenodd" d="M84.4881 160.574C79.8421 164.317 83.3831 153.688 84.5861 160.305C84.3051 160.331 83.4501 160.581 83.8531 159.95C83.5951 156.621 81.2091 162.337 84.4881 160.574" fill="#BCE378" blush:i="0.0.195"/><path id="Fill 2376" fill-rule="evenodd" clip-rule="evenodd" d="M102.461 136.206C101.68 136.707 100.596 136.392 100.395 135.457C100.969 133.548 103.155 134.266 102.461 136.206" fill="#B4D741" blush:i="0.0.196"/><path id="Fill 2378" fill-rule="evenodd" clip-rule="evenodd" d="M65.4172 148.526C66.3882 150.209 64.0362 151.092 63.5852 149.295C63.3972 148.45 64.0012 147.535 65.4172 148.526" fill="#BFE050" blush:i="0.0.197"/><path id="Fill 2380" fill-rule="evenodd" clip-rule="evenodd" d="M90.4435 138.29C89.2875 136.947 93.2435 134.145 91.7085 136.489C90.9305 138.971 94.1755 139.046 90.4435 138.29" fill="#BFE050" blush:i="0.0.198"/><path id="Fill 2382" fill-rule="evenodd" clip-rule="evenodd" d="M99.8613 135.923C99.2943 135.649 98.6373 135.8 98.1393 136.409C95.3703 136.302 100.121 132.279 99.8613 135.923" fill="#BCDF48" blush:i="0.0.199"/><path id="Fill 2384" fill-rule="evenodd" clip-rule="evenodd" d="M98.326 174.083C99.476 173.692 100.036 176.152 98.69 175.879C97.292 176.334 96.887 173.932 98.326 174.083" fill="#BFE050" blush:i="0.0.200"/><path id="Fill 2386" fill-rule="evenodd" clip-rule="evenodd" d="M71.9889 164.982C72.4019 162.847 75.3739 165.335 73.1689 166.225C72.5059 166.341 71.5619 165.693 71.9889 164.982" fill="#FCFEA6" blush:i="0.0.201"/><path id="Fill 2388" fill-rule="evenodd" clip-rule="evenodd" d="M79.2062 138.519C78.2132 137.023 80.5762 136.604 81.6282 136.872C79.9932 136.96 80.8252 140.18 79.2062 138.519" fill="#BFE050" blush:i="0.0.202"/><path id="Fill 2390" fill-rule="evenodd" clip-rule="evenodd" d="M82.7003 160.216C82.2183 158.297 84.6123 158.506 83.9973 159.972C83.4233 160.547 84.4413 160.07 84.5853 160.305C84.2883 160.872 82.5913 161.621 82.7003 160.216" fill="#BCDF48" blush:i="0.0.203"/><path id="Fill 2392" fill-rule="evenodd" clip-rule="evenodd" d="M82.536 156.772C81.385 155.103 83.268 156.396 83.883 155.011C85.373 154.761 83.835 157.86 82.536 156.772" fill="#BCDF48" blush:i="0.0.204"/><path id="Fill 2394" fill-rule="evenodd" clip-rule="evenodd" d="M71.9968 139.367C71.0518 138.543 70.9838 136.323 72.7108 137.112C72.4228 137.86 73.1258 139.276 71.9968 139.367" fill="#BFE050" blush:i="0.0.205"/><path id="Fill 2396" fill-rule="evenodd" clip-rule="evenodd" d="M47.8883 123.047C46.4423 122.526 47.1353 119.197 48.7133 120.803C48.5563 121.578 48.6823 122.64 47.8883 123.047" fill="#BCDF48" blush:i="0.0.206"/><path id="Fill 2398" fill-rule="evenodd" clip-rule="evenodd" d="M77.4285 118.654C78.0155 118.417 80.2055 120.077 78.6975 120.467C78.4325 118.409 74.6405 120.618 77.4285 118.654" fill="#BCE378" blush:i="0.0.207"/><path id="Fill 2400" fill-rule="evenodd" clip-rule="evenodd" d="M96.379 148.436C95.945 147.332 94.876 146.769 93.624 147.512C94.258 145.744 97.389 146.687 96.379 148.436" fill="#BFE050" blush:i="0.0.208"/><path id="Fill 2402" fill-rule="evenodd" clip-rule="evenodd" d="M96.5646 141.315C95.5396 140.216 97.2086 139.968 96.7626 138.753C98.0916 138.327 97.6746 141.468 96.5646 141.315" fill="#7C984A" blush:i="0.0.209"/><path id="Fill 2404" fill-rule="evenodd" clip-rule="evenodd" d="M23.3252 139.687C24.0272 138.678 26.4012 137.924 24.4082 136.752C23.7032 135.207 27.4522 139.518 23.3252 139.687" fill="#BCE378" blush:i="0.0.210"/><path id="Fill 2406" fill-rule="evenodd" clip-rule="evenodd" d="M102.861 152.839C103.242 155.013 105.502 154.035 104.83 152.23C106.879 154.123 102.176 155.877 102.861 152.839" fill="#BCE378" blush:i="0.0.211"/><path id="Fill 2408" fill-rule="evenodd" clip-rule="evenodd" d="M96.5645 141.315C97.0075 141.223 97.4825 140.335 97.4535 139.822C97.2215 136.5 99.0625 142.254 96.5645 141.315" fill="#95B65B" blush:i="0.0.212"/><path id="Fill 2410" fill-rule="evenodd" clip-rule="evenodd" d="M81.3643 146.289C81.7823 145.486 83.0813 145.663 83.7863 145.283C83.9863 146.022 82.4103 147.105 81.3643 146.289" fill="#F8FB9B" blush:i="0.0.213"/><path id="Fill 2412" fill-rule="evenodd" clip-rule="evenodd" d="M56.1553 104.542C55.7143 103.924 54.1013 102.677 53.8743 104.456C52.6013 103.243 56.5243 101.964 56.1553 104.542" fill="#F8FB9B" blush:i="0.0.214"/><path id="Fill 2414" fill-rule="evenodd" clip-rule="evenodd" d="M93.5872 157.254C93.4532 156.516 92.6222 156.444 92.4092 155.805C93.0882 154.491 94.7602 156.683 93.5872 157.254" fill="#BFE050" blush:i="0.0.215"/><path id="Fill 2416" fill-rule="evenodd" clip-rule="evenodd" d="M79.4054 138.722C80.1624 138.919 80.3234 138.823 80.8304 139.388C81.1994 140.415 78.7244 140.2 79.4054 138.722" fill="#95B65B" blush:i="0.0.216"/><path id="Fill 2418" fill-rule="evenodd" clip-rule="evenodd" d="M89.3151 113.357C92.3831 114.194 86.9011 113.919 86.4141 113.326C87.4111 113.25 88.4111 113.211 89.3151 113.357" fill="#95B65B" blush:i="0.0.217"/><path id="Fill 2420" fill-rule="evenodd" clip-rule="evenodd" d="M36.19 139.544C35.159 138.631 37.782 137.006 37.86 138.733C37.095 138.778 37.349 139.809 36.19 139.544" fill="#BCDF48" blush:i="0.0.218"/><path id="Fill 2422" fill-rule="evenodd" clip-rule="evenodd" d="M99.4963 167.428C100.515 168.667 101.434 169.246 101.836 167.506C102.552 169.436 98.9703 169.219 99.4963 167.428" fill="#BCE378" blush:i="0.0.219"/><path id="Fill 2424" fill-rule="evenodd" clip-rule="evenodd" d="M63.6402 148.987C64.1022 152.357 62.0982 145.929 65.2842 148.326C65.3962 148.787 63.3322 147.508 63.6402 148.987" fill="#BCE378" blush:i="0.0.220"/><path id="Fill 2426" fill-rule="evenodd" clip-rule="evenodd" d="M35.256 133.682C34.604 133.918 33.905 134.163 33.208 134.028C33.625 133.462 35.183 132.359 35.256 133.682" fill="#BCE378" blush:i="0.0.221"/><path id="Fill 2428" fill-rule="evenodd" clip-rule="evenodd" d="M31.9874 171.361C32.8724 172.778 34.0614 172.487 35.0604 171.883C35.3304 173.094 31.9644 173.252 31.9874 171.361" fill="#BCE378" blush:i="0.0.222"/><path id="Fill 2430" fill-rule="evenodd" clip-rule="evenodd" d="M46.0789 139.167C46.1089 138.604 45.3449 137.051 44.6359 138.129C42.7739 137.831 47.5609 136.542 46.0789 139.167" fill="#BCE378" blush:i="0.0.223"/><path id="Fill 2432" fill-rule="evenodd" clip-rule="evenodd" d="M43.3103 159.111C41.7853 160.329 42.6243 161.047 43.9343 161.76C42.3313 162.384 41.4613 159.2 43.3103 159.111" fill="#BCE378" blush:i="0.0.224"/><path id="Fill 2434" fill-rule="evenodd" clip-rule="evenodd" d="M36.1904 139.544C37.2624 139.674 37.0064 138.491 37.4934 138.712C38.6374 137.321 37.4814 141.095 36.1904 139.544" fill="#BCE378" blush:i="0.0.225"/><path id="Fill 2436" fill-rule="evenodd" clip-rule="evenodd" d="M47.8887 123.047C48.5137 122.315 48.2847 121.614 48.7137 120.803C49.3777 121.33 48.7837 123.504 47.8887 123.047" fill="#BCE378" blush:i="0.0.226"/><path id="Fill 2438" fill-rule="evenodd" clip-rule="evenodd" d="M99.4703 134.671C98.3093 134.457 97.3013 134.472 96.1123 134.361C96.8043 133.72 100.59 134.432 99.4703 134.671" fill="#BCE378" blush:i="0.0.227"/><path id="Fill 2440" fill-rule="evenodd" clip-rule="evenodd" d="M113.281 144.652C113.101 143.735 114.265 143.165 114.155 142.343C115.785 142.357 113.652 143.912 113.281 144.652" fill="#95B65B" blush:i="0.0.228"/><path id="Fill 2442" fill-rule="evenodd" clip-rule="evenodd" d="M86.2104 119.382C85.5674 119.392 82.5934 118.98 84.3844 118.966C85.2704 119.093 86.2074 117.855 86.2104 119.382" fill="#AED569" blush:i="0.0.229"/><path id="Fill 2444" fill-rule="evenodd" clip-rule="evenodd" d="M77.5177 172.277C76.6417 171.491 77.2197 171.9 77.1947 171.096C76.9447 169.009 78.3157 171.722 77.5177 172.277" fill="#BCE378" blush:i="0.0.230"/><path id="Fill 2446" fill-rule="evenodd" clip-rule="evenodd" d="M90.516 153.284C90.781 153.855 90.802 154.212 91.052 154.903C91.453 155.901 89.328 154.188 90.516 153.284" fill="#BCE378" blush:i="0.0.231"/><path id="Fill 2448" fill-rule="evenodd" clip-rule="evenodd" d="M71.6358 156.35C71.6218 155.622 72.5178 154.676 72.0808 154.626C71.4108 152.823 73.4948 156.515 71.6358 156.35" fill="#BCE378" blush:i="0.0.232"/><path id="Fill 2450" fill-rule="evenodd" clip-rule="evenodd" d="M66.9775 132.152C67.9445 132.351 68.3595 132.558 68.6505 133.486C68.0055 133.552 67.1985 132.715 66.9775 132.152" fill="#BCE378" blush:i="0.0.233"/><path id="Fill 2452" fill-rule="evenodd" clip-rule="evenodd" d="M98.3254 174.083C97.6724 174.333 96.1864 174.455 96.1084 173.438C96.6374 173.79 97.8314 173.682 98.3254 174.083" fill="#BCE378" blush:i="0.0.234"/><path id="Fill 2454" fill-rule="evenodd" clip-rule="evenodd" d="M44.0254 161.754C44.3644 161.186 43.9904 160.307 44.8974 160.128C45.4264 160.566 44.5844 161.656 44.0254 161.754" fill="#BCE378" blush:i="0.0.235"/><path id="Fill 2456" fill-rule="evenodd" clip-rule="evenodd" d="M72.171 153.366C71.901 152.496 72.727 152.613 72.514 151.62C73.87 150.088 72.804 152.957 72.171 153.366" fill="#BCE378" blush:i="0.0.236"/><path id="Fill 2458" fill-rule="evenodd" clip-rule="evenodd" d="M69.8332 155.451C70.2072 156.178 71.1112 156.15 71.7222 156.437C71.4202 157.197 69.6382 156.299 69.8332 155.451" fill="#BCE378" blush:i="0.0.237"/><path id="Fill 2460" fill-rule="evenodd" clip-rule="evenodd" d="M47.2436 120.633C47.2356 121.338 47.2646 121.945 47.4396 122.79C46.5836 122.71 46.6946 121.083 47.2436 120.633" fill="#BCE378" blush:i="0.0.238"/><path id="Fill 2462" fill-rule="evenodd" clip-rule="evenodd" d="M73.7657 96.2738C73.2217 96.2268 73.2037 95.8838 73.3217 95.5668C70.6567 95.6398 74.6907 94.2878 73.7657 96.2738" fill="#BCE378" blush:i="0.0.239"/><path id="Fill 2464" fill-rule="evenodd" clip-rule="evenodd" d="M52.2925 108.411C52.9455 108.461 52.0935 108.696 52.4035 109.054C52.7625 110.929 51.1755 109.287 52.2925 108.411" fill="#BCE378" blush:i="0.0.240"/><path id="Fill 2466" fill-rule="evenodd" clip-rule="evenodd" d="M35.6978 137.803C35.7598 137.252 36.4018 137.579 36.7388 137.626C36.9858 138.543 35.0748 139.077 35.6978 137.803" fill="#BCDF48" blush:i="0.0.241"/><path id="Fill 2468" fill-rule="evenodd" clip-rule="evenodd" d="M35.6977 137.803C35.6517 138.933 35.8087 138.187 36.6427 138.271C35.8077 139.524 35.3277 139.38 35.6977 137.803" fill="#BFE050" blush:i="0.0.242"/><path id="Fill 2470" fill-rule="evenodd" clip-rule="evenodd" d="M72.5388 145.659C72.6888 146.254 72.0318 147.752 71.5768 146.805C71.3878 146.514 72.4728 146.172 72.5388 145.659" fill="#BCE378" blush:i="0.0.243"/><path id="Fill 2472" fill-rule="evenodd" clip-rule="evenodd" d="M60.0269 119.741C60.3209 120.426 60.1089 120.748 60.0309 121.27C59.6629 120.853 59.2859 120.095 60.0269 119.741" fill="#BCE378" blush:i="0.0.244"/><path id="Fill 2474" fill-rule="evenodd" clip-rule="evenodd" d="M70.2546 152.204C70.4236 152.32 71.9686 153.769 70.6036 153.796C71.7286 153.282 69.8456 153.154 70.2546 152.204" fill="#BCE378" blush:i="0.0.245"/><path id="Fill 2476" fill-rule="evenodd" clip-rule="evenodd" d="M52.3779 110.038C52.8179 110.368 53.3549 110.009 53.7359 110.217C53.4559 110.88 52.4479 110.778 52.3779 110.038" fill="#BCE378" blush:i="0.0.246"/><path id="Fill 2478" fill-rule="evenodd" clip-rule="evenodd" d="M71.2901 149.883C71.2751 149.282 73.1291 149.313 72.4431 149.932C72.0311 149.456 71.7301 150.121 71.2901 149.883" fill="#BCE378" blush:i="0.0.247"/><path id="Fill 2480" fill-rule="evenodd" clip-rule="evenodd" d="M48.6921 120.733C48.1431 120.44 47.8191 120.556 47.2461 120.632C47.5981 119.895 48.4171 120.154 48.6921 120.733" fill="#BCE378" blush:i="0.0.248"/><path id="Fill 2482" fill-rule="evenodd" clip-rule="evenodd" d="M99.8615 135.748C99.0495 135.091 100.307 134.23 100.4 135.239C99.8465 134.846 100.039 135.428 99.8615 135.748" fill="#BCE378" blush:i="0.0.249"/><path id="Fill 2484" fill-rule="evenodd" clip-rule="evenodd" d="M45.9019 140.672C46.3249 140.115 45.5939 139.575 46.0529 139.354C46.4229 139.548 46.2949 140.418 45.9019 140.672" fill="#BCE378" blush:i="0.0.250"/><path id="Fill 2486" fill-rule="evenodd" clip-rule="evenodd" d="M70.2694 153.995C70.2774 154.422 70.0914 154.771 69.8304 155.091C69.7984 154.654 69.8784 154.262 70.2694 153.995" fill="#BCE378" blush:i="0.0.251"/><path id="Fill 2488" fill-rule="evenodd" clip-rule="evenodd" d="M73.3291 150.858C73.2431 150.482 72.9371 150.221 72.8091 149.868C73.2571 149.981 73.4811 150.408 73.3291 150.858" fill="#BCE378" blush:i="0.0.252"/><path id="Fill 2490" fill-rule="evenodd" clip-rule="evenodd" d="M37.6151 138.276C37.1191 138.228 36.7271 137.038 37.1561 137.594C37.5551 137.768 37.6491 137.845 37.6151 138.276" fill="#BCE378" blush:i="0.0.253"/><path id="Fill 2492" fill-rule="evenodd" clip-rule="evenodd" d="M70.7369 147.17C70.6249 146.684 71.5729 147.665 71.4559 147.084C72.0549 147.188 71.0029 147.758 70.7369 147.17" fill="#BCE378" blush:i="0.0.254"/><path id="Fill 2494" fill-rule="evenodd" clip-rule="evenodd" d="M44.874 159.957C44.442 160.045 44.478 159.52 44.462 159.258C44.866 159.334 44.873 159.644 44.874 159.957" fill="#BCE378" blush:i="0.0.255"/><path id="Fill 2496" fill-rule="evenodd" clip-rule="evenodd" d="M82.3329 125.692C82.0389 125.866 81.8449 125.653 81.6319 125.512C81.8999 125.247 82.0529 125.286 82.3329 125.692" fill="#FCFEA6" blush:i="0.0.256"/><path id="Fill 2498" fill-rule="evenodd" clip-rule="evenodd" d="M85.2928 142.866C85.0208 142.72 84.7488 142.572 84.7268 142.21C85.1198 142.253 85.2798 142.495 85.2928 142.866" fill="#FCFEA6" blush:i="0.0.257"/><path id="Fill 2500" fill-rule="evenodd" clip-rule="evenodd" d="M36.9198 137.568C37.1868 137.808 36.8458 138.063 36.6438 138.271C36.5098 138.007 36.6318 137.618 36.9198 137.568" fill="#BFE050" blush:i="0.0.258"/><path id="Fill 2502" fill-rule="evenodd" clip-rule="evenodd" d="M72.8967 149.313C73.2367 149.2 73.4507 149.461 73.7107 149.585C73.3817 149.667 73.1397 149.49 72.8967 149.313" fill="#FCFEA6" blush:i="0.0.259"/><path id="Fill 2504" fill-rule="evenodd" clip-rule="evenodd" d="M71.8239 96.2719C71.9809 96.3999 71.9689 96.4659 71.7579 96.6239C71.5839 96.5169 71.6049 96.4079 71.8239 96.2719" fill="#BCE378" blush:i="0.0.260"/><path id="Fill 2506" fill-rule="evenodd" clip-rule="evenodd" d="M85.2933 143.575C85.1223 143.365 85.0073 143.154 85.2893 142.941C85.2103 143.153 85.5103 143.362 85.2933 143.575" fill="#FCFEA6" blush:i="0.0.261"/><path id="Fill 2508" fill-rule="evenodd" clip-rule="evenodd" d="M36.4632 137.56C36.4422 137.722 36.3252 137.81 36.1902 137.777C35.9152 137.583 36.2452 137.294 36.4632 137.56" fill="#BFE050" blush:i="0.0.262"/><path id="Fill 2510" fill-rule="evenodd" clip-rule="evenodd" d="M72.3303 95.5277C72.4273 95.8557 72.1413 95.8207 71.9763 95.9007C72.0133 95.6997 72.0793 95.5257 72.3303 95.5277" fill="#BCE378" blush:i="0.0.263"/><path id="Fill 2512" fill-rule="evenodd" clip-rule="evenodd" d="M22.7461 139.248C22.9571 139.275 23.1551 139.32 23.1621 139.595C22.9851 139.524 22.8031 139.461 22.7461 139.248" fill="#BCE378" blush:i="0.0.264"/><path id="Fill 2514" fill-rule="evenodd" clip-rule="evenodd" d="M100.395 135.457C100.467 135.557 100.529 135.661 100.531 135.789C100.291 135.911 100.131 135.556 100.395 135.457" fill="#BCE378" blush:i="0.0.265"/><path id="Fill 2516" fill-rule="evenodd" clip-rule="evenodd" d="M75.8273 156.856C75.9693 156.884 76.0713 156.969 76.0633 157.112C75.9313 157.293 75.6643 157.029 75.8273 156.856" fill="#FCFEA6" blush:i="0.0.266"/><path id="Fill 2518" fill-rule="evenodd" clip-rule="evenodd" d="M74.8711 129.286C75.1211 129.333 75.0461 129.625 75.2111 129.736C74.8791 129.751 74.8691 129.523 74.8711 129.286" fill="#FCFEA6" blush:i="0.0.267"/><path id="Fill 2520" fill-rule="evenodd" clip-rule="evenodd" d="M68.2244 141.96C68.1844 141.753 68.2704 141.663 68.4784 141.686C68.5014 141.877 68.4264 141.977 68.2244 141.96" fill="#F8FB9B" blush:i="0.0.268"/><path id="Fill 2522" fill-rule="evenodd" clip-rule="evenodd" d="M96.0791 172.893C96.1681 172.982 96.3961 173.064 96.0901 173.169C95.8411 173.087 96.0091 172.988 96.0791 172.893" fill="#BCE378" blush:i="0.0.269"/><path id="Fill 2524" fill-rule="evenodd" clip-rule="evenodd" d="M109.219 138.868C109.318 139.155 108.837 139.09 108.866 138.818C109 138.704 109.114 138.781 109.219 138.868" fill="#7C984A" blush:i="0.0.270"/><path id="Fill 2526" fill-rule="evenodd" clip-rule="evenodd" d="M74.3466 139.792C74.5246 139.803 74.5646 139.932 74.5916 140.072C74.3976 140.077 74.2976 139.999 74.3466 139.792" fill="#FCFEA6" blush:i="0.0.271"/><path id="Fill 2528" fill-rule="evenodd" clip-rule="evenodd" d="M60.2093 119.384C60.3333 119.598 60.1683 119.663 60.0263 119.74C60.0403 119.597 60.0213 119.437 60.2093 119.384" fill="#BCE378" blush:i="0.0.272"/><path id="Fill 2530" fill-rule="evenodd" clip-rule="evenodd" d="M97.0012 138.719C96.9392 138.863 96.7662 138.784 96.7312 138.691C96.8272 138.64 96.9302 138.526 97.0012 138.719" fill="#95B65B" blush:i="0.0.273"/><path id="Fill 2532" fill-rule="evenodd" clip-rule="evenodd" d="M60.1371 121.445C60.3711 121.314 60.4311 121.409 60.3861 121.638C60.2681 121.619 60.1731 121.57 60.1371 121.445" fill="#BCE378" blush:i="0.0.274"/><path id="Fill 2534" fill-rule="evenodd" clip-rule="evenodd" d="M111.855 98.4203C111.71 98.4433 111.622 98.3733 111.566 98.2473C111.778 98.1103 111.793 98.3073 111.855 98.4203" fill="#7C984A" blush:i="0.0.275"/><path id="Fill 2536" fill-rule="evenodd" clip-rule="evenodd" d="M69.4765 129.9C69.3105 129.921 69.2315 129.744 69.1845 129.64C69.3615 129.592 69.5115 129.7 69.4765 129.9" fill="#FCFEA6" blush:i="0.0.276"/><path id="Fill 2538" fill-rule="evenodd" clip-rule="evenodd" d="M83.8139 125.122C83.7149 125.209 83.6149 125.344 83.5319 125.109C83.6309 124.995 83.7209 125.082 83.8139 125.122" fill="#F8FB9B" blush:i="0.0.277"/><path id="Fill 2540" fill-rule="evenodd" clip-rule="evenodd" d="M31.9771 170.923C32.1181 171.023 31.9961 171.096 31.9511 171.177C31.8811 171.084 31.8831 170.999 31.9771 170.923" fill="#BCE378" blush:i="0.0.278"/><path id="Fill 2542" fill-rule="evenodd" clip-rule="evenodd" d="M69.1648 129.669C69.0178 129.749 69.0148 129.548 69.0948 129.501C69.1928 129.464 69.2618 129.649 69.1648 129.669" fill="#FCFEA6" blush:i="0.0.279"/><path id="Fill 2544" fill-rule="evenodd" clip-rule="evenodd" d="M90.8738 152.916C90.8938 153.037 90.8378 153.101 90.7208 153.118C90.7108 153.005 90.7838 152.954 90.8738 152.916" fill="#BCE378" blush:i="0.0.280"/><path id="Fill 2546" fill-rule="evenodd" clip-rule="evenodd" d="M90.7103 153.124C90.6963 153.239 90.6333 153.294 90.5163 153.282C90.5393 153.179 90.5883 153.106 90.7103 153.124" fill="#BCE378" blush:i="0.0.281"/><path id="Fill 2548" fill-rule="evenodd" clip-rule="evenodd" d="M70.4596 153.822C70.4636 153.952 70.4086 154.019 70.2706 153.995C70.2866 153.886 70.3396 153.817 70.4596 153.822" fill="#BCE378" blush:i="0.0.282"/><path id="Fill 2550" fill-rule="evenodd" clip-rule="evenodd" d="M96.3756 141.825L96.4516 141.699C96.5466 141.813 96.4526 141.814 96.3756 141.825" fill="#95B65B" blush:i="0.0.283"/><path id="Fill 2552" fill-rule="evenodd" clip-rule="evenodd" d="M100.576 135.919C100.667 135.954 100.701 136.02 100.682 136.114C100.591 136.079 100.493 136.048 100.576 135.919" fill="#BCE378" blush:i="0.0.284"/><path id="Fill 2554" fill-rule="evenodd" clip-rule="evenodd" d="M75.9565 127.462C75.8205 127.504 75.6865 127.417 75.8605 127.341C75.9345 127.338 75.9435 127.405 75.9565 127.462" fill="#FCFEA6" blush:i="0.0.285"/><path id="Fill 2556" fill-rule="evenodd" clip-rule="evenodd" d="M92.5431 155.636C92.6291 155.794 92.5221 155.801 92.4101 155.805C92.4131 155.716 92.4301 155.639 92.5431 155.636" fill="#FCFEA6" blush:i="0.0.286"/><path id="Fill 2558" fill-rule="evenodd" clip-rule="evenodd" d="M111.302 98.0678C111.253 98.0618 111.204 98.0568 111.156 98.0518C111.189 97.9318 111.295 97.9538 111.302 98.0678" fill="#7C984A" blush:i="0.0.287"/><path id="Fill 2560" fill-rule="evenodd" clip-rule="evenodd" d="M63.2704 96.3578C63.2014 96.4058 63.2054 96.4068 63.2754 96.3628L63.2704 96.3578Z" fill="#BFE050" blush:i="0.0.288"/><path id="Fill 2562" fill-rule="evenodd" clip-rule="evenodd" d="M71.9037 95.9125C71.9017 95.9805 71.8987 96.0505 71.8257 96.0875C71.8267 96.0175 71.8077 95.9395 71.9037 95.9125" fill="#BCE378" blush:i="0.0.289"/><path id="Fill 2564" fill-rule="evenodd" clip-rule="evenodd" d="M75.1201 167.548L75.1551 167.543C75.1581 167.576 75.1351 167.554 75.1201 167.548" fill="#BCDF48" blush:i="0.0.290"/><path id="Fill 2566" fill-rule="evenodd" clip-rule="evenodd" d="M72.5341 140.873C72.3991 140.852 72.3981 140.686 72.5361 140.701C72.5271 140.757 72.5371 140.816 72.5341 140.873" fill="#F8FB9B" blush:i="0.0.291"/><path id="Fill 2568" fill-rule="evenodd" clip-rule="evenodd" d="M76.9511 140.159C76.9461 140.104 76.9761 140.077 77.0261 140.066C77.0011 140.097 76.9761 140.128 76.9511 140.159" fill="#FCFEA6" blush:i="0.0.292"/><path id="Fill 2570" fill-rule="evenodd" clip-rule="evenodd" d="M72.5359 140.702C72.5539 140.668 72.5539 140.665 72.5329 140.699L72.5359 140.702Z" fill="#F8FB9B" blush:i="0.0.293"/><path id="Fill 2572" fill-rule="evenodd" clip-rule="evenodd" d="M77.2112 158.325L77.2012 158.337C77.2012 158.335 77.2182 158.328 77.2112 158.325" fill="#BCDF48" blush:i="0.0.294"/><path id="Fill 2574" fill-rule="evenodd" clip-rule="evenodd" d="M62.7284 141.237C62.7164 141.248 62.6794 141.3 62.7004 141.255C62.7074 141.246 62.7364 141.247 62.7284 141.237" fill="#FCFEA6" blush:i="0.0.295"/><path id="Fill 2576" fill-rule="evenodd" clip-rule="evenodd" d="M42.131 142.59L42.14 142.579C42.14 142.58 42.125 142.588 42.131 142.59" fill="#BFE050" blush:i="0.0.296"/><path id="Fill 2580" fill-rule="evenodd" clip-rule="evenodd" d="M64.1706 144.345C64.1626 144.407 64.1436 144.459 64.0736 144.477C64.0756 144.411 64.1116 144.369 64.1706 144.345" fill="#BCDF48" blush:i="0.0.297"/><path id="Fill 2582" fill-rule="evenodd" clip-rule="evenodd" d="M110.228 132.465C109.968 135.182 108.692 137.419 109.611 133.523C108.551 131.393 105.411 129.225 108.407 127.889C110.47 126.399 106.957 129.398 110.228 132.465" fill="#7C984A" blush:i="0.0.298"/><path id="Fill 2584" fill-rule="evenodd" clip-rule="evenodd" d="M109.595 131.247C105.879 129.118 111.28 125.041 111.105 129.125C109.848 128.851 109.677 130.3 109.595 131.247" fill="#B4D741" blush:i="0.0.299"/><path id="Fill 2586" fill-rule="evenodd" clip-rule="evenodd" d="M111.288 128.302C108.974 127.4 113.057 123.53 112.859 123.345C115.089 121.537 111.705 126.96 111.288 128.302" fill="#7C984A" blush:i="0.0.300"/><path id="Fill 2588" fill-rule="evenodd" clip-rule="evenodd" d="M109.595 131.247C109.436 130.368 109.753 129.101 110.777 128.934C111.346 129.621 109.998 134.304 109.595 131.247" fill="#F8FB9B" blush:i="0.0.301"/><path id="Fill 2590" fill-rule="evenodd" clip-rule="evenodd" d="M109.068 135.946C110.056 135.539 109.215 140.745 108.66 137.929C108.483 137.378 108.711 136.551 109.068 135.946" fill="#F8FB9B" blush:i="0.0.302"/><path id="Fill 2592" fill-rule="evenodd" clip-rule="evenodd" d="M125.335 117.22C125.455 117.66 123.848 118.272 123.985 117.501C124.451 117.484 124.889 117.332 125.335 117.22" fill="#AED569" blush:i="0.0.303"/><path id="Fill 2594" fill-rule="evenodd" clip-rule="evenodd" d="M111.033 129.192C111.057 129.17 111.081 129.147 111.104 129.125C111.081 129.147 111.057 129.17 111.033 129.192" fill="#F8FB9B" blush:i="0.0.304"/><path id="Fill 2596" fill-rule="evenodd" clip-rule="evenodd" d="M104.098 107.154C110.013 110.691 115.328 111.911 106.641 114.422C104.249 116.319 106.174 112.458 104.053 112.238C101.539 113.253 101.827 108.07 104.098 107.154" fill="#5F753A" blush:i="0.0.305"/><path id="Fill 2598" fill-rule="evenodd" clip-rule="evenodd" d="M109.053 127.305C108.087 130.034 100.392 131.632 103.749 128.122C108.475 130.296 106.443 119.369 109.053 127.305" fill="#5F753A" blush:i="0.0.306"/><path id="Fill 2600" fill-rule="evenodd" clip-rule="evenodd" d="M92.4124 128.916C92.8164 131.313 88.0504 132.177 88.3334 129.468C89.9934 128.722 91.2364 125.722 92.4124 128.916" fill="#B4D741" blush:i="0.0.307"/><path id="Fill 2602" fill-rule="evenodd" clip-rule="evenodd" d="M80.5981 128.927C80.9761 126.312 84.5771 126.621 83.9241 129.246C83.6021 131.125 80.3951 130.881 80.5981 128.927" fill="#F8FB9B" blush:i="0.0.308"/><path id="Fill 2604" fill-rule="evenodd" clip-rule="evenodd" d="M83.9791 108.327C84.2451 107.236 83.6691 106.979 82.8711 106.901C84.6981 101.957 89.7281 109.124 83.9791 108.327" fill="#B4D741" blush:i="0.0.309"/><path id="Fill 2606" fill-rule="evenodd" clip-rule="evenodd" d="M106.763 125.364C107.81 126.663 106.585 128.653 105.053 128.611C102.547 127.79 105.002 123.855 106.763 125.364" fill="#F8FB9B" blush:i="0.0.310"/><path id="Fill 2608" fill-rule="evenodd" clip-rule="evenodd" d="M96.039 129.831C97.395 127.734 100.457 129.636 98.742 131.718C97.64 133.578 95.433 131.44 96.039 129.831" fill="#F8FB9B" blush:i="0.0.311"/><path id="Fill 2610" fill-rule="evenodd" clip-rule="evenodd" d="M100.15 127.391C100.037 126.358 101.144 125.322 101.979 124.911C105.186 125.825 101.786 130.37 100.15 127.391" fill="#F8FB9B" blush:i="0.0.312"/><path id="Fill 2612" fill-rule="evenodd" clip-rule="evenodd" d="M87.2861 106.941C87.3871 105.953 87.1601 105.173 88.3721 104.973C92.4201 103.784 88.2901 111.745 87.2861 106.941" fill="#F8FB9B" blush:i="0.0.313"/><path id="Fill 2614" fill-rule="evenodd" clip-rule="evenodd" d="M94.9297 111.368C93.3767 114.188 90.6717 109.889 93.5437 109.319C94.3267 107.227 95.6557 109.964 94.9297 111.368" fill="#F8FB9B" blush:i="0.0.314"/><path id="Fill 2616" fill-rule="evenodd" clip-rule="evenodd" d="M104.027 124.823C102.4 124.213 102.906 121.977 104.229 121.22C106.549 120.992 106.098 124.682 104.027 124.823" fill="#B4D741" blush:i="0.0.315"/><path id="Fill 2618" fill-rule="evenodd" clip-rule="evenodd" d="M97.6094 120.112C98.3714 115.04 103.339 122.543 98.3094 121.345C97.9764 121.578 97.6774 120.439 97.6094 120.112" fill="#F8FB9B" blush:i="0.0.316"/><path id="Fill 2620" fill-rule="evenodd" clip-rule="evenodd" d="M102.755 130.003C105.677 129.301 104.254 134.096 102.014 132.607C100.469 132.144 101.557 130.158 102.755 130.003" fill="#F8FB9B" blush:i="0.0.317"/><path id="Fill 2622" fill-rule="evenodd" clip-rule="evenodd" d="M105.082 118.901C101.333 116.672 108.706 114.316 106.904 117.88C106.065 117.863 106.108 118.98 105.082 118.901" fill="#B4D741" blush:i="0.0.318"/><path id="Fill 2624" fill-rule="evenodd" clip-rule="evenodd" d="M81.4276 130.284C82.4996 130.895 86.0066 128.366 83.9746 131.111C84.8166 134.041 79.8606 132.281 81.4276 130.284" fill="#B4D741" blush:i="0.0.319"/><path id="Fill 2626" fill-rule="evenodd" clip-rule="evenodd" d="M101.246 123.308C101.484 125.798 96.6511 124.897 98.3231 122.897C99.4871 122.256 100.898 122.062 101.246 123.308" fill="#F8FB9B" blush:i="0.0.320"/><path id="Fill 2628" fill-rule="evenodd" clip-rule="evenodd" d="M111.208 119.382C111.044 120.924 108.512 120.444 108.69 118.986C108.942 116.642 111.994 117.056 111.208 119.382" fill="#F8FB9B" blush:i="0.0.321"/><path id="Fill 2630" fill-rule="evenodd" clip-rule="evenodd" d="M100.794 114.386C101.803 116.221 98.7239 117.032 98.2559 115.235C97.4399 113.447 100.452 112.648 100.794 114.386" fill="#FCFEA6" blush:i="0.0.322"/><path id="Fill 2632" fill-rule="evenodd" clip-rule="evenodd" d="M108.466 113.563C108.861 111.848 111.593 112.699 111.178 114.249C110.714 116.282 108.162 115.22 108.466 113.563" fill="#F8FB9B" blush:i="0.0.323"/><path id="Fill 2634" fill-rule="evenodd" clip-rule="evenodd" d="M93.4196 133.592C91.9746 132.969 92.3266 130.409 94.1326 130.525C95.2316 130.9 95.4366 133.53 93.4196 133.592" fill="#B4D741" blush:i="0.0.324"/><path id="Fill 2636" fill-rule="evenodd" clip-rule="evenodd" d="M91.6151 114.108C92.9521 113.608 94.0131 115.482 93.3171 116.591C91.4831 118.058 90.4191 115.764 91.6151 114.108" fill="#B4D741" blush:i="0.0.325"/><path id="Fill 2638" fill-rule="evenodd" clip-rule="evenodd" d="M84.8518 127.305C86.0598 127.239 87.4988 128.55 86.6638 129.787C85.1158 130.512 83.7818 128.555 84.8518 127.305" fill="#B4D741" blush:i="0.0.326"/><path id="Fill 2640" fill-rule="evenodd" clip-rule="evenodd" d="M102.528 112.557C100.872 113.188 99.969 111.102 101.418 110.237C103.208 109.515 102.861 111.584 102.528 112.557" fill="#B4D741" blush:i="0.0.327"/><path id="Fill 2642" fill-rule="evenodd" clip-rule="evenodd" d="M95.0553 128.887C95.1313 128.874 95.0653 129.012 95.0443 128.921C95.0413 128.911 95.0513 128.899 95.0553 128.887" fill="#BCDF48" blush:i="0.0.328"/><path id="Fill 2644" fill-rule="evenodd" clip-rule="evenodd" d="M100.154 127.387C100.128 127.372 100.124 127.372 100.149 127.391L100.154 127.387Z" fill="#F8FB9B" blush:i="0.0.329"/><path id="Fill 2646" fill-rule="evenodd" clip-rule="evenodd" d="M112.222 123.433C112.136 122.863 110.967 122.854 110.71 122.156C111.152 121.753 113.035 123.367 112.222 123.433" fill="#7C984A" blush:i="0.0.330"/><path id="Fill 2648" fill-rule="evenodd" clip-rule="evenodd" d="M114.201 114.435C114.182 114.283 114.175 114.134 114.347 114.053C114.414 114.225 114.424 114.374 114.201 114.435" fill="#7C984A" blush:i="0.0.331"/><path id="Fill 2650" fill-rule="evenodd" clip-rule="evenodd" d="M80.4715 117.977C80.1235 115.923 83.6395 115.822 83.2375 117.77C82.2875 116.975 81.3505 117.244 80.4715 117.977" fill="#B4D741" blush:i="0.0.332"/><path id="Fill 2652" fill-rule="evenodd" clip-rule="evenodd" d="M82.0642 116.332C80.2712 117.391 82.2292 113.898 83.3562 114.974C83.9102 115.178 82.1402 115.728 82.0642 116.332" fill="#95B65B" blush:i="0.0.333"/><path id="Fill 2654" fill-rule="evenodd" clip-rule="evenodd" d="M83.6526 118.954C83.4536 118.743 83.4196 118.528 83.6336 118.306C83.8206 118.517 83.6336 118.738 83.6526 118.954" fill="#AED569" blush:i="0.0.334"/><path id="Fill 2656" fill-rule="evenodd" clip-rule="evenodd" d="M83.4239 117.946C83.3169 117.933 83.2349 117.893 83.2349 117.767C83.3409 117.731 83.4919 117.866 83.4239 117.946" fill="#B4D741" blush:i="0.0.335"/><path id="Fill 2658" fill-rule="evenodd" clip-rule="evenodd" d="M83.4199 117.949C83.4189 117.914 83.4179 117.878 83.4169 117.842C83.4489 117.877 83.5429 117.91 83.4199 117.949" fill="#FCFEA6" blush:i="0.0.336"/><path id="Fill 2660" fill-rule="evenodd" clip-rule="evenodd" d="M81.6289 136.887C82.7799 136.271 83.4689 136.012 82.9219 137.606C82.6739 137.619 81.8809 137.055 81.6289 136.887" fill="#95B65B" blush:i="0.0.337"/><path id="Fill 2662" fill-rule="evenodd" clip-rule="evenodd" d="M85.5622 138.35C86.2032 139.422 84.4372 139.633 84.0342 138.741C84.6032 138.843 85.0562 138.494 85.5622 138.35" fill="#B4D741" blush:i="0.0.338"/><path id="Fill 2664" fill-rule="evenodd" clip-rule="evenodd" d="M81.427 130.284C80.679 137.59 80.886 124.56 77.585 131.697C75.829 129.259 80.557 126.782 81.427 130.284" fill="#7C984A" blush:i="0.0.339"/><path id="Fill 2666" fill-rule="evenodd" clip-rule="evenodd" d="M78.2931 136.931C76.4431 137.59 75.8651 133.259 77.7601 133.986C79.1471 134.228 79.4961 136.649 78.2931 136.931" fill="#BFE050" blush:i="0.0.340"/><path id="Fill 2668" fill-rule="evenodd" clip-rule="evenodd" d="M77.585 131.696C79.647 129.499 80.575 134.83 78.374 133.778C77.335 133.521 77.286 132.47 77.585 131.696" fill="#FCFEA6" blush:i="0.0.341"/><path id="Fill 2670" fill-rule="evenodd" clip-rule="evenodd" d="M78.3248 136.848C78.3158 136.798 78.3378 136.761 78.3868 136.765C78.4988 136.798 78.4078 136.883 78.3248 136.848" fill="#FCFEA6" blush:i="0.0.342"/><path id="Fill 2672" fill-rule="evenodd" clip-rule="evenodd" d="M108.369 132.206C110.008 132.78 109.743 134.837 109.056 135.935C106.473 136.917 105.968 132.326 108.369 132.206" fill="#B4D741" blush:i="0.0.343"/><path id="Fill 2674" fill-rule="evenodd" clip-rule="evenodd" d="M102.475 134.602C103.861 134.056 105.917 133.944 105.264 136.108C104.163 137.576 101.538 136.542 102.475 134.602" fill="#F8FB9B" blush:i="0.0.344"/><path id="Fill 2676" fill-rule="evenodd" clip-rule="evenodd" d="M108.37 132.206C107.247 133.38 105.417 132.101 105.92 130.542C106.91 128.542 108.939 130.551 108.37 132.206" fill="#F8FB9B" blush:i="0.0.345"/><path id="Fill 2678" fill-rule="evenodd" clip-rule="evenodd" d="M104.132 132.514C103.175 132.727 105.276 130.594 103.869 130.211C104.308 128.005 106.725 131.747 104.132 132.514" fill="#B4D741" blush:i="0.0.346"/><path id="Fill 2680" fill-rule="evenodd" clip-rule="evenodd" d="M71.4542 147.086C71.3502 147.089 71.2372 147.002 71.3042 146.893C71.4032 146.915 71.4142 147.019 71.4542 147.086" fill="#BCE378" blush:i="0.0.347"/><path id="Fill 2682" fill-rule="evenodd" clip-rule="evenodd" d="M82.5186 143.588C82.9656 143.615 83.9546 144.15 83.7566 144.658C83.2816 144.374 82.6816 144.233 82.5186 143.588" fill="#F8FB9B" blush:i="0.0.348"/><path id="Fill 2684" fill-rule="evenodd" clip-rule="evenodd" d="M91.3334 155.274C91.3624 155.269 91.3934 155.269 91.4224 155.275C91.3924 155.323 91.3624 155.319 91.3334 155.274" fill="#BCE378" blush:i="0.0.349"/><path id="Fill 2686" fill-rule="evenodd" clip-rule="evenodd" d="M96.6876 122.454C96.7126 122.476 96.7106 122.492 96.6816 122.509C96.6566 122.486 96.6586 122.47 96.6876 122.454" fill="#7C984A" blush:i="0.0.350"/><path id="Fill 2688" fill-rule="evenodd" clip-rule="evenodd" d="M78.4207 128.982C78.4337 129.048 78.4287 129.058 78.3987 128.993L78.4207 128.982Z" fill="#BCDF48" blush:i="0.0.351"/><path id="Fill 2690" fill-rule="evenodd" clip-rule="evenodd" d="M78.8293 148.253C78.8323 148.255 78.8293 148.253 78.8293 148.253C78.8113 148.289 78.8113 148.292 78.8293 148.253" fill="#FCFEA6" blush:i="0.0.352"/><path id="Fill 2692" fill-rule="evenodd" clip-rule="evenodd" d="M52.8357 109.849C52.8337 109.851 52.8357 109.849 52.8357 109.849C52.7977 109.83 52.7967 109.829 52.8357 109.849" fill="#BCE378" blush:i="0.0.353"/><path id="Fill 2694" fill-rule="evenodd" clip-rule="evenodd" d="M52.8338 109.851C52.8358 109.849 52.8338 109.851 52.8338 109.851C52.8728 109.872 52.8738 109.872 52.8338 109.851" fill="#BCE378" blush:i="0.0.354"/><path id="Fill 2696" fill-rule="evenodd" clip-rule="evenodd" d="M45.7279 138.992C45.7289 138.99 45.7279 138.992 45.7279 138.992C45.7649 139.012 45.7669 139.012 45.7279 138.992" fill="#BCE378" blush:i="0.0.355"/><path id="Fill 2698" fill-rule="evenodd" clip-rule="evenodd" d="M45.7295 138.99C45.7285 138.992 45.7295 138.99 45.7295 138.99C45.6935 138.969 45.6925 138.969 45.7295 138.99" fill="#BCE378" blush:i="0.0.356"/><path id="Fill 2700" fill-rule="evenodd" clip-rule="evenodd" d="M76.3101 155.902C76.2721 155.859 76.2731 155.857 76.3151 155.896L76.3101 155.902Z" fill="#BCDF48" blush:i="0.0.357"/><path id="Fill 2702" fill-rule="evenodd" clip-rule="evenodd" d="M90.2546 138.002C90.2556 138 90.2546 138.002 90.2546 138.002C90.2146 137.98 90.2166 137.98 90.2546 138.002" fill="#BFE050" blush:i="0.0.358"/><path id="Fill 2704" fill-rule="evenodd" clip-rule="evenodd" d="M82.6987 160.217C82.6847 160.203 82.6727 160.191 82.6587 160.178C82.6837 160.176 82.6947 160.196 82.6987 160.217" fill="#BCDF48" blush:i="0.0.359"/><path id="Fill 2706" fill-rule="evenodd" clip-rule="evenodd" d="M63.6364 148.876C63.7224 148.904 63.8344 148.826 63.8994 148.942C63.7994 148.956 63.5254 149.043 63.6364 148.876" fill="#BCE378" blush:i="0.0.360"/><path id="Fill 2708" fill-rule="evenodd" clip-rule="evenodd" d="M98.1958 174.441C97.9998 174.415 98.0568 174.324 98.1778 174.307C98.2608 174.314 98.2138 174.414 98.1958 174.441" fill="#BCE378" blush:i="0.0.361"/><path id="Fill 2710" fill-rule="evenodd" clip-rule="evenodd" d="M79.6383 132.265C79.2793 131.135 77.7183 131.515 78.2013 130.227C79.1263 127.918 82.6323 131.586 79.6383 132.265" fill="#B4D741" blush:i="0.0.362"/><path id="Fill 2712" fill-rule="evenodd" clip-rule="evenodd" d="M82.0479 132.426C82.1479 132.343 82.1439 132.445 82.1689 132.493C82.1279 132.471 82.0879 132.448 82.0479 132.426" fill="#7C984A" blush:i="0.0.363"/><path id="Fill 2714" fill-rule="evenodd" clip-rule="evenodd" d="M81.9112 132.418C81.9362 132.427 81.9622 132.428 81.9872 132.42C81.9612 132.454 81.9342 132.485 81.9112 132.418" fill="#7C984A" blush:i="0.0.364"/><path id="Fill 2716" fill-rule="evenodd" clip-rule="evenodd" d="M96.191 148.076C96.231 148.087 96.272 148.097 96.313 148.107C96.242 148.201 96.225 148.104 96.191 148.076" fill="#FCFEA6" blush:i="0.0.365"/><path id="Fill 2718" fill-rule="evenodd" clip-rule="evenodd" d="M104.242 154.352C104.101 154.296 104.156 154.179 104.281 154.198C104.448 154.225 104.336 154.278 104.242 154.352" fill="#BCDF48" blush:i="0.0.366"/><path id="Fill 2720" fill-rule="evenodd" clip-rule="evenodd" d="M97.4511 139.081C97.5311 139.094 97.6311 139.056 97.6731 139.159C97.6261 139.314 97.4341 139.226 97.4511 139.081" fill="#7C984A" blush:i="0.0.367"/><path id="Fill 2722" fill-rule="evenodd" clip-rule="evenodd" d="M37.0915 137.828C37.3095 137.852 37.4225 137.978 37.4495 138.19C37.1495 138.249 37.1775 137.982 37.0915 137.828" fill="#BFE050" blush:i="0.0.368"/><path id="Fill 2724" fill-rule="evenodd" clip-rule="evenodd" d="M63.622 148.894C63.601 148.905 63.611 148.899 63.622 148.894C63.625 148.948 63.617 148.973 63.622 148.894" fill="#BFE050" blush:i="0.0.369"/><path id="Fill 2726" fill-rule="evenodd" clip-rule="evenodd" d="M85.3174 118.746C85.3554 118.795 85.3494 118.801 85.3004 118.764L85.3174 118.746Z" fill="#7C984A" blush:i="0.0.370"/><path id="Fill 2728" fill-rule="evenodd" clip-rule="evenodd" d="M90.6026 154.278C90.5086 154.404 90.5216 154.062 90.6016 154.194C90.6106 154.219 90.6026 154.25 90.6026 154.278" fill="#BCDF48" blush:i="0.0.371"/><path id="Fill 2730" fill-rule="evenodd" clip-rule="evenodd" d="M71.7227 156.437C71.6937 156.408 71.6637 156.377 71.6347 156.348C71.6637 156.377 71.6937 156.408 71.7227 156.437" fill="#BCDF48" blush:i="0.0.372"/><path id="Fill 2732" fill-rule="evenodd" clip-rule="evenodd" d="M108.616 125.05C110.715 123.452 112.13 126.505 110.125 127.385C108.97 127.648 107.357 126.327 108.616 125.05" fill="#FCFEA6" blush:i="0.0.373"/><path id="Fill 2734" fill-rule="evenodd" clip-rule="evenodd" d="M109.506 134.855C109.518 134.844 109.553 134.793 109.533 134.839C109.527 134.848 109.501 134.847 109.506 134.855" fill="#B4D741" blush:i="0.0.374"/><path id="Fill 2736" fill-rule="evenodd" clip-rule="evenodd" d="M104.468 107.24C104.44 107.246 104.413 107.239 104.391 107.22C104.439 107.139 104.45 107.203 104.468 107.24" fill="#7C984A" blush:i="0.0.375"/><path id="Fill 2738" fill-rule="evenodd" clip-rule="evenodd" d="M102.479 112.372C102.403 112.24 102.523 112.286 102.573 112.268C102.541 112.303 102.51 112.337 102.479 112.372" fill="#7C984A" blush:i="0.0.376"/><path id="Fill 2740" fill-rule="evenodd" clip-rule="evenodd" d="M103.749 129.816C103.745 130.173 103.318 129.977 103.113 129.979C103.218 129.808 103.218 129.808 103.749 129.816" fill="#7C984A" blush:i="0.0.377"/><path id="Fill 2742" fill-rule="evenodd" clip-rule="evenodd" d="M102.533 129.701C102.405 129.678 102.374 129.589 102.379 129.474C102.557 129.463 102.594 129.549 102.533 129.701" fill="#7C984A" blush:i="0.0.378"/><path id="Fill 2744" fill-rule="evenodd" clip-rule="evenodd" d="M89.5134 129.274C89.5004 129.253 89.5074 129.264 89.5134 129.274C89.5074 129.341 89.4384 129.254 89.5134 129.274" fill="#7C984A" blush:i="0.0.379"/><path id="Fill 2746" fill-rule="evenodd" clip-rule="evenodd" d="M101.816 129.512C101.835 129.495 101.826 129.504 101.816 129.512C101.765 129.502 101.821 129.439 101.816 129.512" fill="#7C984A" blush:i="0.0.380"/><path id="Fill 2748" fill-rule="evenodd" clip-rule="evenodd" d="M104.015 132.158C104.026 132.169 104.081 132.205 104.034 132.185C104.024 132.179 104.025 132.147 104.015 132.158" fill="#F8FB9B" blush:i="0.0.381"/></g></g></svg>