<svg viewBox="15.274999999999991 0 71.67500000000001 93.99999999999999" fill="none" xmlns="http://www.w3.org/2000/svg" xmlns:xlink="http://www.w3.org/1999/xlink" xmlns:blush="http://design.blush" overflow="visible" width="71.67500000000001px" height="93.99999999999999px"><g id="Master/New Stickers/Coffee Maker" clip-path="url(#clip0_509_57371df526228-8b73-463a-bb9c-d2a85d87507a)" blush:has-customizable-colors="true" blush:viewBox="15.510000000000005 0.46999999999999886 71.44000000000001 93.52999999999997" blush:i="0"><g id="Group 274" blush:i="0.0"><path id="Rectangle 10 (Stroke)" fill-rule="evenodd" clip-rule="evenodd" d="M51.6786 31.0465C51.6786 29.1464 53.219 27.606 55.1191 27.606H78.5296C82.0192 27.606 84.9261 30.2812 85.2154 33.7589L86.6805 51.3739C86.838 53.2674 85.4307 54.9302 83.5371 55.0877C81.6435 55.2452 79.9808 53.8378 79.8233 51.9442L78.3712 34.487H55.1191C53.219 34.487 51.6786 32.9466 51.6786 31.0465Z" fill="#101010" blush:i="0.0.0"/><rect id="Rectangle 6" x="31.9622" y="56.9857" width="29.2238" height="4.28616" rx="0.516071" fill="#807A74" blush:i="0.0.1"/><path id="Rectangle 9" d="M37.8492 42.0226C37.6633 42.161 37.4079 42.1585 37.2248 42.0165L16.0097 25.5685C15.6211 25.2672 15.8342 24.6446 16.3259 24.6446L59.6293 24.6446C60.1262 24.6446 60.3361 25.2779 59.9376 25.5746L37.8492 42.0226Z" fill="#807A74" blush:i="0.0.2"/><path id="Rectangle 4" d="M30.5474 61.6749C30.6002 61.4393 30.8094 61.2717 31.051 61.2717H63.0213C63.2682 61.2717 63.4805 61.4466 63.5278 61.6889L69.6387 92.9978C69.7009 93.3165 69.4568 93.6127 69.1321 93.6127H24.0348C23.7042 93.6127 23.4589 93.3063 23.5312 92.9838L30.5474 61.6749Z" fill="#BFBAB4" blush:i="0.0.3"/><path id="Rectangle 5" d="M62.6021 56.5825C62.5493 56.8182 62.34 56.9857 62.0985 56.9857L30.1282 56.9857C29.8813 56.9857 29.669 56.8108 29.6217 56.5685L23.5108 25.2597C23.4486 24.941 23.6926 24.6447 24.0173 24.6447L69.1147 24.6447C69.4452 24.6447 69.6906 24.9511 69.6183 25.2737L62.6021 56.5825Z" fill="#BFBAB4" blush:i="0.0.4"/><path id="Rectangle 7" d="M46.7275 7.2667C46.9134 7.12827 47.1688 7.13075 47.352 7.27276L68.567 23.7208C68.9556 24.0221 68.7426 24.6447 68.2508 24.6447L24.9474 24.6447C24.4505 24.6447 24.2407 24.0114 24.6392 23.7147L46.7275 7.2667Z" fill="#807A74" blush:i="0.0.5"/><rect id="Rectangle 8" x="44.0411" y="0.72012" width="5.6889" height="10.1309" rx="2.84445" fill="#101010" blush:i="0.0.6"/><path id="Vector 6 (Stroke)" fill-rule="evenodd" clip-rule="evenodd" d="M32.3801 29.4858C32.6599 29.4315 32.9307 29.6143 32.985 29.8941L37.5829 53.5849C37.6372 53.8647 37.4544 54.1355 37.1746 54.1898C36.8948 54.2441 36.6239 54.0613 36.5696 53.7815L31.9718 30.0908C31.9175 29.811 32.1003 29.5401 32.3801 29.4858Z" fill="#807A74" blush:i="0.0.7"/><path id="Vector 7 (Stroke)" fill-rule="evenodd" clip-rule="evenodd" d="M60.7686 29.4858C60.4888 29.4315 60.218 29.6143 60.1637 29.8941L55.5658 53.5849C55.5115 53.8647 55.6943 54.1355 55.9741 54.1898C56.2539 54.2441 56.5247 54.0613 56.579 53.7815L61.1769 30.0908C61.2312 29.811 61.0484 29.5401 60.7686 29.4858Z" fill="#807A74" blush:i="0.0.8"/><path id="Vector 8 (Stroke)" fill-rule="evenodd" clip-rule="evenodd" d="M46.0975 28.4632C45.8124 28.4632 45.5814 28.6942 45.5814 28.9792V53.6831C45.5814 53.9681 45.8124 54.1992 46.0975 54.1992C46.3825 54.1992 46.6135 53.9681 46.6135 53.6831V28.9792C46.6135 28.6942 46.3825 28.4632 46.0975 28.4632Z" fill="#807A74" blush:i="0.0.9"/><g id="Group 273" blush:i="0.0.10"><path id="Vector 9 (Stroke)" fill-rule="evenodd" clip-rule="evenodd" d="M60.7686 88.7717C60.4888 88.826 60.218 88.6432 60.1637 88.3634L55.5658 64.6726C55.5115 64.3928 55.6943 64.122 55.9741 64.0677C56.2539 64.0134 56.5247 64.1962 56.579 64.476L61.1769 88.1668C61.2312 88.4466 61.0484 88.7174 60.7686 88.7717Z" fill="#807A74" blush:i="0.0.10.0"/><path id="Vector 10 (Stroke)" fill-rule="evenodd" clip-rule="evenodd" d="M32.3808 88.7717C32.6606 88.826 32.9314 88.6432 32.9857 88.3634L37.5836 64.6726C37.6379 64.3928 37.4551 64.122 37.1753 64.0677C36.8955 64.0134 36.6247 64.1962 36.5704 64.476L31.9725 88.1668C31.9182 88.4466 32.101 88.7174 32.3808 88.7717Z" fill="#807A74" blush:i="0.0.10.1"/><path id="Vector 11 (Stroke)" fill-rule="evenodd" clip-rule="evenodd" d="M47.052 89.7944C47.337 89.7944 47.568 89.5633 47.568 89.2783L47.568 64.5744C47.568 64.2894 47.337 64.0584 47.052 64.0584C46.7669 64.0584 46.5359 64.2894 46.5359 64.5744L46.5359 89.2783C46.5359 89.5633 46.7669 89.7944 47.052 89.7944Z" fill="#807A74" blush:i="0.0.10.2"/></g></g></g><defs><clipPath id="clip0_509_57371df526228-8b73-463a-bb9c-d2a85d87507a"><rect width="92.8927" height="92.8927" fill="white" transform="translate(0.868408 0.720183)"/></clipPath></defs></svg>