<svg viewBox="1.1749999999999972 24.67500000000001 91.64999999999998 45.82499999999999" fill="none" xmlns="http://www.w3.org/2000/svg" xmlns:xlink="http://www.w3.org/1999/xlink" xmlns:blush="http://design.blush" overflow="visible" width="91.64999999999998px" height="45.82499999999999px"><g id="Master/New Stickers/Laptop" blush:has-customizable-colors="true" blush:viewBox="1.8799999999999955 24.440000000000012 90.70999999999998 45.11999999999999" blush:i="0"><g id="Laptop" blush:i="0.0"><path id="Fill 21" fill-rule="evenodd" clip-rule="evenodd" d="M23.6779 68.3812L76.8474 69.5286C78.633 69.5664 80.2308 68.4268 80.7756 66.7256L92.269 30.7712C93.0951 28.1917 91.1927 25.5499 88.4842 25.5121L36.6579 24.8038C34.94 24.7805 33.3945 25.849 32.8108 27.4645L19.9732 62.9809C19.0348 65.5737 20.9205 68.3212 23.6779 68.3812" fill="#BFBAB4" blush:i="0.0.0"/><path id="Fill 22" fill-rule="evenodd" clip-rule="evenodd" d="M21.8673 64.2725L77.9265 65.2009C78.2778 65.2065 78.5914 64.9819 78.6981 64.6472L89.8101 30.0148C89.9358 29.6279 89.6534 29.2287 89.2475 29.2187L35.3932 27.711L21.8673 64.2725Z" fill="#101010" blush:i="0.0.1"/><path id="Fill 23" fill-rule="evenodd" clip-rule="evenodd" d="M60.9976 26.9121C60.9976 27.1567 61.1966 27.3535 61.4401 27.3535C61.6847 27.3535 61.8826 27.1567 61.8826 26.9121C61.8826 26.6675 61.6847 26.4696 61.4401 26.4696C61.1966 26.4696 60.9976 26.6675 60.9976 26.9121" fill="#101010" blush:i="0.0.2"/><path id="Fill 24" fill-rule="evenodd" clip-rule="evenodd" d="M4.51058 68.4846L75.0163 69.4842C76.7797 69.5097 78.2229 68.0877 78.2229 66.3242V66.282L2.04001 65.2012V65.9807C2.04001 67.3494 3.14076 68.4657 4.51058 68.4846" fill="#807A74" blush:i="0.0.3"/></g></g></svg>