<svg viewBox="54.19999999999999 32.553191489361694 162.6 179.72074468085106" fill="none" xmlns="http://www.w3.org/2000/svg" xmlns:xlink="http://www.w3.org/1999/xlink" xmlns:blush="http://design.blush" overflow="visible" width="162.6px" height="179.72074468085106px"><g id="Master/Female Character/Avatar" blush:has-customizable-colors="true" blush:viewBox="16.26000000000002 14.920212765957473 238.48000000000008 307.8989361702128" blush:i="0"><g id="Avatars" opacity="0.5" blush:component="Avatars" blush:defaultValue="Avatar and Backdrop 2" blush:width="237" blush:height="236" transform="translate(17 15) scale(1.4023668639053255 1.4047619047619047)" blush:i="0.0" blush:value="Avatar and Backdrop 2" blush:viewBox="27.88499999999999 29.49295774647888 113.23 109.01408450704227"><g id="Avatars/Avatar and Backdrop 2" blush:viewBox="27.88499999999999 29.49295774647888 113.23 109.01408450704227" blush:i="0.0.0"><g id="Group 40" blush:i="0.0.0.0"><path id="Fill 38" fill-rule="evenodd" clip-rule="evenodd" d="M134.042 92.8788C126.59 85.5756 111.128 88.8875 99.5054 100.275C87.8852 111.666 84.5057 126.818 91.9579 134.121C99.4102 141.424 114.872 138.113 126.495 126.725C138.115 115.334 141.494 100.182 134.042 92.8788" fill="#CDEAFA" blush:i="0.0.0.0.0"/><path id="Fill 10" fill-rule="evenodd" clip-rule="evenodd" d="M136.795 44.0768C148.587 62.8313 134.729 93.2243 105.849 111.959C76.9674 130.695 43.9951 130.678 32.2046 111.923C20.4142 93.1687 34.269 62.7771 63.152 44.0411C92.0322 25.3066 125.005 25.3208 136.795 44.0768" fill="#DFECFB" blush:i="0.0.0.0.1"/></g></g></g><g id="Female Character/Head" blush:component="Female Character/Head" blush:defaultValue="Afro Bun 1" blush:width="213" blush:height="285.3396301269531" transform="translate(30 37) scale(4.018867924528302 4.018868029957086)" blush:i="0.1" blush:value="Afro Bun 1" blush:viewBox="9.98190348525469 -1.0650000000000048 30.549597855227873 40.47"><g id="Female Character/Head/Afro Bun 1" blush:viewBox="9.98190348525469 -1.0650000000000048 30.549597855227873 40.47" blush:i="0.1.0"><g id="Group 31" blush:i="0.1.0.0"><g id="Group 3" blush:i="0.1.0.0.0"><path id="Fill 1" fill-rule="evenodd" clip-rule="evenodd" d="M20.3114 32.0675C20.3114 32.0675 21.4454 34.3355 23.9254 35.8235C26.4064 37.3115 29.5244 39.5795 31.0824 39.0835C32.6424 38.5875 36.7734 35.4215 37.7654 31.8795C38.7574 28.3355 39.3744 22.4295 38.7364 19.5245C38.0984 16.6185 34.4844 10.5245 28.0364 10.5245C21.5864 10.5245 15.8464 17.3265 17.4064 24.8385C17.4064 24.8385 15.6134 27.0365 17.1474 29.3035C18.6814 31.5715 20.3114 32.0675 20.3114 32.0675" fill="#ffd4aa" blush:color="Skin-500" blush:i="0.1.0.0.0.0"/></g><path id="Fill 4" fill-rule="evenodd" clip-rule="evenodd" d="M24.159 27.3195C24.159 27.3195 27.006 27.3905 27.762 27.9395C27.762 27.9395 28.039 28.0375 27.932 27.6735C27.932 27.6735 28.341 27.9655 28.367 27.8065C28.393 27.6475 28.189 26.1055 26.586 25.8935C24.983 25.6805 23.778 27.1515 24.159 27.3195" fill="#20180F" blush:i="0.1.0.0.1"/><path id="Fill 6" fill-rule="evenodd" clip-rule="evenodd" d="M36.6317 26.9123C36.6317 26.9123 34.8247 26.8853 34.0937 27.4333C34.0937 27.4333 33.8247 27.5313 33.9287 27.1683C33.9287 27.1683 33.5337 27.4603 33.5077 27.3013C33.4827 27.1413 34.2177 25.6893 35.7697 25.4763C37.3207 25.2653 37.7307 26.6223 36.6317 26.9123" fill="#20180F" blush:i="0.1.0.0.2"/><path id="Fill 8" fill-rule="evenodd" clip-rule="evenodd" d="M31.9011 32.2629C31.9011 32.2629 31.6881 32.4399 31.9011 32.6169C32.1141 32.7939 33.5131 32.2979 33.8321 31.8369C34.1511 31.3759 33.9621 31.3239 33.5071 31.5889C33.0521 31.8549 31.9011 32.2629 31.9011 32.2629" fill="#20180F" blush:i="0.1.0.0.3"/><path id="Fill 10" fill-rule="evenodd" clip-rule="evenodd" d="M29.031 33.6974C29.031 33.6974 28.942 33.5384 29.704 33.5384C30.467 33.5384 30.395 33.6794 31.635 33.6974C32.876 33.7154 33.383 33.6974 32.899 34.0164C32.415 34.3354 32.45 34.3174 32.362 34.5654C32.273 34.8134 31.152 35.2574 30.268 34.9554C29.385 34.6544 28.483 33.8544 29.031 33.6974" fill="#EE4E2F" blush:i="0.1.0.0.4"/><path id="Fill 12" fill-rule="evenodd" clip-rule="evenodd" d="M23.7097 23.1388C23.8457 23.0968 23.6627 23.3738 24.2767 23.2688C24.8917 23.1618 26.5677 22.9728 28.0797 23.9178C28.0797 23.9178 28.3507 23.7048 28.3687 23.3038C28.3867 22.9278 25.8407 21.6408 23.6737 23.0678C23.5257 23.1648 23.5717 23.1808 23.7097 23.1388" fill="#20180F" blush:i="0.1.0.0.5"/><path id="Fill 14" fill-rule="evenodd" clip-rule="evenodd" d="M36.6316 23.2804C36.6316 23.2804 35.7346 22.3114 34.2226 22.7604C32.7096 23.2094 32.8516 23.8944 32.8996 24.0834C32.9456 24.2724 34.0326 23.3504 35.1666 23.3624C36.3006 23.3744 36.6316 23.6104 36.6316 23.2804" fill="#20180F" blush:i="0.1.0.0.6"/><path id="Fill 16" fill-rule="evenodd" clip-rule="evenodd" d="M24.3514 27.3195C24.3514 27.3195 27.1984 27.3905 27.9544 27.9395C27.9544 27.9395 28.2314 28.0375 28.1244 27.6735C28.1244 27.6735 28.5324 27.9655 28.5584 27.8065C28.5854 27.6475 28.3814 26.1055 26.7784 25.8935C25.1744 25.6805 23.9704 27.1515 24.3514 27.3195" fill="black" blush:i="0.1.0.0.7"/><path id="Fill 18" fill-rule="evenodd" clip-rule="evenodd" d="M36.8231 26.9123C36.8231 26.9123 35.0171 26.8853 34.2861 27.4333C34.2861 27.4333 34.0171 27.5313 34.1201 27.1683C34.1201 27.1683 33.7251 27.4603 33.7001 27.3013C33.6751 27.1413 34.4091 25.6893 35.9621 25.4763C37.5131 25.2653 37.9221 26.6223 36.8231 26.9123" fill="black" blush:i="0.1.0.0.8"/><path id="Fill 20" fill-rule="evenodd" clip-rule="evenodd" d="M32.0934 32.2629C32.0934 32.2629 31.8804 32.4399 32.0934 32.6169C32.3054 32.7939 33.7054 32.2979 34.0244 31.8369C34.3434 31.3759 34.1544 31.3239 33.6984 31.5889C33.2444 31.8549 32.0934 32.2629 32.0934 32.2629" fill="black" blush:i="0.1.0.0.9"/><path id="Fill 22" fill-rule="evenodd" clip-rule="evenodd" d="M29.2234 33.6974C29.2234 33.6974 29.1344 33.5384 29.8964 33.5384C30.6584 33.5384 30.5874 33.6794 31.8274 33.6974C33.0674 33.7154 33.5754 33.6974 33.0904 34.0164C32.6074 34.3354 32.6424 34.3174 32.5534 34.5654C32.4654 34.8134 31.3434 35.2574 30.4604 34.9554C29.5774 34.6544 28.6754 33.8544 29.2234 33.6974" fill="#EE4E2F" blush:i="0.1.0.0.10"/><path id="Fill 24" fill-rule="evenodd" clip-rule="evenodd" d="M23.9021 23.1388C24.0381 23.0968 23.8551 23.3738 24.4691 23.2688C25.0841 23.1618 26.7601 22.9728 28.2721 23.9178C28.2721 23.9178 28.5431 23.7048 28.5611 23.3038C28.5781 22.9278 26.0321 21.6408 23.8661 23.0678C23.7181 23.1648 23.7641 23.1808 23.9021 23.1388" fill="black" blush:i="0.1.0.0.11"/><path id="Fill 26" fill-rule="evenodd" clip-rule="evenodd" d="M36.8231 23.2804C36.8231 23.2804 35.9261 22.3114 34.4141 22.7604C32.9021 23.2094 33.0431 23.8944 33.0911 24.0834C33.1381 24.2724 34.2251 23.3504 35.3591 23.3624C36.4931 23.3744 36.8231 23.6104 36.8231 23.2804" fill="black" blush:i="0.1.0.0.12"/><g id="Group 30" blush:i="0.1.0.0.13"><path id="Fill 28" fill-rule="evenodd" clip-rule="evenodd" d="M38.5184 16.0636C37.9524 15.6216 39.6524 15.3286 38.9974 13.7436C38.5754 12.7236 36.7824 12.2926 36.2254 11.7326C35.8684 11.3736 36.8234 10.8836 35.8854 10.1196C35.2454 9.5966 33.3074 9.5406 32.2904 9.3556C30.2764 8.9896 29.6724 7.1406 27.2104 9.2296C27.0404 9.3746 26.7804 9.1986 26.8284 8.9796C26.8854 8.7096 26.9434 8.3636 26.9734 7.9536C26.9984 7.6196 27.9464 7.4406 28.1794 7.1006C28.7684 6.2456 27.5104 4.7106 27.2164 3.5426C26.9414 2.4456 24.6754 2.1256 24.3814 1.5896C21.8314 -3.0464 17.3454 -0.6574 16.0084 2.5266C15.7494 3.1406 14.5374 2.0446 12.6374 2.1526C11.0594 2.2416 8.33136 5.5766 11.3804 7.4216C11.3804 7.4216 9.92636 9.2666 10.4704 10.7396C10.7094 11.3856 12.7984 11.6596 13.1194 12.5846C13.4104 13.4256 15.0574 15.1746 16.1614 15.5046C16.2364 15.5276 16.2414 15.6306 16.1684 15.6616C15.2714 16.0436 12.3044 17.6226 14.1894 21.8406C14.5664 22.6856 13.4704 23.7766 14.0014 24.8386C14.4294 25.6936 15.1634 25.2426 15.6334 25.8726C15.9634 26.3136 15.3124 27.8536 15.7474 28.3126C16.3504 28.9496 17.0604 29.6016 17.8904 30.2686C17.8904 30.2686 15.7714 28.3376 16.9224 25.6456C17.5264 24.2356 19.0044 24.6226 19.5664 25.2836C20.2174 26.0486 20.9894 27.6296 21.3664 27.6296C21.7424 27.6296 20.7694 21.6976 25.0154 18.0746C26.3674 16.9206 28.5614 14.9036 33.2724 15.6966C38.4564 16.5686 38.9974 22.4116 38.9974 22.4116C38.9974 22.4116 40.1654 21.9336 40.2164 19.5456C40.2514 17.8756 39.8204 17.0836 38.5184 16.0636" fill="#110b05" blush:color="Hair-500" blush:i="0.1.0.0.13.0"/></g></g><path id="Fill 28" fill-rule="evenodd" clip-rule="evenodd" d="M18.5637 27.6623C18.5637 27.6623 18.3907 27.4623 18.3967 27.7823C18.4037 28.1023 18.3237 28.2763 18.2307 28.2493C18.1367 28.2233 17.6967 27.4553 18.3567 27.0953C19.0177 26.7353 19.3777 27.4493 19.8517 28.3363C20.3247 29.2233 20.1447 30.4833 19.6847 30.5303C19.2247 30.5773 19.3577 30.2573 19.4037 29.6173C19.4507 28.9763 18.8037 27.7953 18.5637 27.6623" fill="black" blush:i="0.1.0.1"/></g></g></g></svg>