<svg viewBox="10.574999999999989 21.150000000000006 71.67500000000001 52.87499999999999" fill="none" xmlns="http://www.w3.org/2000/svg" xmlns:xlink="http://www.w3.org/1999/xlink" xmlns:blush="http://design.blush" overflow="visible" width="71.67500000000001px" height="52.87499999999999px"><g id="Master/New Stickers/Letter" blush:has-customizable-colors="true" blush:viewBox="10.809999999999988 21.150000000000006 71.44000000000001 52.169999999999995" blush:i="0"><path id="Rectangle 1" d="M11.0958 29.8692L79.3982 21.277L82.2457 66.7862L15.4914 73.0131L11.0958 29.8692Z" fill="#FFF6ED" blush:i="0.0"/><g id="Group 272" blush:i="0.1"><path id="Rectangle 3" d="M74.4496 59.8356C74.4424 59.7484 74.5018 59.6697 74.5877 59.6527L77.2079 59.134C77.3098 59.1139 77.4063 59.188 77.413 59.2917L77.6721 63.3025C77.678 63.3933 77.6122 63.4729 77.5219 63.4843L74.9571 63.807C74.8599 63.8192 74.7722 63.748 74.7641 63.6505L74.4496 59.8356Z" fill="#EABD91" blush:i="0.1.0"/></g><path id="Vector 3 (Stroke)" fill-rule="evenodd" clip-rule="evenodd" d="M79.8881 21.9446C80.0656 22.1676 80.0288 22.4923 79.8058 22.6698L46.6458 49.0677L11.8588 31.2405C11.6051 31.1105 11.5049 30.7995 11.6348 30.5458C11.7648 30.2922 12.0758 30.1919 12.3295 30.3219L46.5239 47.8455L79.1629 21.8623C79.3859 21.6848 79.7106 21.7216 79.8881 21.9446Z" fill="#EABD91" blush:i="0.2"/><path id="Vector 4 (Stroke)" fill-rule="evenodd" clip-rule="evenodd" d="M78.2453 60.3859C78.2678 60.4535 78.2313 60.5266 78.1637 60.5491C78.0516 60.5865 77.9362 60.6412 77.8131 60.7035C77.7837 60.7184 77.7537 60.7337 77.7232 60.7494C77.6291 60.7976 77.5308 60.8481 77.4323 60.8924C77.1711 61.0101 76.8761 61.1012 76.5611 61.0164C76.5509 61.0137 76.5409 61.011 76.531 61.0083C76.3633 60.963 76.2458 60.9313 76.1321 60.93C76.0211 60.9287 75.9082 60.9571 75.7597 61.0561C75.7071 61.0912 75.6548 61.1278 75.6026 61.1644C75.4586 61.2652 75.3154 61.3656 75.1675 61.4318C74.9517 61.5284 74.7164 61.56 74.4132 61.4713C74.2672 61.4286 74.1532 61.3814 74.0588 61.3418L74.0523 61.3391C73.9587 61.2998 73.8926 61.272 73.8278 61.2569C73.7138 61.2302 73.5879 61.2384 73.3174 61.393C73.2555 61.4284 73.1767 61.4069 73.1413 61.345C73.106 61.2832 73.1275 61.2043 73.1894 61.169C73.4887 60.9979 73.6836 60.9582 73.8865 61.0056C73.9731 61.0259 74.0578 61.0615 74.1426 61.0971C74.148 61.0994 74.1533 61.1016 74.1586 61.1038C74.2514 61.1428 74.3543 61.1852 74.4856 61.2236C74.7288 61.2948 74.901 61.2684 75.0621 61.1963C75.186 61.1408 75.299 61.0617 75.4343 60.9669C75.4904 60.9275 75.5504 60.8856 75.6166 60.8414C75.802 60.7178 75.9651 60.67 76.1352 60.672C76.2831 60.6737 76.4318 60.714 76.5877 60.7563C76.6011 60.7599 76.6146 60.7636 76.6282 60.7672C76.8548 60.8283 77.0806 60.7679 77.3263 60.6572C77.4183 60.6157 77.5083 60.5696 77.601 60.5221C77.6325 60.5059 77.6644 60.4896 77.6967 60.4732C77.8212 60.4102 77.9509 60.3481 78.0821 60.3043C78.1497 60.2818 78.2228 60.3183 78.2453 60.3859Z" fill="#101010" blush:i="0.3"/><path id="Vector 5 (Stroke)" fill-rule="evenodd" clip-rule="evenodd" d="M78.5939 62.4653C78.6004 62.5362 78.5481 62.599 78.4771 62.6054C78.3342 62.6184 78.1958 62.6257 78.0631 62.6326C78.0551 62.6331 78.0472 62.6335 78.0392 62.6339C77.8984 62.6413 77.7641 62.6487 77.6318 62.6626C77.3687 62.6902 77.118 62.7429 76.8608 62.8682C76.8244 62.8859 76.7878 62.9041 76.7509 62.9224C76.4373 63.0778 76.1034 63.2433 75.7058 63.2514C75.4473 63.2567 75.2586 63.1582 75.0826 63.0663C75.0396 63.0438 74.9974 63.0218 74.955 63.0017C74.6319 62.8486 74.3869 62.9802 74.03 63.1718C74.0196 63.1774 74.0092 63.183 73.9986 63.1887C73.9358 63.2223 73.8576 63.1987 73.8239 63.1359C73.7903 63.0731 73.8139 62.9949 73.8767 62.9613C73.8958 62.951 73.9149 62.9407 73.9342 62.9302C74.2641 62.7518 74.6217 62.5583 75.0655 62.7685C75.1255 62.797 75.1786 62.8244 75.2276 62.8496C75.3942 62.9356 75.5136 62.9973 75.7006 62.9934C76.0371 62.9866 76.3181 62.848 76.6384 62.69C76.6744 62.6722 76.7108 62.6543 76.7478 62.6362C77.041 62.4934 77.3237 62.4355 77.6049 62.406C77.7447 62.3913 77.8854 62.3836 78.0257 62.3762C78.0333 62.3758 78.0409 62.3754 78.0485 62.375C78.1821 62.368 78.3159 62.361 78.4538 62.3485C78.5247 62.342 78.5875 62.3943 78.5939 62.4653Z" fill="#101010" blush:i="0.4"/></g></svg>