<svg viewBox="18.799999999999997 0 57.574999999999996 93.99999999999999" fill="none" xmlns="http://www.w3.org/2000/svg" xmlns:xlink="http://www.w3.org/1999/xlink" xmlns:blush="http://design.blush" overflow="visible" width="57.574999999999996px" height="93.99999999999999px"><g id="Master/New Stickers/Office Supplies" clip-path="url(#clip0_509_5756921e1466a-7b7a-479a-aef5-42610bd0559c)" blush:has-customizable-colors="true" blush:viewBox="18.799999999999997 0 56.87 93.52999999999997" blush:i="0"><g id="Group 305" blush:i="0.0"><g id="Group 303" blush:i="0.0.0"><path id="Union" d="M23.1536 14.9519C22.643 14.1314 21.9712 14.3109 21.9264 15.2799L21.3458 27.8397C21.3309 28.1608 21.3884 28.4912 21.4919 28.7864L21.4825 28.7888L37.872 92.364C38.2434 93.8045 39.2984 94.7778 40.2285 94.538L45.6596 93.1379C46.5897 92.8981 47.0426 91.536 46.6712 90.0955L30.3295 26.7055C30.3287 26.7027 30.328 26.6998 30.3273 26.697L30.2817 26.5204L30.2754 26.522C30.2164 26.3455 30.138 26.1733 30.0398 26.0155L23.1536 14.9519Z" fill="#FC9B98" blush:i="0.0.0.0"/><path id="Intersect" d="M25.1411 18.1449L21.7478 19.0196L21.335 27.8424C21.3275 28.0052 21.3386 28.1704 21.3648 28.3323L30.0706 26.0879C30.0571 26.0644 30.0433 26.0411 30.029 26.0182L25.1411 18.1449Z" fill="#F4D3CA" blush:i="0.0.0.1"/></g><g id="Group 304" blush:i="0.0.1"><g id="Group 302" blush:i="0.0.1.0"><path id="Ellipse 13" d="M46.1717 60.1743C46.1717 77.1932 44.219 90.9897 41.8103 90.9897C39.4015 90.9897 37.4489 77.1932 37.4489 60.1743C37.4489 43.1554 41.8103 23.0051 41.8103 23.0051C41.8103 23.0051 46.1717 43.1554 46.1717 60.1743Z" fill="#5D74E0" blush:i="0.0.1.0.0"/><path id="Ellipse 12" d="M47.703 18.5655C47.703 24.0329 45.0646 28.4651 41.8101 28.4651C38.5555 28.4651 35.9172 24.0329 35.9172 18.5655C35.9172 13.0982 41.8101 6.62482 41.8101 6.62482C41.8101 6.62482 47.703 13.0982 47.703 18.5655Z" fill="#A96D18" blush:i="0.0.1.0.1"/><path id="Vector 29 (Stroke)" fill-rule="evenodd" clip-rule="evenodd" d="M41.2454 9.84867C41.3404 9.90485 41.3718 10.0274 41.3156 10.1223C40.15 12.0925 39.1555 15.0377 38.8111 18.1395C38.4666 21.2425 38.7754 24.4758 40.1866 27.0369C40.2399 27.1335 40.2047 27.255 40.1081 27.3082C40.0115 27.3615 39.89 27.3263 39.8367 27.2297C38.3714 24.5704 38.0644 21.2449 38.414 18.0954C38.7638 14.9448 39.7737 11.9439 40.9718 9.91887C41.0279 9.82392 41.1505 9.79249 41.2454 9.84867ZM42.5232 12.3913C42.6297 12.3626 42.7393 12.4256 42.7681 12.5321C44.5809 19.2462 43.2396 24.3328 40.7439 28.0764C40.6827 28.1682 40.5586 28.193 40.4668 28.1318C40.3751 28.0706 40.3502 27.9466 40.4114 27.8548C42.8431 24.2073 44.1652 19.2394 42.3824 12.6362C42.3536 12.5297 42.4167 12.4201 42.5232 12.3913ZM45.8509 15.6212C45.9572 15.5916 46.0674 15.6537 46.097 15.76C47.6529 21.3411 45.1168 25.9774 42.7078 28.115C42.6253 28.1882 42.499 28.1807 42.4258 28.0982C42.3526 28.0157 42.3601 27.8894 42.4427 27.8162C44.7613 25.7588 47.2192 21.2729 45.7121 15.8672C45.6825 15.761 45.7446 15.6508 45.8509 15.6212Z" fill="#6F3C00" blush:i="0.0.1.0.2"/><g id="Group 301" blush:i="0.0.1.0.3"><path id="Rectangle 42" d="M37.9816 34.1405C37.9816 33.3399 38.6306 32.691 39.4311 32.691H44.1335C44.9341 32.691 45.583 33.3399 45.583 34.1405V34.1405C45.583 34.941 44.9341 35.59 44.1335 35.59H39.4311C38.6306 35.59 37.9816 34.941 37.9816 34.1405V34.1405Z" fill="#C4C4C4" blush:i="0.0.1.0.3.0"/><path id="Rectangle 44" d="M38.1046 31.4025C38.1046 30.5723 38.7776 29.8993 39.6077 29.8993H44.2028C45.033 29.8993 45.706 30.5723 45.706 31.4025V31.4025C45.706 32.2327 45.033 32.9057 44.2028 32.9057H39.6077C38.7776 32.9057 38.1046 32.2327 38.1046 31.4025V31.4025Z" fill="#C4C4C4" blush:i="0.0.1.0.3.1"/><path id="Rectangle 43" d="M38.1046 28.4498C38.1046 27.6493 38.7535 27.0003 39.5541 27.0003H44.2565C45.057 27.0003 45.706 27.6493 45.706 28.4498V28.4498C45.706 29.2504 45.057 29.8993 44.2565 29.8993H39.5541C38.7535 29.8993 38.1046 29.2504 38.1046 28.4498V28.4498Z" fill="#C4C4C4" blush:i="0.0.1.0.3.2"/><path id="Vector 27 (Stroke)" fill-rule="evenodd" clip-rule="evenodd" d="M39.5133 29.9636C39.5133 29.8532 39.6027 29.7638 39.7131 29.7638H43.908C44.0183 29.7638 44.1078 29.8532 44.1078 29.9636C44.1078 30.0739 44.0183 30.1633 43.908 30.1633H39.7131C39.6027 30.1633 39.5133 30.0739 39.5133 29.9636Z" fill="#A1A1A1" blush:i="0.0.1.0.3.3"/><path id="Vector 28 (Stroke)" fill-rule="evenodd" clip-rule="evenodd" d="M39.5133 32.9265C39.5133 32.8162 39.6027 32.7267 39.7131 32.7267H43.908C44.0183 32.7267 44.1078 32.8162 44.1078 32.9265C44.1078 33.0368 44.0183 33.1262 43.908 33.1262H39.7131C39.6027 33.1262 39.5133 33.0368 39.5133 32.9265Z" fill="#A1A1A1" blush:i="0.0.1.0.3.4"/></g></g></g><path id="Subtract" fill-rule="evenodd" clip-rule="evenodd" d="M75.2691 1.68147L59.6535 -1.43196L41.8425 87.8998L57.4581 91.0133L75.2691 1.68147ZM62.4848 6.69083C63.5702 6.90724 64.6256 6.20275 64.842 5.11728C65.0584 4.03182 64.3539 2.97643 63.2685 2.76001C62.183 2.54359 61.1276 3.24809 60.9112 4.33356C60.6948 5.41902 61.3993 6.47441 62.4848 6.69083Z" fill="#DAEDEB" blush:i="0.0.2"/><path id="Rectangle 46" d="M18.9397 47.116C18.7292 45.8951 19.6694 44.779 20.9083 44.779H72.8024C74.0725 44.779 75.0201 45.9488 74.7565 47.1912L64.9504 93.4021C64.7546 94.325 63.9398 94.985 62.9964 94.985H28.8757C27.9034 94.985 27.0723 94.285 26.9071 93.3269L18.9397 47.116Z" fill="#FFF6ED" blush:i="0.0.3"/></g></g><defs><clipPath id="clip0_509_5756921e1466a-7b7a-479a-aef5-42610bd0559c"><rect width="92.8927" height="92.8927" fill="white" transform="translate(0.267029 0.2883)"/></clipPath></defs></svg>