<svg viewBox="83.36250000000001 9.586705202312146 80.27499999999993 194.8265895953757" fill="none" xmlns="http://www.w3.org/2000/svg" xmlns:xlink="http://www.w3.org/1999/xlink" xmlns:blush="http://design.blush" overflow="visible" width="80.27499999999993px" height="194.8265895953757px"><g id="Master/Stickers/Evergreen" blush:has-customizable-colors="true" blush:viewBox="83.98000000000002 10.008083140877602 79.03999999999994 193.98383371824485" blush:i="0"><g id="Group 44 Copy" blush:i="0.0"><path id="Fill 1902" fill-rule="evenodd" clip-rule="evenodd" d="M134.849 94.1125C133.331 94.3115 131.654 94.3095 129.981 94.3795C129.036 94.4195 128.077 94.3925 127.13 94.4325C125.981 94.4825 124.835 94.5005 123.694 94.4015C122.333 94.2845 120.944 94.4505 119.618 93.9945C119.548 93.9705 119.469 93.9615 119.397 93.9665C117.737 94.0655 116.151 93.6315 114.554 93.2875C113.565 93.0745 112.539 93.1115 111.565 92.8105C110.741 92.5555 109.87 92.4155 109.085 92.0735C107.208 91.2535 105.514 90.1705 104.464 88.3155C104.391 88.1875 104.418 88.0545 104.401 87.9245C104.332 87.4265 104.364 86.9265 104.352 86.4335C104.312 84.8225 104.326 83.2115 104.299 81.5995C104.27 79.8625 104.152 78.1245 104.186 76.3885C104.201 75.6045 104.15 74.8205 104.201 74.0345C104.246 73.3385 104.047 72.6445 104.162 71.9295C104.191 71.7555 103.877 71.4735 103.819 71.1835C103.789 71.0435 103.782 70.8495 103.847 70.8075C104.362 70.4835 103.965 70.0125 104.059 69.6275C104.062 69.6175 104.036 69.6015 104.037 69.5905C104.126 68.9085 103.769 68.2615 103.869 67.5845C103.908 67.3195 104.044 67.0915 104.085 66.7995C104.22 65.8185 103.974 64.8535 104.076 63.8995C104.139 63.3025 104.043 62.7195 104.066 62.1325C104.091 61.4815 104.092 60.7775 103.833 60.1195C103.673 59.7135 103.823 59.2705 103.954 58.8675C103.999 58.7305 104.038 58.6225 103.985 58.4935C103.812 58.0805 104.175 57.5775 103.765 57.2055C104.049 56.9895 103.857 56.7105 103.881 56.4565C103.899 56.2815 103.87 56.1895 103.746 56.0835C103.621 55.9735 103.614 55.8175 103.685 55.6725C103.775 55.4875 103.893 55.3215 103.634 55.1605C103.546 55.1045 103.637 54.9985 103.696 54.9315C103.955 54.6375 104.16 54.2535 104.661 54.3635C104.774 54.3875 104.848 54.2905 104.938 54.2415C105.301 54.0415 105.657 53.8065 106.11 53.9115C106.173 53.9255 106.285 53.9085 106.317 53.8645C106.575 53.5095 106.918 53.6105 107.248 53.6885C107.373 53.7175 107.485 53.7455 107.585 53.6615C108.367 53.0125 109.336 53.0555 110.257 52.9495C111.522 52.8015 112.791 52.7015 114.06 52.5895C114.549 52.5455 115.04 52.5105 115.531 52.4945C117.358 52.4315 119.182 52.3315 121.01 52.2825C122.189 52.2505 123.37 52.2025 124.547 52.2365C126.27 52.2885 127.996 52.2325 129.714 52.3335C131.826 52.4565 133.944 52.4955 136.049 52.6905C137.853 52.8575 139.661 52.9785 141.457 53.2705C143.115 53.5395 144.767 53.8045 146.414 54.1405C147.373 54.3365 148.28 54.6935 149.239 54.8595C149.707 54.9395 150.019 55.3365 150.385 55.5915C150.638 55.7665 150.41 56.2305 150.35 56.5515C150.161 57.5725 150.019 58.5855 150.086 59.6335C150.134 60.3815 150.016 61.1365 150.016 61.8885C150.017 62.5355 149.822 63.1725 150 63.8325C150.132 64.3195 150.002 64.8185 149.908 65.3215C149.774 66.0235 149.686 66.7565 149.806 67.4665C149.863 67.8005 149.653 68.0325 149.662 68.3565C149.682 69.0625 149.745 69.7855 149.598 70.4905C149.493 70.9915 149.658 71.4815 149.599 71.9965C149.462 73.1925 149.405 74.4045 149.424 75.6075C149.436 76.3245 149.277 77.0345 149.345 77.7285C149.407 78.3595 149.301 78.9715 149.307 79.5915C149.314 80.2805 149.236 80.9825 149.175 81.6755C149.149 81.9825 149.147 82.2915 149.133 82.5955C149.074 83.8925 149.053 85.1915 149.027 86.4895C149.017 86.9905 148.873 87.4515 148.657 87.8945C148.584 88.0425 148.521 88.1885 148.48 88.3505C148.425 88.5645 148.376 88.7595 148.159 88.9375C148.002 89.0645 147.899 89.3835 147.802 89.6155C147.635 90.0145 147.37 90.3015 147.031 90.4975C146.79 90.6355 146.599 90.8045 146.404 90.9855C145.309 92.0045 144.005 92.6025 142.55 92.8895C141.446 93.1085 140.342 93.3395 139.231 93.5245C138.192 93.6975 137.144 93.8255 136.098 93.9585C135.729 94.0055 135.383 94.1895 134.849 94.1125" fill="#FECDC7" blush:i="0.0.0"/><path id="Fill 1904" fill-rule="evenodd" clip-rule="evenodd" d="M121.763 55.6194C124.989 55.6084 127.736 55.5464 130.483 55.6864C132.33 55.7804 134.178 55.8814 136.008 56.1444C137.671 56.3834 139.33 56.6524 140.977 57.0064C141.784 57.1794 142.614 57.2824 143.422 57.4784C143.541 57.5074 143.743 57.4654 143.72 57.6584C143.701 57.8074 143.521 57.8104 143.386 57.8234C142.154 57.9364 140.924 58.0974 139.689 58.1544C137.304 58.2654 134.919 58.4124 132.531 58.4644C130.234 58.5154 127.94 58.5144 125.642 58.4794C124.138 58.4574 122.63 58.4384 121.13 58.3734C119.45 58.3014 117.765 58.2284 116.088 58.0654C114.635 57.9254 113.183 57.7694 111.731 57.6124C111.331 57.5694 110.934 57.5024 110.535 57.4414C110.468 57.4314 110.37 57.4444 110.358 57.3464C110.346 57.2494 110.443 57.2374 110.503 57.2044C111.056 56.9074 111.684 56.8864 112.277 56.7544C114.126 56.3444 116.004 56.0984 117.888 55.8904C119.336 55.7324 120.783 55.5934 121.763 55.6194" fill="#614135" blush:i="0.0.1"/><path id="Fill 1906" fill-rule="evenodd" clip-rule="evenodd" d="M105.064 172.345C105.143 202.675 102.984 207.816 103.269 173.307C103.307 162.135 102.053 29.53 104.577 85.815C104.983 89.486 102.885 94.872 108.359 93.514C113.146 93.787 117.747 93.534 122.264 93.863C124.653 93.382 126.645 94.583 125.912 90.757C126.959 85.484 124.489 76.755 127.129 73.011C129.193 79.543 126.013 87.699 128.1 93.741C145.553 92.407 150.747 100.802 149.379 78.45C151.953 36.637 150.416 180.17 149.976 188.182C150.159 188.205 150.279 188.086 150.412 187.981C150.574 207.384 147.867 195.269 148.847 185.322C148.494 158.516 148.713 130.222 148.877 102.842C149.583 96.635 138.689 100.892 134.483 99.698C133.135 99.508 131.125 99.462 130.128 99.743C129.065 99.55 127.367 98.866 127.422 100.468C127.357 133.991 127.252 167.748 127.074 201.088C123.65 212.283 125.412 184.087 125.265 181.168C125.233 163.325 125.144 122.419 125.467 119.04C125.712 116.473 125.983 105.258 124.15 100.309C124.15 100.309 121.665 99.254 120.091 99.357C117.842 100.596 104.352 97.51 104.829 100.7C104.828 124.629 104.955 148.358 105.064 172.345" fill="#5C3E31" blush:i="0.0.2"/><path id="Fill 1908" fill-rule="evenodd" clip-rule="evenodd" d="M143.351 41.3909C141.751 41.2379 140.097 40.6849 138.473 40.6999C139.806 38.2999 140.448 35.2879 142.198 33.0559C143.271 32.5849 153.202 30.5659 150.992 32.7769C146.921 33.7189 143.711 37.2109 143.351 41.3909" fill="#5F8048" blush:i="0.0.3"/><path id="Fill 1910" fill-rule="evenodd" clip-rule="evenodd" d="M162.405 47.0532C162.191 46.5342 162.221 45.3992 161.507 45.3882C158.937 37.2302 136.589 39.8892 150.036 47.0422C151.569 50.0542 153.47 46.3082 155.766 46.1732C158.695 45.7382 161.872 46.0842 160.182 49.5852C161.16 49.7592 162.614 48.1612 162.405 47.0532V47.0532Z" fill="#5F8048" blush:i="0.0.4"/><path id="Fill 1912" fill-rule="evenodd" clip-rule="evenodd" d="M160.085 43.762C160.085 43.763 160.085 43.763 160.085 43.762C160.085 43.763 160.084 43.764 160.085 43.762" fill="#5F8048" blush:i="0.0.5"/><path id="Fill 1914" fill-rule="evenodd" clip-rule="evenodd" d="M111.269 12.0207C111.163 11.9567 111.165 11.8927 111.271 11.8307C111.356 11.8947 111.355 11.9577 111.269 12.0207" fill="#FEC3BC" blush:i="0.0.6"/><path id="Fill 1916" fill-rule="evenodd" clip-rule="evenodd" d="M123.839 36.9924C123.865 37.0254 123.891 37.0584 123.917 37.0924C128.24 48.0114 124.031 39.4484 137.041 30.9654L137.063 30.9904C134.579 32.5454 130.715 49.2764 130.037 45.8894L130.04 45.8924C129.763 45.3994 129.497 46.2864 129.309 45.6884C128.988 45.5094 129.344 46.3164 128.876 45.8814C128.814 45.8424 128.79 45.6944 128.685 45.8264C128.551 46.0074 128.781 46.1384 128.893 46.2504C129.205 46.9214 127.626 45.9894 128.42 45.8924L128.422 45.8894C128.374 45.4304 128.032 45.8574 127.88 45.7104L127.883 45.7134C127.842 45.1714 126.87 45.5974 126.47 45.4754C126.008 45.4514 126.527 45.7944 126.348 45.9064C125.62 45.8774 125.298 45.3174 124.8 44.9294C124.504 44.8044 124.256 44.5084 123.864 44.7874C123.749 44.8694 123.488 44.8584 123.27 44.6654C123.004 44.3654 122.338 45.2104 122.761 45.3084C122.894 45.4914 123.39 45.4344 123.192 45.7974C122.656 45.9374 122.027 45.2234 121.421 45.3254C121.247 45.3334 121.128 45.1924 121.14 44.9914C119.728 42.4724 120.218 39.0884 119.63 36.2854C119.525 33.2184 116.595 27.1054 121.204 33.2324C121.254 33.2464 121.29 33.2764 121.315 33.3204L121.308 33.3224C121.422 33.3764 121.432 33.4984 121.486 33.5914H121.488C122.235 34.7054 123.074 35.8884 123.839 36.9924" fill="#5F8048" blush:i="0.0.7"/><path id="Fill 1918" fill-rule="evenodd" clip-rule="evenodd" d="M113.679 45.2668C113.402 44.9108 113.838 44.6028 113.749 44.2588C114.392 43.8558 114.66 43.1998 115.473 43.8488C115.782 44.6028 119.463 44.6238 117.995 45.7048C117.158 45.7608 116.525 47.0938 115.759 46.4998C115.333 45.7088 114.41 45.7818 113.679 45.2668" fill="#526E3F" blush:i="0.0.8"/><path id="Fill 1920" fill-rule="evenodd" clip-rule="evenodd" d="M113.503 49.4866C112.978 49.6526 113.028 49.1026 112.796 48.9066C112.292 48.4596 111.906 48.6356 112.157 47.7816C114.982 47.5546 115.976 46.9396 113.503 49.4866" fill="#526E3F" blush:i="0.0.9"/><path id="Fill 1922" fill-rule="evenodd" clip-rule="evenodd" d="M108.132 29.3567C108.055 29.2867 108.054 29.2197 108.153 29.1957C108.295 29.1977 108.264 29.3347 108.132 29.3567" fill="#FEDAD4" blush:i="0.0.10"/><path id="Fill 1924" fill-rule="evenodd" clip-rule="evenodd" d="M109.525 28.0452C109.6 28.0622 109.61 28.0882 109.566 28.1512C109.491 28.1342 109.48 28.1082 109.525 28.0452" fill="#FEDAD4" blush:i="0.0.11"/><path id="Fill 1926" fill-rule="evenodd" clip-rule="evenodd" d="M107.391 28.2805C107.404 28.2925 107.416 28.3035 107.428 28.3155C107.404 28.3165 107.398 28.2995 107.392 28.2785L107.391 28.2805Z" fill="#FEFEFE" blush:i="0.0.12"/><path id="Fill 1928" fill-rule="evenodd" clip-rule="evenodd" d="M121.487 33.5911C121.339 33.5611 121.314 33.4481 121.308 33.3221C121.554 33.2881 121.625 33.3711 121.487 33.5911" fill="#FAAAA1" blush:i="0.0.13"/><path id="Fill 1930" fill-rule="evenodd" clip-rule="evenodd" d="M120.92 28.1633C120.959 28.2173 120.96 28.2533 120.914 28.3013C120.875 28.2503 120.876 28.2133 120.92 28.1633" fill="#FAAAA1" blush:i="0.0.14"/><path id="Fill 1932" fill-rule="evenodd" clip-rule="evenodd" d="M121.316 33.3206C121.279 33.2916 121.243 33.2616 121.206 33.2326C121.243 33.2616 121.279 33.2916 121.316 33.3206" fill="#FAAAA1" blush:i="0.0.15"/><path id="Fill 1934" fill-rule="evenodd" clip-rule="evenodd" d="M110.839 54.8749C110.827 54.8059 110.854 54.7469 110.897 54.6979C110.858 54.7299 110.856 54.8169 110.839 54.8749V54.8749ZM109.901 59.6759C109.932 59.6689 109.945 59.7679 109.965 59.8139C109.892 59.7789 109.805 59.7039 109.901 59.6759V59.6759ZM111.885 63.2319C110.117 61.2689 113.141 49.3579 110.748 51.0249C111.835 51.9749 109.458 51.3789 108.865 52.3559C108.084 51.9279 107.834 53.2659 107.163 53.4739C105.935 53.1879 107.049 54.0649 106.576 54.3089C105.326 53.9729 105.827 55.4179 105.462 55.2429C103.757 55.2579 104.656 58.1179 103.115 58.3279C102.447 58.9199 103.44 58.5349 103.653 58.6259C102.767 59.1879 103.896 59.6089 103.725 60.2939C100.174 60.6589 105.499 85.4199 107.909 70.4229C108.607 67.7859 111.778 65.5969 111.885 63.2319V63.2319Z" fill="#526E3F" blush:i="0.0.16"/><path id="Fill 1936" fill-rule="evenodd" clip-rule="evenodd" d="M115.251 21.9827C115.466 21.9027 114.92 21.6847 115.283 21.6577C115.524 21.6027 115.593 22.2877 115.315 22.2117C115.193 22.1777 115.137 22.1097 115.251 21.9827" fill="#FAAAA1" blush:i="0.0.17"/><path id="Fill 1938" fill-rule="evenodd" clip-rule="evenodd" d="M115.482 29.2649C115.359 29.2089 115.269 29.1189 115.212 28.9969C115.409 28.9789 115.499 29.0689 115.482 29.2649" fill="#FEC3BC" blush:i="0.0.18"/><path id="Fill 1940" fill-rule="evenodd" clip-rule="evenodd" d="M116.109 29.8079C115.994 29.8029 115.933 29.7439 115.929 29.6269C116.047 29.6299 116.107 29.6899 116.109 29.8079" fill="#FEC3BC" blush:i="0.0.19"/><path id="Fill 1942" fill-rule="evenodd" clip-rule="evenodd" d="M117.274 28.6038C117.273 28.9188 117.047 28.6678 116.996 28.5088C116.984 28.2848 117.345 28.3958 117.274 28.6038" fill="#FEBAB1" blush:i="0.0.20"/><path id="Fill 1944" fill-rule="evenodd" clip-rule="evenodd" d="M116.866 29.0325C116.858 29.0085 116.854 28.9955 116.851 28.9825C116.862 28.9795 116.873 28.9755 116.885 28.9725C116.88 28.9895 116.874 29.0065 116.866 29.0325" fill="#FEBAB1" blush:i="0.0.21"/><path id="Fill 1946" fill-rule="evenodd" clip-rule="evenodd" d="M119.941 44.7249C119.799 44.6999 119.67 44.6799 119.564 44.6729C119.672 44.6219 119.803 44.6269 119.941 44.7249M119.344 44.9499C119.384 44.9879 119.445 45.0359 119.507 45.0829C119.473 45.1759 119.431 45.2519 119.316 45.2079C119.306 45.1149 119.32 45.0289 119.344 44.9499M145.638 30.0079C141.606 31.1769 137.442 34.3069 134.459 38.2649C134.818 37.7309 135.187 37.2039 135.602 36.7269C137.552 30.1239 142.16 24.0059 148.537 21.2289C139.161 21.3719 129.986 29.0639 125.045 36.8009C124.469 37.5369 124.876 35.8049 124.793 35.4599C124.238 35.6829 124.648 36.7299 123.914 37.0419C127.795 48.8289 124.895 38.5379 137.497 30.7089C134.804 33.1259 133.359 37.3509 132.64 40.8599C132.84 40.6199 133.028 40.3559 133.214 40.0929C132.028 42.0009 131.117 44.0419 130.629 46.1189C130.034 46.5749 130.227 46.2439 130.071 45.8779C130.24 45.8459 130.1 45.6999 130.057 45.8469C130.034 45.7969 130.004 45.7469 129.962 45.6989C129.558 45.7699 128.298 45.4379 128.655 46.1669C128.518 46.3839 128.5 46.1519 128.443 45.9119C128.449 45.9169 128.455 45.9229 128.461 45.9279C128.455 45.9209 128.448 45.9149 128.442 45.9089C128.379 45.6469 128.269 45.3789 127.904 45.6799C128.011 45.0609 126.26 45.2999 126.141 45.7019C125.483 44.8769 121.486 43.5789 123.045 45.6679C122.758 45.5149 121.619 45.1299 120.657 44.8839C120.82 44.8979 120.979 44.9889 121.141 44.9919C121.139 44.9039 121.138 44.8149 121.136 44.7269C121.142 44.4839 120.978 44.4499 120.79 44.4439C120.525 42.8329 120.224 41.2659 120.169 39.5999C120.034 36.1009 118.362 32.6359 116.293 29.8969C115.867 29.7209 115.563 29.3019 115.212 28.9969C115.115 28.7949 114.837 28.7739 114.762 28.5479C114.287 28.0599 108.276 24.1669 110.275 26.1899C110.669 25.9969 110.754 26.6539 110.329 26.5749C109.809 26.6279 110.603 26.9039 110.161 27.1269C109.941 27.3919 110.392 27.2829 110.488 27.3739C110.471 27.5439 110.086 27.4139 110.23 27.6689C110.357 27.9529 110.978 27.4299 110.835 27.8949C110.42 29.4339 109.776 27.9859 109.552 28.4629C109.522 28.7889 110.088 28.7979 109.899 29.1889C109.854 29.3989 109.739 29.1139 109.68 29.1949C109.498 29.4459 108.9 29.1139 108.958 29.7229C108.97 29.8539 108.759 29.7859 108.651 29.8059C106.803 28.0049 110.157 38.5189 111.8 40.8669C111.816 41.1419 111.671 41.5749 112.244 41.3099V41.3089H112.245C112.977 42.0869 113.77 42.8679 114.672 43.4999C114.671 43.5189 114.67 43.5379 114.669 43.5569C114.795 43.6909 114.965 43.7449 115.128 43.8139C115.212 43.8229 115.296 43.8299 115.381 43.8389C115.708 44.9339 118.641 44.2589 117.997 45.7049C117.993 45.7629 118.013 45.7989 118.023 45.8449C112.826 46.8989 103.843 38.2919 99.4968 52.6989C99.0938 53.3239 99.6008 53.7759 100.09 53.9359C99.8208 54.0879 100.112 54.3639 100.187 53.9609C100.639 54.0739 101.024 53.9269 100.578 53.4129C101.077 53.0399 101.337 54.1149 101.757 54.0009C103.477 52.0799 108.285 48.6949 112.18 47.8939C114.144 47.3459 114.308 47.7529 113.812 48.9709C113.562 49.0199 113.431 49.1669 113.504 49.4859C113.544 49.4799 113.571 49.4619 113.604 49.4509C112.929 50.9419 111.676 53.3179 111.182 56.4109C111.179 56.4119 111.178 56.4099 111.175 56.4109C111.177 56.4139 111.178 56.4169 111.18 56.4199C110.902 58.1659 110.871 60.1399 111.321 62.3109C111.263 62.3129 111.217 62.3189 111.237 62.3709C111.266 62.4519 111.309 62.5669 111.391 62.6379C111.715 64.0589 112.245 65.5609 113.054 67.1389C111.444 64.2759 117.141 60.1529 115.043 61.1159C125.488 44.9099 127.648 61.5229 133.492 51.6439C134.279 40.8999 141.447 51.2299 145.869 54.2769C152.242 55.2099 152.401 55.5609 156.149 59.1029C153.697 33.8109 130.022 48.2939 145.638 30.0079" fill="#7CA162" blush:i="0.0.22"/><path id="Fill 1948" fill-rule="evenodd" clip-rule="evenodd" d="M101 45.5383C101.175 44.8503 101.198 44.2833 100.453 44.9143C100.607 45.1463 100.717 45.4183 101 45.5383" fill="#7CA162" blush:i="0.0.23"/><path id="Fill 1950" fill-rule="evenodd" clip-rule="evenodd" d="M125.006 33.1311C124.975 33.1301 124.943 33.1291 124.911 33.1281C124.725 33.3911 124.873 33.7381 124.839 34.0401C125.17 33.7871 124.932 33.4311 125.006 33.1311" fill="#7CA162" blush:i="0.0.24"/><path id="Fill 1952" fill-rule="evenodd" clip-rule="evenodd" d="M116.205 60.9934C116.306 60.9944 116.406 60.9934 116.467 60.8894C116.312 60.7554 116.226 60.7914 116.205 60.9934" fill="#7CA162" blush:i="0.0.25"/><path id="Fill 1954" fill-rule="evenodd" clip-rule="evenodd" d="M124.829 34.8381C124.738 34.8931 124.73 34.9521 124.819 35.0171C124.912 34.9621 124.916 34.9021 124.829 34.8381" fill="#7CA162" blush:i="0.0.26"/><path id="Fill 1956" fill-rule="evenodd" clip-rule="evenodd" d="M124.838 34.0403C124.757 34.0633 124.767 34.0893 124.837 34.1153C124.839 34.0913 124.839 34.0653 124.838 34.0403" fill="#7CA162" blush:i="0.0.27"/><path id="Fill 1958" fill-rule="evenodd" clip-rule="evenodd" d="M110.246 38.3889C110.216 38.2059 110.053 38.1969 109.923 38.1669C109.201 38.2409 110.285 38.6519 110.246 38.3889" fill="#7CA162" blush:i="0.0.28"/><path id="Fill 1960" fill-rule="evenodd" clip-rule="evenodd" d="M109.48 38.7512C109.341 38.7342 109.377 38.8822 109.457 38.9562C109.53 38.8842 109.555 38.8062 109.48 38.7512" fill="#7CA162" blush:i="0.0.29"/><path id="Fill 1962" fill-rule="evenodd" clip-rule="evenodd" d="M109.874 39.1291C109.811 39.0861 109.784 39.0971 109.769 39.1721C109.832 39.2151 109.858 39.2051 109.874 39.1291" fill="#7CA162" blush:i="0.0.30"/><path id="Fill 1964" fill-rule="evenodd" clip-rule="evenodd" d="M121.863 34.1184C122.027 33.7394 121.831 33.6144 121.491 33.5914C121.549 33.8134 121.665 33.9954 121.863 34.1184" fill="#7CA162" blush:i="0.0.31"/><path id="Fill 1966" fill-rule="evenodd" clip-rule="evenodd" d="M111.109 62.967C111.13 62.941 111.151 62.914 111.175 62.882C111.153 62.842 111.134 62.809 111.116 62.775C111.063 62.835 111.088 62.899 111.109 62.967" fill="#7CA162" blush:i="0.0.32"/><path id="Fill 1968" fill-rule="evenodd" clip-rule="evenodd" d="M110.897 54.6965C110.569 54.7695 110.899 55.0375 110.758 55.1655C111.092 55.2465 110.931 54.8615 110.897 54.6975V54.6965Z" fill="#7CA162" blush:i="0.0.33"/><path id="Fill 1970" fill-rule="evenodd" clip-rule="evenodd" d="M111.282 54.1663C111.255 54.0253 111.158 53.9643 111.043 53.9283C110.661 53.9283 111.164 54.5993 111.282 54.1663" fill="#7CA162" blush:i="0.0.34"/><path id="Fill 1972" fill-rule="evenodd" clip-rule="evenodd" d="M103.668 42.4524C103.613 42.4084 103.559 42.4234 103.565 42.4934C103.609 42.5494 103.659 42.5204 103.668 42.4524" fill="#7CA162" blush:i="0.0.35"/><path id="Fill 1974" fill-rule="evenodd" clip-rule="evenodd" d="M101.55 43.4651C101.543 43.4781 101.536 43.4891 101.529 43.5021C101.536 43.4891 101.543 43.4781 101.55 43.4651" fill="#7CA162" blush:i="0.0.36"/><path id="Fill 1976" fill-rule="evenodd" clip-rule="evenodd" d="M118.42 59.6067C118.453 59.6257 118.587 59.6757 118.514 59.6047C118.482 59.5857 118.437 59.5517 118.42 59.6067" fill="#7CA162" blush:i="0.0.37"/><path id="Fill 1978" fill-rule="evenodd" clip-rule="evenodd" d="M122.105 45.2659C122.188 45.2009 122.199 45.1309 122.096 45.0989C121.952 45.0889 121.971 45.2319 122.105 45.2659" fill="#7CA162" blush:i="0.0.38"/><path id="Fill 1980" fill-rule="evenodd" clip-rule="evenodd" d="M108.648 29.8069C108.885 30.6009 108.138 29.9629 108.65 29.8079L108.648 29.8069Z" fill="#FEC3BC" blush:i="0.0.39"/><path id="Fill 1982" fill-rule="evenodd" clip-rule="evenodd" d="M110.662 26.7756C110.679 26.7016 110.705 26.6906 110.767 26.7346C110.751 26.8096 110.724 26.8206 110.662 26.7756" fill="#FEC3BC" blush:i="0.0.40"/><path id="Fill 1984" fill-rule="evenodd" clip-rule="evenodd" d="M110.175 29.6047C110.164 29.5957 110.154 29.5877 110.144 29.5797C110.17 29.5567 110.189 29.5577 110.21 29.5847C110.198 29.5917 110.187 29.5977 110.175 29.6047" fill="#FEC3BC" blush:i="0.0.41"/><path id="Fill 1986" fill-rule="evenodd" clip-rule="evenodd" d="M130.364 16.945C112.275 25.803 126.031 29.912 110.636 11C106.7 11.45 110.359 22.168 109.169 24.951C106.443 23.323 102.99 21.978 106.428 25.939C109.165 29.822 92.8173 22.816 93.1573 32.353C98.2513 26.476 103.226 34.119 104.268 39.423C94.6953 32.257 82.9533 40.549 85.3043 51.887C84.1683 41.947 95.9153 38.749 101.207 45.881C88.6873 49.327 88.7803 83.182 98.8973 62.307C99.5153 62.117 102.471 58.541 102.717 60.627C103.792 61.302 102.668 59.398 103.755 60.377C104.24 59.933 103.132 59.306 103.565 58.918C104.063 58.484 103.416 58.519 103.171 58.493C104.449 57.82 104.596 55.441 105.755 55.009C105.37 54.169 107.205 54.74 106.746 53.953C107.091 53.513 108.14 52.524 109.045 52.423C109.455 51.449 111.828 52.163 110.98 51.091C110.38 50.183 112.352 51.597 111.688 52.223C111.61 52.342 111.698 52.485 111.89 52.453C113.191 50.642 113.765 49.505 112.236 47.981C108.72 48.03 102.585 52.457 101.713 53.948C101.392 52.917 99.7163 53.422 100.587 53.571C97.2913 53.739 102.745 44.937 106.247 44.727C108.755 42.886 112.923 46.107 113.981 44.298C115.816 43.049 112.075 41.822 111.737 40.622C110.763 37.959 106.839 31.103 109.027 29.77C109.224 29.178 110.613 29.47 109.753 28.638C110.285 28.953 111.023 28.473 110.948 27.813C110.003 27.183 111.103 26.275 110.049 25.801C114.797 27.465 117.882 31.793 119.659 36.246C117.866 26.873 120.26 32.721 123.674 36.798C126.537 34.284 124.703 25.527 127.32 21.084V21.085C127.892 19.506 129.837 18.403 130.364 16.945" fill="#526E3F" blush:i="0.0.42"/><path id="Fill 1988" fill-rule="evenodd" clip-rule="evenodd" d="M150.799 56.2093C150.685 56.1993 150.644 56.1613 150.629 56.0483C147.978 54.1343 144.099 54.0733 141.899 50.8273C130.563 39.0203 137.088 54.5763 129.05 54.9673C123.356 53.8813 125.62 50.3123 119.707 55.6623C118.405 56.8783 112.959 62.0573 116.204 60.9933C116.506 60.7783 116.995 60.8673 117.197 60.4523C117.545 60.1193 118.583 60.1333 118.581 59.6923C120.766 59.0393 121.163 58.2293 120.886 61.0863C120.753 61.2293 120.752 61.3723 120.886 61.5163C120.965 61.8983 120.766 62.3533 120.978 62.6823C121.115 63.4213 121.134 64.2003 121.421 64.8443C121.46 64.9693 121.376 65.1353 121.513 65.2013C121.735 65.7763 121.667 66.5203 122.127 67.0183C123.209 68.9783 128.266 82.4493 128.57 75.8973C130.017 71.3583 131.28 66.4383 131.678 61.6363C132.774 62.3453 133.665 63.5053 134.972 63.9543C134.993 64.1433 135.181 64.1123 135.326 64.1373C137.985 66.0923 141.143 68.0853 142.042 71.4883C142.146 71.9603 142.866 71.9183 142.909 71.4633C144.671 60.8643 136.272 51.9573 151.72 64.7593C151.734 64.9693 151.871 65.0723 152.057 65.1203C152.069 65.1483 152.079 65.1773 152.091 65.2043C152.061 65.4863 152.39 65.4453 152.493 65.6683C152.52 65.8383 152.568 65.9943 152.776 66.0193C152.782 66.1453 152.796 66.2663 152.954 66.2883C153.196 66.6463 153.477 67.0463 153.764 67.3683C154.523 68.7883 157.277 73.0213 157.347 69.0823C156.822 64.2583 154.355 59.5173 150.799 56.2093Z" fill="#496238" blush:i="0.0.43"/></g></g></svg>