<svg viewBox="21.150000000000006 1.1749999999999972 57.574999999999996 91.64999999999998" fill="none" xmlns="http://www.w3.org/2000/svg" xmlns:xlink="http://www.w3.org/1999/xlink" xmlns:blush="http://design.blush" overflow="visible" width="57.574999999999996px" height="91.64999999999998px"><g id="Master/New Stickers/Pencil" clip-path="url(#clip0_509_57589fa6996fa-c99b-4865-82f5-c7cbb015d994)" blush:has-customizable-colors="true" blush:viewBox="22.090000000000003 1.4099999999999966 55.93 90.70999999999998" blush:i="0"><g id="Group 305" blush:i="0.0"><path id="Union (Stroke)" fill-rule="evenodd" clip-rule="evenodd" d="M23.757 3.34422C23.757 3.34424 23.757 3.3442 23.757 3.34422L24.2929 5.68456L25.593 4.96563L23.7928 3.31273C23.775 3.2964 23.7578 3.28126 23.7412 3.26724C23.7456 3.2915 23.7508 3.31719 23.757 3.34422ZM26.8164 6.08893L24.6587 7.28208L26.956 17.3148L34.6821 13.311L26.8164 6.08893ZM27.3968 18.8604C27.4412 18.9421 27.4902 19.0216 27.5431 19.0975C27.5823 19.1537 27.6136 19.2143 27.6366 19.2775L67.6435 88.5714C68.0331 89.2462 68.5454 89.7227 69.0219 89.9671C69.5069 90.2158 69.852 90.1838 70.0505 90.0692L75.9802 86.6457C76.1786 86.5312 76.3789 86.2483 76.406 85.7039C76.4326 85.169 76.2761 84.4871 75.8865 83.8123L35.8677 14.4977C35.8627 14.4913 35.8577 14.4848 35.8529 14.4783L27.3968 18.8604ZM26.1659 19.8709C25.9362 19.5133 25.7486 19.0982 25.6477 18.6578L22.2217 3.69572C22.0694 3.03057 22.1072 2.14314 22.8326 1.71572C23.5628 1.28548 24.3561 1.69167 24.858 2.15256C24.8581 2.15256 24.858 2.15255 24.858 2.15256L36.5765 12.9122C36.7617 13.0822 36.9256 13.2708 37.0677 13.4675C37.1083 13.5108 37.1447 13.5595 37.1757 13.6132L77.2505 83.0248C77.7689 83.9227 78.0229 84.9022 77.9791 85.7822C77.9357 86.6526 77.5847 87.538 76.7677 88.0097L70.838 91.4333C70.0209 91.905 69.0787 91.7663 68.3032 91.3686C67.5192 90.9665 66.7979 90.2568 66.2795 89.3589L26.2046 19.9473C26.1902 19.9223 26.1773 19.8968 26.1659 19.8709Z" fill="#EABD91" blush:i="0.0.0"/></g></g><defs><clipPath id="clip0_509_57589fa6996fa-c99b-4865-82f5-c7cbb015d994"><rect width="92.8927" height="92.8927" fill="white" transform="translate(0.868408 0.2883)"/></clipPath></defs></svg>