<svg viewBox="0 23.5 93.99999999999999 46.99999999999999" fill="none" xmlns="http://www.w3.org/2000/svg" xmlns:xlink="http://www.w3.org/1999/xlink" xmlns:blush="http://design.blush" overflow="visible" width="93.99999999999999px" height="46.99999999999999px"><g id="Master/New Stickers/Sofa" clip-path="url(#clip0_509_57332ecab621b-c275-462f-91a9-bdc7710f8b43)" blush:has-customizable-colors="true" blush:viewBox="0.9399999999999977 23.97 92.58999999999997 46.05999999999999" blush:i="0"><g id="Couch" blush:i="0.0"><path id="Fill 1" fill-rule="evenodd" clip-rule="evenodd" d="M88.7895 48.0783H7.42261C6.93066 48.0783 6.53163 47.2922 6.53163 46.323V41.4457C6.53163 40.4765 6.93066 39.6904 7.42261 39.6904H88.7895C89.2815 39.6904 89.6809 40.4765 89.6809 41.4457V46.323C89.6809 47.2922 89.2815 48.0783 88.7895 48.0783" fill="#EABD91" blush:i="0.0.0"/><path id="Fill 3" fill-rule="evenodd" clip-rule="evenodd" d="M89.2081 58.2894H5.18235C4.92072 58.2894 4.70885 57.8676 4.70885 57.3467V54.6425H89.6816V57.3467C89.6816 57.8676 89.4697 58.2894 89.2081 58.2894" fill="#EABD90" blush:i="0.0.1"/><path id="Fill 5" fill-rule="evenodd" clip-rule="evenodd" d="M6.89676 69.9596H8.35552V56.466H6.89676V69.9596Z" fill="#EABD90" blush:i="0.0.2"/><path id="Fill 7" fill-rule="evenodd" clip-rule="evenodd" d="M86.0342 69.9596H87.4929V56.466H86.0342V69.9596Z" fill="#EABD90" blush:i="0.0.3"/><path id="Fill 9" fill-rule="evenodd" clip-rule="evenodd" d="M91.7378 56.466H1.9649C1.19069 56.466 0.776708 54.7771 1.28643 53.6979L4.77362 46.3127C5.33842 45.1161 6.15415 44.4312 7.01185 44.4312H88.0018C89.4685 44.4312 90.839 45.7824 91.6573 48.0364L93.0553 51.8844C93.7649 53.838 93.009 56.466 91.7378 56.466" fill="#FFDFD7" blush:i="0.0.4"/><path id="Fill 10" fill-rule="evenodd" clip-rule="evenodd" d="M87.2734 45.8901H8.35585C8.35585 45.8901 9.63708 43.6121 9.73008 42.6046C9.90861 40.6644 8.70128 37.0939 8.75027 35.1317C8.80009 33.1137 9.91691 29.3993 9.71099 27.4136C9.59723 26.3253 8.35585 24.3734 8.35585 24.3734H87.2734C87.2734 24.3734 85.8875 26.619 85.9822 28.6385C86.0976 31.0883 87.9609 35.3652 87.8538 37.8958C87.7583 40.14 85.9349 41.412 86.2039 43.5049C86.3002 44.248 87.2734 45.8901 87.2734 45.8901" fill="#FFD6CB" blush:i="0.0.5"/><path id="Fill 12" fill-rule="evenodd" clip-rule="evenodd" d="M29.0817 44.9912C28.5724 48.8163 25.003 51.8307 21.1086 51.7223C17.2149 51.6147 14.4718 48.4268 14.9803 44.6008C15.4904 40.7757 19.0597 37.7621 22.9542 37.8697C26.8478 37.9773 29.591 41.166 29.0817 44.9912" fill="#FFC0B0" blush:i="0.0.6"/><path id="Fill 13" fill-rule="evenodd" clip-rule="evenodd" d="M77.5915 31.2047C77.5915 31.2047 77.5481 31.1192 77.0308 31.2047C76.5134 31.2902 70.9917 31.8089 68.404 31.1669C65.8155 30.5248 60.7686 31.4686 59.7338 31.1669C58.6982 30.8652 59.259 32.7345 59.259 33.1595C59.259 33.5845 59.6479 35.1144 58.6557 37.5789C57.6635 40.0434 59.173 44.9281 59.173 46.1406C59.173 47.3523 58.7416 48.3289 59.6045 48.3289C60.4673 48.3289 66.2903 48.712 69.0941 48.0741C71.8979 47.437 75.8658 47.7337 77.2035 47.5644C78.5403 47.3942 79.6185 47.6063 79.6185 46.6297C79.6185 45.6523 79.8346 44.1652 79.8346 42.6354C79.8346 41.1055 78.5403 34.1789 78.023 33.0321C77.5048 31.8845 77.6349 31.6297 77.5915 31.2047" fill="#EE9A83" blush:i="0.0.7"/></g></g><defs><clipPath id="clip0_509_57332ecab621b-c275-462f-91a9-bdc7710f8b43"><rect width="92.8927" height="92.8927" fill="white" transform="translate(0.461487 0.720183)"/></clipPath></defs></svg>