<svg viewBox="18.75 52.5 236.24999999999997 202.5" fill="none" xmlns="http://www.w3.org/2000/svg" xmlns:xlink="http://www.w3.org/1999/xlink" xmlns:blush="http://design.blush" overflow="visible" width="236.24999999999997px" height="202.5px"><g id="Master/Spot Illustrations/Working from Home" blush:has-customizable-colors="true" blush:viewBox="-49.5 0 324.00000000000006 255.00000000000006" blush:i="0"><g id="Desk" blush:i="0.0"><g id="Texture Backgrounds" opacity="0.5" blush:component="Texture Backgrounds" blush:defaultValue="Abstract 1" blush:width="247" blush:height="214" transform="translate(27 21) scale(1 1)" blush:i="0.0.0" blush:value="Abstract 1" blush:viewBox="37.04999999999998 32.248267898383375 159.315 149.50346420323322"><g id="Texture Backgrounds/Abstract 1" blush:viewBox="37.04999999999998 32.248267898383375 159.315 149.50346420323322" blush:i="0.0.0.0"><path id="Fill 38" fill-rule="evenodd" clip-rule="evenodd" d="M184.617 117.462C174.482 107.178 153.455 111.842 137.647 127.877C121.844 143.917 117.248 165.254 127.383 175.538C137.518 185.822 158.545 181.158 174.353 165.123C190.156 149.083 194.752 127.746 184.617 117.462" fill="#CDEAFA" blush:i="0.0.0.0.0"/><path id="Fill 10" fill-rule="evenodd" clip-rule="evenodd" d="M190.12 52.5022C206.608 78.4851 187.232 120.592 146.851 146.547C106.468 172.504 60.3648 172.481 43.8791 146.498C27.3934 120.515 46.7655 78.4099 87.1506 52.4528C127.532 26.4976 173.635 26.5174 190.12 52.5022" fill="#DFECFB" blush:i="0.0.0.0.1"/></g></g><g id="Desk_2" blush:i="0.0.1"><path id="Fill 3" fill-rule="evenodd" clip-rule="evenodd" d="M77.8389 239H71L98.1611 140H105L77.8389 239Z" fill="#8F8F8F" blush:i="0.0.1.0"/><path id="Fill 5" fill-rule="evenodd" clip-rule="evenodd" d="M124.161 239H131L103.839 140H97L124.161 239Z" fill="#8F8F8F" blush:i="0.0.1.1"/><path id="Fill 7" fill-rule="evenodd" clip-rule="evenodd" d="M82 217H121V212H82V217Z" fill="#8F8F8F" blush:i="0.0.1.2"/><path id="Fill 9" fill-rule="evenodd" clip-rule="evenodd" d="M199.839 239H193L220.161 140H227L199.839 239Z" fill="#8F8F8F" blush:i="0.0.1.3"/><path id="Fill 10" fill-rule="evenodd" clip-rule="evenodd" d="M247.161 239H254L226.839 140H220L247.161 239Z" fill="#8F8F8F" blush:i="0.0.1.4"/><path id="Fill 11" fill-rule="evenodd" clip-rule="evenodd" d="M204 217H243V212H204V217Z" fill="#8F8F8F" blush:i="0.0.1.5"/><path id="Fill 12" fill-rule="evenodd" clip-rule="evenodd" d="M246.351 143H78.6489L76 137H249L246.351 143Z" fill="#E2C1A1" blush:i="0.0.1.6"/></g><g id="Laptop" blush:i="0.0.2"><path id="Fill 21" fill-rule="evenodd" clip-rule="evenodd" d="M139.135 137.193L186.955 138.225C188.561 138.259 189.998 137.234 190.488 135.704L200.825 103.367C201.568 101.047 199.857 98.6713 197.421 98.6373L150.809 98.0003C149.264 97.9793 147.874 98.9403 147.349 100.393L135.803 132.336C134.959 134.668 136.655 137.139 139.135 137.193" fill="#BFBAB4" blush:i="0.0.2.0"/><path id="Fill 22" fill-rule="evenodd" clip-rule="evenodd" d="M137.507 133.498L187.926 134.333C188.242 134.338 188.524 134.136 188.62 133.835L198.614 102.687C198.727 102.339 198.473 101.98 198.108 101.971L149.672 100.615L137.507 133.498Z" fill="#101010" blush:i="0.0.2.1"/><path id="Fill 23" fill-rule="evenodd" clip-rule="evenodd" d="M172.7 99.8965C172.7 100.116 172.879 100.293 173.098 100.293C173.318 100.293 173.496 100.116 173.496 99.8965C173.496 99.6765 173.318 99.4985 173.098 99.4985C172.879 99.4985 172.7 99.6765 172.7 99.8965" fill="#101010" blush:i="0.0.2.2"/><path id="Fill 24" fill-rule="evenodd" clip-rule="evenodd" d="M121.896 137.286L185.308 138.185C186.894 138.208 188.192 136.929 188.192 135.343V135.305L119.674 134.333V135.034C119.674 136.265 120.664 137.269 121.896 137.286" fill="#807A74" blush:i="0.0.2.3"/></g><g id="Small Plant" blush:component="Small Plant" blush:defaultValue="Small Vase 2" blush:width="44" blush:height="76" transform="matrix(-1 0 0 1 238 62) scale(1 1)" blush:i="0.0.3" blush:value="Small Vase 2" blush:viewBox="9.629757785467127 12.539999999999992 34.63667820069203 63.07999999999999"><g id="Small Plant/Small Vase 2" blush:viewBox="9.629757785467127 12.539999999999992 34.63667820069203 63.07999999999999" blush:i="0.0.3.0"><g id="Group 48 Copy" blush:i="0.0.3.0.0"><path id="Fill 99" fill-rule="evenodd" clip-rule="evenodd" d="M30.554 24.8957C30.1416 25.1616 29.7409 25.4424 29.3349 25.7167C29.8354 25.0513 30.3315 24.3821 30.8198 23.7083C31.5637 22.6508 32.3106 21.5957 33 20.5C32.1251 21.4662 31.3072 22.473 30.4858 23.4764C29.6805 24.4916 28.884 25.5127 28.1143 26.5525L27.2954 27.6589C26.9098 28.0761 26.53 28.4994 26.1522 28.9222C25.7374 29.3879 25.3367 29.8642 24.9321 30.3378C24.5368 30.8058 24.1356 31.27 23.7495 31.7469C22.9554 32.3839 22.1677 33.0288 21.3877 33.6812L19.9524 34.8839C20.1579 34.6269 20.3609 34.3685 20.5639 34.1096C21.0026 33.5256 21.4486 32.9464 21.8726 32.3536C22.2923 31.7576 22.6434 31.1206 23.0173 30.4971L24.1273 28.6223L24.1463 28.5902L24.1502 28.5599C24.233 27.8973 24.3104 27.2338 24.3888 26.5707L24.4516 26.628L26.3869 24.3491L24.4574 26.0003C24.5869 24.8971 24.714 23.7931 24.8396 22.6895L24.7914 22.683C24.5884 23.8653 24.3868 25.048 24.1882 26.2308L24.0991 26.3067L24.1653 26.3672C24.0475 27.0708 23.9297 27.7749 23.8152 28.4789L22.638 30.2745C22.2334 30.877 21.8488 31.4912 21.4559 32.1008C21.0455 32.6996 20.6574 33.3124 20.2616 33.921C19.9695 34.3927 19.6808 34.8662 19.4008 35.3463L19.0308 35.656L18.9695 35.7077L18.9612 35.7808L18.375 40.9323L17.1013 42.9611L16.4227 38.4606L15.7128 35.2872C15.7021 35.2327 15.6057 34.7238 15.4577 34.063L16.3667 29.6794V28.3029H16.0015L16.0049 29.6454L15.26 33.2244C15.0146 32.24 14.7006 31.1904 14.3973 30.7802L14 31.0484C14.463 31.6756 15.0473 34.3806 15.2347 35.3775L15.9431 38.5426L16.6826 43.4426L16.3891 45.0323L15.6943 50.4437L16.1778 50.5L16.8706 45.1012L17.1753 43.4501L17.1539 43.308L18.6408 41.051L18.6574 41.0263L18.6618 40.9942L19.3526 35.9037L21.7013 34.0327C22.5036 33.3929 23.2992 32.7452 24.0864 32.0891L24.1074 32.0719L24.1215 32.0537L26.4273 29.1332C26.9317 28.4948 27.438 27.8573 27.9492 27.2245L28.4463 26.8668C29.2253 26.3081 29.9951 25.7386 30.7521 25.1518C31.1304 24.8576 31.517 24.5744 31.8875 24.2713C32.2595 23.9696 32.6363 23.6748 33 23.3619C32.5818 23.6036 32.1767 23.8625 31.7658 24.1139C31.3544 24.3649 30.9586 24.6359 30.554 24.8957" fill="#794A33" blush:i="0.0.3.0.0.0"/><path id="Fill 100" fill-rule="evenodd" clip-rule="evenodd" d="M21 53.4004C21 51.2459 19.2133 49.5 17.0091 49.5H13.9905C11.7867 49.5 10 51.2459 10 53.4004V60.5L21 57.6003V53.4004Z" fill="#FEC1C7" blush:i="0.0.3.0.0.1"/><path id="Fill 101" fill-rule="evenodd" clip-rule="evenodd" d="M13.9905 75.5H17.0091C19.2133 75.5 21 73.7024 21 71.4847V57.5L10 60.4848V71.4847C10 73.7024 11.7867 75.5 13.9905 75.5" fill="#FDDCB5" blush:i="0.0.3.0.0.2"/><path id="Fill 102" fill-rule="evenodd" clip-rule="evenodd" d="M26.9597 19.4398C26.9597 19.4398 26.109 19.5493 26.038 19.4729C25.967 19.3969 26.0037 18.856 26.0808 18.8003C26.1585 18.7447 26.6677 18.5466 26.792 18.5074C26.915 18.4678 26.6567 18.5916 26.8746 18.7871C27.0931 18.9827 26.9597 19.4398 26.9597 19.4398" fill="#ECC9C0" blush:i="0.0.3.0.0.3"/><path id="Fill 103" fill-rule="evenodd" clip-rule="evenodd" d="M28.745 16.5C28.745 16.5 27.9968 16.8066 28 16.884C28.0029 16.961 28.2607 17.0295 28.1811 17.198C28.1014 17.3665 28.2689 17.3976 28.3511 17.3679C28.4332 17.3382 28.4568 17.4881 28.5307 17.4992C28.6046 17.5101 28.5886 17.401 28.6721 17.402C28.7557 17.403 28.8604 17.4179 28.8846 17.3713C28.9082 17.3243 28.9143 17.2629 28.9796 17.2142C29.0454 17.1659 28.9354 16.9029 28.8839 16.8313C28.8321 16.76 28.9489 16.6651 28.745 16.5" fill="#ECC9C0" blush:i="0.0.3.0.0.4"/><path id="Fill 104" fill-rule="evenodd" clip-rule="evenodd" d="M30.7919 19.0453C30.7919 19.0453 30.8498 18.9142 30.8253 18.8134C30.8005 18.7126 30.8686 18.6162 30.8395 18.5654C30.8104 18.5141 30.6612 18.5481 30.6341 18.5042C30.6066 18.4603 30.3215 18.7689 30.1322 18.9612C29.943 19.1542 29.994 19.2457 30.0585 19.4683C30.1233 19.6897 30.169 19.6706 30.1832 19.8988C30.1974 20.127 30.2679 20.3521 30.3909 20.4603C30.514 20.5691 30.7016 20.4325 30.8104 20.3125C30.9192 20.1925 30.5742 20.2469 30.7727 20.054C30.9715 19.8604 31.0092 19.759 30.9983 19.6718C30.987 19.584 30.9841 19.3261 30.9778 19.3051C30.9722 19.2847 30.8104 19.422 30.8071 19.3626C30.8041 19.3026 30.7919 19.0453 30.7919 19.0453" fill="#ECC9C0" blush:i="0.0.3.0.0.5"/><path id="Fill 105" fill-rule="evenodd" clip-rule="evenodd" d="M28.9702 18.5974C28.8718 18.4635 28.8192 18.4797 28.724 18.5732C28.6292 18.6667 28.3321 18.943 28.2347 18.9987C28.1368 19.0533 28.1309 19.1599 28.1204 19.2534C28.1103 19.3474 28.0561 19.3437 28.0522 19.4566C28.0485 19.5701 28.1391 19.6179 28.0318 19.8469C27.9245 20.0753 28.1135 20.0717 28.2327 20.2046C28.3518 20.3374 28.5704 20.6379 28.705 20.4272C28.8396 20.2172 28.5911 20.0612 28.7949 19.8836C28.9988 19.7061 29.0001 19.4766 28.9433 19.3569C28.8865 19.2371 29.0687 18.7318 28.9702 18.5974" fill="#ECC9C0" blush:i="0.0.3.0.0.6"/><path id="Fill 106" fill-rule="evenodd" clip-rule="evenodd" d="M30.9137 20.5727C30.9137 20.5727 30.9368 20.7913 30.872 20.8501C30.8065 20.91 30.7871 20.8832 30.8575 21.05C30.9271 21.2161 30.9975 21.1874 30.9982 21.3379C30.999 21.4872 31.0124 21.8033 30.9521 21.8939C30.891 21.9851 30.7204 22.0944 30.7722 22.2206C30.8243 22.3474 30.8065 22.3899 30.6605 22.4792C30.5153 22.5673 30.4985 22.353 30.4527 22.2612C30.4073 22.17 30.1984 22.0151 30.2863 21.749C30.2863 21.749 30.1187 21.8839 30.0822 21.7046C30.045 21.526 29.9173 21.4741 30.0826 21.3323C30.2475 21.1899 30.7819 20.2323 30.9137 20.5727" fill="#ECC9C0" blush:i="0.0.3.0.0.7"/><path id="Fill 107" fill-rule="evenodd" clip-rule="evenodd" d="M40.6703 18.542C40.6703 18.542 40.7855 18.4586 40.8396 18.5269C40.8931 18.5956 40.8264 18.7375 40.8072 18.7453C40.788 18.7539 40.7173 18.805 40.7269 18.8205C40.7375 18.8357 40.8557 18.7567 40.8775 18.8132C40.8992 18.87 40.9047 19.0115 40.9745 19.0541C41.0432 19.0962 40.8502 19.0757 40.98 19.1964C41.1104 19.317 40.5617 19.506 40.5167 19.4999C40.4712 19.4929 40.4157 19.4585 40.3207 19.4741C40.2252 19.4896 40.0231 19.3706 40.0716 19.2622C40.1211 19.1534 40.0468 19.0676 40.0175 19.0606C39.9882 19.0536 39.9786 18.9657 40.1292 18.8995C40.2803 18.8328 40.2626 18.7105 40.3283 18.6872C40.3939 18.6639 40.6163 18.6185 40.6703 18.542" fill="#ECC9C0" blush:i="0.0.3.0.0.8"/><path id="Fill 108" fill-rule="evenodd" clip-rule="evenodd" d="M33.9998 19.852C33.9998 19.852 33.9314 19.4152 33.7564 19.5148C33.5813 19.6143 33.5826 19.7397 33.4048 19.7515C33.2266 19.7642 33.2163 19.9478 33.1123 20.0065C33.0083 20.0657 32.9737 20.0798 33.0205 20.1709C33.0682 20.2611 33.092 20.4029 33.0731 20.4212C33.0542 20.4391 33.1956 20.4104 33.2613 20.3733C33.327 20.3362 32.9998 20.6476 33.0151 20.6763C33.0299 20.7044 33.2563 20.9759 33.1906 21.013C33.1253 21.0506 33.1091 21.1553 33.1478 21.23C33.1865 21.3042 33.1127 21.516 33.3027 21.4451C33.4926 21.3742 33.5367 21.3493 33.5808 21.4348C33.6258 21.5207 33.8068 21.5137 33.8495 21.4601C33.8923 21.4061 33.8194 21.2629 33.917 21.214C34.0152 21.1661 34.0251 21.1159 33.953 20.9792C33.8815 20.8421 33.89 20.6152 33.9193 20.424C33.949 20.2329 33.9998 19.852 33.9998 19.852" fill="#ECC9C0" blush:i="0.0.3.0.0.9"/><path id="Fill 109" fill-rule="evenodd" clip-rule="evenodd" d="M31.9194 19.0226C31.9194 19.0226 31.9047 18.7265 31.8089 18.6146C31.7134 18.5021 31.6531 18.4631 31.554 18.54C31.4545 18.6175 31.0842 19.1321 31.0435 19.1642C31.0027 19.1963 30.979 19.2143 31.0255 19.335C31.0712 19.4556 31.0643 19.5366 31.0182 19.5943C30.9721 19.652 31.1589 20.0146 31.0936 20.0653C31.028 20.116 31.0896 20.4359 31.1503 20.496C31.2115 20.5572 31.7567 19.9056 31.839 19.6252C31.839 19.6252 32.0311 19.4754 31.9956 19.3629C31.9606 19.2499 31.9194 19.0226 31.9194 19.0226" fill="#ECC9C0" blush:i="0.0.3.0.0.10"/><path id="Fill 110" fill-rule="evenodd" clip-rule="evenodd" d="M32.9381 16.8665C32.9381 16.8665 32.7505 16.5972 32.7408 16.5639C32.73 16.5317 32.5321 16.4351 32.1946 16.569C31.8564 16.7039 31.2121 17.0049 31.0421 17.0537C30.8727 17.103 31.269 17.623 31.269 17.623C31.269 17.623 31.2049 17.764 31.1353 17.7957C31.0657 17.8269 30.981 18.1083 31.1667 18.2386C31.3537 18.3685 31.5727 18.1385 31.5896 18.3177C31.6053 18.4969 31.7275 18.5628 32.0209 18.4294C32.3156 18.2965 32.886 17.9724 32.8268 17.692C32.7675 17.4106 32.6997 17.3759 32.9248 17.2742C33.1498 17.172 32.7832 16.9556 32.9381 16.8665" fill="#ECC9C0" blush:i="0.0.3.0.0.11"/><path id="Fill 111" fill-rule="evenodd" clip-rule="evenodd" d="M33.7686 16.9867C33.7686 16.9867 33.7394 16.9555 33.8598 16.8967C33.9799 16.8384 34.0281 16.6901 33.9838 16.6145C33.9398 16.5389 33.9608 16.4629 33.8355 16.52C33.7101 16.5775 33.2481 16.8191 33.1706 16.8762C33.094 16.9337 33.1218 17.0171 33.054 17.0484C32.9862 17.0796 32.9808 17.1449 33.0462 17.2333C33.1115 17.3208 33.2023 17.5899 33.4886 17.4695C33.775 17.3495 33.7437 17.3011 33.7686 17.1971C33.7935 17.0936 33.9135 17.0755 33.8838 17.0225C33.854 16.9695 33.7686 16.9867 33.7686 16.9867" fill="#ECC9C0" blush:i="0.0.3.0.0.12"/><path id="Fill 112" fill-rule="evenodd" clip-rule="evenodd" d="M39.8491 23.7899C39.8491 23.7899 39.7728 23.6536 39.8772 23.5579C39.9825 23.4616 40.0203 23.4735 39.9898 23.2771C39.9588 23.0795 39.8768 22.5311 39.8423 22.5011C39.8077 22.4711 39.117 23.0645 39.1202 23.1139C39.1226 23.1633 39.0989 23.4216 39.0656 23.4497C39.0322 23.4779 39.1725 23.6886 39.1042 23.738C39.0358 23.7874 38.9776 23.9631 39.0085 24.0113C39.0395 24.0594 39.0648 24.09 39.0676 24.1251C39.0704 24.1601 39.1427 24.3808 39.2372 24.3089C39.3312 24.2364 39.3866 24.2714 39.3649 24.3195C39.3432 24.3671 39.3123 24.4828 39.3802 24.4996C39.4485 24.5165 39.8696 23.9431 39.8491 23.7899" fill="#ECC9C0" blush:i="0.0.3.0.0.13"/><path id="Fill 113" fill-rule="evenodd" clip-rule="evenodd" d="M34.5185 19.3982C34.5185 19.3982 34.4634 19.4467 34.4398 19.4677C34.4158 19.4883 34.3298 19.5188 34.3121 19.4846C34.2941 19.4503 34.2517 19.2239 34.2462 19.1533C34.2409 19.0832 34.3387 19.0332 34.3525 19.0005C34.3666 18.9689 33.9863 18.5144 34.0004 18.1636C34.0148 17.8122 34.893 17.3571 34.9346 17.5431C34.9763 17.729 34.9441 17.8164 34.9802 17.9228C34.9802 17.9228 35.0262 18.0113 34.9779 18.0535C34.93 18.0951 34.8181 18.1409 34.8808 18.3168C34.9428 18.4928 34.972 18.507 34.9222 18.5676C34.8723 18.6287 34.3948 19.1938 34.4267 19.2881C34.4585 19.3824 34.5172 19.2339 34.5185 19.3982" fill="#ECC9C0" blush:i="0.0.3.0.0.14"/><path id="Fill 114" fill-rule="evenodd" clip-rule="evenodd" d="M36.8875 21.618C36.8875 21.618 36.7893 21.4797 36.7358 21.5025C36.6827 21.5247 36.1198 21.7938 36.0633 21.8096C36.0066 21.8254 35.9867 21.85 36.0089 21.8939C36.0307 21.9374 36.0793 22.0651 36.1263 22.0859C36.1729 22.1066 36.2173 22.1539 36.1944 22.2283C36.1716 22.3028 36.1178 22.3649 36.2509 22.5C36.2509 22.5 36.5972 22.3838 36.6465 22.3421C36.6954 22.2999 36.5874 22.2547 36.6605 22.2076C36.7336 22.1603 36.986 22.0041 36.999 21.9658C37.0121 21.9279 36.8875 21.618 36.8875 21.618" fill="#ECC9C0" blush:i="0.0.3.0.0.15"/><path id="Fill 115" fill-rule="evenodd" clip-rule="evenodd" d="M36.4236 17.6566C36.4236 17.6566 36.4751 17.4786 36.2943 17.5022C36.114 17.5257 34.9561 17.7157 35.0013 17.9348C35.0465 18.1542 35.3666 18.0308 35.3666 18.0308C35.3666 18.0308 35.4901 18.2977 35.5237 18.3107C35.5584 18.3237 35.8202 18.296 35.8617 18.3462C35.9038 18.3965 35.9017 18.5222 36.0877 18.4966C36.2738 18.4706 36.7037 18.4136 36.7 18.3548C36.6974 18.2957 36.6254 18.311 36.7615 18.2529C36.8972 18.1945 36.8367 18.066 36.7836 17.9796C36.73 17.8934 37.0569 17.8979 36.9912 17.8012C36.9255 17.7041 37.0096 17.6942 36.9471 17.6566C36.8845 17.6187 36.8346 17.6412 36.7926 17.5913C36.7505 17.5408 36.4236 17.6566 36.4236 17.6566" fill="#ECC9C0" blush:i="0.0.3.0.0.16"/><path id="Fill 116" fill-rule="evenodd" clip-rule="evenodd" d="M32 14.5302C32 14.5302 31.8665 15.7543 31.7786 15.9505C31.6904 16.1466 31.2225 16.5631 31.1745 16.4919C31.1265 16.4207 30.9511 15.3692 31.0131 15.2431C31.0747 15.1176 31.1156 15.131 31.0618 14.9679C31.008 14.8048 31.8478 14.3845 32 14.5302" fill="#ECC9C0" blush:i="0.0.3.0.0.17"/><path id="Fill 117" fill-rule="evenodd" clip-rule="evenodd" d="M40.983 16.758C40.983 16.758 41.0146 16.5945 40.9896 16.528C40.965 16.4609 40.0946 16.5163 40.0247 16.6742C39.9542 16.832 40.057 16.9731 40.057 16.9731C40.057 16.9731 40.2328 17.0011 40.1806 17.0835C40.1285 17.1659 40.249 17.4546 40.2812 17.4555C40.3138 17.4565 40.4646 17.4299 40.4751 17.483C40.4855 17.5351 40.6389 17.4662 40.6708 17.2916C40.7028 17.1175 40.8015 17.3223 40.8416 17.1822C40.8815 17.042 40.8581 16.9796 40.9185 17.0052C40.9786 17.0318 41.027 16.8646 40.983 16.758" fill="#ECC9C0" blush:i="0.0.3.0.0.18"/><path id="Fill 118" fill-rule="evenodd" clip-rule="evenodd" d="M39.8697 13.0109C39.8697 13.0109 39.9468 12.8548 39.9632 12.7807C39.9796 12.7065 39.9471 12.6135 39.9301 12.5716C39.9126 12.5297 39.8153 12.5219 39.6598 12.5021C39.5047 12.4818 39.5661 12.6163 39.406 12.5988C39.2463 12.5818 39.2917 12.806 39.2596 12.8286C39.2279 12.8511 38.9835 12.9575 39.0009 12.9994C39.0183 13.0409 39.0629 13.3894 39.1787 13.3291C39.2945 13.2697 39.4534 13.5124 39.5364 13.4995C39.6191 13.4861 39.9736 13.4332 39.9973 13.2918C40.0218 13.1505 39.8697 13.0109 39.8697 13.0109" fill="#ECC9C0" blush:i="0.0.3.0.0.19"/><path id="Fill 119" fill-rule="evenodd" clip-rule="evenodd" d="M36 15.993C36 15.993 36.1769 15.9876 36.2388 16.1362C36.3004 16.2844 36.2545 16.3894 36.3805 16.3445C36.5065 16.2996 36.2671 16.552 36.5303 16.4902C36.7942 16.4285 36.9925 16.3412 36.9969 16.2029C37.0013 16.0642 37.0107 15.8045 36.9441 15.744C36.8772 15.683 36.8203 15.7324 36.7449 15.6151C36.6692 15.4974 36.5253 15.483 36.3799 15.5143C36.2344 15.5456 36.0921 15.5843 36.045 15.6361C35.9972 15.688 36 15.993 36 15.993" fill="#ECC9C0" blush:i="0.0.3.0.0.20"/><path id="Fill 120" fill-rule="evenodd" clip-rule="evenodd" d="M38.0875 20.5C38.0875 20.5 38.7908 20.6005 38.8104 20.6283C38.8297 20.656 38.8094 20.743 38.8785 20.7527C38.948 20.7618 38.9536 20.8099 38.9203 20.8276C38.8869 20.8453 38.8926 20.9261 38.9262 20.932C38.9592 20.9379 39.0017 20.9913 38.9999 21.0814C38.9982 21.1716 38.941 21.1768 38.8683 21.2156C38.7953 21.2551 38.9147 21.3012 38.7925 21.3667C38.6701 21.4326 38.6599 21.3362 38.6251 21.3508C38.5904 21.3654 38.5297 21.5592 38.4054 21.4819C38.2816 21.4042 38.2672 21.3869 38.2584 21.3317C38.25 21.2773 38.2103 21.2988 38.1559 21.2939C38.1019 21.2891 38.0717 21.1951 38.0787 21.1535C38.0854 21.1116 38.2201 20.881 38.1535 20.8072C38.0871 20.7333 37.8857 20.7486 38.0875 20.5" fill="#ECC9C0" blush:i="0.0.3.0.0.21"/><path id="Fill 121" fill-rule="evenodd" clip-rule="evenodd" d="M35.0939 15.7004C35.0939 15.7004 35.0379 15.5843 35.1433 15.5134C35.2487 15.4426 35.5008 15.679 35.7 15.6019C35.8992 15.5243 36.0295 15.7092 35.9942 15.7679C35.9596 15.827 35.8117 16.3476 35.7941 16.4168C35.7759 16.4856 35.553 16.4742 35.5062 16.4411C35.459 16.408 35.4539 16.5296 35.3803 16.4931C35.307 16.457 35.3095 16.3602 35.2865 16.3766C35.2638 16.3929 34.9542 16.2827 35.0058 16.1108C35.0574 15.9389 35.0939 15.7004 35.0939 15.7004" fill="#ECC9C0" blush:i="0.0.3.0.0.22"/><path id="Fill 122" fill-rule="evenodd" clip-rule="evenodd" d="M34.4171 12.5C34.4171 12.5 33.9806 12.6898 34.0007 12.7225C34.022 12.7558 34.1936 13.2929 34.1845 13.3681C34.1754 13.4426 34.1583 13.546 34.4907 13.4776C34.8225 13.4096 35.2243 13.4249 35.2669 13.3722C35.3101 13.3201 35.1482 13.2385 35.3637 13.2184C35.5792 13.199 35.6029 13.2113 35.6662 13.1198C35.7295 13.0286 35.7356 12.9024 35.9438 12.8391C36.152 12.7759 35.7277 12.6299 35.5499 12.664C35.3722 12.6983 34.4171 12.5 34.4171 12.5" fill="#ECC9C0" blush:i="0.0.3.0.0.23"/><path id="Fill 123" fill-rule="evenodd" clip-rule="evenodd" d="M37 13.6403C37 13.6403 37.0975 13.9497 37.1887 13.9854C37.28 14.0211 37.1479 13.7717 37.3769 14.0421C37.6053 14.3129 37.4455 14.5568 37.7045 14.4883C37.9635 14.4199 38.7932 14.2658 38.8255 14.1323C38.8573 13.9988 38.6612 13.9098 38.825 13.8557C38.9888 13.8015 39.0466 13.6718 38.9599 13.5404C38.8732 13.409 37 13.6403 37 13.6403" fill="#ECC9C0" blush:i="0.0.3.0.0.24"/><path id="Fill 124" fill-rule="evenodd" clip-rule="evenodd" d="M42.3665 17.6944L42.5943 17.6191C42.8221 17.5438 43.6259 17.5381 43.77 17.5078C43.9142 17.4772 43.7493 17.5377 43.8062 17.675C43.8626 17.8126 43.7777 17.835 43.7261 17.8519C43.6751 17.8689 44.0417 17.9384 43.9961 17.9827C43.9498 18.0267 43.7789 18.0483 43.8288 18.1362C43.8792 18.2238 43.6674 18.3431 43.4414 18.4018C43.2154 18.4605 43.0659 18.4004 42.8499 18.489C42.6346 18.5777 42.5023 18.1009 42.5023 18.1009C42.5023 18.1009 42.3581 18.1424 42.3143 18.0934C42.2709 18.0443 41.8106 17.7971 42.0888 17.746L42.3665 17.6944Z" fill="#ECC9C0" blush:i="0.0.3.0.0.25"/><path id="Fill 125" fill-rule="evenodd" clip-rule="evenodd" d="M41.0695 14.6111C41.0695 14.6111 41.5384 14.4945 41.6268 14.5002C41.715 14.5063 41.7619 14.5471 41.8142 14.584C41.8665 14.621 41.955 14.7695 41.9914 14.9756C42.0279 15.1817 41.9467 15.483 41.7689 15.499C41.5913 15.515 41.6456 15.3291 41.5634 15.3508C41.481 15.3733 41.2733 15.4537 41.2569 15.3455C41.2407 15.2369 41.2879 15.2377 41.1462 15.1082C41.0048 14.9787 41.1564 14.9726 41.1053 14.8918C41.0546 14.811 40.9176 14.7425 41.0695 14.6111" fill="#ECC9C0" blush:i="0.0.3.0.0.26"/><path id="Fill 126" fill-rule="evenodd" clip-rule="evenodd" d="M40.0548 14.5197C40.0548 14.5197 40.3324 14.6078 40.4299 14.5457C40.5275 14.4835 40.5565 14.4866 40.5829 14.5439C40.6097 14.6011 40.5753 14.5233 40.6927 14.6432C40.8104 14.7635 40.9557 14.9066 40.9252 15.0292C40.8942 15.1513 41.0869 15.5279 40.9508 15.4984C40.8139 15.4697 40.7125 15.5346 40.5496 15.3915C40.3867 15.2492 40.2835 15.3253 40.1703 15.0274C40.0571 14.73 39.9225 15.0497 40.0548 14.5197" fill="#ECC9C0" blush:i="0.0.3.0.0.27"/><path id="Fill 127" fill-rule="evenodd" clip-rule="evenodd" d="M38 24.0102C38 24.0102 37.7954 23.7532 37.8773 23.6648C37.9595 23.5764 37.9692 23.4186 37.7517 23.5507C37.5338 23.6833 37.5108 23.7995 37.1656 23.9079C36.8199 24.0164 37.1228 24.5443 37.1228 24.5443C37.1228 24.5443 37.0038 24.7443 37.1072 24.9103C37.2106 25.0758 37.3099 24.9519 37.3361 25.0758C37.3619 25.1997 37.3835 25.594 37.635 25.4793C37.886 25.3647 37.4336 25.0167 37.692 24.8594C37.9503 24.7021 37.9738 24.7504 37.9752 24.496C37.9761 24.241 37.7577 24.2595 38 24.0102" fill="#ECC9C0" blush:i="0.0.3.0.0.28"/><path id="Fill 128" fill-rule="evenodd" clip-rule="evenodd" d="M13.983 27.758C13.983 27.758 14.0146 27.5941 13.9896 27.528C13.965 27.4609 13.0947 27.5163 13.0248 27.6742C12.9542 27.832 13.0567 27.9731 13.0567 27.9731C13.0567 27.9731 13.2325 28.0011 13.1804 28.0835C13.1285 28.1659 13.249 28.4546 13.2812 28.4555C13.3138 28.4565 13.4647 28.4299 13.4751 28.483C13.4855 28.5351 13.6389 28.4662 13.6709 28.2916C13.7028 28.1175 13.8015 28.3223 13.8416 28.1822C13.8815 28.042 13.8581 27.9796 13.9185 28.0052C13.9786 28.0318 14.027 27.8646 13.983 27.758" fill="#ECC9C0" blush:i="0.0.3.0.0.29"/><path id="Fill 129" fill-rule="evenodd" clip-rule="evenodd" d="M11.7673 28.5C11.7673 28.5 11.2587 28.5578 11.1929 28.5762C11.1268 28.5951 11.0679 28.6424 11.0185 28.65C10.9688 28.6576 11.0295 28.7627 11.0793 28.7924C11.129 28.8225 10.9981 29.0343 11.1252 29.0603C11.2524 29.0864 11.3043 29.0098 11.3163 29.1498C11.3285 29.2894 11.2864 29.5613 11.3921 29.4875C11.4982 29.4137 11.6266 29.4057 11.7402 29.3267C11.8542 29.2473 11.9549 29.1979 11.9873 29.1013C12.02 29.0046 11.9842 28.7415 11.9401 28.6697C11.896 28.5983 11.79 28.652 11.7673 28.5" fill="#ECC9C0" blush:i="0.0.3.0.0.30"/><path id="Fill 130" fill-rule="evenodd" clip-rule="evenodd" d="M17 19.7792C17 19.7792 17.1718 19.8584 17.184 20.0096C17.1959 20.1612 17.1177 20.226 17.2539 20.2486C17.3895 20.2708 17.0778 20.3664 17.3515 20.4394C17.6253 20.5124 17.8439 20.5339 17.8921 20.4216C17.9409 20.3097 18.0329 20.0997 17.988 20.0185C17.9432 19.9366 17.8726 19.9507 17.8376 19.8181C17.8027 19.6854 17.6688 19.6054 17.5187 19.5631C17.3687 19.5209 17.2193 19.4853 17.1573 19.5061C17.095 19.5261 17 19.7792 17 19.7792" fill="#ECC9C0" blush:i="0.0.3.0.0.31"/><path id="Fill 131" fill-rule="evenodd" clip-rule="evenodd" d="M20.3051 19.5C20.3051 19.5 20.9376 19.8442 20.9442 19.8749C20.9516 19.9059 20.8946 19.9727 20.9574 20.0059C21.0203 20.0395 21.0052 20.0825 20.9659 20.0854C20.9262 20.0886 20.8976 20.1593 20.927 20.1767C20.9567 20.1939 20.9747 20.2555 20.935 20.3314C20.895 20.4079 20.8377 20.3915 20.7518 20.3979C20.6651 20.4047 20.7606 20.488 20.6151 20.499C20.4697 20.5103 20.5009 20.4244 20.4612 20.4237C20.4216 20.4234 20.2816 20.5668 20.1949 20.4551C20.1086 20.3433 20.1027 20.323 20.1174 20.2733C20.1321 20.2232 20.0851 20.2268 20.0355 20.2029C19.9856 20.179 19.9959 20.0876 20.0205 20.0544C20.0447 20.0211 20.2713 19.8739 20.2386 19.7864C20.2063 19.6989 20.0065 19.6382 20.3051 19.5" fill="#ECC9C0" blush:i="0.0.3.0.0.32"/><path id="Fill 132" fill-rule="evenodd" clip-rule="evenodd" d="M20.4323 20.6226C20.4323 20.6226 20.4011 20.5079 20.6257 20.5001C20.8509 20.4931 21.1566 20.7886 21.5487 20.8179C21.9421 20.8472 22.064 21.0485 21.9697 21.0781C21.8748 21.1081 21.3187 21.4439 21.2473 21.4891C21.1764 21.5347 20.7933 21.4256 20.7296 21.3793C20.6665 21.3327 20.5879 21.4241 20.4798 21.3631C20.3717 21.3023 20.4317 21.2285 20.3825 21.2314C20.3338 21.2335 19.8552 21.0096 20.0438 20.8998C20.2318 20.7907 20.4323 20.6226 20.4323 20.6226" fill="#ECC9C0" blush:i="0.0.3.0.0.33"/><path id="Fill 133" fill-rule="evenodd" clip-rule="evenodd" d="M23.8338 21.5C23.8338 21.5 23.3325 21.577 23.3274 21.6118C23.3234 21.6469 23.1115 22.1786 23.054 22.2454C22.9959 22.3122 22.9127 22.4032 23.2431 22.4148C23.5735 22.4264 23.9084 22.53 23.9796 22.4915C24.0514 22.4533 23.9671 22.3418 24.1653 22.3722C24.3636 22.4018 24.375 22.4185 24.4906 22.349C24.6057 22.2791 24.6957 22.1646 24.9161 22.153C25.1371 22.1414 24.8711 21.9124 24.6962 21.9046C24.5208 21.896 23.8338 21.5 23.8338 21.5" fill="#ECC9C0" blush:i="0.0.3.0.0.34"/><path id="Fill 134" fill-rule="evenodd" clip-rule="evenodd" d="M13 30.6765C13 30.6765 14.3993 30.2583 14.711 30.7093C15.022 31.1606 14.612 30.8989 14.9072 31.2279C15.2018 31.557 14.7115 31.4097 14.5909 31.3564C14.4702 31.3035 14.1399 31.6007 13.8751 31.4635C13.6109 31.3258 13.8294 31.1759 13.4364 31.2743C13.0433 31.373 13.4727 31.3232 13.2361 30.9998L13 30.6765Z" fill="#ECC9C0" blush:i="0.0.3.0.0.35"/><path id="Fill 135" fill-rule="evenodd" clip-rule="evenodd" d="M15.041 21.5C15.041 21.5 14.9588 21.7998 15.0272 21.857C15.0955 21.9141 15.1093 21.6578 15.1771 21.9604C15.2449 22.263 14.951 22.4316 15.2407 22.4453C15.5303 22.4586 16.4245 22.5584 16.5312 22.4502C16.6379 22.3419 16.4988 22.2079 16.6883 22.2067C16.8778 22.2055 17.0086 22.1085 16.9996 21.968C16.99 21.8276 15.041 21.5 15.041 21.5" fill="#ECC9C0" blush:i="0.0.3.0.0.36"/><path id="Fill 136" fill-rule="evenodd" clip-rule="evenodd" d="M18.2241 23.5226L18.3608 23.5079C18.4972 23.4932 18.8888 23.6969 18.9694 23.7047C19.0497 23.7121 18.949 23.7287 18.9283 23.879C18.9083 24.0293 18.8593 24.0293 18.8286 24.0324C18.7976 24.0359 18.9512 24.1998 18.9136 24.2315C18.876 24.2629 18.7856 24.2401 18.7794 24.3392C18.7731 24.4384 18.6295 24.5008 18.4994 24.5C18.3692 24.4992 18.3178 24.4008 18.1824 24.4318C18.0475 24.4632 18.1488 23.9584 18.1488 23.9584C18.1488 23.9584 18.0648 23.9623 18.0607 23.9023C18.0563 23.8426 17.9193 23.4792 18.072 23.5009L18.2241 23.5226Z" fill="#ECC9C0" blush:i="0.0.3.0.0.37"/><path id="Fill 137" fill-rule="evenodd" clip-rule="evenodd" d="M16.7918 24.8107C16.7918 24.8107 16.9261 24.8131 16.9274 24.8287C16.9287 24.8443 16.9962 24.8695 16.9995 24.7753C17.0028 24.6808 16.9919 24.6387 16.8828 24.6482C16.7745 24.6584 16.5584 24.5951 16.4165 24.553C16.2749 24.5108 16.0349 24.4816 16.0299 24.5135C16.0246 24.5455 16 24.7475 16 24.7475C16 24.7475 16.1137 24.8039 16.123 24.8542C16.1326 24.9042 16.1114 25.1769 16.1566 25.2431C16.2021 25.3101 16.708 25.3978 16.7618 25.4437C16.8157 25.49 16.936 25.5498 16.9294 25.4284C16.9227 25.3077 16.8838 25.3033 16.8779 25.2333C16.8719 25.1633 16.8466 25.1813 16.843 25.1384C16.8393 25.0956 16.8682 25.0341 16.8509 25.0082C16.8333 24.9824 16.6987 24.8872 16.7918 24.8107" fill="#ECC9C0" blush:i="0.0.3.0.0.38"/><path id="Fill 138" fill-rule="evenodd" clip-rule="evenodd" d="M20.1425 25.5C20.1425 25.5 20.686 25.6019 20.7779 25.6426C20.8698 25.6835 20.9033 25.735 20.9448 25.7858C20.986 25.8366 21.0231 25.9903 20.9823 26.1679C20.9419 26.3456 20.7393 26.5497 20.5444 26.4891C20.3492 26.4285 20.4786 26.3039 20.3822 26.2872C20.2863 26.2712 20.0344 26.2485 20.0587 26.1565C20.0837 26.0644 20.1333 26.0844 20.0329 25.9238C19.9326 25.7632 20.0958 25.8209 20.0726 25.7363C20.0495 25.6517 19.9307 25.5406 20.1425 25.5" fill="#ECC9C0" blush:i="0.0.3.0.0.39"/><path id="Fill 139" fill-rule="evenodd" clip-rule="evenodd" d="M16.2374 26.5L17.5136 26.668C17.5136 26.668 17.7933 26.9187 17.8965 26.9321C17.9997 26.9456 17.959 27.3962 17.8892 27.453C17.8188 27.5103 18.0658 27.4405 17.9827 27.8527C17.9001 28.2644 17.7636 28.5246 17.6969 28.4982C17.6307 28.4717 17.0967 28.2185 17.0967 28.2185L17.1234 27.9773L16.4024 27.5412L16.4364 26.8663C16.4364 26.8663 15.9922 26.9346 16.0001 26.8195C16.0086 26.7044 16.2374 26.5 16.2374 26.5" fill="#ECC9C0" blush:i="0.0.3.0.0.40"/><path id="Fill 140" fill-rule="evenodd" clip-rule="evenodd" d="M17.1924 28.5C17.1924 28.5 17.4706 28.6586 17.6084 28.6498C17.7461 28.6414 17.7774 28.6532 17.7836 28.7024C17.7898 28.7512 17.7836 28.6855 17.8662 28.8098C17.9493 28.9341 18.0543 29.0839 17.9674 29.1576C17.8805 29.2314 17.9403 29.559 17.7974 29.4907C17.6544 29.4227 17.5115 29.4318 17.3861 29.2758C17.2612 29.1203 17.1112 29.1364 17.1083 28.891C17.1059 28.6461 16.8172 28.8189 17.1924 28.5" fill="#ECC9C0" blush:i="0.0.3.0.0.41"/><path id="Fill 141" fill-rule="evenodd" clip-rule="evenodd" d="M13.3695 23.5C13.3695 23.5 13.9059 23.7478 14.304 23.7785C14.7016 23.8088 14.9881 23.9142 14.9615 24.0604C14.9348 24.206 14.9604 24.256 14.9954 24.3961C15.0303 24.5367 14.8549 24.4867 14.8982 24.6784C14.9415 24.8702 14.7321 25.3317 14.7321 25.3317C14.7321 25.3317 14.1802 25.2366 14.3257 25.3674C14.4701 25.4981 14.6527 25.469 14.4701 25.4981C14.2885 25.5267 13.9053 25.2218 13.9925 25.0185C14.0797 24.8152 13.6055 24.9608 13.6127 24.7515L13.6205 24.5416C13.6205 24.5416 13.1202 24.6477 13.1996 24.3812C13.2795 24.1153 12.6032 23.6242 13.3695 23.5" fill="#ECC9C0" blush:i="0.0.3.0.0.42"/></g></g></g><g id="Chair" blush:component="Chair" blush:defaultValue="Wooden 1" blush:width="69" blush:height="117" transform="translate(47.5 138) scale(1 1)" blush:i="0.0.4" blush:value="Wooden 1" blush:viewBox="-0.29237288135593076 0 68.99999999999999 116.99999999999997"><g id="Chair/Wooden 1" blush:viewBox="-0.29237288135593076 0 68.99999999999999 116.99999999999997" blush:i="0.0.4.0"><g id="Chair" blush:i="0.0.4.0.0"><path id="Fill 1" fill-rule="evenodd" clip-rule="evenodd" d="M17.2692 54.1488L3.60815 109.334C3.88415 110.253 4.98815 110.619 5.75915 110.046L5.82915 109.995L21.0112 54.4638L17.2692 54.1488Z" fill="#D69E63" blush:i="0.0.4.0.0.0"/><path id="Fill 3" fill-rule="evenodd" clip-rule="evenodd" d="M32.5139 56.5482L33.0109 116.231C33.5119 117.049 34.6729 117.121 35.2719 116.372L35.3259 116.304L36.2129 55.8992L32.5139 56.5482Z" fill="#D69E63" blush:i="0.0.4.0.0.1"/><path id="Fill 5" fill-rule="evenodd" clip-rule="evenodd" d="M34.1921 46.9115L41.4461 106.154C42.0371 106.91 43.1991 106.85 43.7091 106.038L43.7551 105.965L37.7941 45.8475L34.1921 46.9115Z" fill="#D69E63" blush:i="0.0.4.0.0.2"/><path id="Fill 7" fill-rule="evenodd" clip-rule="evenodd" d="M50.926 49.6917L66.087 107.42C66.774 108.089 67.917 107.875 68.313 107.001L68.349 106.921L54.352 48.1537L50.926 49.6917Z" fill="#D69E63" blush:i="0.0.4.0.0.3"/><path id="Fill 9" fill-rule="evenodd" clip-rule="evenodd" d="M19.5915 13.1859C19.5915 13.1859 6.32548 15.1539 1.39648 10.2249C-3.53252 5.29591 5.37648 0.795909 15.7715 0.0939091C28.1445 -0.741091 40.7345 4.14191 32.3835 8.79591C24.0315 13.4509 19.5915 13.1859 19.5915 13.1859" fill="#D69E63" blush:i="0.0.4.0.0.4"/><path id="Fill 11" fill-rule="evenodd" clip-rule="evenodd" d="M8.01099 11.6722C8.01099 11.6722 15.807 45.8842 16.639 46.7922C17.472 47.7002 18.91 46.1872 18.91 46.1872C18.91 46.1872 11.871 14.3972 10.66 12.8082C9.44899 11.2182 8.01099 11.6722 8.01099 11.6722" fill="#D69E63" blush:i="0.0.4.0.0.5"/><path id="Fill 13" fill-rule="evenodd" clip-rule="evenodd" d="M18.1531 11.1429C18.1531 11.1429 20.5751 32.9409 23.8301 44.4459C23.8301 44.4459 24.2081 45.4299 25.1171 45.4299C26.0251 45.4299 26.0251 44.5969 26.0251 44.5969C26.0251 44.5969 22.3161 7.13088 18.1531 11.1429" fill="#D69E63" blush:i="0.0.4.0.0.6"/><path id="Fill 15" fill-rule="evenodd" clip-rule="evenodd" d="M26.7063 9.93201C26.7063 9.93201 29.4313 42.403 30.2633 43.916C31.0963 45.43 32.4583 43.84 32.4583 43.84C32.4583 43.84 29.6583 10.992 28.5983 8.26601C27.5393 5.54101 26.7063 9.93201 26.7063 9.93201" fill="#D69E63" blush:i="0.0.4.0.0.7"/><path id="Fill 17" fill-rule="evenodd" clip-rule="evenodd" d="M57.2848 48.3822C57.2848 48.3822 25.4198 37.4062 13.9148 48.9112C13.9148 48.9112 14.5198 50.6532 20.5758 53.2262C26.6308 55.7992 36.5458 55.8752 41.6928 54.6642C46.8398 53.4532 56.4518 51.1072 57.2848 48.3822" fill="#D69E63" blush:i="0.0.4.0.0.8"/><path id="Fill 19" fill-rule="evenodd" clip-rule="evenodd" d="M57.2848 48.3822C57.2848 48.3822 43.7828 54.1342 37.9248 54.0392C32.0668 53.9442 13.9148 48.9112 13.9148 48.9112L13.9248 53.2362C13.9248 53.2362 14.8228 54.6532 14.9638 54.6532C15.1058 54.6532 33.9088 59.8032 41.3738 58.3862C48.8378 56.9682 57.5308 53.2362 57.5308 53.2362C57.5308 53.2362 57.6998 49.1502 57.2848 48.3822" fill="#AA7133" blush:i="0.0.4.0.0.9"/></g></g></g></g><g id="Master/Female Character/Sitting" blush:has-customizable-colors="true" blush:component="Master/Female Character/Sitting" blush:width="271" blush:height="255" transform="translate(-49 0) scale(1 1)" blush:i="0.1" blush:value="Sitting" blush:viewBox="67.75 62.39361702127661 127.36999999999996 192.60638297872333"><g id="Master/Female Character/Sitting" blush:has-customizable-colors="true" blush:viewBox="67.75 62.39361702127661 127.36999999999996 192.60638297872333" blush:i="0.1.0"><g id="Female Character Sitting/Lower Body" blush:component="Female Character Sitting/Lower Body" blush:defaultValue="Skirt 2" blush:width="126" blush:height="147" transform="translate(68 108) scale(1 1)" blush:i="0.1.0.0" blush:value="Skirt 2" blush:viewBox="40.60489510489512 31.60499999999999 84.44055944055945 115.39499999999998"><g id="Female Character Sitting/Lower Body/Skirt 2" blush:viewBox="40.60489510489512 31.60499999999999 84.44055944055945 115.39499999999998" blush:i="0.1.0.0.0"><g id="Group 20" blush:i="0.1.0.0.0.0"><path id="Fill 1" fill-rule="evenodd" clip-rule="evenodd" d="M58.7325 35.215C58.7325 35.215 63.9955 31.613 69.6735 31.891C75.3515 32.168 79.6635 33.968 81.2465 42.694C81.2465 42.694 94.0485 45.048 106.789 56.958C119.53 68.868 120.085 69.284 118.422 78.979C116.761 88.673 111.914 100.445 111.914 100.445L110.236 118.667C110.236 118.667 112.583 125.131 115.661 127.208C118.739 129.286 120.689 130.286 119.099 131.748C117.508 133.21 117.123 131.441 114.045 131.748C110.967 132.056 110.659 130.441 110.659 130.441C110.659 130.441 114.276 139.136 120.663 142.906C120.663 142.906 122.817 144.907 120.663 145.83C118.508 146.754 112.506 146.677 109.659 144.753C106.812 142.829 100.963 137.904 99.0405 137.365C97.1165 136.827 98.0395 133.98 98.0395 133.98L100.81 126.285C100.81 126.285 100.04 125.284 97.8855 124.592C95.7315 123.9 94.5775 120.976 94.8075 119.898C95.0385 118.82 98.8865 113.358 98.9635 109.356C98.9635 109.356 97.0395 103.893 94.4235 99.044C91.8065 94.196 95.1925 82.423 97.1165 79.268C97.1165 79.268 94.1155 79.73 88.4205 80.192C82.7265 80.653 63.3865 82.041 52.0445 75.794C40.7015 69.546 41.8185 48.364 58.7325 35.215" fill="#ffc280" blush:color="Skin-500" blush:i="0.1.0.0.0.0.0"/><path id="Fill 3" fill-rule="evenodd" clip-rule="evenodd" d="M74.0571 50.8448C77.7781 51.6988 81.4541 52.7788 85.0481 54.0888C88.6381 55.4068 92.1761 56.8978 95.5571 58.7118C98.9291 60.5328 102.19 62.6088 105.095 65.1488C108.007 67.6598 110.502 70.7528 112.037 74.3318L112.063 74.3928V74.4598C112.091 78.7908 112.075 83.1208 112.051 87.4518C112.051 91.7828 111.963 96.1149 111.914 100.446C111.802 96.1159 111.651 91.7858 111.588 87.4548C111.502 83.1258 111.423 78.7958 111.388 74.4648L111.414 74.5928C109.914 71.1448 107.45 68.1798 104.608 65.7018C101.78 63.1898 98.5741 61.1128 95.2471 59.2838C91.9061 57.4758 88.4491 55.8658 84.8971 54.4878C81.3461 53.1118 77.7461 51.8328 74.0571 50.8448" fill="black" blush:i="0.1.0.0.0.0.1"/><path id="Fill 5" fill-rule="evenodd" clip-rule="evenodd" d="M98.9634 109.356C99.5864 110.666 100.068 112.037 100.49 113.424C100.904 114.816 101.23 116.235 101.459 117.673C101.644 119.115 101.797 120.572 101.711 122.033C101.624 123.487 101.377 124.947 100.81 126.286C101.179 124.882 101.319 123.453 101.326 122.023C101.332 120.592 101.185 119.163 100.965 117.748C100.78 116.325 100.452 114.924 100.121 113.525C99.7794 112.127 99.3934 110.738 98.9634 109.356" fill="black" blush:i="0.1.0.0.0.0.2"/><path id="Fill 7" fill-rule="evenodd" clip-rule="evenodd" d="M110.237 118.667C110.111 120.652 110.003 122.619 110.022 124.586C110.041 126.553 110.183 128.507 110.66 130.44C110.229 129.54 109.967 128.563 109.783 127.579C109.606 126.592 109.544 125.59 109.523 124.591C109.52 123.591 109.57 122.593 109.692 121.603C109.812 120.613 109.97 119.628 110.237 118.667" fill="black" blush:i="0.1.0.0.0.0.3"/><path id="Fill 9" fill-rule="evenodd" clip-rule="evenodd" d="M96.7886 79.3156C96.8556 78.7506 97.1166 78.2566 97.4306 77.8146C97.7596 77.3826 98.1606 76.9926 98.6776 76.7606C98.5616 77.0226 98.4146 77.2426 98.2756 77.4666C98.1386 77.6926 97.9826 77.8996 97.8326 78.1116C97.5156 78.5256 97.2006 78.9306 96.7886 79.3156" fill="#7A3710" blush:i="0.1.0.0.0.0.4"/><g id="Group 13" blush:i="0.1.0.0.0.0.5"><path id="Fill 11" fill-rule="evenodd" clip-rule="evenodd" d="M99.934 127.373C99.934 127.373 100.353 127.311 100.392 127.447C100.428 127.577 100.144 128.135 100.144 128.135C100.727 130.276 102.338 136.349 102.512 138.775C102.544 139.224 102.781 139.625 103.154 139.875L109.585 144.177C110.159 144.561 110.932 144.406 111.314 143.83C112.352 142.267 114.49 139.551 116.73 139.709C116.73 139.709 125.124 144.311 125.124 144.896C125.124 145.48 119.837 148.62 110.214 145.918C110.214 145.918 102.489 140.442 99.934 138.836C97.378 137.229 95.626 136.499 96.867 133.579C98.108 130.658 99.934 127.373 99.934 127.373" fill="#F90606" blush:i="0.1.0.0.0.0.5.0"/></g><path id="Fill 14" fill-rule="evenodd" clip-rule="evenodd" d="M110.562 130.163L111.001 131.194C111.001 131.194 115.524 133.963 121.771 131.393C121.771 131.393 122.449 130.988 121.907 130.745C121.364 130.501 115.825 126.853 115.377 127C114.929 127.147 112.74 130.473 110.562 130.163" fill="#F90606" blush:i="0.1.0.0.0.0.6"/><path id="Fill 16" fill-rule="evenodd" clip-rule="evenodd" d="M96.8716 115.22C96.8716 115.22 91.7066 120.217 93.5756 123.197C94.1856 124.169 100.691 126.616 100.691 126.616L100.81 126.285C100.433 125.338 99.3716 123.212 99.1036 121.764L96.8716 115.22Z" fill="#F90606" blush:i="0.1.0.0.0.0.7"/><path id="Fill 18" fill-rule="evenodd" clip-rule="evenodd" d="M69.6735 31.8908C69.6735 31.8908 62.6954 30.5408 57.2704 35.1398C51.8444 39.7388 33.2734 56.9968 44.5894 70.1238C55.9044 83.2518 78.8134 82.3508 95.0294 79.7778C95.0294 79.7778 95.1524 80.3018 94.6544 80.8208C94.6544 80.8208 107.144 84.9008 111.914 82.7878C116.683 80.6758 116.591 81.1348 118.841 80.1708C118.841 80.1708 121.465 73.0438 117.726 67.6158C113.987 62.1878 95.5494 44.5498 81.2464 42.6938L79.7295 36.6158C79.7295 36.6158 79.3305 31.5098 69.6735 31.8908" fill="#FF990A" blush:i="0.1.0.0.0.0.8"/></g></g></g><g id="Female Character/Upper Body" blush:component="Female Character/Upper Body" blush:defaultValue="Sweater 9" blush:width="106" blush:height="123" transform="translate(82 93) scale(1 1)" blush:i="0.1.0.1" blush:value="Button Shirt 2" blush:viewBox="20.720417633410676 0 51.03248259860786 66.41999999999999"><g id="Female Character/Upper Body/Button Shirt 2" blush:viewBox="20.720417633410676 0 51.03248259860786 66.41999999999999" blush:i="0.1.0.1.0"><path id="Fill 55" fill-rule="evenodd" clip-rule="evenodd" d="M51.124 1.21845C51.124 1.21845 52.0261 9.92579 44.0001 14.3982C44.0001 14.3982 43.8584 20 52.8344 20C61.8104 20 62 15.2458 62 15.2458C62 15.2458 57.8688 12.1847 57.3928 11.4321C57.3928 11.4321 57.6782 8.46699 58.4386 7.1961C59.1979 5.9252 59.8156 2.53683 56.1115 0.700194C52.4063 -1.13543 51.124 1.21845 51.124 1.21845" fill="#ffc280" blush:color="Skin-500" blush:i="0.1.0.1.0.0"/><g id="Group" blush:i="0.1.0.1.0.1"><g id="Group 14" blush:i="0.1.0.1.0.1.0"><path id="Fill 1" fill-rule="evenodd" clip-rule="evenodd" d="M36.0737 53.502C36.0737 53.502 36.9287 52.035 38.6397 52.769C40.3517 53.502 41.6957 55.886 43.9567 56.618C46.2187 57.352 46.8287 57.413 47.4407 57.841C48.0517 58.269 50.0797 61.08 51.8457 61.508C51.8457 61.508 51.3517 62.427 47.9907 61.141C47.9907 61.141 48.4187 61.996 48.4187 62.669C48.4187 62.669 47.2017 64.44 43.9597 66.152C43.9597 66.152 40.7187 59.919 39.9847 58.94C39.2517 57.963 34.6067 56.436 36.0737 53.502" fill="#ffc280" blush:color="Skin-500" blush:i="0.1.0.1.0.1.0.0"/><g id="Group 5" blush:i="0.1.0.1.0.1.0.1"><path id="Fill 3" fill-rule="evenodd" clip-rule="evenodd" d="M49.0659 9.1137C49.0659 9.1137 51.1383 12.9224 54.5777 12.5131C58.0171 12.1038 57.7793 10.6958 57.7793 10.6958L60.6307 13.7011L60.7687 14.0451C60.7687 14.0451 65.3617 16.7831 66.3117 17.7331C67.2627 18.6841 70.1137 19.8721 69.2427 25.8911C69.2427 25.8911 71.4667 30.9591 71.4667 32.3061C71.4667 33.6521 71.3807 35.9481 68.6087 40.3051C68.6087 40.3051 69.3217 45.1361 68.4507 46.3231C67.5797 47.5121 65.5997 51.5511 57.2837 51.4721C48.9677 51.3921 43.8997 51.1461 43.1867 49.6861C42.4737 48.2251 41.7617 46.5621 41.9197 44.2651C42.0777 41.9681 40.2567 33.5731 38.8307 31.5141L29.7237 43.0761L43.1077 55.3521C43.1077 55.3521 42.4737 58.4981 39.6227 59.8551C39.6227 59.8551 24.9167 50.1251 22.9917 48.8571C21.0657 47.5911 19.9817 45.2941 22.3577 40.8591C24.7337 36.4241 33.2877 16.2291 44.2167 13.2991L49.0659 9.1137Z" fill="#DAEDEB" blush:i="0.1.0.1.0.1.0.1.0"/></g><path id="Fill 6" fill-rule="evenodd" clip-rule="evenodd" d="M53.9916 14.0528L53.2986 15.5518L51.9526 18.3328C51.3226 18.1038 50.7206 17.7198 50.1406 17.3208C49.5096 16.8728 48.8986 16.3858 48.3106 15.8698C47.1156 14.8608 45.9736 13.7808 44.8296 12.6958C45.7996 13.9418 46.8806 15.0958 48.0286 16.1878C48.6116 16.7228 49.2216 17.2328 49.8626 17.7088C50.5026 18.1858 51.1916 18.6228 52.0106 18.8548C52.1176 18.8848 52.2336 18.8338 52.2816 18.7298C52.7496 17.7258 53.2076 16.7198 53.6066 15.6868C53.8056 15.1688 54.0176 14.6578 54.1836 14.1278C54.3456 13.5998 54.5336 13.0688 54.5776 12.5128C54.4436 13.0488 54.2146 13.5498 53.9916 14.0528" fill="#9FB1B7" blush:i="0.1.0.1.0.1.0.2"/><path id="Fill 8" fill-rule="evenodd" clip-rule="evenodd" d="M59.3326 16.4024C58.8356 17.0244 58.3076 17.6284 57.7526 18.1914C57.3666 17.2854 56.9716 16.3824 56.5536 15.4904C56.0756 14.4894 55.5966 13.4874 55.0576 12.5124C55.3906 13.5764 55.7856 14.6134 56.1796 15.6504C56.5836 16.6834 57.0066 17.7084 57.4506 18.7244L57.4546 18.7324C57.4656 18.7594 57.4826 18.7844 57.5046 18.8064C57.5996 18.9004 57.7516 18.9004 57.8466 18.8054C58.5206 18.1314 59.1186 17.4064 59.6266 16.6094C60.1376 15.8214 60.5686 14.9624 60.7686 14.0464C60.3926 14.9004 59.8886 15.6724 59.3326 16.4024" fill="#9FB1B7" blush:i="0.1.0.1.0.1.0.3"/><path id="Fill 10" fill-rule="evenodd" clip-rule="evenodd" d="M54.7427 12.7784C55.6707 15.9974 56.5417 19.2284 57.4357 22.4514L58.7917 27.2764C59.0277 28.0764 59.2707 28.8724 59.5317 29.6594C59.6747 30.0354 59.7977 30.4564 59.9647 30.7844C60.0337 30.9464 60.1407 31.1534 60.2437 31.3564C60.3327 31.5604 60.4197 31.7664 60.4897 31.9744C61.4697 35.3314 60.9437 38.9144 59.7787 42.0164C59.3477 43.5904 59.2927 45.2684 59.1527 46.9404C59.0667 47.7754 58.9647 48.6224 58.7127 49.4354C58.4707 50.2434 58.0087 51.0284 57.2837 51.4714C57.9597 50.9584 58.3317 50.1744 58.5217 49.3824C58.7117 48.5794 58.7567 47.7474 58.7857 46.9164C58.8527 45.2554 58.8367 43.5564 59.2197 41.8744C59.4377 41.0174 59.7117 40.2684 59.8907 39.4644C60.0767 38.6654 60.1947 37.8504 60.2547 37.0334C60.3667 35.4064 60.2757 33.7294 59.7797 32.2144C59.7197 32.0254 59.6447 31.8434 59.5697 31.6644C59.4857 31.4934 59.4027 31.3274 59.3067 31.1044C59.1027 30.6814 59.0017 30.2914 58.8527 29.8834C58.5967 29.0784 58.3637 28.2714 58.1367 27.4634C57.6937 25.8444 57.2587 24.2264 56.8797 22.5944C56.1007 19.3374 55.3697 16.0694 54.7427 12.7784" fill="#9FB1B7" blush:i="0.1.0.1.0.1.0.4"/><path id="Fill 12" fill-rule="evenodd" clip-rule="evenodd" d="M38.8306 31.5137C39.5846 30.4987 40.4596 29.6007 41.3776 28.7467C41.8436 28.3277 42.3146 27.9147 42.8216 27.5407C43.3246 27.1647 43.8396 26.7977 44.4076 26.5147C43.5206 27.4117 42.6316 28.2707 41.7146 29.1167C40.7886 29.9497 39.8566 30.7767 38.8306 31.5137" fill="#9FB1B7" blush:i="0.1.0.1.0.1.0.5"/></g><path id="Path 7" d="M40.627 52.9661L40.6664 52.9732C40.7315 52.9961 40.7657 53.0675 40.7428 53.1326C39.8538 55.6577 38.8177 57.478 37.6305 58.5936C37.5802 58.6408 37.5011 58.6384 37.4538 58.5881C37.4066 58.5378 37.409 58.4586 37.4593 58.4114C38.6129 57.3274 39.6301 55.5402 40.507 53.0496C40.5253 52.9975 40.5746 52.9652 40.627 52.9661Z" fill="#9FB1B7" blush:i="0.1.0.1.0.1.1"/></g></g></g><g id="Female Character/Head" blush:component="Female Character/Head" blush:defaultValue="Pixie Cut 4" blush:width="53" blush:height="71" transform="translate(111 63) scale(1 1)" blush:i="0.1.0.2" blush:value="Hijab 3" blush:viewBox="8.916219839142094 8.519999999999996 30.549597855227873 40.47"><g id="Female Character/Head/Hijab 3" blush:viewBox="8.916219839142094 8.519999999999996 30.549597855227873 40.47" blush:i="0.1.0.2.0"><g id="Group 186" blush:i="0.1.0.2.0.0"><path id="Fill 55" fill-rule="evenodd" clip-rule="evenodd" d="M15.528 44.2991C15.528 44.2991 15.6941 48.1564 24.5001 48.1564C33.3061 48.1564 33.187 45.1381 33.187 45.1381C33.187 45.1381 29.134 42.1081 28.667 41.3631C28.667 41.3631 28.947 38.4281 29.693 37.1701C30.438 35.9121 31.044 32.5581 27.41 30.7401C23.775 28.9231 22.517 31.2531 22.517 31.2531C22.517 31.2531 23.402 39.8721 15.528 44.2991Z" fill="#ffc280" blush:color="Skin-500" blush:i="0.1.0.2.0.0.0"/><path id="Fill 57" fill-rule="evenodd" clip-rule="evenodd" d="M20.3001 32.0305C20.3001 32.0305 21.4341 34.2984 23.9141 35.7864C26.3941 37.2744 29.5121 39.5424 31.0711 39.0464C32.6311 38.5504 36.7621 35.3844 37.7541 31.8414C38.7461 28.2984 39.3631 22.3925 38.7251 19.4865C38.0881 16.5815 34.4731 10.4865 28.0251 10.4865C21.5751 10.4865 15.8361 17.2894 17.3941 24.8014C17.3941 24.8014 15.6021 26.9995 17.1361 29.2665C18.6701 31.5345 20.3001 32.0305 20.3001 32.0305" fill="#ffc280" blush:color="Skin-500" blush:i="0.1.0.2.0.0.1"/><path id="Fill 59" fill-rule="evenodd" clip-rule="evenodd" d="M24.1478 27.2823C24.1478 27.2823 26.9948 27.3523 27.7508 27.9023C27.7508 27.9023 28.0278 28.0003 27.9208 27.6363C27.9208 27.6363 28.3288 27.9283 28.3558 27.7693C28.3818 27.6093 28.1778 26.0683 26.5748 25.8553C24.9718 25.6433 23.7668 27.1133 24.1478 27.2823" fill="black" blush:i="0.1.0.2.0.0.2"/><path id="Fill 61" fill-rule="evenodd" clip-rule="evenodd" d="M36.6205 26.8741C36.6205 26.8741 34.8145 26.8481 34.0825 27.3961C34.0825 27.3961 33.8145 27.4941 33.9165 27.1311C33.9165 27.1311 33.5225 27.4231 33.4965 27.2641C33.4715 27.1041 34.2055 25.6521 35.7585 25.4391C37.3105 25.2271 37.7185 26.5851 36.6205 26.8741" fill="black" blush:i="0.1.0.2.0.0.3"/><path id="Fill 63" fill-rule="evenodd" clip-rule="evenodd" d="M31.8901 32.2247C31.8901 32.2247 31.6771 32.4027 31.8901 32.5787C32.1021 32.7567 33.5021 32.2607 33.8211 31.7997C34.1401 31.3387 33.9511 31.2867 33.4961 31.5517C33.0411 31.8177 31.8901 32.2247 31.8901 32.2247" fill="black" blush:i="0.1.0.2.0.0.4"/><path id="Fill 65" fill-rule="evenodd" clip-rule="evenodd" d="M29.0198 33.6602C29.0198 33.6602 28.9318 33.5012 29.6928 33.5012C30.4548 33.5012 30.3838 33.6422 31.6238 33.6602C32.8638 33.6782 33.3718 33.6602 32.8878 33.9782C32.4038 34.2982 32.4388 34.2802 32.3508 34.5282C32.2618 34.7762 31.1408 35.2192 30.2568 34.9182C29.3738 34.6162 28.4718 33.8172 29.0198 33.6602" fill="#EE4E2F" blush:i="0.1.0.2.0.0.5"/><path id="Fill 67" fill-rule="evenodd" clip-rule="evenodd" d="M23.699 23.1007C23.834 23.0587 23.652 23.3367 24.266 23.2307C24.88 23.1247 26.557 22.9357 28.069 23.8807C28.069 23.8807 28.339 23.6677 28.358 23.2667C28.375 22.8907 25.829 21.6037 23.663 23.0307C23.515 23.1277 23.561 23.1437 23.699 23.1007" fill="black" blush:i="0.1.0.2.0.0.6"/><path id="Fill 69" fill-rule="evenodd" clip-rule="evenodd" d="M36.6204 23.2424C36.6204 23.2424 35.7224 22.2744 34.2104 22.7224C32.6994 23.1724 32.8394 23.8564 32.8874 24.0464C32.9354 24.2344 34.0214 23.3124 35.1554 23.3254C36.2894 23.3374 36.6204 23.5734 36.6204 23.2424" fill="black" blush:i="0.1.0.2.0.0.7"/></g><g id="Group 23" blush:i="0.1.0.2.0.1"><g id="Group 3" blush:i="0.1.0.2.0.1.0"><path id="Fill 1" fill-rule="evenodd" clip-rule="evenodd" d="M38.3997 29.1102C38.3997 29.1102 41.3217 19.0035 36.8567 14.6405C32.3897 10.2755 24.6377 5.86051 19.6077 10.4305C14.5757 14.9995 13.2927 17.7715 12.4197 21.3145C11.5467 24.8565 10.7257 28.6545 14.3707 33.4295C14.3707 33.4295 14.9357 35.3805 15.8077 35.8935C16.6807 36.4065 18.4257 38.0495 18.4257 38.0495C18.4257 38.0495 16.9377 38.4605 17.2447 40.2575C17.2447 40.2575 16.2187 40.2575 15.8597 41.0265C15.4997 41.7975 15.0887 42.7215 13.9077 42.8755C12.7277 43.0295 11.8557 42.4645 10.5707 44.0565C9.28767 45.6485 8.51867 46.7265 9.33967 47.0335C9.33967 47.0335 10.9827 46.1095 11.3927 46.1095C11.3927 46.1095 23.7657 52.2185 34.5457 46.1095C34.5457 46.1095 32.6977 43.9535 32.4417 43.6965C32.1847 43.4405 31.4147 43.2345 31.4147 43.2345L30.2337 40.5145L30.9017 39.0765C30.9017 39.0765 24.2817 37.4345 22.7657 34.4045C21.2497 31.3755 19.9147 23.0085 23.2517 19.6195C26.5887 16.2315 40.6587 14.8813 38.3997 28.1773V29.1102Z" fill="#69313B" blush:i="0.1.0.2.0.1.0.0"/></g><path id="Fill 4" fill-rule="evenodd" clip-rule="evenodd" d="M28.2313 12.5348C27.3083 13.1178 26.3753 13.6788 25.4693 14.2808C24.5553 14.8638 23.6433 15.4618 22.8123 16.1288C22.6093 16.2958 22.4023 16.4688 22.2343 16.6488C22.0413 16.8418 21.9523 16.9658 21.8353 17.2238C21.6243 17.6998 21.4373 18.2018 21.2873 18.7128C20.9773 19.7328 20.7723 20.7858 20.6403 21.8458C20.3603 23.9638 20.4103 26.1278 20.7963 28.2398C21.1683 30.3558 21.8683 32.4158 22.7653 34.4048C21.5923 32.5618 20.7323 30.5078 20.2313 28.3538C19.7143 26.2018 19.6653 23.9528 19.8973 21.7498C20.0573 20.6518 20.2933 19.5648 20.6373 18.5078C20.8063 17.9768 21.0093 17.4598 21.2513 16.9448C21.3533 16.7068 21.5823 16.3758 21.7943 16.2038C22.0113 15.9998 22.2363 15.8368 22.4633 15.6718C24.2903 14.4078 26.2393 13.4328 28.2313 12.5348" fill="#24273A" blush:i="0.1.0.2.0.1.1"/><path id="Fill 6" fill-rule="evenodd" clip-rule="evenodd" d="M20.1172 23.6754C20.3882 22.7064 20.8712 21.8204 21.4652 21.0124C21.7742 20.6174 22.0972 20.2284 22.4952 19.9084C22.8842 19.5864 23.3152 19.2974 23.8012 19.1544C23.0392 19.8014 22.4462 20.5364 21.8642 21.3134C21.2752 22.0804 20.7342 22.8854 20.1172 23.6754" fill="#24273A" blush:i="0.1.0.2.0.1.2"/><g id="Group 10" blush:i="0.1.0.2.0.1.3"><path id="Fill 8" fill-rule="evenodd" clip-rule="evenodd" d="M32.4922 13.151C33.6842 13.685 34.7562 14.467 35.7232 15.358C36.6952 16.249 37.5152 17.312 38.1582 18.478C38.8052 19.642 39.2072 20.951 39.3262 22.273C39.5022 23.598 39.2632 24.928 38.9082 26.169C38.9582 24.868 39.0392 23.591 38.7552 22.354C38.5122 21.125 38.1232 19.923 37.4992 18.834C36.9092 17.729 36.1532 16.713 35.3142 15.76C34.8922 15.286 34.4432 14.831 33.9662 14.405C33.5072 13.954 33.0042 13.553 32.4922 13.151" fill="#24273A" blush:i="0.1.0.2.0.1.3.0"/></g><path id="Fill 11" fill-rule="evenodd" clip-rule="evenodd" d="M33.6221 17.566C34.2821 17.832 34.8981 18.186 35.4941 18.573C36.0931 18.958 36.6461 19.41 37.1691 19.9C37.6841 20.395 38.1571 20.953 38.5051 21.592C38.8511 22.221 39.0991 22.962 38.9611 23.675C38.8861 22.965 38.5661 22.349 38.1791 21.795C37.7791 21.246 37.3271 20.729 36.8221 20.26C35.8301 19.299 34.7301 18.447 33.6221 17.566" fill="#24273A" blush:i="0.1.0.2.0.1.4"/><path id="Fill 13" fill-rule="evenodd" clip-rule="evenodd" d="M15.0381 24.2399C15.7901 26.1119 16.5801 27.9469 17.5001 29.7159C17.9611 30.5989 18.4671 31.4549 19.0011 32.2949C19.5551 33.1219 20.1651 33.9069 20.8391 34.6619C20.0241 34.0609 19.3201 33.3159 18.6871 32.5179C18.0661 31.7129 17.5361 30.8419 17.0571 29.9469C16.5971 29.0429 16.1841 28.1149 15.8491 27.1599C15.5121 26.2059 15.2171 25.2359 15.0381 24.2399" fill="#24273A" blush:i="0.1.0.2.0.1.5"/><path id="Fill 15" fill-rule="evenodd" clip-rule="evenodd" d="M12.0701 29.0192C12.7481 30.0412 13.4751 31.0162 14.2501 31.9272C15.0241 32.8592 15.9051 33.5812 16.9161 34.2752C18.8821 35.6962 20.8821 37.0902 22.7651 38.6652C20.5571 37.5872 18.4781 36.3032 16.4771 34.8832C15.9861 34.5132 15.4881 34.1602 15.0151 33.7172C14.5581 33.2762 14.1501 32.7982 13.7921 32.2892C13.0651 31.2782 12.4911 30.1742 12.0701 29.0192" fill="#24273A" blush:i="0.1.0.2.0.1.6"/><path id="Fill 17" fill-rule="evenodd" clip-rule="evenodd" d="M16.7107 36.5485C17.7737 37.2225 18.8847 37.8025 20.0267 38.2945C21.1717 38.7805 22.3487 39.1895 23.5607 39.4355C24.7617 39.7395 26.0057 39.7965 27.2377 39.7615L28.1647 39.6995L29.0807 39.5365C29.7077 39.4755 30.2797 39.2115 30.9007 39.0765C29.7677 39.6115 28.5457 40.0475 27.2667 40.1455C25.9977 40.2625 24.7017 40.1975 23.4547 39.9235C22.2127 39.6285 20.9997 39.2135 19.8657 38.6425C18.7347 38.0675 17.6527 37.3905 16.7107 36.5485" fill="#24273A" blush:i="0.1.0.2.0.1.7"/><path id="Fill 19" fill-rule="evenodd" clip-rule="evenodd" d="M17.418 39.693C19.556 40.49 21.664 41.154 23.822 41.429C24.899 41.56 25.978 41.552 27.053 41.431C28.134 41.297 29.161 40.939 30.233 40.514C29.397 41.286 28.356 41.901 27.209 42.196C26.066 42.493 24.868 42.547 23.702 42.422C22.541 42.259 21.409 41.952 20.35 41.49C19.292 41.029 18.281 40.455 17.418 39.693" fill="#24273A" blush:i="0.1.0.2.0.1.8"/><path id="Fill 21" fill-rule="evenodd" clip-rule="evenodd" d="M11.3875 43.2779C13.0675 42.9889 14.9035 43.1109 16.5295 43.6879C18.1415 44.1229 19.8025 44.4309 21.4655 44.6099C24.7945 44.9739 28.1695 44.8769 31.4655 43.9019C29.9725 44.7569 28.2825 45.2909 26.5605 45.5359C24.8365 45.7959 23.0815 45.7829 21.3545 45.6039C19.6285 45.3969 17.9235 45.0369 16.2855 44.4259C14.7345 43.7419 13.1125 43.3839 11.3875 43.2779" fill="#24273A" blush:i="0.1.0.2.0.1.9"/></g></g></g><g id="Female Character/Accesories" blush:component="Female Character/Accesories" blush:defaultValue="Glasses 2" blush:width="34" blush:height="36" transform="translate(123 72) scale(1 1)" blush:i="0.1.0.3" blush:value="Mask" blush:viewBox="10.8771186440678 18.9 15.127118644067794 12.24"><g id="Female Character/Accesories/Mask" blush:viewBox="10.8771186440678 18.9 15.127118644067794 12.24" blush:i="0.1.0.3.0"><g id="Group" blush:i="0.1.0.3.0.0"><path id="Path 4" fill-rule="evenodd" clip-rule="evenodd" d="M17.9782 30.7951C14.1709 30.1339 10.8992 22.0333 10.8992 22.0333C10.8992 22.0333 11.7642 21.6089 14.7839 22.2182C17.4775 22.7617 19.2128 18.8163 20.3942 19.0254C23.2424 19.5295 26 23.4797 26 23.4797C26 23.4797 23.8973 28.4273 23.0214 29.4087C22.1456 30.3902 21.7855 31.4562 17.9782 30.7951Z" fill="#DAEDEB" blush:i="0.1.0.3.0.0.0"/></g></g></g></g></g></g></svg>