<svg viewBox="24.700000000000017 18.864161849710996 197.60000000000005 173.1791907514451" fill="none" xmlns="http://www.w3.org/2000/svg" xmlns:xlink="http://www.w3.org/1999/xlink" xmlns:blush="http://design.blush" overflow="visible" width="197.60000000000005px" height="173.1791907514451px"><g id="Master/Backgrounds/Pink Spot" blush:has-customizable-colors="true" blush:viewBox="0 -1.1120092378752702 246.99999999999994 216.22401847575057" blush:i="0"><g id="Blush/Backgrounds/Pink Spot" blush:i="0.0"><g id="Texture Backgrounds" blush:component="Texture Backgrounds" blush:defaultValue="Abstract 3" blush:width="247" blush:height="214" blush:i="0.0.0" blush:value="Abstract 3" transform="scale(1 1)" blush:viewBox="24.700000000000017 19.892609699769054 196.36500000000004 170.50808314087757"><g id="Texture Backgrounds/Abstract 3" blush:viewBox="24.700000000000017 19.892609699769054 196.36500000000004 170.50808314087757" blush:i="0.0.0.0"><g id="Group 2" blush:i="0.0.0.0.0"><g id="Group" blush:i="0.0.0.0.0.0"><path id="Fill 12" fill-rule="evenodd" clip-rule="evenodd" d="M214.835 174C215.53 174 216.196 173.515 216.504 172.687C216.553 172.556 217.735 169.367 218.938 163.827C219.198 162.628 218.615 161.396 217.639 161.079C216.641 160.752 215.65 161.474 215.393 162.67C214.275 167.809 213.176 170.791 213.164 170.818C212.746 171.947 213.154 173.284 214.074 173.796C214.322 173.937 214.581 174 214.835 174" fill="#FFECE9" blush:i="0.0.0.0.0.0.0"/><path id="Fill 14" fill-rule="evenodd" clip-rule="evenodd" d="M69.0079 24.5448C69.0695 24.5448 69.1338 24.5421 69.1981 24.5367C74.3463 24.0447 79.5882 23.9332 85.3688 24.2567C86.4756 24.3219 87.427 23.4603 87.4886 22.335C87.5503 21.2069 86.7034 20.2474 85.5939 20.1849C79.824 19.8615 74.2069 19.9648 68.8229 20.4758C67.7188 20.5818 66.9068 21.5766 67.0086 22.6965C67.1078 23.7538 67.9814 24.5448 69.0079 24.5448M117.804 30.435C118.656 30.435 119.447 29.8805 119.72 29.0134C120.055 27.9398 119.471 26.7927 118.412 26.453C113.015 24.7133 107.564 23.3081 102.212 22.2725C101.124 22.0523 100.071 22.7862 99.8619 23.8925C99.6528 24.9988 100.366 26.067 101.456 26.2763C106.653 27.282 111.948 28.6492 117.196 30.3399C117.399 30.4051 117.603 30.435 117.804 30.435M147.98 43.7784C148.685 43.7784 149.371 43.4006 149.741 42.7292C150.277 41.7452 149.926 40.503 148.955 39.9567C144.003 37.1733 138.978 34.6427 134.023 32.441C133.013 31.9898 131.823 32.4573 131.375 33.4902C130.928 34.5204 131.391 35.7218 132.41 36.173C137.252 38.3258 142.165 40.7966 147.004 43.5229C147.315 43.6968 147.65 43.7784 147.98 43.7784M175.401 62.2971C175.993 62.2971 176.58 62.0334 176.974 61.5251C177.666 60.6417 177.521 59.3615 176.653 58.6629C174.723 57.1081 172.716 55.5615 170.628 54.0258C168.184 52.2236 165.673 50.4487 163.17 48.7526C162.245 48.1301 160.996 48.3829 160.383 49.3179C159.766 50.253 160.016 51.5196 160.94 52.1448C163.4 53.811 165.866 55.5506 168.267 57.3229C170.309 58.826 172.268 60.3373 174.149 61.854C174.522 62.153 174.962 62.2971 175.401 62.2971M198.698 85.847C199.126 85.847 199.558 85.7084 199.925 85.4203C200.804 84.7299 200.962 83.4496 200.281 82.5608C196.974 78.2281 193.233 73.9606 189.16 69.8752C188.367 69.0843 187.094 69.0897 186.316 69.8915C185.537 70.6907 185.542 71.9818 186.332 72.7728C190.28 76.7331 193.903 80.8674 197.106 85.056C197.5 85.5752 198.095 85.847 198.698 85.847M214.418 115.062C214.632 115.062 214.85 115.026 215.061 114.953C216.114 114.594 216.677 113.436 216.321 112.371C214.557 107.078 212.269 101.83 209.525 96.7631C208.989 95.7764 207.767 95.4122 206.794 95.9585C205.821 96.5021 205.467 97.7416 206 98.7283C208.635 103.583 210.824 108.614 212.515 113.675C212.797 114.526 213.579 115.062 214.418 115.062M218.853 148C219.912 148 220.799 147.16 220.858 146.078C220.949 144.45 221 142.759 221 141.014C221 137.005 220.727 132.963 220.191 128.997C220.038 127.883 219.046 127.081 217.923 127.255C216.825 127.41 216.056 128.438 216.208 129.555C216.72 133.333 216.98 137.19 216.98 141.014C216.98 142.681 216.929 144.292 216.843 145.845C216.782 146.97 217.629 147.935 218.735 147.997C218.776 148 218.813 148 218.853 148" fill="#FFECE9" blush:i="0.0.0.0.0.0.1"/><path id="Fill 16" fill-rule="evenodd" clip-rule="evenodd" d="M42.2566 30C42.5813 30 42.9151 29.9447 43.2278 29.822C43.2578 29.8123 46.1292 28.7225 51.3548 27.5436C52.5545 27.2741 53.2521 26.2781 52.9153 25.3205C52.5816 24.363 51.3579 23.7903 50.1341 24.0718C44.4846 25.3422 41.4027 26.5211 41.2764 26.5692C40.1549 27.0022 39.6859 28.0777 40.2211 28.9751C40.6089 29.6223 41.4177 30 42.2566 30" fill="#FFECE9" blush:i="0.0.0.0.0.0.2"/><path id="Fill 18" fill-rule="evenodd" clip-rule="evenodd" d="M198.478 182C199.345 182 200.188 181.642 200.641 181.006C200.72 180.894 202.601 178.243 204.836 173.644C205.325 172.642 204.684 171.515 203.404 171.131C202.125 170.742 200.69 171.251 200.204 172.255C198.111 176.56 196.333 179.076 196.316 179.102C195.649 180.04 196.072 181.226 197.268 181.751C197.652 181.92 198.069 182 198.478 182" fill="#FFECE9" blush:i="0.0.0.0.0.0.3"/><path id="Fill 20" fill-rule="evenodd" clip-rule="evenodd" d="M58.0251 40.5051C58.1387 40.5051 58.2522 40.4971 58.3658 40.4757C63.658 39.5899 69.1557 39.1001 74.7075 39.0144C75.8271 38.9984 76.7195 38.0858 76.7033 36.9778C76.6843 35.8778 75.7811 35 74.6751 35H74.6453C68.8907 35.091 63.1821 35.5995 57.6898 36.5201C56.5864 36.7021 55.8401 37.7405 56.0294 38.8325C56.1943 39.812 57.0543 40.5051 58.0251 40.5051M107.802 43.0128C108.705 43.0128 109.533 42.4107 109.765 41.5034C110.041 40.4302 109.387 39.3356 108.302 39.0626C102.737 37.6602 97.1257 36.6058 91.6225 35.9287C90.4705 35.7975 89.4943 36.5737 89.3591 37.6709C89.2212 38.7736 90.0081 39.7772 91.1195 39.911C96.4577 40.5667 101.901 41.589 107.299 42.9513C107.467 42.9941 107.637 43.0128 107.802 43.0128M139.058 54.6628C139.804 54.6628 140.521 54.256 140.878 53.5494C141.375 52.5565 140.967 51.3522 139.964 50.8571C134.815 48.3226 129.601 46.0585 124.46 44.1315C123.43 43.7354 122.243 44.2573 121.848 45.2984C121.45 46.3341 121.975 47.493 123.024 47.8864C128.038 49.7651 133.127 51.9758 138.157 54.454C138.446 54.5959 138.755 54.6628 139.058 54.6628M167.552 71.9383C168.166 71.9383 168.777 71.6626 169.177 71.1381C169.851 70.2522 169.67 68.9943 168.774 68.3279C166.587 66.6981 164.25 65.0629 161.838 63.4624C159.45 61.8861 157.084 60.3927 154.745 58.9743C153.785 58.3882 152.538 58.6933 151.954 59.638C151.373 60.5854 151.67 61.8219 152.625 62.3999C154.923 63.7889 157.241 65.2582 159.585 66.8025C161.935 68.3574 164.207 69.9498 166.335 71.5368C166.7 71.8071 167.13 71.9383 167.552 71.9383M191.168 95.2221C191.582 95.2221 191.998 95.0963 192.358 94.842C193.264 94.189 193.467 92.9338 192.81 92.0373C189.581 87.6348 185.833 83.342 181.666 79.274C180.871 78.5006 179.581 78.5006 178.796 79.2954C178.009 80.0849 178.02 81.3562 178.818 82.135C182.826 86.0477 186.428 90.1719 189.524 94.3951C189.922 94.9357 190.541 95.2221 191.168 95.2221M205.025 125.106C205.174 125.106 205.325 125.09 205.474 125.057C206.569 124.814 207.253 123.741 207.007 122.657C205.758 117.168 203.897 111.767 201.485 106.61C201.012 105.601 199.806 105.173 198.792 105.633C197.775 106.099 197.334 107.292 197.802 108.298C200.098 113.199 201.861 118.327 203.051 123.54C203.262 124.474 204.1 125.106 205.025 125.106M205.547 158C206.507 158 207.361 157.32 207.54 156.354C208.508 151.087 209 145.775 209 140.564L208.992 139.488C208.976 138.388 208.07 137.51 206.964 137.51H206.934C205.812 137.526 204.919 138.439 204.936 139.547L204.944 140.564C204.944 145.534 204.473 150.605 203.548 155.634C203.345 156.726 204.078 157.767 205.179 157.971C205.303 157.989 205.425 158 205.547 158" fill="#FFECE9" blush:i="0.0.0.0.0.0.4"/><path id="Fill 22" fill-rule="evenodd" clip-rule="evenodd" d="M33.9454 47C34.272 47 34.6011 46.9288 34.9044 46.7796C34.9277 46.7684 37.3303 45.6084 41.7182 44.2391C42.729 43.9229 43.2499 42.9655 42.8819 42.0994C42.5191 41.231 41.3994 40.788 40.3912 41.0997C35.656 42.5781 33.0849 43.8272 32.9787 43.8806C32.0482 44.3371 31.7242 45.3546 32.2556 46.1561C32.6132 46.695 33.2689 47 33.9454 47" fill="#FFECE9" blush:i="0.0.0.0.0.0.5"/><path id="Fill 24" fill-rule="evenodd" clip-rule="evenodd" d="M182.472 186C183.346 186 184.19 185.634 184.638 184.986C184.718 184.877 186.557 182.218 188.829 177.662C189.326 176.659 188.703 175.528 187.431 175.133C186.165 174.746 184.727 175.232 184.223 176.235C182.083 180.537 180.323 183.089 180.303 183.115C179.65 184.058 180.086 185.244 181.286 185.758C181.661 185.925 182.07 186 182.472 186" fill="#FFECE9" blush:i="0.0.0.0.0.0.6"/><path id="Fill 26" fill-rule="evenodd" clip-rule="evenodd" d="M100.304 55.2083C101.246 55.2083 102.084 54.5335 102.271 53.5622C102.483 52.4522 101.776 51.3829 100.689 51.1653C95.298 50.0933 89.9202 49.3669 84.6978 49.0023C83.6779 48.9506 82.6339 49.7696 82.559 50.8987C82.484 52.0223 83.3165 52.9963 84.4247 53.0725C89.4786 53.4262 94.6903 54.1309 99.9128 55.1702C100.044 55.1946 100.175 55.2083 100.304 55.2083M53.0042 55.6599C53.1675 55.6599 53.3281 55.6408 53.4914 55.6C58.3927 54.3594 63.5536 53.5241 68.8376 53.1106C69.9431 53.0235 70.7703 52.0441 70.6873 50.9204C70.6016 49.794 69.6647 48.9914 68.5298 49.0404C63.0236 49.473 57.6405 50.3463 52.5224 51.6387C51.4463 51.9108 50.7905 53.0181 51.0609 54.1118C51.2857 55.0396 52.1048 55.6599 53.0042 55.6599M130.635 64.66C131.424 64.66 132.171 64.1839 132.49 63.3976C132.915 62.3556 132.425 61.1612 131.4 60.7313C126.336 58.6091 121.25 56.74 116.29 55.181C115.219 54.86 114.103 55.4531 113.776 56.5278C113.449 57.6052 114.044 58.7479 115.101 59.0825C119.949 60.6034 124.917 62.429 129.869 64.5049C130.121 64.611 130.378 64.66 130.635 64.66M158.84 79.4198C159.491 79.4198 160.133 79.0988 160.516 78.5057C161.132 77.567 160.877 76.3019 159.951 75.6789C156.629 73.4424 153.042 71.2931 149.295 69.2852C148.181 68.6894 147.073 68.1044 145.97 67.5412C144.982 67.0325 143.772 67.4406 143.275 68.4472C142.774 69.4512 143.176 70.6809 144.166 71.187C145.242 71.7393 146.329 72.3079 147.421 72.8956C151.053 74.8409 154.525 76.9195 157.735 79.0797C158.077 79.311 158.463 79.4198 158.84 79.4198M181.904 101.376C182.311 101.376 182.72 101.251 183.076 100.99C183.976 100.331 184.179 99.0552 183.531 98.141C180.456 93.8042 176.82 89.6497 172.722 85.7999C171.914 85.0381 170.637 85.0816 169.885 85.9142C169.133 86.7413 169.181 88.0309 169.997 88.7981C173.897 92.4602 177.353 96.4107 180.274 100.527C180.664 101.079 181.28 101.376 181.904 101.376M194.032 130.909C194.142 130.909 194.255 130.901 194.367 130.879C195.459 130.694 196.198 129.641 196.013 128.531C195.106 123.016 193.591 117.654 191.511 112.596C191.083 111.551 189.905 111.064 188.885 111.497C187.862 111.935 187.378 113.129 187.803 114.169C189.766 118.941 191.195 123.999 192.054 129.206C192.217 130.202 193.069 130.909 194.032 130.909M192.935 163C193.858 163 194.691 162.35 194.894 161.395C196.08 155.896 196.787 150.395 196.998 145.049C197.044 143.92 196.182 142.973 195.074 142.927C193.915 142.872 193.031 143.756 192.988 144.883C192.785 149.992 192.108 155.254 190.973 160.524C190.735 161.623 191.42 162.712 192.504 162.954C192.648 162.984 192.793 163 192.935 163" fill="#FFECE9" blush:i="0.0.0.0.0.0.7"/><path id="Fill 28" fill-rule="evenodd" clip-rule="evenodd" d="M27.0207 67C27.4486 67 27.8792 66.8501 28.2451 66.5412C28.2694 66.5202 30.5351 64.6071 34.8622 62.2712C35.8633 61.7284 36.2831 60.385 35.7987 59.2665C35.3143 58.1511 34.1088 57.6863 33.1023 58.223C28.3635 60.7809 25.8905 62.8829 25.7883 62.9698C24.9056 63.7285 24.7388 65.1379 25.4169 66.1214C25.8152 66.6971 26.4126 67 27.0207 67" fill="#FFECE9" blush:i="0.0.0.0.0.0.8"/></g><path id="Fill 10" opacity="0.526646" fill-rule="evenodd" clip-rule="evenodd" d="M34.5075 83.3292C19.0634 107.749 37.2131 147.323 75.0385 171.717C112.866 196.113 156.051 196.091 171.493 171.671C186.935 147.251 168.789 107.679 130.96 83.2827C93.1349 58.8887 49.9498 58.9073 34.5075 83.3292" fill="#FEDAD4" blush:i="0.0.0.0.0.1"/></g></g></g></g></g></svg>