<svg viewBox="37.26249999999999 29.162234042553223 196.47500000000002 196.67553191489364" fill="none" xmlns="http://www.w3.org/2000/svg" xmlns:xlink="http://www.w3.org/1999/xlink" xmlns:blush="http://design.blush" overflow="visible" width="196.47500000000002px" height="196.67553191489364px"><g id="Master/Male Character/Avatar" blush:has-customizable-colors="true" blush:viewBox="23.035000000000025 16.27659574468086 223.57500000000005 223.80319148936164" blush:i="0"><g id="Avatars" opacity="0.5" blush:component="Avatars" blush:defaultValue="Avatar and Backdrop 4" blush:width="223" blush:height="222" transform="translate(23 17) scale(1.319526627218935 1.3214285714285714)" blush:i="0.0" blush:value="Avatar and Backdrop 4" blush:viewBox="11.830000000000013 23.577464788732385 147.87500000000003 120.84507042253522"><g id="Avatars/Avatar and Backdrop 4" blush:viewBox="11.830000000000013 23.577464788732385 147.87500000000003 120.84507042253522" blush:i="0.0.0"><g id="Group" blush:i="0.0.0.0"><path id="Fill 38" fill-rule="evenodd" clip-rule="evenodd" d="M28.7335 25.2665C26.3487 22.8818 21.4011 23.9633 17.6817 27.6817C13.9633 31.4011 12.8818 36.3487 15.2665 38.7335C17.6513 41.1182 22.5989 40.0367 26.3183 36.3183C30.0367 32.5989 31.1182 27.6513 28.7335 25.2665" fill="#FEDAD4" blush:i="0.0.0.0.0"/><path id="Fill 38 Copy 2" fill-rule="evenodd" clip-rule="evenodd" d="M26.7335 124.267C24.3487 121.882 19.4011 122.963 15.6817 126.682C11.9633 130.401 10.8818 135.349 13.2665 137.733C15.6513 140.118 20.5989 139.037 24.3183 135.318C28.0367 131.599 29.1182 126.651 26.7335 124.267" fill="#FEDAD4" blush:i="0.0.0.0.1"/><path id="Fill 38 Copy 6" fill-rule="evenodd" clip-rule="evenodd" d="M111.733 129.267C109.349 126.882 104.401 127.963 100.682 131.682C96.9633 135.401 95.8818 140.349 98.2665 142.733C100.651 145.118 105.599 144.037 109.318 140.318C113.037 136.599 114.118 131.651 111.733 129.267" fill="#FEDAD4" blush:i="0.0.0.0.2"/><path id="Fill 38 Copy 4" fill-rule="evenodd" clip-rule="evenodd" d="M76.7335 71.2665C74.3487 68.8818 69.4011 69.9633 65.6817 73.6817C61.9633 77.4011 60.8818 82.3487 63.2665 84.7335C65.6513 87.1182 70.5989 86.0367 74.3183 82.3183C78.0367 78.5989 79.1182 73.6513 76.7335 71.2665" fill="#FEDAD4" blush:i="0.0.0.0.3"/><path id="Fill 38 Copy 9" fill-rule="evenodd" clip-rule="evenodd" d="M155.733 74.2665C153.349 71.8818 148.401 72.9633 144.682 76.6817C140.963 80.4011 139.882 85.3487 142.267 87.7335C144.651 90.1182 149.599 89.0367 153.318 85.3183C157.037 81.5989 158.118 76.6513 155.733 74.2665" fill="#FEDAD4" blush:i="0.0.0.0.4"/><path id="Fill 38 Copy 17" fill-rule="evenodd" clip-rule="evenodd" d="M155.733 25.2665C153.349 22.8818 148.401 23.9633 144.682 27.6817C140.963 31.4011 139.882 36.3487 142.267 38.7335C144.651 41.1182 149.599 40.0367 153.318 36.3183C157.037 32.5989 158.118 27.6513 155.733 25.2665" fill="#FEDAD4" blush:i="0.0.0.0.5"/><path id="Fill 38 Copy 11" fill-rule="evenodd" clip-rule="evenodd" d="M122.604 35.3958C121.859 34.6506 120.313 34.9885 119.151 36.1505C117.989 37.3128 117.651 38.859 118.396 39.6042C119.141 40.3494 120.687 40.0115 121.849 38.8495C123.011 37.6872 123.349 36.141 122.604 35.3958" fill="#FEDAD4" blush:i="0.0.0.0.6"/><path id="Fill 38 Copy 15" fill-rule="evenodd" clip-rule="evenodd" d="M85.6042 52.3958C84.859 51.6506 83.3128 51.9885 82.1505 53.1505C80.9885 54.3128 80.6506 55.859 81.3958 56.6042C82.141 57.3494 83.6872 57.0115 84.8495 55.8495C86.0115 54.6872 86.3494 53.141 85.6042 52.3958" fill="#FEDAD4" blush:i="0.0.0.0.7"/><path id="Fill 38 Copy 16" fill-rule="evenodd" clip-rule="evenodd" d="M92.6042 97.3958C91.859 96.6506 90.3128 96.9885 89.1505 98.1505C87.9885 99.3128 87.6506 100.859 88.3958 101.604C89.141 102.349 90.6872 102.011 91.8495 100.849C93.0115 99.6872 93.3494 98.141 92.6042 97.3958" fill="#FEDAD4" blush:i="0.0.0.0.8"/><path id="Fill 38 Copy 12" fill-rule="evenodd" clip-rule="evenodd" d="M50.6042 107.396C49.859 106.651 48.3128 106.989 47.1505 108.151C45.9885 109.313 45.6506 110.859 46.3958 111.604C47.141 112.349 48.6872 112.011 49.8495 110.849C51.0115 109.687 51.3494 108.141 50.6042 107.396" fill="#FEDAD4" blush:i="0.0.0.0.9"/><path id="Fill 38 Copy 13" fill-rule="evenodd" clip-rule="evenodd" d="M133.604 105.396C132.859 104.651 131.313 104.989 130.151 106.151C128.989 107.313 128.651 108.859 129.396 109.604C130.141 110.349 131.687 110.011 132.849 108.849C134.011 107.687 134.349 106.141 133.604 105.396" fill="#FEDAD4" blush:i="0.0.0.0.10"/><path id="Fill 38 Copy 14" fill-rule="evenodd" clip-rule="evenodd" d="M50.6042 49.3958C49.859 48.6506 48.3128 48.9885 47.1505 50.1505C45.9885 51.3128 45.6506 52.859 46.3958 53.6042C47.141 54.3494 48.6872 54.0115 49.8495 52.8495C51.0115 51.6872 51.3494 50.141 50.6042 49.3958" fill="#FEDAD4" blush:i="0.0.0.0.11"/><path id="Fill 38 Copy" fill-rule="evenodd" clip-rule="evenodd" d="M27.2876 77.7124C25.9462 76.371 23.1631 76.9793 21.071 79.071C18.9793 81.1631 18.371 83.9462 19.7124 85.2876C21.0538 86.629 23.8369 86.0207 25.929 83.929C28.0207 81.8369 28.629 79.0538 27.2876 77.7124" fill="#FEDAD4" blush:i="0.0.0.0.12"/><path id="Fill 38 Copy 7" fill-rule="evenodd" clip-rule="evenodd" d="M71.2876 24.7124C69.9462 23.371 67.1631 23.9793 65.071 26.071C62.9793 28.1631 62.371 30.9462 63.7124 32.2876C65.0538 33.629 67.8369 33.0207 69.929 30.929C72.0207 28.8369 72.629 26.0538 71.2876 24.7124" fill="#FEDAD4" blush:i="0.0.0.0.13"/><path id="Fill 38 Copy 10" fill-rule="evenodd" clip-rule="evenodd" d="M158.288 133.712C156.946 132.371 154.163 132.979 152.071 135.071C149.979 137.163 149.371 139.946 150.712 141.288C152.054 142.629 154.837 142.021 156.929 139.929C159.021 137.837 159.629 135.054 158.288 133.712" fill="#FEDAD4" blush:i="0.0.0.0.14"/><path id="Fill 38 Copy 5" fill-rule="evenodd" clip-rule="evenodd" d="M112.288 73.7124C110.946 72.371 108.163 72.9793 106.071 75.071C103.979 77.1631 103.371 79.9462 104.712 81.2876C106.054 82.629 108.837 82.0207 110.929 79.929C113.021 77.8369 113.629 75.0538 112.288 73.7124" fill="#FEDAD4" blush:i="0.0.0.0.15"/><path id="Fill 38 Copy 3" fill-rule="evenodd" clip-rule="evenodd" d="M68.2876 133.712C66.9462 132.371 64.1631 132.979 62.071 135.071C59.9793 137.163 59.371 139.946 60.7124 141.288C62.0538 142.629 64.8369 142.021 66.929 139.929C69.0207 137.837 69.629 135.054 68.2876 133.712" fill="#FEDAD4" blush:i="0.0.0.0.16"/></g></g></g><g id="Male Character/Head" blush:component="Male Character/Head" blush:defaultValue="Fade 1" blush:width="113" blush:height="193.7142791748047" transform="translate(78 32) scale(4.035714285714286 4.035714149475098)" blush:i="0.1" blush:value="Fade 1" blush:viewBox="0.09589041095890138 0 23.493150684931507 47.51999999999999"><g id="Male Character/Head/Fade 1" blush:viewBox="0.09589041095890138 0 23.493150684931507 47.51999999999999" blush:i="0.1.0"><g id="Head" blush:i="0.1.0.0"><path id="Fill 22" fill-rule="evenodd" clip-rule="evenodd" d="M6.60041 24.8188C6.60041 24.8188 7.89241 34.5038 1.23041 37.9608C1.23041 37.9608 0.776414 47.3828 13.9104 47.3828C27.0444 47.3828 20.3484 38.6928 20.3484 38.6928C20.3484 38.6928 15.9074 35.2788 17.0414 31.0768C18.1754 26.8758 13.9234 16.4158 6.60041 24.8188" fill="#ffc280" blush:color="Skin-500" blush:i="0.1.0.0.0"/><path id="Fill 24" fill-rule="evenodd" clip-rule="evenodd" d="M2.58125 16.4257C2.07425 16.1337 1.62925 16.1337 1.12025 16.3307C-0.580748 16.9927 0.316252 19.1187 1.21425 20.4417C2.11225 21.7637 2.39525 24.5047 5.18325 23.8897C5.18325 23.8897 5.32425 25.7327 6.55325 27.0557C7.78125 28.3787 13.3093 32.2527 14.8683 32.5827C16.4273 32.9137 18.5053 33.4337 20.0643 32.6307C20.0643 32.6307 20.9623 31.6857 21.5293 29.7007C22.0963 27.7167 22.5213 27.3387 22.7103 25.5437C22.8993 23.7487 23.8913 19.7327 23.4193 17.8897C22.9463 16.0477 25.9583 2.0117 12.2813 2.3867C-1.79575 2.7727 2.66025 16.4707 2.58125 16.4257" fill="#ffc280" blush:color="Skin-500" blush:i="0.1.0.0.1"/><path id="Fill 28" fill-rule="evenodd" clip-rule="evenodd" d="M2.19947 19.0522C2.19947 19.0522 2.02647 18.8522 2.03247 19.1722C2.03947 19.4922 1.95947 19.6662 1.86647 19.6392C1.77247 19.6132 1.33247 18.8452 1.99247 18.4852C2.65347 18.1252 3.01347 18.8392 3.48747 19.7262C3.96047 20.6132 3.78047 21.8732 3.32047 21.9202C2.86047 21.9672 2.99347 21.6472 3.03947 21.0072C3.08647 20.3662 2.43947 19.1852 2.19947 19.0522" fill="black" blush:i="0.1.0.0.2"/><path id="Fill 42" fill-rule="evenodd" clip-rule="evenodd" d="M10.8242 14.6127C10.8242 14.6127 11.1252 14.4357 11.8522 14.4177C12.5782 14.3997 15.5372 14.6477 15.5902 14.5417C15.6432 14.4357 15.5372 13.8507 15.5372 13.8507C15.5372 13.8507 15.0412 13.7797 15.0582 13.7087C15.0762 13.6377 15.6432 13.3367 15.6432 13.2657C15.6432 13.1957 11.8162 12.2567 10.8242 14.6127" fill="black" blush:i="0.1.0.0.3"/><path id="Fill 44" fill-rule="evenodd" clip-rule="evenodd" d="M23.4027 14.3647C23.4027 14.3647 22.0387 14.2937 21.4187 14.4887C20.7987 14.6837 20.4967 14.7367 20.4437 14.6477C20.3907 14.5597 20.6387 14.2407 20.9047 14.0987C21.1707 13.9567 20.6387 13.7447 21.2057 13.4967C21.7727 13.2487 23.1727 13.3547 23.3667 13.7617L23.4027 14.3647Z" fill="black" blush:i="0.1.0.0.4"/><path id="Fill 46" fill-rule="evenodd" clip-rule="evenodd" d="M11.5508 18.1025C11.5508 18.1025 13.0568 18.0315 13.8718 18.2265C14.6868 18.4215 15.7318 18.2085 15.7318 18.2085C15.7318 18.2085 14.9518 17.1635 13.9428 17.1635C12.9328 17.1635 11.9408 17.5715 11.5508 18.1025" fill="black" blush:i="0.1.0.0.5"/><path id="Fill 48" fill-rule="evenodd" clip-rule="evenodd" d="M20.4268 18.3862C20.4268 18.3862 22.1458 17.9072 22.9778 18.0322C22.9778 18.0322 23.1728 17.7662 23.0848 17.5892C22.9958 17.4112 22.3578 17.0042 21.6848 17.1992C21.0108 17.3942 20.5868 17.9432 20.4268 18.3862" fill="black" blush:i="0.1.0.0.6"/><path id="Fill 50" fill-rule="evenodd" clip-rule="evenodd" d="M17.6632 23.7187C17.6632 23.7187 18.1942 23.7547 18.5132 23.5947C18.8322 23.4357 20.2322 23.3647 20.2322 23.3647C20.2322 23.3647 19.3462 24.1087 18.9212 24.1267C18.4962 24.1437 17.5742 23.9487 17.6632 23.7187" fill="black" blush:i="0.1.0.0.7"/><path id="Fill 52" fill-rule="evenodd" clip-rule="evenodd" d="M15.1824 26.2524C15.1824 26.2524 17.5744 27.4574 20.0904 26.3764C20.0904 26.3764 20.4794 26.1814 20.4794 26.5004C20.4794 26.8194 19.4164 27.3684 17.7694 27.3864C16.1214 27.4034 14.9344 26.9254 14.6864 26.5004C14.4384 26.0754 15.1824 26.2524 15.1824 26.2524" fill="black" blush:i="0.1.0.0.8"/><path id="Path 10" opacity="0.35" fill-rule="evenodd" clip-rule="evenodd" d="M9.30467 7.35502C9.30467 7.35502 10.1819 13.0227 8.01845 13.0227C5.85501 13.0227 6.12223 19.8939 6.12223 19.8939C6.12223 19.8939 4.68542 19.8069 4.68542 19.1987C4.68542 18.5905 4.35726 16.9023 2.88503 16.5874C1.41281 16.2725 1.92796 7.01983 3.09987 7.01983C4.27177 7.01983 7.29893 6.66908 9.30467 7.35502Z" fill="#625252" blush:i="0.1.0.0.9"/><path id="Fill 26" fill-rule="evenodd" clip-rule="evenodd" d="M9.30511 7.35502C9.71532 4.74865 14.5 6.8618 18.127 6.94332C20.456 6.99566 20.729 4.67632 22.3047 7.79409C22.3047 7.79409 23.1646 6.73142 22.8158 3.96065C22.528 1.67444 19.6593 0 15.7317 0C14.3045 0.0446377 9.30511 0.650958 10.1403 0.827099C12.4916 1.32298 8.21962 2.51126 5.84592 2.88741C2.92925 3.3496 2.00049 6.94332 2.70092 7.35502C2.70092 7.35502 4.01936 6.95056 5.48565 6.94332C7.28677 6.93442 9.30511 7.32469 9.30511 7.35502Z" fill="#765227" blush:color="Hair-500" blush:i="0.1.0.0.10"/></g></g></g><g id="Facial Hair" blush:component="Facial Hair" blush:defaultValue="None" blush:width="75" blush:height="56" transform="translate(98 110) scale(75 56)" blush:i="0.2" blush:value="None" blush:viewBox="1.75 1.75 0 0"><g id="Facial Hair/None" stroke="none" stroke-width="1" fill="none" fill-rule="evenodd" fill-opacity="0" blush:viewBox="1.75 1.75 0 0" blush:i="0.2.0"/></g></g></svg>