<svg viewBox="77.1875 34.32658959537571 92.62499999999994 145.34682080924858" fill="none" xmlns="http://www.w3.org/2000/svg" xmlns:xlink="http://www.w3.org/1999/xlink" xmlns:blush="http://design.blush" overflow="visible" width="92.62499999999994px" height="145.34682080924858px"><g id="Master/Stickers/Tiny Leaf" blush:has-customizable-colors="true" blush:viewBox="77.805 35.954965357967666 92.62499999999994 143.3256351039261" blush:i="0"><g id="Group 53 Copy" blush:i="0.0"><path id="Fill 3764" fill-rule="evenodd" clip-rule="evenodd" d="M101.338 127.214C101.338 127.214 105.316 165.01 105.316 168.6C105.316 172.191 109.757 179.444 124.402 178.652C139.048 177.86 142.828 176.065 143.584 168.694C144.34 161.324 149.726 127.214 149.726 127.214H101.338Z" fill="#FED6D3" blush:i="0.0.0"/><path id="Fill 3766" fill-rule="evenodd" clip-rule="evenodd" d="M149.726 127.214C149.726 125.074 138.894 123.34 125.532 123.34C112.17 123.34 101.338 125.074 101.338 127.214C101.338 129.354 112.17 131.088 125.532 131.088C138.894 131.088 149.726 129.354 149.726 127.214" fill="#FFACA7" blush:i="0.0.1"/><path id="Fill 3768" fill-rule="evenodd" clip-rule="evenodd" d="M142.356 129.435C142.356 128.522 134.824 127.782 125.532 127.782C116.241 127.782 108.709 128.522 108.709 129.435C108.709 130.348 116.241 131.088 125.532 131.088C134.824 131.088 142.356 130.348 142.356 129.435" fill="#A27B64" blush:i="0.0.2"/><path id="Fill 3770" fill-rule="evenodd" clip-rule="evenodd" d="M150.518 100.44C147.18 104.205 142.709 107.177 150.213 104.019C152.45 102.596 160.561 103.12 154.881 105.45C140.086 107.407 133.596 116.677 131.308 131.159C128.439 129.744 133.077 124.983 131.881 122.247C138.497 109.137 132.934 107.851 127.337 95.655C132.593 96.333 136.497 103.123 136.639 108.188C136.889 108.903 136.991 107.286 137.072 107.031C141.167 98.587 138.317 89.581 128.847 90C131.805 86.299 136.961 88.714 137.813 92.836C139.211 92.265 136.351 84.379 136.578 81.352C135.857 77.109 130.117 74.967 130.406 69.945C132.132 67.914 135.242 74.742 136.037 74.491C134.714 68.145 136.529 62.763 140.791 58.248C144 62.503 132.896 73.129 137.629 81.004C138.729 75.178 140.808 66.919 147.574 65.652C139.955 82.114 135.724 78.152 140.739 100.188C134.77 112.461 137.662 116.207 143.796 103.65C147.196 100.566 141.656 91.3 147.075 89.787C149.369 94.542 146.001 97.348 151.197 91.914C157.293 89.523 142.582 102.035 144.809 104.727C150.202 94.277 173.125 92.508 150.518 100.44" fill="#4B5C23" blush:i="0.0.3"/><path id="Fill 3772" fill-rule="evenodd" clip-rule="evenodd" d="M160.587 79.6724C165.649 86.8214 161.388 84.4964 157.854 80.1044C151.965 78.1014 147.616 81.6054 145.036 89.1434C141.315 99.7464 141.527 91.8574 144.984 85.8364C148.818 75.3834 155.75 59.7794 144.248 52.2464C149.213 52.6714 151.203 59.3604 152.493 62.1514C153.116 57.6714 152.717 49.8014 158.415 48.6814C157.52 57.1934 147.993 66.8404 160.489 55.6734C164.478 56.2134 146.211 71.3114 148.166 81.0274C151.19 76.2254 155.065 76.6284 160.587 79.6724" fill="#8A9D5B" blush:i="0.0.4"/><path id="Fill 3774" fill-rule="evenodd" clip-rule="evenodd" d="M87.6661 99.0924C85.0791 93.8294 86.3481 87.1044 89.2441 96.1514C90.9881 95.6954 99.3191 98.2184 95.5511 96.1214C93.9981 95.1434 91.7211 82.4664 96.0311 86.9324C98.2421 91.2444 97.0021 95.9164 99.0571 99.7334C98.6251 100.946 98.1421 98.1604 97.0581 98.9304C94.8341 99.8504 94.7651 97.5424 93.2561 97.2374C92.5651 99.2104 91.6301 98.6194 89.9131 97.7944C88.5621 101.904 101.863 110.162 93.2901 105.022C90.9251 108.461 77.4291 112.598 85.2891 105.904C92.7881 102.724 93.2621 105.977 87.6661 99.0924" fill="#8A9D5B" blush:i="0.0.5"/><path id="Fill 3776" fill-rule="evenodd" clip-rule="evenodd" d="M162.727 63.2027C182 58.5747 156.206 67.9617 155.277 73.1917C149.825 81.4277 157.83 63.7637 162.727 63.2027" fill="#8A9D5B" blush:i="0.0.6"/><path id="Fill 3778" fill-rule="evenodd" clip-rule="evenodd" d="M93.6858 90.7369C98.3848 101.244 84.7658 90.1499 85.9348 85.0239C89.1708 85.6179 91.5198 88.4369 93.6858 90.7369" fill="#8A9D5B" blush:i="0.0.7"/><path id="Fill 3780" fill-rule="evenodd" clip-rule="evenodd" d="M101.968 71.7506C104.647 72.9796 101.315 78.4716 101.257 80.9286C99.3209 78.6276 93.1669 69.7766 96.2259 68.9886C99.3499 70.0986 100.107 73.0386 100.081 75.5886C100.45 74.3386 100.116 71.2386 101.968 71.7506" fill="#8A9D5B" blush:i="0.0.8"/><path id="Fill 3782" fill-rule="evenodd" clip-rule="evenodd" d="M127.313 81.0943C126.781 83.8223 127.739 90.1173 124.39 90.5243C121.953 85.2473 126.311 66.9153 127.313 81.0943" fill="#8A9D5B" blush:i="0.0.9"/><path id="Fill 3784" fill-rule="evenodd" clip-rule="evenodd" d="M119.776 76.0592C122.294 73.1442 124.44 64.2812 128.912 64.9762C128.042 68.4452 119.503 83.5272 119.776 76.0592" fill="#8A9D5B" blush:i="0.0.10"/><path id="Fill 3786" fill-rule="evenodd" clip-rule="evenodd" d="M87.666 99.0924C94.699 104.884 81.493 101.878 78 100.757C79.931 98.1304 84.753 97.0464 87.666 99.0924" fill="#8A9D5B" blush:i="0.0.11"/><path id="Fill 3788" fill-rule="evenodd" clip-rule="evenodd" d="M90.1922 110.154C94.5842 110.508 101.077 109.161 103.215 113.445C99.9602 113.458 81.9882 112.759 90.1922 110.154" fill="#8A9D5B" blush:i="0.0.12"/><path id="Fill 3790" fill-rule="evenodd" clip-rule="evenodd" d="M145.835 87.0328C147.561 83.3378 155.342 77.0598 158.773 80.8988C154.73 83.6318 150.557 85.5608 145.835 87.0328" fill="#8A9D5B" blush:i="0.0.13"/><path id="Fill 3792" fill-rule="evenodd" clip-rule="evenodd" d="M133.137 117.675C132.535 126.525 127.74 112.905 127.414 108.881C130.232 107.682 132.637 115.102 133.137 117.675" fill="#8A9D5B" blush:i="0.0.14"/><path id="Fill 3794" fill-rule="evenodd" clip-rule="evenodd" d="M141.719 93.5826C143.487 96.1046 145.951 107.969 141.702 106.942C141.18 103.159 138.949 95.9236 141.719 93.5826" fill="#8A9D5B" blush:i="0.0.15"/><path id="Fill 3796" fill-rule="evenodd" clip-rule="evenodd" d="M148.436 74.2779C149.957 82.4319 144.751 78.5319 144.051 73.6299C145.002 68.5029 148.458 67.9999 148.436 74.2779" fill="#8A9D5B" blush:i="0.0.16"/><path id="Fill 3798" fill-rule="evenodd" clip-rule="evenodd" d="M124.415 90.4917C127.517 88.8297 129.377 81.2647 133.891 81.1927C134.216 84.0947 125.671 93.0677 124.415 90.4917" fill="#8A9D5B" blush:i="0.0.17"/><path id="Fill 3800" fill-rule="evenodd" clip-rule="evenodd" d="M123.8 81.2437C124.646 85.8897 123.431 90.0507 120.472 93.5567C119.398 89.1567 120.856 84.6597 123.8 81.2437" fill="#8A9D5B" blush:i="0.0.18"/><path id="Fill 3802" fill-rule="evenodd" clip-rule="evenodd" d="M121.576 62.2135C123.515 61.1875 125.038 59.4775 127.055 58.5555C131.278 60.2995 119.208 68.1915 118.565 67.1325C120.123 65.9425 121.232 64.1515 121.576 62.2135" fill="#8A9D5B" blush:i="0.0.19"/><path id="Fill 3804" fill-rule="evenodd" clip-rule="evenodd" d="M106.549 115.849C109.796 117.178 97.3057 120.28 95.5127 123.254C91.1177 122.747 103.225 115.306 106.549 115.849" fill="#8A9D5B" blush:i="0.0.20"/><path id="Fill 3806" fill-rule="evenodd" clip-rule="evenodd" d="M112.396 60.7008C112.868 55.8918 119.5 50.1548 124.071 53.4858C120.957 55.4448 114.311 55.6838 112.396 60.7008" fill="#8A9D5B" blush:i="0.0.21"/><path id="Fill 3808" fill-rule="evenodd" clip-rule="evenodd" d="M92.6973 98.6402C94.4273 93.5302 97.3483 105.095 97.7513 107.254C95.9423 108.099 92.9543 102.854 92.6973 98.6402" fill="#8A9D5B" blush:i="0.0.22"/><path id="Fill 3810" fill-rule="evenodd" clip-rule="evenodd" d="M154.924 71.7437C152.573 79.0487 150.156 77.4957 152.642 70.7087C154.114 64.6187 156.812 66.4557 154.924 71.7437" fill="#8A9D5B" blush:i="0.0.23"/><path id="Fill 3812" fill-rule="evenodd" clip-rule="evenodd" d="M96.9461 49.3639C93.7421 47.3419 92.9161 41.8899 94.4541 38.5709C97.1531 39.8879 96.0471 46.2619 96.9461 49.3639" fill="#8A9D5B" blush:i="0.0.24"/><path id="Fill 3814" fill-rule="evenodd" clip-rule="evenodd" d="M102.507 46.4106C103.039 49.8876 103.726 55.0126 102.657 59.1276C99.5933 56.2476 100.79 50.0596 102.507 46.4106" fill="#8A9D5B" blush:i="0.0.25"/><path id="Fill 3816" fill-rule="evenodd" clip-rule="evenodd" d="M155.322 96.0211C146.398 101.674 152.668 94.7471 156.879 91.4351C161.836 88.8981 156.699 94.7511 155.322 96.0211" fill="#8A9D5B" blush:i="0.0.26"/><path id="Fill 3818" fill-rule="evenodd" clip-rule="evenodd" d="M87.9596 111.653C94.8386 112.895 90.1986 114.578 86.4086 116.988C82.3486 117.478 87.0486 112.99 87.9596 111.653" fill="#8A9D5B" blush:i="0.0.27"/><path id="Fill 3820" fill-rule="evenodd" clip-rule="evenodd" d="M135.838 66.9C136.546 74.973 131.076 63.195 131.027 60.222C133.499 61.377 135.1 64.375 135.838 66.9" fill="#8A9D5B" blush:i="0.0.28"/><path id="Fill 3822" fill-rule="evenodd" clip-rule="evenodd" d="M90.9114 73.3073C96.2804 79.1373 88.6794 75.3823 84.7824 75.7863C83.5514 73.6633 89.4354 72.5833 90.9114 73.3073" fill="#8A9D5B" blush:i="0.0.29"/><path id="Fill 3824" fill-rule="evenodd" clip-rule="evenodd" d="M121.576 62.2135C121.328 65.0315 117.729 69.2935 115.486 69.3845C116.005 67.0095 119.017 61.3715 121.576 62.2135" fill="#8A9D5B" blush:i="0.0.30"/><path id="Fill 3826" fill-rule="evenodd" clip-rule="evenodd" d="M141.348 110.865C143.468 105.189 152.711 115.077 147.614 115.796C146.264 112.97 145.591 109.151 141.348 110.865" fill="#8A9D5B" blush:i="0.0.31"/><path id="Fill 3828" fill-rule="evenodd" clip-rule="evenodd" d="M137.745 104.071C137.061 114.108 134.332 100.6 135.772 97.1929C137.909 98.2599 136.993 101.95 137.745 104.071" fill="#8A9D5B" blush:i="0.0.32"/><path id="Fill 3830" fill-rule="evenodd" clip-rule="evenodd" d="M138.99 60.1529C135.99 69.4069 135.971 54.3869 139.791 54.9689C140.237 56.6829 139.429 58.5749 138.99 60.1529" fill="#8A9D5B" blush:i="0.0.33"/><path id="Fill 3832" fill-rule="evenodd" clip-rule="evenodd" d="M155.099 58.359C155.289 55.969 158.451 50.214 161.272 51.261C160.779 54.319 157.123 56.224 155.099 58.359" fill="#8A9D5B" blush:i="0.0.34"/><path id="Fill 3834" fill-rule="evenodd" clip-rule="evenodd" d="M162.727 63.2028C156.24 68.0968 160.209 62.0248 162.681 58.4598C165.143 57.4788 162.992 62.0878 162.727 63.2028" fill="#8A9D5B" blush:i="0.0.35"/><path id="Fill 3836" fill-rule="evenodd" clip-rule="evenodd" d="M96.2173 87.4312C93.8813 83.3762 104.758 88.1762 104.988 91.2202C102.534 91.3462 99.3463 87.4342 96.2173 87.4312" fill="#8A9D5B" blush:i="0.0.36"/><path id="Fill 3838" fill-rule="evenodd" clip-rule="evenodd" d="M119.777 76.0592C119.922 77.1722 120.66 81.5042 119.119 80.9532C116.676 77.2162 117.199 66.2292 119.777 76.0592" fill="#8A9D5B" blush:i="0.0.37"/><path id="Fill 3840" fill-rule="evenodd" clip-rule="evenodd" d="M113.94 49.0846C112.301 56.9756 111.026 48.4156 109.248 45.3226C111.14 46.0176 112.894 47.3536 113.94 49.0846" fill="#8A9D5B" blush:i="0.0.38"/><path id="Fill 3842" fill-rule="evenodd" clip-rule="evenodd" d="M145.579 66.1676C142.083 70.2926 142.058 66.9466 142.255 63.1526C143.435 61.9536 144.728 65.3966 145.579 66.1676" fill="#8A9D5B" blush:i="0.0.39"/><path id="Fill 3844" fill-rule="evenodd" clip-rule="evenodd" d="M107.168 45.9382C106.566 44.0712 106.324 39.6312 109.588 41.1072C110.829 42.5382 107.522 44.2942 107.168 45.9382" fill="#8A9D5B" blush:i="0.0.40"/><path id="Fill 3846" fill-rule="evenodd" clip-rule="evenodd" d="M160.588 79.6724C156.959 77.8554 159.095 77.6894 161.876 76.9004C164.286 77.0664 161.446 79.0774 160.588 79.6724" fill="#8A9D5B" blush:i="0.0.41"/><path id="Fill 3848" fill-rule="evenodd" clip-rule="evenodd" d="M98.3196 65.4536C94.6356 66.4636 95.5256 59.8416 97.7996 62.6396C97.9956 63.5766 97.9476 64.5846 98.3196 65.4536" fill="#8A9D5B" blush:i="0.0.42"/><path id="Fill 3850" fill-rule="evenodd" clip-rule="evenodd" d="M119.229 73.7281C118.076 71.8701 117.099 70.8881 119.773 70.0991C121.747 70.2971 120.092 72.8351 119.229 73.7281" fill="#8A9D5B" blush:i="0.0.43"/><path id="Fill 3852" fill-rule="evenodd" clip-rule="evenodd" d="M127.312 81.0943C126.963 79.5843 126.741 76.4183 128.878 76.7243C130.206 77.7423 127.806 79.8613 127.312 81.0943" fill="#8A9D5B" blush:i="0.0.44"/><path id="Fill 3854" fill-rule="evenodd" clip-rule="evenodd" d="M104.1 68.9449C101.706 69.1319 102.776 65.1399 104.486 65.6439C105.485 66.3609 104.354 68.0159 104.1 68.9449" fill="#8A9D5B" blush:i="0.0.45"/><path id="Fill 3856" fill-rule="evenodd" clip-rule="evenodd" d="M93.8763 85.8873C93.9893 86.9233 92.6423 87.7573 92.0733 86.7793C91.7563 85.8313 93.3163 86.1093 93.8763 85.8873" fill="#8A9D5B" blush:i="0.0.46"/><path id="Fill 3858" fill-rule="evenodd" clip-rule="evenodd" d="M99.0898 120.831C99.7908 119.064 101.169 119.629 102.981 118.258C103.863 118.706 99.9008 119.998 99.0898 120.831" fill="#8A9D5B" blush:i="0.0.47"/><path id="Fill 3860" fill-rule="evenodd" clip-rule="evenodd" d="M137.554 101.694C136.727 101.48 136.783 101.398 137.175 100.703C136.215 98.0679 137.645 100.064 137.554 101.694" fill="#8A9D5B" blush:i="0.0.48"/><path id="Fill 3862" fill-rule="evenodd" clip-rule="evenodd" d="M93.6865 113.074C94.4255 112.545 94.9935 113.05 95.6915 112.803C97.5915 113.429 94.3795 113.331 93.6865 113.074" fill="#8A9D5B" blush:i="0.0.49"/><path id="Fill 3864" fill-rule="evenodd" clip-rule="evenodd" d="M104.061 116.381C103.606 117.047 103.041 117.157 102.269 117.222C101.357 117.014 103.633 116.319 104.061 116.381" fill="#8A9D5B" blush:i="0.0.50"/><path id="Fill 3866" fill-rule="evenodd" clip-rule="evenodd" d="M155.548 82.9859C155.622 82.5139 155.974 82.3729 156.325 82.1419C157.632 81.1829 156.348 82.7859 155.548 82.9859" fill="#8A9D5B" blush:i="0.0.51"/><path id="Fill 3868" fill-rule="evenodd" clip-rule="evenodd" d="M150.331 85.4107C150.607 85.1177 151.16 85.2797 151.155 84.7327C152.417 84.6977 151.003 85.5537 150.331 85.4107" fill="#8A9D5B" blush:i="0.0.52"/><path id="Fill 3870" fill-rule="evenodd" clip-rule="evenodd" d="M150.518 100.44C149.834 100.333 150.826 99.465 151.224 99.709C150.989 99.953 150.753 100.196 150.518 100.44" fill="#8A9D5B" blush:i="0.0.53"/><path id="Fill 3872" fill-rule="evenodd" clip-rule="evenodd" d="M101.449 59.6276C101.563 59.6386 101.683 59.6766 101.792 59.6556C102.941 59.6606 101.285 60.9236 101.449 59.6276" fill="#8A9D5B" blush:i="0.0.54"/><path id="Fill 3874" fill-rule="evenodd" clip-rule="evenodd" d="M154.831 93.146C154.986 93.332 154.977 93.432 154.746 93.524C153.777 93.877 154.434 93.447 154.831 93.146" fill="#8A9D5B" blush:i="0.0.55"/><path id="Fill 3876" fill-rule="evenodd" clip-rule="evenodd" d="M109.801 47.02C110.127 47.252 110.471 47.473 110.494 47.935C110.263 47.63 110.032 47.325 109.801 47.02" fill="#8A9D5B" blush:i="0.0.56"/><path id="Fill 3878" fill-rule="evenodd" clip-rule="evenodd" d="M157.255 56.5554C157.562 56.2104 157.408 56.3834 157.255 56.5554C157.16 56.1094 157.234 55.8744 157.255 56.5554" fill="#8A9D5B" blush:i="0.0.57"/><path id="Fill 3880" fill-rule="evenodd" clip-rule="evenodd" d="M152.105 72.7418C152.025 73.1468 152.065 72.9448 152.105 72.7418C152.632 72.9118 152.28 73.1328 152.105 72.7418" fill="#8A9D5B" blush:i="0.0.58"/><path id="Fill 3882" fill-rule="evenodd" clip-rule="evenodd" d="M154.113 93.6921C154.093 94.0451 154.013 94.3421 153.559 94.3001C153.744 94.0971 153.928 93.8941 154.113 93.6921" fill="#8A9D5B" blush:i="0.0.59"/><path id="Fill 3884" fill-rule="evenodd" clip-rule="evenodd" d="M93.3382 76.8746C93.8902 77.0546 93.4782 77.3206 93.0802 77.1406C93.0452 76.9376 93.2492 76.9366 93.3382 76.8746" fill="#8A9D5B" blush:i="0.0.60"/><path id="Fill 3886" fill-rule="evenodd" clip-rule="evenodd" d="M93.3403 76.8717C92.9123 76.8817 93.1263 76.8767 93.3403 76.8717C93.1813 77.1217 92.7313 77.3447 93.3403 76.8717" fill="#8A9D5B" blush:i="0.0.61"/><path id="Fill 3888" fill-rule="evenodd" clip-rule="evenodd" d="M137.03 98.8931C136.691 98.7941 136.683 98.6061 136.886 98.3611C136.934 98.5391 136.982 98.7161 137.03 98.8931" fill="#8A9D5B" blush:i="0.0.62"/><path id="Fill 3890" fill-rule="evenodd" clip-rule="evenodd" d="M109.381 46.2848C109.516 46.5028 109.651 46.7198 109.786 46.9368C109.651 46.7198 109.516 46.5028 109.381 46.2848" fill="#8A9D5B" blush:i="0.0.63"/><path id="Fill 3892" fill-rule="evenodd" clip-rule="evenodd" d="M109.249 45.3228C109.14 45.6078 109 45.9588 109.009 45.3998C109.011 45.3678 109.165 45.3478 109.249 45.3228" fill="#8A9D5B" blush:i="0.0.64"/><path id="Fill 3894" fill-rule="evenodd" clip-rule="evenodd" d="M101.156 87.4019C101.068 87.3189 100.979 87.2359 100.89 87.1539C101.099 87.0269 101.14 87.0649 101.156 87.4019" fill="#8A9D5B" blush:i="0.0.65"/><path id="Fill 3896" fill-rule="evenodd" clip-rule="evenodd" d="M92.8787 112.99C93.1097 112.573 93.2037 113.011 93.3577 113.068C93.1977 113.042 93.0387 113.016 92.8787 112.99" fill="#8A9D5B" blush:i="0.0.66"/><path id="Fill 3898" fill-rule="evenodd" clip-rule="evenodd" d="M104.594 116.192C104.498 116.328 104.463 116.604 104.202 116.363C104.333 116.305 104.463 116.249 104.594 116.192" fill="#8A9D5B" blush:i="0.0.67"/><path id="Fill 3900" fill-rule="evenodd" clip-rule="evenodd" d="M92.249 76.6197C92.374 76.7017 92.499 76.7827 92.624 76.8637C92.499 76.7827 92.374 76.7017 92.249 76.6197" fill="#8A9D5B" blush:i="0.0.68"/><path id="Fill 3902" fill-rule="evenodd" clip-rule="evenodd" d="M151.967 73.5269C152.038 73.6259 152.243 73.7269 151.96 73.8169C151.962 73.7199 151.965 73.6239 151.967 73.5269" fill="#8A9D5B" blush:i="0.0.69"/><path id="Fill 3904" fill-rule="evenodd" clip-rule="evenodd" d="M121.482 62.1187C121.344 62.1387 121.169 62.1957 121.309 61.9427L121.482 62.1187Z" fill="#8A9D5B" blush:i="0.0.70"/><path id="Fill 3906" fill-rule="evenodd" clip-rule="evenodd" d="M152.682 76.9664L152.834 76.6854L152.682 76.9664Z" fill="#8A9D5B" blush:i="0.0.71"/><path id="Fill 3910" fill-rule="evenodd" clip-rule="evenodd" d="M87.3083 98.9029L87.1213 98.7419L87.3083 98.9029Z" fill="#8A9D5B" blush:i="0.0.72"/><path id="Fill 3912" fill-rule="evenodd" clip-rule="evenodd" d="M101.439 119.416C101.49 119.398 101.464 119.407 101.439 119.416C101.402 119.302 101.449 119.33 101.439 119.416" fill="#8A9D5B" blush:i="0.0.73"/><path id="Fill 3914" fill-rule="evenodd" clip-rule="evenodd" d="M87.6892 111.499L87.6992 111.533C87.6302 111.538 87.6262 111.527 87.6892 111.499" fill="#8A9D5B" blush:i="0.0.74"/><path id="Fill 3916" fill-rule="evenodd" clip-rule="evenodd" d="M107.495 116.803C107.516 116.778 107.536 116.753 107.557 116.729C107.536 116.753 107.516 116.778 107.495 116.803" fill="#8A9D5B" blush:i="0.0.75"/><path id="Fill 3918" fill-rule="evenodd" clip-rule="evenodd" d="M119.009 97.148C119.15 103.724 117.081 94.368 114.311 94.033C113.779 97.174 115.734 100.899 118.777 102.128C118.384 106.778 118.324 119.629 115.972 108.647C115.719 104.256 107.053 82.23 113.23 90.099C114.62 93.255 120.155 92.855 119.009 97.148M118.529 123.669C112.435 120.481 112.662 115.96 114.829 110.078C116.105 113.415 118.401 120.104 118.529 123.669M129.172 103.765C127.324 99.24 121.964 100.99 120.37 104.753C119.434 101.351 125.875 94.286 124.246 90.893C116.344 110.586 122.975 83.137 118.916 81.701C119.23 94.66 119.476 90.754 111.418 83.804C108.108 81.735 116.762 79.053 116.62 76.752C120.724 65.841 111.559 78.092 110.514 79.105C111.077 70.845 122.956 64.39 119.974 56.203C114.939 61.611 110.938 83.466 111.856 64.837C110.315 56.97 121.615 49.472 116.969 42.722C112.639 48.046 112.396 57.143 110.943 63.113C110.655 58.768 112.477 52.666 110.032 49.219C106.441 54.153 112.866 83.631 108.508 76.528C103.884 62.677 107.978 49.407 106.363 36C98.4276 39.889 104.686 54.812 104.798 61.406C100.352 56.903 100.116 52.766 94.9756 47.276C93.4396 45.518 83.0606 40.894 86.9116 45.729C90.5106 49.031 97.6726 52.448 99.4286 55.713C93.4556 51.682 82.0636 56.954 95.0596 55.57C104.824 57.772 112.037 77.281 98.3206 65.453C83.9566 60.329 97.3226 71.981 103.82 72.48C110.559 75.626 107.903 91.137 111.693 98.55C107.157 93.063 103.433 86.777 100.192 79.621C102.281 92.187 94.7276 73.027 90.6866 68.855C85.8866 66.391 93.2246 77.843 95.1386 78.611C99.1376 82.102 84.3606 76.345 86.9646 80.578C101.629 82.314 101.613 87.725 110.297 99.189C116.206 104.773 108.301 109.692 111.029 116.812C101.645 111.293 106.607 102.638 105.787 93.957C101.935 91.962 102.709 101.427 102.555 103.811C101.113 102.28 101.894 99.839 101.203 97.97C97.6176 95.014 98.8176 105.833 99.5856 108C99.8276 109.014 96.3506 106.44 94.3856 107.96C87.2576 110.435 93.0806 110.434 96.7176 110.461C95.7986 108.875 99.0236 108.851 100.106 110.52C104.634 114.418 112.437 119.645 118.501 125.468C128.086 143.065 107.914 99.467 129.172 103.765" fill="#4B5C23" blush:i="0.0.76"/><path id="Fill 3920" fill-rule="evenodd" clip-rule="evenodd" d="M104.756 88.2907C104.347 86.1417 102.614 77.6927 105.627 78.7067C107.367 82.8717 108.864 98.5247 104.756 88.2907" fill="#8A9D5B" blush:i="0.0.77"/><path id="Fill 3922" fill-rule="evenodd" clip-rule="evenodd" d="M118.778 102.129C115.445 101.136 113.878 97.2125 114.123 94.0205C116.637 94.5155 119.034 99.2675 118.778 102.129" fill="#8A9D5B" blush:i="0.0.78"/><path id="Fill 3924" fill-rule="evenodd" clip-rule="evenodd" d="M118.773 88.2096C117.175 85.9916 114.484 81.8826 115.426 79.4246C117.897 80.5876 120.566 86.0296 118.773 88.2096" fill="#8A9D5B" blush:i="0.0.79"/><path id="Fill 3926" fill-rule="evenodd" clip-rule="evenodd" d="M104.789 107.715C103.191 103.564 111.664 100.418 111.607 103.992C101.492 101.551 109.908 120.091 104.789 107.715" fill="#8A9D5B" blush:i="0.0.80"/><path id="Fill 3928" fill-rule="evenodd" clip-rule="evenodd" d="M99.0167 100.41C98.8307 99.9678 98.7587 99.3608 98.9847 98.9208C99.3967 99.2258 98.9707 99.9148 99.0167 100.41" fill="#8A9D5B" blush:i="0.0.81"/><path id="Fill 3930" fill-rule="evenodd" clip-rule="evenodd" d="M119.319 85.3238C119.393 85.2418 119.449 85.0078 119.551 85.1688C119.474 85.2198 119.395 85.2698 119.319 85.3238" fill="#8A9D5B" blush:i="0.0.82"/><path id="Fill 3932" fill-rule="evenodd" clip-rule="evenodd" d="M119.885 107.545C119.878 107.636 119.884 107.688 119.806 107.729C119.793 107.635 119.767 107.59 119.885 107.545" fill="#8A9D5B" blush:i="0.0.83"/><path id="Fill 3934" fill-rule="evenodd" clip-rule="evenodd" d="M110.51 86.941C110.448 86.845 110.448 86.847 110.507 86.944L110.51 86.941Z" fill="#8A9D5B" blush:i="0.0.84"/><path id="Fill 3936" fill-rule="evenodd" clip-rule="evenodd" d="M116.532 76.692C116.491 76.673 116.377 76.684 116.431 76.627C116.466 76.646 116.496 76.678 116.532 76.692" fill="#8A9D5B" blush:i="0.0.85"/><path id="Fill 3938" fill-rule="evenodd" clip-rule="evenodd" d="M107.543 113.16C107.575 113.231 107.608 113.303 107.641 113.374C107.608 113.303 107.575 113.231 107.543 113.16" fill="#8A9D5B" blush:i="0.0.86"/><path id="Fill 3940" fill-rule="evenodd" clip-rule="evenodd" d="M90.9108 73.3072C90.8798 73.2522 90.8488 73.1972 90.8178 73.1412C90.8488 73.1972 90.8798 73.2522 90.9108 73.3072" fill="#8A9D5B" blush:i="0.0.87"/><path id="Fill 3942" fill-rule="evenodd" clip-rule="evenodd" d="M112.848 105.643C112.866 105.607 112.867 105.603 112.844 105.639L112.848 105.643Z" fill="#8A9D5B" blush:i="0.0.88"/><path id="Fill 3944" fill-rule="evenodd" clip-rule="evenodd" d="M110.866 110.497C110.902 110.516 110.907 110.516 110.869 110.493L110.866 110.497Z" fill="#8A9D5B" blush:i="0.0.89"/><path id="Fill 3946" fill-rule="evenodd" clip-rule="evenodd" d="M101.159 111.304C101.173 111.292 101.185 111.28 101.198 111.267C101.199 111.293 101.179 111.298 101.159 111.304" fill="#8A9D5B" blush:i="0.0.90"/><path id="Fill 3948" fill-rule="evenodd" clip-rule="evenodd" d="M106.282 113.642L106.317 113.68C106.291 113.681 106.291 113.655 106.282 113.642" fill="#8A9D5B" blush:i="0.0.91"/><path id="Fill 3950" fill-rule="evenodd" clip-rule="evenodd" d="M101.97 71.7486C101.968 71.7506 101.97 71.7486 101.97 71.7486C101.937 71.7286 101.935 71.7286 101.97 71.7486" fill="#8A9D5B" blush:i="0.0.92"/><path id="Fill 3952" fill-rule="evenodd" clip-rule="evenodd" d="M115.633 69.6823C115.632 69.6813 115.633 69.6823 115.633 69.6823C115.612 69.7203 115.612 69.7203 115.633 69.6823" fill="#8A9D5B" blush:i="0.0.93"/><path id="Fill 3954" fill-rule="evenodd" clip-rule="evenodd" d="M96.1275 80.1969C96.1645 80.2399 96.1625 80.2419 96.1215 80.2039L96.1275 80.1969Z" fill="#8A9D5B" blush:i="0.0.94"/><path id="Fill 3956" fill-rule="evenodd" clip-rule="evenodd" d="M138.83 89.2808C139.162 85.9098 139.755 81.5038 141.093 78.8018C143.849 81.7268 139.66 99.9558 138.83 89.2808" fill="#8A9D5B" blush:i="0.0.95"/><path id="Fill 3958" fill-rule="evenodd" clip-rule="evenodd" d="M138.439 93.6979C138.41 93.7159 138.397 93.6999 138.397 93.6689C138.419 93.6499 138.437 93.6679 138.439 93.6979" fill="#8A9D5B" blush:i="0.0.96"/><path id="Fill 3960" fill-rule="evenodd" clip-rule="evenodd" d="M144.254 105.165C144.284 105.159 144.289 105.177 144.29 105.203C144.258 105.203 144.231 105.201 144.254 105.165" fill="#8A9D5B" blush:i="0.0.97"/><path id="Fill 3962" fill-rule="evenodd" clip-rule="evenodd" d="M137.745 104.071C137.745 104.024 137.744 103.976 137.744 103.929C137.744 103.976 137.745 104.024 137.745 104.071" fill="#8A9D5B" blush:i="0.0.98"/><path id="Fill 3964" fill-rule="evenodd" clip-rule="evenodd" d="M155.322 96.0211C155.367 95.9901 155.411 95.9591 155.456 95.9271C155.411 95.9591 155.366 95.9901 155.322 96.0211" fill="#8A9D5B" blush:i="0.0.99"/><path id="Fill 3966" fill-rule="evenodd" clip-rule="evenodd" d="M138.989 60.1528C139.024 60.1218 139.059 60.0898 139.094 60.0578C139.059 60.0898 139.024 60.1218 138.989 60.1528" fill="#8A9D5B" blush:i="0.0.100"/><path id="Fill 3968" fill-rule="evenodd" clip-rule="evenodd" d="M133.702 71.7496C133.688 71.7626 133.675 71.7736 133.661 71.7866C133.66 71.7626 133.681 71.7506 133.702 71.7496" fill="#8A9D5B" blush:i="0.0.101"/><path id="Fill 3970" fill-rule="evenodd" clip-rule="evenodd" d="M139.545 78.939C139.507 78.922 139.503 78.922 139.542 78.943L139.545 78.939Z" fill="#8A9D5B" blush:i="0.0.102"/><path id="Fill 3972" fill-rule="evenodd" clip-rule="evenodd" d="M153.216 62.608C153.282 62.659 153.235 62.689 153.179 62.716C153.143 62.66 153.149 62.63 153.216 62.608" fill="#8A9D5B" blush:i="0.0.103"/><path id="Fill 3974" fill-rule="evenodd" clip-rule="evenodd" d="M148.18 81.0133C148.154 81.0663 148.162 81.2393 148.101 81.1843C148.127 81.1353 148.142 81.0273 148.18 81.0133" fill="#8A9D5B" blush:i="0.0.104"/><path id="Fill 3976" fill-rule="evenodd" clip-rule="evenodd" d="M154.467 79.7506C154.479 79.7646 154.491 79.7776 154.503 79.7916C154.48 79.7906 154.469 79.7696 154.467 79.7506" fill="#8A9D5B" blush:i="0.0.105"/><path id="Fill 3978" fill-rule="evenodd" clip-rule="evenodd" d="M94.5966 105.006C94.6266 104.994 94.6556 104.997 94.6826 105.014C94.6546 105.011 94.6246 105.008 94.5966 105.006" fill="#8A9D5B" blush:i="0.0.106"/><path id="Fill 3980" fill-rule="evenodd" clip-rule="evenodd" d="M154.809 72.1999L154.909 71.9159L154.809 72.1999Z" fill="#8A9D5B" blush:i="0.0.107"/><path id="Fill 3982" fill-rule="evenodd" clip-rule="evenodd" d="M82.1716 98.2263C82.1496 98.2543 82.1346 98.2533 82.1156 98.2223C82.1386 98.1933 82.1526 98.1943 82.1716 98.2263" fill="#8A9D5B" blush:i="0.0.108"/><path id="Fill 3984" fill-rule="evenodd" clip-rule="evenodd" d="M96.8381 110.39C96.9691 110.2 97.0911 110.175 97.1991 110.41C97.0781 110.403 96.9581 110.396 96.8381 110.39" fill="#8A9D5B" blush:i="0.0.109"/><path id="Fill 3986" fill-rule="evenodd" clip-rule="evenodd" d="M153.293 80.4605C153.412 80.4005 153.53 80.3415 153.648 80.2825C153.53 80.3415 153.412 80.4005 153.293 80.4605" fill="#8A9D5B" blush:i="0.0.110"/><path id="Fill 3988" fill-rule="evenodd" clip-rule="evenodd" d="M141.159 93.5875C141.277 93.5475 141.394 93.5075 141.513 93.4675C141.497 93.8085 141.268 93.5225 141.159 93.5875" fill="#8A9D5B" blush:i="0.0.111"/><path id="Fill 3990" fill-rule="evenodd" clip-rule="evenodd" d="M140.968 94.111C141.073 94.089 141.021 94.1 140.968 94.111C140.958 93.93 141.03 93.969 140.968 94.111" fill="#8A9D5B" blush:i="0.0.112"/><path id="Fill 3992" fill-rule="evenodd" clip-rule="evenodd" d="M146.417 78.8648C145.52 77.2878 144.287 75.6828 143.885 74.0708C144.912 75.2028 145.949 77.2918 146.417 78.8648" fill="#8A9D5B" blush:i="0.0.113"/><path id="Fill 3994" fill-rule="evenodd" clip-rule="evenodd" d="M146.918 79.2954C146.825 79.2494 146.733 79.2034 146.642 79.1584C146.782 79.0584 146.782 79.0584 146.918 79.2954" fill="#8A9D5B" blush:i="0.0.114"/><path id="Fill 3996" fill-rule="evenodd" clip-rule="evenodd" d="M147.075 79.4L146.996 79.321L147.075 79.4Z" fill="#8A9D5B" blush:i="0.0.115"/><path id="Fill 3998" fill-rule="evenodd" clip-rule="evenodd" d="M146.402 78.9C146.337 78.898 146.336 78.894 146.401 78.885L146.402 78.9Z" fill="#8A9D5B" blush:i="0.0.116"/><path id="Fill 4000" fill-rule="evenodd" clip-rule="evenodd" d="M118.739 55.151C118.747 55.172 118.75 55.183 118.722 55.173L118.739 55.151Z" fill="#8A9D5B" blush:i="0.0.117"/><path id="Fill 4002" fill-rule="evenodd" clip-rule="evenodd" d="M119.082 80.6558C118.667 80.5308 118.7 80.2348 118.8 79.9138C119.176 80.0538 119.188 80.3328 119.082 80.6558" fill="#8A9D5B" blush:i="0.0.118"/><path id="Fill 4004" fill-rule="evenodd" clip-rule="evenodd" d="M104.776 107.249L104.761 107.354L104.776 107.249Z" fill="#8A9D5B" blush:i="0.0.119"/><path id="Fill 4006" fill-rule="evenodd" clip-rule="evenodd" d="M104.757 88.2906C105.128 88.3336 105.256 88.4946 105.022 88.8326C104.933 88.6516 104.845 88.4716 104.757 88.2906" fill="#8A9D5B" blush:i="0.0.120"/><path id="Fill 4008" fill-rule="evenodd" clip-rule="evenodd" d="M105.293 88.9185C105.158 89.3735 105.079 89.3775 105.059 88.8965C105.137 88.9015 105.214 88.9195 105.293 88.9185" fill="#8A9D5B" blush:i="0.0.121"/><path id="Fill 4010" fill-rule="evenodd" clip-rule="evenodd" d="M118.717 99.8853L118.62 99.6923L118.717 99.8853Z" fill="#8A9D5B" blush:i="0.0.122"/><path id="Fill 4012" fill-rule="evenodd" clip-rule="evenodd" d="M105.296 88.9215C105.307 88.9105 105.343 88.8585 105.323 88.9035C105.317 88.9125 105.289 88.9125 105.296 88.9215" fill="#8A9D5B" blush:i="0.0.123"/><path id="Fill 4014" fill-rule="evenodd" clip-rule="evenodd" d="M99.7192 71.1178C99.7072 71.1288 99.6722 71.1808 99.6922 71.1358C99.6982 71.1268 99.7252 71.1268 99.7192 71.1178" fill="#8A9D5B" blush:i="0.0.124"/></g></g></svg>