<svg viewBox="33.96249999999998 0.30924855491329595 179.07500000000002 201.01156069364166" fill="none" xmlns="http://www.w3.org/2000/svg" xmlns:xlink="http://www.w3.org/1999/xlink" xmlns:blush="http://design.blush" overflow="visible" width="179.07500000000002px" height="201.01156069364166px"><g id="Master/Stickers/Outdoor 1" blush:has-customizable-colors="true" blush:viewBox="33.345 0.12355658198612218 179.07500000000002 201.3972286374134" blush:i="0"><g id="Group" blush:i="0.0"><g id="Group 44 Copy" blush:i="0.0.0"><path id="Fill 1904" fill-rule="evenodd" clip-rule="evenodd" d="M71.9395 161.084C75.2487 161.071 78.0665 160.999 80.8844 161.162C82.779 161.272 84.6747 161.39 86.5519 161.697C88.2577 161.975 89.9595 162.289 91.649 162.702C92.4768 162.904 93.3282 163.024 94.1571 163.253C94.2791 163.287 94.4864 163.238 94.4628 163.463C94.4433 163.637 94.2586 163.641 94.1201 163.656C92.8564 163.788 91.5946 163.976 90.3278 164.042C87.8813 164.172 85.4348 164.343 82.9852 164.404C80.6289 164.463 78.2758 164.462 75.9185 164.421C74.3757 164.396 72.8288 164.373 71.2901 164.298C69.5668 164.214 67.8383 164.128 66.1181 163.938C64.6276 163.775 63.1382 163.593 61.6487 163.41C61.2384 163.359 60.8312 163.281 60.4219 163.21C60.3531 163.198 60.2526 163.214 60.2403 163.099C60.228 162.986 60.3275 162.972 60.389 162.933C60.9563 162.587 61.6005 162.562 62.2088 162.408C64.1055 161.93 66.0319 161.643 67.9645 161.4C69.4499 161.216 70.9342 161.054 71.9395 161.084" fill="#614135" blush:i="0.0.0.0"/><path id="Fill 1908" fill-rule="evenodd" clip-rule="evenodd" d="M95.1028 146.352C93.3967 146.19 91.6331 145.606 89.9014 145.621C91.3228 143.084 92.0073 139.9 93.8734 137.54C95.0175 137.042 105.607 134.908 103.251 137.245C98.9096 138.241 95.4867 141.933 95.1028 146.352" fill="#5F8048" blush:i="0.0.0.1"/><path id="Fill 1910" fill-rule="evenodd" clip-rule="evenodd" d="M113.838 151.777C113.618 151.268 113.649 150.156 112.916 150.145C110.276 142.153 87.3259 144.758 101.135 151.766C102.71 154.717 104.662 151.047 107.02 150.914C110.028 150.488 113.291 150.827 111.555 154.257C112.559 154.428 114.053 152.862 113.838 151.777V151.777Z" fill="#5F8048" blush:i="0.0.0.2"/><path id="Fill 1912" fill-rule="evenodd" clip-rule="evenodd" d="M112.148 149.179C112.148 149.18 112.148 149.18 112.148 149.179C112.148 149.18 112.147 149.182 112.148 149.179" fill="#5F8048" blush:i="0.0.0.3"/><path id="Fill 1914" fill-rule="evenodd" clip-rule="evenodd" d="M60.8173 116.484C60.6964 116.412 60.6987 116.339 60.8196 116.269C60.9166 116.342 60.9154 116.413 60.8173 116.484" fill="#FEC3BC" blush:i="0.0.0.4"/><path id="Fill 1916" fill-rule="evenodd" clip-rule="evenodd" d="M73.7169 141.406C73.7443 141.439 73.7716 141.472 73.7989 141.506C78.3439 152.392 73.9188 143.855 87.5968 135.397L87.62 135.422C85.0084 136.972 80.946 153.653 80.2332 150.276L80.2363 150.279C79.9451 149.788 79.6655 150.672 79.4678 150.076C79.1303 149.897 79.5046 150.702 79.0126 150.268C78.9474 150.229 78.9222 150.082 78.8118 150.213C78.6709 150.394 78.9127 150.525 79.0304 150.636C79.3585 151.305 77.6984 150.376 78.5332 150.279L78.5353 150.276C78.4848 149.819 78.1252 150.244 77.9654 150.098L77.9686 150.101C77.9255 149.56 76.9036 149.985 76.483 149.864C75.9973 149.84 76.543 150.182 76.3548 150.293C75.5894 150.264 75.2509 149.706 74.7273 149.319C74.4161 149.195 74.1554 148.899 73.7432 149.178C73.6223 149.259 73.3479 149.248 73.1187 149.056C72.8391 148.757 72.1389 149.599 72.5836 149.697C72.7234 149.879 73.2449 149.823 73.0367 150.185C72.4732 150.324 71.8119 149.612 71.1748 149.714C70.9919 149.722 70.8667 149.581 70.8794 149.381C69.3949 146.87 69.91 143.496 69.2918 140.701C69.1814 137.643 66.101 131.549 70.9466 137.657C70.9992 137.671 71.0371 137.701 71.0633 137.745L71.056 137.747C71.1758 137.801 71.1864 137.923 71.2431 138.015H71.2452C72.0306 139.126 72.9127 140.305 73.7169 141.406" fill="#5F8048" blush:i="0.0.0.5"/><path id="Fill 1918" fill-rule="evenodd" clip-rule="evenodd" d="M63.7518 150.48C63.4859 150.088 63.9044 149.748 63.819 149.368C64.4362 148.924 64.6935 148.201 65.4739 148.916C65.7705 149.748 69.3041 149.771 67.8949 150.963C67.0914 151.025 66.4838 152.495 65.7485 151.84C65.3395 150.968 64.4535 151.048 63.7518 150.48" fill="#526E3F" blush:i="0.0.0.6"/><path id="Fill 1920" fill-rule="evenodd" clip-rule="evenodd" d="M63.1009 154.235C62.4667 154.425 62.5271 153.793 62.2469 153.568C61.6381 153.054 61.1718 153.256 61.475 152.275C64.8875 152.014 66.0883 151.307 63.1009 154.235" fill="#526E3F" blush:i="0.0.0.7"/><path id="Fill 1922" fill-rule="evenodd" clip-rule="evenodd" d="M58.4951 133.435C58.4072 133.356 58.4061 133.28 58.519 133.253C58.681 133.255 58.6457 133.41 58.4951 133.435" fill="#FEDAD4" blush:i="0.0.0.8"/><path id="Fill 1924" fill-rule="evenodd" clip-rule="evenodd" d="M59.6459 132.153C59.7315 132.172 59.7429 132.201 59.6927 132.273C59.6071 132.253 59.5946 132.224 59.6459 132.153" fill="#FEDAD4" blush:i="0.0.0.9"/><path id="Fill 1926" fill-rule="evenodd" clip-rule="evenodd" d="M57.3667 133.325C57.3815 133.339 57.3952 133.351 57.4089 133.365C57.3815 133.366 57.3747 133.347 57.3678 133.323L57.3667 133.325Z" fill="#FEFEFE" blush:i="0.0.0.10"/><path id="Fill 1928" fill-rule="evenodd" clip-rule="evenodd" d="M72.2803 138.025C72.1114 137.991 72.0829 137.863 72.0761 137.72C72.3567 137.682 72.4377 137.776 72.2803 138.025" fill="#FAAAA1" blush:i="0.0.0.11"/><path id="Fill 1930" fill-rule="evenodd" clip-rule="evenodd" d="M71.0803 132.135C71.1248 132.196 71.1259 132.236 71.0734 132.291C71.0289 132.233 71.0301 132.191 71.0803 132.135" fill="#FAAAA1" blush:i="0.0.0.12"/><path id="Fill 1932" fill-rule="evenodd" clip-rule="evenodd" d="M72.2806 137.918C72.2384 137.885 72.1973 137.851 72.1551 137.819C72.1973 137.851 72.2384 137.885 72.2806 137.918" fill="#FAAAA1" blush:i="0.0.0.13"/><path id="Fill 1934" fill-rule="evenodd" clip-rule="evenodd" d="M61.3724 160.625C61.3592 160.555 61.3889 160.495 61.4361 160.445C61.3932 160.477 61.391 160.566 61.3724 160.625V160.625ZM60.3419 165.527C60.3759 165.519 60.3902 165.621 60.4122 165.667C60.332 165.632 60.2364 165.555 60.3419 165.527V165.527ZM62.5215 169.157C60.5792 167.153 63.9014 154.993 61.2724 156.695C62.4666 157.665 59.8552 157.057 59.2037 158.054C58.3457 157.617 58.0711 158.983 57.3339 159.195C55.9848 158.903 57.2087 159.799 56.689 160.048C55.3158 159.705 55.8662 161.18 55.4652 161.001C53.5921 161.016 54.5797 163.936 52.8868 164.15C52.1529 164.755 53.2438 164.362 53.4778 164.455C52.5045 165.028 53.7448 165.458 53.5569 166.158C49.6558 166.53 55.5058 191.808 58.1535 176.498C58.9203 173.806 62.404 171.571 62.5215 169.157V169.157Z" fill="#526E3F" blush:i="0.0.0.14"/><path id="Fill 1936" fill-rule="evenodd" clip-rule="evenodd" d="M65.2886 126.61C65.5339 126.519 64.911 126.273 65.3251 126.242C65.6 126.18 65.6787 126.955 65.3616 126.869C65.2224 126.83 65.1585 126.753 65.2886 126.61" fill="#FAAAA1" blush:i="0.0.0.15"/><path id="Fill 1938" fill-rule="evenodd" clip-rule="evenodd" d="M65.526 133.497C65.3857 133.433 65.283 133.332 65.218 133.194C65.4427 133.173 65.5454 133.275 65.526 133.497" fill="#FEC3BC" blush:i="0.0.0.16"/><path id="Fill 1940" fill-rule="evenodd" clip-rule="evenodd" d="M66.6165 134.577C66.4853 134.572 66.4157 134.505 66.4111 134.373C66.5457 134.376 66.6142 134.444 66.6165 134.577" fill="#FEC3BC" blush:i="0.0.0.17"/><path id="Fill 1942" fill-rule="evenodd" clip-rule="evenodd" d="M67.8088 133.382C67.8077 133.738 67.5499 133.454 67.4917 133.274C67.478 133.021 67.8898 133.147 67.8088 133.382" fill="#FEBAB1" blush:i="0.0.0.18"/><path id="Fill 1944" fill-rule="evenodd" clip-rule="evenodd" d="M67.6531 133.378C67.644 133.351 67.6394 133.336 67.636 133.321C67.6485 133.318 67.6611 133.313 67.6748 133.31C67.6691 133.329 67.6622 133.348 67.6531 133.378" fill="#FEBAB1" blush:i="0.0.0.19"/><path id="Fill 1946" fill-rule="evenodd" clip-rule="evenodd" d="M70.3369 149.174C70.1885 149.148 70.0538 149.128 69.9431 149.12C70.0559 149.068 70.1927 149.073 70.3369 149.174M69.7133 149.407C69.7551 149.446 69.8188 149.496 69.8836 149.545C69.848 149.641 69.8042 149.72 69.6841 149.674C69.6736 149.578 69.6882 149.489 69.7133 149.407M97.1766 133.945C92.9653 135.155 88.6161 138.393 85.5005 142.489C85.8754 141.937 86.2608 141.391 86.6943 140.898C88.731 134.065 93.5439 127.734 100.204 124.86C90.4116 125.008 80.8285 132.968 75.6678 140.974C75.0662 141.736 75.4913 139.944 75.4046 139.587C74.8249 139.817 75.2532 140.901 74.4865 141.224C78.5401 153.421 75.5112 142.772 88.6736 134.67C85.8608 137.171 84.3515 141.543 83.6006 145.175C83.8095 144.926 84.0058 144.653 84.2001 144.381C82.9614 146.355 82.0098 148.467 81.5001 150.617C80.8787 151.089 81.0803 150.746 80.9173 150.367C81.0938 150.334 80.9476 150.183 80.9027 150.335C80.8787 150.283 80.8473 150.232 80.8035 150.182C80.3815 150.256 79.0655 149.912 79.4384 150.666C79.2953 150.891 79.2765 150.651 79.2169 150.402C79.2232 150.408 79.2295 150.414 79.2357 150.419C79.2295 150.412 79.2222 150.406 79.2159 150.399C79.1501 150.128 79.0352 149.851 78.654 150.162C78.7657 149.522 76.9369 149.769 76.8126 150.185C76.1253 149.331 71.9506 147.988 73.5789 150.15C73.2791 149.992 72.0895 149.593 71.0847 149.339C71.2549 149.353 71.421 149.447 71.5902 149.45C71.5881 149.359 71.5871 149.267 71.585 149.176C71.5913 148.925 71.42 148.89 71.2236 148.883C70.9468 147.216 70.6324 145.595 70.575 143.871C70.434 140.25 68.6876 136.664 66.5266 133.83C66.0817 133.648 65.7642 133.214 65.3976 132.899C65.2962 132.69 65.0059 132.668 64.9275 132.434C64.4314 131.929 58.1531 127.901 60.241 129.994C60.6525 129.794 60.7413 130.474 60.2974 130.392C59.7543 130.447 60.5836 130.733 60.1219 130.964C59.8922 131.238 60.3632 131.125 60.4635 131.219C60.4457 131.395 60.0436 131.261 60.194 131.524C60.3267 131.818 60.9753 131.277 60.8259 131.758C60.3925 133.351 59.7198 131.852 59.4859 132.346C59.4545 132.683 60.0457 132.693 59.8483 133.097C59.8013 133.315 59.6812 133.02 59.6196 133.104C59.4295 133.363 58.8049 133.02 58.8654 133.65C58.878 133.785 58.6576 133.715 58.5448 133.736C56.6146 131.872 60.1178 142.752 61.8338 145.182C61.8505 145.466 61.6991 145.915 62.2976 145.64V145.639H62.2986C63.0632 146.444 63.8914 147.253 64.8335 147.907C64.8325 147.926 64.8315 147.946 64.8304 147.966C64.962 148.104 65.1396 148.16 65.3098 148.231C65.3976 148.241 65.4853 148.248 65.5741 148.257C65.9156 149.39 68.979 148.692 68.3064 150.188C68.3022 150.248 68.3231 150.286 68.3336 150.333C62.9055 151.424 53.523 142.517 48.9837 157.426C48.5628 158.073 49.0923 158.54 49.6031 158.706C49.3221 158.863 49.6261 159.149 49.7044 158.732C50.1765 158.849 50.5786 158.696 50.1128 158.165C50.634 157.779 50.9055 158.891 51.3442 158.773C53.1407 156.785 58.1625 153.282 62.2307 152.453C64.2821 151.886 64.4534 152.308 63.9353 153.568C63.6742 153.619 63.5374 153.771 63.6136 154.101C63.6554 154.095 63.6836 154.076 63.718 154.065C63.013 155.608 61.7043 158.066 61.1883 161.267C61.1852 161.268 61.1842 161.266 61.181 161.267C61.1831 161.27 61.1842 161.273 61.1863 161.276C60.8959 163.083 60.8635 165.126 61.3335 167.372C61.2729 167.374 61.2249 167.381 61.2458 167.434C61.2761 167.518 61.321 167.637 61.4066 167.711C61.745 169.181 62.2986 170.735 63.1436 172.368C61.462 169.406 67.4123 165.139 65.221 166.136C76.1305 149.366 78.3866 166.557 84.4905 156.334C85.3125 145.216 92.7992 155.906 97.4179 159.059C104.074 160.024 104.24 160.387 108.155 164.053C105.594 137.88 80.8661 152.867 97.1766 133.945" fill="#7CA162" blush:i="0.0.0.20"/><path id="Fill 1948" fill-rule="evenodd" clip-rule="evenodd" d="M50.7962 150.819C50.9958 150.04 51.0221 149.399 50.1721 150.113C50.3478 150.375 50.4733 150.683 50.7962 150.819" fill="#7CA162" blush:i="0.0.0.21"/><path id="Fill 1950" fill-rule="evenodd" clip-rule="evenodd" d="M75.7414 137.356C75.706 137.355 75.6695 137.354 75.633 137.353C75.4208 137.65 75.5896 138.043 75.5508 138.384C75.9285 138.098 75.6569 137.695 75.7414 137.356" fill="#7CA162" blush:i="0.0.0.22"/><path id="Fill 1952" fill-rule="evenodd" clip-rule="evenodd" d="M66.3643 166.251C66.4796 166.252 66.5936 166.251 66.6632 166.133C66.4864 165.982 66.3883 166.022 66.3643 166.251" fill="#7CA162" blush:i="0.0.0.23"/><path id="Fill 1954" fill-rule="evenodd" clip-rule="evenodd" d="M75.6465 140.029C75.5427 140.092 75.5335 140.158 75.6351 140.232C75.7412 140.17 75.7457 140.102 75.6465 140.029" fill="#7CA162" blush:i="0.0.0.24"/><path id="Fill 1956" fill-rule="evenodd" clip-rule="evenodd" d="M75.673 138.957C75.5806 138.983 75.592 139.013 75.6718 139.042C75.6741 139.015 75.6741 138.985 75.673 138.957" fill="#7CA162" blush:i="0.0.0.25"/><path id="Fill 1958" fill-rule="evenodd" clip-rule="evenodd" d="M59.9945 143.601C59.9603 143.394 59.7744 143.383 59.6261 143.349C58.8024 143.433 60.039 143.898 59.9945 143.601" fill="#7CA162" blush:i="0.0.0.26"/><path id="Fill 1960" fill-rule="evenodd" clip-rule="evenodd" d="M59.6966 143.409C59.538 143.39 59.5791 143.557 59.6703 143.641C59.7536 143.559 59.7821 143.471 59.6966 143.409" fill="#7CA162" blush:i="0.0.0.27"/><path id="Fill 1962" fill-rule="evenodd" clip-rule="evenodd" d="M59.7289 143.5C59.6571 143.451 59.6263 143.463 59.6092 143.548C59.681 143.597 59.7107 143.586 59.7289 143.5" fill="#7CA162" blush:i="0.0.0.28"/><path id="Fill 1964" fill-rule="evenodd" clip-rule="evenodd" d="M72.3965 139.298C72.5836 138.869 72.36 138.728 71.9721 138.702C72.0383 138.953 72.1706 139.158 72.3965 139.298" fill="#7CA162" blush:i="0.0.0.29"/><path id="Fill 1966" fill-rule="evenodd" clip-rule="evenodd" d="M60.7861 168.518C60.81 168.489 60.834 168.458 60.8614 168.422C60.8363 168.377 60.8146 168.339 60.7941 168.301C60.7336 168.369 60.7621 168.441 60.7861 168.518" fill="#7CA162" blush:i="0.0.0.30"/><path id="Fill 1968" fill-rule="evenodd" clip-rule="evenodd" d="M60.8567 160.22C60.4825 160.302 60.859 160.606 60.6981 160.75C61.0792 160.842 60.8955 160.407 60.8567 160.221V160.22Z" fill="#7CA162" blush:i="0.0.0.31"/><path id="Fill 1970" fill-rule="evenodd" clip-rule="evenodd" d="M61.0264 159.413C60.9956 159.253 60.8849 159.184 60.7537 159.143C60.3179 159.143 60.8918 159.902 61.0264 159.413" fill="#7CA162" blush:i="0.0.0.32"/><path id="Fill 1972" fill-rule="evenodd" clip-rule="evenodd" d="M52.8833 146.892C52.8206 146.842 52.759 146.859 52.7658 146.938C52.816 147.001 52.8731 146.969 52.8833 146.892" fill="#7CA162" blush:i="0.0.0.33"/><path id="Fill 1974" fill-rule="evenodd" clip-rule="evenodd" d="M51.6947 148.028C51.6867 148.043 51.6787 148.055 51.6707 148.07C51.6787 148.055 51.6867 148.043 51.6947 148.028" fill="#7CA162" blush:i="0.0.0.34"/><path id="Fill 1976" fill-rule="evenodd" clip-rule="evenodd" d="M68.7301 165.013C68.7678 165.035 68.9207 165.091 68.8374 165.011C68.8009 164.989 68.7495 164.951 68.7301 165.013" fill="#7CA162" blush:i="0.0.0.35"/><path id="Fill 1978" fill-rule="evenodd" clip-rule="evenodd" d="M60.8346 131.176C60.9293 131.103 60.9419 131.024 60.8244 130.987C60.6601 130.976 60.6818 131.138 60.8346 131.176" fill="#7CA162" blush:i="0.0.0.36"/><path id="Fill 1980" fill-rule="evenodd" clip-rule="evenodd" d="M58.6047 134.254C58.8751 135.152 58.0229 134.431 58.607 134.255L58.6047 134.254Z" fill="#FEC3BC" blush:i="0.0.0.37"/><path id="Fill 1982" fill-rule="evenodd" clip-rule="evenodd" d="M60.7498 131.104C60.7692 131.021 60.7988 131.008 60.8696 131.058C60.8513 131.143 60.8205 131.155 60.7498 131.104" fill="#FEC3BC" blush:i="0.0.0.38"/><path id="Fill 1984" fill-rule="evenodd" clip-rule="evenodd" d="M59.6668 134.498C59.6542 134.488 59.6428 134.479 59.6314 134.47C59.6611 134.444 59.6827 134.445 59.7067 134.476C59.693 134.484 59.6805 134.49 59.6668 134.498" fill="#FEC3BC" blush:i="0.0.0.39"/><path id="Fill 1986" fill-rule="evenodd" clip-rule="evenodd" d="M80.7746 120.818C62.1233 129.964 76.3069 134.207 60.4333 114.68C56.375 115.145 60.1477 126.211 58.9207 129.085C56.11 127.404 52.5496 126.015 56.0945 130.105C58.9166 134.114 42.0604 126.88 42.4109 136.728C47.6633 130.659 52.793 138.551 53.8674 144.028C43.9968 136.628 31.8897 145.19 34.3138 156.897C33.1425 146.634 45.2547 143.332 50.7112 150.696C37.802 154.254 37.8979 189.21 48.3294 167.656C48.9666 167.46 52.0145 163.768 52.2681 165.921C53.3766 166.618 52.2176 164.652 53.3384 165.663C53.8385 165.205 52.696 164.557 53.1425 164.157C53.656 163.709 52.9889 163.745 52.7363 163.718C54.054 163.023 54.2056 160.567 55.4006 160.121C55.0036 159.253 56.8957 159.843 56.4224 159.03C56.7781 158.576 57.8597 157.555 58.7929 157.451C59.2156 156.445 61.6624 157.182 60.788 156.075C60.1694 155.138 62.2027 156.598 61.518 157.244C61.4376 157.367 61.5283 157.515 61.7263 157.482C63.0678 155.612 63.6596 154.438 62.0831 152.864C58.4578 152.915 52.132 157.486 51.2329 159.025C50.902 157.961 49.1738 158.482 50.0719 158.636C46.6735 158.809 52.297 149.721 55.9079 149.504C58.4939 147.603 62.7914 150.929 63.8823 149.061C65.7744 147.772 61.9171 146.505 61.5686 145.266C60.5643 142.516 56.5183 135.437 58.7743 134.061C58.9774 133.449 60.4096 133.751 59.5229 132.892C60.0714 133.217 60.8324 132.721 60.755 132.04C59.7807 131.389 60.9149 130.452 59.8281 129.962C64.7237 131.681 67.9046 136.149 69.7368 140.747C67.8881 131.069 70.3565 137.108 73.8767 141.317C76.8287 138.721 74.9377 129.68 77.636 125.092V125.093C78.2258 123.463 80.2313 122.324 80.7746 120.818" fill="#526E3F" blush:i="0.0.0.40"/><path id="Fill 1988" fill-rule="evenodd" clip-rule="evenodd" d="M109.295 174.972C108.756 170.086 106.219 165.284 102.562 161.933C102.445 161.923 102.403 161.884 102.387 161.77C99.6615 159.831 95.6728 159.77 93.4105 156.482C81.7539 144.523 88.4635 160.279 80.1981 160.675C74.3431 159.575 76.6711 155.96 70.5909 161.379C69.252 162.611 63.652 167.856 66.9888 166.779C67.2993 166.561 67.8021 166.651 68.0099 166.231C68.3677 165.893 69.4351 165.907 69.433 165.461C71.6798 164.799 72.088 163.979 71.8032 166.873C71.6664 167.018 71.6654 167.162 71.8032 167.308V167.307C71.8844 167.695 71.6798 168.156 71.8978 168.489C72.0387 169.238 72.0582 170.027 72.3533 170.679C72.3934 170.806 72.3071 170.974 72.4479 171.041C72.6762 171.623 72.6063 172.377 73.0793 172.881C74.1919 174.866 79.3919 188.51 79.7045 181.874C81.1925 177.277 82.4912 172.294 82.9004 167.43C84.0274 168.148 84.9436 169.323 86.2876 169.778C86.3092 169.969 86.5025 169.938 86.6516 169.963V169.963C89.3858 171.943 92.6332 173.962 93.5576 177.408C93.6645 177.887 94.4049 177.844 94.4491 177.383C96.2609 166.648 87.6244 157.626 103.509 170.593C103.524 170.806 103.665 170.91 103.856 170.959C103.868 170.987 103.878 171.016 103.891 171.044C103.86 171.329 104.198 171.288 104.304 171.514C104.332 171.686 104.381 171.844 104.595 171.869C104.595 171.869 104.597 171.869 104.597 171.87L104.596 171.869C104.601 171.997 104.616 172.119 104.778 172.142C105.027 172.504 105.316 172.909 105.611 173.236C106.392 174.674 109.223 178.961 109.295 174.972" fill="#496238" blush:i="0.0.0.41"/></g><g id="Group 130" blush:i="0.0.1"><g id="Group 129" blush:i="0.0.1.0"><path id="Fill 1" fill-rule="evenodd" clip-rule="evenodd" d="M132.798 46.1223C132.798 46.1223 136.581 37.2817 145.179 34.1738C153.778 31.0649 158.151 29.7541 157.02 28.0053C155.891 26.2575 149.896 27.7627 149.896 27.7627C149.896 27.7627 152.304 25.285 149.994 24.556C147.685 23.8282 141.101 30.7246 141.101 30.7246C141.101 30.7246 138.989 28.4432 137.613 30.5796C136.237 32.717 132.847 41.6049 132.798 46.1223" fill="#437342" blush:i="0.0.1.0.0"/><path id="Fill 3" fill-rule="evenodd" clip-rule="evenodd" d="M111.157 104.043C111.157 104.043 105.775 89.3996 91.5744 87.0186C77.3753 84.6396 81.4531 89.0295 81.8462 90.6714C82.2393 92.3143 85.3833 93.5274 90.7881 94.5966C96.193 95.6658 106.707 98.3851 108.673 103.291L111.157 104.043Z" fill="#437342" blush:i="0.0.1.0.1"/><path id="Fill 5" fill-rule="evenodd" clip-rule="evenodd" d="M100.732 63.8267C100.732 63.8267 97.4459 55.1321 101.574 49.2062C105.7 43.2814 113.506 42.6738 113.767 42.7231C114.029 42.7714 108.059 38.7639 104.301 41.8965C104.301 41.8965 105.043 39.7838 103.75 39.2739C102.458 38.7639 100.732 42.7231 100.732 42.7231C100.732 42.7231 101.096 38.8616 99.4927 38.7403C97.8879 38.6179 95.3826 41.6056 96.4143 46.7059C96.4143 46.7059 95.8984 47.6764 94.6452 46.1713C93.392 44.6652 91.624 49.2062 91.624 49.2062L100.732 63.8267Z" fill="#437342" blush:i="0.0.1.0.2"/><path id="Fill 7" fill-rule="evenodd" clip-rule="evenodd" d="M101.942 82.6235C101.942 82.6235 94.4243 75.9203 84.2541 74.3905C74.0829 72.8607 69.8085 76.9412 71.7991 72.3508C73.7886 67.7614 79.3162 68.2847 79.3162 68.2847C79.3162 68.2847 84.1803 63.243 88.1604 65.4287C92.1404 67.6144 89.6351 67.1045 91.4769 67.2515C93.3188 67.3964 92.6563 70.2381 92.6563 70.2381C92.6563 70.2381 96.1933 68.7803 96.5625 69.5092C96.9307 70.2381 100.911 77.0142 101.942 82.6235" fill="#437342" blush:i="0.0.1.0.3"/><path id="Fill 15" fill-rule="evenodd" clip-rule="evenodd" d="M114.487 182.722L111.89 182.623C114.785 107.682 106.436 89.4863 106.352 89.3321L108.636 88.1076C108.996 88.7615 117.411 107.079 114.487 182.722" fill="#D8B89D" blush:i="0.0.1.0.4"/><path id="Fill 17" fill-rule="evenodd" clip-rule="evenodd" d="M111.415 118.582C111.249 117.13 107.449 82.8143 117.357 64.7919C126.994 47.2629 130.777 34.8539 130.815 34.7295L133.306 35.4615C133.269 35.5869 129.42 48.2314 119.642 66.0184C110.121 83.3366 113.959 117.945 113.999 118.293L111.415 118.582Z" fill="#D8B89D" blush:i="0.0.1.0.5"/><path id="Fill 19" fill-rule="evenodd" clip-rule="evenodd" d="M117.118 71.8336L114.593 71.2208C116.897 61.9279 110.693 38.1852 110.63 37.9467L113.146 37.298C113.41 38.2983 119.578 61.9115 117.118 71.8336" fill="#D8B89D" blush:i="0.0.1.0.6"/><path id="Fill 21" fill-rule="evenodd" clip-rule="evenodd" d="M117.689 66.6449L115.092 66.5205C115.737 53.4391 120.571 41.8864 120.775 41.4002L123.174 42.3923C123.126 42.5064 118.311 54.0292 117.689 66.6449" fill="#D8B89D" blush:i="0.0.1.0.7"/><path id="Fill 23" fill-rule="evenodd" clip-rule="evenodd" d="M111.502 116.742C110.588 91.6403 97.7862 62.7161 97.6572 62.4272L100.036 61.3888C100.167 61.6818 113.168 91.0471 114.1 116.65L111.502 116.742Z" fill="#D8B89D" blush:i="0.0.1.0.8"/><path id="Fill 25" fill-rule="evenodd" clip-rule="evenodd" d="M109.699 95.9525C109.699 95.9525 107.175 93.0944 103.269 91.5378C99.3624 89.9813 96.2674 90.6897 92.7293 91.5378C89.1923 92.386 84.7702 92.751 86.4654 87.7236C88.1606 82.6963 91.993 85.4649 94.9404 83.1332C97.8888 80.8025 89.9286 81.7494 91.4033 78.6168C92.877 75.4842 96.7094 77.451 96.7832 75.0463C96.8571 72.6426 97.3729 72.5696 98.4784 72.0597C99.584 71.5497 98.0489 68.999 100.732 69.364C103.416 69.7279 104.399 74.3903 105.824 72.2046C107.249 70.0189 107.469 66.5244 110.049 69.329C112.629 72.1326 110.098 73.0363 112.8 71.5271C115.503 70.0189 112.105 75.4112 111.887 77.5229C111.671 79.6367 108.367 88.6993 109.699 95.9525" fill="#1E501D" blush:i="0.0.1.0.9"/><path id="Fill 27" fill-rule="evenodd" clip-rule="evenodd" d="M97.1614 76.0292C98.0381 76.3962 98.7006 77.0707 99.3308 77.7328C99.9569 78.4082 100.529 79.1299 101.07 79.8702C102.148 81.3588 103.079 82.939 103.982 84.5315C104.872 86.1302 105.754 87.7392 106.46 89.4242C107.161 91.1123 107.808 92.82 108.307 94.5821L108.234 94.6109C107.322 93.0163 106.574 91.3611 105.749 89.7419C104.955 88.1093 104.238 86.4438 103.429 84.8184C102.603 83.2043 101.749 81.5994 100.747 80.0871C100.255 79.3263 99.7322 78.584 99.155 77.8859C98.5778 77.1992 97.9455 76.497 97.1416 76.1032L97.1614 76.0292Z" fill="#689467" blush:i="0.0.1.0.10"/><path id="Fill 29" fill-rule="evenodd" clip-rule="evenodd" d="M107.876 72.3597C107.339 75.1067 106.88 77.8682 106.543 80.6358C106.38 82.0206 106.301 83.4106 106.16 84.7882C106.004 86.1679 105.899 87.5415 105.863 88.9479L105.786 88.9592C105.375 87.5867 105.366 86.1463 105.382 84.7379C105.423 83.3222 105.678 81.9312 105.926 80.5474C106.404 77.7767 107.042 75.0419 107.8 72.3411L107.876 72.3597Z" fill="#689467" blush:i="0.0.1.0.11"/><path id="Fill 31" fill-rule="evenodd" clip-rule="evenodd" d="M102.749 72.3426C103.243 74.2487 103.632 76.1794 103.9 78.1379C104.037 79.1156 104.185 80.1047 104.137 81.105C104.078 82.0909 103.936 83.1458 103.385 84.0186L103.312 83.9888C103.446 83.0121 103.402 82.0683 103.357 81.1029C103.303 80.1427 103.331 79.1722 103.279 78.1976C103.151 76.2534 102.944 74.3011 102.673 72.359L102.749 72.3426Z" fill="#689467" blush:i="0.0.1.0.12"/><path id="Fill 33" fill-rule="evenodd" clip-rule="evenodd" d="M95.2285 83.4598C96.2207 83.1915 97.2409 83.0157 98.2872 82.9828C98.8082 82.9592 99.3511 82.918 99.8732 83.0836C100.383 83.246 100.909 83.5082 101.227 83.9729L101.184 84.0366C100.649 83.941 100.19 83.8896 99.7099 83.8371C99.2367 83.7837 98.7614 83.6572 98.2653 83.5997C97.2784 83.4968 96.2592 83.4886 95.242 83.5359L95.2285 83.4598Z" fill="#689467" blush:i="0.0.1.0.13"/><path id="Fill 35" fill-rule="evenodd" clip-rule="evenodd" d="M88.1657 89.2639C89.7538 89.3163 91.2597 88.8105 92.7906 88.3571C94.3548 87.9737 95.9626 87.8266 97.5705 87.8143C99.1773 87.8153 100.811 87.9387 102.368 88.4065C103.91 88.8897 105.413 89.5847 106.624 90.6395L106.581 90.7032C105.139 90.0288 103.683 89.485 102.163 89.1508C100.656 88.8002 99.1221 88.5144 97.5569 88.4301C95.9959 88.3664 94.413 88.4342 92.8769 88.7334C91.3596 89.0768 89.758 89.5024 88.1543 89.34L88.1657 89.2639Z" fill="#689467" blush:i="0.0.1.0.14"/><path id="Fill 37" fill-rule="evenodd" clip-rule="evenodd" d="M100.732 63.8267C100.732 63.8267 99.1412 65.5755 98.2198 64.1906C97.2983 62.8068 81.6744 43.6453 65.3121 44.4462C65.3121 44.4462 62.1006 45.2481 62.1006 43.5723C62.1006 41.8965 66.8607 39.8568 69.1445 40.1488C69.1445 40.1488 70.6931 39.1289 70.8397 38.108C70.9874 37.0881 70.3239 36.9185 72.1667 37.6228C74.0096 38.326 76.5888 38.4473 77.9887 37.6228C79.3895 36.7972 80.4951 42.7714 81.4165 42.1885C82.3379 41.6056 81.9355 36.5011 86.6321 37.1961C91.3287 37.889 88.1599 43.8643 88.1599 43.8643C88.1599 43.8643 91.7707 42.2605 92.2866 43.9363C92.8024 45.612 92.0661 47.3608 93.6136 47.7258C95.1622 48.0887 93.9079 51.0774 95.235 52.1692C96.4279 53.152 98.2853 60.0793 100.117 63.0053C100.323 63.3343 100.529 63.6129 100.732 63.8267" fill="#1E501D" blush:i="0.0.1.0.15"/><path id="Fill 39" fill-rule="evenodd" clip-rule="evenodd" d="M71.3422 39.5481C72.2293 40.389 73.0769 41.2711 73.8829 42.1964C74.2854 42.658 74.7056 43.1145 75.028 43.6419C75.3254 44.1786 75.6488 44.745 75.6811 45.3876L75.6312 45.3989C75.3212 44.8736 74.9656 44.4058 74.5964 43.9298C74.2292 43.4558 73.911 42.9438 73.5564 42.4514C72.8325 41.4809 72.0785 40.5237 71.3037 39.582L71.3422 39.5481Z" fill="#689467" blush:i="0.0.1.0.16"/><path id="Fill 41" fill-rule="evenodd" clip-rule="evenodd" d="M75.0865 38.7238C76.0901 39.9195 77.0407 41.1573 77.9278 42.4455C78.374 43.086 78.8284 43.7306 79.1737 44.44C79.5013 45.1484 79.8237 45.8978 79.857 46.7008L79.806 46.7111C79.4868 45.9986 79.1186 45.3375 78.714 44.6796L77.5763 42.6666C76.7755 41.3414 75.9268 40.0367 75.0449 38.7547L75.0865 38.7238Z" fill="#689467" blush:i="0.0.1.0.17"/><path id="Fill 43" fill-rule="evenodd" clip-rule="evenodd" d="M80.7879 42.4667C81.5554 43.612 82.2824 44.785 82.9604 45.9889C83.3047 46.5873 83.6614 47.1846 83.9183 47.8313C84.1575 48.479 84.3977 49.1462 84.4268 49.8556L84.3759 49.8679L83.443 48.04C83.13 47.4344 82.8835 46.796 82.5902 46.176C81.9995 44.9393 81.3807 43.7127 80.7432 42.4924L80.7879 42.4667Z" fill="#689467" blush:i="0.0.1.0.18"/><path id="Fill 45" fill-rule="evenodd" clip-rule="evenodd" d="M87.6691 44.562C88.1423 46.0816 88.5895 47.6062 89.0107 49.1401C89.2249 49.9071 89.4672 50.6668 89.6066 51.4513C89.7303 52.2388 89.8739 53.0294 89.8323 53.8426L89.7803 53.8478C89.5286 53.087 89.3154 52.3282 89.0991 51.5644C88.8942 50.7974 88.7652 50.014 88.6061 49.2368L87.6191 44.5744L87.6691 44.562Z" fill="#689467" blush:i="0.0.1.0.19"/><path id="Fill 47" fill-rule="evenodd" clip-rule="evenodd" d="M89.5851 44.3191C90.1945 46.3588 90.7738 48.4078 91.2668 50.4835C91.3916 51.0027 91.5184 51.5209 91.6193 52.0514C91.6661 52.3177 91.716 52.5798 91.7337 52.8667C91.7514 53.1669 91.7441 53.3817 91.7732 53.648C91.8554 54.6751 92.1154 55.7062 92.3359 56.7508L92.287 56.7683C91.7836 55.8142 91.4415 54.7892 91.2553 53.7066C91.1929 53.1278 91.1992 52.6538 91.1108 52.1316C91.0452 51.6124 90.9516 51.0891 90.8601 50.5678C90.4587 48.486 89.998 46.4072 89.5352 44.3325L89.5851 44.3191Z" fill="#689467" blush:i="0.0.1.0.20"/><path id="Fill 49" fill-rule="evenodd" clip-rule="evenodd" d="M113.034 114.717C113.034 114.717 108.391 104.918 104.006 105.464C99.6203 106.01 95.7141 109.763 90.0762 107.176C84.4384 104.589 82.6693 107.577 81.3059 110.273C79.9425 112.968 79.021 114.644 81.7115 114.207C84.4009 113.77 84.1805 113.406 84.9168 115.263C85.6541 117.122 86.9437 116.247 87.7913 115.263C88.6389 114.28 89.3763 113.223 90.5557 116.028C91.735 118.834 95.3823 119.016 95.7879 118.033C96.1935 117.049 95.1961 115.482 96.0822 115.446C96.9673 115.409 98.4409 116.393 99.0681 115.446C99.6941 114.498 98.2943 113.952 99.5465 113.77C100.8 113.587 101.021 113.889 101.979 112.008C102.937 110.127 108.85 110.492 110.647 114.389C112.445 118.288 113.034 114.717 113.034 114.717" fill="#1E501D" blush:i="0.0.1.0.21"/><path id="Fill 51" fill-rule="evenodd" clip-rule="evenodd" d="M83.1221 110.417C83.1481 109.864 83.4185 109.304 83.8875 108.947C84.3597 108.595 84.9514 108.444 85.5255 108.403C86.0986 108.376 86.6841 108.392 87.227 108.558C87.7698 108.726 88.2867 108.95 88.7578 109.266L88.7402 109.314C88.1671 109.275 87.6461 109.129 87.1084 109.06C86.5811 108.965 86.0653 108.845 85.5349 108.813C85.0107 108.804 84.4803 108.889 84.0373 109.157C83.5901 109.413 83.2687 109.893 83.1741 110.42L83.1221 110.417Z" fill="#689467" blush:i="0.0.1.0.22"/><path id="Fill 53" fill-rule="evenodd" clip-rule="evenodd" d="M85.5928 115.217C86.4331 113.236 87.6925 111.4 89.3992 109.998C90.2593 109.312 91.2535 108.745 92.3486 108.48C93.4448 108.209 94.594 108.3 95.6454 108.579L95.6361 108.63C94.5441 108.645 93.4833 108.635 92.4817 108.978C91.4875 109.285 90.5182 109.707 89.654 110.323C88.8033 110.955 88.0441 111.711 87.3785 112.544C86.7108 113.376 86.1117 114.274 85.6406 115.238L85.5928 115.217Z" fill="#689467" blush:i="0.0.1.0.23"/><path id="Fill 55" fill-rule="evenodd" clip-rule="evenodd" d="M92.5211 117.095C91.9553 115.697 91.6568 114.184 91.6911 112.651C91.7057 111.887 91.8107 111.106 92.0999 110.381C92.3994 109.662 92.8611 109.009 93.4425 108.508L93.4831 108.542C93.1378 109.224 92.7831 109.853 92.5887 110.556C92.3848 111.246 92.1758 111.944 92.1061 112.677C91.9823 114.137 92.1498 115.643 92.5699 117.075L92.5211 117.095Z" fill="#689467" blush:i="0.0.1.0.24"/><path id="Fill 57" fill-rule="evenodd" clip-rule="evenodd" d="M95.8476 108.245C95.4181 109.31 95.1976 110.45 95.1601 111.574C95.1456 112.14 95.208 112.698 95.2444 113.255C95.2496 113.82 95.3525 114.37 95.3702 114.964L95.3213 114.98C95.0166 114.468 94.8294 113.897 94.7275 113.313C94.6193 112.727 94.6724 112.126 94.7452 111.545C94.8793 110.374 95.2298 109.235 95.8018 108.222L95.8476 108.245Z" fill="#689467" blush:i="0.0.1.0.25"/><path id="Fill 59" fill-rule="evenodd" clip-rule="evenodd" d="M100.073 106.604C99.7307 107.655 99.4884 108.736 99.3511 109.817C99.2949 110.359 99.3012 110.9 99.2648 111.435C99.2263 111.974 99.244 112.501 99.2398 113.071L99.1899 113.085C98.9029 112.582 98.7989 112.004 98.7448 111.436C98.7125 110.864 98.8269 110.301 98.9413 109.752C99.1743 108.649 99.5404 107.588 100.025 106.583L100.073 106.604Z" fill="#689467" blush:i="0.0.1.0.26"/><path id="Fill 61" fill-rule="evenodd" clip-rule="evenodd" d="M102.667 105.984C102.379 106.963 102.215 107.973 102.12 108.976C102.081 109.481 102.088 109.986 102.038 110.485C101.968 110.986 101.945 111.489 101.821 112.006L101.769 112.009C101.595 111.506 101.541 110.986 101.519 110.466C101.502 109.945 101.611 109.429 101.708 108.921C101.898 107.902 102.185 106.902 102.619 105.964L102.667 105.984Z" fill="#689467" blush:i="0.0.1.0.27"/><path id="Fill 63" fill-rule="evenodd" clip-rule="evenodd" d="M113.034 115.446C113.034 115.446 113.808 115.482 114.618 114.171C115.43 112.858 122.136 106.411 129.801 108.051C137.466 109.69 138.35 112.24 136.766 108.561C135.181 104.881 124.826 104.553 124.495 104.553C124.163 104.553 124.421 102.841 122.984 102.733C121.547 102.623 119.188 105.829 119.188 105.829C119.188 105.829 116.903 104.19 115.43 105.281C113.956 106.375 116.683 107.213 114.803 109.399C112.924 111.585 111.745 113.806 113.034 115.446" fill="#437342" blush:i="0.0.1.0.28"/><path id="Fill 65" fill-rule="evenodd" clip-rule="evenodd" d="M112.223 97.9233C112.223 97.9233 110.822 98.1063 112.407 99.3082C113.992 100.51 117.419 106.156 127.995 106.301C138.57 106.448 142.404 103.279 141.814 101.858C141.224 100.437 140.966 100.109 135.623 101.639C135.623 101.639 137.282 98.9072 134.775 98.4332C132.269 97.9603 130.575 103.206 129.027 102.368C127.479 101.53 130.353 97.9603 127.737 96.7934C125.12 95.6286 122.726 98.9072 122.283 99.1981C121.841 99.4901 120.367 98.1423 118.782 98.6882C117.198 99.2352 117.345 98.2873 114.876 98.7982C112.407 99.3082 112.223 97.9233 112.223 97.9233" fill="#1E501D" blush:i="0.0.1.0.29"/><path id="Fill 67" fill-rule="evenodd" clip-rule="evenodd" d="M126.763 85.3313C126.763 85.3313 130.195 81.7741 131.128 81.2878Z" fill="#F49D97" blush:i="0.0.1.0.30"/><path id="Fill 69" fill-rule="evenodd" clip-rule="evenodd" d="M116.39 88.1153C116.39 88.1153 130.685 81.5613 138.94 88.9532C147.194 96.3452 151.076 99.6968 151.469 98.6286C151.862 97.5594 150.977 93.2846 150.437 91.7784C149.896 90.2743 148.865 89.8189 149.7 88.9532C150.535 88.0886 151.518 84.0348 144.885 84.7021C144.885 84.7021 131.084 72.0648 116.39 88.1153" fill="#437342" blush:i="0.0.1.0.31"/><path id="Fill 71" fill-rule="evenodd" clip-rule="evenodd" d="M133.421 85.7208C133.927 85.2756 134.491 84.9539 135.069 84.665C135.65 84.3791 136.282 84.2239 136.903 84.0389C137.523 83.8548 138.144 83.6718 138.773 83.5166C139.407 83.3819 140.048 83.2318 140.708 83.2431V83.3202C140.082 83.4107 139.484 83.6533 138.891 83.8846C138.295 84.1098 137.707 84.3627 137.121 84.6177C136.537 84.8778 135.975 85.1893 135.363 85.3795C134.748 85.5676 134.126 85.7342 133.452 85.7917L133.421 85.7208Z" fill="#689467" blush:i="0.0.1.0.32"/><path id="Fill 73" fill-rule="evenodd" clip-rule="evenodd" d="M137.412 87.4206C138.206 86.9826 139.045 86.7122 139.899 86.484C140.753 86.2609 141.639 86.194 142.519 86.121C144.27 85.9627 146.064 85.9216 147.79 86.2886L147.777 86.3657C146.038 86.2218 144.306 86.4439 142.602 86.7328C141.748 86.8849 140.912 87.1193 140.054 87.2396C139.195 87.3589 138.328 87.4658 137.438 87.4925L137.412 87.4206Z" fill="#689467" blush:i="0.0.1.0.33"/><path id="Fill 75" fill-rule="evenodd" clip-rule="evenodd" d="M141.145 90.3321C141.728 90.0329 142.339 89.8736 142.956 89.7574C143.575 89.6443 144.208 89.6813 144.837 89.6926C145.465 89.705 146.095 89.7368 146.722 89.8078C147.343 89.9013 147.985 90.0196 148.539 90.3362L148.503 90.4041C147.929 90.1943 147.308 90.182 146.698 90.1933C146.087 90.1995 145.476 90.2437 144.866 90.3095C144.254 90.3814 143.652 90.513 143.036 90.5244C142.42 90.5326 141.8 90.5254 141.157 90.4082L141.145 90.3321Z" fill="#689467" blush:i="0.0.1.0.34"/><path id="Fill 77" fill-rule="evenodd" clip-rule="evenodd" d="M146.406 93.9264C146.678 93.7013 146.96 93.6056 147.241 93.5419C147.525 93.4812 147.813 93.5594 148.099 93.5964C148.669 93.6612 149.248 93.7342 149.806 93.9274L149.791 94.0025C149.228 94.0344 148.668 94.1413 148.11 94.2122C147.83 94.2595 147.552 94.3531 147.27 94.3119C146.988 94.2698 146.704 94.1989 146.41 94.0035L146.406 93.9264Z" fill="#689467" blush:i="0.0.1.0.35"/><path id="Fill 79" fill-rule="evenodd" clip-rule="evenodd" d="M113.736 79.6646C113.736 79.6646 113.931 81.4299 115.209 79.9751C116.486 78.5193 120.122 72.4474 124.642 72.3508C129.163 72.2531 129.752 72.357 130.243 71.5273C130.735 70.6987 131.619 71.1418 132.798 71.5273C133.978 71.9139 136.975 71.5736 137.761 70.456C138.547 69.3395 138.154 67.3759 143.264 68.2847C148.374 69.1935 149.307 66.0363 146.212 62.9767C143.116 59.9161 138.498 61.1313 137.073 59.8677C135.648 58.6052 132.798 59.1882 130.489 62.9767C128.18 66.7652 128.195 67.6884 126.762 66.2789C125.33 64.8704 123.189 68.0966 121.974 69.9081C120.76 71.7185 113.641 76.5362 113.736 79.6646" fill="#437342" blush:i="0.0.1.0.36"/><path id="Fill 81" fill-rule="evenodd" clip-rule="evenodd" d="M124.593 38.7359C124.593 38.7359 134.027 25.4314 140.463 20.8163C146.9 16.2022 155.007 13.9198 154.663 12.5597C154.319 11.1995 148.62 10.0337 145.327 14.5994C145.327 14.5994 144.738 12.2687 142.772 13.1426C140.807 14.0165 138.891 17.6107 138.891 17.6107C138.891 17.6107 137.958 15.0857 136.287 15.5226C134.616 15.9596 132.798 21.6428 132.798 21.6428C132.798 21.6428 131.521 20.2344 130.587 20.7679C129.653 21.3025 126.804 33.9234 124.593 38.7359" fill="#437342" blush:i="0.0.1.0.37"/><path id="Fill 83" fill-rule="evenodd" clip-rule="evenodd" d="M112.682 40.8473C112.682 40.8473 113.448 40.9501 113.776 40.0752C114.102 39.2003 115.582 39.1406 116.389 37.1307C117.198 35.1218 125.01 28.5112 126.043 25.0404C127.074 21.5695 125.084 19.6028 127.074 18.364C129.064 17.1261 128.032 15.8133 127.074 15.8133C126.115 15.8133 127.727 13.8465 128.212 12.5357C128.695 11.2249 128.106 9.54911 126.189 9.62108C126.189 9.62108 127.221 7.07039 125.084 5.97856C122.946 4.8857 121.055 5.54059 120.526 4.37474C119.999 3.20991 119.875 1.02419 116.4 1.09719C112.923 1.16915 111.375 6.92543 109.975 4.52073C108.575 2.11705 107.027 1.97209 105.185 3.8648C105.185 3.8648 102.826 1.67908 101.426 3.57385C100.026 5.46862 103.342 8.31026 103.342 9.18414C103.342 10.059 101.942 19.5298 108.28 27.3258C114.618 35.1218 109.492 36.811 112.682 40.8473" fill="#437342" blush:i="0.0.1.0.38"/><path id="Fill 85" fill-rule="evenodd" clip-rule="evenodd" d="M110.955 7.12909C112.295 9.15546 113.317 11.372 114.135 13.6534C114.938 15.9398 115.546 18.3024 115.866 20.7091C116.205 23.1097 116.353 25.5525 116.141 27.9757C115.973 30.402 115.451 32.7892 114.752 35.1034L114.702 35.0901C115.112 32.708 115.549 30.3434 115.622 27.9417C115.815 25.5525 115.702 23.1467 115.453 20.7626C115.189 18.3754 114.636 16.0221 113.889 13.7356C113.142 11.4491 112.188 9.212 110.912 7.15788L110.955 7.12909Z" fill="#709B6F" blush:i="0.0.1.0.39"/><path id="Fill 87" fill-rule="evenodd" clip-rule="evenodd" d="M118.772 4.81291C118.782 5.86567 118.75 6.91946 118.666 7.97223C118.563 9.02397 118.444 10.0788 118.121 11.113C118.05 11.3742 117.94 11.6291 117.825 11.8831C117.678 12.1452 117.538 12.3704 117.412 12.5698C117.169 13.0047 116.976 13.4787 116.81 13.9609C116.459 14.9283 116.242 15.9502 116.016 16.9814L115.963 16.9783C115.895 15.9142 116.038 14.8502 116.315 13.8066C116.469 13.2895 116.669 12.7775 116.971 12.3087C117.141 12.0723 117.291 11.8574 117.414 11.6662C117.53 11.4482 117.644 11.223 117.727 10.9804C118.081 10.0181 118.255 8.97667 118.407 7.94447C118.559 6.90816 118.661 5.86156 118.72 4.81188L118.772 4.81291Z" fill="#709B6F" blush:i="0.0.1.0.40"/><path id="Fill 89" fill-rule="evenodd" clip-rule="evenodd" d="M122 6.70943C121.888 8.231 121.669 9.74846 121.298 11.2412C121.118 11.9866 120.933 12.7433 120.588 13.4455C120.233 14.1333 119.826 14.8293 119.202 15.3207L119.162 15.2878C119.546 14.6185 119.851 13.9441 120.11 13.2419C120.379 12.5479 120.666 11.8509 120.897 11.1312C121.35 9.68883 121.688 8.20324 121.948 6.70429L122 6.70943Z" fill="#709B6F" blush:i="0.0.1.0.41"/><path id="Fill 91" fill-rule="evenodd" clip-rule="evenodd" d="M125.4 11.36C124.911 12.2215 124.427 13.0851 123.966 13.9539C123.741 14.3918 123.55 14.8462 123.305 15.2636C123.06 15.6841 122.783 16.083 122.638 16.5375L122.587 16.5477C122.433 16.007 122.676 15.5011 122.838 15.0364C123.032 14.5697 123.33 14.1615 123.607 13.7472C124.153 12.9134 124.741 12.1105 125.357 11.3312L125.4 11.36Z" fill="#709B6F" blush:i="0.0.1.0.42"/><path id="Fill 93" fill-rule="evenodd" clip-rule="evenodd" d="M106.598 10.4735C107.939 11.1715 109.246 11.9303 110.513 12.761C111.149 13.1701 111.793 13.5824 112.361 14.0934C112.911 14.6115 113.473 15.1667 113.797 15.872L113.753 15.9008C113.2 15.3857 112.628 14.9282 112.026 14.4861L110.273 13.0961C109.071 12.2007 107.833 11.3422 106.572 10.5177L106.598 10.4735Z" fill="#709B6F" blush:i="0.0.1.0.43"/><path id="Fill 95" fill-rule="evenodd" clip-rule="evenodd" d="M104.161 14.5507C106.18 15.1562 108.13 15.9838 109.984 17.0006C110.909 17.5126 111.823 18.0606 112.641 18.7391C113.439 19.4392 114.188 20.2082 114.747 21.1047L114.707 21.1366C113.92 20.4334 113.152 19.7518 112.316 19.1401C111.48 18.5345 110.656 17.9074 109.772 17.3543C107.994 16.2748 106.108 15.3433 104.146 14.6L104.161 14.5507Z" fill="#709B6F" blush:i="0.0.1.0.44"/><path id="Fill 97" fill-rule="evenodd" clip-rule="evenodd" d="M104.677 19.5786C105.541 19.8295 106.394 20.1163 107.233 20.4505C108.065 20.799 108.896 21.165 109.653 21.7068C110.034 21.9463 110.391 22.3894 110.63 22.6794C110.915 22.9847 111.24 23.2664 111.584 23.5296C112.264 24.0735 113.026 24.5299 113.785 25.0162L113.765 25.0645C112.877 24.8435 112.052 24.4415 111.277 23.9439C110.897 23.6807 110.537 23.3785 110.238 23.0084C109.937 22.592 109.754 22.3113 109.397 22.0317C108.727 21.4878 107.926 21.0725 107.127 20.6849C106.325 20.2932 105.499 19.9426 104.66 19.627L104.677 19.5786Z" fill="#709B6F" blush:i="0.0.1.0.45"/><path id="Fill 99" fill-rule="evenodd" clip-rule="evenodd" d="M123.069 44.3251C123.069 44.3251 122.234 46.5601 120.858 46.6568C119.482 46.7534 120.416 46.4625 120.22 43.8388C120.023 41.2172 118.284 37.0565 115.159 37.6219C112.033 38.1884 110.147 38.6788 109.754 37.1305C109.361 35.5822 110.097 34.6117 110.097 34.6117C110.097 34.6117 107.642 37.0884 106.315 35.9225C104.988 34.7566 105.332 32.7652 103.809 32.9102C102.286 33.0562 97.0777 33.1539 96.98 32.134C96.8812 31.1131 101.893 30.4818 102.286 29.316C102.679 28.1512 101.893 24.3133 104.251 23.6831C106.609 23.0518 112.146 24.7996 113.775 27.3739C115.405 29.9483 114.471 25.4802 115.601 25.2849C116.731 25.0905 117.32 26.646 117.566 24.1683C117.812 21.6906 115.356 21.3504 115.944 19.6509C116.534 17.9515 122.676 16.1544 123.659 19.069C124.642 21.9826 124.002 24.265 125.329 23.5361C126.656 22.8082 127.344 21.5457 128.424 23.0518C129.506 24.5559 129.113 26.0621 127.836 27.1303C126.558 28.1995 129.261 29.5596 131.373 28.7824C133.486 28.0052 133.025 26.5669 134.435 26.46C135.844 26.3541 135.156 29.1227 137.76 26.7417C140.365 24.3627 142.526 26.5967 141.986 28.8318C141.445 31.0658 139.627 33.0809 137.171 32.097C134.714 31.1131 134.222 30.8221 133.879 32.9595C133.535 35.0959 133.043 39.1692 128.621 38.7354C124.199 38.3025 124.249 43.4995 123.069 44.3251" fill="#1E501D" blush:i="0.0.1.0.46"/><path id="Fill 101" fill-rule="evenodd" clip-rule="evenodd" d="M125.674 53.602C125.674 53.602 127.737 47.9691 129.359 45.2971C130.981 42.6251 134.666 37.8219 136.385 43.0415C136.385 43.0415 137.122 41.7513 138.89 41.6053C140.66 41.4593 139.726 37.2821 142.527 37.4281C145.327 37.5741 143.214 41.9456 146.015 40.5371C148.816 39.1286 150.29 33.5913 151.567 33.5913C152.845 33.5913 151.715 35.923 153.581 35.6794C155.449 35.4367 160.755 38.886 160.755 42.3825C160.755 45.879 161.886 45.9284 159.085 47.2402C159.085 47.2402 164.527 46.8989 164.981 47.5312C165.434 48.1624 164.348 49.3941 161.029 49.1915C157.709 48.988 135.746 48.2107 125.674 53.602" fill="#1E501D" blush:i="0.0.1.0.47"/><path id="Fill 103" fill-rule="evenodd" clip-rule="evenodd" d="M132.035 46.9947C131.935 46.5033 131.972 46.0221 132.018 45.54C132.08 45.0588 132.253 44.6003 132.425 44.1459C132.594 43.6915 132.807 43.2473 133.072 42.8351C133.344 42.4351 133.693 42.0434 134.163 41.8738L134.184 41.9201C133.762 42.1452 133.497 42.5534 133.296 42.9646C133.09 43.3779 132.936 43.8179 132.822 44.2703C132.709 44.7237 132.654 45.1873 132.529 45.6387C132.393 46.0879 132.282 46.5444 132.087 46.9988L132.035 46.9947Z" fill="#437342" blush:i="0.0.1.0.48"/><path id="Fill 105" fill-rule="evenodd" clip-rule="evenodd" d="M135.573 46.9897C135.537 46.5548 135.618 46.1477 135.7 45.7395C135.796 45.3355 135.984 44.9592 136.161 44.5819C136.338 44.2056 136.52 43.8304 136.739 43.4716C136.97 43.1271 137.212 42.7539 137.601 42.5545L137.625 42.5997C137.302 42.8413 137.133 43.2269 136.97 43.5898C136.804 43.9578 136.675 44.3444 136.55 44.7299C136.429 45.1175 136.353 45.5195 136.196 45.8958C136.026 46.268 135.874 46.6463 135.623 47.003L135.573 46.9897Z" fill="#437342" blush:i="0.0.1.0.49"/><path id="Fill 107" fill-rule="evenodd" clip-rule="evenodd" d="M140.93 43.5892C140.937 43.0823 141.059 42.6094 141.178 42.1354C141.311 41.6656 141.535 41.2266 141.745 40.7845C141.952 40.3435 142.166 39.9024 142.41 39.4758C142.67 39.0645 142.912 38.6101 143.342 38.3284L143.367 38.3737C143.013 38.6852 142.835 39.156 142.643 39.5889C142.451 40.0279 142.288 40.4833 142.131 40.9377C141.976 41.3942 141.864 41.8651 141.668 42.3071C141.461 42.7451 141.27 43.1882 140.98 43.6046L140.93 43.5892Z" fill="#437342" blush:i="0.0.1.0.50"/><path id="Fill 109" fill-rule="evenodd" clip-rule="evenodd" d="M145.351 44.4386C145.343 43.9944 145.453 43.5853 145.563 43.1751C145.687 42.771 145.903 42.4009 146.108 42.0287C146.313 41.6566 146.524 41.2875 146.774 40.939C147.035 40.6048 147.314 40.245 147.724 40.0764L147.744 40.1237C147.394 40.3406 147.189 40.7169 146.995 41.0747C146.8 41.4355 146.639 41.8169 146.486 42.2004C146.336 42.586 146.232 42.99 146.048 43.3611C145.851 43.7312 145.674 44.1065 145.401 44.455L145.351 44.4386Z" fill="#437342" blush:i="0.0.1.0.51"/><path id="Fill 111" fill-rule="evenodd" clip-rule="evenodd" d="M148.746 42.5611C149.007 41.9874 149.34 41.4734 149.656 40.948C149.984 40.4319 150.372 39.958 150.723 39.4552C151.074 38.9556 151.405 38.4415 151.707 37.9121C152.013 37.3857 152.305 36.8439 152.476 36.2568L152.526 36.2681C152.289 37.4905 151.684 38.6019 151.076 39.6742C150.768 40.2119 150.469 40.7588 150.082 41.2441C149.684 41.7211 149.286 42.1971 148.787 42.5919L148.746 42.5611Z" fill="#437342" blush:i="0.0.1.0.52"/><path id="Fill 113" fill-rule="evenodd" clip-rule="evenodd" d="M153.763 43.5761C154.109 43.1279 154.51 42.7547 154.899 42.3691C155.297 41.9929 155.744 41.6752 156.162 41.3236C156.579 40.9699 156.986 40.6039 157.366 40.2143C157.752 39.8298 158.129 39.4309 158.423 38.9703L158.469 38.9949C157.975 39.9901 157.218 40.8291 156.448 41.6227C156.062 42.0196 155.684 42.4308 155.236 42.7608C154.781 43.0806 154.325 43.4003 153.794 43.6172L153.763 43.5761Z" fill="#437342" blush:i="0.0.1.0.53"/><path id="Fill 115" fill-rule="evenodd" clip-rule="evenodd" d="M122.627 58.5085C122.627 58.5085 131.57 52.2423 142.232 50.8821C152.894 49.523 164.047 51.2707 164.096 50.1542C164.145 49.0367 158.985 49.5713 157.266 47.9192C155.547 46.2681 152.894 42.4796 150.339 43.1108C147.784 43.7431 146.065 46.413 143.853 45.8311C141.642 45.2482 139.628 42.2852 136.483 48.3078C136.483 48.3078 135.992 47.1903 133.633 48.1145C133.633 48.1145 131.717 45.6358 128.474 49.3277C125.231 53.0195 122.382 55.3029 122.627 58.5085" fill="#437342" blush:i="0.0.1.0.54"/><path id="Fill 117" fill-rule="evenodd" clip-rule="evenodd" d="M112.26 96.1995C112.26 96.1995 114.373 87.6993 126.411 84.6397C138.449 81.579 148.128 84.2017 147.98 81.0455C147.834 77.8872 147.096 72.5853 139.529 76.7676C139.529 76.7676 139.48 68.7495 125.624 76.7676C125.624 76.7676 126.165 75.5565 125.92 75.0702C125.673 74.586 113.089 77.4091 112.036 94.9874C112.036 94.9874 111.523 96.1502 112.26 96.1995" fill="#1E501D" blush:i="0.0.1.0.55"/><path id="Fill 119" fill-rule="evenodd" clip-rule="evenodd" d="M116.781 65.6961C116.781 65.6961 115.179 67.1046 114.727 63.827C114.275 60.5474 115.159 59.5275 112.113 57.5361C109.067 55.5447 104.055 56.5163 104.252 53.6016C104.448 50.688 106.266 50.174 108.477 51.2812C108.477 51.2812 108.124 46.5109 111.862 47.3375C111.862 47.3375 114.005 43.6456 116.4 43.9366C118.795 44.2275 117.404 51.638 119.524 50.7744C121.645 49.9108 121.94 48.8416 123.217 50.0568C124.494 51.271 123.723 53.6479 124.404 53.8926C125.084 54.1373 128.834 55.4481 126.763 56.9532C124.691 58.4594 119.778 57.8775 118.55 60.936C117.321 63.9966 116.781 65.6961 116.781 65.6961" fill="#1E501D" blush:i="0.0.1.0.56"/><path id="Fill 121" fill-rule="evenodd" clip-rule="evenodd" d="M105.283 53.3109C106.229 53.3243 107.168 53.4209 108.102 53.5515C109.038 53.681 109.964 53.8763 110.88 54.1498C111.335 54.3061 111.79 54.4531 112.226 54.7163C112.646 54.9805 113.021 55.3013 113.333 55.6673C113.965 56.3921 114.439 57.2279 114.727 58.1203C114.245 57.3204 113.697 56.5669 113.043 55.9397C112.39 55.291 111.62 54.889 110.723 54.6402C108.96 54.1015 107.114 53.7571 105.283 53.3109" fill="#689467" blush:i="0.0.1.0.57"/><path id="Fill 123" fill-rule="evenodd" clip-rule="evenodd" d="M109.214 50.9274C109.818 51.1792 110.38 51.5082 110.928 51.8537C111.477 52.2001 112.008 52.5764 112.492 53.0041C113.466 53.8513 114.419 54.7303 115.257 55.7152C114.142 55.0253 113.143 54.2306 112.165 53.403C111.201 52.56 110.186 51.7899 109.214 50.9274" fill="#689467" blush:i="0.0.1.0.58"/><path id="Fill 125" fill-rule="evenodd" clip-rule="evenodd" d="M113.461 46.9968C114.018 48.321 114.46 49.6873 114.86 51.066C115.258 52.4456 115.57 53.848 115.835 55.2606C116.06 56.6793 116.263 58.1084 116.283 59.5508C116.304 60.987 116.228 62.4469 115.812 63.8266C116.015 62.4058 115.986 60.9829 115.884 59.5693C115.782 58.1557 115.586 56.7461 115.324 55.349C115.103 53.9436 114.787 52.5536 114.474 51.1626C114.157 49.7726 113.815 48.3857 113.461 46.9968" fill="#689467" blush:i="0.0.1.0.59"/><path id="Fill 127" fill-rule="evenodd" clip-rule="evenodd" d="M123.069 51.8541C121.848 52.6354 120.61 53.3448 119.41 54.1087C118.802 54.4819 118.222 54.8849 117.649 55.2982C117.083 55.7197 116.536 56.1679 116.122 56.7591C116.346 56.061 116.863 55.4904 117.39 54.997C117.923 54.4952 118.517 54.0655 119.13 53.6759C119.749 53.2955 120.381 52.9397 121.041 52.6395C121.7 52.3363 122.369 52.0556 123.069 51.8541" fill="#689467" blush:i="0.0.1.0.60"/></g></g><g id="Group 44" blush:i="0.0.2"><path id="Fill 1904_2" fill-rule="evenodd" clip-rule="evenodd" d="M90.9395 178.04C94.2487 178.027 97.0665 177.954 99.8844 178.118C101.779 178.228 103.675 178.346 105.552 178.653C107.258 178.933 108.96 179.247 110.649 179.661C111.477 179.864 112.328 179.984 113.157 180.213C113.279 180.247 113.486 180.198 113.463 180.424C113.443 180.598 113.259 180.601 113.12 180.616C111.856 180.749 110.595 180.937 109.328 181.003C106.881 181.133 104.435 181.305 101.985 181.366C99.6289 181.426 97.2758 181.424 94.9185 181.383C93.3757 181.358 91.8288 181.335 90.2901 181.259C88.5668 181.175 86.8383 181.09 85.1181 180.899C83.6276 180.736 82.1382 180.553 80.6487 180.37C80.2384 180.319 79.8312 180.241 79.4219 180.17C79.3531 180.158 79.2526 180.173 79.2403 180.059C79.228 179.945 79.3275 179.931 79.389 179.893C79.9563 179.546 80.6005 179.521 81.2088 179.367C83.1055 178.887 85.0319 178.6 86.9645 178.356C88.4499 178.172 89.9342 178.009 90.9395 178.04" fill="#614135" blush:i="0.0.2.0"/><path id="Fill 1908_2" fill-rule="evenodd" clip-rule="evenodd" d="M114.103 164.413C112.397 164.251 110.633 163.665 108.901 163.681C110.323 161.138 111.007 157.948 112.873 155.584C114.018 155.085 124.607 152.946 122.251 155.288C117.91 156.286 114.487 159.985 114.103 164.413" fill="#5F8048" blush:i="0.0.2.1"/><path id="Fill 1910_2" fill-rule="evenodd" clip-rule="evenodd" d="M132.838 169.848C132.618 169.338 132.649 168.224 131.916 168.213C129.276 160.205 106.326 162.815 120.135 169.837C121.71 172.793 123.662 169.116 126.02 168.984C129.028 168.557 132.291 168.896 130.555 172.333C131.559 172.504 133.053 170.935 132.838 169.848V169.848Z" fill="#5F8048" blush:i="0.0.2.2"/><path id="Fill 1912_2" fill-rule="evenodd" clip-rule="evenodd" d="M131.148 166.112C131.148 166.113 131.148 166.113 131.148 166.112C131.148 166.113 131.147 166.114 131.148 166.112" fill="#5F8048" blush:i="0.0.2.3"/><path id="Fill 1914_2" fill-rule="evenodd" clip-rule="evenodd" d="M79.8173 134.487C79.6964 134.414 79.6987 134.342 79.8196 134.272C79.9166 134.344 79.9154 134.416 79.8173 134.487" fill="#FEC3BC" blush:i="0.0.2.4"/><path id="Fill 1916_2" fill-rule="evenodd" clip-rule="evenodd" d="M92.7169 159.457C92.7443 159.49 92.7716 159.523 92.7989 159.557C97.3439 170.464 92.9188 161.91 106.597 153.437L106.62 153.462C104.008 155.015 99.946 171.728 99.2332 168.344L99.2363 168.347C98.9451 167.855 98.6655 168.741 98.4678 168.144C98.1303 167.965 98.5046 168.771 98.0126 168.336C97.9474 168.297 97.9222 168.15 97.8118 168.282C97.6709 168.462 97.9127 168.593 98.0304 168.705C98.3585 169.375 96.6984 168.444 97.5332 168.347L97.5353 168.344C97.4848 167.886 97.1252 168.312 96.9654 168.166L96.9686 168.169C96.9255 167.627 95.9036 168.053 95.483 167.931C94.9973 167.907 95.543 168.25 95.3548 168.361C94.5894 168.332 94.2509 167.773 93.7273 167.385C93.4161 167.261 93.1554 166.965 92.7432 167.244C92.6223 167.326 92.3479 167.315 92.1187 167.122C91.8391 166.822 91.1389 167.666 91.5836 167.764C91.7234 167.947 92.2449 167.89 92.0367 168.253C91.4732 168.392 90.8119 167.679 90.1748 167.781C89.9919 167.789 89.8667 167.648 89.8794 167.447C88.3949 164.931 88.91 161.551 88.2918 158.751C88.1814 155.687 85.101 149.581 89.9466 155.701C89.9992 155.715 90.0371 155.745 90.0633 155.789L90.056 155.791C90.1758 155.845 90.1864 155.967 90.2431 156.06H90.2452C91.0306 157.173 91.9127 158.354 92.7169 159.457" fill="#5F8048" blush:i="0.0.2.5"/><path id="Fill 1918_2" fill-rule="evenodd" clip-rule="evenodd" d="M82.7518 167.415C82.4859 167.022 82.9044 166.682 82.819 166.302C83.4362 165.856 83.6935 165.131 84.4739 165.849C84.7705 166.682 88.3041 166.705 86.8949 167.899C86.0914 167.961 85.4838 169.434 84.7485 168.778C84.3395 167.904 83.4535 167.984 82.7518 167.415" fill="#526E3F" blush:i="0.0.2.6"/><path id="Fill 1920_2" fill-rule="evenodd" clip-rule="evenodd" d="M82.1009 172.31C81.4667 172.502 81.5271 171.868 81.2469 171.642C80.6381 171.128 80.1718 171.33 80.475 170.347C83.8875 170.085 85.0883 169.377 82.1009 172.31" fill="#526E3F" blush:i="0.0.2.7"/><path id="Fill 1922_2" fill-rule="evenodd" clip-rule="evenodd" d="M77.4951 151.471C77.4072 151.391 77.4061 151.315 77.519 151.288C77.681 151.29 77.6457 151.446 77.4951 151.471" fill="#FEDAD4" blush:i="0.0.2.8"/><path id="Fill 1924_2" fill-rule="evenodd" clip-rule="evenodd" d="M78.6459 150.186C78.7315 150.205 78.7429 150.235 78.6927 150.306C78.6071 150.287 78.5946 150.257 78.6459 150.186" fill="#FEDAD4" blush:i="0.0.2.9"/><path id="Fill 1926_2" fill-rule="evenodd" clip-rule="evenodd" d="M76.3667 150.227C76.3815 150.241 76.3952 150.253 76.4089 150.267C76.3815 150.268 76.3747 150.249 76.3678 150.225L76.3667 150.227Z" fill="#FEFEFE" blush:i="0.0.2.10"/><path id="Fill 1928_2" fill-rule="evenodd" clip-rule="evenodd" d="M91.2803 156.069C91.1114 156.035 91.0829 155.907 91.0761 155.764C91.3567 155.726 91.4377 155.82 91.2803 156.069" fill="#FAAAA1" blush:i="0.0.2.11"/><path id="Fill 1930_2" fill-rule="evenodd" clip-rule="evenodd" d="M90.0803 150.168C90.1248 150.229 90.1259 150.27 90.0734 150.324C90.0289 150.266 90.0301 150.224 90.0803 150.168" fill="#FAAAA1" blush:i="0.0.2.12"/><path id="Fill 1932_2" fill-rule="evenodd" clip-rule="evenodd" d="M91.2806 155.962C91.2384 155.93 91.1973 155.896 91.1551 155.863C91.1973 155.896 91.2384 155.93 91.2806 155.962" fill="#FAAAA1" blush:i="0.0.2.13"/><path id="Fill 1934_2" fill-rule="evenodd" clip-rule="evenodd" d="M80.3724 177.58C80.3592 177.51 80.3889 177.449 80.4361 177.399C80.3932 177.432 80.391 177.521 80.3724 177.58V177.58ZM79.3419 182.491C79.3759 182.484 79.3902 182.585 79.4122 182.632C79.332 182.596 79.2364 182.52 79.3419 182.491V182.491ZM81.5215 186.128C79.5792 184.12 82.9014 171.937 80.2724 173.642C81.4666 174.614 78.8552 174.004 78.2037 175.004C77.3457 174.566 77.0711 175.935 76.3339 176.147C74.9848 175.855 76.2087 176.752 75.689 177.001C74.3158 176.658 74.8662 178.136 74.4652 177.957C72.5921 177.972 73.5797 180.897 71.8868 181.112C71.1529 181.718 72.2438 181.324 72.4778 181.417C71.5045 181.992 72.7448 182.422 72.5569 183.123C68.6558 183.496 74.5058 208.823 77.1535 193.483C77.9203 190.786 81.404 188.547 81.5215 186.128V186.128Z" fill="#526E3F" blush:i="0.0.2.14"/><path id="Fill 1936_2" fill-rule="evenodd" clip-rule="evenodd" d="M84.2886 144.632C84.5339 144.541 83.911 144.294 84.3251 144.264C84.6 144.201 84.6787 144.978 84.3616 144.892C84.2224 144.853 84.1585 144.776 84.2886 144.632" fill="#FAAAA1" blush:i="0.0.2.15"/><path id="Fill 1938_2" fill-rule="evenodd" clip-rule="evenodd" d="M84.526 151.532C84.3857 151.469 84.283 151.367 84.218 151.229C84.4427 151.208 84.5454 151.31 84.526 151.532" fill="#FEC3BC" blush:i="0.0.2.16"/><path id="Fill 1940_2" fill-rule="evenodd" clip-rule="evenodd" d="M85.6165 152.615C85.4853 152.61 85.4157 152.543 85.4111 152.41C85.5457 152.413 85.6142 152.481 85.6165 152.615" fill="#FEC3BC" blush:i="0.0.2.17"/><path id="Fill 1942_2" fill-rule="evenodd" clip-rule="evenodd" d="M86.8088 151.417C86.8077 151.774 86.5499 151.49 86.4917 151.31C86.478 151.056 86.8898 151.182 86.8088 151.417" fill="#FEBAB1" blush:i="0.0.2.18"/><path id="Fill 1944_2" fill-rule="evenodd" clip-rule="evenodd" d="M86.6531 151.413C86.644 151.386 86.6394 151.371 86.636 151.357C86.6485 151.353 86.6611 151.349 86.6748 151.345C86.6691 151.365 86.6622 151.384 86.6531 151.413" fill="#FEBAB1" blush:i="0.0.2.19"/><path id="Fill 1946_2" fill-rule="evenodd" clip-rule="evenodd" d="M89.3369 166.66C89.1885 166.635 89.0538 166.615 88.9431 166.608C89.0559 166.556 89.1927 166.561 89.3369 166.66M88.7133 166.888C88.7551 166.926 88.8188 166.975 88.8836 167.023C88.848 167.117 88.8042 167.194 88.6841 167.149C88.6736 167.055 88.6882 166.968 88.7133 166.888M116.177 151.765C111.965 152.948 107.616 156.116 104.5 160.122C104.875 159.581 105.261 159.048 105.694 158.565C107.731 151.882 112.544 145.69 119.204 142.879C109.412 143.024 99.8285 150.809 94.6678 158.64C94.0662 159.385 94.4913 157.632 94.4046 157.283C93.8249 157.509 94.2532 158.568 93.4865 158.884C97.5401 170.814 94.5112 160.398 107.674 152.474C104.861 154.921 103.352 159.197 102.601 162.748C102.809 162.505 103.006 162.238 103.2 161.972C101.961 163.903 101.01 165.969 100.5 168.071C99.8787 168.533 100.08 168.198 99.9173 167.827C100.094 167.795 99.9476 167.647 99.9027 167.796C99.8787 167.745 99.8473 167.695 99.8035 167.646C99.3815 167.718 98.0655 167.382 98.4384 168.12C98.2953 168.339 98.2765 168.104 98.2169 167.862C98.2232 167.867 98.2295 167.873 98.2357 167.878C98.2295 167.871 98.2222 167.865 98.2159 167.859C98.1501 167.593 98.0352 167.322 97.654 167.627C97.7657 167 95.9369 167.242 95.8126 167.649C95.1253 166.814 90.9506 165.5 92.5789 167.615C92.2791 167.46 91.0895 167.07 90.0847 166.821C90.2549 166.835 90.421 166.927 90.5902 166.93C90.5881 166.841 90.5871 166.751 90.585 166.662C90.5913 166.416 90.42 166.382 90.2236 166.376C89.9468 164.745 89.6324 163.159 89.575 161.473C89.434 157.932 87.6876 154.425 85.5266 151.652C85.0817 151.474 84.7642 151.05 84.3976 150.741C84.2962 150.537 84.0059 150.516 83.9275 150.287C83.4314 149.793 77.1531 145.853 79.241 147.9C79.6525 147.705 79.7413 148.37 79.2974 148.29C78.7543 148.344 79.5836 148.623 79.1219 148.849C78.8922 149.117 79.3632 149.007 79.4635 149.099C79.4457 149.271 79.0436 149.139 79.194 149.397C79.3267 149.685 79.9753 149.155 79.8259 149.626C79.3925 151.184 78.7198 149.718 78.4859 150.201C78.4545 150.531 79.0457 150.54 78.8483 150.936C78.8013 151.148 78.6812 150.86 78.6196 150.942C78.4295 151.196 77.8049 150.86 77.8654 151.476C77.878 151.609 77.6576 151.54 77.5448 151.56C75.6146 149.737 79.1178 160.379 80.8338 162.755C80.8505 163.034 80.6991 163.472 81.2976 163.204V163.203H81.2986C82.0632 163.99 82.8914 164.781 83.8335 165.42C83.8325 165.44 83.8315 165.459 83.8304 165.478C83.962 165.614 84.1396 165.668 84.3098 165.738C84.3976 165.747 84.4853 165.754 84.5741 165.763C84.9156 166.872 87.979 166.189 87.3064 167.652C87.3022 167.711 87.3231 167.747 87.3336 167.794C81.9055 168.861 72.523 160.149 67.9837 174.731C67.5628 175.363 68.0923 175.821 68.6031 175.983C68.3221 176.137 68.6261 176.416 68.7044 176.008C69.1765 176.123 69.5786 175.974 69.1128 175.454C69.634 175.076 69.9055 176.164 70.3442 176.049C72.1407 174.104 77.1625 170.678 81.2307 169.868C83.2821 169.313 83.4534 169.725 82.9353 170.958C82.6742 171.007 82.5374 171.156 82.6136 171.479C82.6554 171.473 82.6836 171.455 82.718 171.443C82.013 172.953 80.7043 175.357 80.1883 178.488C80.1852 178.489 80.1842 178.487 80.181 178.488C80.1831 178.491 80.1842 178.494 80.1863 178.497C79.8959 180.264 79.8635 182.262 80.3335 184.459C80.2729 184.461 80.2249 184.467 80.2458 184.52C80.2761 184.602 80.321 184.719 80.4066 184.79C80.745 186.229 81.2986 187.749 82.1436 189.346C80.462 186.448 86.4123 182.275 84.221 183.25C95.1305 166.847 97.3866 183.662 103.49 173.663C104.312 162.789 111.799 173.244 116.418 176.328C123.074 177.272 123.24 177.628 127.155 181.213C124.594 155.614 99.8661 170.272 116.177 151.765" fill="#7CA162" blush:i="0.0.2.20"/><path id="Fill 1948_2" fill-rule="evenodd" clip-rule="evenodd" d="M69.7962 167.755C69.9958 166.975 70.0221 166.332 69.1721 167.047C69.3478 167.31 69.4733 167.619 69.7962 167.755" fill="#7CA162" blush:i="0.0.2.21"/><path id="Fill 1950_2" fill-rule="evenodd" clip-rule="evenodd" d="M94.7414 155.399C94.706 155.398 94.6695 155.397 94.633 155.396C94.4208 155.694 94.5896 156.087 94.5508 156.429C94.9285 156.143 94.6569 155.739 94.7414 155.399" fill="#7CA162" blush:i="0.0.2.22"/><path id="Fill 1952_2" fill-rule="evenodd" clip-rule="evenodd" d="M85.3643 183.216C85.4796 183.218 85.5936 183.216 85.6632 183.099C85.4864 182.947 85.3883 182.988 85.3643 183.216" fill="#7CA162" blush:i="0.0.2.23"/><path id="Fill 1954_2" fill-rule="evenodd" clip-rule="evenodd" d="M94.6465 156.945C94.5427 157.007 94.5335 157.074 94.6351 157.147C94.7412 157.085 94.7457 157.017 94.6465 156.945" fill="#7CA162" blush:i="0.0.2.24"/><path id="Fill 1956_2" fill-rule="evenodd" clip-rule="evenodd" d="M94.673 155.87C94.5806 155.896 94.592 155.926 94.6718 155.955C94.6741 155.928 94.6741 155.898 94.673 155.87" fill="#7CA162" blush:i="0.0.2.25"/><path id="Fill 1958_2" fill-rule="evenodd" clip-rule="evenodd" d="M78.9945 160.523C78.9603 160.315 78.7744 160.305 78.6261 160.271C77.8024 160.355 79.039 160.821 78.9945 160.523" fill="#7CA162" blush:i="0.0.2.26"/><path id="Fill 1960_2" fill-rule="evenodd" clip-rule="evenodd" d="M78.6966 161.464C78.538 161.445 78.5791 161.612 78.6703 161.696C78.7536 161.615 78.7821 161.526 78.6966 161.464" fill="#7CA162" blush:i="0.0.2.27"/><path id="Fill 1962_2" fill-rule="evenodd" clip-rule="evenodd" d="M78.7289 161.555C78.6571 161.506 78.6263 161.518 78.6092 161.603C78.681 161.652 78.7107 161.641 78.7289 161.555" fill="#7CA162" blush:i="0.0.2.28"/><path id="Fill 1964_2" fill-rule="evenodd" clip-rule="evenodd" d="M91.3965 156.211C91.5836 155.782 91.36 155.64 90.9721 155.614C91.0383 155.866 91.1706 156.072 91.3965 156.211" fill="#7CA162" blush:i="0.0.2.29"/><path id="Fill 1966_2" fill-rule="evenodd" clip-rule="evenodd" d="M79.7861 185.488C79.81 185.459 79.834 185.428 79.8614 185.392C79.8363 185.346 79.8146 185.309 79.7941 185.27C79.7336 185.338 79.7621 185.411 79.7861 185.488" fill="#7CA162" blush:i="0.0.2.30"/><path id="Fill 1968_2" fill-rule="evenodd" clip-rule="evenodd" d="M79.8567 177.174C79.4825 177.257 79.859 177.56 79.6981 177.705C80.0792 177.797 79.8955 177.361 79.8567 177.175V177.174Z" fill="#7CA162" blush:i="0.0.2.31"/><path id="Fill 1970_2" fill-rule="evenodd" clip-rule="evenodd" d="M80.0264 176.365C79.9956 176.205 79.8849 176.136 79.7537 176.095C79.3179 176.095 79.8918 176.856 80.0264 176.365" fill="#7CA162" blush:i="0.0.2.32"/><path id="Fill 1972_2" fill-rule="evenodd" clip-rule="evenodd" d="M71.8833 164.953C71.8206 164.903 71.759 164.92 71.7658 165C71.816 165.063 71.8731 165.03 71.8833 164.953" fill="#7CA162" blush:i="0.0.2.33"/><path id="Fill 1974_2" fill-rule="evenodd" clip-rule="evenodd" d="M70.6947 166.092C70.6867 166.106 70.6787 166.119 70.6707 166.134C70.6787 166.119 70.6867 166.106 70.6947 166.092" fill="#7CA162" blush:i="0.0.2.34"/><path id="Fill 1976_2" fill-rule="evenodd" clip-rule="evenodd" d="M87.7301 181.976C87.7678 181.998 87.9207 182.055 87.8374 181.974C87.8009 181.953 87.7495 181.914 87.7301 181.976" fill="#7CA162" blush:i="0.0.2.35"/><path id="Fill 1978_2" fill-rule="evenodd" clip-rule="evenodd" d="M79.8346 149.208C79.9293 149.134 79.9419 149.055 79.8244 149.018C79.6601 149.007 79.6818 149.169 79.8346 149.208" fill="#7CA162" blush:i="0.0.2.36"/><path id="Fill 1980_2" fill-rule="evenodd" clip-rule="evenodd" d="M77.6047 152.291C77.8751 153.191 77.0229 152.468 77.607 152.293L77.6047 152.291Z" fill="#FEC3BC" blush:i="0.0.2.37"/><path id="Fill 1982_2" fill-rule="evenodd" clip-rule="evenodd" d="M79.7498 149.135C79.7692 149.052 79.7988 149.039 79.8696 149.089C79.8513 149.174 79.8205 149.186 79.7498 149.135" fill="#FEC3BC" blush:i="0.0.2.38"/><path id="Fill 1984_2" fill-rule="evenodd" clip-rule="evenodd" d="M78.6668 151.403C78.6542 151.392 78.6428 151.383 78.6314 151.374C78.6611 151.348 78.6827 151.349 78.7067 151.38C78.693 151.388 78.6805 151.395 78.6668 151.403" fill="#FEC3BC" blush:i="0.0.2.39"/><path id="Fill 1986_2" fill-rule="evenodd" clip-rule="evenodd" d="M99.7746 138.714C81.1233 147.704 95.3069 151.875 79.4333 132.679C75.375 133.136 79.1477 144.015 77.9207 146.84C75.11 145.187 71.5496 143.822 75.0945 147.842C77.9166 151.784 61.0604 144.673 61.4109 154.353C66.6633 148.388 71.793 156.145 72.8674 161.529C62.9968 154.255 50.8897 162.672 53.3138 174.18C52.1425 164.091 64.2547 160.845 69.7112 168.084C56.802 171.582 56.8979 205.945 67.3294 184.756C67.9666 184.564 71.0145 180.934 71.2681 183.051C72.3766 183.736 71.2176 181.804 72.3384 182.797C72.8385 182.347 71.696 181.71 72.1425 181.316C72.656 180.876 71.9889 180.911 71.7363 180.885C73.054 180.202 73.2056 177.787 74.4006 177.349C74.0036 176.496 75.8957 177.076 75.4224 176.277C75.7781 175.83 76.8597 174.827 77.7929 174.724C78.2156 173.735 80.6624 174.46 79.788 173.372C79.1694 172.45 81.2027 173.886 80.518 174.521C80.4376 174.642 80.5283 174.787 80.7263 174.754C82.0678 172.916 82.6596 171.762 81.0831 170.215C77.4578 170.265 71.132 174.759 70.2329 176.272C69.902 175.225 68.1738 175.738 69.0719 175.889C65.6735 176.06 71.297 167.126 74.9079 166.912C77.4939 165.044 81.7914 168.313 82.8823 166.477C84.7744 165.209 80.9171 163.964 80.5686 162.746C79.5643 160.043 75.5183 153.084 77.7743 151.731C77.9774 151.13 79.4096 151.426 78.5229 150.582C79.0714 150.902 79.8324 150.415 79.755 149.745C78.7807 149.105 79.9149 148.184 78.8281 147.702C83.7237 149.391 86.9046 153.784 88.7368 158.304C86.8881 148.791 89.3565 154.726 92.8767 158.864C95.8287 156.313 93.9377 147.424 96.636 142.915V142.916C97.2258 141.313 99.2313 140.193 99.7746 138.714" fill="#526E3F" blush:i="0.0.2.40"/><path id="Fill 1988_2" fill-rule="evenodd" clip-rule="evenodd" d="M128.295 191.954C127.756 187.059 125.219 182.247 121.562 178.89C121.445 178.88 121.403 178.842 121.387 178.727C118.661 176.785 114.673 176.723 112.411 173.429C100.754 161.447 107.463 177.233 99.1981 177.63C93.3431 176.528 95.6711 172.906 89.5909 178.335C88.252 179.569 82.652 184.825 85.9888 183.745C86.2993 183.527 86.8021 183.617 87.0099 183.196C87.3677 182.858 88.4351 182.873 88.433 182.425C90.6798 181.762 91.088 180.94 90.8032 183.84C90.6664 183.985 90.6654 184.13 90.8032 184.276V184.275C90.8844 184.664 90.6798 185.125 90.8978 185.459C91.0387 186.209 91.0582 187 91.3533 187.653C91.3934 187.78 91.3071 187.949 91.4479 188.016C91.6762 188.599 91.6063 189.354 92.0793 189.86C93.1919 191.849 98.3919 205.519 98.7045 198.87C100.192 194.264 101.491 189.271 101.9 184.398C103.027 185.117 103.944 186.294 105.288 186.75C105.309 186.942 105.503 186.91 105.652 186.936V186.936C108.386 188.92 111.633 190.942 112.558 194.396C112.665 194.875 113.405 194.832 113.449 194.37C115.261 183.614 106.624 174.575 122.509 187.567C122.524 187.78 122.665 187.885 122.856 187.933C122.868 187.962 122.878 187.991 122.891 188.019C122.86 188.305 123.198 188.263 123.304 188.49C123.332 188.662 123.381 188.82 123.595 188.846C123.595 188.846 123.597 188.846 123.597 188.847L123.596 188.846C123.601 188.974 123.616 189.096 123.778 189.119C124.027 189.482 124.316 189.888 124.611 190.215C125.392 191.656 128.223 195.951 128.295 191.954" fill="#496238" blush:i="0.0.2.41"/></g><g id="Group 53" blush:i="0.0.3"><path id="Fill 3770" fill-rule="evenodd" clip-rule="evenodd" d="M175.201 181.441C170.324 183.157 164.824 183.6 173.143 184.498C175.863 184.333 182.893 188.834 176.626 188.1C162.352 182.502 151.899 187.588 142.626 199.434C140.752 196.739 147.294 194.776 147.582 191.729C160.061 183.264 155.702 179.346 156.747 165.632C161.134 168.851 161.26 176.878 158.864 181.49C158.733 182.255 159.63 180.856 159.83 180.668C167.718 175.133 169.644 165.643 160.922 161.312C165.426 159.464 168.857 164.192 167.569 168.31C169.11 168.493 170.469 160.002 172.181 157.401C173.647 153.239 169.555 148.467 172.317 144.108C174.88 143.145 174.274 150.812 175.113 150.982C177.086 144.635 181.399 140.712 187.48 138.782C188.245 144.192 172.969 148.2 173.299 157.612C177.191 152.935 183.175 146.564 189.888 148.791C174.837 159.763 173.008 154.108 166.536 176.355C155.055 184.392 155.788 189.187 167.559 180.978C172.152 179.903 171.789 168.843 177.414 170.179C177.107 175.582 172.681 176.424 180.059 174.135C186.731 175.02 167.272 178.927 167.933 182.447C177.988 175.759 199.475 185.564 175.201 181.441" fill="#4B5C23" blush:i="0.0.3.0"/><path id="Fill 3772" fill-rule="evenodd" clip-rule="evenodd" d="M194.602 167.827C195.59 176.751 192.918 172.55 191.93 166.856C187.634 162.134 181.979 163.114 175.903 168.59C167.275 176.246 171.397 169.279 177.504 165.599C186.159 158.134 200.166 147.59 193.58 135.121C197.831 137.969 196.287 144.954 196.056 148.098C198.848 144.391 202.411 137.137 208.091 138.965C203.045 146.151 189.674 150.065 206.472 146.264C209.788 148.73 185.845 153.188 182.761 162.869C187.872 160.067 191.154 162.354 194.602 167.827" fill="#8A9D5B" blush:i="0.0.3.1"/><path id="Fill 3774" fill-rule="evenodd" clip-rule="evenodd" d="M119.374 149C119.671 142.996 124.163 137.598 122.258 147.147C124.053 147.605 130.285 154.007 127.943 150.255C127.034 148.606 131.304 136.11 132.953 142.255C132.792 147.22 129.349 150.792 129.295 155.235C128.302 156.108 129.256 153.37 127.898 153.522C125.44 153.241 126.528 151.138 125.324 150.115C123.719 151.54 123.173 150.545 122.041 148.953C118.779 151.966 126.62 165.979 121.475 157.111C117.636 159.018 103.443 156.021 113.843 153.925C122.169 154.801 120.974 157.953 119.374 149" fill="#8A9D5B" blush:i="0.0.3.2"/><path id="Fill 3776" fill-rule="evenodd" clip-rule="evenodd" d="M204.731 154.125C224.361 159.553 196.497 155.151 193.056 159.378C184.052 164.052 200.049 152.194 204.731 154.125" fill="#8A9D5B" blush:i="0.0.3.3"/><path id="Fill 3778" fill-rule="evenodd" clip-rule="evenodd" d="M128.948 144.5C127.937 156.255 121.223 139.542 124.828 135.527C127.441 137.668 128.147 141.362 128.948 144.5" fill="#8A9D5B" blush:i="0.0.3.4"/><path id="Fill 3780" fill-rule="evenodd" clip-rule="evenodd" d="M145.854 131.595C147.65 134.028 141.918 137.296 140.642 139.47C140.048 136.445 138.926 125.452 142.069 126.266C144.324 128.813 143.539 131.825 142.245 134.098C143.2 133.161 144.444 130.216 145.854 131.595" fill="#8A9D5B" blush:i="0.0.3.5"/><path id="Fill 3782" fill-rule="evenodd" clip-rule="evenodd" d="M163.981 152.566C162.143 154.747 159.868 160.867 156.655 159.568C157.093 153.626 170.145 139.357 163.981 152.566" fill="#8A9D5B" blush:i="0.0.3.6"/><path id="Fill 3784" fill-rule="evenodd" clip-rule="evenodd" d="M159.716 144.307C163.432 142.945 169.777 136.066 173.451 138.912C170.94 141.589 155.75 150.867 159.716 144.307" fill="#8A9D5B" blush:i="0.0.3.7"/><path id="Fill 3786" fill-rule="evenodd" clip-rule="evenodd" d="M119.375 149C122.811 157.687 112.437 148.43 109.856 145.689C112.901 144.293 117.775 145.718 119.375 149" fill="#8A9D5B" blush:i="0.0.3.8"/><path id="Fill 3788" fill-rule="evenodd" clip-rule="evenodd" d="M116.134 160.172C119.905 162.671 126.413 164.69 126.2 169.593C123.268 167.988 107.461 158.43 116.134 160.172" fill="#8A9D5B" blush:i="0.0.3.9"/><path id="Fill 3790" fill-rule="evenodd" clip-rule="evenodd" d="M177.673 167.094C181.065 164.639 191.188 162.878 192.359 168.025C187.363 168.466 182.651 168.121 177.673 167.094" fill="#8A9D5B" blush:i="0.0.3.10"/><path id="Fill 3792" fill-rule="evenodd" clip-rule="evenodd" d="M150.989 188.255C146.038 195.89 148.514 181.297 150.226 177.527C153.357 177.853 151.821 185.7 150.989 188.255" fill="#8A9D5B" blush:i="0.0.3.11"/><path id="Fill 3794" fill-rule="evenodd" clip-rule="evenodd" d="M170.708 170.921C171.041 174.06 167.344 185.92 164.036 182.888C165.452 179.238 167.052 171.643 170.708 170.921" fill="#8A9D5B" blush:i="0.0.3.12"/><path id="Fill 3796" fill-rule="evenodd" clip-rule="evenodd" d="M186.366 156.952C183.67 165.018 180.933 158.934 182.747 154.192C186.156 150.068 189.514 151.335 186.366 156.952" fill="#8A9D5B" blush:i="0.0.3.13"/><path id="Fill 3798" fill-rule="evenodd" clip-rule="evenodd" d="M156.694 159.551C160.311 159.603 165.752 153.745 169.846 155.924C168.692 158.687 156.539 162.485 156.694 159.551" fill="#8A9D5B" blush:i="0.0.3.14"/><path id="Fill 3800" fill-rule="evenodd" clip-rule="evenodd" d="M160.749 150.955C159.195 155.541 156.029 158.667 151.623 160.34C152.85 155.861 156.401 152.554 160.749 150.955" fill="#8A9D5B" blush:i="0.0.3.15"/><path id="Fill 3802" fill-rule="evenodd" clip-rule="evenodd" d="M168.233 132.789C170.487 132.833 172.708 132.057 174.98 132.233C177.908 135.895 163.125 136.972 163.075 135.703C165.068 135.41 166.958 134.356 168.233 132.789" fill="#8A9D5B" blush:i="0.0.3.16"/><path id="Fill 3804" fill-rule="evenodd" clip-rule="evenodd" d="M127.999 173.405C130.256 176.21 117.483 172.785 114.389 174.56C110.691 171.921 125.282 171.267 127.999 173.405" fill="#8A9D5B" blush:i="0.0.3.17"/><path id="Fill 3806" fill-rule="evenodd" clip-rule="evenodd" d="M160.735 126.871C163.555 122.795 172.375 120.947 174.825 126.205C171.049 126.414 164.956 123.325 160.735 126.871" fill="#8A9D5B" blush:i="0.0.3.18"/><path id="Fill 3808" fill-rule="evenodd" clip-rule="evenodd" d="M124.122 151.094C128.224 147.373 125.087 159.193 124.373 161.328C122.326 161.187 122.253 155 124.122 151.094" fill="#8A9D5B" blush:i="0.0.3.19"/><path id="Fill 3810" fill-rule="evenodd" clip-rule="evenodd" d="M193.462 157.905C187.708 163.285 186.31 160.692 191.926 155.843C196.284 151.115 197.794 154.102 193.462 157.905" fill="#8A9D5B" blush:i="0.0.3.20"/><path id="Fill 3812" fill-rule="evenodd" clip-rule="evenodd" d="M152.495 109.03C150.622 105.626 152.596 100.328 155.633 98.1163C157.403 100.638 153.232 105.803 152.495 109.03" fill="#8A9D5B" blush:i="0.0.3.21"/><path id="Fill 3814" fill-rule="evenodd" clip-rule="evenodd" d="M158.966 109.147C157.712 112.528 155.776 117.464 152.764 120.622C151.445 116.517 155.604 111.565 158.966 109.147" fill="#8A9D5B" blush:i="0.0.3.22"/><path id="Fill 3816" fill-rule="evenodd" clip-rule="evenodd" d="M181.721 179.866C170.882 180.499 179.97 177.405 185.405 176.529C191.125 176.718 183.591 179.412 181.721 179.866" fill="#8A9D5B" blush:i="0.0.3.23"/><path id="Fill 3818" fill-rule="evenodd" clip-rule="evenodd" d="M113.379 160.406C118.944 164.938 113.935 164.141 109.327 164.418C105.433 162.84 111.894 161.152 113.379 160.406" fill="#8A9D5B" blush:i="0.0.3.24"/><path id="Fill 3820" fill-rule="evenodd" clip-rule="evenodd" d="M178.717 144.078C175.331 151.667 176.282 138.39 177.72 135.7C179.366 137.964 179.312 141.447 178.717 144.078" fill="#8A9D5B" blush:i="0.0.3.25"/><path id="Fill 3822" fill-rule="evenodd" clip-rule="evenodd" d="M135.14 127.496C137.061 135.391 132.1 128.247 128.395 126.673C128.347 124.158 134.174 126.114 135.14 127.496" fill="#8A9D5B" blush:i="0.0.3.26"/><path id="Fill 3824" fill-rule="evenodd" clip-rule="evenodd" d="M168.232 132.789C166.605 135.192 161.246 137.225 159.185 136.192C160.835 134.32 166.351 130.763 168.232 132.789" fill="#8A9D5B" blush:i="0.0.3.27"/><path id="Fill 3826" fill-rule="evenodd" clip-rule="evenodd" d="M161.763 186.229C166.497 182.194 169.879 195.652 164.939 193.764C165.134 190.559 166.432 186.801 161.763 186.229" fill="#8A9D5B" blush:i="0.0.3.28"/><path id="Fill 3828" fill-rule="evenodd" clip-rule="evenodd" d="M161.911 178.349C156.294 187.007 160.572 173.541 163.564 171.202C164.953 173.221 162.291 176.073 161.911 178.349" fill="#8A9D5B" blush:i="0.0.3.29"/><path id="Fill 3830" fill-rule="evenodd" clip-rule="evenodd" d="M184.912 139.595C177.604 146.4 185.071 132.926 188.215 135.346C187.762 137.104 186.093 138.399 184.912 139.595" fill="#8A9D5B" blush:i="0.0.3.30"/><path id="Fill 3832" fill-rule="evenodd" clip-rule="evenodd" d="M200.287 145.992C201.648 143.944 207.358 140.356 209.372 142.696C207.405 145.193 203.17 145.084 200.287 145.992" fill="#8A9D5B" blush:i="0.0.3.31"/><path id="Fill 3834" fill-rule="evenodd" clip-rule="evenodd" d="M204.73 154.125C196.46 155.289 203.054 151.818 207.052 149.85C209.754 150.194 205.524 153.257 204.73 154.125" fill="#8A9D5B" blush:i="0.0.3.32"/><path id="Fill 3836" fill-rule="evenodd" clip-rule="evenodd" d="M132.871 142.795C132.792 137.999 140.178 147.707 138.868 150.55C136.599 149.444 135.682 144.352 132.871 142.795" fill="#8A9D5B" blush:i="0.0.3.33"/><path id="Fill 3838" fill-rule="evenodd" clip-rule="evenodd" d="M159.716 144.307C159.292 145.377 157.797 149.628 156.686 148.368C156.352 143.804 162.297 134.214 159.716 144.307" fill="#8A9D5B" blush:i="0.0.3.34"/><path id="Fill 3840" fill-rule="evenodd" clip-rule="evenodd" d="M167.911 117.225C162.505 123.485 165.624 115.177 165.567 111.521C166.922 113.084 167.833 115.153 167.911 117.225" fill="#8A9D5B" blush:i="0.0.3.35"/><path id="Fill 3842" fill-rule="evenodd" clip-rule="evenodd" d="M187.839 148.262C182.641 150.223 184.286 147.21 186.353 143.907C188.011 143.419 187.458 147.148 187.839 148.262" fill="#8A9D5B" blush:i="0.0.3.36"/><path id="Fill 3844" fill-rule="evenodd" clip-rule="evenodd" d="M163.39 111.039C163.779 109.066 165.774 104.965 167.973 107.91C168.375 109.81 164.528 109.741 163.39 111.039" fill="#8A9D5B" blush:i="0.0.3.37"/><path id="Fill 3846" fill-rule="evenodd" clip-rule="evenodd" d="M194.602 167.827C192.245 164.395 194.248 165.307 197.141 165.982C199.224 167.328 195.669 167.72 194.602 167.827" fill="#8A9D5B" blush:i="0.0.3.38"/><path id="Fill 3848" fill-rule="evenodd" clip-rule="evenodd" d="M145.713 124.137C141.898 123.212 145.997 117.718 146.647 121.356C146.357 122.293 145.811 123.173 145.713 124.137" fill="#8A9D5B" blush:i="0.0.3.39"/><path id="Fill 3850" fill-rule="evenodd" clip-rule="evenodd" d="M160.385 141.946C160.275 139.707 159.886 138.341 162.683 138.963C164.358 140.121 161.606 141.574 160.385 141.946" fill="#8A9D5B" blush:i="0.0.3.40"/><path id="Fill 3852" fill-rule="evenodd" clip-rule="evenodd" d="M163.981 152.566C164.42 151.039 165.798 148.09 167.566 149.427C168.253 150.999 165.04 151.706 163.981 152.566" fill="#8A9D5B" blush:i="0.0.3.41"/><path id="Fill 3854" fill-rule="evenodd" clip-rule="evenodd" d="M149.168 130.139C146.923 129.117 149.874 126.07 151.16 127.372C151.701 128.511 149.86 129.433 149.168 130.139" fill="#8A9D5B" blush:i="0.0.3.42"/><path id="Fill 3856" fill-rule="evenodd" clip-rule="evenodd" d="M131.536 140.247C131.121 141.232 129.495 141.311 129.471 140.151C129.658 139.144 130.922 140.168 131.536 140.247" fill="#8A9D5B" blush:i="0.0.3.43"/><path id="Fill 3858" fill-rule="evenodd" clip-rule="evenodd" d="M118.812 174.164C120.323 172.929 121.28 174.12 123.592 173.791C124.161 174.631 119.956 173.821 118.812 174.164" fill="#8A9D5B" blush:i="0.0.3.44"/><path id="Fill 3860" fill-rule="evenodd" clip-rule="evenodd" d="M162.923 176.123C162.286 175.52 162.377 175.474 163.076 175.046C163.526 172.207 163.816 174.706 162.923 176.123" fill="#8A9D5B" blush:i="0.0.3.45"/><path id="Fill 3862" fill-rule="evenodd" clip-rule="evenodd" d="M117.82 164.526C118.748 164.419 119.006 165.154 119.757 165.279C121.153 166.784 118.315 165.1 117.82 164.526" fill="#8A9D5B" blush:i="0.0.3.46"/><path id="Fill 3864" fill-rule="evenodd" clip-rule="evenodd" d="M125.498 172.646C124.757 173.017 124.195 172.834 123.468 172.509C122.752 171.869 125.144 172.377 125.498 172.646" fill="#8A9D5B" blush:i="0.0.3.47"/><path id="Fill 3866" fill-rule="evenodd" clip-rule="evenodd" d="M188.42 168.293C188.722 167.907 189.108 167.955 189.539 167.922C191.192 167.712 189.239 168.511 188.42 168.293" fill="#8A9D5B" blush:i="0.0.3.48"/><path id="Fill 3868" fill-rule="evenodd" clip-rule="evenodd" d="M182.522 167.874C182.916 167.749 183.333 168.169 183.601 167.676C184.753 168.272 183.055 168.336 182.522 167.874" fill="#8A9D5B" blush:i="0.0.3.49"/><path id="Fill 3870" fill-rule="evenodd" clip-rule="evenodd" d="M175.201 181.441C174.64 181.005 175.964 180.72 176.2 181.136C175.867 181.238 175.534 181.339 175.201 181.441" fill="#8A9D5B" blush:i="0.0.3.50"/><path id="Fill 3872" fill-rule="evenodd" clip-rule="evenodd" d="M151.429 120.469C151.526 120.536 151.615 120.629 151.723 120.665C152.754 121.24 150.636 121.55 151.429 120.469" fill="#8A9D5B" blush:i="0.0.3.51"/><path id="Fill 3874" fill-rule="evenodd" clip-rule="evenodd" d="M182.713 177.045C182.759 177.289 182.702 177.374 182.448 177.342C181.401 177.177 182.206 177.118 182.713 177.045" fill="#8A9D5B" blush:i="0.0.3.52"/><path id="Fill 3876" fill-rule="evenodd" clip-rule="evenodd" d="M165.218 113.317C165.395 113.687 165.594 114.056 165.385 114.482C165.329 114.093 165.274 113.705 165.218 113.317" fill="#8A9D5B" blush:i="0.0.3.53"/><path id="Fill 3878" fill-rule="evenodd" clip-rule="evenodd" d="M203.125 145.447C203.573 145.29 203.348 145.369 203.125 145.447C203.262 145 203.445 144.826 203.125 145.447" fill="#8A9D5B" blush:i="0.0.3.54"/><path id="Fill 3880" fill-rule="evenodd" clip-rule="evenodd" d="M190.428 157.398C190.155 157.721 190.291 157.56 190.428 157.398C190.817 157.812 190.391 157.836 190.428 157.398" fill="#8A9D5B" blush:i="0.0.3.55"/><path id="Fill 3882" fill-rule="evenodd" clip-rule="evenodd" d="M181.796 177.178C181.602 177.484 181.382 177.711 180.995 177.448C181.262 177.358 181.529 177.267 181.796 177.178" fill="#8A9D5B" blush:i="0.0.3.56"/><path id="Fill 3884" fill-rule="evenodd" clip-rule="evenodd" d="M135.543 131.9C135.95 132.336 135.447 132.37 135.179 132.011C135.249 131.811 135.432 131.912 135.543 131.9" fill="#8A9D5B" blush:i="0.0.3.57"/><path id="Fill 3886" fill-rule="evenodd" clip-rule="evenodd" d="M135.548 131.899C135.158 131.695 135.353 131.797 135.548 131.899C135.28 132.044 134.765 132.021 135.548 131.899" fill="#8A9D5B" blush:i="0.0.3.58"/><path id="Fill 3888" fill-rule="evenodd" clip-rule="evenodd" d="M163.848 173.352C163.593 173.094 163.679 172.922 163.984 172.803C163.938 172.987 163.893 173.169 163.848 173.352" fill="#8A9D5B" blush:i="0.0.3.59"/><path id="Fill 3890" fill-rule="evenodd" clip-rule="evenodd" d="M165.208 112.45C165.22 112.712 165.233 112.974 165.247 113.235C165.233 112.974 165.22 112.712 165.208 112.45" fill="#8A9D5B" blush:i="0.0.3.60"/><path id="Fill 3892" fill-rule="evenodd" clip-rule="evenodd" d="M165.568 111.521C165.328 111.723 165.027 111.968 165.314 111.471C165.331 111.443 165.48 111.502 165.568 111.521" fill="#8A9D5B" blush:i="0.0.3.61"/><path id="Fill 3894" fill-rule="evenodd" clip-rule="evenodd" d="M137.326 145.223C137.288 145.105 137.249 144.986 137.21 144.868C137.461 144.858 137.479 144.913 137.326 145.223" fill="#8A9D5B" blush:i="0.0.3.62"/><path id="Fill 3896" fill-rule="evenodd" clip-rule="evenodd" d="M117.135 164.049C117.551 163.79 117.417 164.229 117.527 164.357C117.396 164.254 117.266 164.152 117.135 164.049" fill="#8A9D5B" blush:i="0.0.3.63"/><path id="Fill 3898" fill-rule="evenodd" clip-rule="evenodd" d="M126.071 172.742C125.917 172.816 125.748 173.046 125.634 172.7C125.78 172.713 125.925 172.728 126.071 172.742" fill="#8A9D5B" blush:i="0.0.3.64"/><path id="Fill 3900" fill-rule="evenodd" clip-rule="evenodd" d="M134.692 131.131C134.763 131.266 134.835 131.401 134.907 131.536C134.835 131.401 134.763 131.266 134.692 131.131" fill="#8A9D5B" blush:i="0.0.3.65"/><path id="Fill 3902" fill-rule="evenodd" clip-rule="evenodd" d="M189.914 158.034C189.929 158.158 190.063 158.35 189.764 158.29C189.814 158.204 189.864 158.12 189.914 158.034" fill="#8A9D5B" blush:i="0.0.3.66"/><path id="Fill 3904" fill-rule="evenodd" clip-rule="evenodd" d="M168.195 132.658C168.061 132.607 167.876 132.571 168.128 132.414L168.195 132.658Z" fill="#8A9D5B" blush:i="0.0.3.67"/><path id="Fill 3906" fill-rule="evenodd" clip-rule="evenodd" d="M188.843 161.472L189.119 161.296L188.843 161.472Z" fill="#8A9D5B" blush:i="0.0.3.68"/><path id="Fill 3908" fill-rule="evenodd" clip-rule="evenodd" d="M116.812 163.843L117.017 163.956L116.812 163.843Z" fill="#8A9D5B" blush:i="0.0.3.69"/><path id="Fill 3910" fill-rule="evenodd" clip-rule="evenodd" d="M119.147 148.652L119.059 148.415L119.147 148.652Z" fill="#8A9D5B" blush:i="0.0.3.70"/><path id="Fill 3912" fill-rule="evenodd" clip-rule="evenodd" d="M121.628 174.063C121.683 174.072 121.655 174.067 121.628 174.063C121.652 173.942 121.68 173.991 121.628 174.063" fill="#8A9D5B" blush:i="0.0.3.71"/><path id="Fill 3914" fill-rule="evenodd" clip-rule="evenodd" d="M113.213 160.133L113.205 160.169C113.141 160.139 113.143 160.127 113.213 160.133" fill="#8A9D5B" blush:i="0.0.3.72"/><path id="Fill 3916" fill-rule="evenodd" clip-rule="evenodd" d="M128.374 174.731C128.406 174.719 128.436 174.706 128.467 174.695C128.436 174.706 128.406 174.719 128.374 174.731" fill="#8A9D5B" blush:i="0.0.3.73"/><path id="Fill 3918" fill-rule="evenodd" clip-rule="evenodd" d="M148.537 162.847C145.396 168.813 148.185 159.394 145.862 157.714C143.823 160.264 143.729 164.578 145.854 167.196C143.19 171.169 136.75 182.66 140.093 171.642C142.047 167.58 145.203 143.516 146.845 153.648C146.526 157.17 151.7 159.569 148.537 162.847M134.926 186.384C131.033 180.489 133.483 176.549 138.354 172.356C137.843 175.983 136.583 183.124 134.926 186.384M154.384 173.843C154.972 168.866 149.284 167.764 145.981 170.343C146.83 166.827 156.131 163.702 156.353 159.849C139.463 173.566 159.064 152.263 156.129 148.953C149.972 160.727 152.134 157.348 148.344 147.102C146.397 143.598 155.509 145.506 156.525 143.372C165.636 135.635 151.309 142.051 149.867 142.439C154.477 135.314 168.363 135.447 169.751 126.621C162.538 128.961 148.081 146.56 158.163 130.317C160.687 122.496 174.571 121.405 173.749 113.038C167.211 115.654 162.472 123.688 158.199 128.316C160.099 124.277 164.77 119.715 164.285 115.406C158.605 118.04 149.732 147.668 149.344 139.129C152.07 124.408 162.345 114.551 167.555 101.728C158.49 101.26 156.7 117.757 153.524 123.724C151.765 117.472 153.608 113.645 151.716 106.162C151.209 103.821 144.177 94.5041 145.236 100.758C146.83 105.511 151.57 112.143 151.526 115.945C148.16 109.355 135.3 108.405 147.67 113.64C155.353 120.479 152.142 141.563 145.69 124.125C135.325 112.374 141.549 129.48 147.142 133.164C151.636 139.342 141.541 151.924 141.264 160.459C139.913 153.279 139.689 145.788 140.332 137.758C135.965 150.064 138.697 129.124 137.137 123.371C134.047 118.77 134.952 132.693 136.291 134.335C138.151 139.457 127.729 126.933 127.966 132.026C140.285 140.889 137.582 145.731 139.691 160.336C142.228 168.286 132.678 168.757 131.592 176.499C125.899 166.876 134.66 161.589 138.237 153.398C135.766 149.69 131.758 158.561 130.435 160.622C129.9 158.531 131.815 156.731 132.122 154.712C130.369 150.275 126.071 160.572 125.685 162.898C125.398 163.927 123.552 159.887 121.03 160.271C113.393 158.938 118.628 161.838 121.884 163.675C121.846 161.795 124.756 163.381 124.9 165.416C127.033 171.167 131.45 179.741 134.007 187.982C133.879 208.534 137.411 159.398 154.384 173.843" fill="#4B5C23" blush:i="0.0.3.74"/><path id="Fill 3920" fill-rule="evenodd" clip-rule="evenodd" d="M140.119 147.809C140.823 145.679 143.475 137.244 145.678 139.65C145.167 144.248 138.713 159.025 140.119 147.809" fill="#8A9D5B" blush:i="0.0.3.75"/><path id="Fill 3922" fill-rule="evenodd" clip-rule="evenodd" d="M145.828 167.182C143.326 164.635 143.872 160.34 145.683 157.6C147.696 159.293 147.483 164.744 145.828 167.182" fill="#8A9D5B" blush:i="0.0.3.76"/><path id="Fill 3924" fill-rule="evenodd" clip-rule="evenodd" d="M152.759 154.701C152.428 151.919 152.056 146.898 154.128 145.162C155.769 147.433 155.457 153.638 152.759 154.701" fill="#8A9D5B" blush:i="0.0.3.77"/><path id="Fill 3926" fill-rule="evenodd" clip-rule="evenodd" d="M130.47 165.239C131.102 160.724 140.286 162.114 138.454 165.289C130.577 158.075 128.905 178.878 130.47 165.239" fill="#8A9D5B" blush:i="0.0.3.78"/><path id="Fill 3928" fill-rule="evenodd" clip-rule="evenodd" d="M128.921 155.821C128.974 155.332 129.212 154.753 129.635 154.47C129.853 154.949 129.127 155.355 128.921 155.821" fill="#8A9D5B" blush:i="0.0.3.79"/><path id="Fill 3930" fill-rule="evenodd" clip-rule="evenodd" d="M154.688 152.385C154.795 152.349 154.962 152.167 154.973 152.362C154.879 152.369 154.783 152.375 154.688 152.385" fill="#8A9D5B" blush:i="0.0.3.80"/><path id="Fill 3932" fill-rule="evenodd" clip-rule="evenodd" d="M144.124 172.588C144.073 172.666 144.052 172.716 143.962 172.714C143.997 172.623 143.996 172.57 144.124 172.588" fill="#8A9D5B" blush:i="0.0.3.81"/><path id="Fill 3934" fill-rule="evenodd" clip-rule="evenodd" d="M145.964 149.458C145.956 149.341 145.955 149.343 145.96 149.459L145.964 149.458Z" fill="#8A9D5B" blush:i="0.0.3.82"/><path id="Fill 3936" fill-rule="evenodd" clip-rule="evenodd" d="M156.484 143.263C156.457 143.225 156.349 143.178 156.426 143.154C156.448 143.188 156.459 143.232 156.484 143.263" fill="#8A9D5B" blush:i="0.0.3.83"/><path id="Fill 3938" fill-rule="evenodd" clip-rule="evenodd" d="M130.232 171.488C130.226 171.568 130.22 171.649 130.214 171.729C130.22 171.649 130.226 171.568 130.232 171.488" fill="#8A9D5B" blush:i="0.0.3.84"/><path id="Fill 3940" fill-rule="evenodd" clip-rule="evenodd" d="M135.14 127.496C135.139 127.431 135.139 127.367 135.139 127.301C135.139 127.367 135.139 127.431 135.14 127.496" fill="#8A9D5B" blush:i="0.0.3.85"/><path id="Fill 3942" fill-rule="evenodd" clip-rule="evenodd" d="M138.746 167.386C138.78 167.362 138.783 167.359 138.744 167.38L138.746 167.386Z" fill="#8A9D5B" blush:i="0.0.3.86"/><path id="Fill 3944" fill-rule="evenodd" clip-rule="evenodd" d="M134.546 170.752C134.569 170.787 134.574 170.79 134.551 170.75L134.546 170.752Z" fill="#8A9D5B" blush:i="0.0.3.87"/><path id="Fill 3946" fill-rule="evenodd" clip-rule="evenodd" d="M125.418 166.653C125.437 166.649 125.453 166.644 125.472 166.639C125.46 166.663 125.439 166.657 125.418 166.653" fill="#8A9D5B" blush:i="0.0.3.88"/><path id="Fill 3948" fill-rule="evenodd" clip-rule="evenodd" d="M128.859 171.294L128.871 171.346C128.847 171.334 128.86 171.31 128.859 171.294" fill="#8A9D5B" blush:i="0.0.3.89"/><path id="Fill 3950" fill-rule="evenodd" clip-rule="evenodd" d="M145.857 131.594C145.854 131.595 145.857 131.594 145.857 131.594C145.837 131.56 145.836 131.559 145.857 131.594" fill="#8A9D5B" blush:i="0.0.3.90"/><path id="Fill 3952" fill-rule="evenodd" clip-rule="evenodd" d="M159.168 136.531C159.168 136.53 159.168 136.531 159.168 136.531C159.13 136.555 159.13 136.555 159.168 136.531" fill="#8A9D5B" blush:i="0.0.3.91"/><path id="Fill 3954" fill-rule="evenodd" clip-rule="evenodd" d="M136.396 136.265C136.408 136.322 136.405 136.323 136.388 136.268L136.396 136.265Z" fill="#8A9D5B" blush:i="0.0.3.92"/><path id="Fill 3956" fill-rule="evenodd" clip-rule="evenodd" d="M170.255 165.629C172.233 162.772 174.961 159.116 177.511 157.359C178.53 161.351 165.682 175.611 170.255 165.629" fill="#8A9D5B" blush:i="0.0.3.93"/><path id="Fill 3958" fill-rule="evenodd" clip-rule="evenodd" d="M167.704 169.394C167.669 169.396 167.665 169.375 167.68 169.347C167.71 169.341 167.717 169.366 167.704 169.394" fill="#8A9D5B" blush:i="0.0.3.94"/><path id="Fill 3960" fill-rule="evenodd" clip-rule="evenodd" d="M167.216 182.564C167.246 182.573 167.242 182.592 167.23 182.615C167.201 182.6 167.178 182.584 167.216 182.564" fill="#8A9D5B" blush:i="0.0.3.95"/><path id="Fill 3962" fill-rule="evenodd" clip-rule="evenodd" d="M161.91 178.349C161.933 178.306 161.956 178.263 161.98 178.221C161.956 178.263 161.933 178.306 161.91 178.349" fill="#8A9D5B" blush:i="0.0.3.96"/><path id="Fill 3964" fill-rule="evenodd" clip-rule="evenodd" d="M181.721 179.866C181.777 179.861 181.832 179.855 181.888 179.849C181.832 179.855 181.776 179.86 181.721 179.866" fill="#8A9D5B" blush:i="0.0.3.97"/><path id="Fill 3966" fill-rule="evenodd" clip-rule="evenodd" d="M184.912 139.595C184.959 139.585 185.006 139.573 185.054 139.562C185.006 139.573 184.959 139.585 184.912 139.595" fill="#8A9D5B" blush:i="0.0.3.98"/><path id="Fill 3968" fill-rule="evenodd" clip-rule="evenodd" d="M174.381 147.364C174.362 147.369 174.345 147.372 174.325 147.377C174.337 147.355 174.361 147.354 174.381 147.364" fill="#8A9D5B" blush:i="0.0.3.99"/><path id="Fill 3970" fill-rule="evenodd" clip-rule="evenodd" d="M176.052 156.713C176.027 156.679 176.023 156.677 176.048 156.715L176.052 156.713Z" fill="#8A9D5B" blush:i="0.0.3.100"/><path id="Fill 3972" fill-rule="evenodd" clip-rule="evenodd" d="M196.478 148.866C196.512 148.945 196.455 148.948 196.391 148.945C196.386 148.876 196.407 148.853 196.478 148.866" fill="#8A9D5B" blush:i="0.0.3.101"/><path id="Fill 3974" fill-rule="evenodd" clip-rule="evenodd" d="M182.78 162.863C182.73 162.898 182.651 163.057 182.623 162.977C182.671 162.946 182.738 162.857 182.78 162.863" fill="#8A9D5B" blush:i="0.0.3.102"/><path id="Fill 3976" fill-rule="evenodd" clip-rule="evenodd" d="M189.061 164.856C189.065 164.874 189.069 164.892 189.073 164.91C189.053 164.898 189.053 164.874 189.061 164.856" fill="#8A9D5B" blush:i="0.0.3.103"/><path id="Fill 3978" fill-rule="evenodd" clip-rule="evenodd" d="M122.657 157.746C122.69 157.75 122.715 157.767 122.731 157.795C122.707 157.779 122.682 157.761 122.657 157.746" fill="#8A9D5B" blush:i="0.0.3.104"/><path id="Fill 3980" fill-rule="evenodd" clip-rule="evenodd" d="M193.131 158.257L193.362 158.052L193.131 158.257Z" fill="#8A9D5B" blush:i="0.0.3.105"/><path id="Fill 3982" fill-rule="evenodd" clip-rule="evenodd" d="M114.867 145.493C114.834 145.507 114.821 145.499 114.819 145.462C114.854 145.447 114.866 145.455 114.867 145.493" fill="#8A9D5B" blush:i="0.0.3.106"/><path id="Fill 3984" fill-rule="evenodd" clip-rule="evenodd" d="M121.99 163.686C122.202 163.581 122.324 163.619 122.304 163.883C122.199 163.817 122.095 163.751 121.99 163.686" fill="#8A9D5B" blush:i="0.0.3.107"/><path id="Fill 3986" fill-rule="evenodd" clip-rule="evenodd" d="M187.651 164.908C187.788 164.914 187.923 164.92 188.059 164.925C187.923 164.92 187.788 164.914 187.651 164.908" fill="#8A9D5B" blush:i="0.0.3.108"/><path id="Fill 3988" fill-rule="evenodd" clip-rule="evenodd" d="M170.203 170.647C170.329 170.67 170.454 170.692 170.581 170.715C170.397 171.013 170.333 170.643 170.203 170.647" fill="#8A9D5B" blush:i="0.0.3.109"/><path id="Fill 3990" fill-rule="evenodd" clip-rule="evenodd" d="M169.771 171.021C169.876 171.054 169.824 171.038 169.771 171.021C169.852 170.854 169.897 170.925 169.771 171.021" fill="#8A9D5B" blush:i="0.0.3.110"/><path id="Fill 3992" fill-rule="evenodd" clip-rule="evenodd" d="M182.265 160.061C182.245 158.202 181.936 156.15 182.378 154.505C182.737 156.03 182.628 158.418 182.265 160.061" fill="#8A9D5B" blush:i="0.0.3.111"/><path id="Fill 3994" fill-rule="evenodd" clip-rule="evenodd" d="M182.501 160.696C182.441 160.609 182.381 160.522 182.322 160.436C182.497 160.416 182.497 160.416 182.501 160.696" fill="#8A9D5B" blush:i="0.0.3.112"/><path id="Fill 3996" fill-rule="evenodd" clip-rule="evenodd" d="M182.59 160.867L182.558 160.757L182.59 160.867Z" fill="#8A9D5B" blush:i="0.0.3.113"/><path id="Fill 3998" fill-rule="evenodd" clip-rule="evenodd" d="M182.234 160.085C182.176 160.051 182.177 160.047 182.24 160.071L182.234 160.085Z" fill="#8A9D5B" blush:i="0.0.3.114"/><path id="Fill 4000" fill-rule="evenodd" clip-rule="evenodd" d="M169.202 125.048C169.198 125.071 169.196 125.082 169.175 125.059L169.202 125.048Z" fill="#8A9D5B" blush:i="0.0.3.115"/><path id="Fill 4002" fill-rule="evenodd" clip-rule="evenodd" d="M156.801 148.083C156.49 147.765 156.667 147.516 156.917 147.278C157.185 147.59 157.057 147.846 156.801 148.083" fill="#8A9D5B" blush:i="0.0.3.116"/><path id="Fill 4004" fill-rule="evenodd" clip-rule="evenodd" d="M130.691 164.814L130.625 164.901L130.691 164.814Z" fill="#8A9D5B" blush:i="0.0.3.117"/><path id="Fill 4006" fill-rule="evenodd" clip-rule="evenodd" d="M140.12 147.809C140.432 148.032 140.467 148.24 140.088 148.427C140.098 148.22 140.109 148.015 140.12 147.809" fill="#8A9D5B" blush:i="0.0.3.118"/><path id="Fill 4008" fill-rule="evenodd" clip-rule="evenodd" d="M140.288 148.638C139.94 148.979 139.867 148.943 140.089 148.502C140.157 148.546 140.217 148.6 140.288 148.638" fill="#8A9D5B" blush:i="0.0.3.119"/><path id="Fill 4010" fill-rule="evenodd" clip-rule="evenodd" d="M146.893 165.141L146.902 164.92L146.893 165.141Z" fill="#8A9D5B" blush:i="0.0.3.120"/><path id="Fill 4012" fill-rule="evenodd" clip-rule="evenodd" d="M140.29 148.642C140.305 148.638 140.363 148.609 140.323 148.64C140.313 148.645 140.288 148.631 140.29 148.642" fill="#8A9D5B" blush:i="0.0.3.121"/><path id="Fill 4014" fill-rule="evenodd" clip-rule="evenodd" d="M144.149 129.911C144.133 129.915 144.075 129.944 144.116 129.913C144.126 129.908 144.15 129.922 144.149 129.911" fill="#8A9D5B" blush:i="0.0.3.122"/></g></g></g></svg>