<svg viewBox="98.23750000000001 32.553191489361694 77.9125 223.8031914893617" fill="none" xmlns="http://www.w3.org/2000/svg" xmlns:xlink="http://www.w3.org/1999/xlink" xmlns:blush="http://design.blush" overflow="visible" width="77.9125px" height="223.8031914893617px"><g id="Master/Male Character/Standing" blush:has-customizable-colors="true" blush:viewBox="84.00999999999999 32.553191489361694 102.97999999999995 222.44680851063828" blush:i="0"><g id="Male Character/Lower Body" blush:component="Male Character/Lower Body" blush:defaultValue="Pants 1" blush:width="56" blush:height="132" transform="translate(111 123) scale(1 1)" blush:i="0.0" blush:value="Pants 1" blush:viewBox="-0.39622641509433976 0.6599999999999966 56.13207547169811 131.33999999999997"><g id="Male Character/Lower Body/Pants 1" blush:viewBox="-0.39622641509433976 0.6599999999999966 56.13207547169811 131.33999999999997" blush:i="0.0.0"><g id="Lower" blush:i="0.0.0.0"><path id="Fill 1" fill-rule="evenodd" clip-rule="evenodd" d="M30.3854 111.717C30.3854 111.717 29.1574 114.316 29.2044 118.473C29.2044 118.473 30.0544 119.277 35.2044 118.851C40.3544 118.426 39.3144 121.213 47.0624 120.504C54.8104 119.796 55.4724 119.607 55.1414 118.284C54.8104 116.961 53.9134 116.158 50.8424 115.827C47.7714 115.496 44.1804 112.946 44.1804 112.946C44.1804 112.946 33.2204 107.655 30.3854 111.717" fill="#2E313B" blush:i="0.0.0.0.0"/><path id="Fill 3" fill-rule="evenodd" clip-rule="evenodd" d="M47.5826 37.6386C45.9306 35.7986 35.0886 36.1986 33.7876 38.2996C31.6886 41.6876 32.0576 52.4216 31.8026 61.8266C31.4246 75.8116 32.2756 72.4096 30.5746 77.9846C28.8736 83.5596 28.8736 94.1426 30.5746 102.269C32.2756 110.395 30.3856 111.717 30.3856 111.717C30.3856 111.717 33.0316 114.741 34.2596 115.403C35.4876 116.064 41.2516 116.725 41.2516 116.725C41.2516 116.725 42.2906 112 44.1806 112.946C44.1806 112.946 38.8896 110.583 40.1176 100.756C41.3466 90.9296 46.1656 61.3546 46.3536 57.9526C46.5016 55.2976 51.2366 41.7076 47.5826 37.6386" fill="#db8c5c" blush:color="Skin-500" blush:i="0.0.0.0.1"/><path id="Fill 5" fill-rule="evenodd" clip-rule="evenodd" d="M5.29894 118.614C5.29894 118.614 4.49594 119.37 4.40194 120.74C4.30694 122.11 4.96794 124.945 3.97594 127.922C2.98394 130.898 9.83494 132.882 13.7089 131.606C17.5829 130.331 17.4409 126.976 16.1179 125.087C14.7949 123.197 14.0389 120.551 13.7559 118.709C13.4719 116.866 5.29894 118.614 5.29894 118.614" fill="#2E313B" blush:i="0.0.0.0.2"/><path id="Fill 7" fill-rule="evenodd" clip-rule="evenodd" d="M5.966 40.1552C5.966 40.1552 4.254 64.6682 4.254 69.5922C4.254 74.5162 -4.631 84.1502 4.789 112.41C4.789 112.41 5.535 115.024 4.968 116.346C4.401 117.67 5.251 118.236 5.062 118.992C4.873 119.748 4.684 121.827 4.684 121.827C4.684 121.827 11.299 119.654 13.755 121.544C13.755 121.544 12.999 120.032 13.755 118.709C14.511 117.385 11.204 114.929 11.771 108.598C12.277 102.95 14.287 84.8892 15.252 76.0962C15.437 74.4062 15.915 72.7702 16.654 71.2392C18.021 68.4072 20.293 62.9552 21.314 56.2522C22.826 46.3312 25.472 35.4652 15.55 35.4652C5.629 35.4652 5.966 40.1552 5.966 40.1552" fill="#db8c5c" blush:color="Skin-500" blush:i="0.0.0.0.3"/><path id="Fill 9" fill-rule="evenodd" clip-rule="evenodd" d="M5.1133 36.4646C2.87879 50.5646 4.65402 48.4286 0.45905 78.6462C-1.17255 90.3991 2.4944 106.729 2.3895 114.629C2.3895 114.629 4.94067 119.083 14.9837 115.401C14.9837 115.401 14.868 104.367 16.9587 89.7263C19.9252 68.9523 27.5697 43.3372 29.3371 39.8024C29.3371 39.8024 30.121 58.6522 30.1667 71.5615C30.1738 73.5871 27.8659 77.4046 28.0003 87.9992C28.1347 98.5939 29.4633 108.276 30.1667 108.67C32.8675 110.183 38.1308 111.547 42.2047 108.67C42.2047 108.67 51.7661 26.8584 53.3281 21.2794C54.8901 15.7004 48.1961 8.1124 48.1961 8.1124C48.1961 8.1124 22.3071 -10.6346 10.9251 11.4594C10.9251 11.4594 7.55193 21.0766 5.1133 36.4646Z" fill="#2E313B" blush:i="0.0.0.0.4"/><path id="Fill 11" fill-rule="evenodd" clip-rule="evenodd" d="M34.4699 23.3994C34.1909 24.8104 33.8319 26.1994 33.4619 27.5844C33.0989 28.9714 32.6799 30.3424 32.2609 31.7124C31.8249 33.0784 31.3879 34.4434 30.8949 35.7904C30.4089 37.1384 29.9129 38.4844 29.3369 39.8024C29.6169 38.3864 29.9759 36.9984 30.3459 35.6134C30.7089 34.2264 31.1269 32.8574 31.5459 31.4894C31.9829 30.1264 32.4189 28.7624 32.9119 27.4164C33.3969 26.0674 33.8939 24.7214 34.4699 23.3994" fill="#0D0E12" blush:i="0.0.0.0.5"/><path id="Fill 13" fill-rule="evenodd" clip-rule="evenodd" d="M6.46191 31.7685C6.57591 30.1245 6.90891 28.5035 7.33191 26.9095C7.75191 25.3125 8.32691 23.7565 9.00091 22.2445C9.69391 20.7395 10.5289 19.2965 11.5109 17.9595C12.5029 16.6285 13.6699 15.4305 14.9839 14.4415C13.8789 15.6635 12.8569 16.9195 11.9859 18.2885C11.1389 19.6675 10.3449 21.0775 9.68191 22.5565C9.00591 24.0295 8.42391 25.5435 7.88091 27.0785C7.34991 28.6165 6.88091 30.1795 6.46191 31.7685" fill="#0D0E12" blush:i="0.0.0.0.6"/></g></g></g><g id="Male Character/Head" blush:component="Male Character/Head" blush:defaultValue="Short Messy 2" blush:width="28" blush:height="48" transform="translate(127 33) scale(1 1)" blush:i="0.1" blush:value="Short Messy 2" blush:viewBox="0.09589041095890138 0 27.089041095890412 47.51999999999999"><g id="Male Character/Head/Short Messy 2" blush:viewBox="0.09589041095890138 0 27.089041095890412 47.51999999999999" blush:i="0.1.0"><g id="Head" blush:i="0.1.0.0"><path id="Fill 22" fill-rule="evenodd" clip-rule="evenodd" d="M6.60041 24.8188C6.60041 24.8188 7.89241 34.5038 1.23041 37.9608C1.23041 37.9608 0.776414 47.3828 13.9104 47.3828C27.0444 47.3828 20.3484 38.6928 20.3484 38.6928C20.3484 38.6928 15.9074 35.2788 17.0414 31.0768C18.1754 26.8758 13.9234 16.4158 6.60041 24.8188" fill="#db8c5c" blush:color="Skin-500" blush:i="0.1.0.0.0"/><path id="Fill 24" fill-rule="evenodd" clip-rule="evenodd" d="M2.58125 16.4257C2.07425 16.1337 1.62925 16.1337 1.12025 16.3307C-0.580748 16.9927 0.316252 19.1187 1.21425 20.4417C2.11225 21.7637 2.39525 24.5047 5.18325 23.8897C5.18325 23.8897 5.32425 25.7327 6.55325 27.0557C7.78125 28.3787 13.3093 32.2527 14.8683 32.5827C16.4273 32.9137 18.5053 33.4337 20.0643 32.6307C20.0643 32.6307 20.9623 31.6857 21.5293 29.7007C22.0963 27.7167 22.5213 27.3387 22.7103 25.5437C22.8993 23.7487 23.8913 19.7327 23.4193 17.8897C22.9463 16.0477 25.9583 2.01165 12.2813 2.38665C-1.79575 2.77265 2.66025 16.4707 2.58125 16.4257" fill="#db8c5c" blush:color="Skin-500" blush:i="0.1.0.0.1"/><path id="Fill 26" fill-rule="evenodd" clip-rule="evenodd" d="M2.58164 16.4257C2.58164 16.4257 4.60564 20.1577 5.24364 20.5827C5.88164 21.0087 5.73964 14.0637 7.01564 13.0717C8.29064 12.0787 9.03564 10.3787 9.21264 9.42167C9.38964 8.46467 20.6926 2.47667 23.3146 12.3977C23.3146 12.3977 23.5626 10.1657 27.1056 6.51567C27.1056 6.51567 25.9726 5.84267 25.2276 5.84267C24.4836 5.84267 23.4206 4.67367 23.4206 4.67367C23.4206 4.67367 24.8736 4.00067 25.6176 4.49667C25.6176 4.49667 25.4766 2.15767 22.0746 2.47667C22.0746 2.47667 22.6416 1.62667 22.7126 0.988672C22.7126 0.988672 19.9486 2.33467 17.6096 1.76767C17.6096 1.76767 18.7086 0.598672 18.8146 0.208672C18.8146 0.208672 18.7086 -0.00332758 15.5906 0.669672C12.4726 1.34267 9.49564 0.952672 7.08664 2.54767C4.67664 4.14167 0.672643 7.40167 1.06264 9.84667C1.45264 12.2917 2.58164 16.4257 2.58164 16.4257" fill="#110b05" blush:color="Hair-500" blush:i="0.1.0.0.2"/><path id="Fill 28" fill-rule="evenodd" clip-rule="evenodd" d="M2.19947 19.0522C2.19947 19.0522 2.02647 18.8522 2.03247 19.1722C2.03947 19.4922 1.95947 19.6662 1.86647 19.6392C1.77247 19.6132 1.33247 18.8452 1.99247 18.4852C2.65347 18.1252 3.01347 18.8392 3.48747 19.7262C3.96047 20.6132 3.78047 21.8732 3.32047 21.9202C2.86047 21.9672 2.99347 21.6472 3.03947 21.0072C3.08647 20.3662 2.43947 19.1852 2.19947 19.0522" fill="black" blush:i="0.1.0.0.3"/><path id="Fill 30" fill-rule="evenodd" clip-rule="evenodd" d="M4.01519 7.56726C3.77119 8.09226 3.66619 8.65026 3.66919 9.19226C3.69619 9.73526 3.76219 10.3123 3.82019 10.8743L3.98419 12.5773C4.04619 13.1443 4.07219 13.7153 4.20419 14.2753C3.87419 13.7813 3.74619 13.1963 3.60519 12.6383C3.46819 12.0733 3.38819 11.5003 3.32319 10.9253C3.27619 10.3453 3.22119 9.77526 3.28719 9.17026C3.36519 8.57026 3.59519 7.98226 4.01519 7.56726" fill="#2D1807" blush:i="0.1.0.0.4"/><path id="Fill 32" fill-rule="evenodd" clip-rule="evenodd" d="M6.25943 7.89789C5.99543 9.37489 5.67543 10.8179 5.43543 12.2739C5.30243 12.9999 5.20843 13.7289 5.13643 14.4579C5.07543 15.1869 5.03943 15.9229 5.17343 16.6619C4.83743 15.9779 4.76943 15.1959 4.75243 14.4439C4.73443 13.6859 4.81843 12.9319 4.94243 12.1899C5.07643 11.4499 5.23743 10.7159 5.46543 10.0009C5.68543 9.28489 5.93243 8.57589 6.25943 7.89789" fill="#2D1807" blush:i="0.1.0.0.5"/><path id="Fill 34" fill-rule="evenodd" clip-rule="evenodd" d="M10.6055 4.09468C11.6165 3.56268 12.6535 3.13968 13.6865 2.71068L15.2365 2.08168C15.7515 1.86568 16.2605 1.65068 16.7475 1.35468C16.3925 1.81168 15.8965 2.13568 15.4085 2.42568C14.9175 2.71868 14.3975 2.95368 13.8755 3.17368C12.8205 3.58968 11.7375 3.93268 10.6055 4.09468" fill="#2D1807" blush:i="0.1.0.0.6"/><path id="Fill 36" fill-rule="evenodd" clip-rule="evenodd" d="M11.0068 5.25235C12.2118 5.06635 13.3548 4.75335 14.4068 4.23735C14.9378 3.99135 15.4368 3.68335 15.9108 3.33535C16.3988 2.99835 16.8148 2.57435 17.2668 2.15735C16.7138 3.24835 15.7518 4.15735 14.6238 4.68735C13.4998 5.22135 12.2188 5.45935 11.0068 5.25235" fill="#2D1807" blush:i="0.1.0.0.7"/><path id="Fill 38" fill-rule="evenodd" clip-rule="evenodd" d="M15.4248 5.74846C16.0428 5.58346 16.6088 5.31746 17.1428 5.00746C17.4058 4.84246 17.6618 4.68146 17.9178 4.49746C18.2058 4.30546 18.5168 4.16546 18.8308 4.05946C19.4648 3.85446 20.1138 3.77146 20.7588 3.75546C21.4038 3.73846 22.0468 3.77446 22.6768 3.90546C22.0398 3.98246 21.4118 4.04246 20.7928 4.13846C20.1768 4.24246 19.5588 4.33746 18.9878 4.53446C18.6968 4.62146 18.4268 4.74546 18.1778 4.89146C17.9028 5.05346 17.6188 5.22746 17.3158 5.34946C16.7178 5.60346 16.0728 5.78846 15.4248 5.74846" fill="#2D1807" blush:i="0.1.0.0.8"/><path id="Fill 40" fill-rule="evenodd" clip-rule="evenodd" d="M18.0469 5.65365C18.4669 5.48965 18.8809 5.34865 19.2929 5.20265C19.7099 5.05065 20.0999 4.91265 20.5379 4.77265C21.3969 4.51065 22.3799 4.46465 23.2199 4.80365C22.7699 4.84565 22.3369 4.86765 21.9189 4.94565C21.5009 5.02765 21.0889 5.12565 20.6779 5.25265C20.2739 5.36965 19.8279 5.51065 19.3889 5.57265C18.9469 5.64465 18.4989 5.69365 18.0469 5.65365" fill="#2D1807" blush:i="0.1.0.0.9"/><path id="Fill 42" fill-rule="evenodd" clip-rule="evenodd" d="M10.8242 14.6127C10.8242 14.6127 11.1252 14.4357 11.8522 14.4177C12.5782 14.3997 15.5372 14.6477 15.5902 14.5417C15.6432 14.4357 15.5372 13.8507 15.5372 13.8507C15.5372 13.8507 15.0412 13.7797 15.0582 13.7087C15.0762 13.6377 15.6432 13.3367 15.6432 13.2657C15.6432 13.1957 11.8162 12.2567 10.8242 14.6127" fill="black" blush:i="0.1.0.0.10"/><path id="Fill 44" fill-rule="evenodd" clip-rule="evenodd" d="M23.4027 14.3647C23.4027 14.3647 22.0387 14.2937 21.4187 14.4887C20.7987 14.6837 20.4967 14.7367 20.4437 14.6477C20.3907 14.5597 20.6387 14.2407 20.9047 14.0987C21.1707 13.9567 20.6387 13.7447 21.2057 13.4967C21.7727 13.2487 23.1727 13.3547 23.3667 13.7617L23.4027 14.3647Z" fill="black" blush:i="0.1.0.0.11"/><path id="Fill 46" fill-rule="evenodd" clip-rule="evenodd" d="M11.5508 18.1025C11.5508 18.1025 13.0568 18.0315 13.8718 18.2265C14.6868 18.4215 15.7318 18.2085 15.7318 18.2085C15.7318 18.2085 14.9518 17.1635 13.9428 17.1635C12.9328 17.1635 11.9408 17.5715 11.5508 18.1025" fill="black" blush:i="0.1.0.0.12"/><path id="Fill 48" fill-rule="evenodd" clip-rule="evenodd" d="M20.4268 18.3862C20.4268 18.3862 22.1458 17.9072 22.9778 18.0322C22.9778 18.0322 23.1728 17.7662 23.0848 17.5892C22.9958 17.4112 22.3578 17.0042 21.6848 17.1992C21.0108 17.3942 20.5868 17.9432 20.4268 18.3862" fill="black" blush:i="0.1.0.0.13"/><path id="Fill 50" fill-rule="evenodd" clip-rule="evenodd" d="M17.6632 23.7187C17.6632 23.7187 18.1942 23.7547 18.5132 23.5947C18.8322 23.4357 20.2322 23.3647 20.2322 23.3647C20.2322 23.3647 19.3462 24.1087 18.9212 24.1267C18.4962 24.1437 17.5742 23.9487 17.6632 23.7187" fill="black" blush:i="0.1.0.0.14"/><path id="Fill 52" fill-rule="evenodd" clip-rule="evenodd" d="M15.1824 26.2524C15.1824 26.2524 17.5744 27.4574 20.0904 26.3764C20.0904 26.3764 20.4794 26.1814 20.4794 26.5004C20.4794 26.8194 19.4164 27.3684 17.7694 27.3864C16.1214 27.4034 14.9344 26.9254 14.6864 26.5004C14.4384 26.0754 15.1824 26.2524 15.1824 26.2524" fill="black" blush:i="0.1.0.0.15"/></g></g></g><g id="Facial Hair" blush:component="Facial Hair" blush:defaultValue="Full Beard 1" blush:width="19" blush:height="14" transform="translate(132 53) scale(1 1)" blush:i="0.2" blush:value="Full Beard 1" blush:viewBox="0 -0.03804347826086918 18.050000000000004 13.790760869565219"><g id="Facial Hair/Full Beard 1" blush:viewBox="0 -0.03804347826086918 18.050000000000004 13.790760869565219" blush:i="0.2.0"><path id="Fill 55" fill-rule="evenodd" clip-rule="evenodd" d="M16.175 7.90305C15.998 8.18605 15.75 8.80605 14.775 8.94805C13.801 9.09005 14.155 8.34605 13.588 8.27505C13.021 8.20405 12.224 8.64705 11.923 9.10805C11.622 9.56905 8.557 9.28505 8.698 8.27505C8.698 8.27505 9.301 6.39705 10.382 6.36105C11.462 6.32605 13.057 6.32605 13.872 6.09605C14.687 5.86505 16.157 6.00705 16.263 6.53905C16.37 7.07005 16.352 7.61905 16.175 7.90305M16.848 5.70605C15.785 5.52905 16.37 4.74905 14.315 5.05005C12.259 5.35205 9.035 3.98705 7.813 8.22205C7.813 8.22205 5.58 6.71605 4.624 4.80205C3.667 2.88905 2.781 2.18005 1.736 1.56005C0.691 0.941047 0.319 -0.157953 0 0.0190467C0 0.0190467 0.038 2.39905 0.276 4.21205C0.513 6.02505 1.258 7.58405 3.277 9.03705C5.297 10.489 9.903 13.448 11.25 13.572C12.596 13.696 14.492 13.997 15.147 13.324C15.803 12.651 16.622 10.023 16.622 10.023C16.622 10.023 17.61 7.63705 17.752 6.62805C17.874 5.75205 17.982 4.69005 18.016 4.41205C17.974 4.71405 17.777 5.86105 16.848 5.70605" fill="#110B05" blush:i="0.2.0.0"/></g></g><g id="Male Character/Upper Body" blush:component="Male Character/Upper Body" blush:defaultValue="Jacket and Shirt 1" blush:width="101" blush:height="98" transform="translate(85 63) scale(1 1)" blush:i="0.3" blush:value="Jacket and Shirt 1" blush:viewBox="14.644999999999996 -0.25257731958762975 74.74000000000001 97.49484536082473"><g id="Male Character/Upper Body/Jacket and Shirt 1" blush:viewBox="14.644999999999996 -0.25257731958762975 74.74000000000001 97.49484536082473" blush:i="0.3.0"><g id="Group" blush:i="0.3.0.0"><path id="Fill 110" fill-rule="evenodd" clip-rule="evenodd" d="M82.57 68.8831C82.0006 62.4806 80.9318 53.0995 79.44 48.9122C77.9492 44.725 78.8649 33.5466 78.8649 33.5466C76.2146 28.2472 74.4686 31.617 71.7684 33.657C69.0694 35.6962 66.5561 53.1363 70.3945 59.1186C76.1067 68.0213 78.799 76.4982 80.0387 81.6049C80.0538 81.6671 80.0681 81.7286 80.0816 81.7894C80.2675 82.6295 80.0212 82.5353 79.7409 83.531C79.1671 85.5659 82.6116 88.5625 82.9579 91.0206C82.458 91.9692 80.3125 93.5763 81.4937 94.8571L81.6739 94.8825L82.3205 94.3846C82.3205 94.3846 82.6917 95.3648 83.1983 95.6471C83.1983 95.6471 83.3558 95.6763 83.4497 95.6117C83.5157 95.5664 83.8843 94.7538 84.0981 94.2749C84.0521 96.0316 84.8518 96.5641 85.3416 96.5996C85.5767 96.6155 86.1237 94.6636 86.1237 94.6636C86.5493 97.455 87.4653 96.8365 87.788 96.4516C88.1117 96.067 88.6036 92.9188 88.9627 91.5282C89.3112 90.1766 89.7269 88.3395 87.8037 84.3622C85.8805 80.3848 83.1394 75.2867 82.57 68.8831Z" fill="#db8c5c" blush:color="Skin-500" blush:i="0.3.0.0.0"/><path id="Fill 130" fill-rule="evenodd" clip-rule="evenodd" d="M83.7923 91.8846C84.0687 92.1456 84.5095 92.3358 84.5342 92.1525C84.707 91.9435 84.8189 91.528 84.8776 91.1606C84.9412 90.7798 84.9651 90.3873 84.9566 90.0023C84.9521 89.8119 84.938 89.617 84.8988 89.4509C84.8753 89.3234 84.7635 89.1057 84.6965 88.9216C84.547 88.5411 84.4067 88.1599 84.275 87.7748C84.1436 87.3877 84.0195 86.9987 83.9163 86.5974C83.8648 86.3963 83.8176 86.1938 83.7902 85.9718C83.7802 85.8563 83.7625 85.7518 83.7937 85.5875C83.8059 85.5226 83.8593 85.3433 84.0573 85.2853C84.237 85.2499 84.3106 85.33 84.4183 85.3825C84.7809 85.7485 84.9392 86.0949 85.1516 86.459C85.3442 86.8203 85.5293 87.1846 85.7006 87.5541C86.0465 88.2904 86.369 89.0345 86.6481 89.8079C86.7137 90.017 86.7849 90.1714 86.8236 90.4637C86.8204 90.7732 86.7483 90.9055 86.7121 91.1205C86.6186 91.5123 86.5455 91.903 86.4766 92.2932C86.2675 93.0626 86.1256 93.8495 86.1233 94.6631C85.9228 93.8694 85.9345 93.0319 85.9831 92.2117C86.0451 91.8064 86.1368 91.4053 86.2236 91.0105C86.2598 90.8318 86.3363 90.5749 86.3242 90.4813C86.3089 90.3752 86.2369 90.1469 86.1764 89.9738C85.9084 89.2293 85.5883 88.4895 85.2486 87.7662C84.9101 87.0713 84.537 86.2625 84.1023 85.7703C84.1175 85.7916 84.106 85.7799 84.1863 85.7689C84.2858 85.7365 84.2879 85.6641 84.2814 85.6955C84.2726 85.7296 84.2768 85.8291 84.287 85.9144C84.3093 86.0932 84.3522 86.284 84.4003 86.4736C84.4973 86.8538 84.6194 87.2355 84.7482 87.6121C84.8779 87.9898 85.0148 88.3665 85.1616 88.7376C85.2292 88.9319 85.3186 89.0717 85.3863 89.3377C85.438 89.5661 85.4499 89.7758 85.4563 89.9888C85.4658 90.4102 85.4397 90.8256 85.3711 91.2421C85.2805 91.6565 85.241 92.0741 84.8985 92.4996C84.7904 92.6005 84.6155 92.688 84.4506 92.6689C84.2848 92.6627 84.1707 92.5912 84.0714 92.5287C83.8734 92.3928 83.7333 92.2328 83.6007 92.0698C83.342 91.7405 83.1351 91.3873 82.9585 91.0202C83.2198 91.3306 83.4984 91.6262 83.7923 91.8846Z" fill="black" blush:i="0.3.0.0.1"/><g id="Top" blush:i="0.3.0.0.2"><path id="Fill 60" fill-rule="evenodd" clip-rule="evenodd" d="M21.2285 33.1025C21.2285 33.1025 15.7715 55.2125 15.8425 55.7085C15.9135 56.2055 23.9215 68.4645 28.2445 72.4335C32.5675 76.4015 35.6925 81.5755 35.6925 81.5755C35.6925 81.5755 38.3855 76.0005 40.9835 74.4415C40.9835 74.4415 38.6615 74.2755 34.7645 66.4095C30.8665 58.5435 29.3785 54.8585 27.5355 53.4415C27.5355 53.4415 31.4185 46.2305 31.7095 39.2765C31.9995 32.3235 25.7645 25.1655 21.2285 33.1025" fill="#db8c5c" blush:color="Skin-500" blush:i="0.3.0.0.2.0"/><path id="Fill 62" fill-rule="evenodd" clip-rule="evenodd" d="M45.741 4.41113C45.741 4.41113 48.953 12.2531 55.662 11.2141C62.371 10.1751 59.725 5.49713 59.725 5.49713C59.725 5.49713 69.457 13.3871 71.914 15.4191C74.371 17.4501 78.575 15.7491 78.575 34.4111C78.575 34.4111 77.489 35.7811 72.717 36.1121C72.717 36.1121 70.733 50.2851 72.907 56.0491C75.079 61.8121 75.599 70.6001 75.599 70.6001C75.599 70.6001 70.072 81.9381 38.371 72.3481C38.371 72.3481 32.952 49.4961 32.385 39.7171C32.385 39.7171 24.528 37.4821 19.709 33.7491C19.709 33.7491 21.694 18.5371 26.701 15.4191C31.709 12.3011 45.741 4.41113 45.741 4.41113" fill="#DAEDEB" blush:i="0.3.0.0.2.1"/><path id="Fill 64" fill-rule="evenodd" clip-rule="evenodd" d="M37.3496 53.5595C39.1166 54.6625 40.8496 55.8065 42.5876 56.9405L47.7946 60.3465C49.5296 61.4805 51.2796 62.5865 53.0356 63.6845C53.9186 64.2235 54.8066 64.7555 55.7166 65.2455C56.6146 65.7645 57.5456 66.2015 58.5106 66.5985C56.4736 66.1185 54.5876 65.1515 52.7466 64.1845C50.9106 63.1965 49.1376 62.0995 47.3856 60.9745C45.6496 59.8265 43.9306 58.6535 42.2606 57.4125C40.5866 56.1775 38.9336 54.9125 37.3496 53.5595" fill="#9FB1B7" blush:i="0.3.0.0.2.2"/><path id="Fill 66" fill-rule="evenodd" clip-rule="evenodd" d="M38.8145 57.9057C40.3225 58.9447 41.8435 59.9457 43.3925 60.8977C44.9475 61.8387 46.5155 62.7547 48.1205 63.5977C49.7125 64.4677 51.3605 65.2227 53.0195 65.9577C53.8515 66.3217 54.6925 66.6637 55.5505 66.9637C56.3905 67.3257 57.2735 67.5457 58.1325 67.8747C54.5085 67.3067 51.0125 65.9767 47.7695 64.2597C46.1515 63.3877 44.5715 62.4427 43.0765 61.3767C41.5795 60.3157 40.1285 59.1857 38.8145 57.9057" fill="#9FB1B7" blush:i="0.3.0.0.2.3"/><path id="Fill 72" fill-rule="evenodd" clip-rule="evenodd" d="M32.3848 39.7167C32.7038 37.7377 33.1688 35.7897 33.6678 33.8517C34.1848 31.9177 34.7378 29.9917 35.4338 28.1137C35.1138 30.1027 34.6498 32.0447 34.1508 33.9787C33.6338 35.9077 33.0828 37.8277 32.3848 39.7167" fill="#9FB1B7" blush:i="0.3.0.0.2.4"/><path id="Fill 74" fill-rule="evenodd" clip-rule="evenodd" d="M33.1914 36.0971C33.4004 35.5051 33.6984 34.9541 34.0234 34.4211C34.3464 33.8861 34.7254 33.3851 35.1374 32.9111C35.5614 32.4481 36.0144 32.0051 36.5304 31.6391C37.0474 31.2771 37.6084 30.9671 38.2144 30.8051C37.1744 31.4961 36.3174 32.3311 35.5114 33.2431C34.7034 34.1501 33.9644 35.1181 33.1914 36.0971" fill="#9FB1B7" blush:i="0.3.0.0.2.5"/><path id="Fill 76" fill-rule="evenodd" clip-rule="evenodd" d="M72.7168 36.1118C73.1158 34.8838 73.4818 33.6538 73.8058 32.4128C74.1268 31.1718 74.4298 29.9258 74.6508 28.6658C74.9198 27.4138 75.0798 26.1438 75.2198 24.8728C75.3718 23.5998 75.3998 22.3198 75.4398 21.0278C75.6078 22.3068 75.6768 23.6068 75.6038 24.9018C75.5418 26.1958 75.3748 27.4858 75.1418 28.7598C74.8768 30.0288 74.5768 31.2898 74.1738 32.5208C73.7688 33.7488 73.3068 34.9618 72.7168 36.1118" fill="#9FB1B7" blush:i="0.3.0.0.2.6"/><path id="Fill 80" fill-rule="evenodd" clip-rule="evenodd" d="M58.9355 16.8036C58.9355 16.8036 62.4085 27.0086 62.9755 35.2286C63.5415 43.4496 65.3135 59.5356 67.5815 62.7246C69.8495 65.9136 71.8555 71.9036 70.9825 73.2126C70.9125 73.3196 75.2837 67.7987 75.1284 71.211C74.7195 80.1999 85.7655 75.0948 85.7655 75.0948C85.7655 75.0948 88.1408 72.9003 83.0762 57.0368C78.0115 41.1733 78.1165 41.1346 79.4865 31.5436C80.8565 21.9526 76.4155 17.4176 73.8645 15.5276C71.3135 13.6376 62.8565 8.0636 62.8565 8.0636L58.9355 16.8036Z" fill="#7F766B" blush:i="0.3.0.0.2.7"/><path id="Fill 86" fill-rule="evenodd" clip-rule="evenodd" d="M59.0785 3.90573C59.0785 3.90573 58.4645 4.89773 58.9845 6.64573C59.5035 8.39373 59.4565 15.6697 58.3705 16.8977C58.3705 16.8977 58.1815 17.9377 59.3625 17.2287C60.5435 16.5197 63.2365 10.7087 62.8585 8.06373C62.8585 8.06373 59.2205 3.43373 59.0785 3.90573" fill="#4A4643" blush:i="0.3.0.0.2.8"/><g id="Group 90" blush:i="0.3.0.0.2.9"><path id="Fill 88" fill-rule="evenodd" clip-rule="evenodd" d="M35.2668 64.0947C34.1808 62.6777 28.8888 52.0007 28.8888 52.0007C30.2588 50.1107 29.9758 48.0787 29.9758 48.0787C30.7318 46.5677 32.1488 41.6067 32.1488 41.6067C32.3378 45.1497 33.5658 54.9767 34.8418 58.2837C36.1178 61.5907 35.2668 64.0947 35.2668 64.0947M53.0788 18.3627C53.0788 18.3627 44.9048 11.7487 43.7008 4.89771C43.7008 4.89771 32.1488 11.7007 30.4478 12.1977C28.7468 12.6937 25.6288 12.6227 23.0068 19.8507C20.3848 27.0787 18.5428 40.9687 17.9048 43.0947C17.2668 45.2207 15.5658 49.4017 15.4958 50.3937C15.4248 51.3867 15.6368 53.2997 15.1408 54.8587C14.6448 56.4177 15.4958 60.1737 17.1248 62.0867C18.7548 64.0007 24.9918 73.7797 30.3768 74.4887C30.3768 74.4887 30.9438 75.2917 31.7238 75.5047C32.5028 75.7167 37.4168 72.5277 37.4638 71.2287C37.5108 69.9287 46.8888 73.4257 46.8888 73.4257C46.8888 73.4257 53.9288 53.3237 54.6838 43.6857C55.4398 34.0477 53.0788 18.3627 53.0788 18.3627" fill="#7F766B" blush:i="0.3.0.0.2.9.0"/></g><path id="Fill 91" fill-rule="evenodd" clip-rule="evenodd" d="M48.3528 0.173803C48.3528 0.173803 45.6128 11.4648 53.7388 18.3158C53.7388 18.3158 53.9748 19.0708 53.0298 18.9768C52.0848 18.8818 43.1088 14.3468 43.2978 5.1338C43.2978 5.1338 43.0138 4.9928 44.3838 3.6698C45.7538 2.3468 46.3688 -0.582197 48.3528 0.173803" fill="#4A4643" blush:i="0.3.0.0.2.10"/><path id="Fill 93" fill-rule="evenodd" clip-rule="evenodd" d="M30.5898 75.1972C30.5898 75.1972 33.1408 78.3632 33.4718 78.4092C33.8018 78.4572 34.5578 77.3702 35.4088 76.3312C36.2588 75.2912 39.7548 73.5912 39.8968 73.1182C40.0388 72.6462 37.3928 68.9132 36.8258 69.1972C36.2588 69.4812 31.7708 73.2132 30.5898 75.1972" fill="#4A4643" blush:i="0.3.0.0.2.11"/><path id="Fill 95" fill-rule="evenodd" clip-rule="evenodd" d="M35.2676 64.0947C35.6476 64.3817 35.9556 64.7437 36.2306 65.1297C36.5096 65.5137 36.7256 65.9427 36.8976 66.3907C37.0526 66.8457 37.1566 67.3247 37.1566 67.8097C37.1526 68.2957 37.0476 68.7787 36.8266 69.1977C36.8466 68.7217 36.8446 68.2787 36.7726 67.8397C36.6856 67.4047 36.5806 66.9777 36.4286 66.5607C36.1246 65.7227 35.7086 64.9267 35.2676 64.0947" fill="#4A4643" blush:i="0.3.0.0.2.12"/><path id="Fill 97" fill-rule="evenodd" clip-rule="evenodd" d="M23.6914 42.3622C24.2144 42.1572 24.8184 42.2462 25.3454 42.4362C25.8814 42.6272 26.3634 42.9462 26.7764 43.3202C27.1944 43.6952 27.5544 44.1222 27.8574 44.5832C27.9974 44.8212 28.1464 45.0522 28.2754 45.2932C28.3864 45.5472 28.5104 45.7902 28.6054 46.0472C28.2334 45.6392 27.9044 45.2162 27.5514 44.8172C27.1894 44.4272 26.8404 44.0332 26.4444 43.6942C26.0654 43.3352 25.6404 43.0392 25.1914 42.7862C24.7384 42.5472 24.2374 42.3652 23.6914 42.3622" fill="#4A4643" blush:i="0.3.0.0.2.13"/><path id="Fill 99" fill-rule="evenodd" clip-rule="evenodd" d="M21.3826 45.5063C22.2316 45.4883 23.0916 45.5383 23.9316 45.7433C24.7706 45.9413 25.5806 46.3083 26.2826 46.8463C26.9656 47.4133 27.4756 48.1653 27.7966 48.9873C27.8466 49.1133 27.7846 49.2543 27.6586 49.3033C27.5786 49.3353 27.4926 49.3213 27.4276 49.2753L27.4136 49.2643C26.8406 48.8473 26.1346 48.5243 25.4326 48.2823C24.7226 48.0403 23.9836 47.8843 23.2386 47.7653C22.4896 47.6673 21.7296 47.6243 20.9686 47.6493C20.2056 47.6513 19.4476 47.7493 18.6836 47.8423C19.4256 47.6433 20.1846 47.4963 20.9546 47.4143C21.7246 47.3333 22.5036 47.3413 23.2806 47.3953C24.0566 47.4623 24.8276 47.6163 25.5746 47.8573C26.3226 48.1033 26.3852 48.1017 27.0632 48.5767C27.0632 48.5767 26.6046 47.7263 25.9906 47.2023C25.3646 46.6963 24.6146 46.3623 23.8306 46.1253C23.0456 45.8853 22.2126 45.7883 21.3816 45.7583C20.5486 45.7163 19.7086 45.7563 18.8726 45.8583C19.6886 45.6413 20.5346 45.5473 21.3826 45.5063Z" fill="#4A4643" blush:i="0.3.0.0.2.14"/><path id="Fill 101" fill-rule="evenodd" clip-rule="evenodd" d="M17.7402 55.1186C18.3982 54.3656 19.2062 53.7486 20.0662 53.2276C20.9282 52.7036 21.8752 52.3186 22.8532 52.0566C23.8322 51.7976 24.8542 51.6736 25.8642 51.7476C26.8762 51.7756 27.8632 52.0356 28.7952 52.3786C27.8072 52.2366 26.8362 52.0796 25.8582 52.1326C24.8842 52.1496 23.9162 52.2816 22.9802 52.5406C21.0972 53.0236 19.3332 53.9306 17.7402 55.1186" fill="#4A4643" blush:i="0.3.0.0.2.15"/><path id="Fill 103" fill-rule="evenodd" clip-rule="evenodd" d="M29.7402 14.394C31.6212 15.016 33.1402 16.541 34.0652 18.295C34.5512 19.171 34.8712 20.127 35.1222 21.089L35.4252 22.554L35.5662 24.039C35.6282 24.535 35.5922 25.031 35.5852 25.527C35.5682 26.022 35.5762 26.519 35.5382 27.013C35.4042 27.993 35.3612 28.987 35.1482 29.952C34.9262 30.914 34.7652 31.889 34.4942 32.836L33.6142 35.654L34.2562 32.779C34.4772 31.826 34.5942 30.851 34.7682 29.891C34.9202 28.926 34.9742 27.951 35.0842 26.982C35.1142 26.497 35.0982 26.01 35.1072 25.524C35.1072 25.039 35.1342 24.551 35.0672 24.07C35.0132 22.128 34.5452 20.213 33.7252 18.472C33.5402 18.023 33.2452 17.637 33.0102 17.214C32.7062 16.843 32.4462 16.425 32.0892 16.098C31.4352 15.384 30.6402 14.789 29.7402 14.394" fill="#4A4643" blush:i="0.3.0.0.2.16"/><path id="Fill 105" fill-rule="evenodd" clip-rule="evenodd" d="M38.7161 63.5297C38.8901 65.2627 39.2191 67.2057 39.4811 67.5597C40.3921 67.0287 48.5581 58.3447 48.8591 57.7987C48.9481 57.5897 48.7971 56.6837 48.4401 56.0217C48.2641 55.6937 48.0691 55.4877 47.9061 55.4587C47.3151 55.5557 42.7401 59.6737 38.7161 63.5297M39.4471 68.0767C39.2511 68.0767 38.6531 68.0767 38.2061 63.4577C38.1991 63.3817 38.2271 63.3057 38.2821 63.2537C41.5711 60.0967 47.1931 54.8037 47.9961 54.9667C48.3231 55.0267 48.6211 55.3017 48.8811 55.7847C49.2441 56.4617 49.5081 57.5547 49.3151 58.0047C49.2721 58.1047 40.2931 68.0767 39.4471 68.0767" fill="#4A4643" blush:i="0.3.0.0.2.17"/><path id="Fill 107" fill-rule="evenodd" clip-rule="evenodd" d="M36.9203 67.3076C36.9203 67.3076 42.6363 70.5676 45.4713 70.7086C48.3063 70.8506 48.1643 71.2286 47.5033 72.3156C46.8413 73.4016 46.0863 76.2836 45.6603 76.5196C45.2353 76.7566 39.4243 73.2126 37.9123 71.4176C36.4003 69.6226 36.9203 67.3076 36.9203 67.3076" fill="#4A4643" blush:i="0.3.0.0.2.18"/><path id="Fill 109" fill-rule="evenodd" clip-rule="evenodd" d="M31.52 74.4448L33.02 75.9448C33.533 76.4318 34.008 76.9538 34.39 77.5628L34.372 77.5798C33.797 77.1488 33.316 76.6318 32.873 76.0798L31.502 74.4618L31.52 74.4448Z" fill="#1E2214" blush:i="0.3.0.0.2.19"/><path id="Fill 111" fill-rule="evenodd" clip-rule="evenodd" d="M32.7963 72.9213L34.1773 74.4633C34.6533 74.9663 35.0903 75.5053 35.4193 76.1113L35.3993 76.1253C34.8533 75.6683 34.4173 75.1443 34.0193 74.5853L32.7773 72.9373L32.7963 72.9213Z" fill="#1E2214" blush:i="0.3.0.0.2.20"/><path id="Fill 113" fill-rule="evenodd" clip-rule="evenodd" d="M34.3549 71.9638C34.8139 72.3528 35.2579 72.7588 35.6839 73.1858C36.1189 73.5978 36.5429 74.0608 36.7309 74.6598L36.7089 74.6718L36.1059 74.0098L35.5369 73.3218C35.1479 72.8678 34.7469 72.4218 34.3379 71.9818L34.3549 71.9638Z" fill="#1E2214" blush:i="0.3.0.0.2.21"/><path id="Fill 115" fill-rule="evenodd" clip-rule="evenodd" d="M35.7378 70.2646L37.1348 72.0356C37.6148 72.6136 38.0518 73.2206 38.3948 73.9136L38.3758 73.9296C37.8318 73.4056 37.3838 72.7966 36.9768 72.1586L35.7168 70.2796L35.7378 70.2646Z" fill="#1E2214" blush:i="0.3.0.0.2.22"/><path id="Fill 117" fill-rule="evenodd" clip-rule="evenodd" d="M37.5102 69.9453C37.8842 70.3903 38.2322 70.8563 38.5602 71.3363C38.9102 71.8023 39.2002 72.3143 39.3532 72.8883L39.3312 72.9003C38.9462 72.4493 38.6572 71.9563 38.3902 71.4433C38.1032 70.9433 37.8052 70.4463 37.4902 69.9603L37.5102 69.9453Z" fill="#1E2214" blush:i="0.3.0.0.2.23"/><path id="Fill 119" fill-rule="evenodd" clip-rule="evenodd" d="M46.7608 71.4028C46.5588 72.1698 46.3458 72.9288 46.1198 73.6798C46.0118 74.0578 45.9308 74.4428 45.7658 74.8018C45.5878 75.1578 45.4198 75.5158 45.1458 75.8498C45.1388 75.8618 45.1228 75.8658 45.1108 75.8588C45.1038 75.8548 45.0988 75.8438 45.0978 75.8368C45.0938 75.4288 45.1948 75.0458 45.2858 74.6598C45.3898 74.2778 45.5788 73.9208 45.7398 73.5568C46.0528 72.8258 46.3778 72.1008 46.7148 71.3848C46.7198 71.3728 46.7348 71.3668 46.7478 71.3728C46.7588 71.3788 46.7638 71.3918 46.7608 71.4028" fill="#1E2214" blush:i="0.3.0.0.2.24"/><path id="Fill 121" fill-rule="evenodd" clip-rule="evenodd" d="M44.6963 70.9252L44.2243 73.0562C44.1523 73.4112 44.1133 73.7742 43.9983 74.1142C43.8703 74.4542 43.7603 74.7872 43.5853 75.1302C43.5793 75.1432 43.5633 75.1492 43.5503 75.1432C43.5433 75.1402 43.5373 75.1332 43.5353 75.1262C43.4253 74.7442 43.4713 74.3642 43.5113 73.9982C43.5663 73.6322 43.7143 73.2912 43.8393 72.9472C44.0823 72.2562 44.3523 71.5782 44.6483 70.9092C44.6543 70.8962 44.6693 70.8912 44.6813 70.8962C44.6933 70.9012 44.6983 70.9132 44.6963 70.9252" fill="#1E2214" blush:i="0.3.0.0.2.25"/><path id="Fill 123" fill-rule="evenodd" clip-rule="evenodd" d="M42.7108 70.2875L42.4488 72.2975C42.4088 72.6315 42.3988 72.9715 42.3108 73.2935C42.2118 73.6165 42.1178 73.9295 41.9698 74.2535C41.9658 74.2665 41.9508 74.2755 41.9368 74.2705C41.9298 74.2685 41.9228 74.2605 41.9198 74.2555C41.7808 73.9035 41.8078 73.5495 41.8168 73.2085C41.8428 72.8665 41.9628 72.5435 42.0568 72.2175C42.2358 71.5625 42.4388 70.9165 42.6618 70.2755C42.6668 70.2625 42.6808 70.2555 42.6938 70.2605C42.7058 70.2645 42.7118 70.2755 42.7108 70.2875" fill="#1E2214" blush:i="0.3.0.0.2.26"/><path id="Fill 125" fill-rule="evenodd" clip-rule="evenodd" d="M40.8452 69.3832C40.7732 70.0192 40.7142 70.6552 40.6762 71.2902C40.6662 71.9302 40.6192 72.5502 40.5532 73.1932C40.5532 73.2002 40.5472 73.2052 40.5402 73.2052C40.5352 73.2052 40.5312 73.2012 40.5292 73.1962C40.3312 72.5662 40.3712 71.9022 40.4772 71.2712C40.5602 70.6342 40.6772 70.0032 40.8202 69.3792C40.8222 69.3722 40.8282 69.3682 40.8352 69.3692C40.8422 69.3712 40.8452 69.3772 40.8452 69.3832" fill="#1E2214" blush:i="0.3.0.0.2.27"/><path id="Fill 127" fill-rule="evenodd" clip-rule="evenodd" d="M47.7285 1.42131C47.3865 2.31031 47.0265 3.19331 46.3715 3.96531C46.0065 4.32731 45.6865 4.64031 45.2955 4.92331C44.9005 5.18731 44.5115 5.45831 44.0535 5.64731L44.0215 5.60831C44.2975 5.19831 44.6415 4.87031 44.9795 4.53631C45.3155 4.21331 45.7485 3.94931 46.0895 3.68131C46.7295 3.06231 47.2215 2.21631 47.6835 1.40131L47.7285 1.42131Z" fill="#1E2214" blush:i="0.3.0.0.2.28"/><path id="Fill 129" fill-rule="evenodd" clip-rule="evenodd" d="M47.3784 5.18057C47.0194 5.78157 46.6434 6.36957 46.2454 6.94557C46.0504 7.23557 45.8734 7.54257 45.6204 7.79157C45.3554 8.02157 45.1074 8.29457 44.7114 8.39457L44.6914 8.34857C44.8684 8.05157 45.0454 7.75557 45.2384 7.46857C45.4354 7.18457 45.6954 6.95157 45.9314 6.69657L47.3384 5.15057L47.3784 5.18057Z" fill="#1E2214" blush:i="0.3.0.0.2.29"/><path id="Fill 131" fill-rule="evenodd" clip-rule="evenodd" d="M47.5549 8.41159C47.3809 8.89859 47.1669 9.36959 46.9119 9.82459C46.7879 10.0526 46.6779 10.2986 46.4859 10.4826C46.2839 10.6566 46.0749 10.8326 45.7879 10.9026L45.7539 10.8656C45.8429 10.5886 45.9759 10.3866 46.0979 10.1666C46.2269 9.95559 46.4169 9.78959 46.5819 9.59859C46.8999 9.20959 47.2109 8.80559 47.5109 8.38959L47.5549 8.41159Z" fill="#1E2214" blush:i="0.3.0.0.2.30"/><path id="Fill 133" fill-rule="evenodd" clip-rule="evenodd" d="M48.2776 11.3256C48.2046 11.7536 48.1116 12.1766 47.9956 12.5946C47.9416 12.8046 47.9096 13.0276 47.7916 13.2156C47.6626 13.3946 47.5326 13.5886 47.2926 13.6996L47.2516 13.6716C47.2406 13.4206 47.2896 13.2246 47.3346 13.0126C47.3886 12.8086 47.5196 12.6356 47.6236 12.4486C47.8196 12.0696 48.0216 11.6886 48.2306 11.3086L48.2776 11.3256Z" fill="#1E2214" blush:i="0.3.0.0.2.31"/><path id="Fill 135" fill-rule="evenodd" clip-rule="evenodd" d="M49.577 13.52C49.535 13.903 49.481 14.279 49.414 14.648C49.385 14.835 49.385 15.027 49.298 15.197C49.199 15.365 49.109 15.535 48.913 15.684L48.865 15.673C48.781 15.461 48.801 15.27 48.813 15.076C48.837 14.886 48.947 14.717 49.029 14.542C49.183 14.189 49.35 13.843 49.53 13.504L49.577 13.52Z" fill="#1E2214" blush:i="0.3.0.0.2.32"/><path id="Fill 137" fill-rule="evenodd" clip-rule="evenodd" d="M58.9346 5.31C59.4356 5.933 60.0066 6.495 60.6146 6.992C60.9206 7.239 61.2596 7.435 61.5596 7.683C61.8506 7.947 62.1716 8.16 62.4676 8.466L62.4466 8.511C62.0246 8.463 61.6366 8.296 61.2756 8.094C60.9156 7.885 60.6246 7.584 60.3446 7.287C59.7716 6.701 59.2786 6.048 58.8926 5.336L58.9346 5.31Z" fill="#1E2214" blush:i="0.3.0.0.2.33"/><path id="Fill 139" fill-rule="evenodd" clip-rule="evenodd" d="M59.6385 8.87201C60.0315 9.14101 60.4385 9.38201 60.8475 9.60201C61.0555 9.70901 61.2805 9.78001 61.4645 9.91801C61.6435 10.072 61.8335 10.199 61.9925 10.426L61.9735 10.472C61.6995 10.508 61.4585 10.436 61.2235 10.357C60.9925 10.268 60.8115 10.092 60.6265 9.93501C60.2475 9.62901 59.9025 9.28701 59.6035 8.90801L59.6385 8.87201Z" fill="#1E2214" blush:i="0.3.0.0.2.34"/><path id="Fill 141" fill-rule="evenodd" clip-rule="evenodd" d="M59.8045 11.329L60.8335 12.05C61.0075 12.166 61.1995 12.253 61.3375 12.403C61.4715 12.564 61.6035 12.708 61.7125 12.931L61.6885 12.975C61.4295 12.997 61.2265 12.892 61.0305 12.798C60.8395 12.69 60.7115 12.511 60.5705 12.351C60.2825 12.039 60.0155 11.71 59.7695 11.364L59.8045 11.329Z" fill="#1E2214" blush:i="0.3.0.0.2.35"/><path id="Fill 143" fill-rule="evenodd" clip-rule="evenodd" d="M74.3842 17.5121C74.8412 18.1901 75.0232 19.0111 75.1652 19.8061C75.3092 20.6091 75.3492 21.4251 75.3772 22.2401C75.4092 23.8721 75.2382 25.4971 75.0302 27.1131C74.7892 28.7241 74.4942 30.3261 74.1322 31.9141C73.7752 33.5031 73.3352 35.0701 72.9012 36.6391L72.9082 36.6031C72.5952 39.3181 72.3812 42.0511 72.2262 44.7801C72.0992 47.5061 71.9872 50.2551 72.2902 52.9541C72.3552 53.6301 72.4832 54.2961 72.6482 54.9401C72.8202 55.5681 73.1092 56.2171 73.3132 56.8761C73.7362 58.1921 74.0472 59.5341 74.3192 60.8801C74.8572 63.5751 75.1882 66.3031 75.4472 69.0321C75.0972 66.3131 74.6292 63.6101 74.0432 60.9391C73.7442 59.6051 73.4062 58.2791 72.9632 56.9931C72.7492 56.3471 72.4622 55.7471 72.2532 55.0561C72.0602 54.3811 71.9342 53.6931 71.8612 53.0061C71.5322 50.2541 71.6282 47.4981 71.7372 44.7541C71.8712 42.0091 72.1342 39.2771 72.4592 36.5471L72.4662 36.5111C73.3702 33.4001 74.1832 30.2601 74.7212 27.0661C74.9602 25.4671 75.1562 23.8581 75.1962 22.2401C75.1982 21.4321 75.1892 20.6211 75.0762 19.8191C74.9642 19.0251 74.8152 18.2051 74.3842 17.5121" fill="#4A4643" blush:i="0.3.0.0.2.36"/><path id="Fill 145" fill-rule="evenodd" clip-rule="evenodd" d="M77.2196 47.4887C77.3446 47.9597 77.1716 48.4517 76.9876 48.8817C76.7956 49.3207 76.5196 49.7097 76.2306 50.0807C75.9266 50.4377 75.6056 50.7807 75.2436 51.0757C74.8876 51.3777 74.5116 51.6527 74.1016 51.8827C74.6606 51.1267 75.2786 50.4647 75.8436 49.7647C76.1286 49.4177 76.3966 49.0617 76.6516 48.6967C76.8906 48.3247 77.1356 47.9447 77.2196 47.4887" fill="#4A4643" blush:i="0.3.0.0.2.37"/><path id="Fill 147" fill-rule="evenodd" clip-rule="evenodd" d="M77.6461 49.7563C77.5741 50.6473 77.2461 51.4913 76.8061 52.2623C76.3521 53.0213 75.7411 53.7253 74.9531 54.1503C75.2081 53.7823 75.4721 53.4483 75.7041 53.0893C75.9301 52.7273 76.1681 52.3793 76.3751 52.0083C76.8131 51.2783 77.2041 50.5263 77.6461 49.7563" fill="#4A4643" blush:i="0.3.0.0.2.38"/><path id="Fill 149" fill-rule="evenodd" clip-rule="evenodd" d="M69.4071 58.3759C69.7521 58.5989 71.9071 59.6989 73.5081 60.5019L72.7001 57.2719C71.2741 56.6159 69.7131 55.9239 69.1051 55.6939C69.1281 56.3679 69.3111 58.0479 69.4071 58.3759M73.8821 61.2199C73.8441 61.2199 73.8061 61.2109 73.7701 61.1929C70.7311 59.6739 69.1311 58.8339 69.0151 58.6989C68.9011 58.5659 68.4321 55.4609 68.6971 55.1949C68.8511 55.0409 68.9131 54.9759 73.0181 56.8689C73.0871 56.8999 73.1381 56.9609 73.1571 57.0349L74.1251 60.9089C74.1481 61.0039 74.1151 61.1039 74.0381 61.1649C73.9931 61.2009 73.9381 61.2199 73.8821 61.2199" fill="#4A4643" blush:i="0.3.0.0.2.39"/><path id="Fill 151" fill-rule="evenodd" clip-rule="evenodd" d="M74.9908 65.1699C74.9908 65.1699 73.8258 68.8159 70.3828 69.9039C70.3828 69.9039 70.6108 75.0439 71.2688 75.0939C71.9278 75.1449 75.0668 73.1189 75.7248 70.6129C75.7248 70.6129 75.6998 65.3979 74.9908 65.1699" fill="#4A4643" blush:i="0.3.0.0.2.40"/><path id="Fill 153" fill-rule="evenodd" clip-rule="evenodd" d="M85.8419 74.8091C85.8419 74.8091 85.8662 80.0429 86.4076 80.8849L79.8699 82.185C79.0908 79.3029 78.2437 76.3232 78.2437 76.3232C78.2437 76.3232 81.3928 76.5966 85.8419 74.8091Z" fill="#4A4643" blush:i="0.3.0.0.2.41"/><path id="Fill 155" fill-rule="evenodd" clip-rule="evenodd" d="M71.6103 69.7929L71.8923 71.7219C71.9463 72.0409 72.0363 72.3529 72.0473 72.6709C72.0493 72.9949 72.0623 73.3019 72.0333 73.6469C72.0333 73.6619 72.0213 73.6739 72.0063 73.6739C72.0003 73.6739 71.9923 73.6689 71.9873 73.6649C71.7383 73.3979 71.6453 73.0599 71.5523 72.7419C71.4743 72.4179 71.4943 72.0839 71.4933 71.7549C71.4833 71.0999 71.5063 70.4459 71.5603 69.7939C71.5613 69.7799 71.5733 69.7699 71.5873 69.7719C71.5993 69.7719 71.6083 69.7819 71.6103 69.7929" fill="#1E2214" blush:i="0.3.0.0.2.42"/><path id="Fill 157" fill-rule="evenodd" clip-rule="evenodd" d="M72.8502 68.8159L73.3362 70.9489C73.4212 71.3029 73.5372 71.6499 73.5762 72.0079C73.6092 72.3699 73.6292 72.7229 73.6442 73.0929V73.1009C73.6442 73.1149 73.6342 73.1269 73.6202 73.1269C73.6132 73.1279 73.6062 73.1249 73.6012 73.1199C73.3072 72.8289 73.2082 72.4529 73.0862 72.1069C72.9802 71.7499 72.9732 71.3789 72.9412 71.0139C72.8682 70.2849 72.8232 69.5549 72.8012 68.8219C72.8002 68.8089 72.8112 68.7969 72.8252 68.7959C72.8372 68.7959 72.8482 68.8049 72.8502 68.8159" fill="#1E2214" blush:i="0.3.0.0.2.43"/><path id="Fill 159" fill-rule="evenodd" clip-rule="evenodd" d="M74.2856 67.3627C74.4696 67.9887 74.6386 68.6147 74.7936 69.2417C74.8766 69.5547 74.9866 69.8617 75.0106 70.1857C75.0216 70.5127 75.0426 70.8377 74.9586 71.1877C74.9556 71.2027 74.9426 71.2127 74.9276 71.2107C74.9206 71.2087 74.9136 71.2037 74.9096 71.1987C74.7136 70.9107 74.6216 70.5977 74.5206 70.2877C74.4326 69.9737 74.4306 69.6417 74.4006 69.3177C74.3316 68.6687 74.2776 68.0197 74.2366 67.3697C74.2356 67.3567 74.2456 67.3447 74.2596 67.3437C74.2716 67.3427 74.2826 67.3517 74.2856 67.3627" fill="#1E2214" blush:i="0.3.0.0.2.44"/><path id="Fill 161" fill-rule="evenodd" clip-rule="evenodd" d="M82.3767 77.8636C82.4138 78.1042 82.4809 78.3433 82.4592 78.5881C82.4245 78.8341 82.3997 79.0792 82.2675 79.3347C82.2617 79.3492 82.2442 79.3558 82.2296 79.349C82.2254 79.3474 82.221 79.3428 82.2177 79.339C82.0639 79.1076 82.0167 78.8658 81.9604 78.6247C81.9171 78.3816 81.9616 78.1328 81.9773 77.8875C81.9995 77.3957 82.0357 76.9036 82.0863 76.4144C82.088 76.4002 82.1003 76.3911 82.1134 76.3919C82.1256 76.3929 82.1344 76.4021 82.1363 76.413C82.2299 76.8977 82.3103 77.3805 82.3767 77.8636Z" fill="#1E2214" blush:i="0.3.0.0.2.45"/><path id="Fill 163" fill-rule="evenodd" clip-rule="evenodd" d="M83.4735 78.343C83.444 77.9244 83.391 77.5033 83.4443 77.0793C83.5163 76.663 83.5799 76.2196 83.852 75.8415C83.859 75.8307 83.8758 75.8273 83.8875 75.8347C83.8949 75.8387 83.8988 75.8485 83.8985 75.8569L83.9436 77.095C83.9564 77.5058 83.8982 77.919 83.8733 78.334C83.8395 79.1644 83.8172 79.9993 83.8029 80.8345C83.8031 80.8475 83.7919 80.8577 83.7779 80.858C83.7649 80.8582 83.7551 80.8498 83.7531 80.8389C83.6235 80.0116 83.5287 79.1804 83.4735 78.343Z" fill="#1E2214" blush:i="0.3.0.0.2.46"/><path id="Fill 163 Copy" fill-rule="evenodd" clip-rule="evenodd" d="M81.1812 79.0519C81.145 78.7182 81.1313 78.3788 81.0126 78.0537C80.8765 77.7376 80.7445 77.3989 80.417 77.1441C80.4083 77.1367 80.3913 77.1367 80.3809 77.1443C80.3742 77.1486 80.372 77.1569 80.3735 77.1635L80.5226 78.1441C80.5741 78.4691 80.6961 78.7849 80.7855 79.1073C80.9486 79.755 81.1011 80.4081 81.2457 81.0626C81.2476 81.0728 81.2602 81.0791 81.2741 81.0771C81.287 81.0753 81.2953 81.0671 81.2955 81.0582C81.294 80.3875 81.2576 79.7191 81.1812 79.0519Z" fill="#1E2214" blush:i="0.3.0.0.2.47"/><path id="Fill 165" fill-rule="evenodd" clip-rule="evenodd" d="M85.2499 77.8896C85.3142 78.2574 85.4092 78.6205 85.4256 78.9914C85.4293 79.3655 85.4465 79.7345 85.3764 80.1271C85.3747 80.1413 85.3604 80.1505 85.3462 80.1488C85.3381 80.1475 85.3317 80.143 85.3281 80.1363C85.1155 79.7945 85.0248 79.424 84.9295 79.0569C84.8479 78.6866 84.8628 78.3059 84.8519 77.9294C84.8213 77.1782 84.8209 76.4274 84.8485 75.6761C84.8492 75.661 84.8604 75.651 84.8745 75.6518C84.8865 75.6517 84.8964 75.6609 84.8984 75.6728L85.2499 77.8896Z" fill="#1E2214" blush:i="0.3.0.0.2.48"/><path id="Fill 165 Copy" fill-rule="evenodd" clip-rule="evenodd" d="M80.0801 79.5087C80.1335 79.7518 80.2176 79.9909 80.2231 80.2375C80.2158 80.4865 80.2222 80.7317 80.1408 80.9952C80.1387 81.0047 80.1242 81.0113 80.1101 81.0106C80.102 81.0099 80.0957 81.0071 80.0923 81.0028C79.8903 80.7814 79.8107 80.5373 79.7263 80.2956C79.6557 80.0513 79.6817 79.7973 79.6819 79.5469C79.6733 79.0475 79.6948 78.5475 79.7443 78.0463C79.7455 78.0363 79.7569 78.0293 79.771 78.0294C79.783 78.029 79.7925 78.0348 79.7942 78.0426L80.0801 79.5087Z" fill="#1E2214" blush:i="0.3.0.0.2.49"/></g></g><path id="Fill 126" fill-rule="evenodd" clip-rule="evenodd" d="M82.4964 92.872C82.6185 92.6428 82.7454 92.4152 82.9179 92.2224C83.0821 92.0243 83.2821 91.8585 83.492 91.7153C82.8931 92.5349 82.4333 93.3711 82.3192 94.3841C82.1755 93.8832 82.2965 93.3458 82.4964 92.872Z" fill="black" blush:i="0.3.0.1"/><path id="Fill 128" fill-rule="evenodd" clip-rule="evenodd" d="M84.0993 94.2746C84.0055 93.9575 84.0366 93.6357 84.083 93.3201C84.1576 93.0115 84.258 92.6923 84.4869 92.4508C84.3796 93.0851 84.3002 93.6566 84.0993 94.2746Z" fill="black" blush:i="0.3.0.2"/></g></g><g id="Male Character/Accesories" blush:component="Male Character/Accesories" blush:defaultValue="Shades 2" blush:width="34" blush:height="36" transform="translate(125 33) scale(1 1)" blush:i="0.4" blush:value="Shades 2" blush:viewBox="5.834745762711865 15.479999999999997 21.970338983050844 5.940000000000005"><g id="Male Character/Accesories/Shades 2" blush:viewBox="5.834745762711865 15.479999999999997 21.970338983050844 5.940000000000005" blush:i="0.4.0"><g id="Accesories" blush:i="0.4.0.0"><path id="Rectangle" fill-rule="evenodd" clip-rule="evenodd" d="M13.0977 15.625H18.0977C18.857 15.625 19.4727 16.2406 19.4727 17V20C19.4727 20.7594 18.857 21.375 18.0977 21.375H13.0977C12.3383 21.375 11.7227 20.7594 11.7227 20V17C11.7227 16.2406 12.3383 15.625 13.0977 15.625ZM18.0977 16.375H13.0977C12.7525 16.375 12.4727 16.6548 12.4727 17V20C12.4727 20.3452 12.7525 20.625 13.0977 20.625H18.0977C18.4428 20.625 18.7227 20.3452 18.7227 20V17C18.7227 16.6548 18.4428 16.375 18.0977 16.375Z" fill="#1E2214" blush:i="0.4.0.0.0"/><path id="Rectangle Copy" fill-rule="evenodd" clip-rule="evenodd" d="M22.375 15.625H26.375C27.1344 15.625 27.75 16.2406 27.75 17V20C27.75 20.7594 27.1344 21.375 26.375 21.375H22.375C21.6156 21.375 21 20.7594 21 20V17C21 16.2406 21.6156 15.625 22.375 15.625ZM26.375 16.375H22.375C22.0298 16.375 21.75 16.6548 21.75 17V20C21.75 20.3452 22.0298 20.625 22.375 20.625H26.375C26.7202 20.625 27 20.3452 27 20V17C27 16.6548 26.7202 16.375 26.375 16.375Z" fill="#1E2214" blush:i="0.4.0.0.1"/><path id="Path 2" fill-rule="evenodd" clip-rule="evenodd" d="M19.0819 18.0113C19.0819 18.0113 20.4884 17.4437 21.0819 18.0113L21.5475 16.0113H18.9014L19.0819 18.0113Z" fill="#1E2214" blush:i="0.4.0.0.2"/><path id="Path 3" fill-rule="evenodd" clip-rule="evenodd" d="M12.3993 18.0903L6 17.532L6 17L12.3993 16.1693V18.0903Z" fill="#1E2214" blush:i="0.4.0.0.3"/></g><rect id="Rectangle_2" x="12" y="16" width="7" height="5" rx="1" fill="#1E2214" blush:i="0.4.0.1"/><rect id="Rectangle Copy 2" x="21.2773" y="16" width="6" height="5" rx="1" fill="#1E2214" blush:i="0.4.0.2"/></g></g></g></svg>