<svg viewBox="64.36250000000001 69.85372340425533 132.11249999999995 186.5026595744681" fill="none" xmlns="http://www.w3.org/2000/svg" xmlns:xlink="http://www.w3.org/1999/xlink" xmlns:blush="http://design.blush" overflow="visible" width="132.11249999999995px" height="186.5026595744681px"><g id="Master/Female Character/Sitting Wheelchair" blush:has-customizable-colors="true" blush:viewBox="67.75 62.39361702127661 127.36999999999996 192.60638297872333" blush:i="0"><g id="Female Character Sitting Wheelchair/Lower Body" blush:component="Female Character Sitting Wheelchair/Lower Body" blush:defaultValue="Wheelchair 3" blush:width="126" blush:height="147" transform="translate(68 108) scale(1 1)" blush:i="0.0" blush:value="Wheelchair 3" blush:viewBox="-0.5139860139860133 0 127.76223776223777 147.73499999999996"><g id="Female Character Sitting Wheelchair/Lower Body/Wheelchair 3" blush:viewBox="-0.5139860139860133 0 127.76223776223777 147.73499999999996" blush:i="0.0.0"><g id="Back Wheelchair" blush:i="0.0.0.0"><g id="Group 3" blush:i="0.0.0.0.0"><path id="Fill 1" fill-rule="evenodd" clip-rule="evenodd" d="M112.244 116.235L79.4919 127.531C79.4919 127.531 78.1049 128.719 79.4919 130.504C80.8789 132.287 94.8499 142.196 94.8499 142.196C94.8499 142.196 95.8409 143.286 98.2199 142.196C100.598 141.105 126.162 130.8 126.162 130.8C126.162 130.8 127.549 129.909 127.252 128.324C126.954 126.738 112.244 116.235 112.244 116.235" fill="#2E2E2E" blush:i="0.0.0.0.0.0"/></g><path id="Fill 4" fill-rule="evenodd" clip-rule="evenodd" d="M107.201 79.0567L107.072 78.0647L73.1643 82.4767L102.48 63.6257L101.939 62.7847L72.8253 81.5057L92.9053 52.0957L92.0793 51.5317L71.9943 80.9477L79.1443 45.2717L78.1643 45.0747L71.0323 80.6637L64.1793 45.0107L63.1963 45.2007L70.0223 80.7127L51.2463 50.5967L50.3983 51.1257L69.3573 81.5357L40.5203 62.0787L39.9623 62.9077L68.0983 81.8907L36.0473 72.5887L35.7673 73.5497L68.5823 83.0737L34.8413 87.4647L34.9703 88.4567L68.8783 84.0437L39.5613 102.896L40.1023 103.738L69.2173 85.0157L49.1373 114.426L49.9633 114.991L70.0473 85.5737L62.8973 121.25L63.8783 121.448L71.0113 85.8567L77.8633 121.511L78.8463 121.322L72.0203 85.8057L90.7973 115.925L91.6443 115.396L72.6863 84.9867L101.521 104.443L102.08 103.615L73.9433 84.6287L105.996 93.9327L106.275 92.9717L73.4613 83.4477L107.201 79.0567Z" fill="#A1A1A1" blush:i="0.0.0.0.1"/><path id="Fill 6" fill-rule="evenodd" clip-rule="evenodd" d="M71.7326 41.1973C49.9716 41.1973 32.2676 59.9963 32.2676 83.1043C32.2676 106.211 49.9716 125.01 71.7326 125.01C93.4946 125.01 111.199 106.211 111.199 83.1043C111.199 59.9963 93.4946 41.1973 71.7326 41.1973M71.7326 43.6973C92.1156 43.6973 108.699 61.3753 108.699 83.1043C108.699 104.833 92.1156 122.51 71.7326 122.51C51.3496 122.51 34.7676 104.833 34.7676 83.1043C34.7676 61.3753 51.3496 43.6973 71.7326 43.6973" fill="#2E2E2E" blush:i="0.0.0.0.2"/><path id="Fill 8" fill-rule="evenodd" clip-rule="evenodd" d="M71.7326 43.6973C51.2706 43.6973 34.6226 61.3753 34.6226 83.1043C34.6226 104.833 51.2706 122.51 71.7326 122.51C92.1956 122.51 108.845 104.833 108.845 83.1043C108.845 61.3753 92.1956 43.6973 71.7326 43.6973M71.7326 46.0483C90.8996 46.0483 106.494 62.6713 106.494 83.1043C106.494 103.536 90.8996 120.159 71.7326 120.159C52.5656 120.159 36.9736 103.536 36.9736 83.1043C36.9736 62.6713 52.5656 46.0483 71.7326 46.0483" fill="#A1A1A1" blush:i="0.0.0.0.3"/><path id="Fill 10" fill-rule="evenodd" clip-rule="evenodd" d="M113.744 82.9278L68.667 66.6678V46.7648L113.744 63.0258V82.9278Z" fill="#2E2E2E" blush:i="0.0.0.0.4"/><path id="Fill 12" fill-rule="evenodd" clip-rule="evenodd" d="M68.6678 84.6045C67.8398 84.6045 67.1678 83.9325 67.1678 83.1045V3.00049H60.0928C59.2648 3.00049 58.5928 2.32849 58.5928 1.50049C58.5928 0.671488 59.2648 0.000488281 60.0928 0.000488281H68.6678C69.4958 0.000488281 70.1678 0.671488 70.1678 1.50049V83.1045C70.1678 83.9325 69.4958 84.6045 68.6678 84.6045" fill="#A1A1A1" blush:i="0.0.0.0.5"/><path id="Fill 14" fill-rule="evenodd" clip-rule="evenodd" d="M61.6365 3H54.4595C53.6315 3 52.9595 2.328 52.9595 1.5C52.9595 0.671 53.6315 0 54.4595 0H61.6365C62.4655 0 63.1365 0.671 63.1365 1.5C63.1365 2.328 62.4655 3 61.6365 3" fill="#2E2E2E" blush:i="0.0.0.0.6"/><path id="Fill 16" fill-rule="evenodd" clip-rule="evenodd" d="M113.744 120.563V120.563C112.915 120.563 112.244 119.891 112.244 119.063V61.1995C112.244 56.1535 110.398 49.4195 101.606 46.0025L68.1997 35.0295L69.1357 32.1795L102.617 43.1795C113.613 47.4515 115.244 56.3015 115.244 61.1995V119.063C115.244 119.891 114.572 120.563 113.744 120.563" fill="#A1A1A1" blush:i="0.0.0.0.7"/><path id="Fill 18" fill-rule="evenodd" clip-rule="evenodd" d="M38.8913 16.5293C38.8913 16.5293 36.9853 16.5483 37.0453 18.1073C37.0863 19.1613 38.0613 19.3483 38.6973 19.3613C38.5903 21.0203 38.4793 22.9633 38.4793 23.8903C38.4793 26.3473 38.8223 31.1023 38.8913 33.5083C38.9143 34.3013 38.9133 35.9243 38.9073 37.2933C38.3303 37.4483 37.1963 37.8763 37.1963 38.8383C37.1963 40.1283 38.8913 39.5803 38.8913 39.5803L68.1993 33.6313V10.5803L38.8913 16.5293Z" fill="#2E2E2E" blush:i="0.0.0.0.8"/></g><g id="Lower" blush:i="0.0.0.1"><path id="Fill 1" fill-rule="evenodd" clip-rule="evenodd" d="M58.4205 35.46C58.4205 35.46 63.6835 31.858 69.3615 32.136C75.0395 32.413 79.3515 34.213 80.9355 42.939C80.9355 42.939 93.7365 45.293 106.477 57.203C119.219 69.113 119.773 69.529 118.111 79.224C116.449 88.918 111.602 100.69 111.602 100.69L109.924 118.912C109.924 118.912 112.271 125.376 115.349 127.453C118.427 129.531 120.378 130.531 118.787 131.993C117.196 133.455 116.811 131.686 113.733 131.993C110.655 132.301 110.347 130.686 110.347 130.686C110.347 130.686 113.964 139.381 120.351 143.151C120.351 143.151 122.505 145.152 120.351 146.075C118.196 146.999 112.194 146.922 109.347 144.998C106.5 143.074 100.651 138.149 98.7285 137.61C96.8045 137.072 97.7285 134.225 97.7285 134.225L100.498 126.53C100.498 126.53 99.7285 125.529 97.5745 124.837C95.4195 124.145 94.2655 121.221 94.4965 120.143C94.7275 119.065 98.5745 113.603 98.6515 109.601C98.6515 109.601 96.7275 104.138 94.1115 99.289C91.4955 94.441 94.8805 82.668 96.8045 79.513C96.8045 79.513 93.8035 79.975 88.1085 80.437C82.4145 80.898 63.0745 82.286 51.7325 76.039C40.3895 69.791 41.5065 48.609 58.4205 35.46Z" fill="#a15122" blush:color="Skin-500" blush:i="0.0.0.1.0"/><path id="Fill 3" fill-rule="evenodd" clip-rule="evenodd" d="M73.7451 51.0899C77.4661 51.9439 81.1421 53.0239 84.7361 54.3339C88.3261 55.6519 91.8641 57.1429 95.2451 58.9569C98.6171 60.7779 101.878 62.8539 104.783 65.3939C107.696 67.9049 110.19 70.9979 111.725 74.5769L111.751 74.6379L111.752 74.7049C111.779 79.0359 111.763 83.3659 111.739 87.6969C111.739 92.0279 111.651 96.3599 111.602 100.691C111.49 96.3609 111.339 92.0309 111.276 87.6999C111.19 83.3709 111.111 79.0409 111.076 74.7099L111.102 74.8379C109.602 71.3899 107.138 68.4249 104.296 65.9469C101.468 63.4349 98.2621 61.3579 94.9351 59.5289C91.5941 57.7209 88.1381 56.1109 84.5851 54.7329C81.0351 53.3569 77.4341 52.0779 73.7451 51.0899" fill="#7A3710" blush:i="0.0.0.1.1"/><path id="Fill 5" fill-rule="evenodd" clip-rule="evenodd" d="M98.6514 109.601C99.2754 110.911 99.7564 112.282 100.178 113.669C100.592 115.061 100.918 116.48 101.147 117.918C101.332 119.36 101.485 120.817 101.399 122.278C101.312 123.732 101.065 125.192 100.498 126.531C100.867 125.127 101.007 123.698 101.014 122.268C101.02 120.837 100.873 119.408 100.653 117.993C100.468 116.57 100.14 115.169 99.8094 113.77C99.4674 112.372 99.0814 110.983 98.6514 109.601" fill="black" blush:i="0.0.0.1.2"/><path id="Fill 7" fill-rule="evenodd" clip-rule="evenodd" d="M109.925 118.912C109.799 120.897 109.691 122.864 109.71 124.831C109.729 126.798 109.87 128.752 110.348 130.685C109.917 129.785 109.654 128.808 109.471 127.824C109.293 126.837 109.231 125.835 109.21 124.836C109.207 123.836 109.257 122.838 109.379 121.848C109.499 120.858 109.658 119.873 109.925 118.912" fill="black" blush:i="0.0.0.1.3"/><path id="Fill 9" fill-rule="evenodd" clip-rule="evenodd" d="M96.4766 79.5606C96.5436 78.9956 96.8056 78.5016 97.1186 78.0596C97.4476 77.6276 97.8486 77.2376 98.3656 77.0056C98.2496 77.2676 98.1026 77.4876 97.9636 77.7116C97.8266 77.9376 97.6706 78.1446 97.5206 78.3566C97.2036 78.7706 96.8886 79.1756 96.4766 79.5606" fill="#7A3710" blush:i="0.0.0.1.4"/><path id="Fill 11" fill-rule="evenodd" clip-rule="evenodd" d="M68.9585 31.0001C68.9585 31.0001 60.2085 32.5821 57.1645 35.2741C54.1195 37.9671 35.7205 50.2761 42.4815 66.6481C49.2435 83.0201 75.6665 82.4651 94.4795 79.8141C94.4795 79.8141 90.4705 95.8061 90.1115 104.768C89.7535 113.73 88.3195 121.259 88.3195 121.259C88.3195 121.259 104.947 122.932 112.099 121.736V111.579C112.099 111.579 115.803 111.818 116.162 110.981C116.162 110.981 119.866 74.5351 119.149 71.5481C118.432 68.5601 101.393 46.8321 80.9355 42.9381L79.5415 36.9051C79.5415 36.9051 79.2575 30.9731 68.9585 31.0001" fill="#72B3E7" blush:i="0.0.0.1.5"/><path id="Fill 13" fill-rule="evenodd" clip-rule="evenodd" d="M73.7451 51.0899C77.4811 51.8889 81.1591 52.9759 84.7631 54.2649C88.3571 55.5769 91.9121 57.0409 95.2981 58.8609C98.6821 60.6739 101.947 62.7579 104.87 65.2949C107.779 67.8269 110.315 70.9149 111.829 74.5339L111.863 74.6129L111.864 74.6989C111.973 80.8449 112.024 86.9909 112.065 93.1379C112.124 99.2839 112.124 105.432 112.099 111.579C111.846 105.437 111.618 99.2929 111.448 93.1499C111.261 87.0059 111.083 80.8609 110.964 74.7159L110.998 74.8809C109.532 71.4399 107.035 68.5189 104.221 66.0339C101.399 63.5339 98.2081 61.4469 94.8861 59.6239C91.5531 57.8119 88.1051 56.1899 84.5621 54.7959C81.0201 53.4009 77.4201 52.1319 73.7451 51.0899" fill="#628DB0" blush:i="0.0.0.1.6"/><g id="Group 17" blush:i="0.0.0.1.7"><path id="Fill 15" fill-rule="evenodd" clip-rule="evenodd" d="M99.6221 127.618C99.6221 127.618 100.042 127.556 100.08 127.692C100.116 127.822 99.8321 128.38 99.8321 128.38C100.416 130.521 102.026 136.594 102.2 139.02C102.232 139.469 102.469 139.87 102.842 140.12L109.273 144.422C109.848 144.806 110.62 144.651 111.002 144.075C112.04 142.512 114.178 139.796 116.418 139.954C116.418 139.954 124.812 144.556 124.812 145.141C124.812 145.725 119.526 148.865 109.902 146.163C109.902 146.163 102.178 140.687 99.6221 139.081C97.0661 137.474 95.3141 136.744 96.5561 133.824C97.7971 130.903 99.6221 127.618 99.6221 127.618" fill="#131313" blush:i="0.0.0.1.7.0"/></g><path id="Fill 18_2" fill-rule="evenodd" clip-rule="evenodd" d="M110.25 130.408L110.689 131.439C110.689 131.439 115.212 134.208 121.459 131.638C121.459 131.638 122.138 131.233 121.595 130.99C121.052 130.746 115.514 127.098 115.065 127.245C114.617 127.392 112.428 130.718 110.25 130.408" fill="#131313" blush:i="0.0.0.1.8"/><path id="Fill 20" fill-rule="evenodd" clip-rule="evenodd" d="M92.7832 121.64C92.7832 121.64 92.1932 123.028 93.2642 123.442C94.3352 123.857 100.379 126.862 100.379 126.862L100.498 126.531C100.121 125.583 99.0602 123.457 98.7922 122.009L92.7832 121.64Z" fill="#131313" blush:i="0.0.0.1.9"/></g><g id="Front Wheelchair" blush:i="0.0.0.2"><path id="Fill 74" fill-rule="evenodd" clip-rule="evenodd" d="M83.8304 90.6573L38.7534 74.3973V54.4953L83.8304 70.7553V90.6573Z" fill="#2E2E2E" blush:i="0.0.0.2.0"/><path id="Fill 76" fill-rule="evenodd" clip-rule="evenodd" d="M38.7542 92.334C37.9262 92.334 37.2542 91.662 37.2542 90.834V10.73H30.1792C29.3512 10.73 28.6792 10.058 28.6792 9.22998C28.6792 8.40098 29.3512 7.72998 30.1792 7.72998H38.7542C39.5822 7.72998 40.2542 8.40098 40.2542 9.22998V90.834C40.2542 91.662 39.5822 92.334 38.7542 92.334" fill="#A1A1A1" blush:i="0.0.0.2.1"/><path id="Fill 78" fill-rule="evenodd" clip-rule="evenodd" d="M31.7234 10.7295H24.5464C23.7184 10.7295 23.0464 10.0575 23.0464 9.22949C23.0464 8.40149 23.7184 7.72949 24.5464 7.72949H31.7234C32.5514 7.72949 33.2234 8.40149 33.2234 9.22949C33.2234 10.0575 32.5514 10.7295 31.7234 10.7295" fill="#2E2E2E" blush:i="0.0.0.2.2"/><path id="Fill 80" fill-rule="evenodd" clip-rule="evenodd" d="M83.8301 128.292V128.292C83.0011 128.292 82.3301 127.62 82.3301 126.792V68.929C82.3301 63.883 80.4841 57.149 71.6921 53.732L38.2861 42.759L39.2221 39.909L72.7031 50.909C83.6991 55.181 85.3301 64.031 85.3301 68.929V126.792C85.3301 127.62 84.6591 128.292 83.8301 128.292" fill="#A1A1A1" blush:i="0.0.0.2.3"/><path id="Fill 82" fill-rule="evenodd" clip-rule="evenodd" d="M74.9337 86.7862L74.8047 85.7942L40.8967 90.2072L70.2127 71.3552L69.6717 70.5142L40.5577 89.2352L60.6377 59.8252L59.8117 59.2612L39.7267 88.6772L46.8767 53.0012L45.8967 52.8042L38.7637 88.3932L31.9117 52.7402L30.9287 52.9302L37.7547 88.4422L18.9787 58.3262L18.1307 58.8552L37.0897 89.2652L8.25273 69.8082L7.69473 70.6372L35.8307 89.6212L3.77973 80.3182L3.49973 81.2792L36.3147 90.8032L2.57373 95.1942L2.70273 96.1862L36.6097 91.7732L7.29373 110.625L7.83473 111.467L36.9497 92.7452L16.8697 122.155L17.6957 122.72L37.7797 93.3042L30.6297 128.979L31.6107 129.177L38.7437 93.5872L45.5957 129.24L46.5787 129.051L39.7517 93.5362L58.5297 123.654L59.3767 123.125L40.4187 92.7172L69.2537 112.172L69.8127 111.344L41.6757 92.3592L73.7287 101.662L74.0077 100.701L41.1937 91.1782L74.9337 86.7862Z" fill="#A1A1A1" blush:i="0.0.0.2.4"/><g id="Group 86" blush:i="0.0.0.2.5"><path id="Fill 84" fill-rule="evenodd" clip-rule="evenodd" d="M39.465 48.9268C17.704 48.9268 0 67.7268 0 90.8338C0 113.942 17.704 132.74 39.465 132.74C61.227 132.74 78.931 113.942 78.931 90.8338C78.931 67.7268 61.227 48.9268 39.465 48.9268M39.465 51.4268C59.848 51.4268 76.431 69.1048 76.431 90.8338C76.431 112.563 59.848 130.24 39.465 130.24C19.082 130.24 2.5 112.563 2.5 90.8338C2.5 69.1048 19.082 51.4268 39.465 51.4268" fill="#2E2E2E" blush:i="0.0.0.2.5.0"/></g><path id="Fill 87" fill-rule="evenodd" clip-rule="evenodd" d="M39.465 51.4268C19.002 51.4268 2.35498 69.1048 2.35498 90.8338C2.35498 112.563 19.002 130.24 39.465 130.24C59.928 130.24 76.576 112.563 76.576 90.8338C76.576 69.1048 59.928 51.4268 39.465 51.4268M39.465 53.7778C58.632 53.7778 74.226 70.4008 74.226 90.8338C74.226 111.267 58.632 127.89 39.465 127.89C20.298 127.89 4.70498 111.267 4.70498 90.8338C4.70498 70.4008 20.298 53.7778 39.465 53.7778" fill="#A1A1A1" blush:i="0.0.0.2.6"/></g></g></g><g id="Female Character/Upper Body" blush:component="Female Character/Upper Body" blush:defaultValue="T Shirt 3" blush:width="106" blush:height="123" transform="translate(82 93) scale(1 1)" blush:i="0.1" blush:value="T Shirt 3" blush:viewBox="28.713457076566115 0.6149999999999949 76.24129930394433 65.80499999999999"><g id="Female Character/Upper Body/T Shirt 3" blush:viewBox="28.713457076566115 0.6149999999999949 76.24129930394433 65.80499999999999" blush:i="0.1.0"><g id="Group 19" blush:i="0.1.0.0"><path id="Fill 1" fill-rule="evenodd" clip-rule="evenodd" d="M72.3704 28.3971C72.3704 28.3971 75.2664 35.5821 76.2214 43.3241C76.2214 43.3241 83.5874 42.0901 87.4504 39.9591C87.4504 39.9591 89.0124 37.0971 90.5834 36.5921C92.1544 36.0871 97.3714 34.7441 97.3714 35.6121C97.3714 36.4801 96.0814 37.2101 96.0814 37.2101C96.0814 37.2101 97.1474 37.5451 98.8304 37.2651C100.513 36.9851 102.533 37.9071 102.533 37.9071C102.533 37.9071 103.823 38.1591 104.496 38.5821C105.169 39.0041 104.945 40.0141 102.252 39.9021C102.252 39.9021 103.037 40.2391 102.757 40.7441C102.476 41.2491 99.8404 41.1921 98.1004 42.0901C96.3614 42.9881 91.3684 42.2581 91.3684 42.2581C91.3684 42.2581 81.6624 50.5051 76.1644 52.4691C70.6664 54.4321 68.9274 50.0561 67.6374 43.1001C66.3474 36.1431 65.1534 25.5871 72.3704 28.3971" fill="#a15122" blush:color="Skin-500" blush:i="0.1.0.0.0"/><path id="Fill 3" fill-rule="evenodd" clip-rule="evenodd" d="M90.6694 36.9362C90.9934 36.5842 91.4974 36.4582 91.9654 36.4252C92.4414 36.3902 92.9194 36.4982 93.3714 36.5732C94.2774 36.7572 95.1844 36.9352 96.0814 37.2082C95.1544 37.1402 94.2364 36.9752 93.3194 36.8172C92.8614 36.7192 92.4254 36.6242 91.9704 36.6172C91.5264 36.6192 91.0494 36.6612 90.6694 36.9362" fill="black" blush:i="0.1.0.0.1"/><path id="Fill 5" fill-rule="evenodd" clip-rule="evenodd" d="M97.8066 38.5817C98.6396 38.2277 99.5316 38.0407 100.427 37.9157C100.878 37.8717 101.331 37.8437 101.784 37.8557C102.238 37.8717 102.689 37.9357 103.126 38.0487C101.327 37.9597 99.5786 38.2637 97.8066 38.5817" fill="black" blush:i="0.1.0.0.2"/><path id="Fill 7" fill-rule="evenodd" clip-rule="evenodd" d="M90.9966 39.3259C91.8456 38.8609 92.8136 38.6089 93.8016 38.5699C94.2956 38.5429 94.7976 38.6029 95.2846 38.7149C95.7536 38.8289 96.2206 38.9659 96.6816 39.1029C97.1426 39.2529 97.5736 39.3879 98.0276 39.4289C98.4826 39.4799 98.9636 39.4709 99.4336 39.4719C99.9056 39.4719 100.379 39.4139 100.877 39.4199C101.378 39.4339 101.869 39.6129 102.253 39.9019C101.355 39.4319 100.431 39.7599 99.4576 39.8569C98.9696 39.9119 98.4876 39.9259 97.9866 39.8999C97.4796 39.8709 96.9856 39.7189 96.5336 39.5809C95.6116 39.2999 94.7256 38.9819 93.7996 38.9529C92.8696 38.9129 91.9186 39.0549 90.9966 39.3259" fill="black" blush:i="0.1.0.0.3"/><g id="Group 11" blush:i="0.1.0.0.4"><path id="Fill 9" fill-rule="evenodd" clip-rule="evenodd" d="M66.9912 58.2477C64.7932 57.9887 63.0382 57.9157 62.7662 58.0277C62.4952 58.1417 61.6582 58.1687 60.8692 58.0847C60.0802 57.9997 57.4042 59.8037 55.4032 60.5567C53.4032 61.3107 53.3502 60.9237 53.3502 60.9237C48.2112 58.2657 40.1012 53.8307 40.1012 53.8307L39.3712 37.2977L43.2282 44.8877L43.6302 50.1477C48.5072 54.8727 65.1212 51.7687 65.1212 51.7687L66.4452 44.8037C66.4452 44.8037 74.2232 32.2167 72.1152 27.5777C70.0072 22.9387 62.2062 15.9817 56.7602 11.9457C56.7602 11.9457 58.0362 3.86868 54.8952 1.71768C51.7542 -0.435325 50.5822 2.94168 50.5822 2.94168C50.5822 2.94168 50.2342 9.86968 47.4022 11.8737C44.5702 13.8787 31.6942 19.9677 30.0572 29.5807C28.4202 39.1927 31.4702 57.7897 32.6012 58.5597C33.7322 59.3287 50.7462 67.2787 55.7972 66.0637C60.8482 64.8497 62.7662 63.3147 62.7662 63.3147L63.4832 62.8907C64.3552 62.3737 65.4152 62.2767 66.3662 62.6327C66.9612 62.8537 67.4452 62.8897 67.5822 62.9407C67.8342 63.0357 69.7762 63.6497 70.8802 62.9267C71.1582 62.7447 70.8252 62.1477 70.3032 62.1247C70.0382 62.1127 70.7422 62.0437 70.8602 61.7237C70.9452 61.4897 70.3862 61.2487 69.9952 61.0227C69.7552 60.8837 70.2522 60.7707 70.4682 60.5567C70.4682 60.5567 69.9132 59.1947 66.9912 58.2477" fill="#a15122" blush:color="Skin-500" blush:i="0.1.0.0.4.0"/></g><path id="Fill 12" fill-rule="evenodd" clip-rule="evenodd" d="M62.9981 59.3288C64.3721 59.7558 65.7191 60.2308 67.0611 60.7148L69.0891 61.4358C69.4271 61.5628 69.7631 61.6938 70.0981 61.8468C70.2651 61.9248 70.4321 62.0028 70.5991 62.1018C70.6831 62.1528 70.7671 62.2058 70.8521 62.2768C70.9301 62.3598 71.0501 62.4158 71.0891 62.6688C71.0611 62.9598 70.9381 62.9988 70.8561 63.0878C70.7651 63.1648 70.6701 63.2168 70.5751 63.2608C70.3841 63.3458 70.1901 63.4008 69.9981 63.4278C69.6131 63.4888 69.2341 63.4758 68.8641 63.4358C68.1261 63.3508 67.4141 63.1418 66.7461 62.8868C65.4681 62.4038 63.9031 62.3908 62.7671 63.3148C63.2461 62.7698 63.9561 62.4618 64.6771 62.3298C65.4091 62.2208 66.1611 62.3118 66.8661 62.5208C67.5531 62.7198 68.2211 62.9268 68.9111 62.9828C69.2521 63.0148 69.5951 63.0168 69.9161 62.9568C70.0791 62.9328 70.2301 62.8818 70.3651 62.8188C70.4311 62.7868 70.4931 62.7488 70.5381 62.7098C70.5881 62.6878 70.6091 62.5868 70.5901 62.6938C70.6321 62.7688 70.4741 62.5768 70.3461 62.5188C70.2071 62.4328 70.0511 62.3538 69.8961 62.2778C69.5821 62.1268 69.2541 61.9908 68.9251 61.8588C68.2681 61.5898 67.5871 61.3768 66.9311 61.0748C65.6081 60.5138 64.2901 59.9448 62.9981 59.3288" fill="black" blush:i="0.1.0.0.5"/><path id="Fill 14" fill-rule="evenodd" clip-rule="evenodd" d="M62.2095 58.3551C63.0465 58.0241 63.9905 58.1511 64.8495 58.3441C65.7275 58.5431 66.5405 58.9051 67.3425 59.2711C68.1375 59.6581 68.9125 60.0901 69.6425 60.5801C70.0175 60.8261 70.3505 61.0651 70.7535 61.2801C70.8525 61.3501 70.9675 61.4561 70.9825 61.6201C70.9955 61.7881 70.8745 61.8951 70.7805 61.9581C70.5755 62.0871 70.3475 62.1151 70.1285 62.1251C70.3375 62.0641 70.5505 61.9851 70.6995 61.8521C70.8685 61.7051 70.8075 61.5661 70.6265 61.4901C70.2345 61.3371 69.8265 61.1071 69.4465 60.9111C68.6745 60.5011 67.9115 60.0911 67.1275 59.7221C66.3445 59.3511 65.5555 58.9871 64.7455 58.7121C63.9345 58.4551 63.0795 58.2311 62.2095 58.3551" fill="black" blush:i="0.1.0.0.6"/><g id="Group 18" blush:i="0.1.0.0.7"><path id="Fill 16" fill-rule="evenodd" clip-rule="evenodd" d="M44.2993 13.6867C44.2993 13.6867 48.4909 17.9142 53.5118 17.9142C58.5328 17.9142 59.5207 13.6867 59.5207 13.6867C59.5207 13.6867 68.9572 18.2565 72.4785 25.4732C75.9998 32.6898 75.639 33.1902 75.639 33.1902C75.639 33.1902 74.3265 36.5362 70.5565 36.8142L67.4715 44.0652C67.4715 44.0652 66.7925 46.6012 67.4715 48.2902C68.1505 49.9812 68.1555 54.5352 54.8955 54.1072C41.6355 53.6782 41.1075 49.2422 41.1075 49.2422C41.1075 49.2422 41.9422 43.1953 39.4972 37.3133C39.4972 37.3133 28.9998 34.5052 28.9998 33.1902C28.9998 33.1902 27.9998 26.9202 33.5789 20.3975C36.0718 17.4829 44.2993 13.6867 44.2993 13.6867Z" fill="#FB8786" blush:i="0.1.0.0.7.0"/></g></g><path id="Path 8" d="M60.955 15.0082C61.1859 15.0521 60.777 20.8253 53.6077 20.9965C46.4385 21.1678 42.8517 14.973 43.0047 15.1377C46.1555 18.5297 48.4753 20.3773 54.3579 20.3773C60.2405 20.3773 60.869 15 60.869 15L60.955 15.0082Z" fill="#D66E6D" blush:i="0.1.0.1"/></g></g><g id="Female Character/Head" blush:component="Female Character/Head" blush:defaultValue="Ponytail 2" blush:width="53" blush:height="71" transform="translate(111 63) scale(1 1)" blush:i="0.2" blush:value="Ponytail 2" blush:viewBox="5.363941018766759 7.809999999999995 35.16756032171581 37.985000000000014"><g id="Female Character/Head/Ponytail 2" blush:viewBox="5.363941018766759 7.809999999999995 35.16756032171581 37.985000000000014" blush:i="0.2.0"><g id="Group 72" blush:i="0.2.0.0"><path id="Fill 1" fill-rule="evenodd" clip-rule="evenodd" d="M20.207 31.8804C20.207 31.8804 21.341 34.1484 23.821 35.6364C26.302 37.1244 29.42 39.3924 30.978 38.8964C32.538 38.4004 36.669 35.2344 37.661 31.6924C38.653 28.1484 39.27 22.2424 38.633 19.3374C37.995 16.4314 34.381 10.3374 27.932 10.3374C21.482 10.3374 15.743 17.1394 17.302 24.6514C17.302 24.6514 15.51 26.8494 17.043 29.1164C18.577 31.3844 20.207 31.8804 20.207 31.8804" fill="#a15122" blush:color="Skin-500" blush:i="0.2.0.0.0"/><path id="Fill 3" fill-rule="evenodd" clip-rule="evenodd" d="M24.0543 27.1324C24.0543 27.1324 26.9013 27.2034 27.6573 27.7524C27.6573 27.7524 27.9343 27.8504 27.8273 27.4864C27.8273 27.4864 28.2363 27.7784 28.2623 27.6194C28.2883 27.4604 28.0843 25.9184 26.4823 25.7064C24.8783 25.4934 23.6733 26.9644 24.0543 27.1324" fill="#20180F" blush:i="0.2.0.0.1"/><path id="Fill 5" fill-rule="evenodd" clip-rule="evenodd" d="M36.527 26.7252C36.527 26.7252 34.721 26.6982 33.99 27.2462C33.99 27.2462 33.721 27.3442 33.824 26.9812C33.824 26.9812 33.429 27.2732 33.404 27.1142C33.378 26.9542 34.113 25.5022 35.665 25.2892C37.217 25.0782 37.626 26.4352 36.527 26.7252" fill="#20180F" blush:i="0.2.0.0.2"/><path id="Fill 7" fill-rule="evenodd" clip-rule="evenodd" d="M31.7968 32.0757C31.7968 32.0757 31.5838 32.2527 31.7968 32.4297C32.0098 32.6067 33.4088 32.1107 33.7288 31.6497C34.0468 31.1887 33.8588 31.1367 33.4028 31.4017C32.9478 31.6677 31.7968 32.0757 31.7968 32.0757" fill="#20180F" blush:i="0.2.0.0.3"/><path id="Fill 9" fill-rule="evenodd" clip-rule="evenodd" d="M28.9263 33.5103C28.9263 33.5103 28.8383 33.3513 29.6003 33.3513C30.3623 33.3513 30.2903 33.4923 31.5303 33.5103C32.7713 33.5283 33.2783 33.5103 32.7943 33.8293C32.3103 34.1483 32.3463 34.1303 32.2573 34.3783C32.1683 34.6263 31.0473 35.0703 30.1633 34.7683C29.2803 34.4673 28.3783 33.6673 28.9263 33.5103" fill="#EE4E2F" blush:i="0.2.0.0.4"/><path id="Fill 11" fill-rule="evenodd" clip-rule="evenodd" d="M23.6063 22.9517C23.7413 22.9097 23.5583 23.1867 24.1723 23.0817C24.7873 22.9747 26.4643 22.7857 27.9763 23.7307C27.9763 23.7307 28.2463 23.5177 28.2643 23.1167C28.2823 22.7407 25.7363 21.4537 23.5703 22.8807C23.4223 22.9777 23.4673 22.9937 23.6063 22.9517" fill="#20180F" blush:i="0.2.0.0.5"/><path id="Fill 13" fill-rule="evenodd" clip-rule="evenodd" d="M36.5272 23.0933C36.5272 23.0933 35.6302 22.1243 34.1182 22.5733C32.6062 23.0223 32.7472 23.7073 32.7952 23.8963C32.8422 24.0853 33.9282 23.1633 35.0622 23.1753C36.1962 23.1873 36.5272 23.4233 36.5272 23.0933" fill="#20180F" blush:i="0.2.0.0.6"/><path id="Fill 15" fill-rule="evenodd" clip-rule="evenodd" d="M24.2467 27.1324C24.2467 27.1324 27.0937 27.2034 27.8497 27.7524C27.8497 27.7524 28.1267 27.8504 28.0197 27.4864C28.0197 27.4864 28.4277 27.7784 28.4547 27.6194C28.4807 27.4604 28.2767 25.9184 26.6737 25.7064C25.0697 25.4934 23.8657 26.9644 24.2467 27.1324" fill="black" blush:i="0.2.0.0.7"/><path id="Fill 17" fill-rule="evenodd" clip-rule="evenodd" d="M36.7193 26.7252C36.7193 26.7252 34.9123 26.6982 34.1813 27.2462C34.1813 27.2462 33.9123 27.3442 34.0163 26.9812C34.0163 26.9812 33.6213 27.2732 33.5953 27.1142C33.5703 26.9542 34.3043 25.5022 35.8573 25.2892C37.4083 25.0782 37.8173 26.4352 36.7193 26.7252" fill="black" blush:i="0.2.0.0.8"/><path id="Fill 19" fill-rule="evenodd" clip-rule="evenodd" d="M31.9892 32.0757C31.9892 32.0757 31.7762 32.2527 31.9892 32.4297C32.2022 32.6067 33.6012 32.1107 33.9202 31.6497C34.2392 31.1887 34.0502 31.1367 33.5952 31.4017C33.1402 31.6677 31.9892 32.0757 31.9892 32.0757" fill="#20180F" blush:i="0.2.0.0.9"/><path id="Fill 21" fill-rule="evenodd" clip-rule="evenodd" d="M29.1187 33.5103C29.1187 33.5103 29.0297 33.3513 29.7917 33.3513C30.5537 33.3513 30.4827 33.4923 31.7227 33.5103C32.9637 33.5283 33.4707 33.5103 32.9857 33.8293C32.5027 34.1483 32.5377 34.1303 32.4497 34.3783C32.3607 34.6263 31.2387 35.0703 30.3557 34.7683C29.4727 34.4673 28.5707 33.6673 29.1187 33.5103" fill="#EE4E2F" blush:i="0.2.0.0.10"/><path id="Fill 23" fill-rule="evenodd" clip-rule="evenodd" d="M23.7978 22.9517C23.9338 22.9097 23.7508 23.1867 24.3648 23.0817C24.9798 22.9747 26.6558 22.7857 28.1678 23.7307C28.1678 23.7307 28.4388 23.5177 28.4568 23.1167C28.4748 22.7407 25.9288 21.4537 23.7618 22.8807C23.6138 22.9777 23.6598 22.9937 23.7978 22.9517" fill="black" blush:i="0.2.0.0.11"/><path id="Fill 25" fill-rule="evenodd" clip-rule="evenodd" d="M36.7197 23.0933C36.7197 23.0933 35.8217 22.1243 34.3097 22.5733C32.7977 23.0223 32.9397 23.7073 32.9867 23.8963C33.0337 24.0853 34.1207 23.1633 35.2547 23.1753C36.3887 23.1873 36.7197 23.4233 36.7197 23.0933" fill="black" blush:i="0.2.0.0.12"/><g id="Group 29" blush:i="0.2.0.0.13"><path id="Fill 27" fill-rule="evenodd" clip-rule="evenodd" d="M19.7185 26.7252L20.6485 26.9052C20.6485 26.9052 20.3455 25.4742 20.3455 24.6522C20.3455 24.6522 21.0975 23.5582 21.0975 23.1882C21.0975 23.1882 21.7795 22.7472 21.9905 22.3482C21.9905 22.3482 24.1295 23.0302 27.5385 22.3482C27.5385 22.3482 27.4205 21.4082 27.3735 20.4202C27.3265 19.4332 27.0685 16.5882 27.5385 17.6462C28.0085 18.7042 28.3145 19.6212 28.1025 22.3482C28.1025 22.3482 29.8425 22.7582 30.7585 22.2242C31.6755 21.6902 31.0875 17.5052 31.0645 17.2232C31.0405 16.9412 32.8985 18.1402 31.8405 22.3482C31.8405 22.3482 34.6845 22.2322 36.2595 22.4542C37.8345 22.6772 39.7385 22.2242 39.7385 22.2242C39.7385 22.2242 40.8415 20.1142 40.0125 17.4122C39.1845 14.7102 37.5395 13.2372 36.7195 13.2372C36.7195 13.2372 34.3645 8.2072 27.2725 8.0052C20.1795 7.8032 18.3065 13.6982 18.3065 13.6982C18.3065 13.6982 17.3555 11.7332 14.3465 11.7022C11.3375 11.6712 6.83151 16.0922 7.35251 24.3522C7.87151 32.6122 13.2935 39.1382 5.49951 40.9292C5.49951 40.9292 8.85451 42.0272 10.1825 38.5612C10.1825 38.5612 10.7015 42.4892 6.65851 45.3192C6.65851 45.3192 7.05051 45.5242 7.71551 45.0052C7.71551 45.0052 7.14751 45.5242 7.32551 45.6212C7.50451 45.7192 10.8135 43.3192 11.2995 42.5882C11.2995 42.5882 11.5275 42.8642 12.2245 42.2642C12.9215 41.6632 18.0745 38.5932 18.0455 30.3622C18.0455 30.3622 16.1845 28.6122 16.4855 26.4982C16.7855 24.3852 19.5165 23.7322 19.7185 26.7252" fill="#110b05" blush:color="Hair-500" blush:i="0.2.0.0.13.0"/></g><path id="Fill 30" fill-rule="evenodd" clip-rule="evenodd" d="M28.6495 14.3287C29.0605 14.8947 29.2705 15.5867 29.3995 16.2707C29.5305 16.9617 29.5565 17.6657 29.5355 18.3637C29.5065 19.0627 29.4155 19.7557 29.2905 20.4407L29.0545 21.4577L28.7495 22.4547C28.8775 21.7707 28.9975 21.0917 29.1005 20.4087C29.1845 19.7247 29.2775 19.0417 29.2865 18.3537C29.3275 17.6687 29.2975 16.9807 29.2115 16.3017C29.1155 15.6267 28.9795 14.9397 28.6495 14.3287" fill="#703312" blush:i="0.2.0.0.14"/><path id="Fill 32" fill-rule="evenodd" clip-rule="evenodd" d="M31.7021 14.0123C32.2521 14.4913 32.6121 15.1533 32.8981 15.8173C33.1901 16.4883 33.3621 17.2003 33.4821 17.9153C33.6011 18.6323 33.6411 19.3573 33.6321 20.0783L33.5691 21.1573C33.5131 21.5143 33.4741 21.8703 33.4031 22.2243L33.2471 20.0903C33.1671 19.3883 33.1151 18.6863 32.9891 17.9953C32.8861 17.3023 32.7331 16.6183 32.5381 15.9473C32.3341 15.2803 32.0871 14.6163 31.7021 14.0123" fill="#703312" blush:i="0.2.0.0.15"/><path id="Fill 34" fill-rule="evenodd" clip-rule="evenodd" d="M35.2749 13.5562C35.8899 14.0532 36.3299 14.7432 36.6519 15.4672C36.9729 16.1982 37.1409 16.9852 37.2379 17.7722C37.3289 18.5632 37.2899 19.3592 37.2129 20.1452L37.0219 21.3132L36.7189 22.4542C36.8499 21.6782 36.9619 20.9052 37.0219 20.1262C37.0569 19.3492 37.0969 18.5682 36.9899 17.7982C36.9159 17.0272 36.7499 16.2642 36.4739 15.5402C36.1909 14.8242 35.8249 14.1182 35.2749 13.5562" fill="#703312" blush:i="0.2.0.0.16"/><path id="Fill 36" fill-rule="evenodd" clip-rule="evenodd" d="M35.7979 13.5562C36.4819 14.0172 37.0509 14.6372 37.5259 15.3212C38.0039 16.0062 38.3449 16.7882 38.5499 17.6052C38.7439 18.4212 38.8179 19.2792 38.6759 20.1062C38.6369 20.5232 38.5079 20.9222 38.4019 21.3212C38.2689 21.7132 38.0849 22.0862 37.9109 22.4542C38.0869 21.6522 38.2799 20.8692 38.2929 20.0712C38.3389 19.2782 38.2559 18.4872 38.0649 17.7252C37.6999 16.1882 36.8749 14.7822 35.7979 13.5562" fill="#703312" blush:i="0.2.0.0.17"/><path id="Fill 38" fill-rule="evenodd" clip-rule="evenodd" d="M31.7021 8.89313C32.4671 9.31313 33.1041 9.91113 33.6461 10.5851C33.9051 10.9331 34.1571 11.2911 34.3311 11.6971C34.5081 12.0961 34.6471 12.5241 34.6471 12.9631C34.2471 12.1961 33.7681 11.5491 33.2531 10.8931C32.7471 10.2341 32.2051 9.60213 31.7021 8.89313" fill="#703312" blush:i="0.2.0.0.18"/><path id="Fill 40" fill-rule="evenodd" clip-rule="evenodd" d="M29.7705 8.30042C30.6695 8.80742 31.4675 9.48142 32.1745 10.2394C32.8505 11.0104 33.4725 11.9224 33.5955 12.9634C33.4415 12.4704 33.2005 12.0234 32.9275 11.5984C32.6545 11.1734 32.3325 10.7794 31.9895 10.4064C31.6605 10.0204 31.2885 9.67142 30.9185 9.32142C30.5445 8.97542 30.1665 8.62942 29.7705 8.30042" fill="#703312" blush:i="0.2.0.0.19"/><path id="Fill 42" fill-rule="evenodd" clip-rule="evenodd" d="M26.5977 8.00537C27.3757 8.67137 27.9987 9.48737 28.5187 10.3644C28.7657 10.8114 29.0047 11.2664 29.1607 11.7594C29.3207 12.2464 29.4447 12.7564 29.4247 13.2724C29.0547 12.3224 28.5847 11.4754 28.0857 10.6144C27.5967 9.75237 27.0697 8.91137 26.5977 8.00537" fill="#703312" blush:i="0.2.0.0.20"/><path id="Fill 44" fill-rule="evenodd" clip-rule="evenodd" d="M24.9126 8.18018C25.9336 8.59818 26.7236 9.44418 27.3306 10.3502C27.6136 10.8232 27.8696 11.3112 28.0536 11.8282C28.2466 12.3412 28.3676 12.8772 28.4566 13.4132C28.1066 12.3832 27.7006 11.3842 27.1206 10.4852C26.8376 10.0322 26.5066 9.61018 26.1416 9.21918C25.7736 8.83318 25.3756 8.46518 24.9126 8.18018" fill="#703312" blush:i="0.2.0.0.21"/><path id="Fill 46" fill-rule="evenodd" clip-rule="evenodd" d="M21.2285 9.78571C22.2455 10.0097 23.1755 10.5287 24.0185 11.1367C24.4265 11.4597 24.8285 11.7947 25.1775 12.1817C25.5385 12.5567 25.8435 12.9787 26.1245 13.4137C25.4185 12.6567 24.6945 11.9367 23.8685 11.3367C23.4695 11.0187 23.0355 10.7497 22.5975 10.4867C22.1575 10.2287 21.7065 9.98371 21.2285 9.78571" fill="#703312" blush:i="0.2.0.0.22"/><path id="Fill 48" fill-rule="evenodd" clip-rule="evenodd" d="M20.2627 10.6392C20.7617 10.6482 21.2457 10.7772 21.7147 10.9362C22.1867 11.0932 22.6317 11.3162 23.0607 11.5652C23.9037 12.0842 24.6707 12.7402 25.2347 13.5562C24.3997 13.0232 23.6227 12.4802 22.8037 11.9932C21.9867 11.5022 21.1557 11.0572 20.2627 10.6392" fill="#703312" blush:i="0.2.0.0.23"/><path id="Fill 50" fill-rule="evenodd" clip-rule="evenodd" d="M18.8945 12.4468L20.2255 13.2118C20.6725 13.4568 21.1175 13.7058 21.5825 13.8988C22.0495 14.1168 22.4975 14.2598 23.0175 14.2228C23.5355 14.2348 24.0655 14.3098 24.5305 14.5398C24.0365 14.3988 23.5225 14.3938 23.0205 14.4158C22.5085 14.4978 21.9445 14.3328 21.4825 14.1278C20.5405 13.6878 19.6715 13.1228 18.8945 12.4468" fill="#703312" blush:i="0.2.0.0.24"/><path id="Fill 52" fill-rule="evenodd" clip-rule="evenodd" d="M17.875 15.2095C18.608 15.7055 19.315 16.1605 20.073 16.5185C20.445 16.7095 20.838 16.8475 21.234 16.9845C21.634 17.1255 22.05 17.1885 22.487 17.2865C21.624 17.5215 20.665 17.3585 19.856 16.9695C19.051 16.5685 18.33 15.9795 17.875 15.2095" fill="#703312" blush:i="0.2.0.0.25"/><path id="Fill 54" fill-rule="evenodd" clip-rule="evenodd" d="M17.5923 15.7369C17.8653 16.1229 18.1753 16.4749 18.4963 16.8079C18.8223 17.1369 19.1673 17.4469 19.5533 17.6959C19.9313 17.9569 20.3523 18.1409 20.7913 18.2689C21.2333 18.3989 21.6973 18.4109 22.1703 18.3919C21.7143 18.5029 21.2243 18.5599 20.7473 18.4569C20.2743 18.3609 19.8223 18.1619 19.4153 17.9039C18.6273 17.3489 17.9823 16.6019 17.5923 15.7369" fill="#703312" blush:i="0.2.0.0.26"/><path id="Fill 56" fill-rule="evenodd" clip-rule="evenodd" d="M16.9238 18.7662C17.3818 19.7592 17.8728 20.6982 18.5278 21.5012C18.8568 21.9012 19.2368 22.2442 19.6548 22.5442C20.0808 22.8402 20.5718 23.0182 21.0978 23.1882C20.5518 23.2252 19.9778 23.1322 19.4648 22.8782C18.9508 22.6282 18.5098 22.2482 18.1428 21.8192C17.7908 21.3762 17.5048 20.8892 17.3058 20.3702C17.1048 19.8542 16.9528 19.3182 16.9238 18.7662" fill="#703312" blush:i="0.2.0.0.27"/><path id="Fill 58" fill-rule="evenodd" clip-rule="evenodd" d="M16.6421 21.4068C16.7431 21.8248 16.9801 22.1848 17.2411 22.5078C17.5071 22.8278 17.8111 23.1188 18.1551 23.3608C18.4801 23.6268 18.8481 23.8368 19.2111 24.0528L20.3451 24.6508C19.9291 24.5418 19.5181 24.4048 19.1231 24.2248C18.7331 24.0388 18.3541 23.8208 18.0031 23.5588C17.6611 23.2908 17.3361 22.9868 17.0871 22.6218C16.8391 22.2628 16.6511 21.8418 16.6421 21.4068" fill="#703312" blush:i="0.2.0.0.28"/><path id="Fill 60" fill-rule="evenodd" clip-rule="evenodd" d="M16.9236 24.5406C16.5326 23.0456 16.4306 21.4836 16.4966 19.9376C16.5416 19.1646 16.6516 18.3946 16.8206 17.6386C16.9886 16.8806 17.2656 16.1506 17.5926 15.4546C17.3506 16.1866 17.1416 16.9246 17.0096 17.6776C16.8816 18.4306 16.7716 19.1876 16.7466 19.9516C16.6956 20.7146 16.7016 21.4796 16.7306 22.2456C16.7656 23.0106 16.8196 23.7766 16.9236 24.5406" fill="#703312" blush:i="0.2.0.0.29"/><path id="Fill 62" fill-rule="evenodd" clip-rule="evenodd" d="M15.7359 12.9634C14.3819 13.4844 13.2679 14.4944 12.4859 15.6784C11.6799 16.8574 11.2399 18.2484 11.0279 19.6504C10.5589 22.4904 11.2009 25.3414 11.9709 28.1104C12.3369 29.5064 12.7239 30.9054 13.0119 32.3344C13.3159 33.7554 13.4889 35.2334 13.3599 36.6984C13.3069 37.0634 13.3149 37.4364 13.2129 37.7914L12.9359 38.8614C12.6399 39.5334 12.3989 40.2404 11.9389 40.8194C11.1459 42.0674 9.9609 42.9644 8.7959 43.8054C9.9149 42.8984 11.0329 41.9444 11.7329 40.6884C12.1589 40.1094 12.3709 39.4184 12.6349 38.7664L12.8689 37.7284C12.9569 37.3844 12.9359 37.0224 12.9769 36.6704C13.1329 33.8174 12.2309 31.0214 11.4889 28.2384C10.7569 25.4674 10.0839 22.4994 10.6499 19.5884C10.9149 18.1504 11.4129 16.7254 12.2869 15.5384C13.1599 14.3654 14.3529 13.4064 15.7359 12.9634" fill="#703312" blush:i="0.2.0.0.30"/><path id="Fill 64" fill-rule="evenodd" clip-rule="evenodd" d="M14.5943 14.0123C13.6483 15.9773 12.9483 18.0683 12.6043 20.2133C12.4443 21.2873 12.3913 22.3793 12.5103 23.4533C12.6333 24.5293 12.8853 25.5953 13.1233 26.6583C13.5843 28.7883 14.0933 30.9323 14.2043 33.1293C14.3653 35.3053 13.9283 37.6103 12.5903 39.3663C13.8443 37.5533 14.2033 35.2923 14.0383 33.1383C13.9013 30.9653 13.3663 28.8403 12.8803 26.7123C12.6553 25.6433 12.4163 24.5743 12.3043 23.4763C12.1963 22.3773 12.2643 21.2703 12.4403 20.1883C12.7973 18.0203 13.5613 15.9353 14.5943 14.0123" fill="#703312" blush:i="0.2.0.0.31"/><path id="Fill 66" fill-rule="evenodd" clip-rule="evenodd" d="M17.5927 14.5396C16.4797 16.0326 15.7857 17.7946 15.4707 19.5966C15.1337 21.4066 15.2477 23.2486 15.5967 25.0646C15.8857 26.8926 16.3947 28.6696 16.8627 30.4786C17.0827 31.3856 17.2847 32.3096 17.3537 33.2496C17.4087 34.1906 17.3267 35.1386 17.0927 36.0406C17.3877 34.1836 17.0387 32.3446 16.4907 30.5786C15.9497 28.8056 15.4367 26.9966 15.1047 25.1496C14.7917 23.3126 14.6637 21.3676 15.0947 19.5216C15.4967 17.6816 16.3147 15.9066 17.5927 14.5396" fill="#703312" blush:i="0.2.0.0.32"/><path id="Fill 68" fill-rule="evenodd" clip-rule="evenodd" d="M25.5299 13.5562C24.9739 14.1402 24.5609 14.8212 24.2189 15.5232C23.8879 16.2342 23.6339 16.9752 23.4479 17.7362C23.2429 18.4932 23.1559 19.2782 23.0539 20.0632C22.9719 20.8512 22.9539 21.6462 22.9109 22.4542C22.8319 22.0592 22.7829 21.6592 22.7189 21.2572C22.7019 20.8542 22.6729 20.4492 22.6709 20.0422C22.6819 19.2302 22.7589 18.4112 22.9639 17.6162C23.1689 16.8252 23.4519 16.0432 23.8829 15.3412C24.3089 14.6462 24.8369 13.9852 25.5299 13.5562" fill="#703312" blush:i="0.2.0.0.33"/><path id="Fill 70" fill-rule="evenodd" clip-rule="evenodd" d="M25.5298 14.5396C25.3518 15.1896 25.1998 15.8436 25.0498 16.4956C24.9058 17.1486 24.7618 17.8026 24.6638 18.4636C24.4378 19.7796 24.3238 21.1116 24.4258 22.4546C24.1158 21.1346 24.2168 19.7526 24.4168 18.4226C24.6578 17.0936 24.9978 15.7796 25.5298 14.5396" fill="#703312" blush:i="0.2.0.0.34"/></g><path id="Fill 28" fill-rule="evenodd" clip-rule="evenodd" d="M18.5637 27.6623C18.5637 27.6623 18.3907 27.4623 18.3967 27.7823C18.4037 28.1023 18.3237 28.2763 18.2307 28.2493C18.1367 28.2233 17.6967 27.4553 18.3567 27.0953C19.0177 26.7353 19.3777 27.4493 19.8517 28.3363C20.3247 29.2233 20.1447 30.4833 19.6847 30.5303C19.2247 30.5773 19.3577 30.2573 19.4037 29.6173C19.4507 28.9763 18.8037 27.7953 18.5637 27.6623" fill="black" blush:i="0.2.0.1"/></g></g><g id="Female Character/Accesories" blush:component="Female Character/Accesories" blush:defaultValue="Glasses 1" blush:width="34" blush:height="36" transform="translate(123 72) scale(1 1)" blush:i="0.3" blush:value="Glasses 1" blush:viewBox="7.995762711864408 15.479999999999997 19.629237288135588 5.940000000000005"><g id="Female Character/Accesories/Glasses 1" blush:viewBox="7.995762711864408 15.479999999999997 19.629237288135588 5.940000000000005" blush:i="0.3.0"><g id="Accesories" blush:i="0.3.0.0"><path id="Rectangle" fill-rule="evenodd" clip-rule="evenodd" d="M13.0981 15.625H18.0981C18.8575 15.625 19.4731 16.2406 19.4731 17V20C19.4731 20.7594 18.8575 21.375 18.0981 21.375H13.0981C12.3388 21.375 11.7231 20.7594 11.7231 20V17C11.7231 16.2406 12.3388 15.625 13.0981 15.625ZM18.0981 16.375H13.0981C12.753 16.375 12.4731 16.6548 12.4731 17V20C12.4731 20.3452 12.753 20.625 13.0981 20.625H18.0981C18.4433 20.625 18.7231 20.3452 18.7231 20V17C18.7231 16.6548 18.4433 16.375 18.0981 16.375Z" fill="#1E2214" blush:i="0.3.0.0.0"/><path id="Rectangle Copy" fill-rule="evenodd" clip-rule="evenodd" d="M22.0981 15.625H26.0981C26.8575 15.625 27.4731 16.2406 27.4731 17V20C27.4731 20.7594 26.8575 21.375 26.0981 21.375H22.0981C21.3388 21.375 20.7231 20.7594 20.7231 20V17C20.7231 16.2406 21.3388 15.625 22.0981 15.625ZM26.0981 16.375H22.0981C21.753 16.375 21.4731 16.6548 21.4731 17V20C21.4731 20.3452 21.753 20.625 22.0981 20.625H26.0981C26.4433 20.625 26.7231 20.3452 26.7231 20V17C26.7231 16.6548 26.4433 16.375 26.0981 16.375Z" fill="#1E2214" blush:i="0.3.0.0.1"/><path id="Path 2" fill-rule="evenodd" clip-rule="evenodd" d="M19.0823 17.9887C19.0823 17.9887 20.4888 17.4275 21.0823 17.9887L20.9952 17.0113H19.0823V17.9887Z" fill="#1E2214" blush:i="0.3.0.0.2"/><path id="Path 3" fill-rule="evenodd" clip-rule="evenodd" d="M12.2395 17.5L8 17.2817V16.7135L12.3993 16.1693L12.2395 17.5Z" fill="#1E2214" blush:i="0.3.0.0.3"/></g></g></g></g></svg>