<svg viewBox="48.75 22.5 198.75 258.75" fill="none" xmlns="http://www.w3.org/2000/svg" xmlns:xlink="http://www.w3.org/1999/xlink" xmlns:blush="http://design.blush" overflow="visible" width="198.75px" height="258.75px"><g id="Master/Spot Illustrations/Teaching" blush:has-customizable-colors="true" blush:viewBox="-36 10.5 310.5 268.50000000000006" blush:i="0"><g id="Background" blush:i="0.0"><g id="Texture Backgrounds" blush:component="Texture Backgrounds" blush:defaultValue="Abstract 2" blush:width="247" blush:height="214" transform="translate(27 11) scale(1 1)" blush:i="0.0.0" blush:value="Abstract 2" blush:viewBox="46.93000000000001 14.950346420323314 153.14 185.3348729792148"><g id="Texture Backgrounds/Abstract 2" blush:viewBox="46.93000000000001 14.950346420323314 153.14 185.3348729792148" blush:i="0.0.0.0"><g id="Group" blush:i="0.0.0.0.0"><path id="Fill 12" fill-rule="evenodd" clip-rule="evenodd" d="M52.4706 127C51.8915 127 51.337 126.664 51.0801 126.091C51.0393 126 50.0545 123.793 49.0514 119.957C48.8353 119.127 49.3205 118.274 50.134 118.054C50.9659 117.828 51.7916 118.328 52.0057 119.156C52.9375 122.714 53.8529 124.778 53.8631 124.797C54.2118 125.579 53.8713 126.504 53.1047 126.859C52.8987 126.956 52.6826 127 52.4706 127" fill="#CDEAFA" blush:i="0.0.0.0.0.0"/><path id="Fill 14" fill-rule="evenodd" clip-rule="evenodd" d="M158.54 18.3021C158.495 18.3021 158.448 18.3001 158.401 18.2962C154.657 17.9387 150.845 17.8577 146.641 18.0928C145.836 18.1402 145.144 17.5141 145.099 16.6965C145.054 15.8769 145.67 15.1798 146.477 15.1344C150.673 14.8993 154.759 14.9744 158.674 15.3457C159.477 15.4227 160.068 16.1455 159.994 16.9592C159.922 17.7274 159.286 18.3021 158.54 18.3021M123.052 22.5817C122.432 22.5817 121.857 22.1788 121.658 21.5488C121.414 20.7687 121.839 19.9353 122.609 19.6885C126.535 18.4245 130.499 17.4035 134.391 16.6511C135.182 16.4911 135.948 17.0243 136.1 17.8281C136.252 18.6319 135.734 19.408 134.941 19.5601C131.162 20.2908 127.31 21.2842 123.494 22.5126C123.346 22.56 123.198 22.5817 123.052 22.5817M101.105 32.2765C100.593 32.2765 100.094 32.002 99.8249 31.5142C99.4351 30.7993 99.6905 29.8967 100.396 29.4998C103.998 27.4775 107.652 25.6388 111.256 24.0392C111.991 23.7113 112.856 24.051 113.182 24.8015C113.507 25.55 113.17 26.4229 112.429 26.7507C108.907 28.3148 105.335 30.11 101.815 32.0908C101.589 32.2172 101.345 32.2765 101.105 32.2765M81.1629 45.7315C80.7322 45.7315 80.3053 45.5399 80.0188 45.1706C79.516 44.5287 79.6212 43.5986 80.2527 43.091C81.656 41.9614 83.1158 40.8377 84.6341 39.7218C86.4117 38.4125 88.2379 37.1229 90.0583 35.8905C90.7307 35.4383 91.639 35.622 92.0853 36.3013C92.5336 36.9807 92.3523 37.901 91.6799 38.3552C89.8907 39.5658 88.0976 40.8298 86.3512 42.1174C84.8661 43.2095 83.4413 44.3076 82.0731 45.4095C81.8022 45.6268 81.4825 45.7315 81.1629 45.7315M64.2199 62.842C63.9081 62.842 63.5943 62.7413 63.3272 62.5319C62.688 62.0303 62.573 61.1001 63.068 60.4543C65.4731 57.3063 68.194 54.2057 71.1565 51.2375C71.7334 50.6628 72.6592 50.6667 73.2245 51.2493C73.7916 51.8299 73.7877 52.768 73.2128 53.3427C70.3418 56.2201 67.7067 59.224 65.3776 62.2673C65.0911 62.6445 64.6584 62.842 64.2199 62.842M52.7868 84.0682C52.6309 84.0682 52.473 84.0425 52.3191 83.9892C51.5531 83.7285 51.1438 82.8872 51.403 82.113C52.6855 78.2679 54.35 74.4544 56.3458 70.7732C56.7356 70.0563 57.6244 69.7916 58.3319 70.1886C59.0394 70.5836 59.2966 71.4841 58.9088 72.201C56.9929 75.7282 55.4005 79.3837 54.1707 83.061C53.966 83.6791 53.3969 84.0682 52.7868 84.0682M49.5612 108C48.7913 108 48.1462 107.39 48.1033 106.604C48.037 105.421 48 104.192 48 102.925C48 100.012 48.1988 97.0749 48.5886 94.1935C48.6997 93.3838 49.4208 92.8012 50.2375 92.9276C51.0366 93.0401 51.596 93.7867 51.4849 94.5983C51.1126 97.3434 50.9236 100.146 50.9236 102.925C50.9236 104.135 50.9606 105.306 51.023 106.434C51.0678 107.252 50.4519 107.953 49.6469 107.998C49.6177 108 49.5904 108 49.5612 108" fill="#CDEAFA" blush:i="0.0.0.0.0.1"/><path id="Fill 16" fill-rule="evenodd" clip-rule="evenodd" d="M177.438 23C177.213 23 176.982 22.9539 176.765 22.8516C176.745 22.8436 174.757 21.9354 171.139 20.953C170.308 20.7284 169.825 19.8984 170.059 19.1004C170.29 18.3025 171.137 17.8253 171.984 18.0599C175.895 19.1185 178.029 20.1009 178.116 20.141C178.893 20.5019 179.217 21.3981 178.847 22.1459C178.578 22.6852 178.018 23 177.438 23" fill="#CDEAFA" blush:i="0.0.0.0.0.2"/><path id="Fill 18" fill-rule="evenodd" clip-rule="evenodd" d="M64.3477 133C63.7703 133 63.2082 132.739 62.9063 132.277C62.8534 132.196 61.5993 130.268 60.1095 126.923C59.7833 126.194 60.2108 125.375 61.0638 125.095C61.9167 124.812 62.8732 125.182 63.1972 125.913C64.5923 129.044 65.7781 130.874 65.7891 130.893C66.2343 131.574 65.9522 132.437 65.1544 132.819C64.8987 132.941 64.621 133 64.3477 133" fill="#CDEAFA" blush:i="0.0.0.0.0.3"/><path id="Fill 20" fill-rule="evenodd" clip-rule="evenodd" d="M166.531 30.0282C166.448 30.0282 166.366 30.0223 166.284 30.0066C162.444 29.3584 158.456 29.0001 154.428 28.9374C153.616 28.9257 152.968 28.2579 152.98 27.4472C152.994 26.6423 153.649 26 154.451 26H154.473C158.648 26.0666 162.789 26.4387 166.774 27.1123C167.575 27.2455 168.116 28.0053 167.979 28.8042C167.859 29.521 167.235 30.0282 166.531 30.0282M130.418 31.8631C129.763 31.8631 129.163 31.4224 128.994 30.7586C128.794 29.9733 129.268 29.1724 130.055 28.9726C134.093 27.9465 138.164 27.175 142.156 26.6795C142.992 26.5836 143.7 27.1515 143.798 27.9544C143.898 28.7612 143.327 29.4955 142.521 29.5934C138.648 30.0732 134.699 30.8213 130.783 31.818C130.661 31.8493 130.538 31.8631 130.418 31.8631M107.743 40.3874C107.201 40.3874 106.681 40.0897 106.422 39.5727C106.061 38.8462 106.357 37.965 107.085 37.6027C110.821 35.7483 114.603 34.0916 118.333 32.6816C119.08 32.3918 119.942 32.7736 120.228 33.5354C120.516 34.2933 120.136 35.1412 119.375 35.4291C115.737 36.8038 112.045 38.4213 108.396 40.2346C108.186 40.3384 107.962 40.3874 107.743 40.3874M87.07 53.028C86.6247 53.028 86.1813 52.8263 85.8909 52.4425C85.4024 51.7943 85.5338 50.8739 86.1832 50.3863C87.7704 49.1937 89.4655 47.9972 91.2155 46.8262C92.9479 45.6728 94.6645 44.58 96.3616 43.5422C97.058 43.1133 97.9625 43.3365 98.3862 44.0278C98.8081 44.721 98.5922 45.6258 97.8997 46.0487C96.2321 47.0651 94.5507 48.1402 92.8498 49.2701C91.1449 50.4078 89.4969 51.573 87.9529 52.7343C87.688 52.932 87.3761 53.028 87.07 53.028M69.9368 70.0649C69.6366 70.0649 69.3345 69.9729 69.0735 69.7869C68.4163 69.309 68.2691 68.3906 68.7459 67.7346C71.0884 64.5132 73.8076 61.3722 76.8309 58.3956C77.4077 57.8297 78.3435 57.8297 78.9124 58.4113C79.4834 58.989 79.4755 59.9191 78.8967 60.489C75.9892 63.352 73.376 66.3697 71.1296 69.4598C70.8412 69.8554 70.3919 70.0649 69.9368 70.0649M59.884 91.9309C59.7761 91.9309 59.6662 91.9192 59.5583 91.8957C58.7637 91.7175 58.2674 90.9322 58.4459 90.1391C59.3523 86.1227 60.7021 82.1709 62.4521 78.3974C62.7954 77.6591 63.6705 77.3458 64.4062 77.6826C65.1438 78.0233 65.4636 78.8967 65.1242 79.633C63.4586 83.2186 62.1794 86.9706 61.3162 90.7854C61.1631 91.4688 60.555 91.9309 59.884 91.9309M59.5053 116C58.8089 116 58.1889 115.503 58.0594 114.796C57.3571 110.942 57 107.055 57 103.242L57.0059 102.455C57.0177 101.65 57.6749 101.008 58.4773 101.008H58.4989C59.3131 101.019 59.9605 101.687 59.9487 102.498L59.9428 103.242C59.9428 106.878 60.2842 110.589 60.9552 114.269C61.1023 115.068 60.5707 115.83 59.7722 115.978C59.6819 115.992 59.5936 116 59.5053 116" fill="#CDEAFA" blush:i="0.0.0.0.0.4"/><path id="Fill 22" fill-rule="evenodd" clip-rule="evenodd" d="M183.585 35C183.348 35 183.108 34.9406 182.888 34.8163C182.871 34.807 181.123 33.8403 177.932 32.6992C177.197 32.4358 176.818 31.6379 177.086 30.9162C177.35 30.1925 178.164 29.8233 178.897 30.0831C182.341 31.3151 184.211 32.356 184.288 32.4005C184.965 32.7809 185.201 33.6288 184.814 34.2968C184.554 34.7458 184.077 35 183.585 35" fill="#CDEAFA" blush:i="0.0.0.0.0.5"/><path id="Fill 24" fill-rule="evenodd" clip-rule="evenodd" d="M75.3517 136C74.7693 136 74.2066 135.733 73.9077 135.263C73.855 135.183 72.6286 133.25 71.1143 129.936C70.7824 129.206 71.1978 128.384 72.0461 128.097C72.8901 127.815 73.8484 128.169 74.1847 128.898C75.6111 132.027 76.7847 133.883 76.7979 133.902C77.2331 134.588 76.943 135.45 76.143 135.824C75.8924 135.945 75.6199 136 75.3517 136" fill="#CDEAFA" blush:i="0.0.0.0.0.6"/><path id="Fill 26" fill-rule="evenodd" clip-rule="evenodd" d="M136.204 40.52C135.52 40.52 134.912 40.0288 134.776 39.3216C134.622 38.5134 135.135 37.7349 135.924 37.5765C139.838 36.796 143.743 36.2671 147.535 36.0017C148.275 35.9641 149.033 36.5603 149.087 37.3824C149.142 38.2004 148.537 38.9096 147.733 38.9651C144.064 39.2226 140.28 39.7356 136.488 40.4923C136.393 40.5101 136.298 40.52 136.204 40.52M170.545 40.8489C170.426 40.8489 170.31 40.835 170.191 40.8053C166.633 39.902 162.886 39.2939 159.049 38.9928C158.247 38.9294 157.646 38.2163 157.706 37.3982C157.769 36.5781 158.449 35.9938 159.273 36.0294C163.271 36.3444 167.179 36.9802 170.895 37.9211C171.676 38.1192 172.152 38.9254 171.956 39.7218C171.793 40.3972 171.198 40.8489 170.545 40.8489M114.183 47.4016C113.61 47.4016 113.068 47.0549 112.836 46.4825C112.527 45.7238 112.883 44.8542 113.627 44.5412C117.304 42.9961 120.997 41.6353 124.598 40.5002C125.375 40.2665 126.186 40.6983 126.423 41.4808C126.66 42.2652 126.229 43.0972 125.461 43.3408C121.941 44.4481 118.334 45.7773 114.739 47.2887C114.556 47.3659 114.37 47.4016 114.183 47.4016M93.705 58.1478C93.2328 58.1478 92.7663 57.914 92.4884 57.4822C92.0414 56.7988 92.2261 55.8777 92.8985 55.4241C95.3103 53.7958 97.9145 52.2309 100.635 50.769C101.444 50.3352 102.248 49.9094 103.049 49.4993C103.766 49.1289 104.645 49.426 105.006 50.1589C105.37 50.8899 105.078 51.7852 104.359 52.1537C103.578 52.5558 102.789 52.9698 101.996 53.3977C99.3585 54.814 96.8379 56.3274 94.5077 57.9002C94.2589 58.0685 93.9791 58.1478 93.705 58.1478M76.9603 74.1334C76.6649 74.1334 76.3676 74.0423 76.1091 73.8521C75.4561 73.3727 75.3084 72.4437 75.7787 71.7781C78.0117 68.6206 80.6509 65.5958 83.6263 62.7929C84.2133 62.2383 85.1403 62.27 85.6864 62.8761C86.2325 63.4783 86.1975 64.4172 85.6048 64.9758C82.7732 67.6421 80.2642 70.5183 78.1439 73.5153C77.8601 73.9175 77.4131 74.1334 76.9603 74.1334M68.1546 95.6357C68.0749 95.6357 67.9933 95.6297 67.9117 95.6139C67.1187 95.4792 66.5823 94.7126 66.7164 93.9044C67.3753 89.8892 68.4753 85.9849 69.9853 82.3025C70.2963 81.5418 71.1514 81.1872 71.8918 81.5022C72.6342 81.8211 72.986 82.6907 72.677 83.4474C71.2524 86.9218 70.2146 90.6043 69.5908 94.3957C69.4722 95.1207 68.8542 95.6357 68.1546 95.6357M68.9514 119C68.2809 119 67.6765 118.527 67.5288 117.831C66.6679 113.828 66.1548 109.823 66.0013 105.93C65.9682 105.108 66.594 104.419 67.3986 104.385C68.2401 104.346 68.8814 104.989 68.9125 105.809C69.0602 109.529 69.5519 113.36 70.3759 117.197C70.5489 117.998 70.0514 118.79 69.2643 118.966C69.1593 118.988 69.0544 119 68.9514 119" fill="#CDEAFA" blush:i="0.0.0.0.0.7"/><path id="Fill 28" fill-rule="evenodd" clip-rule="evenodd" d="M188.53 49C188.219 49 187.906 48.9 187.64 48.6941C187.622 48.6801 185.974 47.4047 182.827 45.8474C182.099 45.4856 181.794 44.59 182.146 43.8444C182.499 43.1007 183.375 42.7908 184.107 43.1487C187.554 44.8539 189.352 46.2553 189.427 46.3132C190.069 46.819 190.19 47.7586 189.697 48.4143C189.407 48.7981 188.973 49 188.53 49" fill="#CDEAFA" blush:i="0.0.0.0.0.8"/><path id="Fill 30" fill-rule="evenodd" clip-rule="evenodd" d="M87.4125 138C86.8766 138 86.3513 137.753 86.0527 137.307C85.9997 137.227 84.7141 135.297 83.132 132.006C82.7825 131.279 83.151 130.433 83.9559 130.119C84.7692 129.802 85.699 130.14 86.0442 130.864C87.5353 133.961 88.7616 135.806 88.7722 135.823C89.2233 136.502 88.984 137.384 88.2342 137.793C87.978 137.933 87.6941 138 87.4125 138" fill="#CDEAFA" blush:i="0.0.0.0.0.9"/><path id="Fill 32" fill-rule="evenodd" clip-rule="evenodd" d="M136.169 51.812C135.503 51.812 134.902 51.3517 134.748 50.6671C134.565 49.8744 135.058 49.0816 135.844 48.9006C139.987 47.9367 144.136 47.2974 148.175 47.0003C148.966 46.9846 149.679 47.5511 149.74 48.3636C149.798 49.176 149.194 49.8842 148.389 49.9432C144.497 50.2284 140.5 50.8461 136.499 51.7727C136.388 51.8002 136.278 51.812 136.169 51.812M172.538 52.4946C172.4 52.4946 172.259 52.475 172.117 52.4297C168.359 51.2887 164.407 50.5019 160.379 50.0907C159.576 50.0081 158.989 49.2862 159.071 48.4757C159.153 47.6652 159.895 47.0613 160.671 47.1557C164.886 47.5865 169.02 48.4108 172.959 49.6068C173.731 49.8409 174.171 50.6632 173.937 51.4442C173.746 52.0835 173.165 52.4946 172.538 52.4946M113.219 60.3456C112.681 60.3456 112.168 60.0486 111.911 59.5332C111.547 58.8053 111.839 57.9181 112.56 57.5522C116.353 55.6264 120.178 53.9366 123.932 52.5241C124.684 52.2448 125.528 52.6304 125.813 53.3936C126.093 54.1549 125.709 55.0067 124.951 55.2919C121.299 56.665 117.571 58.3135 113.874 60.1882C113.661 60.2944 113.439 60.3456 113.219 60.3456M93.1509 74.3676C92.7767 74.3676 92.4064 74.2259 92.1199 73.9387C91.5469 73.3643 91.545 72.4299 92.1141 71.8535C94.9185 68.9992 98.1732 66.3002 101.785 63.8295C102.453 63.3711 103.361 63.5501 103.815 64.2249C104.269 64.8976 104.094 65.8163 103.426 66.2746C99.9682 68.6392 96.8597 71.2142 94.1877 73.9309C93.9032 74.222 93.5251 74.3676 93.1509 74.3676M80.9371 95.4832C80.8143 95.4832 80.6895 95.4674 80.5687 95.436C79.7852 95.2294 79.3175 94.4248 79.5221 93.638C80.5823 89.5227 82.2155 85.5647 84.3769 81.8743C84.7881 81.176 85.6807 80.9379 86.3784 81.3569C87.0742 81.77 87.3041 82.6749 86.8929 83.3772C84.8719 86.8296 83.344 90.5318 82.35 94.3796C82.1785 95.0445 81.586 95.4832 80.9371 95.4832M80.9117 120C80.2471 120 79.643 119.538 79.489 118.851C78.5282 114.582 78.0273 110.351 78 106.271C77.9942 105.457 78.6451 104.792 79.452 104.786H79.4617C80.2647 104.786 80.9176 105.441 80.9234 106.251C80.9487 110.119 81.4243 114.138 82.3403 118.198C82.5196 118.991 82.0265 119.784 81.2372 119.965C81.13 119.988 81.0209 120 80.9117 120" fill="#CDEAFA" blush:i="0.0.0.0.0.10"/><path id="Fill 34" fill-rule="evenodd" clip-rule="evenodd" d="M189.499 61C189.159 61 188.815 60.8893 188.535 60.6659C188.519 60.6526 186.865 59.3372 183.766 57.6783C183.042 57.2907 182.788 56.4183 183.192 55.7272C183.598 55.0381 184.512 54.8014 185.234 55.1793C188.607 56.9853 190.393 58.4152 190.467 58.4763C191.101 58.9841 191.181 59.887 190.647 60.4903C190.351 60.8282 189.927 61 189.499 61" fill="#CDEAFA" blush:i="0.0.0.0.0.11"/></g><g id="Group Copy" blush:i="0.0.0.0.1"><path id="Fill 12_2" fill-rule="evenodd" clip-rule="evenodd" d="M194.529 88C195.108 88 195.663 88.3361 195.92 88.9087C195.961 88.9999 196.945 91.2073 197.949 95.0432C198.165 95.873 197.679 96.7257 196.866 96.9456C196.034 97.1717 195.208 96.6717 194.994 95.844C194.063 92.2861 193.147 90.2219 193.137 90.2032C192.788 89.4211 193.129 88.4958 193.895 88.1411C194.101 88.0436 194.317 88 194.529 88" fill="#CDEAFA" blush:i="0.0.0.0.1.0"/><path id="Fill 14_2" fill-rule="evenodd" clip-rule="evenodd" d="M88.4603 196.698C88.5051 196.698 88.5519 196.7 88.5986 196.704C92.3427 197.061 96.1551 197.142 100.359 196.907C101.164 196.86 101.856 197.486 101.901 198.303C101.946 199.123 101.33 199.82 100.523 199.866C96.3266 200.101 92.2414 200.026 88.3258 199.654C87.5228 199.577 86.9322 198.854 87.0063 198.041C87.0784 197.273 87.7138 196.698 88.4603 196.698M123.948 192.418C124.568 192.418 125.143 192.821 125.342 193.451C125.586 194.231 125.161 195.065 124.391 195.312C120.465 196.575 116.501 197.596 112.609 198.349C111.818 198.509 111.052 197.976 110.9 197.172C110.748 196.368 111.266 195.592 112.059 195.44C115.838 194.709 119.69 193.716 123.506 192.487C123.654 192.44 123.802 192.418 123.948 192.418M145.895 182.724C146.407 182.724 146.906 182.998 147.175 183.486C147.565 184.201 147.31 185.103 146.604 185.5C143.002 187.523 139.348 189.361 135.744 190.961C135.009 191.289 134.144 190.949 133.818 190.199C133.493 189.45 133.83 188.577 134.571 188.249C138.093 186.685 141.665 184.89 145.185 182.909C145.411 182.783 145.655 182.724 145.895 182.724M165.837 169.269C166.268 169.269 166.695 169.46 166.981 169.829C167.484 170.471 167.379 171.401 166.747 171.909C165.344 173.039 163.884 174.162 162.366 175.278C160.588 176.588 158.762 177.877 156.942 179.109C156.269 179.562 155.361 179.378 154.915 178.699C154.466 178.019 154.648 177.099 155.32 176.645C157.109 175.434 158.902 174.17 160.649 172.883C162.134 171.79 163.559 170.692 164.927 169.59C165.198 169.373 165.517 169.269 165.837 169.269M182.78 152.158C183.092 152.158 183.406 152.259 183.673 152.468C184.312 152.97 184.427 153.9 183.932 154.546C181.527 157.694 178.806 160.794 175.843 163.763C175.267 164.337 174.341 164.333 173.776 163.751C173.208 163.17 173.212 162.232 173.787 161.657C176.658 158.78 179.293 155.776 181.622 152.733C181.909 152.356 182.342 152.158 182.78 152.158M194.213 130.932C194.369 130.932 194.527 130.957 194.681 131.011C195.447 131.271 195.856 132.113 195.597 132.887C194.315 136.732 192.65 140.546 190.654 144.227C190.264 144.944 189.376 145.208 188.668 144.811C187.961 144.416 187.703 143.516 188.091 142.799C190.007 139.272 191.599 135.616 192.829 131.939C193.034 131.321 193.603 130.932 194.213 130.932M197.439 107C198.209 107 198.854 107.61 198.897 108.396C198.963 109.579 199 110.808 199 112.075C199 114.988 198.801 117.925 198.411 120.807C198.3 121.616 197.579 122.199 196.763 122.072C195.963 121.96 195.404 121.213 195.515 120.402C195.887 117.657 196.076 114.854 196.076 112.075C196.076 110.865 196.039 109.694 195.977 108.566C195.932 107.748 196.548 107.047 197.353 107.002C197.382 107 197.41 107 197.439 107" fill="#CDEAFA" blush:i="0.0.0.0.1.1"/><path id="Fill 16_2" fill-rule="evenodd" clip-rule="evenodd" d="M69.5623 192C69.7871 192 70.0181 192.046 70.2346 192.148C70.2554 192.156 72.2433 193.065 75.861 194.047C76.6916 194.272 77.1745 195.102 76.9414 195.9C76.7103 196.698 75.8631 197.175 75.0159 196.94C71.1047 195.882 68.9711 194.899 68.8837 194.859C68.1073 194.498 67.7825 193.602 68.1531 192.854C68.4216 192.315 68.9815 192 69.5623 192" fill="#CDEAFA" blush:i="0.0.0.0.1.2"/><path id="Fill 18_2" fill-rule="evenodd" clip-rule="evenodd" d="M182.652 82C183.23 82 183.792 82.2606 184.094 82.7232C184.147 82.8044 185.401 84.7325 186.891 88.0767C187.217 88.8057 186.789 89.6252 185.936 89.9047C185.083 90.1879 184.127 89.8178 183.803 89.087C182.408 85.9561 181.222 84.1263 181.211 84.1074C180.766 83.4257 181.048 82.5627 181.846 82.1813C182.101 82.0585 182.379 82 182.652 82" fill="#CDEAFA" blush:i="0.0.0.0.1.3"/><path id="Fill 20_2" fill-rule="evenodd" clip-rule="evenodd" d="M80.4692 184.972C80.5516 184.972 80.634 184.978 80.7164 184.993C84.5558 185.642 88.5443 186 92.5721 186.063C93.3844 186.074 94.0318 186.742 94.02 187.553C94.0063 188.358 93.351 189 92.5486 189H92.527C88.3521 188.933 84.2105 188.561 80.2259 187.888C79.4254 187.755 78.884 186.995 79.0213 186.196C79.141 185.479 79.7649 184.972 80.4692 184.972M116.582 183.137C117.237 183.137 117.837 183.578 118.006 184.241C118.206 185.027 117.732 185.828 116.945 186.027C112.907 187.053 108.836 187.825 104.844 188.32C104.008 188.416 103.3 187.849 103.202 187.046C103.102 186.239 103.673 185.504 104.479 185.407C108.352 184.927 112.301 184.179 116.217 183.182C116.339 183.151 116.462 183.137 116.582 183.137M139.257 174.613C139.799 174.613 140.319 174.91 140.578 175.427C140.939 176.154 140.643 177.035 139.915 177.397C136.179 179.252 132.397 180.908 128.667 182.318C127.92 182.608 127.058 182.226 126.772 181.465C126.484 180.707 126.864 179.859 127.625 179.571C131.263 178.196 134.955 176.579 138.604 174.765C138.814 174.662 139.038 174.613 139.257 174.613M159.93 161.972C160.375 161.972 160.819 162.174 161.109 162.558C161.598 163.206 161.466 164.126 160.817 164.614C159.23 165.806 157.535 167.003 155.784 168.174C154.052 169.327 152.335 170.42 150.638 171.458C149.942 171.887 149.038 171.663 148.614 170.972C148.192 170.279 148.408 169.374 149.1 168.951C150.768 167.935 152.449 166.86 154.15 165.73C155.855 164.592 157.503 163.427 159.047 162.266C159.312 162.068 159.624 161.972 159.93 161.972M177.063 144.935C177.363 144.935 177.666 145.027 177.926 145.213C178.584 145.691 178.731 146.609 178.254 147.265C175.912 150.487 173.192 153.628 170.169 156.604C169.592 157.17 168.657 157.17 168.088 156.589C167.517 156.011 167.524 155.081 168.103 154.511C171.011 151.648 173.624 148.63 175.87 145.54C176.159 145.145 176.608 144.935 177.063 144.935M187.116 123.069C187.224 123.069 187.334 123.081 187.442 123.104C188.236 123.283 188.733 124.068 188.554 124.861C187.648 128.877 186.298 132.829 184.548 136.603C184.205 137.341 183.33 137.654 182.594 137.317C181.856 136.977 181.536 136.103 181.876 135.367C183.541 131.781 184.821 128.029 185.684 124.215C185.837 123.531 186.445 123.069 187.116 123.069M187.495 99C188.191 99 188.811 99.4974 188.941 100.204C189.643 104.058 190 107.945 190 111.758L189.994 112.545C189.982 113.35 189.325 113.992 188.523 113.992H188.501C187.687 113.981 187.039 113.313 187.051 112.502L187.057 111.758C187.057 108.122 186.716 104.411 186.045 100.731C185.898 99.9321 186.429 99.1704 187.228 99.0215C187.318 99.0078 187.406 99 187.495 99" fill="#CDEAFA" blush:i="0.0.0.0.1.4"/><path id="Fill 22_2" fill-rule="evenodd" clip-rule="evenodd" d="M63.4148 180C63.6523 180 63.8917 180.059 64.1123 180.184C64.1292 180.193 65.8766 181.16 69.0678 182.301C69.8029 182.564 70.1818 183.362 69.9141 184.084C69.6502 184.807 68.8359 185.177 68.1027 184.917C64.6589 183.685 62.789 182.644 62.7118 182.599C62.0351 182.219 61.7994 181.371 62.1859 180.703C62.446 180.254 62.9229 180 63.4148 180" fill="#CDEAFA" blush:i="0.0.0.0.1.5"/><path id="Fill 24_2" fill-rule="evenodd" clip-rule="evenodd" d="M171.648 79C172.231 79 172.793 79.2665 173.092 79.7372C173.145 79.8166 174.371 81.7504 175.886 85.064C176.218 85.7937 175.802 86.616 174.954 86.9033C174.11 87.1849 173.152 86.8315 172.815 86.1018C171.389 82.9734 170.215 81.1171 170.202 81.0982C169.767 80.412 170.057 79.5501 170.857 79.1758C171.108 79.0548 171.38 79 171.648 79" fill="#CDEAFA" blush:i="0.0.0.0.1.6"/><path id="Fill 26_2" fill-rule="evenodd" clip-rule="evenodd" d="M110.796 174.48C111.48 174.48 112.088 174.971 112.224 175.678C112.378 176.487 111.865 177.265 111.076 177.424C107.162 178.204 103.257 178.733 99.4655 178.998C98.725 179.036 97.9671 178.44 97.9127 177.618C97.8583 176.8 98.4627 176.09 99.2673 176.035C102.936 175.777 106.72 175.264 110.512 174.508C110.607 174.49 110.702 174.48 110.796 174.48M76.4551 174.151C76.5737 174.151 76.6903 174.165 76.8088 174.195C80.3673 175.098 84.1142 175.706 87.9506 176.007C88.7532 176.071 89.3538 176.784 89.2935 177.602C89.2313 178.422 88.5511 179.006 87.7271 178.971C83.7294 178.656 79.8212 178.02 76.1053 177.079C75.324 176.881 74.8479 176.075 75.0442 175.278C75.2074 174.603 75.8021 174.151 76.4551 174.151M132.817 167.598C133.39 167.598 133.932 167.945 134.164 168.518C134.473 169.276 134.117 170.146 133.373 170.459C129.696 172.004 126.003 173.365 122.402 174.5C121.625 174.734 120.814 174.302 120.577 173.519C120.34 172.735 120.771 171.903 121.539 171.659C125.059 170.552 128.666 169.223 132.261 167.711C132.444 167.634 132.63 167.598 132.817 167.598M153.295 156.852C153.767 156.852 154.234 157.086 154.512 157.518C154.959 158.201 154.774 159.122 154.102 159.576C151.69 161.204 149.085 162.769 146.365 164.231C145.556 164.665 144.752 165.091 143.951 165.501C143.234 165.871 142.355 165.574 141.994 164.841C141.63 164.11 141.922 163.215 142.641 162.846C143.422 162.444 144.211 162.03 145.004 161.602C147.641 160.186 150.162 158.673 152.492 157.1C152.741 156.931 153.021 156.852 153.295 156.852M170.04 140.867C170.335 140.867 170.632 140.958 170.891 141.148C171.544 141.627 171.692 142.556 171.221 143.222C168.988 146.379 166.349 149.404 163.374 152.207C162.787 152.762 161.86 152.73 161.314 152.124C160.768 151.522 160.802 150.583 161.395 150.024C164.227 147.358 166.736 144.482 168.856 141.485C169.14 141.083 169.587 140.867 170.04 140.867M178.845 119.364C178.925 119.364 179.007 119.37 179.088 119.386C179.881 119.521 180.418 120.287 180.284 121.096C179.625 125.111 178.525 129.015 177.015 132.698C176.704 133.458 175.849 133.813 175.108 133.498C174.366 133.179 174.014 132.309 174.323 131.553C175.748 128.078 176.785 124.396 177.409 120.604C177.528 119.879 178.146 119.364 178.845 119.364M178.049 96C178.719 96 179.324 96.4734 179.471 97.1687C180.332 101.172 180.845 105.177 180.999 109.07C181.032 109.892 180.406 110.581 179.601 110.615C178.76 110.654 178.119 110.011 178.087 109.191C177.94 105.471 177.448 101.64 176.624 97.8026C176.451 97.0023 176.949 96.21 177.736 96.0337C177.841 96.0119 177.946 96 178.049 96" fill="#CDEAFA" blush:i="0.0.0.0.1.7"/><path id="Fill 28_2" fill-rule="evenodd" clip-rule="evenodd" d="M58.4696 166C58.7808 166 59.0939 166.1 59.3601 166.306C59.3777 166.32 61.0256 167.595 64.1725 169.153C64.9006 169.514 65.2059 170.41 64.8536 171.156C64.5013 171.899 63.6246 172.209 62.8926 171.851C59.4462 170.146 57.6477 168.745 57.5733 168.687C56.9314 168.181 56.81 167.241 57.3032 166.586C57.5929 166.202 58.0273 166 58.4696 166" fill="#CDEAFA" blush:i="0.0.0.0.1.8"/><path id="Fill 30_2" fill-rule="evenodd" clip-rule="evenodd" d="M159.588 77C160.123 77 160.649 77.2468 160.947 77.6926C161 77.7729 162.286 79.7034 163.868 82.9941C164.218 83.7211 163.849 84.5668 163.044 84.8805C162.231 85.1981 161.301 84.8595 160.956 84.1363C159.465 81.0388 158.238 79.1945 158.228 79.1772C157.777 78.4981 158.016 77.6161 158.766 77.2066C159.022 77.067 159.306 77 159.588 77" fill="#CDEAFA" blush:i="0.0.0.0.1.9"/><path id="Fill 32_2" fill-rule="evenodd" clip-rule="evenodd" d="M110.831 163.188C111.497 163.188 112.098 163.648 112.252 164.333C112.435 165.126 111.942 165.918 111.156 166.099C107.013 167.063 102.864 167.703 98.8255 168C98.0342 168.015 97.3209 167.449 97.2605 166.636C97.202 165.824 97.8062 165.116 98.6111 165.057C102.503 164.772 106.5 164.154 110.501 163.227C110.612 163.2 110.722 163.188 110.831 163.188M74.4621 162.505C74.6005 162.505 74.7408 162.525 74.8831 162.57C78.6406 163.711 82.593 164.498 86.6214 164.909C87.4243 164.992 88.011 165.714 87.9291 166.524C87.8472 167.335 87.1047 167.939 86.329 167.844C82.1135 167.413 77.9799 166.589 74.0411 165.393C73.2694 165.159 72.8289 164.337 73.0628 163.556C73.2538 162.917 73.8346 162.505 74.4621 162.505M133.781 154.654C134.319 154.654 134.832 154.951 135.089 155.467C135.453 156.195 135.161 157.082 134.44 157.448C130.647 159.374 126.822 161.063 123.068 162.476C122.316 162.755 121.472 162.37 121.187 161.606C120.907 160.845 121.291 159.993 122.049 159.708C125.701 158.335 129.429 156.686 133.126 154.812C133.339 154.706 133.561 154.654 133.781 154.654M153.849 140.632C154.223 140.632 154.594 140.774 154.88 141.061C155.453 141.636 155.455 142.57 154.886 143.146C152.081 146.001 148.827 148.7 145.215 151.171C144.547 151.629 143.639 151.45 143.185 150.775C142.731 150.102 142.906 149.184 143.574 148.725C147.032 146.361 150.14 143.786 152.812 141.069C153.097 140.778 153.475 140.632 153.849 140.632M166.063 119.517C166.186 119.517 166.31 119.533 166.431 119.564C167.215 119.771 167.682 120.575 167.478 121.362C166.418 125.477 164.784 129.435 162.623 133.126C162.212 133.824 161.319 134.062 160.622 133.643C159.926 133.23 159.696 132.325 160.107 131.623C162.128 128.17 163.656 124.468 164.65 120.62C164.821 119.956 165.414 119.517 166.063 119.517M166.088 95C166.753 95 167.357 95.4623 167.511 96.1488C168.472 100.418 168.973 104.649 169 108.729C169.006 109.543 168.355 110.208 167.548 110.214H167.538C166.735 110.214 166.082 109.559 166.077 108.749C166.051 104.881 165.576 100.862 164.66 96.8019C164.48 96.0092 164.974 95.2164 165.763 95.0354C165.87 95.0118 165.979 95 166.088 95" fill="#CDEAFA" blush:i="0.0.0.0.1.10"/><path id="Fill 34_2" fill-rule="evenodd" clip-rule="evenodd" d="M57.5012 154C57.8411 154 58.1851 154.111 58.465 154.334C58.481 154.347 60.1348 155.663 63.2343 157.322C63.9581 157.709 64.2121 158.582 63.8082 159.273C63.4022 159.962 62.4884 160.199 61.7665 159.821C58.393 158.015 56.6073 156.585 56.5333 156.524C55.8994 156.016 55.8194 155.113 56.3534 154.51C56.6493 154.172 57.0732 154 57.5012 154" fill="#CDEAFA" blush:i="0.0.0.0.1.11"/></g></g></g><g id="Board" blush:i="0.0.1"><path id="Fill 1" fill-rule="evenodd" clip-rule="evenodd" d="M236.181 56.2524C236.181 56.2524 245.807 55.2455 243.158 78.3926C240.507 101.538 234.349 128.099 245 141L169.733 133.562C169.733 133.562 164.686 98.1819 169.119 78.7714C174.884 53.529 163 53 163 53L236.181 56.2524Z" fill="#D0C5BA" blush:i="0.0.1.0"/><path id="Fill 13" fill-rule="evenodd" clip-rule="evenodd" d="M220.756 166.999L140.156 164.056C139.512 164.034 139 163.522 139 162.898V159.161C139 158.502 139.567 157.976 140.246 158.001L220.846 160.944C221.49 160.966 222 161.478 222 162.102V165.841C222 166.498 221.435 167.024 220.756 166.999" fill="#EABD91" blush:i="0.0.1.1"/><path id="Fill 14" fill-rule="evenodd" clip-rule="evenodd" d="M190.464 263C190.331 263 190.195 262.989 190.059 262.967C188.718 262.753 187.811 261.52 188.034 260.217L192.332 234.96L195.079 162.305C195.128 160.985 196.303 159.943 197.627 160.002C198.986 160.05 200.048 161.162 199.998 162.481L197.212 235.591L192.889 260.999C192.689 262.169 191.647 263 190.464 263" fill="#EABD91" blush:i="0.0.1.2"/><path id="Fill 15" fill-rule="evenodd" clip-rule="evenodd" d="M207.991 268C207.231 268 206.502 267.574 206.163 266.852L192.949 238.708L172.626 265.688C171.967 266.562 170.708 266.748 169.815 266.103C168.923 265.454 168.733 264.221 169.394 263.344L193.756 231L209.816 265.205C210.279 266.193 209.838 267.364 208.829 267.82C208.559 267.942 208.272 268 207.991 268" fill="#EABD91" blush:i="0.0.1.3"/><path id="Fill 16" fill-rule="evenodd" clip-rule="evenodd" d="M160.79 62L143 158.124L218.125 162L236 64.5813L160.79 62Z" fill="#FFF6ED" blush:i="0.0.1.4"/><path id="Fill 17" fill-rule="evenodd" clip-rule="evenodd" d="M235.971 66L161 63.7099L161.029 63L236 65.2901L235.971 66Z" fill="#9C9B9A" blush:i="0.0.1.5"/><path id="Fill 18" fill-rule="evenodd" clip-rule="evenodd" d="M237 56.2953C237 56.2953 230.679 60.5979 235.598 66L160.996 63.388C160.996 63.388 157.356 57.4872 163.993 53L237 56.2953Z" fill="#FFF6ED" blush:i="0.0.1.6"/><path id="Fill 19" fill-rule="evenodd" clip-rule="evenodd" d="M211.399 141C211.387 141 211.374 141 211.363 140.998L156.563 137.632C156.393 137.624 156.233 137.539 156.127 137.403C156.022 137.268 155.978 137.092 156.01 136.924L166.298 81.4921C166.359 81.165 166.663 80.9517 166.998 81.0094C167.325 81.0704 167.54 81.3847 167.48 81.7102L157.316 136.475L211.436 139.799C211.766 139.82 212.02 140.104 211.999 140.436C211.98 140.755 211.715 141 211.399 141" fill="#9C9B9A" blush:i="0.0.1.7"/><path id="Fill 20" fill-rule="evenodd" clip-rule="evenodd" d="M179.285 131C179.238 131 179.189 130.995 179.142 130.983C178.857 130.918 178.661 130.669 178.674 130.389L180.627 90.3394L164.21 122.03C164.092 122.257 163.828 122.383 163.571 122.349C163.308 122.312 163.101 122.117 163.059 121.867L161.008 109.861C160.954 109.542 161.181 109.244 161.513 109.191C161.857 109.144 162.161 109.357 162.214 109.673L163.959 119.883L180.826 87.3241C180.955 87.0767 181.247 86.9538 181.527 87.016C181.807 87.086 181.998 87.3334 181.985 87.6088L180.045 127.406L192.693 100.786C192.797 100.566 193.022 100.412 193.288 100.445C193.541 100.461 193.759 100.624 193.834 100.854L200.507 121.417L214.888 101.656C215.079 101.389 215.459 101.323 215.738 101.509C216.015 101.693 216.083 102.055 215.891 102.32L200.794 123.065C200.662 123.248 200.448 123.356 200.199 123.309C199.969 123.275 199.778 123.119 199.708 122.906L193.141 102.667L179.843 130.658C179.74 130.869 179.522 131 179.285 131" fill="#9C9B9A" blush:i="0.0.1.8"/></g></g><g id="Master/Female Character/Standing" blush:has-customizable-colors="true" blush:component="Master/Female Character/Standing" blush:width="271" blush:height="255" transform="translate(-35 23) scale(1 1)" blush:i="0.1" blush:value="Standing" blush:viewBox="85.36500000000001 44.76063829787233 107.04499999999994 210.23936170212764"><g id="Master/Female Character/Standing" blush:has-customizable-colors="true" blush:viewBox="85.36500000000001 44.76063829787233 107.04499999999994 210.23936170212764" blush:i="0.1.0"><g id="Female Character Standing/Lower Body" blush:component="Female Character Standing/Lower Body" blush:defaultValue="Jeans 3" blush:width="56" blush:height="137" transform="translate(114 118) scale(1 1)" blush:i="0.1.0.0" blush:value="Jeans 1" blush:viewBox="-0.13725490196078738 2.0549999999999926 55.58823529411764 134.94499999999996"><g id="Female Character Standing/Lower Body/Jeans 1" blush:viewBox="-0.13725490196078738 2.0549999999999926 55.58823529411764 134.94499999999996" blush:i="0.1.0.0.0"><g id="Group" blush:i="0.1.0.0.0.0"><g id="Group 38" blush:i="0.1.0.0.0.0.0"><path id="Fill 1" fill-rule="evenodd" clip-rule="evenodd" d="M29.0928 89.464C29.4708 97.212 27.2028 108.834 24.2738 110.346C24.2738 110.346 22.7618 88.33 23.0458 85.779C23.3288 83.228 23.0098 78.315 23.0098 78.315C23.0098 78.315 28.6198 66.787 29.7548 60.268L32.6828 68.582C32.6828 68.582 28.7148 81.716 29.0928 89.464M53.1878 70.283C55.2658 66.125 54.9348 63.669 54.9348 63.669C51.2028 32.016 36.9358 10.094 36.9358 10.094C36.9358 10.094 33.1558 3.291 24.5568 3.291C15.9588 3.291 16.5258 10.756 16.5258 10.756C14.1638 13.59 6.36777 20.299 3.01377 31.543C0.0667746 41.422 5.80077 66.787 5.94377 69.838C6.08477 72.89 6.58077 92.086 11.5418 101.653C16.5028 111.22 17.9438 120.361 18.2268 122.818C18.5098 125.276 16.7148 129.102 17.8008 129.858C18.8878 130.613 24.6988 134.96 25.5498 135.196C26.3998 135.433 31.8328 136.235 33.2028 136.377C34.5728 136.52 34.5258 134.772 33.2978 134.063C32.0698 133.354 29.9898 132.456 28.8098 129.811C27.6288 127.165 26.4938 122.582 25.7858 121.024C25.0768 119.464 24.3678 115.968 24.3678 115.968C25.5028 116.724 29.6598 124.708 29.6128 125.228C29.5658 125.747 38.7308 126.739 38.7308 126.739C39.0618 124.803 34.1958 122.96 34.1958 122.96C34.5258 120.598 32.4938 112.52 32.4938 112.52C32.4938 112.52 35.6128 103.354 38.0698 99.669C40.5258 95.984 51.1088 74.441 53.1878 70.283" fill="#ffc280" blush:color="Skin-500" blush:i="0.1.0.0.0.0.0.0"/><path id="Fill 3" fill-rule="evenodd" clip-rule="evenodd" d="M18.0149 121.298C18.0149 121.298 17.5319 124.991 17.1539 126.504C16.7759 128.016 16.1149 128.487 17.1539 129.669C18.1929 130.85 18.4299 132.882 18.4299 132.882H19.1379L18.7129 130.898C18.7129 130.898 21.5429 132.598 23.0099 134.157C24.4769 135.716 31.9409 136.861 33.7839 136.591C35.6259 136.32 36.3349 135.243 30.2409 131.512C30.2409 131.512 26.2719 132.361 24.4299 134.016C24.4299 134.016 20.2239 130.378 18.9959 129.716C18.9959 129.716 17.6269 127.293 18.2409 123.851C18.2409 123.851 18.7339 122.753 18.0149 121.298" fill="#FF1E5F" blush:i="0.1.0.0.0.0.0.1"/><path id="Fill 5" fill-rule="evenodd" clip-rule="evenodd" d="M24.2876 115.59C24.2876 115.59 28.6816 121.165 29.8626 124.708C29.8626 124.708 33.8166 122.69 35.0876 123.341C35.0876 123.341 39.1226 125.181 39.1226 126.22C39.1226 127.26 37.9886 127.024 29.3426 125.747C29.3426 125.747 26.8726 119.575 24.7776 117.772L24.2876 115.59Z" fill="#FF1E5F" blush:i="0.1.0.0.0.0.0.2"/><g id="Group 9" blush:i="0.1.0.0.0.0.0.3"><path id="Fill 7" fill-rule="evenodd" clip-rule="evenodd" d="M15.5932 8.7472C15.5932 8.7472 14.8782 10.0232 15.2482 11.5822C15.2482 11.5822 0.984154 23.0672 0.193154 37.3202C-0.596846 51.5742 4.25615 67.0182 3.68915 72.2412C3.12215 77.4642 5.76815 89.9362 13.2332 113.747C13.2332 113.747 16.8232 116.016 24.2872 114.504C24.2872 114.504 25.2332 85.1172 24.2872 77.3692C24.2872 77.3692 28.6542 68.5702 29.5892 62.6302L31.7052 67.6382C31.7052 67.6382 27.6262 78.4092 27.8462 85.3072C28.0672 92.2042 25.0442 100.235 25.0442 100.235C25.0442 100.235 31.1852 104.96 37.2332 105.149C37.2332 105.149 52.2672 77.4642 54.9542 67.9212C57.6422 58.3782 48.2872 21.5272 38.8392 12.0782C38.8392 12.0782 38.3202 8.6722 38.3362 8.4832C38.3522 8.2952 37.9182 8.0042 37.6522 8.0012C37.3862 7.9972 36.4732 4.0352 26.8962 2.7242C26.8962 2.7242 17.4102 0.4242 15.5932 8.7472" fill="#28445C" blush:i="0.1.0.0.0.0.0.3.0"/></g><path id="Fill 10" fill-rule="evenodd" clip-rule="evenodd" d="M16.209 12.2677C17.105 12.5727 17.998 12.8657 18.913 13.0837C19.817 13.3337 20.732 13.5387 21.652 13.7077C23.492 14.0387 25.347 14.2517 27.205 14.2747C29.066 14.3407 30.917 14.1037 32.738 13.7467L34.099 13.4277L35.422 12.9747L36.091 12.7567L36.731 12.4667C37.157 12.2697 37.589 12.0807 38.027 11.8947C36.456 12.9337 34.739 13.8367 32.877 14.3067C31.033 14.8097 29.11 15.0747 27.195 15.0237C25.282 14.9817 23.375 14.7427 21.529 14.2697C19.686 13.7977 17.876 13.1707 16.209 12.2677" fill="#121F2D" blush:i="0.1.0.0.0.0.0.4"/><path id="Fill 12" fill-rule="evenodd" clip-rule="evenodd" d="M23.3429 9.8507C23.6599 10.6527 23.7339 11.4707 23.7229 12.2887C23.7059 12.6987 23.6709 13.1097 23.5729 13.5187C23.4769 13.9127 23.3549 14.3697 23.0119 14.6637C23.0829 14.2537 22.9879 13.8637 22.9899 13.4637C22.9679 13.0667 22.9699 12.6677 22.9739 12.2687C23.0089 11.4687 23.0709 10.6667 23.3429 9.8507" fill="#121F2D" blush:i="0.1.0.0.0.0.0.5"/><path id="Fill 14" fill-rule="evenodd" clip-rule="evenodd" d="M25.1857 9.8507C25.4857 10.6597 25.5397 11.4797 25.5107 12.2987C25.4827 12.7077 25.4407 13.1177 25.3317 13.5237C25.2287 13.9197 25.0857 14.3607 24.7607 14.6637C24.8147 14.2467 24.7427 13.8557 24.7507 13.4557C24.7387 13.0577 24.7477 12.6597 24.7627 12.2597C24.8147 11.4607 24.8957 10.6617 25.1857 9.8507" fill="#121F2D" blush:i="0.1.0.0.0.0.0.6"/><path id="Fill 16" fill-rule="evenodd" clip-rule="evenodd" d="M34.5868 8.7716C34.9188 9.5116 35.0028 10.2756 35.0058 11.0406C34.9938 11.4216 34.9638 11.8066 34.8768 12.1886C34.7958 12.5656 34.6568 12.9606 34.3978 13.2796C34.3758 12.8786 34.3098 12.5156 34.2938 12.1426C34.2608 11.7716 34.2578 11.4016 34.2568 11.0296C34.2768 10.2846 34.3298 9.5386 34.5868 8.7716" fill="#121F2D" blush:i="0.1.0.0.0.0.0.7"/><path id="Fill 18" fill-rule="evenodd" clip-rule="evenodd" d="M35.5314 7.4952C35.9634 8.3622 36.1534 9.2742 36.2604 10.1982C36.3014 10.6622 36.3274 11.1282 36.2884 11.6002C36.2534 12.0642 36.1854 12.5692 35.9204 12.9882C35.8974 12.5132 35.7634 12.0802 35.7044 11.6272C35.6254 11.1802 35.5674 10.7272 35.5154 10.2742C35.4334 9.3652 35.3804 8.4502 35.5314 7.4952" fill="#121F2D" blush:i="0.1.0.0.0.0.0.8"/><path id="Fill 20" fill-rule="evenodd" clip-rule="evenodd" d="M25.5159 14.6642C25.1329 16.3332 24.5349 17.9462 23.8699 19.5292C23.1679 21.0962 22.3659 22.6272 21.3929 24.0582C20.4199 25.4882 19.2579 26.7942 17.9379 27.9382C16.5809 29.0392 15.0409 29.9272 13.3619 30.4812L12.8789 30.6422L12.8819 30.1252L12.8979 27.7642L12.8999 27.5752L13.0549 27.4692C14.2059 26.6762 15.3129 25.7692 16.3619 24.8242C17.3999 23.8642 18.4249 22.8822 19.3289 21.7942C21.1379 19.6432 22.6679 17.1382 23.0119 14.2702C22.9799 15.7062 22.5809 17.1182 22.0089 18.4422C21.4319 19.7732 20.5989 20.9702 19.7309 22.1202C18.8509 23.2682 17.8609 24.3252 16.8039 25.3062C15.7429 26.2872 14.6459 27.2132 13.4539 28.0592L13.6099 27.7642L13.6259 30.1252L13.1469 29.7692C14.7189 29.2472 16.1899 28.4482 17.5009 27.4092C18.7899 26.3392 19.8959 25.0642 20.9159 23.7212C21.9219 22.3642 22.7729 20.8902 23.5319 19.3712C24.3049 17.8562 24.9669 16.2822 25.5159 14.6642" fill="#121F2D" blush:i="0.1.0.0.0.0.0.9"/><path id="Fill 22" fill-rule="evenodd" clip-rule="evenodd" d="M12.7601 36.8341C12.6351 39.7051 12.5601 42.5721 12.5291 45.4381C12.5051 48.3061 12.4671 51.1711 12.5531 54.0361C12.5771 56.9011 12.6761 59.7661 12.8061 62.6291C12.9121 65.4951 13.1121 68.3551 13.2541 71.2281C12.8021 68.3901 12.4571 65.5321 12.2301 62.6651C11.9801 59.7991 11.8871 56.9231 11.8041 54.0481C11.7811 51.1721 11.8081 48.2941 11.9541 45.4211C12.1071 42.5491 12.3261 39.6781 12.7601 36.8341" fill="#121F2D" blush:i="0.1.0.0.0.0.0.10"/><path id="Fill 24" fill-rule="evenodd" clip-rule="evenodd" d="M13.2544 76.6134C13.5994 79.0264 13.9004 81.4384 14.2074 83.8504L15.1214 91.0824C15.4004 93.4964 15.7374 95.9004 16.0594 98.3084C16.3884 100.715 16.7464 103.116 17.1074 105.527C16.4414 103.181 15.9394 100.794 15.4894 98.3994C15.0484 96.0024 14.7164 93.5894 14.3784 91.1764C14.1044 88.7564 13.8244 86.3374 13.6364 83.9094C13.4474 81.4814 13.2914 79.0514 13.2544 76.6134" fill="#121F2D" blush:i="0.1.0.0.0.0.0.11"/><path id="Fill 26" fill-rule="evenodd" clip-rule="evenodd" d="M11.3804 107.746C12.4414 107.934 13.5014 107.996 14.5554 108.06C15.6124 108.108 16.6674 108.121 17.7234 108.097C18.7804 108.085 19.8364 108.017 20.8974 107.958L24.0994 107.746C23.0774 108.09 22.0304 108.367 20.9644 108.539C19.9004 108.72 18.8214 108.82 17.7384 108.847C16.6554 108.856 15.5694 108.81 14.4964 108.641C13.4274 108.475 12.3584 108.213 11.3804 107.746" fill="#121F2D" blush:i="0.1.0.0.0.0.0.12"/><path id="Fill 28" fill-rule="evenodd" clip-rule="evenodd" d="M26.6909 94.6935C28.7679 95.4715 30.7809 96.3155 32.8319 97.0555C33.8549 97.4265 34.8819 97.7885 35.9259 98.0885C36.9719 98.3805 38.0229 98.6605 39.1229 98.8185C36.8949 99.0715 34.6519 98.4985 32.5749 97.7595C30.4939 96.9835 28.4929 95.9935 26.6909 94.6935" fill="#121F2D" blush:i="0.1.0.0.0.0.0.13"/><path id="Fill 30" fill-rule="evenodd" clip-rule="evenodd" d="M32.6831 68.5821C33.9031 69.5011 34.9331 70.6021 35.8891 71.7661C36.8081 72.9461 37.7251 74.1921 38.1781 75.6691C37.7061 75.0721 37.2051 74.5241 36.7301 73.9521C36.2451 73.3881 35.7791 72.8101 35.3051 72.2351C34.3791 71.0691 33.4621 69.8941 32.6831 68.5821" fill="#121F2D" blush:i="0.1.0.0.0.0.0.14"/><path id="Fill 32" fill-rule="evenodd" clip-rule="evenodd" d="M32.9067 66.3145C34.1617 67.1025 35.2397 68.0955 36.2347 69.1675C37.2027 70.2515 38.1357 71.4325 38.6497 72.8345L35.6807 69.6725C34.7187 68.5995 33.7527 67.5285 32.9067 66.3145" fill="#121F2D" blush:i="0.1.0.0.0.0.0.15"/><path id="Fill 34" fill-rule="evenodd" clip-rule="evenodd" d="M32.2013 11.8946C32.2013 12.5696 31.7053 13.1176 31.0943 13.1176C30.4823 13.1176 29.9873 12.5696 29.9873 11.8946C29.9873 11.2196 30.4823 10.6716 31.0943 10.6716C31.7053 10.6716 32.2013 11.2196 32.2013 11.8946" fill="#38628B" blush:i="0.1.0.0.0.0.0.16"/><path id="Fill 36" fill-rule="evenodd" clip-rule="evenodd" d="M29.5889 60.4561L30.9319 53.6041C31.3679 51.3211 31.8449 49.0481 32.2189 46.7561C32.6499 44.4751 33.0269 42.1841 33.3529 39.8871C33.6799 37.5901 33.9549 35.2861 34.1249 32.9601C34.2669 35.2911 34.1349 37.6311 33.9249 39.9551C33.7159 42.2821 33.3309 44.5861 32.9569 46.8891C32.5189 49.1801 32.0509 51.4651 31.4929 53.7281C30.9309 55.9901 30.3269 58.2431 29.5889 60.4561" fill="#121F2D" blush:i="0.1.0.0.0.0.0.17"/></g></g></g></g><g id="Female Character/Upper Body" blush:component="Female Character/Upper Body" blush:defaultValue="Blouse 3" blush:width="106" blush:height="123" transform="translate(86 76) scale(1 1)" blush:i="0.1.0.1" blush:value="Blouse 1" blush:viewBox="-0.18445475638050368 0 99.60556844547561 82.41000000000001"><g id="Female Character/Upper Body/Blouse 1" blush:viewBox="-0.18445475638050368 0 99.60556844547561 82.41000000000001" blush:i="0.1.0.1.0"><path id="Fill 55" fill-rule="evenodd" clip-rule="evenodd" d="M51.124 1.21845C51.124 1.21845 52.0261 9.92579 44.0001 14.3982C44.0001 14.3982 43.8584 20 52.8344 20C61.8104 20 62 15.2458 62 15.2458C62 15.2458 57.8688 12.1847 57.3928 11.4321C57.3928 11.4321 57.6782 8.46699 58.4386 7.1961C59.1979 5.9252 59.8156 2.53683 56.1115 0.700194C52.4063 -1.13543 51.124 1.21845 51.124 1.21845" fill="#ffc280" blush:color="Skin-500" blush:i="0.1.0.1.0.0"/><g id="Group 30" blush:i="0.1.0.1.0.1"><g id="Group 3" blush:i="0.1.0.1.0.1.0"><path id="Fill 1" fill-rule="evenodd" clip-rule="evenodd" d="M46.4214 12.9858C46.4214 12.9858 42.0049 15.0651 38.7919 16.1991C35.5799 17.3331 35.5799 17.4261 32.5569 20.7341C29.5329 24.0411 17.2489 39.1591 15.9259 42.4661C14.6029 45.7731 12.2419 62.3081 9.68989 64.3871C7.13889 66.4661 4.20989 68.4981 2.69789 70.7651C1.18589 73.0331 -0.0891124 73.1741 0.00488757 73.6471C0.0998876 74.1201 1.65889 73.9781 4.02089 71.9941C4.02089 71.9941 3.40689 73.5051 3.02889 74.4981C2.65089 75.4901 0.902888 76.9551 1.09189 77.2381C1.28089 77.5211 3.16989 76.3871 3.50089 75.7261C3.50089 75.7261 2.74589 77.5691 2.17889 77.9471C1.61089 78.3251 3.68989 78.2771 4.77689 76.6241C5.86289 74.9701 7.18589 72.8911 7.65889 72.9391C8.13089 72.9861 5.72189 75.3951 5.34389 77.3791C4.96589 79.3641 4.06789 79.1271 4.20989 79.6471C4.35189 80.1661 6.57189 78.7961 7.32789 76.5771C8.08389 74.3561 10.3049 73.4581 10.3049 73.4581C10.3049 73.4581 10.5399 76.8131 11.4379 76.5291C12.3359 76.2461 12.0049 74.0251 12.9499 72.9861C13.8949 71.9471 13.8479 71.0961 13.7529 69.8211C13.6589 68.5441 13.4219 66.4181 14.7459 64.3401C16.0679 62.2611 21.8319 50.3561 22.3989 47.5211C22.3989 47.5211 33.1229 33.4431 38.1309 30.5611C38.1309 30.5611 39.3599 36.1821 41.2019 39.3481C43.0439 42.5131 44.5559 48.3721 43.7059 49.8831H65.0839C65.0839 49.8831 65.9339 44.3561 67.3519 41.8041C67.3519 41.8041 69.8309 50.6631 70.8949 51.8681C71.9569 53.0731 86.4149 61.2221 86.6269 63.9861C86.8399 66.7491 90.2419 66.7961 92.5089 71.8521C92.5089 71.8521 93.3119 72.8441 93.3599 71.9941C93.4069 71.1431 92.4149 69.1591 92.4149 69.1591C92.4149 69.1591 93.7849 71.4261 94.0679 72.5131C94.3519 73.6001 95.5799 72.9861 95.5799 72.9861L95.3439 72.0411C95.3439 72.0411 96.4779 73.2691 97.2809 72.9861C97.2809 72.9861 96.3359 70.1991 95.6739 69.3951C95.6739 69.3951 97.9899 71.5691 98.6979 71.2851C99.4069 71.0011 97.5489 69.1591 96.9209 68.0991C96.3109 67.0711 95.1959 64.3491 95.0539 63.9241C94.9119 63.4991 89.4859 60.4661 88.9659 59.9471C88.4459 59.4261 85.2809 56.1201 83.5799 53.6161C81.8789 51.1121 77.4379 47.6161 77.4379 47.6161C77.4379 47.6161 72.9029 31.0811 72.1939 29.0961C71.4859 27.1121 70.5399 21.7731 68.0369 19.7891C65.5329 17.8041 60.6938 14.4644 60.6938 14.4644L46.4214 12.9858Z" fill="#ffc280" blush:color="Skin-500" blush:i="0.1.0.1.0.1.0.0"/></g><path id="Fill 4" fill-rule="evenodd" clip-rule="evenodd" d="M86.9536 63.0044C87.9066 63.9094 88.9836 64.6654 90.1356 65.2494C91.3346 65.7784 92.4446 66.6014 93.5366 67.2274C93.8036 67.3734 94.0946 67.4974 94.2926 67.4434C94.5596 67.3724 94.9086 67.2334 95.0186 67.0864C95.0396 67.0534 95.0456 67.0404 95.0426 67.0104C95.0736 67.0814 95.0156 66.9794 94.9706 66.9424C94.8656 66.8374 94.7416 66.7334 94.6186 66.6314L93.8536 66.0304L93.4626 65.7424C93.3166 65.6494 93.1736 65.5054 93.0706 65.3734C92.8596 65.1044 92.6886 64.8384 92.4616 64.6234C92.3606 64.5244 92.1996 64.4034 92.1106 64.2474C92.0166 64.0984 91.9536 63.9384 91.9056 63.7764C91.8086 63.4544 91.7656 63.1234 91.7576 62.7944C91.9016 63.4204 92.0486 64.1234 92.6226 64.4404C92.8936 64.6564 93.0996 64.9374 93.3106 65.1684C93.4206 65.2864 93.5166 65.3724 93.6536 65.4484L94.0756 65.7164C94.3536 65.8974 94.6266 66.0854 94.8896 66.2934C95.0216 66.3994 95.1516 66.5024 95.2826 66.6274C95.3426 66.7114 95.4276 66.7194 95.4886 66.9554C95.5116 67.0884 95.4656 67.2434 95.3936 67.3444C95.0816 67.7144 94.7586 67.7824 94.4126 67.9064C93.9536 68.0104 93.6026 67.8134 93.3006 67.6674C92.7016 67.3254 92.1836 66.9354 91.6346 66.5824C91.0896 66.2184 90.5296 65.9214 89.9526 65.5864C88.8026 64.9124 87.7576 64.0524 86.9536 63.0044" fill="black" blush:i="0.1.0.1.0.1.1"/><path id="Fill 6" fill-rule="evenodd" clip-rule="evenodd" d="M95.06 68.2261L95.488 68.8821C95.645 69.0921 95.757 69.3281 95.824 69.5891L95.811 69.5961C95.623 69.4031 95.481 69.1851 95.383 68.9411L95.047 68.2331L95.06 68.2261Z" fill="black" blush:i="0.1.0.1.0.1.2"/><path id="Fill 8" fill-rule="evenodd" clip-rule="evenodd" d="M93.5923 68.5757L94.4953 70.2957C94.8273 70.8537 95.1133 71.4237 95.3543 72.0337L95.3333 72.0477C94.8653 71.5727 94.5623 70.9847 94.3163 70.3847C94.0483 69.7927 93.8003 69.1917 93.5703 68.5857L93.5923 68.5757Z" fill="black" blush:i="0.1.0.1.0.1.3"/><path id="Fill 10" fill-rule="evenodd" clip-rule="evenodd" d="M91.9798 68.2281C92.0578 68.3781 92.1618 68.5191 92.2558 68.6611C92.3758 68.7901 92.4538 68.9381 92.4248 69.1531L92.4038 69.1651C92.2038 69.0821 92.1138 68.9281 92.0778 68.7501C92.0208 68.5831 91.9658 68.4141 91.9558 68.2321L91.9798 68.2281Z" fill="black" blush:i="0.1.0.1.0.1.4"/><path id="Fill 12" fill-rule="evenodd" clip-rule="evenodd" d="M52.656 15.4434C52.656 15.4434 57.984 28.5934 59.214 32.6034C59.238 32.6804 59.352 32.6534 59.342 32.5734C58.981 29.4824 57.82 19.6974 57.343 17.4974C56.777 14.8754 63.231 14.8754 63.231 14.8754C63.231 14.8754 68.044 18.4364 69.037 19.0654C70.029 19.6944 80.998 35.2144 80.998 35.2144C80.998 35.2144 73.641 39.9624 67.972 41.6624C67.972 41.6624 68.2957 43.9691 66.0987 47.0171C66.0987 47.0171 66.9487 49.6336 66.0987 50.4836C65.2477 51.3336 62.257 52.0094 62.257 52.0094C62.257 52.0094 67.548 58.5284 71.871 78.7264C71.871 78.7264 66.273 81.7734 63.367 81.9854C63.367 81.9854 61.878 57.2334 58.194 52.3634L55.289 52.2924C55.289 52.2924 50.301 68.8044 49.428 70.7884L41.469 67.1044L49.761 51.8674C49.761 51.8674 46.005 52.1304 42.603 49.8134L43.615 45.8954C43.615 45.8954 40.265 42.5844 38.777 40.6704C38.777 40.6704 22.832 35.7804 16.595 32.3794C16.595 32.3794 15.674 31.7414 17.8 29.2614C19.926 26.7804 34.737 16.6054 36.438 14.4644C36.438 14.4644 48.252 15.7264 52.656 15.4434Z" fill="#FF115F" blush:i="0.1.0.1.0.1.5"/><path id="Fill 14" fill-rule="evenodd" clip-rule="evenodd" d="M68.5172 23.0962C68.8982 24.6662 69.2092 26.2452 69.5212 27.8242L70.4392 32.5472C70.5192 32.9382 70.5982 33.3282 70.6912 33.7092C70.7352 33.9052 70.7922 34.0742 70.8422 34.2692C70.8892 34.5042 70.9552 34.7492 70.9322 34.9692C70.9072 35.8672 70.6492 36.6592 70.3402 37.4192C69.7182 38.9372 68.9142 40.3482 67.9722 41.6622C68.6432 40.1962 69.3092 38.7292 69.7972 37.2252C70.0182 36.4742 70.2462 35.7002 70.2222 34.9842C70.2322 34.7982 70.1782 34.6532 70.1542 34.4922C70.1012 34.2992 70.0282 34.0872 69.9812 33.8902C69.8772 33.4922 69.7892 33.0942 69.7042 32.6982C69.3962 31.1072 69.1412 29.5162 68.9542 27.9132C68.7602 26.3142 68.5912 24.7102 68.5172 23.0962" fill="#970E3A" blush:i="0.1.0.1.0.1.6"/><path id="Fill 16" fill-rule="evenodd" clip-rule="evenodd" d="M41.3276 31.8365C42.1106 33.1725 42.8356 34.5315 43.5596 35.8915L45.6976 39.9815L47.8216 44.0675C48.1796 44.7475 48.5486 45.4195 48.9456 46.0715C49.3436 46.7195 49.7106 47.4145 50.3206 47.8865C49.9556 47.7385 49.6676 47.4495 49.4016 47.1685C49.1306 46.8865 48.8846 46.5835 48.6416 46.2785C48.1756 45.6555 47.7456 45.0095 47.3236 44.3585C46.4856 43.0545 45.7496 41.6925 45.0316 40.3245C44.3326 38.9465 43.6546 37.5605 43.0426 36.1415C42.4256 34.7265 41.8296 33.3015 41.3276 31.8365" fill="#970E3A" blush:i="0.1.0.1.0.1.7"/><path id="Fill 18" fill-rule="evenodd" clip-rule="evenodd" d="M37.7842 37.3169C38.8832 38.6849 39.8922 40.1029 40.9032 41.5199C41.9042 42.9449 42.9032 44.3629 43.8782 45.8209C43.2372 45.2209 42.6552 44.5639 42.0912 43.8929C41.5282 43.2209 41.0052 42.5189 40.4952 41.8079C39.4952 40.3729 38.5562 38.8939 37.7842 37.3169" fill="#970E3A" blush:i="0.1.0.1.0.1.8"/><path id="Fill 20" fill-rule="evenodd" clip-rule="evenodd" d="M51.929 48.148H51.919C49.297 47.947 46.115 47.155 43.614 46.082C43.55 46.054 43.52 45.98 43.547 45.918C43.575 45.854 43.651 45.825 43.711 45.851C46.19 46.916 49.342 47.7 51.939 47.898C52.007 47.904 52.059 47.963 52.054 48.033C52.048 48.098 51.993 48.148 51.929 48.148" fill="#970E3A" blush:i="0.1.0.1.0.1.9"/><path id="Fill 22" fill-rule="evenodd" clip-rule="evenodd" d="M56.6461 48.1256C56.6441 48.0576 56.6981 47.9986 56.7671 47.9966C61.5851 47.8386 65.5721 47.0756 65.6121 47.0676C65.6781 47.0576 65.7451 47.0996 65.7581 47.1676C65.7711 47.2346 65.7271 47.3006 65.6591 47.3136C65.6191 47.3216 61.6151 48.0876 56.7751 48.2466C56.7041 48.2466 56.6481 48.1926 56.6461 48.1256Z" fill="#970E3A" blush:i="0.1.0.1.0.1.10"/><path id="Fill 24" fill-rule="evenodd" clip-rule="evenodd" d="M49.7612 51.8677C50.3152 50.6617 50.9242 49.4877 51.5352 48.3147C52.1512 47.1437 52.7892 45.9857 53.4432 44.8367L53.4582 44.8097C53.4892 44.7567 53.5432 44.7227 53.6012 44.7187C54.3262 44.6497 54.8652 44.8507 55.4372 45.0567C55.9932 45.2747 56.5212 45.5457 57.0252 45.8507C58.0332 46.4567 58.9632 47.1727 59.8282 47.9547C58.8472 47.3247 57.8682 46.6997 56.8462 46.1727C56.3312 45.9177 55.8112 45.6777 55.2792 45.4887C54.7642 45.3137 54.1562 45.1497 53.7162 45.1987L53.8732 45.0797C53.2282 46.2327 52.5682 47.3787 51.8842 48.5117C51.1962 49.6407 50.5062 50.7697 49.7612 51.8677" fill="#970E3A" blush:i="0.1.0.1.0.1.11"/><path id="Fill 26" fill-rule="evenodd" clip-rule="evenodd" d="M57.3381 46.2427C57.0941 47.2837 56.7591 48.2947 56.4311 49.3077C56.0761 50.3107 55.7281 51.3177 55.2881 52.2927C55.5311 51.2517 55.8661 50.2407 56.1941 49.2277C56.5501 48.2237 56.8991 47.2187 57.3381 46.2427" fill="#970E3A" blush:i="0.1.0.1.0.1.12"/><path id="Fill 28" fill-rule="evenodd" clip-rule="evenodd" d="M58.1937 52.439C58.1537 52.439 58.1207 52.408 58.1187 52.368C58.1167 52.326 58.1487 52.291 58.1897 52.289C58.2177 52.288 61.0227 52.145 62.2447 51.935C62.2487 51.935 62.2537 51.934 62.2567 51.934C62.2937 51.934 62.3247 51.96 62.3317 51.997C62.3387 52.038 62.3107 52.077 62.2697 52.084C61.0397 52.294 58.2257 52.437 58.1977 52.439H58.1937Z" fill="#970E3A" blush:i="0.1.0.1.0.1.13"/><path id="Path (Stroke)" fill-rule="evenodd" clip-rule="evenodd" d="M54.895 53.9914L49.5813 70.8594L49.58 70.8599L54.895 53.9914ZM49.514 70.8891L41.6537 67.2511L41.654 67.2521L49.513 70.8896L49.514 70.8891ZM41.6694 67.112C41.6736 67.1143 41.6927 67.1246 41.7781 67.1709L41.6694 67.112ZM41.9515 67.1134L42.2792 66.5088C42.5282 66.0496 42.8837 65.3935 43.3102 64.6061C44.1633 63.0313 45.3001 60.9313 46.4355 58.8304C47.5709 56.7296 48.7047 54.6278 49.5518 53.0496C49.9753 52.2605 50.3272 51.6021 50.5718 51.14C50.694 50.909 50.7896 50.7268 50.854 50.6017C50.8861 50.5392 50.9109 50.4903 50.9273 50.4564C50.9354 50.4397 50.9423 50.4252 50.9471 50.414C50.9493 50.4089 50.9524 50.4015 50.9549 50.3937C50.9559 50.3907 50.9588 50.3817 50.9605 50.3702C50.9613 50.3635 50.9617 50.3456 50.9606 50.3343C50.9559 50.3136 50.9262 50.2639 50.8966 50.2415C50.8676 50.2301 50.8161 50.2278 50.796 50.2328C50.7846 50.2373 50.7673 50.2468 50.761 50.2512C50.75 50.2593 50.7426 50.2676 50.7401 50.2704C50.7338 50.2775 50.7284 50.2849 50.7251 50.2897C50.7176 50.3003 50.7085 50.3143 50.6985 50.3302C50.6782 50.3627 50.6497 50.4104 50.6139 50.4714C50.5421 50.5938 50.439 50.7737 50.3091 51.0027C50.0493 51.4607 49.6816 52.1165 49.2423 52.9042C48.3636 54.4795 47.1977 56.583 46.0338 58.6873C44.8698 60.7917 43.7078 62.8972 42.8368 64.4765C42.4012 65.2661 42.0385 65.9243 41.7846 66.385L41.3861 67.1082C41.386 67.1084 41.3856 67.109 41.4951 67.1693L41.3861 67.1082L41.3594 67.1567L41.4506 67.4334L49.5106 71.1639L49.7857 71.0423L55.6619 52.3889L57.7129 46.6859L57.7239 46.6268L57.7242 46.6167C57.7267 46.5121 57.6629 46.4129 57.5588 46.3755L57.5494 46.3721L57.4903 46.361L57.4802 46.3607C57.3756 46.3582 57.2764 46.422 57.239 46.5261L55.189 52.2268L49.4106 70.5658L41.9515 67.1134Z" fill="#970E3A" blush:i="0.1.0.1.0.1.14"/><path id="Path 2 (Stroke)" fill-rule="evenodd" clip-rule="evenodd" d="M62.2901 51.9695C62.4023 51.889 62.5585 51.9147 62.639 52.0268C65.6524 56.2265 68.6854 64.4628 71.7504 76.72L72.2619 78.8011L72.18 79.0087L72.1469 79.0304C70.206 80.3074 67.5205 81.369 64.0964 82.2208L63.4926 82.3675L63.2448 82.181L63.242 82.1224C62.5534 67.8103 60.8302 57.9512 58.0914 52.5304C58.0291 52.4072 58.0785 52.2568 58.2018 52.1946C58.325 52.1323 58.4754 52.1817 58.5376 52.305C61.2749 57.7226 62.9913 67.4123 63.7048 81.36L63.7256 81.796L63.9745 81.7359C63.9747 81.7359 63.9743 81.736 63.9745 81.7359C67.1805 80.9384 69.7105 79.9604 71.5682 78.8069C71.5685 78.8068 71.568 78.8071 71.5682 78.8069L71.7245 78.7069L71.5996 78.1935C68.4828 65.4415 65.4101 56.8975 62.3942 52.5472C62.3941 52.5471 62.3942 52.5474 62.3942 52.5472L62.2327 52.3183C62.2326 52.3182 62.2328 52.3185 62.2327 52.3183C62.1526 52.2062 62.1781 52.0499 62.2901 51.9695ZM62.4364 52.1734C62.4906 52.2489 62.5447 52.3257 62.5989 52.4038L62.4364 52.1734ZM71.977 78.842L71.7023 79.0179L71.7008 79.0189M71.977 78.842L71.9765 78.8432ZM71.9765 78.8432C71.8865 78.9021 71.7956 78.96 71.7023 79.0179Z" fill="#A40038" blush:i="0.1.0.1.0.1.15"/><path id="Path 3 (Stroke)" fill-rule="evenodd" clip-rule="evenodd" d="M42.9718 49.8434C42.9718 49.8434 42.9718 49.8434 42.9718 49.8434L42.9734 49.8443L42.9796 49.8476L43.0058 49.8614C43.0292 49.8736 43.0646 49.8918 43.1112 49.9153C43.2046 49.9622 43.3431 50.03 43.5219 50.1126C43.8797 50.2779 44.3985 50.5021 45.0394 50.7362C46.3227 51.205 48.0893 51.7115 50.0312 51.8686C50.1688 51.8797 50.2714 52.0003 50.2603 52.1379C50.2491 52.2755 50.1285 52.3781 49.9909 52.3669C47.9904 52.2052 46.178 51.6845 44.8679 51.2059C44.2121 50.9663 43.6806 50.7367 43.3123 50.5666C43.1281 50.4815 42.9846 50.4112 42.8866 50.362C42.8377 50.3374 42.8001 50.318 42.7745 50.3047L42.7452 50.2893L42.7374 50.2851L42.7353 50.284C42.7352 50.2839 42.7343 50.2834 42.8531 50.0634L42.7343 50.2834C42.6128 50.2179 42.5675 50.0662 42.6331 49.9447C42.6986 49.8232 42.8503 49.7779 42.9718 49.8434Z" fill="#970E3A" blush:i="0.1.0.1.0.1.16"/><path id="Path 4 (Stroke)" fill-rule="evenodd" clip-rule="evenodd" d="M66.571 50.619C66.6343 50.7418 66.5862 50.8925 66.4634 50.9558C64.2834 52.0801 61.5415 52.5357 59.3625 52.7135C58.2697 52.8026 57.3116 52.8224 56.6265 52.8199C56.2838 52.8186 56.0092 52.8118 55.8197 52.8052C55.725 52.8019 55.6516 52.7987 55.6016 52.7963L55.5444 52.7934L55.5295 52.7926L55.5256 52.7924L55.5245 52.7923C55.5244 52.7923 55.524 52.7923 55.5391 52.5428L55.5245 52.7923C55.3867 52.784 55.2812 52.6655 55.2895 52.5277C55.2978 52.3899 55.4163 52.2849 55.5541 52.2932C55.5541 52.2932 55.5541 52.2932 55.5541 52.2932L55.5581 52.2934L55.5715 52.2942L55.6255 52.2969C55.6734 52.2992 55.7446 52.3023 55.837 52.3055C56.0218 52.3119 56.2913 52.3186 56.6283 52.3199C57.3026 52.3223 58.2461 52.3029 59.3218 52.2151C61.4797 52.0391 64.1427 51.5901 66.2343 50.5114C66.357 50.4482 66.5078 50.4963 66.571 50.619Z" fill="#970E3A" blush:i="0.1.0.1.0.1.17"/></g></g></g><g id="Female Character/Head" blush:component="Female Character/Head" blush:defaultValue="Short Hair 5" blush:width="53" blush:height="71" transform="translate(115 46) scale(1 1)" blush:i="0.1.0.2" blush:value="Hijab 5" blush:viewBox="8.916219839142094 8.519999999999996 30.549597855227873 40.47"><g id="Female Character/Head/Hijab 5" blush:viewBox="8.916219839142094 8.519999999999996 30.549597855227873 40.47" blush:i="0.1.0.2.0"><g id="Group 186" blush:i="0.1.0.2.0.0"><path id="Fill 55" fill-rule="evenodd" clip-rule="evenodd" d="M15.528 44.299C15.528 44.299 15.6941 48.1563 24.5001 48.1563C33.3061 48.1563 33.187 45.138 33.187 45.138C33.187 45.138 29.134 42.108 28.667 41.363C28.667 41.363 28.947 38.428 29.693 37.17C30.438 35.912 31.044 32.558 27.41 30.74C23.775 28.923 22.517 31.253 22.517 31.253C22.517 31.253 23.402 39.872 15.528 44.299Z" fill="#ffc280" blush:color="Skin-500" blush:i="0.1.0.2.0.0.0"/><path id="Fill 57" fill-rule="evenodd" clip-rule="evenodd" d="M20.3004 32.0304C20.3004 32.0304 21.4344 34.2984 23.9144 35.7864C26.3944 37.2744 29.5124 39.5424 31.0714 39.0464C32.6314 38.5504 36.7624 35.3844 37.7544 31.8414C38.7464 28.2984 39.3634 22.3924 38.7254 19.4864C38.0884 16.5814 34.4734 10.4864 28.0254 10.4864C21.5754 10.4864 15.8364 17.2894 17.3944 24.8014C17.3944 24.8014 15.6024 26.9994 17.1364 29.2664C18.6704 31.5344 20.3004 32.0304 20.3004 32.0304" fill="#ffc280" blush:color="Skin-500" blush:i="0.1.0.2.0.0.1"/><path id="Fill 59" fill-rule="evenodd" clip-rule="evenodd" d="M24.148 27.2823C24.148 27.2823 26.995 27.3523 27.751 27.9023C27.751 27.9023 28.028 28.0003 27.921 27.6363C27.921 27.6363 28.329 27.9283 28.356 27.7693C28.382 27.6093 28.178 26.0683 26.575 25.8553C24.972 25.6433 23.767 27.1133 24.148 27.2823" fill="black" blush:i="0.1.0.2.0.0.2"/><path id="Fill 61" fill-rule="evenodd" clip-rule="evenodd" d="M36.6202 26.8741C36.6202 26.8741 34.8142 26.8481 34.0822 27.3961C34.0822 27.3961 33.8142 27.4941 33.9162 27.1311C33.9162 27.1311 33.5222 27.4231 33.4962 27.2641C33.4712 27.1041 34.2052 25.6521 35.7582 25.4391C37.3102 25.2271 37.7182 26.5851 36.6202 26.8741" fill="black" blush:i="0.1.0.2.0.0.3"/><path id="Fill 63" fill-rule="evenodd" clip-rule="evenodd" d="M31.8901 32.2247C31.8901 32.2247 31.6771 32.4027 31.8901 32.5787C32.1021 32.7567 33.5021 32.2607 33.8211 31.7997C34.1401 31.3387 33.9511 31.2867 33.4961 31.5517C33.0411 31.8177 31.8901 32.2247 31.8901 32.2247" fill="black" blush:i="0.1.0.2.0.0.4"/><path id="Fill 65" fill-rule="evenodd" clip-rule="evenodd" d="M29.02 33.6602C29.02 33.6602 28.932 33.5012 29.693 33.5012C30.455 33.5012 30.384 33.6422 31.624 33.6602C32.864 33.6782 33.372 33.6602 32.888 33.9782C32.404 34.2982 32.439 34.2802 32.351 34.5282C32.262 34.7762 31.141 35.2192 30.257 34.9182C29.374 34.6162 28.472 33.8172 29.02 33.6602" fill="#EE4E2F" blush:i="0.1.0.2.0.0.5"/><path id="Fill 67" fill-rule="evenodd" clip-rule="evenodd" d="M23.6992 23.1007C23.8342 23.0587 23.6522 23.3367 24.2662 23.2307C24.8802 23.1247 26.5572 22.9357 28.0692 23.8807C28.0692 23.8807 28.3392 23.6677 28.3582 23.2667C28.3752 22.8907 25.8292 21.6037 23.6632 23.0307C23.5152 23.1277 23.5612 23.1437 23.6992 23.1007" fill="black" blush:i="0.1.0.2.0.0.6"/><path id="Fill 69" fill-rule="evenodd" clip-rule="evenodd" d="M36.6204 23.2423C36.6204 23.2423 35.7224 22.2743 34.2104 22.7223C32.6994 23.1723 32.8394 23.8563 32.8874 24.0463C32.9354 24.2343 34.0214 23.3123 35.1554 23.3253C36.2894 23.3373 36.6204 23.5733 36.6204 23.2423" fill="black" blush:i="0.1.0.2.0.0.7"/></g><g id="Group 23" blush:i="0.1.0.2.0.1"><g id="Group 3" blush:i="0.1.0.2.0.1.0"><path id="Fill 1" fill-rule="evenodd" clip-rule="evenodd" d="M38.3999 29.1102C38.3999 29.1102 41.3219 19.0035 36.8569 14.6405C32.3899 10.2755 24.6379 5.8605 19.6079 10.4305C14.5759 14.9995 13.2929 17.7715 12.4199 21.3145C11.5469 24.8565 10.7259 28.6545 14.3709 33.4295C14.3709 33.4295 14.9359 35.3805 15.8079 35.8935C16.6809 36.4065 18.4259 38.0495 18.4259 38.0495C18.4259 38.0495 16.9379 38.4605 17.2449 40.2575C17.2449 40.2575 16.2189 40.2575 15.8599 41.0265C15.4999 41.7975 15.0889 42.7215 13.9079 42.8755C12.7279 43.0295 11.8559 42.4645 10.5709 44.0565C9.28791 45.6485 8.51891 46.7265 9.33991 47.0335C9.33991 47.0335 10.9829 46.1095 11.3929 46.1095C11.3929 46.1095 23.7659 52.2185 34.5459 46.1095C34.5459 46.1095 32.6979 43.9535 32.4419 43.6965C32.1849 43.4405 31.4149 43.2345 31.4149 43.2345L30.2339 40.5145L30.9019 39.0765C30.9019 39.0765 24.2819 37.4345 22.7659 34.4045C21.2499 31.3755 19.9149 23.0085 23.2519 19.6195C26.5889 16.2315 40.6589 14.8813 38.3999 28.1773V29.1102Z" fill="#819500" blush:i="0.1.0.2.0.1.0.0"/></g><path id="Fill 4" fill-rule="evenodd" clip-rule="evenodd" d="M28.2313 12.5348C27.3083 13.1178 26.3753 13.6788 25.4693 14.2808C24.5553 14.8638 23.6433 15.4618 22.8123 16.1288C22.6093 16.2958 22.4023 16.4688 22.2343 16.6488C22.0413 16.8418 21.9523 16.9658 21.8353 17.2238C21.6243 17.6998 21.4373 18.2018 21.2873 18.7128C20.9773 19.7328 20.7723 20.7858 20.6403 21.8458C20.3603 23.9638 20.4103 26.1278 20.7963 28.2398C21.1683 30.3558 21.8683 32.4158 22.7653 34.4048C21.5923 32.5618 20.7323 30.5078 20.2313 28.3538C19.7143 26.2018 19.6653 23.9528 19.8973 21.7498C20.0573 20.6518 20.2933 19.5648 20.6373 18.5078C20.8063 17.9768 21.0093 17.4598 21.2513 16.9448C21.3533 16.7068 21.5823 16.3758 21.7943 16.2038C22.0113 15.9998 22.2363 15.8368 22.4633 15.6718C24.2903 14.4078 26.2393 13.4328 28.2313 12.5348" fill="#586600" blush:i="0.1.0.2.0.1.1"/><path id="Fill 6" fill-rule="evenodd" clip-rule="evenodd" d="M20.1172 23.6754C20.3882 22.7064 20.8712 21.8204 21.4652 21.0124C21.7742 20.6174 22.0972 20.2284 22.4952 19.9084C22.8842 19.5864 23.3152 19.2974 23.8012 19.1544C23.0392 19.8014 22.4462 20.5364 21.8642 21.3134C21.2752 22.0804 20.7342 22.8854 20.1172 23.6754" fill="#586600" blush:i="0.1.0.2.0.1.2"/><g id="Group 10" blush:i="0.1.0.2.0.1.3"><path id="Fill 8" fill-rule="evenodd" clip-rule="evenodd" d="M32.4922 13.151C33.6842 13.685 34.7562 14.467 35.7232 15.358C36.6952 16.249 37.5152 17.312 38.1582 18.478C38.8052 19.642 39.2072 20.951 39.3262 22.273C39.5022 23.598 39.2632 24.928 38.9082 26.169C38.9582 24.868 39.0392 23.591 38.7552 22.354C38.5122 21.125 38.1232 19.923 37.4992 18.834C36.9092 17.729 36.1532 16.713 35.3142 15.76C34.8922 15.286 34.4432 14.831 33.9662 14.405C33.5072 13.954 33.0042 13.553 32.4922 13.151" fill="#586600" blush:i="0.1.0.2.0.1.3.0"/></g><path id="Fill 11" fill-rule="evenodd" clip-rule="evenodd" d="M33.6221 17.566C34.2821 17.832 34.8981 18.186 35.4941 18.573C36.0931 18.958 36.6461 19.41 37.1691 19.9C37.6841 20.395 38.1571 20.953 38.5051 21.592C38.8511 22.221 39.0991 22.962 38.9611 23.675C38.8861 22.965 38.5661 22.349 38.1791 21.795C37.7791 21.246 37.3271 20.729 36.8221 20.26C35.8301 19.299 34.7301 18.447 33.6221 17.566" fill="#586600" blush:i="0.1.0.2.0.1.4"/><path id="Fill 13" fill-rule="evenodd" clip-rule="evenodd" d="M15.0381 24.2399C15.7901 26.1119 16.5801 27.9469 17.5001 29.7159C17.9611 30.5989 18.4671 31.4549 19.0011 32.2949C19.5551 33.1219 20.1651 33.9069 20.8391 34.6619C20.0241 34.0609 19.3201 33.3159 18.6871 32.5179C18.0661 31.7129 17.5361 30.8419 17.0571 29.9469C16.5971 29.0429 16.1841 28.1149 15.8491 27.1599C15.5121 26.2059 15.2171 25.2359 15.0381 24.2399" fill="#586600" blush:i="0.1.0.2.0.1.5"/><path id="Fill 15" fill-rule="evenodd" clip-rule="evenodd" d="M12.0703 29.0192C12.7483 30.0412 13.4753 31.0162 14.2503 31.9272C15.0243 32.8592 15.9053 33.5812 16.9163 34.2752C18.8823 35.6962 20.8823 37.0902 22.7653 38.6652C20.5573 37.5872 18.4783 36.3032 16.4773 34.8832C15.9863 34.5132 15.4883 34.1602 15.0153 33.7172C14.5583 33.2762 14.1503 32.7982 13.7923 32.2892C13.0653 31.2782 12.4913 30.1742 12.0703 29.0192" fill="#586600" blush:i="0.1.0.2.0.1.6"/><path id="Fill 17" fill-rule="evenodd" clip-rule="evenodd" d="M16.7109 36.5485C17.7739 37.2225 18.8849 37.8025 20.0269 38.2945C21.1719 38.7805 22.3489 39.1895 23.5609 39.4355C24.7619 39.7395 26.0059 39.7965 27.2379 39.7615L28.1649 39.6995L29.0809 39.5365C29.7079 39.4755 30.2799 39.2115 30.9009 39.0765C29.7679 39.6115 28.5459 40.0475 27.2669 40.1455C25.9979 40.2625 24.7019 40.1975 23.4549 39.9235C22.2129 39.6285 20.9999 39.2135 19.8659 38.6425C18.7349 38.0675 17.6529 37.3905 16.7109 36.5485" fill="#586600" blush:i="0.1.0.2.0.1.7"/><path id="Fill 19" fill-rule="evenodd" clip-rule="evenodd" d="M17.418 39.693C19.556 40.49 21.664 41.154 23.822 41.429C24.899 41.56 25.978 41.552 27.053 41.431C28.134 41.297 29.161 40.939 30.233 40.514C29.397 41.286 28.356 41.901 27.209 42.196C26.066 42.493 24.868 42.547 23.702 42.422C22.541 42.259 21.409 41.952 20.35 41.49C19.292 41.029 18.281 40.455 17.418 39.693" fill="#586600" blush:i="0.1.0.2.0.1.8"/><path id="Fill 21" fill-rule="evenodd" clip-rule="evenodd" d="M11.3877 43.2779C13.0677 42.9889 14.9037 43.1109 16.5297 43.6879C18.1417 44.1229 19.8027 44.4309 21.4657 44.6099C24.7947 44.9739 28.1697 44.8769 31.4657 43.9019C29.9727 44.7569 28.2827 45.2909 26.5607 45.5359C24.8367 45.7959 23.0817 45.7829 21.3547 45.6039C19.6287 45.3969 17.9237 45.0369 16.2857 44.4259C14.7347 43.7419 13.1127 43.3839 11.3877 43.2779" fill="#586600" blush:i="0.1.0.2.0.1.9"/></g></g></g><g id="Female Character/Accesories" blush:component="Female Character/Accesories" blush:defaultValue="None" blush:width="34" blush:height="36" transform="translate(127 54) scale(1 1)" blush:i="0.1.0.3" blush:value="Mask" blush:viewBox="10.8771186440678 18.9 15.127118644067794 12.24"><g id="Female Character/Accesories/Mask" blush:viewBox="10.8771186440678 18.9 15.127118644067794 12.24" blush:i="0.1.0.3.0"><g id="Group" blush:i="0.1.0.3.0.0"><path id="Path 4" fill-rule="evenodd" clip-rule="evenodd" d="M17.9782 30.7951C14.1709 30.1339 10.8992 22.0333 10.8992 22.0333C10.8992 22.0333 11.7642 21.6089 14.7839 22.2182C17.4775 22.7617 19.2128 18.8163 20.3942 19.0254C23.2424 19.5295 26 23.4797 26 23.4797C26 23.4797 23.8973 28.4273 23.0214 29.4087C22.1456 30.3902 21.7855 31.4562 17.9782 30.7951Z" fill="#DAEDEB" blush:i="0.1.0.3.0.0.0"/></g></g></g></g></g></g></svg>