<svg viewBox="46.3125 12.679190751445077 154.375 188.64161849710987" fill="none" xmlns="http://www.w3.org/2000/svg" xmlns:xlink="http://www.w3.org/1999/xlink" xmlns:blush="http://design.blush" overflow="visible" width="154.375px" height="188.64161849710987px"><g id="Master/Backgrounds/Line Pattern" blush:has-customizable-colors="true" blush:viewBox="0 -1.1120092378752702 246.99999999999994 216.22401847575057" blush:i="0"><g id="Blush/Backgrounds/Line Pattern" blush:i="0.0"><g id="Texture Backgrounds" blush:component="Texture Backgrounds" blush:defaultValue="Abstract 2" blush:width="247" blush:height="214" blush:i="0.0.0" blush:value="Abstract 2" transform="scale(1 1)" blush:viewBox="46.93000000000001 14.950346420323314 153.14 185.3348729792148"><g id="Texture Backgrounds/Abstract 2" blush:viewBox="46.93000000000001 14.950346420323314 153.14 185.3348729792148" blush:i="0.0.0.0"><g id="Group" blush:i="0.0.0.0.0"><path id="Fill 12" fill-rule="evenodd" clip-rule="evenodd" d="M52.4706 127C51.8915 127 51.337 126.664 51.0801 126.091C51.0393 126 50.0545 123.793 49.0514 119.957C48.8353 119.127 49.3205 118.274 50.134 118.054C50.9659 117.828 51.7916 118.328 52.0057 119.156C52.9375 122.714 53.8529 124.778 53.8631 124.797C54.2118 125.579 53.8713 126.504 53.1047 126.859C52.8987 126.956 52.6826 127 52.4706 127" fill="#CDEAFA" blush:i="0.0.0.0.0.0"/><path id="Fill 14" fill-rule="evenodd" clip-rule="evenodd" d="M158.54 18.3021C158.495 18.3021 158.448 18.3001 158.401 18.2962C154.657 17.9387 150.845 17.8577 146.641 18.0928C145.836 18.1402 145.144 17.5141 145.099 16.6965C145.054 15.8769 145.67 15.1798 146.477 15.1344C150.673 14.8993 154.759 14.9744 158.674 15.3457C159.477 15.4227 160.068 16.1455 159.994 16.9592C159.922 17.7274 159.286 18.3021 158.54 18.3021M123.052 22.5817C122.432 22.5817 121.857 22.1788 121.658 21.5488C121.414 20.7687 121.839 19.9353 122.609 19.6885C126.535 18.4245 130.499 17.4035 134.391 16.6511C135.182 16.4911 135.948 17.0243 136.1 17.8281C136.252 18.6319 135.734 19.408 134.941 19.5601C131.162 20.2908 127.31 21.2842 123.494 22.5126C123.346 22.56 123.198 22.5817 123.052 22.5817M101.105 32.2765C100.593 32.2765 100.094 32.002 99.8249 31.5142C99.4351 30.7993 99.6905 29.8967 100.396 29.4998C103.998 27.4775 107.652 25.6388 111.256 24.0392C111.991 23.7113 112.856 24.051 113.182 24.8015C113.507 25.55 113.17 26.4229 112.429 26.7507C108.907 28.3148 105.335 30.11 101.815 32.0908C101.589 32.2172 101.345 32.2765 101.105 32.2765M81.1629 45.7315C80.7322 45.7315 80.3053 45.5399 80.0188 45.1706C79.516 44.5287 79.6212 43.5986 80.2527 43.091C81.656 41.9614 83.1158 40.8377 84.6341 39.7218C86.4117 38.4125 88.2379 37.1229 90.0583 35.8905C90.7307 35.4383 91.639 35.622 92.0853 36.3013C92.5336 36.9807 92.3523 37.901 91.6799 38.3552C89.8907 39.5658 88.0976 40.8298 86.3512 42.1174C84.8661 43.2095 83.4413 44.3076 82.0731 45.4095C81.8022 45.6268 81.4825 45.7315 81.1629 45.7315M64.2199 62.842C63.9081 62.842 63.5943 62.7413 63.3272 62.5319C62.688 62.0303 62.573 61.1001 63.068 60.4543C65.4731 57.3063 68.194 54.2057 71.1565 51.2375C71.7334 50.6628 72.6592 50.6667 73.2245 51.2493C73.7916 51.8299 73.7877 52.768 73.2128 53.3427C70.3418 56.2201 67.7067 59.224 65.3776 62.2673C65.0911 62.6445 64.6584 62.842 64.2199 62.842M52.7868 84.0682C52.6309 84.0682 52.473 84.0425 52.3191 83.9892C51.5531 83.7285 51.1438 82.8872 51.403 82.113C52.6855 78.2679 54.35 74.4544 56.3458 70.7732C56.7356 70.0563 57.6244 69.7916 58.3319 70.1886C59.0394 70.5836 59.2966 71.4841 58.9088 72.201C56.9929 75.7282 55.4005 79.3837 54.1707 83.061C53.966 83.6791 53.3969 84.0682 52.7868 84.0682M49.5612 108C48.7913 108 48.1462 107.39 48.1033 106.604C48.037 105.421 48 104.192 48 102.925C48 100.012 48.1988 97.0749 48.5886 94.1935C48.6997 93.3838 49.4208 92.8012 50.2375 92.9276C51.0366 93.0401 51.596 93.7867 51.4849 94.5983C51.1126 97.3434 50.9236 100.146 50.9236 102.925C50.9236 104.135 50.9606 105.306 51.023 106.434C51.0678 107.252 50.4519 107.953 49.6469 107.998C49.6177 108 49.5904 108 49.5612 108" fill="#CDEAFA" blush:i="0.0.0.0.0.1"/><path id="Fill 16" fill-rule="evenodd" clip-rule="evenodd" d="M177.438 23C177.213 23 176.982 22.9539 176.765 22.8516C176.745 22.8436 174.757 21.9354 171.139 20.953C170.308 20.7284 169.825 19.8984 170.059 19.1004C170.29 18.3025 171.137 17.8253 171.984 18.0599C175.895 19.1185 178.029 20.1009 178.116 20.141C178.893 20.5019 179.217 21.3981 178.847 22.1459C178.578 22.6852 178.018 23 177.438 23" fill="#CDEAFA" blush:i="0.0.0.0.0.2"/><path id="Fill 18" fill-rule="evenodd" clip-rule="evenodd" d="M64.3477 133C63.7703 133 63.2082 132.739 62.9063 132.277C62.8534 132.196 61.5993 130.268 60.1095 126.923C59.7833 126.194 60.2108 125.375 61.0638 125.095C61.9167 124.812 62.8732 125.182 63.1972 125.913C64.5923 129.044 65.7781 130.874 65.7891 130.893C66.2343 131.574 65.9522 132.437 65.1544 132.819C64.8987 132.941 64.621 133 64.3477 133" fill="#CDEAFA" blush:i="0.0.0.0.0.3"/><path id="Fill 20" fill-rule="evenodd" clip-rule="evenodd" d="M166.531 30.0282C166.448 30.0282 166.366 30.0223 166.284 30.0066C162.444 29.3584 158.456 29.0001 154.428 28.9374C153.616 28.9257 152.968 28.2579 152.98 27.4472C152.994 26.6423 153.649 26 154.451 26H154.473C158.648 26.0666 162.789 26.4387 166.774 27.1123C167.575 27.2455 168.116 28.0053 167.979 28.8042C167.859 29.521 167.235 30.0282 166.531 30.0282M130.418 31.8631C129.763 31.8631 129.163 31.4224 128.994 30.7586C128.794 29.9733 129.268 29.1724 130.055 28.9726C134.093 27.9465 138.164 27.175 142.156 26.6795C142.992 26.5836 143.7 27.1515 143.798 27.9544C143.898 28.7612 143.327 29.4955 142.521 29.5934C138.648 30.0732 134.699 30.8213 130.783 31.818C130.661 31.8493 130.538 31.8631 130.418 31.8631M107.743 40.3874C107.201 40.3874 106.681 40.0897 106.422 39.5727C106.061 38.8462 106.357 37.965 107.085 37.6027C110.821 35.7483 114.603 34.0916 118.333 32.6816C119.08 32.3918 119.942 32.7736 120.228 33.5354C120.516 34.2933 120.136 35.1412 119.375 35.4291C115.737 36.8038 112.045 38.4213 108.396 40.2346C108.186 40.3384 107.962 40.3874 107.743 40.3874M87.07 53.028C86.6247 53.028 86.1813 52.8263 85.8909 52.4425C85.4024 51.7943 85.5338 50.8739 86.1832 50.3863C87.7704 49.1937 89.4655 47.9972 91.2155 46.8262C92.9479 45.6728 94.6645 44.58 96.3616 43.5422C97.058 43.1133 97.9625 43.3365 98.3862 44.0278C98.8081 44.721 98.5922 45.6258 97.8997 46.0487C96.2321 47.0651 94.5507 48.1402 92.8498 49.2701C91.1449 50.4078 89.4969 51.573 87.9529 52.7343C87.688 52.932 87.3761 53.028 87.07 53.028M69.9368 70.0649C69.6366 70.0649 69.3345 69.9729 69.0735 69.7869C68.4163 69.309 68.2691 68.3906 68.7459 67.7346C71.0884 64.5132 73.8076 61.3722 76.8309 58.3956C77.4077 57.8297 78.3435 57.8297 78.9124 58.4113C79.4834 58.989 79.4755 59.9191 78.8967 60.489C75.9892 63.352 73.376 66.3697 71.1296 69.4598C70.8412 69.8554 70.3919 70.0649 69.9368 70.0649M59.884 91.9309C59.7761 91.9309 59.6662 91.9192 59.5583 91.8957C58.7637 91.7175 58.2674 90.9322 58.4459 90.1391C59.3523 86.1227 60.7021 82.1709 62.4521 78.3974C62.7954 77.6591 63.6705 77.3458 64.4062 77.6826C65.1438 78.0233 65.4636 78.8967 65.1242 79.633C63.4586 83.2186 62.1794 86.9706 61.3162 90.7854C61.1631 91.4688 60.555 91.9309 59.884 91.9309M59.5053 116C58.8089 116 58.1889 115.503 58.0594 114.796C57.3571 110.942 57 107.055 57 103.242L57.0059 102.455C57.0177 101.65 57.6749 101.008 58.4773 101.008H58.4989C59.3131 101.019 59.9605 101.687 59.9487 102.498L59.9428 103.242C59.9428 106.878 60.2842 110.589 60.9552 114.269C61.1023 115.068 60.5707 115.83 59.7722 115.978C59.6819 115.992 59.5936 116 59.5053 116" fill="#CDEAFA" blush:i="0.0.0.0.0.4"/><path id="Fill 22" fill-rule="evenodd" clip-rule="evenodd" d="M183.585 35C183.348 35 183.108 34.9406 182.888 34.8163C182.871 34.807 181.123 33.8403 177.932 32.6992C177.197 32.4358 176.818 31.6379 177.086 30.9162C177.35 30.1925 178.164 29.8233 178.897 30.0831C182.341 31.3151 184.211 32.356 184.288 32.4005C184.965 32.7809 185.201 33.6288 184.814 34.2968C184.554 34.7458 184.077 35 183.585 35" fill="#CDEAFA" blush:i="0.0.0.0.0.5"/><path id="Fill 24" fill-rule="evenodd" clip-rule="evenodd" d="M75.3517 136C74.7693 136 74.2066 135.733 73.9077 135.263C73.855 135.183 72.6286 133.25 71.1143 129.936C70.7824 129.206 71.1978 128.384 72.0461 128.097C72.8901 127.815 73.8484 128.169 74.1847 128.898C75.6111 132.027 76.7847 133.883 76.7979 133.902C77.2331 134.588 76.943 135.45 76.143 135.824C75.8924 135.945 75.6199 136 75.3517 136" fill="#CDEAFA" blush:i="0.0.0.0.0.6"/><path id="Fill 26" fill-rule="evenodd" clip-rule="evenodd" d="M136.204 40.52C135.52 40.52 134.912 40.0288 134.776 39.3216C134.622 38.5134 135.135 37.7349 135.924 37.5765C139.838 36.796 143.743 36.2671 147.535 36.0017C148.275 35.9641 149.033 36.5603 149.087 37.3824C149.142 38.2004 148.537 38.9096 147.733 38.9651C144.064 39.2226 140.28 39.7356 136.488 40.4923C136.393 40.5101 136.298 40.52 136.204 40.52M170.545 40.8489C170.426 40.8489 170.31 40.835 170.191 40.8053C166.633 39.902 162.886 39.2939 159.049 38.9928C158.247 38.9294 157.646 38.2163 157.706 37.3982C157.769 36.5781 158.449 35.9938 159.273 36.0294C163.271 36.3444 167.179 36.9802 170.895 37.9211C171.676 38.1192 172.152 38.9254 171.956 39.7218C171.793 40.3972 171.198 40.8489 170.545 40.8489M114.183 47.4016C113.61 47.4016 113.068 47.0549 112.836 46.4825C112.527 45.7238 112.883 44.8542 113.627 44.5412C117.304 42.9961 120.997 41.6353 124.598 40.5002C125.375 40.2665 126.186 40.6983 126.423 41.4808C126.66 42.2652 126.229 43.0972 125.461 43.3408C121.941 44.4481 118.334 45.7773 114.739 47.2887C114.556 47.3659 114.37 47.4016 114.183 47.4016M93.705 58.1478C93.2328 58.1478 92.7663 57.914 92.4884 57.4822C92.0414 56.7988 92.2261 55.8777 92.8985 55.4241C95.3103 53.7958 97.9145 52.2309 100.635 50.769C101.444 50.3352 102.248 49.9094 103.049 49.4993C103.766 49.1289 104.645 49.426 105.006 50.1589C105.37 50.8899 105.078 51.7852 104.359 52.1537C103.578 52.5558 102.789 52.9698 101.996 53.3977C99.3585 54.814 96.8379 56.3274 94.5077 57.9002C94.2589 58.0685 93.9791 58.1478 93.705 58.1478M76.9603 74.1334C76.6649 74.1334 76.3676 74.0423 76.1091 73.8521C75.4561 73.3727 75.3084 72.4437 75.7787 71.7781C78.0117 68.6206 80.6509 65.5958 83.6263 62.7929C84.2133 62.2383 85.1403 62.27 85.6864 62.8761C86.2325 63.4783 86.1975 64.4172 85.6048 64.9758C82.7732 67.6421 80.2642 70.5183 78.1439 73.5153C77.8601 73.9175 77.4131 74.1334 76.9603 74.1334M68.1546 95.6357C68.0749 95.6357 67.9933 95.6297 67.9117 95.6139C67.1187 95.4792 66.5823 94.7126 66.7164 93.9044C67.3753 89.8892 68.4753 85.9849 69.9853 82.3025C70.2963 81.5418 71.1514 81.1872 71.8918 81.5022C72.6342 81.8211 72.986 82.6907 72.677 83.4474C71.2524 86.9218 70.2146 90.6043 69.5908 94.3957C69.4722 95.1207 68.8542 95.6357 68.1546 95.6357M68.9514 119C68.2809 119 67.6765 118.527 67.5288 117.831C66.6679 113.828 66.1548 109.823 66.0013 105.93C65.9682 105.108 66.594 104.419 67.3986 104.385C68.2401 104.346 68.8814 104.989 68.9125 105.809C69.0602 109.529 69.5519 113.36 70.3759 117.197C70.5489 117.998 70.0514 118.79 69.2643 118.966C69.1593 118.988 69.0544 119 68.9514 119" fill="#CDEAFA" blush:i="0.0.0.0.0.7"/><path id="Fill 28" fill-rule="evenodd" clip-rule="evenodd" d="M188.53 49C188.219 49 187.906 48.9 187.64 48.6941C187.622 48.6801 185.974 47.4047 182.827 45.8474C182.099 45.4856 181.794 44.59 182.146 43.8444C182.499 43.1007 183.375 42.7908 184.107 43.1487C187.554 44.8539 189.352 46.2553 189.427 46.3132C190.069 46.819 190.19 47.7586 189.697 48.4143C189.407 48.7981 188.973 49 188.53 49" fill="#CDEAFA" blush:i="0.0.0.0.0.8"/><path id="Fill 30" fill-rule="evenodd" clip-rule="evenodd" d="M87.4125 138C86.8766 138 86.3513 137.753 86.0527 137.307C85.9997 137.227 84.7141 135.297 83.132 132.006C82.7825 131.279 83.151 130.433 83.9559 130.119C84.7692 129.802 85.699 130.14 86.0442 130.864C87.5353 133.961 88.7616 135.806 88.7722 135.823C89.2233 136.502 88.984 137.384 88.2342 137.793C87.978 137.933 87.6941 138 87.4125 138" fill="#CDEAFA" blush:i="0.0.0.0.0.9"/><path id="Fill 32" fill-rule="evenodd" clip-rule="evenodd" d="M136.169 51.812C135.503 51.812 134.902 51.3517 134.748 50.6671C134.565 49.8744 135.058 49.0816 135.844 48.9006C139.987 47.9367 144.136 47.2974 148.175 47.0003C148.966 46.9846 149.679 47.5511 149.74 48.3636C149.798 49.176 149.194 49.8842 148.389 49.9432C144.497 50.2284 140.5 50.8461 136.499 51.7727C136.388 51.8002 136.278 51.812 136.169 51.812M172.538 52.4946C172.4 52.4946 172.259 52.475 172.117 52.4297C168.359 51.2887 164.407 50.5019 160.379 50.0907C159.576 50.0081 158.989 49.2862 159.071 48.4757C159.153 47.6652 159.895 47.0613 160.671 47.1557C164.886 47.5865 169.02 48.4108 172.959 49.6068C173.731 49.8409 174.171 50.6632 173.937 51.4442C173.746 52.0835 173.165 52.4946 172.538 52.4946M113.219 60.3456C112.681 60.3456 112.168 60.0486 111.911 59.5332C111.547 58.8053 111.839 57.9181 112.56 57.5522C116.353 55.6264 120.178 53.9366 123.932 52.5241C124.684 52.2448 125.528 52.6304 125.813 53.3936C126.093 54.1549 125.709 55.0067 124.951 55.2919C121.299 56.665 117.571 58.3135 113.874 60.1882C113.661 60.2944 113.439 60.3456 113.219 60.3456M93.1509 74.3676C92.7767 74.3676 92.4064 74.2259 92.1199 73.9387C91.5469 73.3643 91.545 72.4299 92.1141 71.8535C94.9185 68.9992 98.1732 66.3002 101.785 63.8295C102.453 63.3711 103.361 63.5501 103.815 64.2249C104.269 64.8976 104.094 65.8163 103.426 66.2746C99.9682 68.6392 96.8597 71.2142 94.1877 73.9309C93.9032 74.222 93.5251 74.3676 93.1509 74.3676M80.9371 95.4832C80.8143 95.4832 80.6895 95.4674 80.5687 95.436C79.7852 95.2294 79.3175 94.4248 79.5221 93.638C80.5823 89.5227 82.2155 85.5647 84.3769 81.8743C84.7881 81.176 85.6807 80.9379 86.3784 81.3569C87.0742 81.77 87.3041 82.6749 86.8929 83.3772C84.8719 86.8296 83.344 90.5318 82.35 94.3796C82.1785 95.0445 81.586 95.4832 80.9371 95.4832M80.9117 120C80.2471 120 79.643 119.538 79.489 118.851C78.5282 114.582 78.0273 110.351 78 106.271C77.9942 105.457 78.6451 104.792 79.452 104.786H79.4617C80.2647 104.786 80.9176 105.441 80.9234 106.251C80.9487 110.119 81.4243 114.138 82.3403 118.198C82.5196 118.991 82.0265 119.784 81.2372 119.965C81.13 119.988 81.0209 120 80.9117 120" fill="#CDEAFA" blush:i="0.0.0.0.0.10"/><path id="Fill 34" fill-rule="evenodd" clip-rule="evenodd" d="M189.499 61C189.159 61 188.815 60.8893 188.535 60.6659C188.519 60.6526 186.865 59.3372 183.766 57.6783C183.042 57.2907 182.788 56.4183 183.192 55.7272C183.598 55.0381 184.512 54.8014 185.234 55.1793C188.607 56.9853 190.393 58.4152 190.467 58.4763C191.101 58.9841 191.181 59.887 190.647 60.4903C190.351 60.8282 189.927 61 189.499 61" fill="#CDEAFA" blush:i="0.0.0.0.0.11"/></g><g id="Group Copy" blush:i="0.0.0.0.1"><path id="Fill 12_2" fill-rule="evenodd" clip-rule="evenodd" d="M194.529 88C195.108 88 195.663 88.3361 195.92 88.9087C195.961 88.9999 196.945 91.2073 197.949 95.0432C198.165 95.873 197.679 96.7257 196.866 96.9456C196.034 97.1717 195.208 96.6717 194.994 95.844C194.063 92.2861 193.147 90.2219 193.137 90.2032C192.788 89.4211 193.129 88.4958 193.895 88.1411C194.101 88.0436 194.317 88 194.529 88" fill="#CDEAFA" blush:i="0.0.0.0.1.0"/><path id="Fill 14_2" fill-rule="evenodd" clip-rule="evenodd" d="M88.4603 196.698C88.5051 196.698 88.5519 196.7 88.5986 196.704C92.3427 197.061 96.1551 197.142 100.359 196.907C101.164 196.86 101.856 197.486 101.901 198.303C101.946 199.123 101.33 199.82 100.523 199.866C96.3266 200.101 92.2414 200.026 88.3258 199.654C87.5228 199.577 86.9322 198.854 87.0063 198.041C87.0784 197.273 87.7138 196.698 88.4603 196.698M123.948 192.418C124.568 192.418 125.143 192.821 125.342 193.451C125.586 194.231 125.161 195.065 124.391 195.312C120.465 196.575 116.501 197.596 112.609 198.349C111.818 198.509 111.052 197.976 110.9 197.172C110.748 196.368 111.266 195.592 112.059 195.44C115.838 194.709 119.69 193.716 123.506 192.487C123.654 192.44 123.802 192.418 123.948 192.418M145.895 182.724C146.407 182.724 146.906 182.998 147.175 183.486C147.565 184.201 147.31 185.103 146.604 185.5C143.002 187.523 139.348 189.361 135.744 190.961C135.009 191.289 134.144 190.949 133.818 190.199C133.493 189.45 133.83 188.577 134.571 188.249C138.093 186.685 141.665 184.89 145.185 182.909C145.411 182.783 145.655 182.724 145.895 182.724M165.837 169.269C166.268 169.269 166.695 169.46 166.981 169.829C167.484 170.471 167.379 171.401 166.747 171.909C165.344 173.039 163.884 174.162 162.366 175.278C160.588 176.588 158.762 177.877 156.942 179.109C156.269 179.562 155.361 179.378 154.915 178.699C154.466 178.019 154.648 177.099 155.32 176.645C157.109 175.434 158.902 174.17 160.649 172.883C162.134 171.79 163.559 170.692 164.927 169.59C165.198 169.373 165.517 169.269 165.837 169.269M182.78 152.158C183.092 152.158 183.406 152.259 183.673 152.468C184.312 152.97 184.427 153.9 183.932 154.546C181.527 157.694 178.806 160.794 175.843 163.763C175.267 164.337 174.341 164.333 173.776 163.751C173.208 163.17 173.212 162.232 173.787 161.657C176.658 158.78 179.293 155.776 181.622 152.733C181.909 152.356 182.342 152.158 182.78 152.158M194.213 130.932C194.369 130.932 194.527 130.957 194.681 131.011C195.447 131.271 195.856 132.113 195.597 132.887C194.315 136.732 192.65 140.546 190.654 144.227C190.264 144.944 189.376 145.208 188.668 144.811C187.961 144.416 187.703 143.516 188.091 142.799C190.007 139.272 191.599 135.616 192.829 131.939C193.034 131.321 193.603 130.932 194.213 130.932M197.439 107C198.209 107 198.854 107.61 198.897 108.396C198.963 109.579 199 110.808 199 112.075C199 114.988 198.801 117.925 198.411 120.807C198.3 121.616 197.579 122.199 196.763 122.072C195.963 121.96 195.404 121.213 195.515 120.402C195.887 117.657 196.076 114.854 196.076 112.075C196.076 110.865 196.039 109.694 195.977 108.566C195.932 107.748 196.548 107.047 197.353 107.002C197.382 107 197.41 107 197.439 107" fill="#CDEAFA" blush:i="0.0.0.0.1.1"/><path id="Fill 16_2" fill-rule="evenodd" clip-rule="evenodd" d="M69.5623 192C69.7871 192 70.0181 192.046 70.2346 192.148C70.2554 192.156 72.2433 193.065 75.861 194.047C76.6916 194.272 77.1745 195.102 76.9414 195.9C76.7103 196.698 75.8631 197.175 75.0159 196.94C71.1047 195.882 68.9711 194.899 68.8837 194.859C68.1073 194.498 67.7825 193.602 68.1531 192.854C68.4216 192.315 68.9815 192 69.5623 192" fill="#CDEAFA" blush:i="0.0.0.0.1.2"/><path id="Fill 18_2" fill-rule="evenodd" clip-rule="evenodd" d="M182.652 82C183.23 82 183.792 82.2606 184.094 82.7232C184.147 82.8044 185.401 84.7325 186.891 88.0767C187.217 88.8057 186.789 89.6252 185.936 89.9047C185.083 90.1879 184.127 89.8178 183.803 89.087C182.408 85.9561 181.222 84.1263 181.211 84.1074C180.766 83.4257 181.048 82.5627 181.846 82.1813C182.101 82.0585 182.379 82 182.652 82" fill="#CDEAFA" blush:i="0.0.0.0.1.3"/><path id="Fill 20_2" fill-rule="evenodd" clip-rule="evenodd" d="M80.4692 184.972C80.5516 184.972 80.634 184.978 80.7164 184.993C84.5558 185.642 88.5443 186 92.5721 186.063C93.3844 186.074 94.0318 186.742 94.02 187.553C94.0063 188.358 93.351 189 92.5486 189H92.527C88.3521 188.933 84.2105 188.561 80.2259 187.888C79.4254 187.755 78.884 186.995 79.0213 186.196C79.141 185.479 79.7649 184.972 80.4692 184.972M116.582 183.137C117.237 183.137 117.837 183.578 118.006 184.241C118.206 185.027 117.732 185.828 116.945 186.027C112.907 187.053 108.836 187.825 104.844 188.32C104.008 188.416 103.3 187.849 103.202 187.046C103.102 186.239 103.673 185.504 104.479 185.407C108.352 184.927 112.301 184.179 116.217 183.182C116.339 183.151 116.462 183.137 116.582 183.137M139.257 174.613C139.799 174.613 140.319 174.91 140.578 175.427C140.939 176.154 140.643 177.035 139.915 177.397C136.179 179.252 132.397 180.908 128.667 182.318C127.92 182.608 127.058 182.226 126.772 181.465C126.484 180.707 126.864 179.859 127.625 179.571C131.263 178.196 134.955 176.579 138.604 174.765C138.814 174.662 139.038 174.613 139.257 174.613M159.93 161.972C160.375 161.972 160.819 162.174 161.109 162.558C161.598 163.206 161.466 164.126 160.817 164.614C159.23 165.806 157.535 167.003 155.784 168.174C154.052 169.327 152.335 170.42 150.638 171.458C149.942 171.887 149.038 171.663 148.614 170.972C148.192 170.279 148.408 169.374 149.1 168.951C150.768 167.935 152.449 166.86 154.15 165.73C155.855 164.592 157.503 163.427 159.047 162.266C159.312 162.068 159.624 161.972 159.93 161.972M177.063 144.935C177.363 144.935 177.666 145.027 177.926 145.213C178.584 145.691 178.731 146.609 178.254 147.265C175.912 150.487 173.192 153.628 170.169 156.604C169.592 157.17 168.657 157.17 168.088 156.589C167.517 156.011 167.524 155.081 168.103 154.511C171.011 151.648 173.624 148.63 175.87 145.54C176.159 145.145 176.608 144.935 177.063 144.935M187.116 123.069C187.224 123.069 187.334 123.081 187.442 123.104C188.236 123.283 188.733 124.068 188.554 124.861C187.648 128.877 186.298 132.829 184.548 136.603C184.205 137.341 183.33 137.654 182.594 137.317C181.856 136.977 181.536 136.103 181.876 135.367C183.541 131.781 184.821 128.029 185.684 124.215C185.837 123.531 186.445 123.069 187.116 123.069M187.495 99C188.191 99 188.811 99.4974 188.941 100.204C189.643 104.058 190 107.945 190 111.758L189.994 112.545C189.982 113.35 189.325 113.992 188.523 113.992H188.501C187.687 113.981 187.039 113.313 187.051 112.502L187.057 111.758C187.057 108.122 186.716 104.411 186.045 100.731C185.898 99.9321 186.429 99.1704 187.228 99.0215C187.318 99.0078 187.406 99 187.495 99" fill="#CDEAFA" blush:i="0.0.0.0.1.4"/><path id="Fill 22_2" fill-rule="evenodd" clip-rule="evenodd" d="M63.4148 180C63.6523 180 63.8917 180.059 64.1123 180.184C64.1292 180.193 65.8766 181.16 69.0678 182.301C69.8029 182.564 70.1818 183.362 69.9141 184.084C69.6502 184.807 68.8359 185.177 68.1027 184.917C64.6589 183.685 62.789 182.644 62.7118 182.599C62.0351 182.219 61.7994 181.371 62.1859 180.703C62.446 180.254 62.9229 180 63.4148 180" fill="#CDEAFA" blush:i="0.0.0.0.1.5"/><path id="Fill 24_2" fill-rule="evenodd" clip-rule="evenodd" d="M171.648 79C172.231 79 172.793 79.2665 173.092 79.7372C173.145 79.8166 174.371 81.7504 175.886 85.064C176.218 85.7937 175.802 86.616 174.954 86.9033C174.11 87.1849 173.152 86.8315 172.815 86.1018C171.389 82.9734 170.215 81.1171 170.202 81.0982C169.767 80.412 170.057 79.5501 170.857 79.1758C171.108 79.0548 171.38 79 171.648 79" fill="#CDEAFA" blush:i="0.0.0.0.1.6"/><path id="Fill 26_2" fill-rule="evenodd" clip-rule="evenodd" d="M110.796 174.48C111.48 174.48 112.088 174.971 112.224 175.678C112.378 176.487 111.865 177.265 111.076 177.424C107.162 178.204 103.257 178.733 99.4655 178.998C98.725 179.036 97.9671 178.44 97.9127 177.618C97.8583 176.8 98.4627 176.09 99.2673 176.035C102.936 175.777 106.72 175.264 110.512 174.508C110.607 174.49 110.702 174.48 110.796 174.48M76.4551 174.151C76.5737 174.151 76.6903 174.165 76.8088 174.195C80.3673 175.098 84.1142 175.706 87.9506 176.007C88.7532 176.071 89.3538 176.784 89.2935 177.602C89.2313 178.422 88.5511 179.006 87.7271 178.971C83.7294 178.656 79.8212 178.02 76.1053 177.079C75.324 176.881 74.8479 176.075 75.0442 175.278C75.2074 174.603 75.8021 174.151 76.4551 174.151M132.817 167.598C133.39 167.598 133.932 167.945 134.164 168.518C134.473 169.276 134.117 170.146 133.373 170.459C129.696 172.004 126.003 173.365 122.402 174.5C121.625 174.734 120.814 174.302 120.577 173.519C120.34 172.735 120.771 171.903 121.539 171.659C125.059 170.552 128.666 169.223 132.261 167.711C132.444 167.634 132.63 167.598 132.817 167.598M153.295 156.852C153.767 156.852 154.234 157.086 154.512 157.518C154.959 158.201 154.774 159.122 154.102 159.576C151.69 161.204 149.085 162.769 146.365 164.231C145.556 164.665 144.752 165.091 143.951 165.501C143.234 165.871 142.355 165.574 141.994 164.841C141.63 164.11 141.922 163.215 142.641 162.846C143.422 162.444 144.211 162.03 145.004 161.602C147.641 160.186 150.162 158.673 152.492 157.1C152.741 156.931 153.021 156.852 153.295 156.852M170.04 140.867C170.335 140.867 170.632 140.958 170.891 141.148C171.544 141.627 171.692 142.556 171.221 143.222C168.988 146.379 166.349 149.404 163.374 152.207C162.787 152.762 161.86 152.73 161.314 152.124C160.768 151.522 160.802 150.583 161.395 150.024C164.227 147.358 166.736 144.482 168.856 141.485C169.14 141.083 169.587 140.867 170.04 140.867M178.845 119.364C178.925 119.364 179.007 119.37 179.088 119.386C179.881 119.521 180.418 120.287 180.284 121.096C179.625 125.111 178.525 129.015 177.015 132.698C176.704 133.458 175.849 133.813 175.108 133.498C174.366 133.179 174.014 132.309 174.323 131.553C175.748 128.078 176.785 124.396 177.409 120.604C177.528 119.879 178.146 119.364 178.845 119.364M178.049 96C178.719 96 179.324 96.4734 179.471 97.1687C180.332 101.172 180.845 105.177 180.999 109.07C181.032 109.892 180.406 110.581 179.601 110.615C178.76 110.654 178.119 110.011 178.087 109.191C177.94 105.471 177.448 101.64 176.624 97.8026C176.451 97.0023 176.949 96.21 177.736 96.0337C177.841 96.0119 177.946 96 178.049 96" fill="#CDEAFA" blush:i="0.0.0.0.1.7"/><path id="Fill 28_2" fill-rule="evenodd" clip-rule="evenodd" d="M58.4696 166C58.7808 166 59.0939 166.1 59.3601 166.306C59.3777 166.32 61.0256 167.595 64.1725 169.153C64.9006 169.514 65.2059 170.41 64.8536 171.156C64.5013 171.899 63.6246 172.209 62.8926 171.851C59.4462 170.146 57.6477 168.745 57.5733 168.687C56.9314 168.181 56.81 167.241 57.3032 166.586C57.5929 166.202 58.0273 166 58.4696 166" fill="#CDEAFA" blush:i="0.0.0.0.1.8"/><path id="Fill 30_2" fill-rule="evenodd" clip-rule="evenodd" d="M159.588 77C160.123 77 160.649 77.2468 160.947 77.6926C161 77.7729 162.286 79.7034 163.868 82.9941C164.218 83.7211 163.849 84.5668 163.044 84.8805C162.231 85.1981 161.301 84.8595 160.956 84.1363C159.465 81.0388 158.238 79.1945 158.228 79.1772C157.777 78.4981 158.016 77.6161 158.766 77.2066C159.022 77.067 159.306 77 159.588 77" fill="#CDEAFA" blush:i="0.0.0.0.1.9"/><path id="Fill 32_2" fill-rule="evenodd" clip-rule="evenodd" d="M110.831 163.188C111.497 163.188 112.098 163.648 112.252 164.333C112.435 165.126 111.942 165.918 111.156 166.099C107.013 167.063 102.864 167.703 98.8255 168C98.0342 168.015 97.3209 167.449 97.2605 166.636C97.202 165.824 97.8062 165.116 98.6111 165.057C102.503 164.772 106.5 164.154 110.501 163.227C110.612 163.2 110.722 163.188 110.831 163.188M74.4621 162.505C74.6005 162.505 74.7408 162.525 74.8831 162.57C78.6406 163.711 82.593 164.498 86.6214 164.909C87.4243 164.992 88.011 165.714 87.9291 166.524C87.8472 167.335 87.1047 167.939 86.329 167.844C82.1135 167.413 77.9799 166.589 74.0411 165.393C73.2694 165.159 72.8289 164.337 73.0628 163.556C73.2538 162.917 73.8346 162.505 74.4621 162.505M133.781 154.654C134.319 154.654 134.832 154.951 135.089 155.467C135.453 156.195 135.161 157.082 134.44 157.448C130.647 159.374 126.822 161.063 123.068 162.476C122.316 162.755 121.472 162.37 121.187 161.606C120.907 160.845 121.291 159.993 122.049 159.708C125.701 158.335 129.429 156.686 133.126 154.812C133.339 154.706 133.561 154.654 133.781 154.654M153.849 140.632C154.223 140.632 154.594 140.774 154.88 141.061C155.453 141.636 155.455 142.57 154.886 143.146C152.081 146.001 148.827 148.7 145.215 151.171C144.547 151.629 143.639 151.45 143.185 150.775C142.731 150.102 142.906 149.184 143.574 148.725C147.032 146.361 150.14 143.786 152.812 141.069C153.097 140.778 153.475 140.632 153.849 140.632M166.063 119.517C166.186 119.517 166.31 119.533 166.431 119.564C167.215 119.771 167.682 120.575 167.478 121.362C166.418 125.477 164.784 129.435 162.623 133.126C162.212 133.824 161.319 134.062 160.622 133.643C159.926 133.23 159.696 132.325 160.107 131.623C162.128 128.17 163.656 124.468 164.65 120.62C164.821 119.956 165.414 119.517 166.063 119.517M166.088 95C166.753 95 167.357 95.4623 167.511 96.1488C168.472 100.418 168.973 104.649 169 108.729C169.006 109.543 168.355 110.208 167.548 110.214H167.538C166.735 110.214 166.082 109.559 166.077 108.749C166.051 104.881 165.576 100.862 164.66 96.8019C164.48 96.0092 164.974 95.2164 165.763 95.0354C165.87 95.0118 165.979 95 166.088 95" fill="#CDEAFA" blush:i="0.0.0.0.1.10"/><path id="Fill 34_2" fill-rule="evenodd" clip-rule="evenodd" d="M57.5012 154C57.8411 154 58.1851 154.111 58.465 154.334C58.481 154.347 60.1348 155.663 63.2343 157.322C63.9581 157.709 64.2121 158.582 63.8082 159.273C63.4022 159.962 62.4884 160.199 61.7665 159.821C58.393 158.015 56.6073 156.585 56.5333 156.524C55.8994 156.016 55.8194 155.113 56.3534 154.51C56.6493 154.172 57.0732 154 57.5012 154" fill="#CDEAFA" blush:i="0.0.0.0.1.11"/></g></g></g></g></g></svg>