<svg viewBox="7.049999999999997 7.049999999999997 79.90000000000002 79.90000000000002" fill="none" xmlns="http://www.w3.org/2000/svg" xmlns:xlink="http://www.w3.org/1999/xlink" xmlns:blush="http://design.blush" overflow="visible" width="79.90000000000002px" height="79.90000000000002px"><g id="Master/New Stickers/Check Button" blush:has-customizable-colors="true" blush:viewBox="7.049999999999997 7.049999999999997 79.43000000000002 79.43000000000002" blush:i="0"><g id="Group 293" blush:i="0.0"><path id="Ellipse 11 (Stroke)" fill-rule="evenodd" clip-rule="evenodd" d="M46.9078 84.8379C67.9516 84.8379 85.011 67.7785 85.011 46.7347C85.011 25.6908 67.9516 8.63144 46.9078 8.63144C25.8639 8.63144 8.80455 25.6908 8.80455 46.7347C8.80455 67.7785 25.8639 84.8379 46.9078 84.8379ZM46.9078 86.128C68.6641 86.128 86.3012 68.491 86.3012 46.7347C86.3012 24.9783 68.6641 7.34126 46.9078 7.34126C25.1514 7.34126 7.51437 24.9783 7.51437 46.7347C7.51437 68.491 25.1514 86.128 46.9078 86.128Z" fill="#EABD91" blush:i="0.0.0"/><g id="Group 279" blush:i="0.0.1"><path id="Vector 18 (Stroke)" fill-rule="evenodd" clip-rule="evenodd" d="M67.4077 30.9469C68.6577 32.0618 68.7673 33.979 67.6523 35.229L38.1316 68.3263C37.5729 68.9528 36.7794 69.3196 35.9401 69.3395C35.1009 69.3594 34.2909 69.0305 33.7031 68.4312L20.1436 54.6063C18.9708 53.4105 18.9894 51.4903 20.1852 50.3174C21.381 49.1446 23.3012 49.1632 24.4741 50.359L35.7632 61.8691L63.1256 31.1915C64.2406 29.9415 66.1577 29.832 67.4077 30.9469Z" fill="#EABD91" blush:i="0.0.1.0"/></g></g></g></svg>