<svg viewBox="19.97500000000001 15.274999999999991 54.05 63.45" fill="none" xmlns="http://www.w3.org/2000/svg" xmlns:xlink="http://www.w3.org/1999/xlink" xmlns:blush="http://design.blush" overflow="visible" width="54.05px" height="63.45px"><g id="Master/New Stickers/Coffee Mug" blush:has-customizable-colors="true" blush:viewBox="20.210000000000008 15.510000000000005 54.05 63.45" blush:i="0"><g id="Group 271" blush:i="0.0"><path id="Ellipse 3" d="M53.6488 72.7981C53.6488 76.0283 47.1023 78.6469 39.0268 78.6469C30.9513 78.6469 24.4048 76.0283 24.4048 72.7981C24.4048 69.5679 30.9513 66.9493 39.0268 66.9493C47.1023 66.9493 53.6488 69.5679 53.6488 72.7981Z" fill="#FFACA7" blush:i="0.0.0"/><path id="Subtract" fill-rule="evenodd" clip-rule="evenodd" d="M58.8524 70.6478C67.2366 70.6478 74.0334 64.1783 74.0334 56.1978C74.0334 48.2173 67.2366 41.7478 58.8524 41.7478C50.4681 41.7478 43.6713 48.2173 43.6713 56.1978C43.6713 64.1783 50.4681 70.6478 58.8524 70.6478ZM58.8524 64.7383C63.789 64.7383 67.7908 60.9146 67.7908 56.1978C67.7908 51.481 63.789 47.6574 58.8524 47.6574C53.9159 47.6574 49.914 51.481 49.914 56.1978C49.914 60.9146 53.9159 64.7383 58.8524 64.7383Z" fill="#FED6D3" blush:i="0.0.1"/><path id="Fill 3764" fill-rule="evenodd" clip-rule="evenodd" d="M20.2762 38.7299C20.2762 38.7299 22.1977 68.0263 22.1977 70.809C22.1977 73.5924 28.9204 76.6257 38.6827 76.6257C47.886 76.6257 55.171 75.1205 55.6133 70.809C56.1993 65.0963 57.7826 38.7299 57.7826 38.7299H20.2762Z" fill="#FED6D3" blush:i="0.0.2"/><path id="Fill 3766" fill-rule="evenodd" clip-rule="evenodd" d="M57.7826 38.7299C57.7826 37.0712 49.3865 35.7271 39.0294 35.7271C28.6723 35.7271 20.2762 37.0712 20.2762 38.7299C20.2762 40.3887 28.6723 41.7327 39.0294 41.7327C49.3865 41.7327 57.7826 40.3887 57.7826 38.7299" fill="#FFACA7" blush:i="0.0.3"/><path id="Fill 3768" fill-rule="evenodd" clip-rule="evenodd" d="M55.5408 40.1137C55.5408 39.211 48.1473 38.4794 39.0261 38.4794C29.9058 38.4794 22.5123 39.211 22.5123 40.1137C22.5123 41.0163 29.9058 41.7479 39.0261 41.7479C48.1473 41.7479 55.5408 41.0163 55.5408 40.1137" fill="#A27B64" blush:i="0.0.4"/><path id="Vector 1 (Stroke)" fill-rule="evenodd" clip-rule="evenodd" d="M36.7076 15.8612C37.2286 16.1461 37.4199 16.7994 37.135 17.3204C36.7629 18.0006 36.7421 18.6316 36.9315 19.2136C37.1302 19.8239 37.5821 20.4357 38.2369 20.9595C40.1053 22.4543 40.3498 25.1646 39.3868 27.0906C38.9535 27.9573 38.3416 28.7 37.7843 29.3489C37.6975 29.45 37.6121 29.5487 37.5284 29.6455C37.0494 30.1995 36.624 30.6913 36.2738 31.2271C35.8779 31.8328 35.621 32.4359 35.5583 33.121C35.4956 33.8063 35.6188 34.667 36.1347 35.7964C36.3814 36.3365 36.1436 36.9743 35.6035 37.2211C35.0634 37.4678 34.4255 37.2299 34.1788 36.6898C33.542 35.2957 33.3132 34.0587 33.4169 32.925C33.5207 31.7911 33.9488 30.8539 34.474 30.0505C34.9103 29.383 35.4438 28.7673 35.919 28.2188C35.9989 28.1266 36.0772 28.0362 36.1531 27.9479C36.707 27.3029 37.1602 26.7356 37.4635 26.129C38.0708 24.9144 37.8114 23.3729 36.8936 22.6386C35.9986 21.9226 35.2462 20.9832 34.8868 19.8792C34.5182 18.7469 34.5855 17.5006 35.2484 16.2885C35.5334 15.7676 36.1867 15.5762 36.7076 15.8612Z" fill="white" blush:i="0.0.5"/><path id="Vector 2 (Stroke)" fill-rule="evenodd" clip-rule="evenodd" d="M44.5793 16.172C44.9286 16.6522 44.8226 17.3246 44.3424 17.6739C42.1628 19.2596 43.0715 21.6663 44.1123 22.0863L44.3153 22.1683L44.4701 22.3231C44.5137 22.3667 44.558 22.4108 44.6028 22.4555C45.8783 23.728 47.5975 25.4431 47.5975 27.857C47.5975 28.8163 47.1889 29.5763 46.6567 30.1663C46.145 30.7335 45.4849 31.1822 44.8901 31.5535C44.6571 31.6989 44.4393 31.8297 44.2323 31.9541C43.8641 32.1754 43.5299 32.3761 43.205 32.602C42.71 32.9461 42.4285 33.2262 42.2952 33.4706C42.0096 33.9942 41.8821 34.6998 41.9122 35.5449C41.942 36.3821 42.124 37.2809 42.3802 38.1239C42.5528 38.6921 42.2321 39.2926 41.664 39.4652C41.0958 39.6378 40.4953 39.3172 40.3227 38.749C40.0301 37.7858 39.8016 36.6968 39.7633 35.6215C39.7252 34.5541 39.8721 33.4225 40.4075 32.4409C40.7862 31.7466 41.4071 31.233 41.9776 30.8364C42.3575 30.5723 42.8026 30.3043 43.2112 30.0583C43.4029 29.9429 43.5865 29.8324 43.7516 29.7293C44.3216 29.3736 44.7622 29.0561 45.0601 28.726C45.3374 28.4185 45.4472 28.1499 45.4472 27.857C45.4472 26.4556 44.4674 25.3672 43.0892 23.9834C40.4718 22.7116 39.79 18.3268 43.0774 15.9351C43.5576 15.5858 44.23 15.6918 44.5793 16.172Z" fill="white" blush:i="0.0.6"/></g></g></svg>