<svg viewBox="43.224999999999994 -2.783236994219635 160.55 216.47398843930637" fill="none" xmlns="http://www.w3.org/2000/svg" xmlns:xlink="http://www.w3.org/1999/xlink" xmlns:blush="http://design.blush" overflow="visible" width="160.55px" height="216.47398843930637px"><g id="Master/Stickers/Pink Outdoor 2" blush:has-customizable-colors="true" blush:viewBox="45.69499999999999 -1.1120092378752702 156.845 214.98845265588915" blush:i="0"><g id="Group Copy" blush:i="0.0"><g id="Group 62" blush:i="0.0.0"><path id="Fill 5066" fill-rule="evenodd" clip-rule="evenodd" d="M164.078 55.3462C163.913 55.4472 163.749 55.5512 163.56 55.6092C163.742 55.5392 163.901 55.4192 164.078 55.3462" fill="#FC9B98" blush:i="0.0.0.0"/><path id="Fill 5068" fill-rule="evenodd" clip-rule="evenodd" d="M156.762 56.8618C156.743 56.8778 156.724 56.8908 156.708 56.9128C156.727 56.8808 156.736 56.8568 156.762 56.8618" fill="#FC9B98" blush:i="0.0.0.1"/><path id="Fill 5070" fill-rule="evenodd" clip-rule="evenodd" d="M159.911 56.7426C159.941 56.8156 159.661 56.7636 159.574 56.8216C159.574 56.5666 159.824 56.6416 159.911 56.7426" fill="#FC9B98" blush:i="0.0.0.2"/><path id="Fill 5072" fill-rule="evenodd" clip-rule="evenodd" d="M173.605 81.2885C173.474 81.2445 173.342 81.1885 173.216 81.1265C173.35 81.1725 173.508 81.1745 173.605 81.2885" fill="#FC9B98" blush:i="0.0.0.3"/><path id="Fill 5074" fill-rule="evenodd" clip-rule="evenodd" d="M163.831 55.2485C163.982 55.2055 164.124 55.1425 164.262 55.0665C164.14 55.2025 164.075 55.2515 163.831 55.2485" fill="#FC9B98" blush:i="0.0.0.4"/><path id="Fill 5076" fill-rule="evenodd" clip-rule="evenodd" d="M162.085 63.2358C162.09 63.1898 162.107 63.1488 162.136 63.1108C162.112 63.1488 162.095 63.1908 162.085 63.2358" fill="#FC9B98" blush:i="0.0.0.5"/><path id="Fill 5078" fill-rule="evenodd" clip-rule="evenodd" d="M161.016 56.5981C161.518 56.4111 162.021 56.2231 162.521 56.0301C162.026 56.2421 161.528 56.4431 161.016 56.5981" fill="#FC9B98" blush:i="0.0.0.6"/><path id="Fill 5080" fill-rule="evenodd" clip-rule="evenodd" d="M160.544 56.1879C160.623 56.1459 160.709 56.1059 160.797 56.0969C161.638 55.9169 160.189 56.3079 160.544 56.1879" fill="#FC9B98" blush:i="0.0.0.7"/><path id="Fill 5082" fill-rule="evenodd" clip-rule="evenodd" d="M173.322 80.9703C173.618 81.1423 173.47 81.0553 173.322 80.9703C173.477 81.0363 173.62 81.1503 173.322 80.9703" fill="#FC9B98" blush:i="0.0.0.8"/><path id="Fill 5084" fill-rule="evenodd" clip-rule="evenodd" d="M156.977 57.52C156.988 57.53 156.983 57.524 156.977 57.52C156.983 57.524 156.989 57.529 156.977 57.52" fill="#FC9B98" blush:i="0.0.0.9"/><path id="Fill 5086" fill-rule="evenodd" clip-rule="evenodd" d="M95.8861 7.41639C95.8891 7.41139 95.8901 7.40939 95.8931 7.40539L95.8861 7.41639Z" fill="#FC9B98" blush:i="0.0.0.10"/><path id="Fill 5088" fill-rule="evenodd" clip-rule="evenodd" d="M131.639 140.679C131.636 140.654 131.638 140.666 131.639 140.679C131.628 140.667 131.621 140.655 131.639 140.679" fill="#FC9B98" blush:i="0.0.0.11"/><path id="Fill 5090" fill-rule="evenodd" clip-rule="evenodd" d="M58.8341 48.6089C58.8311 48.6119 58.8291 48.6189 58.8241 48.6179L58.8341 48.6089Z" fill="#FC9B98" blush:i="0.0.0.12"/><path id="Fill 5092" fill-rule="evenodd" clip-rule="evenodd" d="M54.71 133.888C55.11 133.704 55.969 132.442 55 132.755C54.625 133.021 54.25 133.703 54.71 133.888V133.888ZM55.834 132.571C59.514 128.801 68.507 123.503 71.244 122.465C65.546 125.638 59.7 125.203 54.7 125.825C66.446 124.689 57.617 128.922 55.834 132.571V132.571ZM57.228 137.167C57.332 135.55 59.252 132.996 58.738 131.855C58.293 133.188 56.522 135.649 57.228 137.167V137.167ZM60.795 134.957C62.355 136.235 63.611 132.381 63.186 131.242C61.779 129.782 60.025 133.7 60.795 134.957V134.957ZM65.173 135.585C66.033 133.267 66.349 130.298 67.398 127.857C65.856 129.595 64.899 133.283 65.173 135.585V135.585ZM68.206 134.864C70.472 138.969 73.249 130.205 72.237 128.016C68.938 126.699 67.778 132.42 68.206 134.864V134.864ZM110.258 134.293C129.606 189.148 101.27 62.4751 88.306 57.8691C88.638 61.1661 86.928 64.9781 85.735 67.7821C85.758 65.3421 82.384 59.0811 83.716 64.6721C85.806 86.9881 106.122 109.16 110.258 134.293V134.293ZM114.393 151.141C116.486 156.617 116.329 180.499 119.415 165.411C121.12 161.656 113.368 145.095 114.393 151.141V151.141ZM119.821 151.183C121.234 169.431 126.059 122.684 122.834 118.599C121.426 119.551 115.513 124.592 116.85 119.988C108.353 102.268 119.69 142.798 119.821 151.183V151.183ZM122.056 163.553C128.716 196.237 130.659 125.597 131.013 111.538C119.63 122.724 127.386 147.325 122.056 163.553V163.553ZM124.592 109.513C124.481 110.897 126.101 114.013 127.326 112.033C127.595 110.952 125.26 108.279 124.592 109.513V109.513ZM131.019 109.933C131.985 107.347 124.188 100.438 124.906 104.798C127.325 105.533 130.337 109.805 131.019 109.933V109.933ZM130.758 99.3361C130.375 98.4991 127.292 96.9821 127.178 98.6561C128.458 100.513 131.731 103.461 130.758 99.3361V99.3361ZM130.52 93.3181C129.986 92.2531 127.182 91.1841 126.208 92.5291C126.397 93.5431 131.166 95.1731 130.52 93.3181V93.3181ZM109.722 103.068C109.768 105.353 114.045 104.369 114.114 102.407C113.625 101.215 110.252 102.166 109.722 103.068V103.068ZM110.223 98.3681C111.6 98.2051 117.67 99.3581 115.186 96.7361C113.442 94.7701 105.591 97.1731 110.223 98.3681V98.3681ZM129.895 83.7981C126.546 70.9901 132.356 39.4841 114.696 59.2591C106.931 65.9561 109.921 76.5701 103.176 61.7661C101.48 58.1001 97.755 55.3811 95.931 52.3161C96.706 49.9781 107.463 41.5721 101.243 43.1391C93.356 50.8921 98.799 52.6191 91.248 49.8161C89.646 63.6511 104.004 77.2711 106.234 91.9611C106.463 94.1601 107.992 91.3751 109.302 91.7261C112.078 90.1571 114.896 93.5991 117.533 91.9561C116.755 88.3781 109.588 90.4871 107.035 91.7911C109.985 86.6411 115.251 80.2761 120.719 86.1031C127.639 81.9361 130.556 87.0571 129.895 83.7981V83.7981ZM126.604 42.4691C126.046 41.6041 125.293 40.5411 124.25 40.1711C124.759 40.8691 125.984 42.7031 126.604 42.4691V42.4691ZM120.551 52.1771C122.302 53.9311 118.248 46.5581 116.043 46.4901C117.595 48.1331 119.7 49.8961 120.551 52.1771V52.1771ZM123.291 45.2181C121.918 41.9051 115.9 35.8741 112.761 39.3891C114.959 40.8481 125.513 50.9381 123.291 45.2181V45.2181ZM122.045 38.2901C120.882 37.6741 119.641 36.1951 118.477 36.0391C118.909 36.9101 123.698 40.4931 122.045 38.2901V38.2901ZM117.762 35.4161C115.796 34.1551 113.307 33.1461 111.812 31.8421C112.824 33.0871 116.853 36.1201 117.762 35.4161V35.4161ZM111.231 42.3671C109.279 41.1181 111.353 43.2281 112.438 43.7821C112.624 43.1361 111.623 42.7901 111.231 42.3671V42.3671ZM111.305 31.4041C110.656 30.8931 110.172 30.0171 109.384 29.7751C108.993 30.3561 111.896 32.3801 111.305 31.4041V31.4041ZM107.578 38.8961C106.582 38.7431 109.184 41.1921 109.784 41.7241C110.377 40.9871 108.045 39.7831 107.578 38.8961V38.8961ZM109.699 54.1021C109.093 53.4511 107.865 52.4981 107.003 51.5671C107.094 52.6081 109.604 54.5761 109.699 54.1021V54.1021ZM114.852 45.2051C114.228 44.7871 113.688 44.2271 113.015 43.8961C111.758 43.6581 116.277 47.0481 114.852 45.2051V45.2051ZM115.65 46.1741C115.297 46.3971 116.028 46.4521 115.961 46.2091C115.854 46.1861 115.734 46.2091 115.65 46.1741V46.1741ZM110.146 54.7601C111.296 55.3981 111.59 56.9411 112.688 57.4621C112.655 56.6601 110.643 53.8981 110.146 54.7601V54.7601ZM111.191 50.6141C113.036 54.1071 117.949 53.5911 114.35 49.7281C111.807 46.4881 105.891 46.7141 111.191 50.6141V50.6141ZM108.927 28.9421C108.31 28.4111 106.361 24.7961 107.085 26.3171C106.85 26.9901 108.814 30.1271 108.927 28.9421V28.9421ZM107.852 12.4151C107.585 11.8691 107.551 12.9241 107.569 13.1891C107.849 13.0401 108.011 12.7181 107.852 12.4151V12.4151ZM107.312 13.8391C107.398 13.9511 107.466 13.8251 107.543 13.7681C107.49 13.5971 107.384 13.7591 107.312 13.8391V13.8391ZM106.768 16.8161C106.582 17.6701 106.759 19.0791 106.482 19.5521C107.322 19.2191 107.437 16.9781 106.768 16.8161V16.8161ZM106.93 16.1841C106.85 16.2241 106.885 16.2821 106.888 16.3491C106.986 16.3231 106.946 16.2651 106.93 16.1841V16.1841ZM106.819 16.5381C106.799 16.5781 106.768 16.6181 106.813 16.6461C106.829 16.6061 106.87 16.5691 106.819 16.5381V16.5381ZM104.895 49.3221C104.922 50.0861 104.727 50.8951 105.026 51.6141C105.912 50.5411 105.168 45.9991 104.895 49.3221V49.3221ZM104.885 41.9291C105.253 44.0251 104.46 45.8601 105.322 47.5811C105.413 46.2601 105.627 38.9451 104.885 41.9291V41.9291ZM105.214 38.9231C105.169 39.9381 105.83 38.1691 105.576 37.7771C105.27 36.9831 104.733 38.6061 105.214 38.9231V38.9231ZM105.927 27.0641C105.813 29.1841 104.539 36.3571 105.663 36.7001C105.645 33.7431 106.625 30.1451 105.927 27.0641V27.0641ZM106.174 26.3121C106.219 26.3641 106.289 26.5811 106.288 26.4041C106.316 26.2891 106.249 26.2671 106.174 26.3121V26.3121ZM106.27 24.8741C106.157 25.0581 105.937 25.3201 106.25 25.3991C106.528 25.2801 106.492 25.0291 106.27 24.8741V24.8741ZM106.08 24.6931C106.254 24.7671 106.289 24.8011 106.378 24.6581C106.251 24.5571 106.222 24.5621 106.08 24.6931V24.6931ZM106.404 23.9491C106.145 24.4301 106.649 22.7171 106.337 22.7361C106.63 22.8261 105.683 23.5791 106.404 23.9491V23.9491ZM104.852 55.3691C105.224 58.9451 104.727 62.1941 105.86 65.6641C105.698 63.0901 105.151 49.1851 104.852 55.3691V55.3691ZM106.137 19.9361C103.265 25.1651 98.134 27.3231 93.187 29.6841C98.114 28.9291 106.332 22.7301 106.137 19.9361V19.9361ZM106.106 14.0741C105.906 14.3231 105.599 14.5491 105.373 14.6941C105.623 14.6341 106.462 13.8201 106.106 14.0741V14.0741ZM104.998 15.0431C103.53 16.0031 101.272 17.3131 99.899 17.5091C100.898 18.3271 105.569 15.5701 104.998 15.0431V15.0431ZM98.443 17.5001C98.105 17.5081 98.351 17.8791 98.505 17.9071C98.953 17.7891 98.86 17.5991 98.443 17.5001V17.5001ZM98.071 17.7601C97.9 17.3101 97.321 17.6101 96.941 17.6711C97.164 18.1361 98.065 18.3921 98.071 17.7601V17.7601ZM96.65 17.6521C96.347 17.9931 96.629 18.0251 96.888 17.8481C97.027 17.9451 96.745 17.7481 96.65 17.6521V17.6521ZM96.025 21.2811C92.28 21.3191 80.853 27.5671 83.858 29.2021C87.068 23.7071 93.597 25.6171 98.523 23.3071C103.504 20.3231 99.498 20.0571 96.025 21.2811V21.2811ZM94.36 17.5761C92.074 17.8791 89.698 17.4731 87.831 18.4711C88.334 17.8951 95.149 18.7781 94.36 17.5761V17.5761ZM93.328 45.3641C92.025 46.2841 98.193 41.2901 99.925 40.2961C97.426 41.1761 94.545 43.2311 93.328 45.3641V45.3641ZM92.484 46.8321C92.652 47.0291 92.767 47.0291 92.784 46.7411C92.711 46.6281 92.583 46.7991 92.484 46.8321V46.8321ZM90.948 41.2281C93.596 38.0191 97.794 35.7481 101.1 32.9721C101.724 26.5611 91.017 38.1501 90.948 41.2281V41.2281ZM89.626 31.5951C96.313 26.6851 84.908 33.2951 85.424 38.0171C85.186 40.8011 87.375 32.3551 89.626 31.5951V31.5951ZM89.491 44.6711C89.926 43.9591 90.651 42.7281 90.754 41.7621C89.804 42.0161 89.376 44.3031 89.491 44.6711V44.6711ZM82.13 34.4571C76.399 36.3431 84.752 44.6221 88.006 44.9231C85.327 42.4451 84.794 35.4791 82.13 34.4571V34.4571ZM82.231 47.6321C81.791 47.3241 80.563 45.5761 80.437 46.2031C80.593 46.7321 82.109 48.2741 82.231 47.6321V47.6321ZM78.946 48.1071C71.927 44.7471 80.577 54.2851 81.694 56.5781C83.765 55.4611 79.902 50.0761 78.946 48.1071V48.1071ZM77.03 54.7741C77.741 55.7781 79.148 59.0621 79.22 58.8471C79.239 57.9971 76.833 53.1271 77.03 54.7741V54.7741ZM82.528 48.7101C83.513 49.8111 84.305 51.3841 85.418 52.2031C85.522 51.3211 82.602 47.4511 82.528 48.7101V48.7101ZM132.58 102.444C133.795 103.436 133.16 100.174 132.459 101.093C132.503 101.587 132.541 102.015 132.58 102.444V102.444ZM127.775 44.7621C127.84 45.1341 128.559 45.8891 128.56 45.2151C127.988 44.0131 126.419 42.6251 127.775 44.7621V44.7621ZM116.696 21.7811C117.7 21.7811 118.773 22.2361 119.672 22.0441C119.844 21.8211 115.971 21.1011 116.696 21.7811V21.7811ZM120.623 22.3281C121.121 22.3311 123.348 23.0481 122.746 22.3161C122.259 22.3421 120.402 21.8151 120.623 22.3281V22.3281ZM75.057 33.3511C74.468 33.5751 74.195 35.1511 74.256 35.8791C74.868 35.4851 74.938 34.0471 75.057 33.3511V33.3511ZM73.025 55.2131C66.648 48.5411 72.204 60.0221 73.949 62.7611C76.39 61.1451 74.273 57.1491 73.025 55.2131V55.2131ZM72.839 39.3901C72.693 39.5401 72.764 39.5981 72.957 39.6181C73.084 39.5351 72.9 39.4641 72.839 39.3901V39.3901ZM72.582 40.1251C72.734 40.3961 72.807 40.5601 72.969 40.2561C72.834 40.1751 72.75 40.0021 72.582 40.1251V40.1251ZM71.947 41.3281C72.126 41.4641 72.194 41.5261 72.334 41.3431C72.176 41.2071 72.118 41.1011 71.947 41.3281V41.3281ZM72.305 34.5881C71.472 34.8101 70.531 34.7141 69.759 35.0861C70.224 35.4711 72.965 35.0051 72.305 34.5881V34.5881ZM72.167 30.2431C67.38 23.3561 54.261 33.2501 67.661 30.3831C69.078 30.4961 72.615 33.1641 72.167 30.2431V30.2431ZM68.994 45.8911C66.107 48.7821 57.196 69.1551 61.1 61.7291C62.093 57.0721 75.138 37.1541 68.994 45.8911V45.8911ZM60.364 55.3871C58.591 54.3641 56.22 57.0581 56.909 58.4061C57.992 58.9951 62.776 56.4711 60.364 55.3871V55.3871ZM58.615 69.5091C59.443 69.5001 59.233 66.3531 59.492 66.3671C58.778 66.8711 58.813 68.5531 58.615 69.5091V69.5091ZM64.102 62.7401C64.771 66.9131 67.625 63.7801 66.076 61.1071C64.945 57.9721 63.043 60.6251 64.102 62.7401V62.7401ZM73.294 75.6521C71.642 74.3961 67.95 78.5061 68.955 80.1691C70.987 81.1951 73.43 77.3881 73.294 75.6521V75.6521ZM68.12 78.4851C68.093 78.4901 68.066 78.5031 68.04 78.5131C68.069 78.5681 68.205 78.5041 68.12 78.4851V78.4851ZM49.327 136.8C51.255 130.957 52.801 120.536 59.599 119.615C61.104 120.081 64.907 123.22 64.885 119.911C56.118 114.297 65.328 113.686 69.69 119.117C73.3 123.112 66.468 114.514 63.421 114.513C65.194 112.543 70.289 111.432 72.781 112.555C74.632 113.873 75.044 116.05 76.246 117.67C76.682 116.778 74.561 114.376 74.032 113.086C73.28 111.093 82.314 117.348 79.9 121.018C84.077 123.707 95.289 124.391 100.478 130.102C122.756 155.652 90.625 84.9971 81.612 74.8151C76.298 79.6621 74.501 88.2831 73.907 95.0111C67.4 90.2661 63.722 71.8541 75.318 69.5301C79.887 66.4761 71.422 67.6521 69.743 69.0811C68.972 69.0181 71.042 64.0811 69.582 65.4021C70.429 68.6221 62.873 67.0481 60.56 69.3941C58.749 69.9991 57.302 73.8141 57.107 70.4211C56.861 67.0361 54.552 63.0061 58.687 61.5791C53.207 63.9261 53.657 53.6661 59.167 52.6441C55.51 54.9201 50.574 56.5781 55.499 49.9751C58.049 47.8121 62.354 49.2371 64.462 46.6011C62.026 44.7131 55.825 48.9511 52.926 50.6481C50.955 46.7301 58.17 43.9161 61.263 42.7311C58.048 42.8051 54.824 45.3541 52.639 47.7391C49.867 43.1391 56.254 40.5601 60.522 39.9781C79.504 37.8721 60.481 35.0221 52.812 41.4991C53.333 34.8301 76.26 34.1321 57.365 36.4931C46.167 44.4041 61.454 20.2711 69.684 24.4821C76.674 28.7261 71.826 32.2111 81.642 29.7991C81.419 24.4701 83.057 19.3601 87.07 18.3191C76.425 21.7821 91.209 2.38613 99.915 8.02913C101.245 7.97913 107.625 11.0071 104.341 8.22813C94.444 2.69813 78.861 11.5601 97.29 0.452132C102.713 -1.46587 105.433 7.06913 110.371 6.23213C116.429 -1.75287 126.9 -2.70887 132.03 7.15313C145.111 34.9201 132.919 11.9111 121.037 12.5721C112.309 15.3811 130.082 16.0051 132.477 18.7251C145.657 30.2681 131.722 23.0661 124.398 22.8611C135.186 23.2751 142.41 29.4701 135.877 38.5781C132.844 33.4541 121.03 21.8451 116.387 28.4441C122.802 31.8621 133.356 33.4441 135.497 41.1981C133.476 45.3381 129.788 47.9041 127.017 50.6271C131.426 65.3311 128.346 82.4431 136.161 95.2541C139.214 102.086 130.374 90.6741 133.044 95.6931C139.397 98.7361 129.501 125.046 131.995 136.138C131.445 145.985 127.094 200.539 121.984 169.131C121.128 169.943 124.205 180.014 120.712 177.355C120.34 175.355 120.706 166.81 119.21 171.947C118.338 174.145 117.294 182.342 115.528 177.375C116.509 157.203 111.282 133.732 90.408 126.003C78.134 121.436 84.909 125.046 82.699 133.054C78.138 140.553 72.381 138.594 75.569 129.885C75.538 128.251 78.518 121.777 76.261 125.314C74.329 129.519 74.537 134.462 73.907 138.735C71.352 138.881 63.756 140.734 65.122 136.586C64.457 139.246 61.051 138.338 57.529 137.921C52.757 136.733 51.706 138.2 53.577 134.152C52.503 135.001 49.894 138.779 49.327 136.8V136.8Z" fill="#FC9B98" blush:i="0.0.0.13"/><path id="Fill 5094" fill-rule="evenodd" clip-rule="evenodd" d="M115.586 46.1791C115.589 46.1791 115.588 46.1791 115.586 46.1791C115.588 46.1781 115.59 46.1781 115.586 46.1791" fill="#FC9B98" blush:i="0.0.0.14"/><path id="Fill 5096" fill-rule="evenodd" clip-rule="evenodd" d="M69.7092 112.293C69.7062 112.288 69.7142 112.287 69.7172 112.285L69.7092 112.293Z" fill="#FC9B98" blush:i="0.0.0.15"/><path id="Fill 5098" fill-rule="evenodd" clip-rule="evenodd" d="M152.075 53.1187C152.079 53.1157 152.078 53.1157 152.075 53.1187C152.072 53.1117 152.075 53.1107 152.075 53.1187" fill="#FC9B98" blush:i="0.0.0.16"/><path id="Fill 5100" fill-rule="evenodd" clip-rule="evenodd" d="M151.103 108.512C151.104 108.511 151.104 108.511 151.103 108.512C151.103 108.511 151.103 108.51 151.103 108.512" fill="#FC9B98" blush:i="0.0.0.17"/><path id="Fill 5102" fill-rule="evenodd" clip-rule="evenodd" d="M152.082 53.1137C152.079 53.1157 152.077 53.1157 152.074 53.1187C152.074 53.1187 152.084 53.1107 152.082 53.1137" fill="#FC9B98" blush:i="0.0.0.18"/><path id="Fill 5104" fill-rule="evenodd" clip-rule="evenodd" d="M134.821 146.032C134.869 146.016 134.909 145.973 134.971 145.928C134.852 145.749 134.626 146.039 134.821 146.032M162.671 102.548C162.765 102.579 162.966 102.493 162.919 102.39C162.826 102.423 162.754 102.495 162.671 102.548M157.323 104.355C158.769 104.135 161.012 103.428 162.534 102.655C160.788 103.026 158.89 103.49 157.323 104.355M153.69 107.27C153.985 107.762 155.612 106.052 155.853 105.557C155.125 105.389 154.394 106.819 153.69 107.27M154.27 104.087C156.63 102.694 160.549 102.071 162.885 100.552C161.55 97.5887 154.287 100.93 154.27 104.087M135.236 155.13C141.39 140.298 148.519 124.706 159.191 112.799C156.709 112.323 152.999 121.305 152.546 117.184C151.648 110.992 172.381 102.758 157.677 108.695C153.946 112.119 149.335 118.229 152.667 109.294C152.48 107.652 151.414 112.06 151.165 110.866C148.179 91.0527 167.384 101.023 169.143 92.0247C166.655 89.6217 161.699 90.3007 162.811 85.5547C163.712 81.6387 167.97 72.1377 162.519 80.8237C163.88 91.8167 155.968 94.0897 157.937 81.8787C159.953 77.1247 166.485 68.7977 159.502 77.6107C155.772 80.9697 157.215 86.3697 157.208 89.9727C143.092 89.1897 139.191 140.172 135.236 155.13M159.476 118.186C162.047 118.589 164.703 115.289 166.122 113.499C165.001 111.158 158.497 116.273 159.476 118.186M161.675 120.922C162.955 118.868 164.66 117.521 166.378 116.182C164.611 116.612 161.743 118.965 161.675 120.922M167.466 100.076C167.808 100.492 168.706 102.893 168.777 101.594C167.708 99.8857 165.019 96.4587 167.466 100.076M167.473 115.664C168.027 115.448 169.896 113.665 168.809 114.084C168.456 114.431 166.266 115.642 167.473 115.664M169.859 99.7537C173.868 102.275 183.345 100.144 174.219 98.3027C173.478 97.8747 168.397 97.7917 169.859 99.7537M171.919 109.767C173.394 113.918 173.437 124.597 173.769 115.473C182.022 121.456 171.042 112.833 171.919 109.767M172.892 131.544C173.236 131.331 173.542 131.089 173.066 130.834C173.027 131.069 172.748 131.361 172.892 131.544M174.35 122.632C174.703 123.258 176.273 125.887 176.597 124.718C176.519 124.494 174.397 122.01 174.35 122.632M177.802 123.625C180.107 126.463 179.062 120.864 177.191 120.434C174.075 119.553 176.856 122.652 177.802 123.625M173.549 87.3137C172.487 85.6807 172.458 80.0167 170.576 79.9597C171.691 81.7677 174.13 92.8447 173.549 87.3137M173.467 72.4217C174.085 72.0447 175.347 73.1787 175.873 72.3547C175.199 71.7297 171.344 71.4247 173.467 72.4217M171.128 71.7457C171.134 71.7687 171.16 71.7867 171.183 71.8137C171.233 71.7407 171.147 71.6497 171.128 71.7457M177.601 70.5527C186.342 72.1707 180.513 66.4997 175.317 67.0297C167.451 67.4767 173.194 70.4467 177.601 70.5527M169.634 84.1427C167.774 81.2607 166.849 87.6167 167.627 89.0987C169.905 90.9987 170.216 85.3667 169.634 84.1427M169.645 75.6537C168.507 74.5177 167.975 70.3557 166.91 70.6847C166.387 71.9477 171.503 80.7707 169.645 75.6537M167.402 63.1997C167.384 63.1867 167.336 63.2197 167.276 63.2427C167.359 63.3987 167.508 63.3227 167.402 63.1997M166.73 63.1767C166.467 63.4967 166.625 63.6897 166.801 63.9847C167.129 63.6587 167.073 63.5097 166.73 63.1767M166.45 69.6997C165.69 68.7517 163.063 63.4787 162.911 65.4987C163.71 65.9657 166.107 72.2367 166.45 69.6997M157.704 62.6417C157.315 64.0897 156.136 66.1777 156.313 66.9787C156.395 67.3527 158.323 63.7207 157.704 62.6417M154.916 74.1357C153.467 76.4717 149.916 83.5527 152.071 84.7177C151.716 82.1047 162.476 68.6917 154.916 74.1357M153.927 70.0847C153.555 70.6467 151.888 71.5767 152.529 72.0467C152.954 71.7447 154.574 70.0867 153.927 70.0847M150.446 54.0537C149.299 61.4377 140.862 66.6207 140.134 73.7807C142.529 66.6377 149.462 61.4367 150.446 54.0537M128.925 179.216C134.982 148.558 137.448 117.958 149.553 89.3847C143.324 86.0417 148.246 78.0827 151.383 73.6767C147.768 76.0977 145.693 82.4017 145.896 86.9007C137.779 80.8987 149.295 74.0257 151.645 68.3277C150.278 61.0937 141.923 75.3057 142.458 78.8357C141.419 90.4787 140.523 77.7617 139.859 74.1597C139.707 92.5027 133.493 67.0737 143.433 62.6347C142.1 53.5267 135.745 76.4447 136.435 78.4437C130.167 69.2147 134.412 49.5137 147.21 49.6627C152.756 52.4277 158.265 61.4907 162.218 63.5277C162.212 61.3197 152.744 56.4277 159.934 56.7757C165.203 55.5527 168.418 53.3827 160.798 56.0967C138.639 54.5597 152.176 31.2937 170.581 42.7267C185.803 53.6707 160.565 43.5157 158.149 53.8277C163.822 54.4897 170.269 47.4987 176.755 49.7377C186.059 55.7037 169.326 50.0097 168.492 53.9377C176.63 48.5527 190.843 61.4267 175.576 57.2707C173.782 57.0427 171.677 56.9267 169.775 57.5777C155.6 66.3897 178.876 56.4767 182.651 60.6317C186.221 65.1377 181.093 60.8037 178.977 61.7897C175.854 61.8767 168.677 61.6757 167.935 64.0107C175.049 61.9997 186.998 59.8197 184.715 71.5447C185.391 79.6537 181.425 71.5227 176.784 72.5917C180.312 73.6757 186.206 76.9007 183.183 81.1417C181.251 78.9887 176.741 75.2177 173.951 77.3077C176.591 79.6217 187.051 82.1827 180.586 87.0427C179.309 82.5777 168.364 78.7837 176.886 83.2537C183.384 86.6867 177.684 91.1597 177.178 95.1957C181.923 99.3997 187.453 113.892 177.304 106.809C167.781 106.303 185.837 108.428 182.749 113.374C179.566 110.053 184.059 115.365 182.293 117.822C181.393 118.132 180.089 115.262 178.702 114.855C169.83 112.891 184.282 117.518 181.369 120.601C176.611 115.953 180.408 119.084 180.896 122.436C178.247 129.788 177.961 126.087 177.146 127.247C177.843 129.791 173.559 135.364 171.453 135.433C167.44 132.389 172.615 127.124 171.052 125.949C168.452 127.342 169.395 133.358 166.242 129.167C166.747 125.806 169.093 123.314 171.03 120.718C167.547 124.452 161.151 134.356 165.44 122.999C171.319 117.489 168.191 116.53 164.63 122.811C162.78 129.839 158.942 124.945 154.864 121.681C142.81 137.511 133.395 158.304 132.31 178.899C132.164 182.815 130.594 178.733 130.405 179.012C130.389 180.439 127.839 180.473 128.925 179.216" fill="#FC9B98" blush:i="0.0.0.19"/><path id="Fill 5106" fill-rule="evenodd" clip-rule="evenodd" d="M173.764 81.2319C173.778 81.2399 173.771 81.2359 173.764 81.2319C173.772 81.2349 173.778 81.2399 173.764 81.2319" fill="#FC9B98" blush:i="0.0.0.20"/><path id="Fill 5108" fill-rule="evenodd" clip-rule="evenodd" d="M173.792 81.2408C173.788 81.2428 173.79 81.2418 173.792 81.2408C173.803 81.2508 173.796 81.2488 173.792 81.2408" fill="#FC9B98" blush:i="0.0.0.21"/><path id="Fill 5110" fill-rule="evenodd" clip-rule="evenodd" d="M139.858 74.1586C139.892 74.1626 139.934 74.1626 139.969 74.1666C139.931 74.1636 139.895 74.1606 139.858 74.1586" fill="#FC9B98" blush:i="0.0.0.22"/><path id="Fill 5112" fill-rule="evenodd" clip-rule="evenodd" d="M151.194 108.603C151.193 108.604 151.193 108.604 151.194 108.603C151.196 108.605 151.195 108.605 151.194 108.603" fill="#FC9B98" blush:i="0.0.0.23"/><path id="Fill 5114" fill-rule="evenodd" clip-rule="evenodd" d="M173.766 81.232C173.775 81.235 173.782 81.232 173.792 81.241C173.783 81.248 173.775 81.236 173.766 81.232" fill="#FC9B98" blush:i="0.0.0.24"/><path id="Fill 5116" fill-rule="evenodd" clip-rule="evenodd" d="M52.6846 40.1704C52.4736 39.9464 52.5296 39.8844 52.7006 39.7034C52.9156 39.8684 52.8316 39.9494 52.6846 40.1704" fill="#FC9B98" blush:i="0.0.0.25"/><path id="Fill 5118" fill-rule="evenodd" clip-rule="evenodd" d="M52.7863 38.8813C52.8513 38.6323 52.9013 38.6613 52.9423 38.8823C52.9083 39.0643 52.8353 39.0573 52.7863 38.8813" fill="#FC9B98" blush:i="0.0.0.26"/><path id="Fill 5120" fill-rule="evenodd" clip-rule="evenodd" d="M58.7481 48.4672C58.7081 48.4962 58.7281 48.4822 58.7481 48.4672C58.8281 48.5962 58.7951 48.5962 58.7481 48.4672" fill="#FC9B98" blush:i="0.0.0.27"/><path id="Fill 5122" fill-rule="evenodd" clip-rule="evenodd" d="M58.8127 48.5942C58.8197 48.5992 58.8277 48.6042 58.8337 48.6092C58.8217 48.6252 58.8187 48.6052 58.8127 48.5942" fill="#FC9B98" blush:i="0.0.0.28"/><path id="Fill 5124" fill-rule="evenodd" clip-rule="evenodd" d="M171.806 63.0757C171.642 63.0157 171.668 62.8717 171.837 62.8977C171.93 62.9367 171.955 63.1137 171.806 63.0757" fill="#FC9B98" blush:i="0.0.0.29"/><path id="Fill 5126" fill-rule="evenodd" clip-rule="evenodd" d="M171.806 63.0757C171.834 63.0757 171.863 63.0757 171.892 63.0747C171.863 63.1147 171.837 63.0957 171.806 63.0757" fill="#FC9B98" blush:i="0.0.0.30"/><path id="Fill 5128" fill-rule="evenodd" clip-rule="evenodd" d="M57.324 71.8159C57.321 71.8219 57.307 71.8219 57.303 71.8199L57.324 71.8159Z" fill="#FC9B98" blush:i="0.0.0.31"/><path id="Fill 5130" fill-rule="evenodd" clip-rule="evenodd" d="M169.62 63.6382C169.67 63.6412 169.72 63.6442 169.769 63.6462C169.679 63.7462 169.664 63.7782 169.62 63.6382" fill="#FC9B98" blush:i="0.0.0.32"/><path id="Fill 5132" fill-rule="evenodd" clip-rule="evenodd" d="M184.003 63.0668C183.999 62.9888 184.001 63.0278 184.003 63.0668C183.901 63.0148 183.935 63.0278 184.003 63.0668" fill="#FC9B98" blush:i="0.0.0.33"/><path id="Fill 5134" fill-rule="evenodd" clip-rule="evenodd" d="M180.177 62.4008C180.186 62.3958 180.198 62.3828 180.205 62.3858C180.277 62.4148 180.159 62.4588 180.177 62.4008" fill="#FC9B98" blush:i="0.0.0.34"/><path id="Fill 5136" fill-rule="evenodd" clip-rule="evenodd" d="M63.5851 114.672C63.5671 114.673 63.5501 114.674 63.5321 114.674C63.5371 114.634 63.5761 114.635 63.5851 114.672" fill="#FC9B98" blush:i="0.0.0.35"/><path id="Fill 5138" fill-rule="evenodd" clip-rule="evenodd" d="M161.227 53.4682C161.208 53.4892 161.217 53.4782 161.227 53.4682C161.282 53.4932 161.21 53.5562 161.227 53.4682" fill="#FC9B98" blush:i="0.0.0.36"/><path id="Fill 5140" fill-rule="evenodd" clip-rule="evenodd" d="M135.405 38.4947C135.446 38.5007 135.426 38.4977 135.405 38.4947C135.44 38.4527 135.467 38.4337 135.405 38.4947" fill="#FC9B98" blush:i="0.0.0.37"/><path id="Fill 5142" fill-rule="evenodd" clip-rule="evenodd" d="M135.461 38.4409C135.455 38.4479 135.456 38.4379 135.455 38.4329L135.461 38.4409Z" fill="#FC9B98" blush:i="0.0.0.38"/><path id="Fill 5144" fill-rule="evenodd" clip-rule="evenodd" d="M135.557 38.4282C135.541 38.3832 135.549 38.4062 135.557 38.4282C135.462 38.4462 135.47 38.4162 135.557 38.4282" fill="#FC9B98" blush:i="0.0.0.39"/><path id="Fill 5146" fill-rule="evenodd" clip-rule="evenodd" d="M135.468 38.433C135.459 38.433 135.463 38.433 135.468 38.433C135.463 38.44 135.459 38.442 135.468 38.433" fill="#FC9B98" blush:i="0.0.0.40"/><path id="Fill 5148" fill-rule="evenodd" clip-rule="evenodd" d="M175.49 131.907L175.481 131.891C175.488 131.892 175.489 131.902 175.49 131.907" fill="#FC9B98" blush:i="0.0.0.41"/><path id="Fill 5150" fill-rule="evenodd" clip-rule="evenodd" d="M130.556 23.9594C130.594 23.9814 130.577 24.0154 130.555 24.0474C130.511 24.0214 130.539 23.9924 130.556 23.9594" fill="#FC9B98" blush:i="0.0.0.42"/><path id="Fill 5152" fill-rule="evenodd" clip-rule="evenodd" d="M100.576 44.0366C100.567 44.0366 100.558 44.0366 100.55 44.0356C100.555 44.0206 100.566 44.0326 100.576 44.0366" fill="#FC9B98" blush:i="0.0.0.43"/><path id="Fill 5154" fill-rule="evenodd" clip-rule="evenodd" d="M100.59 44.0444C100.564 44.0334 100.597 44.0384 100.609 44.0384C100.603 44.0404 100.595 44.0464 100.59 44.0444" fill="#FC9B98" blush:i="0.0.0.44"/><path id="Fill 5156" fill-rule="evenodd" clip-rule="evenodd" d="M83.5017 62.1362C83.5367 62.1642 83.5727 62.1942 83.6077 62.2222C83.5367 62.2372 83.5307 62.1722 83.5017 62.1362" fill="#FC9B98" blush:i="0.0.0.45"/><path id="Fill 5158" fill-rule="evenodd" clip-rule="evenodd" d="M83.5016 62.1362C83.5306 62.1722 83.5366 62.2372 83.6076 62.2222C83.4976 62.2842 83.4626 62.2572 83.5016 62.1362" fill="#FC9B98" blush:i="0.0.0.46"/><path id="Fill 5160" fill-rule="evenodd" clip-rule="evenodd" d="M70.8104 56.2954C70.8284 56.2704 70.8464 56.2694 70.8674 56.2914C70.8484 56.3194 70.8314 56.3204 70.8104 56.2954" fill="#FC9B98" blush:i="0.0.0.47"/><path id="Fill 5162" fill-rule="evenodd" clip-rule="evenodd" d="M70.9685 43.4145C71.0335 43.4305 71.0445 43.3315 71.1115 43.3475C71.0635 43.3695 71.0165 43.3925 70.9685 43.4145" fill="#FC9B98" blush:i="0.0.0.48"/><path id="Fill 5164" fill-rule="evenodd" clip-rule="evenodd" d="M71.1106 43.3471C71.0446 43.3311 71.0336 43.4301 70.9676 43.4141C70.9686 43.2901 71.0136 43.2621 71.1106 43.3471" fill="#FC9B98" blush:i="0.0.0.49"/><path id="Fill 5166" fill-rule="evenodd" clip-rule="evenodd" d="M86.0446 36.0337C86.0666 35.9247 86.1006 35.9097 86.1976 35.9877C86.1416 36.0547 86.0956 36.1277 86.0446 36.0337" fill="#FC9B98" blush:i="0.0.0.50"/><path id="Fill 5168" fill-rule="evenodd" clip-rule="evenodd" d="M104.857 55.2993C104.857 55.3343 104.855 55.3523 104.818 55.3263C104.834 55.3163 104.843 55.3093 104.857 55.2993" fill="#FC9B98" blush:i="0.0.0.51"/><path id="Fill 5170" fill-rule="evenodd" clip-rule="evenodd" d="M105.062 55.1773C105.301 55.2253 105.057 55.5433 104.855 55.3433C104.864 55.2473 105.013 55.2073 105.062 55.1773" fill="#FC9B98" blush:i="0.0.0.52"/><path id="Fill 5172" fill-rule="evenodd" clip-rule="evenodd" d="M105.718 63.1509C105.675 63.2769 105.629 63.3099 105.527 63.1849C105.597 63.0869 105.676 63.0259 105.718 63.1509" fill="#FC9B98" blush:i="0.0.0.53"/><path id="Fill 5174" fill-rule="evenodd" clip-rule="evenodd" d="M105.501 63.233C105.469 63.284 105.453 63.246 105.441 63.205C105.462 63.155 105.486 63.2 105.501 63.233" fill="#FC9B98" blush:i="0.0.0.54"/><path id="Fill 5176" fill-rule="evenodd" clip-rule="evenodd" d="M105.201 45.9155C105.147 45.8625 105.132 45.8045 105.205 45.7575C105.229 45.8115 105.225 45.8625 105.201 45.9155" fill="#FC9B98" blush:i="0.0.0.55"/><path id="Fill 5178" fill-rule="evenodd" clip-rule="evenodd" d="M115.586 46.1752C115.586 46.1772 115.586 46.1762 115.586 46.1752C115.587 46.1772 115.59 46.1792 115.586 46.1752" fill="#FC9B98" blush:i="0.0.0.56"/><path id="Fill 5180" fill-rule="evenodd" clip-rule="evenodd" d="M115.589 46.1782C115.606 46.1822 115.654 46.1622 115.647 46.1842C115.628 46.1822 115.608 46.1822 115.589 46.1782" fill="#FC9B98" blush:i="0.0.0.57"/><path id="Fill 5182" fill-rule="evenodd" clip-rule="evenodd" d="M115.583 46.1791L115.586 46.1751C115.586 46.1771 115.586 46.1791 115.583 46.1791" fill="#FC9B98" blush:i="0.0.0.58"/><path id="Fill 5184" fill-rule="evenodd" clip-rule="evenodd" d="M115.589 46.1791C115.618 46.2131 115.604 46.1971 115.589 46.1791C115.633 46.1771 115.658 46.1861 115.589 46.1791" fill="#FC9B98" blush:i="0.0.0.59"/><path id="Fill 5186" fill-rule="evenodd" clip-rule="evenodd" d="M96.7716 17.8237L96.8006 17.8377C96.7956 17.8527 96.7766 17.8257 96.7716 17.8237" fill="#FC9B98" blush:i="0.0.0.60"/><path id="Fill 5188" fill-rule="evenodd" clip-rule="evenodd" d="M151.108 108.515C151.131 108.518 151.169 108.577 151.197 108.599C151.163 108.583 151.138 108.541 151.108 108.515" fill="#FC9B98" blush:i="0.0.0.61"/><path id="Fill 5190" fill-rule="evenodd" clip-rule="evenodd" d="M151.108 108.515C151.1 108.532 151.113 108.549 151.106 108.549C151.108 108.55 151.098 108.497 151.108 108.515" fill="#FC9B98" blush:i="0.0.0.62"/><path id="Fill 5192" fill-rule="evenodd" clip-rule="evenodd" d="M151.149 108.597C151.162 108.603 151.184 108.592 151.192 108.605C151.18 108.603 151.15 108.607 151.149 108.597" fill="#FC9B98" blush:i="0.0.0.63"/><path id="Fill 5194" fill-rule="evenodd" clip-rule="evenodd" d="M151.109 108.551C151.108 108.599 151.155 108.603 151.193 108.605C151.044 108.975 150.844 108.506 151.109 108.551" fill="#FC9B98" blush:i="0.0.0.64"/><path id="Fill 5196" fill-rule="evenodd" clip-rule="evenodd" d="M151.189 108.598C151.192 108.602 151.19 108.6 151.189 108.598C151.194 108.598 151.198 108.598 151.189 108.598" fill="#FC9B98" blush:i="0.0.0.65"/><path id="Fill 5198" fill-rule="evenodd" clip-rule="evenodd" d="M151.104 108.511C151.106 108.51 151.107 108.509 151.108 108.507C151.108 108.513 151.11 108.517 151.104 108.511" fill="#FC9B98" blush:i="0.0.0.66"/><path id="Fill 5200" fill-rule="evenodd" clip-rule="evenodd" d="M151.108 108.551C151.094 108.477 151.161 108.578 151.188 108.598C151.15 108.604 151.116 108.589 151.108 108.551" fill="#FC9B98" blush:i="0.0.0.67"/><path id="Fill 5202" fill-rule="evenodd" clip-rule="evenodd" d="M151.108 108.551C151.113 108.575 151.128 108.589 151.149 108.597C151.122 108.595 151.108 108.579 151.108 108.551" fill="#FC9B98" blush:i="0.0.0.68"/><path id="Fill 5204" fill-rule="evenodd" clip-rule="evenodd" d="M156.961 86.353C156.984 86.337 157.01 86.314 157.018 86.355C156.995 86.385 156.981 86.385 156.961 86.353" fill="#FC9B98" blush:i="0.0.0.69"/><path id="Fill 5206" fill-rule="evenodd" clip-rule="evenodd" d="M153.13 118.82C153.158 118.788 153.187 118.757 153.215 118.725C153.227 118.792 153.173 118.801 153.13 118.82" fill="#FC9B98" blush:i="0.0.0.70"/><path id="Fill 5208" fill-rule="evenodd" clip-rule="evenodd" d="M153.129 118.82C153.172 118.801 153.226 118.792 153.214 118.725C153.308 118.823 153.225 118.824 153.129 118.82" fill="#FC9B98" blush:i="0.0.0.71"/><path id="Fill 5210" fill-rule="evenodd" clip-rule="evenodd" d="M152.254 83.8793C152.226 83.9093 152.197 83.9403 152.168 83.9713C152.107 83.8553 152.244 83.9273 152.254 83.8793" fill="#FC9B98" blush:i="0.0.0.72"/><path id="Fill 5212" fill-rule="evenodd" clip-rule="evenodd" d="M152.255 83.8793C152.245 83.9273 152.108 83.8553 152.169 83.9713C152.022 83.8243 152.095 83.8223 152.255 83.8793" fill="#FC9B98" blush:i="0.0.0.73"/><path id="Fill 5214" fill-rule="evenodd" clip-rule="evenodd" d="M162.973 55.7455C162.834 55.8075 162.739 55.9075 162.701 55.7515C162.804 55.6365 162.837 55.5755 162.973 55.7455" fill="#FC9B98" blush:i="0.0.0.74"/><path id="Fill 5216" fill-rule="evenodd" clip-rule="evenodd" d="M167.491 87.8814C167.496 87.8604 167.51 87.8414 167.519 87.8204C167.577 87.8434 167.519 87.9474 167.491 87.8814" fill="#FC9B98" blush:i="0.0.0.75"/><path id="Fill 5218" fill-rule="evenodd" clip-rule="evenodd" d="M173.141 114.041C173.108 114.064 173.074 114.082 173.051 114.041C173.085 114.023 173.115 113.994 173.141 114.041" fill="#FC9B98" blush:i="0.0.0.76"/><path id="Fill 5220" fill-rule="evenodd" clip-rule="evenodd" d="M172.816 86.7094C172.82 86.7114 172.816 86.7114 172.816 86.7094C172.813 86.7034 172.818 86.7114 172.816 86.7094" fill="#FC9B98" blush:i="0.0.0.77"/><path id="Fill 5222" fill-rule="evenodd" clip-rule="evenodd" d="M172.973 86.3119C173.023 86.3549 173.074 86.3969 173.124 86.4389C173.023 86.4579 172.977 86.4109 172.973 86.3119" fill="#FC9B98" blush:i="0.0.0.78"/><path id="Fill 5224" fill-rule="evenodd" clip-rule="evenodd" d="M172.82 86.7124C172.743 86.5544 172.697 86.3534 172.973 86.3124C173.152 86.4664 173.171 86.9644 172.82 86.7124" fill="#FC9B98" blush:i="0.0.0.79"/><path id="Fill 5226" fill-rule="evenodd" clip-rule="evenodd" d="M166.178 70.5083C166.162 70.4513 166.119 70.4153 166.081 70.3743C166.212 70.3513 166.249 70.3933 166.178 70.5083" fill="#FC9B98" blush:i="0.0.0.80"/></g><g id="Group 52 Copy 2" blush:i="0.0.1"><path id="Fill 1828" fill-rule="evenodd" clip-rule="evenodd" d="M156.764 181.619C159.99 181.608 162.737 181.546 165.484 181.686C167.331 181.78 169.179 181.881 171.009 182.144C172.672 182.383 174.331 182.652 175.978 183.006C176.785 183.179 177.615 183.282 178.423 183.478C178.543 183.507 178.744 183.465 178.721 183.658C178.702 183.807 178.522 183.81 178.387 183.823C177.155 183.936 175.925 184.097 174.691 184.154C172.305 184.265 169.92 184.412 167.532 184.464C165.235 184.515 162.941 184.514 160.643 184.479C159.139 184.457 157.631 184.438 156.131 184.373C154.451 184.301 152.766 184.228 151.089 184.065C149.636 183.925 148.184 183.769 146.733 183.612C146.332 183.569 145.935 183.502 145.536 183.441C145.469 183.431 145.371 183.444 145.359 183.346C145.347 183.249 145.444 183.237 145.504 183.204C146.057 182.907 146.685 182.886 147.278 182.754C149.127 182.344 151.005 182.098 152.889 181.89C154.337 181.732 155.784 181.593 156.764 181.619" fill="#614135" blush:i="0.0.1.0"/><path id="Fill 1832" fill-rule="evenodd" clip-rule="evenodd" d="M182.35 167.391C180.75 167.238 179.096 166.685 177.472 166.7C178.805 164.3 179.448 161.288 181.197 159.056C182.27 158.585 192.201 156.566 189.991 158.777C185.92 159.719 182.71 163.211 182.35 167.391" fill="#FEC3BC" blush:i="0.0.1.1"/><path id="Fill 1834" fill-rule="evenodd" clip-rule="evenodd" d="M201.404 173.053C201.19 172.534 201.221 171.399 200.506 171.388C197.936 163.23 175.588 165.889 189.035 173.042C190.568 176.054 192.469 172.308 194.765 172.173C197.694 171.738 200.871 172.084 199.181 175.585C200.16 175.759 201.613 174.161 201.404 173.053V173.053Z" fill="#FEBAB1" blush:i="0.0.1.2"/><path id="Fill 1838" fill-rule="evenodd" clip-rule="evenodd" d="M174.6 162.727C173.492 164 172.673 165.613 171.638 166.86C172.357 163.351 173.802 159.126 176.495 156.709C163.893 164.539 166.793 174.829 162.912 163.042C163.646 162.73 163.236 161.683 163.79 161.46C163.873 161.805 163.467 163.537 164.043 162.801C168.984 155.064 178.159 147.373 187.535 147.229C181.158 150.006 176.55 156.124 174.6 162.727" fill="#FEC3BC" blush:i="0.0.1.3"/><path id="Fill 1840" fill-rule="evenodd" clip-rule="evenodd" d="M195.147 185.103C192.696 159.811 169.02 174.294 184.636 156.008C178.162 157.885 171.344 164.814 169.627 172.119C168.933 172.651 169.313 172.113 168.96 171.699C168.556 171.77 167.296 171.438 167.653 172.167C167.366 172.623 167.603 171.103 166.902 171.681C167.009 171.061 165.258 171.3 165.139 171.702C164.481 170.877 160.484 169.58 162.043 171.668C161.432 171.343 156.957 169.957 158.562 171.13C153.817 175.027 143.31 162.739 138.495 178.699C137.689 179.951 140.53 180.511 139.576 179.415C140.075 179.041 140.334 180.115 140.755 180.001C142.475 178.081 147.283 174.695 151.178 173.894C157.447 172.146 145.376 180.124 152.052 193.139C150.442 190.276 156.139 186.153 154.041 187.116C164.486 170.911 166.646 187.523 172.49 177.644C173.277 166.9 180.445 177.23 184.867 180.277C191.24 181.21 191.399 181.561 195.147 185.103" fill="#FEDAD4" blush:i="0.0.1.4"/><path id="Fill 1842" fill-rule="evenodd" clip-rule="evenodd" d="M139.452 170.914C140.197 170.283 140.174 170.85 139.999 171.538C139.716 171.419 139.606 171.146 139.452 170.914" fill="#FEC3BC" blush:i="0.0.1.5"/><path id="Fill 1844" fill-rule="evenodd" clip-rule="evenodd" d="M190.054 180.983C190.175 181.129 190.546 180.582 190.516 181.149C190.353 181.121 190.139 181.231 190.054 180.983" fill="#FEDAD4" blush:i="0.0.1.6"/><path id="Fill 1846" fill-rule="evenodd" clip-rule="evenodd" d="M155.204 186.993C155.225 186.791 155.311 186.755 155.466 186.889C155.405 186.993 155.305 186.994 155.204 186.993" fill="#FEC3BC" blush:i="0.0.1.7"/><path id="Fill 1848" fill-rule="evenodd" clip-rule="evenodd" d="M150.268 138.021C150.162 137.957 150.164 137.893 150.27 137.831C150.355 137.895 150.354 137.958 150.268 138.021" fill="#FEC3BC" blush:i="0.0.1.8"/><path id="Fill 1850" fill-rule="evenodd" clip-rule="evenodd" d="M155.107 187.068C155.139 187.043 155.171 187.016 155.204 186.991C155.171 187.016 155.139 187.043 155.107 187.068" fill="#FEC3BC" blush:i="0.0.1.9"/><path id="Fill 1852" fill-rule="evenodd" clip-rule="evenodd" d="M162.839 162.992C162.865 163.025 162.891 163.058 162.917 163.092C167.24 174.011 163.031 165.448 176.041 156.965L176.063 156.99C173.579 158.545 169.715 175.276 169.037 171.889L169.04 171.892C168.763 171.399 168.497 172.286 168.309 171.688C167.988 171.509 168.344 172.316 167.876 171.881C167.814 171.842 167.79 171.694 167.685 171.826C167.551 172.007 167.781 172.138 167.893 172.25C168.205 172.921 166.626 171.989 167.42 171.892L167.422 171.889C167.374 171.43 167.032 171.857 166.88 171.71L166.883 171.713C166.842 171.171 165.87 171.597 165.47 171.475C165.008 171.451 165.527 171.794 165.348 171.906C164.62 171.877 164.298 171.317 163.8 170.929C163.504 170.804 163.256 170.508 162.864 170.787C162.749 170.869 162.488 170.858 162.27 170.665C162.004 170.365 161.338 171.21 161.761 171.308C161.894 171.491 162.39 171.434 162.192 171.797C161.656 171.937 161.027 171.223 160.421 171.325C160.247 171.333 160.128 171.192 160.14 170.991C158.728 168.472 159.218 165.088 158.63 162.285C158.526 159.218 155.595 153.105 160.204 159.232C160.254 159.246 160.29 159.276 160.315 159.32L160.308 159.322C160.422 159.376 160.432 159.498 160.486 159.591H160.489C161.236 160.705 162.074 161.888 162.839 162.992" fill="#FAAAA1" blush:i="0.0.1.10"/><path id="Fill 1854" fill-rule="evenodd" clip-rule="evenodd" d="M152.678 171.267C152.401 170.911 152.837 170.603 152.748 170.259C153.391 169.856 153.659 169.2 154.472 169.849C154.781 170.603 158.462 170.624 156.994 171.705C156.157 171.761 155.524 173.094 154.758 172.5C154.332 171.709 153.409 171.782 152.678 171.267" fill="#EB9B93" blush:i="0.0.1.11"/><path id="Fill 1856" fill-rule="evenodd" clip-rule="evenodd" d="M152.502 175.486C151.977 175.652 152.027 175.102 151.795 174.906C151.291 174.459 150.905 174.635 151.156 173.781C153.982 173.554 154.976 172.939 152.502 175.486" fill="#FAAAA1" blush:i="0.0.1.12"/><path id="Fill 1858" fill-rule="evenodd" clip-rule="evenodd" d="M152.503 175.485C152.416 175.109 152.605 174.962 152.952 174.947C152.893 175.202 152.809 175.436 152.503 175.485" fill="#FEC3BC" blush:i="0.0.1.13"/><path id="Fill 1860" fill-rule="evenodd" clip-rule="evenodd" d="M159.005 171.381C159.556 171.469 158.872 172.004 158.833 171.657C158.871 171.559 158.845 171.406 159.005 171.381" fill="#FEC3BC" blush:i="0.0.1.14"/><path id="Fill 1862" fill-rule="evenodd" clip-rule="evenodd" d="M186.921 176.212C187.313 176.237 186.782 176.678 186.765 176.329C186.772 176.241 186.84 176.213 186.921 176.212" fill="#FEC3BC" blush:i="0.0.1.15"/><path id="Fill 1864" fill-rule="evenodd" clip-rule="evenodd" d="M166.88 171.71C166.895 171.863 166.724 171.926 166.681 171.748L166.883 171.713L166.88 171.71Z" fill="#FEFEFE" blush:i="0.0.1.16"/><path id="Fill 1866" fill-rule="evenodd" clip-rule="evenodd" d="M164.598 171.957C164.581 172.031 164.555 172.042 164.493 171.998C164.51 171.924 164.536 171.912 164.598 171.957" fill="#FEFEFE" blush:i="0.0.1.17"/><path id="Fill 1868" fill-rule="evenodd" clip-rule="evenodd" d="M160.135 170.726C160.05 170.595 159.898 170.546 159.788 170.443C159.524 168.833 159.223 167.265 159.167 165.599C159.032 162.1 157.36 158.635 155.291 155.896C154.865 155.72 154.562 155.301 154.211 154.997C154.113 154.795 153.835 154.773 153.761 154.548C153.285 154.059 147.275 150.167 149.274 152.189C149.667 151.997 149.753 152.653 149.327 152.574C148.808 152.628 149.602 152.903 149.159 153.127C148.94 153.391 149.391 153.282 149.486 153.374C149.47 153.544 149.084 153.414 149.229 153.67C149.356 153.952 149.977 153.429 149.833 153.894C149.418 155.433 148.775 153.985 148.551 154.464C148.521 154.789 149.087 154.798 148.898 155.188C148.853 155.398 148.737 155.114 148.679 155.194C148.496 155.445 147.899 155.113 147.956 155.723C147.969 155.853 147.758 155.785 147.65 155.806C145.612 153.82 149.897 166.801 151.243 167.309C152.099 168.218 153.027 169.141 154.126 169.813C154.211 169.822 154.295 169.83 154.38 169.839C154.706 170.933 157.64 170.259 156.995 171.705C156.931 172.582 158.609 172.071 158.654 171.374C158.615 171.171 159.129 170.749 158.638 170.857C158.485 170.925 158.54 171.293 158.315 171.208C158.266 170.744 158.688 170.384 159.09 170.868C159.175 170.942 159.291 171.04 159.358 170.98C159.634 170.733 159.881 170.986 160.14 170.991C160.138 170.903 160.137 170.814 160.135 170.726" fill="#FEDAD4" blush:i="0.0.1.18"/><path id="Fill 1870" fill-rule="evenodd" clip-rule="evenodd" d="M139.2 179.888C139.148 180.469 138.714 180.017 139.201 179.889L139.2 179.888Z" fill="#FEDAD4" blush:i="0.0.1.19"/><path id="Fill 1872" fill-rule="evenodd" clip-rule="evenodd" d="M188.513 174.282C188.115 174.156 188.786 173.658 188.665 174.063C188.624 174.143 188.654 174.282 188.513 174.282" fill="#FEDAD4" blush:i="0.0.1.20"/><path id="Fill 1874" fill-rule="evenodd" clip-rule="evenodd" d="M187.821 174.587C188.099 174.595 187.829 174.864 187.823 174.586L187.821 174.587Z" fill="#FEDAD4" blush:i="0.0.1.21"/><path id="Fill 1876" fill-rule="evenodd" clip-rule="evenodd" d="M148.899 185.676C148.93 185.669 148.943 185.768 148.963 185.814C148.89 185.779 148.803 185.703 148.899 185.676V185.676ZM150.781 189.088C150.775 189.039 150.759 188.994 150.71 188.964C150.708 188.963 150.708 188.964 150.706 188.964C150.662 188.881 150.622 188.789 150.586 188.689C150.597 188.687 150.605 188.693 150.618 188.69C150.595 188.539 150.67 188.367 150.522 188.244C150.51 188.264 150.489 188.27 150.47 188.28C150.412 188.02 150.371 187.728 150.343 187.406C150.347 187.477 150.376 187.547 150.441 187.616C150.56 187.465 150.566 187.315 150.435 187.166C150.373 187.238 150.343 187.311 150.34 187.383C150.323 187.167 150.31 186.943 150.303 186.706C150.345 186.74 150.375 186.77 150.43 186.81C150.484 186.529 150.32 186.272 150.337 185.994C150.32 186.015 150.314 186.027 150.298 186.045C150.333 181.942 151.51 175.796 149.747 177.025C150.834 177.975 148.457 177.379 147.864 178.356C147.083 177.928 146.833 179.266 146.162 179.474C144.933 179.188 146.047 180.064 145.575 180.308C144.325 179.973 144.826 181.418 144.462 181.242C142.755 181.258 143.655 184.118 142.115 184.328C141.446 184.92 142.438 184.535 142.651 184.626C141.765 185.188 142.894 185.609 142.723 186.294C139.172 186.658 144.498 211.42 146.909 196.423C147.605 193.786 150.777 191.596 150.883 189.232C150.846 189.19 150.814 189.138 150.781 189.088V189.088Z" fill="#FEC3BC" blush:i="0.0.1.22"/><path id="Fill 1878" fill-rule="evenodd" clip-rule="evenodd" d="M157.419 185.607C157.436 185.552 157.481 185.586 157.513 185.605C157.586 185.676 157.452 185.626 157.419 185.607" fill="#FAAAA1" blush:i="0.0.1.23"/><path id="Fill 1880" fill-rule="evenodd" clip-rule="evenodd" d="M157.63 185.734C157.598 185.702 157.567 185.671 157.535 185.638C157.566 185.671 157.6 185.701 157.63 185.734" fill="#FAAAA1" blush:i="0.0.1.24"/><path id="Fill 1882" fill-rule="evenodd" clip-rule="evenodd" d="M160.134 170.727C159.956 170.709 159.851 170.603 159.787 170.444C159.975 170.45 160.14 170.484 160.134 170.727" fill="#FEDAD4" blush:i="0.0.1.25"/><path id="Fill 1884" fill-rule="evenodd" clip-rule="evenodd" d="M161.104 171.266C160.97 171.232 160.951 171.089 161.095 171.099C161.198 171.131 161.187 171.201 161.104 171.266" fill="#FEDAD4" blush:i="0.0.1.26"/><path id="Fill 1886" fill-rule="evenodd" clip-rule="evenodd" d="M169.04 171.893C169.05 171.62 169.311 171.882 169.037 171.89L169.04 171.893Z" fill="#FEDAD4" blush:i="0.0.1.27"/><path id="Fill 1888" fill-rule="evenodd" clip-rule="evenodd" d="M167.422 171.89C167.435 171.903 167.446 171.915 167.459 171.928C167.446 171.916 167.433 171.905 167.42 171.893L167.422 171.89Z" fill="#FEDAD4" blush:i="0.0.1.28"/><path id="Fill 1890" fill-rule="evenodd" clip-rule="evenodd" d="M153.673 169.463L153.667 169.557C153.793 169.691 153.964 169.744 154.126 169.814C154.133 169.492 153.861 169.531 153.673 169.463" fill="#FEBAB1" blush:i="0.0.1.29"/><path id="Fill 1892" fill-rule="evenodd" clip-rule="evenodd" d="M149.766 152.734C149.704 152.69 149.677 152.7 149.661 152.775C149.723 152.82 149.749 152.809 149.766 152.734" fill="#FEBAB1" blush:i="0.0.1.30"/><path id="Fill 1894" fill-rule="evenodd" clip-rule="evenodd" d="M149.174 155.605C149.186 155.598 149.197 155.592 149.209 155.585C149.188 155.558 149.169 155.557 149.143 155.58C149.153 155.588 149.163 155.596 149.174 155.605" fill="#FEBAB1" blush:i="0.0.1.31"/><path id="Fill 1898" fill-rule="evenodd" clip-rule="evenodd" d="M149.636 137C145.7 137.45 149.359 148.168 148.168 150.951C145.443 149.323 141.99 147.978 145.428 151.938C148.164 155.821 131.817 148.815 132.157 158.353C137.25 152.476 142.227 160.119 143.268 165.423C133.695 158.256 121.952 166.549 124.305 177.887C123.167 167.946 134.914 164.749 140.206 171.881C127.687 175.327 127.78 209.182 137.897 188.307C138.515 188.117 141.471 184.541 141.718 186.627C142.791 187.302 141.667 185.397 142.756 186.377C143.24 185.933 142.133 185.306 142.565 184.918C143.063 184.483 142.415 184.519 142.17 184.493C143.449 183.819 143.596 181.44 144.755 181.009C144.369 180.169 146.204 180.74 145.745 179.953C146.091 179.513 147.14 178.522 148.045 178.423C148.454 177.449 150.828 178.163 149.98 177.09C149.38 176.183 151.352 177.597 150.688 178.223C150.611 178.342 150.698 178.483 150.891 178.453C152.191 176.642 152.765 175.505 151.236 173.98C147.72 174.029 141.584 178.457 140.713 179.948C140.392 178.916 138.716 179.422 139.587 179.57C136.29 179.739 141.744 170.937 145.246 170.727C147.756 168.886 151.923 172.106 152.982 170.298C154.466 169.287 152.298 168.29 151.239 167.311C151.24 167.31 151.241 167.31 151.243 167.31C151.202 167.088 151.063 166.963 150.869 166.891C150.81 166.801 150.761 166.711 150.737 166.622C149.839 164.166 146.445 158.156 147.634 156.187C147.664 156.18 147.685 156.146 147.69 156.079C147.781 155.956 147.892 155.852 148.028 155.77C148.224 155.178 149.613 155.47 148.753 154.638C149.285 154.953 150.023 154.473 149.948 153.812C149.002 153.183 150.103 152.274 149.049 151.8C153.798 153.465 156.882 157.793 158.658 162.246C156.865 152.873 159.26 158.721 162.674 162.798C163.172 162.36 163.522 161.725 163.783 160.965C163.794 160.982 163.794 160.999 163.819 161.017C163.909 160.964 163.912 160.905 163.831 160.843C165.01 157.209 164.183 150.711 166.32 147.085C166.892 145.505 168.836 144.402 169.365 142.944C151.275 151.803 165.031 155.912 149.636 137" fill="#FEBAB1" blush:i="0.0.1.32"/><path id="Fill 1900" fill-rule="evenodd" clip-rule="evenodd" d="M196.348 195.082C195.822 190.258 193.355 185.517 189.799 182.209C189.685 182.199 189.644 182.161 189.629 182.048C186.978 180.134 183.099 180.073 180.899 176.827C169.563 165.02 176.088 180.576 168.05 180.967C162.356 179.881 164.62 176.312 158.707 181.662C157.405 182.878 151.959 188.057 155.204 186.993C155.506 186.778 155.995 186.867 156.198 186.452C156.545 186.119 157.583 186.133 157.581 185.692C159.766 185.039 160.163 184.229 159.886 187.086C159.754 187.229 159.752 187.372 159.886 187.516V187.515C159.965 187.898 159.766 188.353 159.979 188.682C160.115 189.421 160.135 190.2 160.421 190.844C160.46 190.969 160.376 191.135 160.513 191.201C160.736 191.776 160.667 192.52 161.127 193.018C162.209 194.978 167.266 208.449 167.57 201.897C169.017 197.358 170.28 192.438 170.678 187.636C171.774 188.345 172.665 189.505 173.972 189.954C173.993 190.143 174.181 190.112 174.327 190.137C176.985 192.092 180.143 194.085 181.042 197.488C181.147 197.96 181.866 197.918 181.91 197.463C183.671 186.864 175.272 177.957 190.72 190.759C190.734 190.969 190.871 191.072 191.057 191.12C191.069 191.148 191.08 191.177 191.091 191.204C191.061 191.486 191.39 191.445 191.494 191.668C191.521 191.838 191.568 191.994 191.776 192.019C191.776 192.019 191.778 192.019 191.778 192.02V192.019C191.782 192.145 191.796 192.266 191.955 192.288C192.196 192.646 192.477 193.046 192.764 193.368C193.523 194.788 196.277 199.021 196.348 195.082" fill="#EB9B93" blush:i="0.0.1.33"/></g><g id="Group 52" blush:i="0.0.2"><path id="Fill 1828_2" fill-rule="evenodd" clip-rule="evenodd" d="M78.7644 174.619C81.9904 174.608 84.7374 174.546 87.4844 174.686C89.3314 174.78 91.1794 174.881 93.0094 175.144C94.6724 175.383 96.3314 175.652 97.9784 176.006C98.7854 176.179 99.6154 176.282 100.423 176.478C100.543 176.507 100.744 176.465 100.721 176.658C100.702 176.807 100.522 176.81 100.387 176.823C99.1554 176.936 97.9254 177.097 96.6914 177.154C94.3054 177.265 91.9204 177.412 89.5324 177.464C87.2354 177.515 84.9414 177.514 82.6434 177.479C81.1394 177.457 79.6314 177.438 78.1314 177.373C76.4514 177.301 74.7664 177.228 73.0894 177.065C71.6364 176.925 70.1844 176.769 68.7334 176.612C68.3324 176.569 67.9354 176.502 67.5364 176.441C67.4694 176.431 67.3714 176.444 67.3594 176.346C67.3474 176.249 67.4444 176.237 67.5044 176.204C68.0574 175.907 68.6854 175.886 69.2784 175.754C71.1274 175.344 73.0054 175.098 74.8894 174.89C76.3374 174.732 77.7844 174.593 78.7644 174.619" fill="#614135" blush:i="0.0.2.0"/><path id="Fill 1832_2" fill-rule="evenodd" clip-rule="evenodd" d="M104.35 160.391C102.75 160.238 101.096 159.685 99.4717 159.7C100.805 157.3 101.448 154.288 103.197 152.056C104.27 151.585 114.201 149.566 111.991 151.777C107.92 152.719 104.71 156.211 104.35 160.391" fill="#FEC3BC" blush:i="0.0.2.1"/><path id="Fill 1834_2" fill-rule="evenodd" clip-rule="evenodd" d="M123.404 166.053C123.19 165.534 123.221 164.399 122.506 164.388C119.936 156.23 97.5879 158.889 111.035 166.042C112.568 169.054 114.469 165.308 116.765 165.173C119.694 164.738 122.871 165.084 121.181 168.585C122.16 168.759 123.613 167.161 123.404 166.053V166.053Z" fill="#FEBAB1" blush:i="0.0.2.2"/><path id="Fill 1838_2" fill-rule="evenodd" clip-rule="evenodd" d="M96.6001 155.727C95.4921 157 94.6731 158.613 93.6381 159.86C94.3571 156.351 95.8021 152.126 98.4951 149.709C85.8931 157.539 88.7931 167.829 84.9121 156.042C85.6461 155.73 85.2361 154.683 85.7901 154.46C85.8731 154.805 85.4671 156.537 86.0431 155.801C90.9841 148.064 100.159 140.373 109.535 140.229C103.158 143.006 98.5501 149.124 96.6001 155.727" fill="#FEC3BC" blush:i="0.0.2.3"/><path id="Fill 1840_2" fill-rule="evenodd" clip-rule="evenodd" d="M117.147 178.103C114.696 152.811 91.0205 167.294 106.636 149.008C100.162 150.885 93.3445 157.814 91.6275 165.119C90.9335 165.651 91.3135 165.113 90.9605 164.699C90.5565 164.77 89.2965 164.438 89.6535 165.167C89.3665 165.623 89.6035 164.103 88.9025 164.681C89.0095 164.061 87.2585 164.3 87.1395 164.702C86.4815 163.877 82.4845 162.58 84.0435 164.668C83.4325 164.343 78.9575 162.957 80.5625 164.13C75.8175 168.027 65.3105 155.739 60.4955 171.699C59.6895 172.951 62.5305 173.511 61.5765 172.415C62.0755 172.041 62.3345 173.115 62.7555 173.001C64.4755 171.081 69.2835 167.695 73.1785 166.894C79.4475 165.146 67.3765 173.124 74.0525 186.139C72.4425 183.276 78.1395 179.153 76.0415 180.116C86.4865 163.911 88.6465 180.523 94.4905 170.644C95.2775 159.9 102.445 170.23 106.867 173.277C113.24 174.21 113.399 174.561 117.147 178.103" fill="#FEDAD4" blush:i="0.0.2.4"/><path id="Fill 1842_2" fill-rule="evenodd" clip-rule="evenodd" d="M61.4521 163.914C62.1971 163.283 62.1741 163.85 61.9991 164.538C61.7161 164.419 61.6061 164.146 61.4521 163.914" fill="#FEC3BC" blush:i="0.0.2.5"/><path id="Fill 1844_2" fill-rule="evenodd" clip-rule="evenodd" d="M112.054 173.983C112.175 174.129 112.546 173.582 112.516 174.149C112.353 174.121 112.139 174.231 112.054 173.983" fill="#FEDAD4" blush:i="0.0.2.6"/><path id="Fill 1846_2" fill-rule="evenodd" clip-rule="evenodd" d="M77.204 179.993C77.225 179.791 77.311 179.755 77.466 179.889C77.405 179.993 77.305 179.994 77.204 179.993" fill="#FEC3BC" blush:i="0.0.2.7"/><path id="Fill 1848_2" fill-rule="evenodd" clip-rule="evenodd" d="M72.2684 131.021C72.1624 130.957 72.1644 130.893 72.2704 130.831C72.3554 130.895 72.3544 130.958 72.2684 131.021" fill="#FEC3BC" blush:i="0.0.2.8"/><path id="Fill 1850_2" fill-rule="evenodd" clip-rule="evenodd" d="M77.1068 180.068C77.1388 180.043 77.1708 180.016 77.2038 179.991C77.1708 180.016 77.1388 180.043 77.1068 180.068" fill="#FEC3BC" blush:i="0.0.2.9"/><path id="Fill 1852_2" fill-rule="evenodd" clip-rule="evenodd" d="M84.8391 155.992C84.8651 156.025 84.8911 156.058 84.9171 156.092C89.2401 167.011 85.0311 158.448 98.0411 149.965L98.0631 149.99C95.5791 151.545 91.7151 168.276 91.0371 164.889L91.0401 164.892C90.7631 164.399 90.4971 165.286 90.3091 164.688C89.9881 164.509 90.3441 165.316 89.8761 164.881C89.8141 164.842 89.7901 164.694 89.6851 164.826C89.5511 165.007 89.7811 165.138 89.8931 165.25C90.2051 165.921 88.6261 164.989 89.4201 164.892L89.4221 164.889C89.3741 164.43 89.0321 164.857 88.8801 164.71L88.8831 164.713C88.8421 164.171 87.8701 164.597 87.4701 164.475C87.0081 164.451 87.5271 164.794 87.3481 164.906C86.6201 164.877 86.2981 164.317 85.8001 163.929C85.5041 163.804 85.2561 163.508 84.8641 163.787C84.7491 163.869 84.4881 163.858 84.2701 163.665C84.0041 163.365 83.3381 164.21 83.7611 164.308C83.8941 164.491 84.3901 164.434 84.1921 164.797C83.6561 164.937 83.0271 164.223 82.4211 164.325C82.2471 164.333 82.1281 164.192 82.1401 163.991C80.7281 161.472 81.2181 158.088 80.6301 155.285C80.5261 152.218 77.5951 146.105 82.2041 152.232C82.2541 152.246 82.2901 152.276 82.3151 152.32L82.3081 152.322C82.4221 152.376 82.4321 152.498 82.4861 152.591H82.4891C83.2361 153.705 84.0741 154.888 84.8391 155.992" fill="#FAAAA1" blush:i="0.0.2.10"/><path id="Fill 1854_2" fill-rule="evenodd" clip-rule="evenodd" d="M74.6784 164.267C74.4014 163.911 74.8374 163.603 74.7484 163.259C75.3914 162.856 75.6594 162.2 76.4724 162.849C76.7814 163.603 80.4624 163.624 78.9944 164.705C78.1574 164.761 77.5244 166.094 76.7584 165.5C76.3324 164.709 75.4094 164.782 74.6784 164.267" fill="#EB9B93" blush:i="0.0.2.11"/><path id="Fill 1856_2" fill-rule="evenodd" clip-rule="evenodd" d="M74.5019 168.486C73.9769 168.652 74.0269 168.102 73.7949 167.906C73.2909 167.459 72.9049 167.635 73.1559 166.781C75.9819 166.554 76.9759 165.939 74.5019 168.486" fill="#FAAAA1" blush:i="0.0.2.12"/><path id="Fill 1858_2" fill-rule="evenodd" clip-rule="evenodd" d="M74.5028 168.485C74.4158 168.109 74.6048 167.962 74.9518 167.947C74.8928 168.202 74.8088 168.436 74.5028 168.485" fill="#FEC3BC" blush:i="0.0.2.13"/><path id="Fill 1860_2" fill-rule="evenodd" clip-rule="evenodd" d="M81.0045 164.381C81.5555 164.469 80.8715 165.004 80.8325 164.657C80.8705 164.559 80.8445 164.406 81.0045 164.381" fill="#FEC3BC" blush:i="0.0.2.14"/><path id="Fill 1862_2" fill-rule="evenodd" clip-rule="evenodd" d="M108.921 169.212C109.313 169.237 108.782 169.678 108.765 169.329C108.772 169.241 108.84 169.213 108.921 169.212" fill="#FEC3BC" blush:i="0.0.2.15"/><path id="Fill 1864_2" fill-rule="evenodd" clip-rule="evenodd" d="M88.8802 164.71C88.8952 164.863 88.7242 164.926 88.6812 164.748L88.8832 164.713L88.8802 164.71Z" fill="#FEFEFE" blush:i="0.0.2.16"/><path id="Fill 1866_2" fill-rule="evenodd" clip-rule="evenodd" d="M86.5984 164.957C86.5814 165.031 86.5554 165.042 86.4934 164.998C86.5104 164.924 86.5364 164.912 86.5984 164.957" fill="#FEFEFE" blush:i="0.0.2.17"/><path id="Fill 1868_2" fill-rule="evenodd" clip-rule="evenodd" d="M82.1349 163.726C82.0499 163.595 81.8979 163.546 81.7879 163.443C81.5239 161.833 81.2229 160.265 81.1669 158.599C81.0319 155.1 79.3599 151.635 77.2909 148.896C76.8649 148.72 76.5619 148.301 76.2109 147.997C76.1129 147.795 75.8349 147.773 75.7609 147.548C75.2849 147.059 69.2749 143.167 71.2739 145.189C71.6669 144.997 71.7529 145.653 71.3269 145.574C70.8079 145.628 71.6019 145.903 71.1589 146.127C70.9399 146.391 71.3909 146.282 71.4859 146.374C71.4699 146.544 71.0839 146.414 71.2289 146.67C71.3559 146.952 71.9769 146.429 71.8329 146.894C71.4179 148.433 70.7749 146.985 70.5509 147.464C70.5209 147.789 71.0869 147.798 70.8979 148.188C70.8529 148.398 70.7369 148.114 70.6789 148.194C70.4959 148.445 69.8989 148.113 69.9559 148.723C69.9689 148.853 69.7579 148.785 69.6499 148.806C67.6119 146.82 71.8969 159.801 73.2429 160.309C74.0989 161.218 75.0269 162.141 76.1259 162.813C76.2109 162.822 76.2949 162.83 76.3799 162.839C76.7059 163.933 79.6399 163.259 78.9949 164.705C78.9309 165.582 80.6089 165.071 80.6539 164.374C80.6149 164.171 81.1289 163.749 80.6379 163.857C80.4849 163.925 80.5399 164.293 80.3149 164.208C80.2659 163.744 80.6879 163.384 81.0899 163.868C81.1749 163.942 81.2909 164.04 81.3579 163.98C81.6339 163.733 81.8809 163.986 82.1399 163.991C82.1379 163.903 82.1369 163.814 82.1349 163.726" fill="#FEDAD4" blush:i="0.0.2.18"/><path id="Fill 1870_2" fill-rule="evenodd" clip-rule="evenodd" d="M61.2003 172.888C61.1483 173.469 60.7143 173.017 61.2013 172.889L61.2003 172.888Z" fill="#FEDAD4" blush:i="0.0.2.19"/><path id="Fill 1872_2" fill-rule="evenodd" clip-rule="evenodd" d="M110.513 167.282C110.115 167.156 110.786 166.658 110.665 167.063C110.624 167.143 110.654 167.282 110.513 167.282" fill="#FEDAD4" blush:i="0.0.2.20"/><path id="Fill 1874_2" fill-rule="evenodd" clip-rule="evenodd" d="M109.821 167.587C110.099 167.595 109.829 167.864 109.823 167.586L109.821 167.587Z" fill="#FEDAD4" blush:i="0.0.2.21"/><path id="Fill 1876_2" fill-rule="evenodd" clip-rule="evenodd" d="M70.899 178.676C70.93 178.669 70.943 178.768 70.963 178.814C70.89 178.779 70.803 178.703 70.899 178.676V178.676ZM72.781 182.088C72.775 182.039 72.759 181.994 72.71 181.964C72.708 181.963 72.708 181.964 72.706 181.964C72.662 181.881 72.622 181.789 72.586 181.689C72.597 181.687 72.605 181.693 72.618 181.69C72.595 181.539 72.67 181.367 72.522 181.244C72.51 181.264 72.489 181.27 72.47 181.28C72.412 181.02 72.371 180.728 72.343 180.406C72.347 180.477 72.376 180.547 72.441 180.616C72.56 180.465 72.566 180.315 72.435 180.166C72.373 180.238 72.343 180.311 72.34 180.383C72.323 180.167 72.31 179.943 72.303 179.706C72.345 179.74 72.375 179.77 72.43 179.81C72.484 179.529 72.32 179.272 72.337 178.994C72.32 179.015 72.314 179.027 72.298 179.045C72.333 174.942 73.51 168.796 71.747 170.025C72.834 170.975 70.457 170.379 69.864 171.356C69.083 170.928 68.833 172.266 68.162 172.474C66.933 172.188 68.047 173.064 67.575 173.308C66.325 172.973 66.826 174.418 66.462 174.242C64.755 174.258 65.655 177.118 64.115 177.328C63.446 177.92 64.438 177.535 64.651 177.626C63.765 178.188 64.894 178.609 64.723 179.294C61.172 179.658 66.498 204.42 68.909 189.423C69.605 186.786 72.777 184.596 72.883 182.232C72.846 182.19 72.814 182.138 72.781 182.088V182.088Z" fill="#FEC3BC" blush:i="0.0.2.22"/><path id="Fill 1878_2" fill-rule="evenodd" clip-rule="evenodd" d="M79.4188 178.607C79.4358 178.552 79.4808 178.586 79.5128 178.605C79.5858 178.676 79.4518 178.626 79.4188 178.607" fill="#FAAAA1" blush:i="0.0.2.23"/><path id="Fill 1880_2" fill-rule="evenodd" clip-rule="evenodd" d="M79.6295 178.734C79.5975 178.702 79.5665 178.671 79.5345 178.638C79.5655 178.671 79.5995 178.701 79.6295 178.734" fill="#FAAAA1" blush:i="0.0.2.24"/><path id="Fill 1882_2" fill-rule="evenodd" clip-rule="evenodd" d="M82.1344 163.727C81.9564 163.709 81.8514 163.603 81.7874 163.444C81.9754 163.45 82.1404 163.484 82.1344 163.727" fill="#FEDAD4" blush:i="0.0.2.25"/><path id="Fill 1884_2" fill-rule="evenodd" clip-rule="evenodd" d="M83.1039 164.266C82.9699 164.232 82.9509 164.089 83.0949 164.099C83.1979 164.131 83.1869 164.201 83.1039 164.266" fill="#FEDAD4" blush:i="0.0.2.26"/><path id="Fill 1886_2" fill-rule="evenodd" clip-rule="evenodd" d="M91.0402 164.893C91.0502 164.62 91.3112 164.882 91.0372 164.89L91.0402 164.893Z" fill="#FEDAD4" blush:i="0.0.2.27"/><path id="Fill 1888_2" fill-rule="evenodd" clip-rule="evenodd" d="M89.422 164.89C89.435 164.903 89.446 164.915 89.459 164.928C89.446 164.916 89.433 164.905 89.42 164.893L89.422 164.89Z" fill="#FEDAD4" blush:i="0.0.2.28"/><path id="Fill 1890_2" fill-rule="evenodd" clip-rule="evenodd" d="M75.6729 162.463L75.6669 162.557C75.7929 162.691 75.9639 162.744 76.1259 162.814C76.1329 162.492 75.8609 162.531 75.6729 162.463" fill="#FEBAB1" blush:i="0.0.2.29"/><path id="Fill 1892_2" fill-rule="evenodd" clip-rule="evenodd" d="M71.7664 145.734C71.7044 145.69 71.6774 145.7 71.6614 145.775C71.7234 145.82 71.7494 145.809 71.7664 145.734" fill="#FEBAB1" blush:i="0.0.2.30"/><path id="Fill 1894_2" fill-rule="evenodd" clip-rule="evenodd" d="M71.1738 148.605C71.1858 148.598 71.1968 148.592 71.2088 148.585C71.1878 148.558 71.1688 148.557 71.1428 148.58C71.1528 148.588 71.1628 148.596 71.1738 148.605" fill="#FEBAB1" blush:i="0.0.2.31"/><path id="Fill 1898_2" fill-rule="evenodd" clip-rule="evenodd" d="M71.6358 130C67.6998 130.45 71.3588 141.168 70.1678 143.951C67.4428 142.323 63.9898 140.978 67.4278 144.938C70.1638 148.821 53.8168 141.815 54.1568 151.353C59.2498 145.476 64.2268 153.119 65.2678 158.423C55.6948 151.256 43.9518 159.549 46.3048 170.887C45.1668 160.946 56.9138 157.749 62.2058 164.881C49.6868 168.327 49.7798 202.182 59.8968 181.307C60.5148 181.117 63.4708 177.541 63.7178 179.627C64.7908 180.302 63.6668 178.397 64.7558 179.377C65.2398 178.933 64.1328 178.306 64.5648 177.918C65.0628 177.483 64.4148 177.519 64.1698 177.493C65.4488 176.819 65.5958 174.44 66.7548 174.009C66.3688 173.169 68.2038 173.74 67.7448 172.953C68.0908 172.513 69.1398 171.522 70.0448 171.423C70.4538 170.449 72.8278 171.163 71.9798 170.09C71.3798 169.183 73.3518 170.597 72.6878 171.223C72.6108 171.342 72.6978 171.483 72.8908 171.453C74.1908 169.642 74.7648 168.505 73.2358 166.98C69.7198 167.029 63.5838 171.457 62.7128 172.948C62.3918 171.916 60.7158 172.422 61.5868 172.57C58.2898 172.739 63.7438 163.937 67.2458 163.727C69.7558 161.886 73.9228 165.106 74.9818 163.298C76.4658 162.287 74.2978 161.29 73.2388 160.311C73.2398 160.31 73.2408 160.31 73.2428 160.31C73.2018 160.088 73.0628 159.963 72.8688 159.891C72.8098 159.801 72.7608 159.711 72.7368 159.622C71.8388 157.166 68.4448 151.156 69.6338 149.187C69.6638 149.18 69.6848 149.146 69.6898 149.079C69.7808 148.956 69.8918 148.852 70.0278 148.77C70.2238 148.178 71.6128 148.47 70.7528 147.638C71.2848 147.953 72.0228 147.473 71.9478 146.812C71.0018 146.183 72.1028 145.274 71.0488 144.8C75.7978 146.465 78.8818 150.793 80.6578 155.246C78.8648 145.873 81.2598 151.721 84.6738 155.798C85.1718 155.36 85.5218 154.725 85.7828 153.965C85.7938 153.982 85.7938 153.999 85.8188 154.017C85.9088 153.964 85.9118 153.905 85.8308 153.843C87.0098 150.209 86.1828 143.711 88.3198 140.085C88.8918 138.505 90.8358 137.402 91.3648 135.944C73.2748 144.803 87.0308 148.912 71.6358 130" fill="#FEBAB1" blush:i="0.0.2.32"/><path id="Fill 1900_2" fill-rule="evenodd" clip-rule="evenodd" d="M118.348 188.082C117.822 183.258 115.355 178.517 111.799 175.209C111.685 175.199 111.644 175.161 111.629 175.048C108.978 173.134 105.099 173.073 102.899 169.827C91.5632 158.02 98.0882 173.576 90.0502 173.967C84.3562 172.881 86.6202 169.312 80.7072 174.662C79.4052 175.878 73.9592 181.057 77.2042 179.993C77.5062 179.778 77.9952 179.867 78.1982 179.452C78.5452 179.119 79.5832 179.133 79.5812 178.692C81.7662 178.039 82.1632 177.229 81.8862 180.086C81.7542 180.229 81.7522 180.372 81.8862 180.516V180.515C81.9652 180.898 81.7662 181.353 81.9792 181.682C82.1152 182.421 82.1352 183.2 82.4212 183.844C82.4602 183.969 82.3762 184.135 82.5132 184.201C82.7362 184.776 82.6672 185.52 83.1272 186.018C84.2092 187.978 89.2662 201.449 89.5702 194.897C91.0172 190.358 92.2802 185.438 92.6782 180.636C93.7742 181.345 94.6652 182.505 95.9722 182.954C95.9932 183.143 96.1812 183.112 96.3272 183.137C98.9852 185.092 102.143 187.085 103.042 190.488C103.147 190.96 103.866 190.918 103.91 190.463C105.671 179.864 97.2722 170.957 112.72 183.759C112.734 183.969 112.871 184.072 113.057 184.12C113.069 184.148 113.08 184.177 113.091 184.204C113.061 184.486 113.39 184.445 113.494 184.668C113.521 184.838 113.568 184.994 113.776 185.019C113.776 185.019 113.778 185.019 113.778 185.02V185.019C113.782 185.145 113.796 185.266 113.955 185.288C114.196 185.646 114.477 186.046 114.764 186.368C115.523 187.788 118.277 192.021 118.348 188.082" fill="#EB9B93" blush:i="0.0.2.33"/></g><g id="Group 52 Copy" blush:i="0.0.3"><path id="Fill 1828_3" fill-rule="evenodd" clip-rule="evenodd" d="M110.764 191.619C113.99 191.608 116.737 191.546 119.484 191.686C121.331 191.78 123.179 191.881 125.009 192.144C126.672 192.383 128.331 192.652 129.978 193.006C130.785 193.179 131.615 193.282 132.423 193.478C132.543 193.507 132.744 193.465 132.721 193.658C132.702 193.807 132.522 193.81 132.387 193.823C131.155 193.936 129.925 194.097 128.691 194.154C126.305 194.265 123.92 194.412 121.532 194.464C119.235 194.515 116.941 194.514 114.643 194.479C113.139 194.457 111.631 194.438 110.131 194.373C108.451 194.301 106.766 194.228 105.089 194.065C103.636 193.925 102.184 193.769 100.733 193.612C100.332 193.569 99.9354 193.502 99.5364 193.441C99.4694 193.431 99.3714 193.444 99.3594 193.346C99.3474 193.249 99.4444 193.237 99.5044 193.204C100.057 192.907 100.685 192.886 101.278 192.754C103.127 192.344 105.005 192.098 106.889 191.89C108.337 191.732 109.784 191.593 110.764 191.619" fill="#614135" blush:i="0.0.3.0"/><path id="Fill 1832_3" fill-rule="evenodd" clip-rule="evenodd" d="M136.35 177.391C134.75 177.238 133.096 176.685 131.472 176.7C132.805 174.3 133.448 171.288 135.197 169.056C136.27 168.585 146.201 166.566 143.991 168.777C139.92 169.719 136.71 173.211 136.35 177.391" fill="#FEC3BC" blush:i="0.0.3.1"/><path id="Fill 1834_3" fill-rule="evenodd" clip-rule="evenodd" d="M155.404 183.053C155.19 182.534 155.221 181.399 154.506 181.388C151.936 173.23 129.588 175.889 143.035 183.042C144.568 186.054 146.469 182.308 148.765 182.173C151.694 181.738 154.871 182.084 153.181 185.585C154.16 185.759 155.613 184.161 155.404 183.053V183.053Z" fill="#FEBAB1" blush:i="0.0.3.2"/><path id="Fill 1838_3" fill-rule="evenodd" clip-rule="evenodd" d="M128.6 172.727C127.492 174 126.673 175.613 125.638 176.86C126.357 173.351 127.802 169.126 130.495 166.709C117.893 174.539 120.793 184.829 116.912 173.042C117.646 172.73 117.236 171.683 117.79 171.46C117.873 171.805 117.467 173.537 118.043 172.801C122.984 165.064 132.159 157.373 141.535 157.229C135.158 160.006 130.55 166.124 128.6 172.727" fill="#FEC3BC" blush:i="0.0.3.3"/><path id="Fill 1840_3" fill-rule="evenodd" clip-rule="evenodd" d="M149.147 195.103C146.696 169.811 123.02 184.294 138.636 166.008C132.162 167.885 125.344 174.814 123.627 182.119C122.933 182.651 123.313 182.113 122.96 181.699C122.556 181.77 121.296 181.438 121.653 182.167C121.366 182.623 121.603 181.103 120.902 181.681C121.009 181.061 119.258 181.3 119.139 181.702C118.481 180.877 114.484 179.58 116.043 181.668C115.432 181.343 110.957 179.957 112.562 181.13C107.817 185.027 97.3105 172.739 92.4955 188.699C91.6895 189.951 94.5305 190.511 93.5765 189.415C94.0755 189.041 94.3345 190.115 94.7555 190.001C96.4755 188.081 101.283 184.695 105.178 183.894C111.447 182.146 99.3765 190.124 106.052 203.139C104.442 200.276 110.139 196.153 108.041 197.116C118.486 180.911 120.646 197.523 126.49 187.644C127.277 176.9 134.445 187.23 138.867 190.277C145.24 191.21 145.399 191.561 149.147 195.103" fill="#FEDAD4" blush:i="0.0.3.4"/><path id="Fill 1842_3" fill-rule="evenodd" clip-rule="evenodd" d="M93.4521 180.914C94.1971 180.283 94.1741 180.85 93.9991 181.538C93.7161 181.419 93.6061 181.146 93.4521 180.914" fill="#FEC3BC" blush:i="0.0.3.5"/><path id="Fill 1844_3" fill-rule="evenodd" clip-rule="evenodd" d="M144.054 190.983C144.175 191.129 144.546 190.582 144.516 191.149C144.353 191.121 144.139 191.231 144.054 190.983" fill="#FEDAD4" blush:i="0.0.3.6"/><path id="Fill 1846_3" fill-rule="evenodd" clip-rule="evenodd" d="M109.204 196.993C109.225 196.791 109.311 196.755 109.466 196.889C109.405 196.993 109.305 196.994 109.204 196.993" fill="#FEC3BC" blush:i="0.0.3.7"/><path id="Fill 1848_3" fill-rule="evenodd" clip-rule="evenodd" d="M104.268 148.021C104.162 147.957 104.164 147.893 104.27 147.831C104.355 147.895 104.354 147.958 104.268 148.021" fill="#FEC3BC" blush:i="0.0.3.8"/><path id="Fill 1850_3" fill-rule="evenodd" clip-rule="evenodd" d="M109.107 197.068C109.139 197.043 109.171 197.016 109.204 196.991C109.171 197.016 109.139 197.043 109.107 197.068" fill="#FEC3BC" blush:i="0.0.3.9"/><path id="Fill 1852_3" fill-rule="evenodd" clip-rule="evenodd" d="M116.839 172.992C116.865 173.025 116.891 173.058 116.917 173.092C121.24 184.011 117.031 175.448 130.041 166.965L130.063 166.99C127.579 168.545 123.715 185.276 123.037 181.889L123.04 181.892C122.763 181.399 122.497 182.286 122.309 181.688C121.988 181.509 122.344 182.316 121.876 181.881C121.814 181.842 121.79 181.694 121.685 181.826C121.551 182.007 121.781 182.138 121.893 182.25C122.205 182.921 120.626 181.989 121.42 181.892L121.422 181.889C121.374 181.43 121.032 181.857 120.88 181.71L120.883 181.713C120.842 181.171 119.87 181.597 119.47 181.475C119.008 181.451 119.527 181.794 119.348 181.906C118.62 181.877 118.298 181.317 117.8 180.929C117.504 180.804 117.256 180.508 116.864 180.787C116.749 180.869 116.488 180.858 116.27 180.665C116.004 180.365 115.338 181.21 115.761 181.308C115.894 181.491 116.39 181.434 116.192 181.797C115.656 181.937 115.027 181.223 114.421 181.325C114.247 181.333 114.128 181.192 114.14 180.991C112.728 178.472 113.218 175.088 112.63 172.285C112.526 169.218 109.595 163.105 114.204 169.232C114.254 169.246 114.29 169.276 114.315 169.32L114.308 169.322C114.422 169.376 114.432 169.498 114.486 169.591H114.489C115.236 170.705 116.074 171.888 116.839 172.992" fill="#FAAAA1" blush:i="0.0.3.10"/><path id="Fill 1854_3" fill-rule="evenodd" clip-rule="evenodd" d="M106.678 181.267C106.401 180.911 106.837 180.603 106.748 180.259C107.391 179.856 107.659 179.2 108.472 179.849C108.781 180.603 112.462 180.624 110.994 181.705C110.157 181.761 109.524 183.094 108.758 182.5C108.332 181.709 107.409 181.782 106.678 181.267" fill="#EB9B93" blush:i="0.0.3.11"/><path id="Fill 1856_3" fill-rule="evenodd" clip-rule="evenodd" d="M106.502 185.486C105.977 185.652 106.027 185.102 105.795 184.906C105.291 184.459 104.905 184.635 105.156 183.781C107.982 183.554 108.976 182.939 106.502 185.486" fill="#FAAAA1" blush:i="0.0.3.12"/><path id="Fill 1858_3" fill-rule="evenodd" clip-rule="evenodd" d="M106.503 185.485C106.416 185.109 106.605 184.962 106.952 184.947C106.893 185.202 106.809 185.436 106.503 185.485" fill="#FEC3BC" blush:i="0.0.3.13"/><path id="Fill 1860_3" fill-rule="evenodd" clip-rule="evenodd" d="M113.005 181.381C113.556 181.469 112.872 182.004 112.833 181.657C112.871 181.559 112.845 181.406 113.005 181.381" fill="#FEC3BC" blush:i="0.0.3.14"/><path id="Fill 1862_3" fill-rule="evenodd" clip-rule="evenodd" d="M140.921 186.212C141.313 186.237 140.782 186.678 140.765 186.329C140.772 186.241 140.84 186.213 140.921 186.212" fill="#FEC3BC" blush:i="0.0.3.15"/><path id="Fill 1864_3" fill-rule="evenodd" clip-rule="evenodd" d="M120.88 181.71C120.895 181.863 120.724 181.926 120.681 181.748L120.883 181.713L120.88 181.71Z" fill="#FEFEFE" blush:i="0.0.3.16"/><path id="Fill 1866_3" fill-rule="evenodd" clip-rule="evenodd" d="M118.598 181.957C118.581 182.031 118.555 182.042 118.493 181.998C118.51 181.924 118.536 181.912 118.598 181.957" fill="#FEFEFE" blush:i="0.0.3.17"/><path id="Fill 1868_3" fill-rule="evenodd" clip-rule="evenodd" d="M114.135 180.726C114.05 180.595 113.898 180.546 113.788 180.443C113.524 178.833 113.223 177.265 113.167 175.599C113.032 172.1 111.36 168.635 109.291 165.896C108.865 165.72 108.562 165.301 108.211 164.997C108.113 164.795 107.835 164.773 107.761 164.548C107.285 164.059 101.275 160.167 103.274 162.189C103.667 161.997 103.753 162.653 103.327 162.574C102.808 162.628 103.602 162.903 103.159 163.127C102.94 163.391 103.391 163.282 103.486 163.374C103.47 163.544 103.084 163.414 103.229 163.67C103.356 163.952 103.977 163.429 103.833 163.894C103.418 165.433 102.775 163.985 102.551 164.464C102.521 164.789 103.087 164.798 102.898 165.188C102.853 165.398 102.737 165.114 102.679 165.194C102.496 165.445 101.899 165.113 101.956 165.723C101.969 165.853 101.758 165.785 101.65 165.806C99.6119 163.82 103.897 176.801 105.243 177.309C106.099 178.218 107.027 179.141 108.126 179.813C108.211 179.822 108.295 179.83 108.38 179.839C108.706 180.933 111.64 180.259 110.995 181.705C110.931 182.582 112.609 182.071 112.654 181.374C112.615 181.171 113.129 180.749 112.638 180.857C112.485 180.925 112.54 181.293 112.315 181.208C112.266 180.744 112.688 180.384 113.09 180.868C113.175 180.942 113.291 181.04 113.358 180.98C113.634 180.733 113.881 180.986 114.14 180.991C114.138 180.903 114.137 180.814 114.135 180.726" fill="#FEDAD4" blush:i="0.0.3.18"/><path id="Fill 1870_3" fill-rule="evenodd" clip-rule="evenodd" d="M93.2003 189.888C93.1483 190.469 92.7143 190.017 93.2013 189.889L93.2003 189.888Z" fill="#FEDAD4" blush:i="0.0.3.19"/><path id="Fill 1872_3" fill-rule="evenodd" clip-rule="evenodd" d="M142.513 184.282C142.115 184.156 142.786 183.658 142.665 184.063C142.624 184.143 142.654 184.282 142.513 184.282" fill="#FEDAD4" blush:i="0.0.3.20"/><path id="Fill 1874_3" fill-rule="evenodd" clip-rule="evenodd" d="M141.821 184.587C142.099 184.595 141.829 184.864 141.823 184.586L141.821 184.587Z" fill="#FEDAD4" blush:i="0.0.3.21"/><path id="Fill 1876_3" fill-rule="evenodd" clip-rule="evenodd" d="M102.899 195.676C102.93 195.669 102.943 195.768 102.963 195.814C102.89 195.779 102.803 195.703 102.899 195.676V195.676ZM104.781 199.088C104.775 199.039 104.759 198.994 104.71 198.964C104.708 198.963 104.708 198.964 104.706 198.964C104.662 198.881 104.622 198.789 104.586 198.689C104.597 198.687 104.605 198.693 104.618 198.69C104.595 198.539 104.67 198.367 104.522 198.244C104.51 198.264 104.489 198.27 104.47 198.28C104.412 198.02 104.371 197.728 104.343 197.406C104.347 197.477 104.376 197.547 104.441 197.616C104.56 197.465 104.566 197.315 104.435 197.166C104.373 197.238 104.343 197.311 104.34 197.383C104.323 197.167 104.31 196.943 104.303 196.706C104.345 196.74 104.375 196.77 104.43 196.81C104.484 196.529 104.32 196.272 104.337 195.994C104.32 196.015 104.314 196.027 104.298 196.045C104.333 191.942 105.51 185.796 103.747 187.025C104.834 187.975 102.457 187.379 101.864 188.356C101.083 187.928 100.833 189.266 100.162 189.474C98.933 189.188 100.047 190.064 99.575 190.308C98.325 189.973 98.826 191.418 98.462 191.242C96.755 191.258 97.655 194.118 96.115 194.328C95.446 194.92 96.438 194.535 96.651 194.626C95.765 195.188 96.894 195.609 96.723 196.294C93.172 196.658 98.498 221.42 100.909 206.423C101.605 203.786 104.777 201.596 104.883 199.232C104.846 199.19 104.814 199.138 104.781 199.088V199.088Z" fill="#FEC3BC" blush:i="0.0.3.22"/><path id="Fill 1878_3" fill-rule="evenodd" clip-rule="evenodd" d="M111.419 195.607C111.436 195.552 111.481 195.586 111.513 195.605C111.586 195.676 111.452 195.626 111.419 195.607" fill="#FAAAA1" blush:i="0.0.3.23"/><path id="Fill 1880_3" fill-rule="evenodd" clip-rule="evenodd" d="M111.63 195.734C111.598 195.702 111.567 195.671 111.535 195.638C111.566 195.671 111.6 195.701 111.63 195.734" fill="#FAAAA1" blush:i="0.0.3.24"/><path id="Fill 1882_3" fill-rule="evenodd" clip-rule="evenodd" d="M114.134 180.727C113.956 180.709 113.851 180.603 113.787 180.444C113.975 180.45 114.14 180.484 114.134 180.727" fill="#FEDAD4" blush:i="0.0.3.25"/><path id="Fill 1884_3" fill-rule="evenodd" clip-rule="evenodd" d="M115.104 181.266C114.97 181.232 114.951 181.089 115.095 181.099C115.198 181.131 115.187 181.201 115.104 181.266" fill="#FEDAD4" blush:i="0.0.3.26"/><path id="Fill 1886_3" fill-rule="evenodd" clip-rule="evenodd" d="M123.04 181.893C123.05 181.62 123.311 181.882 123.037 181.89L123.04 181.893Z" fill="#FEDAD4" blush:i="0.0.3.27"/><path id="Fill 1888_3" fill-rule="evenodd" clip-rule="evenodd" d="M121.422 181.89C121.435 181.903 121.446 181.915 121.459 181.928C121.446 181.916 121.433 181.905 121.42 181.893L121.422 181.89Z" fill="#FEDAD4" blush:i="0.0.3.28"/><path id="Fill 1890_3" fill-rule="evenodd" clip-rule="evenodd" d="M107.673 179.463L107.667 179.557C107.793 179.691 107.964 179.744 108.126 179.814C108.133 179.492 107.861 179.531 107.673 179.463" fill="#FEBAB1" blush:i="0.0.3.29"/><path id="Fill 1892_3" fill-rule="evenodd" clip-rule="evenodd" d="M103.766 162.734C103.704 162.69 103.677 162.7 103.661 162.775C103.723 162.82 103.749 162.809 103.766 162.734" fill="#FEBAB1" blush:i="0.0.3.30"/><path id="Fill 1894_3" fill-rule="evenodd" clip-rule="evenodd" d="M103.174 165.605C103.186 165.598 103.197 165.592 103.209 165.585C103.188 165.558 103.169 165.557 103.143 165.58C103.153 165.588 103.163 165.596 103.174 165.605" fill="#FEBAB1" blush:i="0.0.3.31"/><path id="Fill 1898_3" fill-rule="evenodd" clip-rule="evenodd" d="M103.636 147C99.6998 147.45 103.359 158.168 102.168 160.951C99.4428 159.323 95.9898 157.978 99.4278 161.938C102.164 165.821 85.8168 158.815 86.1568 168.353C91.2498 162.476 96.2268 170.119 97.2678 175.423C87.6948 168.256 75.9518 176.549 78.3048 187.887C77.1668 177.946 88.9138 174.749 94.2058 181.881C81.6868 185.327 81.7798 219.182 91.8968 198.307C92.5148 198.117 95.4708 194.541 95.7178 196.627C96.7908 197.302 95.6668 195.397 96.7558 196.377C97.2398 195.933 96.1328 195.306 96.5648 194.918C97.0628 194.483 96.4148 194.519 96.1698 194.493C97.4488 193.819 97.5958 191.44 98.7548 191.009C98.3688 190.169 100.204 190.74 99.7448 189.953C100.091 189.513 101.14 188.522 102.045 188.423C102.454 187.449 104.828 188.163 103.98 187.09C103.38 186.183 105.352 187.597 104.688 188.223C104.611 188.342 104.698 188.483 104.891 188.453C106.191 186.642 106.765 185.505 105.236 183.98C101.72 184.029 95.5838 188.457 94.7128 189.948C94.3918 188.916 92.7158 189.422 93.5868 189.57C90.2898 189.739 95.7438 180.937 99.2458 180.727C101.756 178.886 105.923 182.106 106.982 180.298C108.466 179.287 106.298 178.29 105.239 177.311C105.24 177.31 105.241 177.31 105.243 177.31C105.202 177.088 105.063 176.963 104.869 176.891C104.81 176.801 104.761 176.711 104.737 176.622C103.839 174.166 100.445 168.156 101.634 166.187C101.664 166.18 101.685 166.146 101.69 166.079C101.781 165.956 101.892 165.852 102.028 165.77C102.224 165.178 103.613 165.47 102.753 164.638C103.285 164.953 104.023 164.473 103.948 163.812C103.002 163.183 104.103 162.274 103.049 161.8C107.798 163.465 110.882 167.793 112.658 172.246C110.865 162.873 113.26 168.721 116.674 172.798C117.172 172.36 117.522 171.725 117.783 170.965C117.794 170.982 117.794 170.999 117.819 171.017C117.909 170.964 117.912 170.905 117.831 170.843C119.01 167.209 118.183 160.711 120.32 157.085C120.892 155.505 122.836 154.402 123.365 152.944C105.275 161.803 119.031 165.912 103.636 147" fill="#FEBAB1" blush:i="0.0.3.32"/><path id="Fill 1900_3" fill-rule="evenodd" clip-rule="evenodd" d="M150.348 205.082C149.822 200.258 147.355 195.517 143.799 192.209C143.685 192.199 143.644 192.161 143.629 192.048C140.978 190.134 137.099 190.073 134.899 186.827C123.563 175.02 130.088 190.576 122.05 190.967C116.356 189.881 118.62 186.312 112.707 191.662C111.405 192.878 105.959 198.057 109.204 196.993C109.506 196.778 109.995 196.867 110.198 196.452C110.545 196.119 111.583 196.133 111.581 195.692C113.766 195.039 114.163 194.229 113.886 197.086C113.754 197.229 113.752 197.372 113.886 197.516V197.515C113.965 197.898 113.766 198.353 113.979 198.682C114.115 199.421 114.135 200.2 114.421 200.844C114.46 200.969 114.376 201.135 114.513 201.201C114.736 201.776 114.667 202.52 115.127 203.018C116.209 204.978 121.266 218.449 121.57 211.897C123.017 207.358 124.28 202.438 124.678 197.636C125.774 198.345 126.665 199.505 127.972 199.954C127.993 200.143 128.181 200.112 128.327 200.137C130.985 202.092 134.143 204.085 135.042 207.488C135.147 207.96 135.866 207.918 135.91 207.463C137.671 196.864 129.272 187.957 144.72 200.759C144.734 200.969 144.871 201.072 145.057 201.12C145.069 201.148 145.08 201.177 145.091 201.204C145.061 201.486 145.39 201.445 145.494 201.668C145.521 201.838 145.568 201.994 145.776 202.019C145.776 202.019 145.778 202.019 145.778 202.02V202.019C145.782 202.145 145.796 202.266 145.955 202.288C146.196 202.646 146.477 203.046 146.764 203.368C147.523 204.788 150.277 209.021 150.348 205.082" fill="#EB9B93" blush:i="0.0.3.33"/></g></g></g></svg>