<svg viewBox="91.46249999999998 52.89893617021278 88.07499999999993 203.45744680851064" fill="none" xmlns="http://www.w3.org/2000/svg" xmlns:xlink="http://www.w3.org/1999/xlink" xmlns:blush="http://design.blush" overflow="visible" width="88.07499999999993px" height="203.45744680851064px"><g id="Master/Female Character/Running" blush:has-customizable-colors="true" blush:viewBox="93.495 52.89893617021278 85.36499999999992 202.1010638297872" blush:i="0"><g id="Female Character Running/Lower Body" blush:component="Female Character Running/Lower Body" blush:defaultValue="Shorts 1" blush:width="73" blush:height="132" transform="translate(105 122) scale(1 1)" blush:i="0.0" blush:value="Shorts 1" blush:viewBox="-0.06588447653430052 0 73.13176895306857 131.99999999999997"><g id="Female Character Running/Lower Body/Shorts 1" blush:viewBox="-0.06588447653430052 0 73.13176895306857 131.99999999999997" blush:i="0.0.0"><g id="Group 54" blush:i="0.0.0.0"><g id="Group 3" blush:i="0.0.0.0.0"><path id="Fill 1" fill-rule="evenodd" clip-rule="evenodd" d="M38.2452 59.3932L40.4642 53.3552L48.5022 56.5922C48.5022 56.5922 42.8652 56.5922 38.2452 59.3932M69.7702 47.9272C61.1822 31.4682 46.2582 21.9952 46.2582 21.9952L32.6402 20.1422C32.6402 20.1422 15.8092 27.0392 14.8552 45.1272C13.9012 63.2152 14.4212 72.6282 11.0382 79.2212C7.65418 85.8152 10.7782 109.151 5.65918 113.403C0.54018 117.653 3.14318 120.603 4.87818 121.21C6.61318 121.818 8.17518 124.42 8.17518 124.42C11.9052 131.274 23.1832 132.171 23.1832 129.105C23.1832 126.038 19.8002 126.415 17.8912 125.547C15.9832 124.68 15.4622 117.653 15.4622 117.653C15.4622 117.653 23.0102 93.5362 26.4802 89.1982C29.9502 84.8602 33.2472 75.4052 33.2472 75.4052C33.2472 75.4052 40.2742 73.2352 45.4792 72.6282C50.6842 72.0212 58.4922 71.1532 62.2232 69.5042C65.9532 67.8572 78.3592 64.3862 69.7702 47.9272" fill="#db8c5c" blush:color="Skin-500" blush:i="0.0.0.0.0.0"/></g><path id="Fill 50" fill-rule="evenodd" clip-rule="evenodd" d="M15.7236 73.3893C17.8676 72.7413 19.9786 71.9933 22.0306 71.1283C24.0686 70.2283 26.0766 69.2603 27.6146 67.6253C29.3066 66.1433 31.0446 64.7283 32.8206 63.3613C34.5956 61.9933 36.4056 60.6713 38.2446 59.3933L33.0596 63.6613C31.3376 65.0883 29.5986 66.4973 27.9496 67.9963C26.3636 69.6253 24.2456 70.6643 22.1766 71.4833C20.0766 72.2943 17.9146 72.9183 15.7236 73.3893" fill="black" blush:i="0.0.0.0.1"/><path id="Fill 52" fill-rule="evenodd" clip-rule="evenodd" d="M18.3125 83.1286C19.2785 82.0826 20.3775 81.1656 21.5245 80.3186C22.6705 79.4696 23.8985 78.7336 25.1545 78.0546C26.4235 77.4016 27.7325 76.8166 29.0905 76.3746C30.4385 75.9026 31.8425 75.6076 33.2475 75.4046C31.8835 75.8116 30.5255 76.1946 29.2215 76.7356C27.9095 77.2466 26.6205 77.8186 25.3865 78.4966C24.1295 79.1296 22.9225 79.8606 21.7435 80.6336C20.5625 81.4066 19.4175 82.2346 18.3125 83.1286" fill="black" blush:i="0.0.0.0.2"/><path id="Fill 4" fill-rule="evenodd" clip-rule="evenodd" d="M9.89878 73.3893C9.89878 73.3893 12.6518 70.9513 17.3338 72.8803C17.3338 72.8803 18.3738 72.4533 17.3338 74.4253C16.2938 76.3963 14.7548 77.7903 16.1008 78.6083C17.4468 79.4253 18.1688 77.8863 19.9958 80.4833C21.8228 83.0793 19.6588 83.2233 19.0338 85.3873C18.4088 87.5503 16.2938 92.1183 17.0148 94.7623C17.7358 97.4073 15.1878 96.1573 13.8408 95.5323C12.4948 94.9073 9.94678 91.4453 10.5238 87.2143C11.1008 82.9833 10.4758 83.0313 9.27378 80.6753C8.07178 78.3203 8.11978 73.2233 8.60078 73.1263C9.08178 73.0313 9.60978 72.7383 9.89878 73.3893" fill="#2B2626" blush:i="0.0.0.0.3"/><path id="Fill 6" fill-rule="evenodd" clip-rule="evenodd" d="M9.70633 73.8005C9.66033 74.7565 9.65033 75.7135 9.73133 76.6605C9.81033 77.6025 9.94033 78.5585 10.3543 79.3815C10.7453 80.2065 11.4333 80.9425 11.7253 81.9325C12.0173 82.8975 12.0343 83.8895 12.0053 84.8545C11.8943 86.7745 11.6583 88.6815 11.9743 90.5325C12.1323 91.4495 12.4853 92.3375 13.0983 93.0435C13.6993 93.7655 14.5483 94.2475 15.4283 94.6175C14.5113 94.3535 13.6143 93.9115 12.9183 93.2095C12.2313 92.4995 11.8093 91.5635 11.5973 90.6085C11.1863 88.6775 11.4383 86.7245 11.5063 84.8345C11.5503 83.8945 11.5423 82.9415 11.2903 82.0645C11.0653 81.1845 10.3883 80.4685 10.0063 79.5415C9.26433 77.6695 9.45433 75.6825 9.70633 73.8005" fill="#8AE0D3" blush:i="0.0.0.0.4"/><path id="Fill 8" fill-rule="evenodd" clip-rule="evenodd" d="M13.793 88.8015C14.428 88.7775 15.028 88.9295 15.602 89.1535C15.885 89.2745 16.166 89.4105 16.419 89.6005C16.67 89.7835 16.924 89.9965 17.062 90.2915C16.502 90.0195 15.963 89.8445 15.412 89.6155C14.868 89.3825 14.32 89.1515 13.793 88.8015" fill="#8AE0D3" blush:i="0.0.0.0.5"/><path id="Fill 10" fill-rule="evenodd" clip-rule="evenodd" d="M13.793 87.5026C14.455 87.5336 15.075 87.7096 15.683 87.9176C16.283 88.1436 16.873 88.4026 17.399 88.8016C16.723 88.7656 16.111 88.5936 15.509 88.3866C14.915 88.1606 14.333 87.9036 13.793 87.5026" fill="#8AE0D3" blush:i="0.0.0.0.6"/><path id="Fill 12" fill-rule="evenodd" clip-rule="evenodd" d="M14.498 86.3972C15.115 86.3722 15.692 86.4992 16.256 86.6682C16.535 86.7632 16.812 86.8632 17.077 87.0042C17.341 87.1402 17.605 87.2882 17.831 87.5022C17.22 87.4512 16.662 87.3172 16.103 87.1442C15.551 86.9572 15.007 86.7462 14.498 86.3972" fill="#8AE0D3" blush:i="0.0.0.0.7"/><path id="Fill 14" fill-rule="evenodd" clip-rule="evenodd" d="M17.8318 84.2097C17.2198 84.1567 16.6238 84.1437 16.0428 84.2317C15.7548 84.2807 15.4668 84.3277 15.2048 84.4257C15.0718 84.4717 14.9478 84.5227 14.8388 84.5847C14.7328 84.6437 14.6778 84.7447 14.6968 84.7057C14.6928 84.6867 14.6888 84.7117 14.8008 84.7407C14.9168 84.7557 15.0508 84.7507 15.1908 84.7417C15.4738 84.7247 15.7638 84.6547 16.0578 84.6057L17.8318 84.2097ZM17.8318 84.2097C17.3038 84.5267 16.7428 84.7737 16.1578 84.9767C15.8658 85.0817 15.5648 85.1587 15.2448 85.2117C15.0828 85.2347 14.9138 85.2407 14.7278 85.2237C14.5518 85.2037 14.2148 85.0657 14.1968 84.7217C14.2208 84.3687 14.4538 84.2627 14.5918 84.1637C14.7488 84.0797 14.9058 84.0167 15.0638 83.9737C15.3808 83.8907 15.6968 83.8437 16.0138 83.8487C16.6438 83.8367 17.2708 83.9557 17.8318 84.2097V84.2097Z" fill="#8AE0D3" blush:i="0.0.0.0.8"/><path id="Stroke 16" fill-rule="evenodd" clip-rule="evenodd" d="M17.708 84.2282L17.8805 84.0946C18.3676 84.3014 18.9951 85.1474 19.4118 86.0781C19.611 86.5229 19.7345 86.9333 19.7545 87.2399C19.7794 87.6214 19.6383 87.8677 19.3216 87.8677C18.8149 87.8677 18.429 87.1758 18.0961 86.0105C17.9846 85.6203 17.888 85.2029 17.8066 84.7857C17.7871 84.6855 17.7701 84.5942 17.7556 84.5136L17.708 84.2282ZM19.1837 86.1803C18.875 85.4909 18.4411 84.8474 18.0693 84.5184L18.0007 84.462L18.052 84.7378C18.1321 85.1486 18.2271 85.5592 18.3364 85.9419C18.6344 86.9847 18.9875 87.6177 19.3216 87.6177C19.4613 87.6177 19.5218 87.5121 19.5051 87.2562C19.4873 86.9843 19.3717 86.6003 19.1837 86.1803Z" fill="#8AE0D3" blush:i="0.0.0.0.9"/><path id="Fill 18" fill-rule="evenodd" clip-rule="evenodd" d="M1.20424 119.049C1.20424 119.049 3.80124 112.141 5.90824 113.904C8.01524 115.669 5.66224 117.04 8.74924 117.972C11.8362 118.903 11.5912 115.674 13.9432 116.333C16.2952 116.991 15.5592 117.53 16.6382 119.245C17.7152 120.96 18.0582 124.487 22.5172 125.86C26.9752 127.232 24.4762 130.759 22.5172 131.249C20.5572 131.738 15.0212 133.062 11.1502 130.319C7.28024 127.574 7.18224 125.027 5.12424 123.998C3.06624 122.969 -0.15076 121.205 0.0612397 120.225C0.27324 119.245 1.20424 119.049 1.20424 119.049" fill="#2B2626" blush:i="0.0.0.0.10"/><path id="Fill 20" fill-rule="evenodd" clip-rule="evenodd" d="M1.79199 119.391C3.73299 120.468 5.69799 121.592 7.19699 123.342C8.41199 125.213 9.96399 126.791 11.735 128.093C13.484 129.412 15.538 130.331 17.701 130.643C19.87 130.973 22.116 130.513 24.134 129.582L22.624 130.305C22.102 130.5 21.559 130.648 21.023 130.823C20.471 130.922 19.91 130.998 19.351 131.065C18.788 131.049 18.217 131.1 17.656 131.026C15.397 130.784 13.259 129.82 11.44 128.496C9.65299 127.137 8.03299 125.485 6.89099 123.573C6.24599 122.71 5.38299 121.992 4.51499 121.312C3.64399 120.627 2.73399 119.985 1.79199 119.391" fill="#8AE0D3" blush:i="0.0.0.0.11"/><path id="Fill 22" fill-rule="evenodd" clip-rule="evenodd" d="M15.2627 127.374C16.0597 126.907 16.8887 126.562 17.7177 126.219L18.9657 125.731C19.3777 125.561 19.7987 125.423 20.1707 125.157C19.9417 125.576 19.5177 125.833 19.1367 126.077C18.7437 126.322 18.3247 126.505 17.9047 126.683C17.0547 127.013 16.1827 127.277 15.2627 127.374" fill="#8AE0D3" blush:i="0.0.0.0.12"/><path id="Fill 24" fill-rule="evenodd" clip-rule="evenodd" d="M14.8823 126.551C15.4683 125.958 16.1543 125.509 16.8743 125.123C17.2383 124.94 17.6093 124.763 18.0043 124.64C18.3953 124.513 18.8003 124.402 19.2203 124.398C18.5003 124.804 17.8173 125.19 17.1053 125.567C16.3883 125.928 15.6723 126.289 14.8823 126.551" fill="#8AE0D3" blush:i="0.0.0.0.13"/><path id="Fill 26" fill-rule="evenodd" clip-rule="evenodd" d="M13.8691 125.474C14.5151 124.912 15.2591 124.509 16.0361 124.185C16.4301 124.034 16.8291 123.89 17.2491 123.812C17.6661 123.73 18.0971 123.67 18.5241 123.733C17.7251 124.022 16.9881 124.336 16.2231 124.648C15.4571 124.947 14.6951 125.258 13.8691 125.474" fill="#8AE0D3" blush:i="0.0.0.0.14"/><path id="Fill 28" fill-rule="evenodd" clip-rule="evenodd" d="M15.2628 120.06C15.4088 120.654 15.3478 121.33 14.9878 121.902C14.6098 122.456 13.9488 122.834 13.2008 122.735C13.1018 122.706 13.0018 122.682 12.8918 122.598C12.7768 122.522 12.6848 122.338 12.7208 122.16C12.7928 121.921 12.9038 121.795 13.0118 121.671C13.2338 121.431 13.4628 121.225 13.7118 121.04C14.2018 120.668 14.7118 120.332 15.2628 120.06M15.2628 120.06L13.9648 121.329C13.7618 121.546 13.5438 121.751 13.3748 121.973C13.2878 122.078 13.2148 122.203 13.1988 122.254C13.1858 122.176 13.1768 122.217 13.3008 122.245C13.7648 122.319 14.3268 122.068 14.6798 121.671C15.0308 121.251 15.2028 120.668 15.2628 120.06" fill="#8AE0D3" blush:i="0.0.0.0.15"/><path id="Fill 30" fill-rule="evenodd" clip-rule="evenodd" d="M15.2627 120.06C15.5117 120.36 15.6667 120.557 15.9127 120.793C16.1247 121.032 16.3637 121.248 16.6187 121.416C16.8687 121.598 17.1457 121.714 17.4097 121.756C17.6747 121.799 17.9187 121.702 18.0087 121.528C18.2537 121.152 17.6597 120.706 17.1117 120.444C16.5547 120.171 15.9207 120.022 15.2627 120.06M15.2627 120.06C15.8877 119.816 16.6107 119.863 17.2587 120.09C17.5937 120.21 17.8807 120.34 18.1867 120.598C18.4757 120.839 18.6957 121.35 18.4457 121.771C18.2087 122.184 17.7077 122.304 17.3397 122.224C16.9677 122.135 16.6297 121.968 16.3837 121.721C16.1227 121.489 15.9037 121.227 15.7207 120.946C15.5357 120.685 15.3787 120.303 15.2627 120.06" fill="#8AE0D3" blush:i="0.0.0.0.16"/><path id="Fill 32" fill-rule="evenodd" clip-rule="evenodd" d="M15.6743 120.694C15.6673 121.123 15.5723 121.539 15.4433 121.946C15.3103 122.352 15.1223 122.747 14.8373 123.101C14.5003 123.469 14.2423 123.648 13.9863 123.982C13.7363 124.291 13.5173 124.634 13.2993 125C13.3193 124.569 13.4613 124.155 13.6653 123.77C13.7613 123.573 13.8953 123.396 14.0383 123.225C14.1973 123.046 14.3453 122.932 14.4513 122.784C14.9303 122.19 15.2653 121.433 15.6743 120.694" fill="#8AE0D3" blush:i="0.0.0.0.17"/><path id="Fill 34" fill-rule="evenodd" clip-rule="evenodd" d="M15.9165 121.003C16.3735 121.233 16.8065 121.484 17.2445 121.718C17.6905 121.949 18.1025 122.171 18.5715 122.349C19.0445 122.561 19.5095 122.825 19.8835 123.208C20.2585 123.58 20.5455 124.083 20.5505 124.605C20.1225 123.663 19.2515 123.198 18.3735 122.808C17.9065 122.619 17.4365 122.352 17.0375 122.04C16.6305 121.732 16.2465 121.396 15.9165 121.003" fill="#8AE0D3" blush:i="0.0.0.0.18"/><path id="Fill 36" fill-rule="evenodd" clip-rule="evenodd" d="M29.5285 0.7722C29.5285 0.7722 21.2625 -0.5808 18.7755 1.9592L18.5035 3.4632C18.5035 3.4632 17.6545 4.3592 17.0895 5.3482C17.0895 5.3482 -5.15753 26.5622 13.4065 41.6462L13.7595 45.7222L20.8665 46.4082L23.6115 47.9272C23.6115 47.9272 31.7575 30.0802 46.2585 21.9952C46.2585 21.9952 44.1675 19.8582 40.0985 16.7282C40.0985 16.7282 42.9725 9.6312 40.0225 2.7972C40.0225 2.7972 37.8505 0.7722 29.5285 0.7722" fill="#99A4A6" blush:i="0.0.0.0.19"/><path id="Fill 38" fill-rule="evenodd" clip-rule="evenodd" d="M17.0894 5.3483C18.0524 5.7923 19.0144 6.2203 20.0074 6.5693C20.9834 6.9543 21.9764 7.2923 22.9814 7.5743C24.9894 8.1433 27.0264 8.5763 29.0864 8.7523C31.1474 8.9413 33.2134 8.7813 35.2364 8.3873L36.7414 8.0063C37.2364 7.8563 37.7054 7.6283 38.1934 7.4473L38.9304 7.1733L39.6204 6.8013C40.0784 6.5473 40.5454 6.3013 41.0224 6.0603C39.3994 7.4093 37.5254 8.5623 35.4274 9.1323C33.3504 9.7273 31.1564 9.9233 29.0044 9.7473C26.8554 9.5393 24.7414 9.0603 22.7394 8.3003C20.7414 7.5433 18.8074 6.6033 17.0894 5.3483" fill="#728285" blush:i="0.0.0.0.20"/><path id="Fill 40" fill-rule="evenodd" clip-rule="evenodd" d="M33.0586 13.6677C33.7076 13.7227 34.3386 13.8837 34.9586 14.0657C35.5816 14.2457 36.1836 14.4867 36.7776 14.7407C37.3646 15.0127 37.9466 15.2937 38.4986 15.6317C39.0546 15.9617 39.5946 16.3177 40.0986 16.7287C38.8916 16.2507 37.7416 15.7107 36.5756 15.1977C35.4116 14.6787 34.2496 14.1747 33.0586 13.6677" fill="#728285" blush:i="0.0.0.0.21"/><path id="Fill 42" fill-rule="evenodd" clip-rule="evenodd" d="M20.2726 6.9567C19.5386 8.2907 18.8766 9.6567 18.3336 11.0667C17.7606 12.4617 17.3136 13.9037 17.0076 15.3637C16.6936 16.8207 16.5626 18.3097 16.6816 19.7627C16.7526 21.2247 17.2206 22.6287 17.9556 23.8507L18.5426 24.7547L19.2496 25.6407L20.6896 27.3937C21.6496 28.5647 22.6576 29.6937 23.6436 30.8477C24.6386 31.9907 25.6596 33.1137 26.6936 34.2257C27.7056 35.3587 28.7586 36.4537 29.7996 37.5667C27.4246 35.6527 25.2136 33.5487 23.0786 31.3697C22.0026 30.2867 20.9826 29.1507 19.9686 28.0087C19.4686 27.4317 18.9746 26.8497 18.4916 26.2567L17.7666 25.3677L17.1006 24.3667C16.2916 22.9907 15.7846 21.4117 15.7396 19.8297C15.6696 18.2547 15.8266 16.6767 16.2626 15.1877C17.0666 12.1937 18.4636 9.4107 20.2726 6.9567" fill="#728285" blush:i="0.0.0.0.22"/><path id="Fill 44" fill-rule="evenodd" clip-rule="evenodd" d="M13.4062 41.6462C14.7543 42.2762 16.0223 43.0322 17.2713 43.8172C18.5102 44.6182 19.7283 45.4502 20.8663 46.4082C19.5182 45.7802 18.2502 45.0242 17.0022 44.2382C15.7642 43.4362 14.5453 42.6042 13.4062 41.6462" fill="#728285" blush:i="0.0.0.0.23"/><path id="Fill 46" fill-rule="evenodd" clip-rule="evenodd" d="M23.9849 47.155C26.8059 47.996 29.5559 49.016 32.3129 50.022C35.0479 51.082 37.7899 52.127 40.4639 53.355C37.6459 52.517 34.8929 51.495 32.1359 50.489C29.3999 49.427 26.6559 48.381 23.9849 47.155" fill="black" blush:i="0.0.0.0.24"/><path id="Fill 48" fill-rule="evenodd" clip-rule="evenodd" d="M48.5024 56.5925C48.9624 56.5865 49.4114 56.6845 49.8494 56.8075C50.2894 56.9255 50.7094 57.1045 51.1194 57.3005C51.5204 57.5125 51.9194 57.7335 52.2774 58.0135C52.6424 58.2825 52.9864 58.5815 53.2864 58.9275C52.4514 58.5545 51.6854 58.1355 50.8964 57.7475C50.1104 57.3525 49.3254 56.9795 48.5024 56.5925" fill="black" blush:i="0.0.0.0.25"/></g></g></g><g id="Female Character Running/Upper Body" blush:component="Female Character Running/Upper Body" blush:defaultValue="Shirt 1" blush:width="81" blush:height="83" transform="translate(95 71) scale(1 1)" blush:i="0.1" blush:value="Shirt 1" blush:viewBox="0.6639344262295097 0 79.67213114754098 82.58499999999998"><g id="Female Character Running/Upper Body/Shirt 1" blush:viewBox="0.6639344262295097 0 79.67213114754098 82.58499999999998" blush:i="0.1.0"><g id="Shirt" blush:i="0.1.0.0"><path id="Fill 55" fill-rule="evenodd" clip-rule="evenodd" d="M44.29 1.9186C44.29 1.9186 37.207 -2.6964 37.589 3.1656C37.972 9.0276 38.899 15.7836 27.911 18.9236C27.911 18.9236 23.816 20.9716 20.677 23.4956C17.538 26.0216 1.99202 35.0976 0.961019 39.6026C-0.0699811 44.1066 2.72802 56.3216 3.95702 60.2126C5.18502 64.1026 5.59502 63.4196 4.70702 65.8086C3.82002 68.1966 3.47902 70.9946 3.82002 74.6806C4.16202 78.3656 4.50302 79.8666 6.07302 76.4546C6.07302 76.4546 6.27702 78.2296 6.00402 79.5256C5.73102 80.8226 6.14102 82.4606 7.71002 79.5256C7.71002 79.5256 7.30102 82.1876 8.18802 82.2556C9.07502 82.3236 12.488 76.5916 9.89402 64.5116C9.89402 64.5116 9.21202 43.6656 9.00702 41.2246C9.00702 41.2246 22.588 35.2336 23.407 35.0976C23.407 35.0976 28.457 49.6596 28.662 52.5816C28.867 55.5036 43.471 58.7106 50.023 53.7976C50.023 53.7976 49.136 48.9516 51.388 45.8806C51.388 45.8806 56.165 53.3456 57.735 52.5816C59.304 51.8176 64.969 45.8806 67.153 41.9226C69.336 37.9646 71.248 28.8186 73.568 27.5226C75.888 26.2266 76.755 25.1226 77.934 22.9286C79.112 20.7336 80.697 18.5396 79.152 18.4176C79.152 18.4176 80.534 16.7106 80.006 15.8166C79.478 14.9226 78.746 15.8566 78.746 15.8566C78.746 15.8566 80.209 13.8666 79.478 13.3386C78.746 12.8106 77.73 14.2316 77.73 14.2316C77.73 14.2316 78.299 13.2166 77.771 12.9316C77.243 12.6476 72.366 17.9306 72.366 17.9306C72.366 17.9306 72.772 16.7106 72.448 15.1256C72.123 13.5416 71.188 16.1826 70.903 16.7516C70.619 17.3196 68.1 20.8966 68.506 23.9846C68.506 23.9846 63.029 33.1506 61.534 34.7506C60.038 36.3496 57.975 38.3096 57.407 40.2696C57.407 40.2696 52.559 33.0346 51.836 27.8316C51.114 22.6286 48.999 20.4106 47.658 19.9466C46.317 19.4816 44.306 19.0186 44.151 16.0776C44.151 16.0776 50.163 6.3006 44.29 1.9186" fill="#db8c5c" blush:color="Skin-500" blush:i="0.1.0.0.0"/><path id="Fill 57" fill-rule="evenodd" clip-rule="evenodd" d="M8.1616 72.9948C8.4196 74.0808 8.4856 75.1878 8.4586 76.2958C8.4366 76.8488 8.3886 77.4048 8.2766 77.9518C8.1666 78.4958 8.0226 79.0558 7.7106 79.5258C7.8276 78.9828 7.8656 78.4458 7.8946 77.9038L7.9586 76.2778C8.0056 75.1908 8.0306 74.1008 8.1616 72.9948" fill="black" blush:i="0.1.0.0.1"/><path id="Fill 59" fill-rule="evenodd" clip-rule="evenodd" d="M6.00684 72.1804C6.17085 72.5164 6.25784 72.8714 6.32784 73.2284C6.40284 73.5854 6.42784 73.9494 6.43784 74.3114C6.43984 75.0354 6.35385 75.7684 6.07285 76.4544C6.00985 76.0864 5.99785 75.7314 5.97385 75.3764C5.94985 75.0224 5.94684 74.6704 5.93784 74.3194C5.93584 73.6134 5.93284 72.9144 6.00684 72.1804" fill="black" blush:i="0.1.0.0.2"/><path id="Fill 61" fill-rule="evenodd" clip-rule="evenodd" d="M56.2588 45.7438C56.2588 45.7438 56.6488 41.8658 57.4068 40.2688Z" fill="#db8c5c" blush:color="Skin-500" blush:i="0.1.0.0.3"/><path id="Fill 63" fill-rule="evenodd" clip-rule="evenodd" d="M72.3664 17.9304C72.0854 18.5114 72.0634 19.1494 72.1624 19.7424C72.2634 20.3274 72.5394 20.9134 72.6704 21.5724C72.7964 22.2174 72.8524 22.8884 72.7424 23.5464C72.6424 24.2014 72.3864 24.8454 71.9504 25.3284C72.2074 24.7354 72.3414 24.1244 72.3604 23.5094C72.3744 22.8944 72.3094 22.2804 72.1804 21.6734C72.0794 21.0744 71.8094 20.4774 71.7814 19.7844C71.7494 19.1194 71.9044 18.4044 72.3664 17.9304" fill="black" blush:i="0.1.0.0.4"/><path id="Fill 65" fill-rule="evenodd" clip-rule="evenodd" d="M74.4189 18.6911C74.8149 17.8321 75.3299 17.0611 75.8739 16.3131C76.4329 15.5751 77.0209 14.8581 77.7299 14.2321C77.3359 15.0921 76.8199 15.8621 76.2749 16.6101C75.7149 17.3481 75.1269 18.0641 74.4189 18.6911" fill="black" blush:i="0.1.0.0.5"/><path id="Fill 67" fill-rule="evenodd" clip-rule="evenodd" d="M75.6577 19.5759C76.0627 18.8519 76.5647 18.2239 77.0787 17.6079C77.6037 16.9979 78.1547 16.4299 78.7457 15.8579C78.6237 16.2579 78.4107 16.6159 78.1907 16.9579C77.9727 17.3049 77.7187 17.6229 77.4587 17.9329C76.9237 18.5419 76.3487 19.1159 75.6577 19.5759" fill="black" blush:i="0.1.0.0.6"/><path id="Fill 69" fill-rule="evenodd" clip-rule="evenodd" d="M76.0747 21.6296C76.4787 20.9776 76.9757 20.4286 77.4887 19.8976C78.0107 19.3696 78.5617 18.8946 79.1527 18.4176C79.0227 18.7836 78.8007 19.0986 78.5787 19.4006C78.3577 19.7056 78.1017 19.9796 77.8447 20.2486C77.3117 20.7706 76.7467 21.2596 76.0747 21.6296" fill="black" blush:i="0.1.0.0.7"/><path id="Fill 71" fill-rule="evenodd" clip-rule="evenodd" d="M23.4067 35.0983C24.1877 34.3233 25.2517 33.8513 26.3497 33.6783C27.4487 33.5003 28.6207 33.6903 29.5687 34.2323C29.0227 34.1643 28.5047 34.0693 27.9777 34.0723C27.4557 34.0603 26.9367 34.0843 26.4247 34.1713C25.3947 34.3193 24.4007 34.6533 23.4067 35.0983" fill="black" blush:i="0.1.0.0.8"/><path id="Fill 73" fill-rule="evenodd" clip-rule="evenodd" d="M49.8149 25.8425C49.8649 22.0885 48.0339 19.8135 47.9469 19.7075C47.8149 19.5475 47.5789 19.5265 47.4189 19.6575C47.2599 19.7895 47.2369 20.0265 47.3689 20.1865C47.3859 20.2055 48.6179 21.7355 48.9739 24.3185C47.2599 20.6845 45.3159 18.2935 45.2229 18.1795C45.0909 18.0205 44.855 17.9985 44.695 18.1275C44.535 18.2595 44.511 18.4955 44.643 18.6555C44.667 18.6845 46.8609 21.3875 48.6099 25.3285H31.7399C31.7839 22.1565 32.0729 17.3745 32.0759 17.3235C32.0879 17.1175 31.9309 16.9405 31.7249 16.9275C31.5209 16.8975 31.3399 17.0715 31.3269 17.2795C31.3249 17.3245 31.0909 21.2005 31.0109 24.3025C29.5519 21.5125 27.7389 19.1165 27.6429 18.9905C27.5179 18.8265 27.2839 18.7945 27.1169 18.9205C26.9529 19.0455 26.9209 19.2805 27.0459 19.4465C27.0749 19.4835 29.8799 23.1865 31.2889 26.6685C32.8669 40.1535 24.7729 39.1295 24.7729 39.1295L28.1979 50.2605C41.7059 53.2705 49.8739 50.7535 49.8739 50.7535C50.2049 48.6845 52.7429 44.5255 55.0549 40.2695C57.0639 36.5705 51.3449 28.0175 49.8149 25.8425" fill="#FFEA49" blush:i="0.1.0.0.9"/></g></g></g><g id="Female Character Running/Head" blush:component="Female Character Running/Head" blush:defaultValue="Ponytail" blush:width="57" blush:height="45" transform="translate(94 54) scale(1 1)" blush:i="0.2" blush:value="Ponytail" blush:viewBox="0 0.7120253164557013 56.71499999999999 44.14556962025315"><g id="Female Character Running/Head/Ponytail" blush:viewBox="0 0.7120253164557013 56.71499999999999 44.14556962025315" blush:i="0.2.0"><g id="Group 112" blush:i="0.2.0.0"><path id="Fill 76" fill-rule="evenodd" clip-rule="evenodd" d="M38.5892 20.1657C38.5892 20.1657 32.9382 13.6337 33.1072 10.1737C33.2752 6.7137 34.6432 2.2097 43.9242 3.5597C53.2062 4.9097 53.5442 12.2507 53.5442 14.7817C53.5442 17.3127 56.4472 17.9837 56.5102 19.4617C56.5732 20.9377 54.2162 21.0637 54.7812 21.7867C55.3472 22.5097 54.9072 23.1057 54.3102 23.2947C54.3102 23.2947 54.9392 23.8607 54.6562 24.3947C54.3732 24.9297 53.4932 25.0867 53.9022 26.4697C54.3102 27.8517 53.1392 30.0737 48.7112 28.6437C44.2812 27.2137 41.8822 23.6607 41.0062 21.8147C41.0062 21.8147 39.7872 21.8137 38.5892 20.1657" fill="#db8c5c" blush:color="Skin-500" blush:i="0.2.0.0.0"/><path id="Fill 78" fill-rule="evenodd" clip-rule="evenodd" d="M24.4856 31.6774C23.2236 34.0034 19.2606 38.0924 14.2056 38.0494C9.15055 38.0074 5.75155 38.4324 4.64755 39.4084C4.64755 39.4084 6.38855 37.2424 11.7836 36.9034C17.1786 36.5634 20.0676 34.7364 21.7246 31.5074C23.3816 28.2804 24.2306 19.4864 24.2306 19.4864C24.2306 19.4864 25.8816 29.1054 24.4856 31.6774M52.1516 5.7404C50.7066 4.0324 49.3216 5.5124 49.3216 5.5124C49.3216 5.5124 47.3626 1.5414 41.4176 0.8224C35.4716 0.1024 31.3506 6.2594 31.3506 6.2594C27.8386 2.6124 20.2716 1.5414 14.4616 8.7594C8.65155 15.9774 13.2456 21.8324 12.0286 28.1144C10.8126 34.3984 5.00255 29.5334 1.43155 33.8584C-2.14045 38.1814 2.09755 42.7764 2.09755 42.7764C2.43555 44.2624 3.71855 44.8314 3.71855 44.8314L3.62855 43.1474C4.09455 42.9344 4.43455 41.5324 4.43455 41.5324C6.21855 38.4324 10.8916 38.8574 14.7576 39.0274C18.6236 39.1974 22.3916 36.6564 24.9956 33.1644C28.0216 29.1054 25.6326 20.4204 25.2076 16.7254C24.7826 13.0294 29.4986 9.1624 29.4986 9.1624C29.4986 9.1624 27.3746 13.5804 30.0076 20.1234C32.6416 26.6644 38.9716 26.0284 38.9716 26.0284C40.2036 24.1154 38.5896 20.1654 38.5896 20.1654C37.1446 18.3814 37.3996 16.4694 39.0566 16.2674C40.7136 16.0644 41.5626 18.0844 41.7326 19.1044C41.9026 20.1234 42.7286 19.6464 42.5826 17.7864C42.4356 15.9264 43.0916 11.0314 43.6866 9.8854C44.2816 8.7394 44.6206 9.1624 44.6206 9.1624C44.6206 9.1624 43.0066 11.8814 43.0066 16.8954C43.0066 21.9064 40.7136 23.3524 39.9056 24.0314C39.0986 24.7114 39.7786 24.7534 39.7786 24.7534C43.6866 23.4794 44.1536 19.2744 44.4506 16.2674C44.7486 13.2604 44.8756 10.4384 46.1076 8.1864C47.3396 5.9344 49.8086 5.8674 49.8086 5.8674C51.3086 4.6154 52.7756 8.4014 53.1366 9.3544C53.4986 10.3064 53.5966 7.4484 52.1516 5.7404" fill="#8ae0d3" blush:color="Hair-500" blush:i="0.2.0.0.1"/><path id="Fill 80" fill-rule="evenodd" clip-rule="evenodd" d="M1.96137 40.0554C1.94037 38.5894 2.00037 37.0604 2.65437 35.6804C2.97637 34.9954 3.49537 34.3794 4.16437 33.9874C4.82737 33.5844 5.58237 33.3834 6.32237 33.2674C7.80737 33.0354 9.29637 33.0544 10.6894 32.7094C12.0874 32.3984 13.2884 31.5674 14.0144 30.3614L14.0024 30.3824C14.6774 29.0634 15.0684 27.6214 15.0784 26.1464C15.0874 24.6704 14.8124 23.1884 14.4634 21.7204L13.9254 19.5084C13.7574 18.7154 13.7054 17.9234 13.7324 17.1394C13.7804 15.5714 14.1304 14.0364 14.6684 12.5784C14.9054 11.8364 15.2874 11.1524 15.6264 10.4524C16.0484 9.7964 16.4414 9.1194 16.9814 8.5494C17.4524 7.9214 18.0854 7.4464 18.6624 6.9244C19.3324 6.5264 19.9484 6.0224 20.6984 5.7824C22.1164 5.0964 23.7114 5.0044 25.2384 5.0104C26.0014 5.1064 26.7634 5.2074 27.5144 5.3434L29.7054 6.0084L27.4854 5.4844C26.7354 5.3874 25.9794 5.3254 25.2304 5.2674C23.7344 5.3474 22.2114 5.4974 20.8784 6.1864C20.1704 6.4324 19.5994 6.9364 18.9764 7.3284C18.4424 7.8454 17.8574 8.3064 17.4284 8.9204C16.9284 9.4724 16.5874 10.1404 16.1844 10.7624C15.8694 11.4354 15.5094 12.0904 15.2904 12.8054C14.7894 14.2024 14.4694 15.6824 14.4404 17.1614C14.4204 17.8994 14.4814 18.6314 14.6344 19.3304C14.8154 20.0634 15.0254 20.8034 15.1904 21.5524C15.5284 23.0454 15.8044 24.5844 15.7794 26.1594C15.7544 27.7364 15.3114 29.3034 14.5834 30.6844L14.5764 30.6984L14.5704 30.7054C14.1554 31.3624 13.6144 31.9544 12.9614 32.3954C12.3074 32.8344 11.5614 33.1044 10.8164 33.2614C9.31937 33.5794 7.82337 33.5124 6.38537 33.6954C4.96137 33.8454 3.53437 34.4624 2.87637 35.7944C2.18737 37.0754 2.04537 38.5934 1.96137 40.0554" fill="#6F3C00" blush:i="0.2.0.0.2"/><path id="Fill 82" fill-rule="evenodd" clip-rule="evenodd" d="M30.3207 6.489C28.1137 6.083 25.7787 6.186 23.7017 6.998C21.6077 7.786 19.9477 9.486 19.1137 11.536C18.2927 13.585 17.9367 15.85 17.9207 18.059C17.8887 20.298 18.5717 22.439 18.9537 24.694C19.3387 26.966 18.8897 29.375 17.7307 31.368C16.5957 33.374 14.5197 34.901 12.2017 35.167C11.6297 35.243 11.0527 35.259 10.4797 35.226C9.90371 35.2 9.33971 35.076 8.80071 35.05C7.70571 34.971 6.59471 35.285 5.71971 35.954C4.83171 36.61 4.18971 37.565 3.72271 38.577C3.25771 39.594 2.94471 40.688 2.78271 41.802C2.90371 40.682 3.17571 39.574 3.60871 38.526C4.04471 37.486 4.65971 36.482 5.56771 35.757C6.47071 35.032 7.65872 34.672 8.81371 34.73C9.40071 34.75 9.94572 34.86 10.4977 34.873C11.0497 34.892 11.6027 34.866 12.1457 34.782C14.3337 34.469 16.2657 33.06 17.3347 31.137C18.4277 29.227 18.8337 26.942 18.4627 24.766C18.1107 22.587 17.4217 20.362 17.4687 18.061C17.5067 15.78 17.8627 13.501 18.7697 11.385C19.6747 9.279 21.4477 7.528 23.6177 6.777C25.7777 6.02 28.1277 6.007 30.3207 6.489" fill="#6F3C00" blush:i="0.2.0.0.3"/><path id="Fill 84" fill-rule="evenodd" clip-rule="evenodd" d="M30.3211 7.2077C28.1831 7.2257 25.9111 7.6867 24.3941 9.1817C22.8811 10.6837 22.3811 12.8777 22.1521 14.9747C21.7391 19.2367 22.2121 23.6037 21.4611 27.9637C21.0451 30.1077 20.2211 32.3177 18.5881 33.9077C16.9601 35.4907 14.7621 36.3377 12.5871 36.6027C11.5011 36.7427 10.3881 36.7497 9.3501 36.8867C8.2981 37.0347 7.2561 37.2967 6.3211 37.7797C5.3921 38.2617 4.5901 39.0207 4.1641 39.9987C3.7211 40.9687 3.6151 42.0687 3.6281 43.1467C3.5361 42.0737 3.5671 40.9537 3.9821 39.9207C4.3691 38.8817 5.1831 38.0187 6.1421 37.4587C7.1151 36.9087 8.1971 36.6067 9.2791 36.4187C10.3831 36.2387 11.4461 36.2017 12.4991 36.0317C14.5881 35.6877 16.6321 34.9007 18.1061 33.4247C19.5871 31.9537 20.3421 29.8947 20.7251 27.8247C21.5181 23.6277 21.0421 19.2537 21.5821 14.9057C21.8851 12.7707 22.4681 10.4697 24.1431 8.9157C25.8511 7.4207 28.1901 7.0627 30.3211 7.2077" fill="#6F3C00" blush:i="0.2.0.0.4"/><path id="Fill 86" fill-rule="evenodd" clip-rule="evenodd" d="M38.9546 2.571C40.5746 2.103 42.3226 2.087 43.9806 2.446C44.8086 2.633 45.6146 2.936 46.3516 3.356C47.1086 3.749 47.7456 4.327 48.3356 4.921C47.6806 4.393 47.0166 3.88 46.2616 3.525C45.5216 3.15 44.7396 2.853 43.9256 2.689C43.1186 2.497 42.2876 2.409 41.4546 2.389C40.6216 2.38 39.7826 2.425 38.9546 2.571" fill="#782001" blush:i="0.2.0.0.5"/><path id="Fill 88" fill-rule="evenodd" clip-rule="evenodd" d="M31.5513 6.8444C32.4023 5.8684 33.4633 5.0864 34.6013 4.4464C35.7413 3.8034 37.0073 3.3684 38.3133 3.1564C38.9673 3.0414 39.6323 3.0384 40.2953 3.0394C40.9513 3.1274 41.6223 3.1424 42.2483 3.3714C42.5613 3.4734 42.8863 3.5364 43.1863 3.6704L44.0813 4.0734C44.6653 4.3614 45.1873 4.7644 45.7123 5.1274C44.5223 4.6274 43.3653 4.1074 42.1213 3.9344C40.8993 3.7164 39.6483 3.6784 38.4273 3.8974C37.2033 4.0784 36.0103 4.4634 34.8573 4.9604C34.2813 5.2124 33.7163 5.4964 33.1713 5.8214C32.6073 6.1174 32.0813 6.4774 31.5513 6.8444" fill="#6F3C00" blush:i="0.2.0.0.6"/><path id="Fill 90" fill-rule="evenodd" clip-rule="evenodd" d="M31.104 7.5895C33.128 6.6865 35.374 6.2625 37.605 6.3505C38.722 6.4115 39.829 6.6545 40.868 7.0625C41.92 7.4605 42.829 8.1405 43.645 8.8815C42.767 8.2085 41.839 7.6005 40.798 7.2415C39.767 6.8805 38.689 6.6415 37.592 6.5995C36.497 6.5365 35.397 6.6175 34.311 6.7875C33.226 6.9665 32.146 7.2175 31.104 7.5895" fill="#6F3C00" blush:i="0.2.0.0.7"/><path id="Fill 92" fill-rule="evenodd" clip-rule="evenodd" d="M31.104 8.4343C32.86 7.2983 35.075 6.9203 37.173 7.1593C38.221 7.3043 39.267 7.5493 40.217 8.0143C40.709 8.2053 41.148 8.5053 41.598 8.7683C42.028 9.0653 42.438 9.3923 42.831 9.7263C41.884 9.2913 40.964 8.8643 40.003 8.5593C39.056 8.2243 38.071 8.0293 37.086 7.9033C36.099 7.7663 35.096 7.7803 34.097 7.8623C33.098 7.9593 32.094 8.1253 31.104 8.4343" fill="#6F3C00" blush:i="0.2.0.0.8"/><path id="Fill 94" fill-rule="evenodd" clip-rule="evenodd" d="M31.104 9.279C32.618 10.463 34.237 11.458 35.942 12.282C36.792 12.696 37.665 13.067 38.558 13.387C39.446 13.727 40.366 13.971 41.29 14.248C40.331 14.176 39.371 14.022 38.441 13.755C37.501 13.513 36.6 13.145 35.724 12.731C34.851 12.308 34.014 11.81 33.237 11.233C32.459 10.658 31.718 10.026 31.104 9.279" fill="#6F3C00" blush:i="0.2.0.0.9"/><path id="Fill 96" fill-rule="evenodd" clip-rule="evenodd" d="M31.104 9.7263C31.651 10.4903 32.392 11.0813 33.147 11.6183C33.911 12.1493 34.725 12.6103 35.572 12.9973C36.406 13.4143 37.285 13.7333 38.161 14.0573C39.045 14.3603 39.94 14.6333 40.843 14.8943L39.462 14.6123L38.101 14.2413C37.205 13.9523 36.317 13.6273 35.465 13.2213C34.616 12.8113 33.787 12.3463 33.035 11.7723C32.287 11.2023 31.577 10.5433 31.104 9.7263" fill="#6F3C00" blush:i="0.2.0.0.10"/><path id="Fill 98" fill-rule="evenodd" clip-rule="evenodd" d="M30.6567 10.1735C31.3297 12.2255 32.1807 14.1925 33.2337 16.0475C33.7467 16.9825 34.3267 17.8775 34.9487 18.7445C35.5567 19.6265 36.2677 20.4265 36.9677 21.2545C35.2677 19.9145 33.8547 18.1935 32.7977 16.2915C32.2677 15.3415 31.8017 14.3535 31.4467 13.3245C31.0847 12.3015 30.7897 11.2495 30.6567 10.1735" fill="#6F3C00" blush:i="0.2.0.0.11"/><path id="Fill 100" fill-rule="evenodd" clip-rule="evenodd" d="M30.321 10.944C30.327 12.209 30.517 13.463 30.805 14.686C31.104 15.907 31.533 17.098 32.111 18.213C32.662 19.338 33.313 20.424 34.122 21.388C34.901 22.379 35.826 23.24 36.769 24.084C36.282 23.681 35.762 23.313 35.3 22.88C34.852 22.43 34.384 21.997 33.994 21.495C33.155 20.538 32.47 19.454 31.887 18.323C31.325 17.178 30.918 15.964 30.644 14.723C30.362 13.485 30.23 12.208 30.321 10.944" fill="#6F3C00" blush:i="0.2.0.0.12"/><path id="Fill 102" fill-rule="evenodd" clip-rule="evenodd" d="M48.187 13.8747C48.187 13.8747 48.754 13.4397 49.416 13.5157C50.078 13.5917 52.176 13.2887 52.29 13.1187C52.403 12.9477 52.611 12.5517 52.611 12.5517C52.611 12.5517 49.983 11.2657 48.187 13.8747" fill="black" blush:i="0.2.0.0.13"/><path id="Fill 104" fill-rule="evenodd" clip-rule="evenodd" d="M52.1956 16.9001C52.1956 16.9001 51.0606 15.6331 50.1156 15.7091C49.1706 15.7851 48.7166 16.1631 48.7546 16.6351C48.7926 17.1081 49.5676 16.9571 49.9646 16.9001C50.3616 16.8431 51.6286 16.7351 51.8926 16.9681C51.8926 16.9681 51.9706 16.9931 51.9306 16.8681C51.9306 16.8681 52.1886 16.9651 52.1956 16.9001" fill="black" blush:i="0.2.0.0.14"/><path id="Fill 106" fill-rule="evenodd" clip-rule="evenodd" d="M55.564 20.3083C55.564 20.3083 55.352 20.2953 55.132 20.3083C54.911 20.3223 54.36 20.5253 54.382 20.7233C54.404 20.9213 54.783 20.8293 55.03 20.7233C55.277 20.6183 55.753 20.4013 55.564 20.3083" fill="black" blush:i="0.2.0.0.15"/><path id="Fill 108" fill-rule="evenodd" clip-rule="evenodd" d="M51.7402 22.9157C51.7402 22.9157 52.4602 23.9967 53.3652 24.0037C54.2702 24.0117 54.5632 23.6027 54.5632 23.6027C54.5632 23.6027 54.4142 23.3697 54.3102 23.2947C54.3102 23.2947 54.7432 23.1777 54.8782 22.9157C54.8782 22.9157 54.7672 22.8077 54.5262 22.9157C54.2862 23.0227 53.1142 23.1247 52.5652 22.8667C52.0162 22.6097 51.7402 22.9157 51.7402 22.9157" fill="#F83C1F" blush:i="0.2.0.0.16"/><path id="Fill 110" fill-rule="evenodd" clip-rule="evenodd" d="M40.6945 20.2272C40.6575 20.2272 40.6205 20.2192 40.5855 20.2022C40.5195 20.1692 38.9895 19.4052 39.2645 18.2402C39.3505 17.8742 39.5165 17.6652 39.7575 17.6192C40.1825 17.5392 40.5655 18.0492 40.6385 18.1532C40.7185 18.2662 40.6915 18.4212 40.5795 18.5012C40.4665 18.5792 40.3105 18.5542 40.2305 18.4422C40.1015 18.2592 39.9105 18.0872 39.8515 18.1102C39.8535 18.1112 39.7985 18.1552 39.7515 18.3552C39.5685 19.1322 40.7935 19.7472 40.8055 19.7522C40.9285 19.8142 40.9805 19.9632 40.9195 20.0872C40.8755 20.1752 40.7865 20.2272 40.6945 20.2272" fill="black" blush:i="0.2.0.0.17"/></g></g></g></g></svg>