<svg viewBox="55.57500000000002 0.30924855491329595 138.9375 213.38150289017346" fill="none" xmlns="http://www.w3.org/2000/svg" xmlns:xlink="http://www.w3.org/1999/xlink" xmlns:blush="http://design.blush" overflow="visible" width="138.9375px" height="213.38150289017346px"><g id="Master/Stickers/Monstera" blush:has-customizable-colors="true" blush:viewBox="55.57500000000002 1.3591224018475714 137.08499999999998 211.2817551963049" blush:i="0"><g id="Group 61 Copy" blush:i="0.0"><path id="Fill 4816" fill-rule="evenodd" clip-rule="evenodd" d="M115.907 211.539C90.1091 212.399 97.7261 197.814 93.0781 180.635C105.556 181.841 126.476 183.771 141.678 180.641C140.119 184.126 139.729 188.718 138.464 192.566C135.203 207.811 132.734 212.543 115.907 211.539" fill="#FECDC7" blush:i="0.0.0"/><path id="Fill 4818" fill-rule="evenodd" clip-rule="evenodd" d="M134.489 181.838C123.622 182.288 110.333 183.377 100.604 181.222C111.38 179.446 124.479 178.934 134.489 181.838" fill="#5F4134" blush:i="0.0.1"/><path id="Fill 4820" fill-rule="evenodd" clip-rule="evenodd" d="M134.489 181.838C131.804 180.295 125.041 182.187 129.066 177.983C135.117 177.761 147.385 180.827 134.489 181.838" fill="#FDADA7" blush:i="0.0.2"/><path id="Fill 4822" fill-rule="evenodd" clip-rule="evenodd" d="M103.425 180.842C100.87 181.42 94.9381 182.288 94.1221 179.304C98.3231 178.246 102.844 176.522 103.425 180.842" fill="#FDADA7" blush:i="0.0.3"/><path id="Fill 4824" fill-rule="evenodd" clip-rule="evenodd" d="M95.2545 178.718C94.2435 179.692 93.6575 179.59 94.9855 180.668C92.4065 180.186 92.9165 179.087 95.2545 178.718" fill="#FDB7B2" blush:i="0.0.4"/><path id="Fill 4826" fill-rule="evenodd" clip-rule="evenodd" d="M140.602 180.941C140.747 180.522 141.28 180.333 140.739 180.023C137.275 178.182 144.221 180.58 140.602 180.941" fill="#FDB7B2" blush:i="0.0.5"/><path id="Fill 4828" fill-rule="evenodd" clip-rule="evenodd" d="M95.251 180.68C95.902 180.654 96.821 180.49 97.14 181.208C96.55 180.891 95.784 181.201 95.251 180.68" fill="#FDB7B2" blush:i="0.0.6"/><path id="Fill 4830" fill-rule="evenodd" clip-rule="evenodd" d="M98.5732 181.474C98.9072 181.117 99.3702 181.154 99.7442 181.566C99.3542 181.536 98.9642 181.504 98.5732 181.474" fill="#FDB7B2" blush:i="0.0.7"/><path id="Fill 4832" fill-rule="evenodd" clip-rule="evenodd" d="M93.2864 181.483C93.2564 181.182 93.2244 180.881 93.1934 180.581C93.5244 180.921 93.5634 181.302 93.2864 181.483" fill="#FED9D4" blush:i="0.0.8"/><path id="Fill 4834" fill-rule="evenodd" clip-rule="evenodd" d="M98.0354 181.303C98.2694 181.128 98.2944 181.292 98.3084 181.472C98.2184 181.416 98.1264 181.36 98.0354 181.303" fill="#FDB7B2" blush:i="0.0.9"/><path id="Fill 4836" fill-rule="evenodd" clip-rule="evenodd" d="M97.4069 181.216C97.5889 181.27 97.4979 181.242 97.4069 181.216C97.5509 181.059 97.6399 181.089 97.4069 181.216" fill="#FDB7B2" blush:i="0.0.10"/><path id="Fill 4838" fill-rule="evenodd" clip-rule="evenodd" d="M105.84 180.532C98.6944 176.076 124.66 175.681 125.534 179.439C119.526 181.245 112.267 179.235 105.84 180.532" fill="#FECDC7" blush:i="0.0.11"/><path id="Fill 4840" fill-rule="evenodd" clip-rule="evenodd" d="M122.173 180.142C124.977 180.227 125.538 179.755 124.893 177.657C132.652 177.135 127.381 181.984 122.173 180.142" fill="#FDB7B2" blush:i="0.0.12"/><path id="Fill 4842" fill-rule="evenodd" clip-rule="evenodd" d="M103.692 177.798C105.157 178.946 106.306 181.217 103.426 180.841C102.035 178.835 100.906 178.83 103.692 177.798" fill="#FDB7B2" blush:i="0.0.13"/><path id="Fill 4844" fill-rule="evenodd" clip-rule="evenodd" d="M100.822 178.082C99.8064 178.378 97.8244 179.099 96.8574 178.479C98.1514 178.079 99.4804 178.071 100.822 178.082" fill="#FDB7B2" blush:i="0.0.14"/><path id="Fill 4846" fill-rule="evenodd" clip-rule="evenodd" d="M139.435 179.342C139.315 179.455 139.208 179.607 139.066 179.66C138.014 178.828 138.229 179.033 139.435 179.342" fill="#FDB7B2" blush:i="0.0.15"/><path id="Fill 4848" fill-rule="evenodd" clip-rule="evenodd" d="M96.2301 178.5C95.7601 178.64 95.9961 178.569 96.2301 178.5C96.4451 179.112 95.8631 179.136 96.2301 178.5" fill="#FDB7B2" blush:i="0.0.16"/><path id="Fill 4850" fill-rule="evenodd" clip-rule="evenodd" d="M136.202 178.699C135.712 178.642 135.025 179.003 134.759 178.473C135.24 178.549 135.721 178.624 136.202 178.699" fill="#FDB7B2" blush:i="0.0.17"/><path id="Fill 4852" fill-rule="evenodd" clip-rule="evenodd" d="M133.595 178.363C133.282 178.686 133.036 178.467 132.788 178.263C133.057 178.297 133.326 178.33 133.595 178.363" fill="#FDB7B2" blush:i="0.0.18"/><path id="Fill 4854" fill-rule="evenodd" clip-rule="evenodd" d="M132.162 178.196C131.915 178.468 131.717 178.341 131.53 178.12C131.741 178.145 131.951 178.171 132.162 178.196" fill="#FDB7B2" blush:i="0.0.19"/><path id="Fill 4856" fill-rule="evenodd" clip-rule="evenodd" d="M134.316 178.444C134.133 178.746 133.994 178.624 133.864 178.399C134.014 178.415 134.166 178.429 134.316 178.444" fill="#FDB7B2" blush:i="0.0.20"/><path id="Fill 4858" fill-rule="evenodd" clip-rule="evenodd" d="M132.516 178.26L132.337 178.213L132.516 178.26Z" fill="#FDB7B2" blush:i="0.0.21"/><path id="Fill 4860" fill-rule="evenodd" clip-rule="evenodd" d="M116.362 180.07C117.493 179.892 118.851 179.815 119.952 180.113C118.756 180.098 117.558 180.084 116.362 180.07" fill="#FDB7B2" blush:i="0.0.22"/><path id="Fill 4862" fill-rule="evenodd" clip-rule="evenodd" d="M120.123 180.118C120.396 179.865 121.212 179.854 121.477 180.135C121.025 180.129 120.574 180.123 120.123 180.118" fill="#FDB7B2" blush:i="0.0.23"/><path id="Fill 4864" fill-rule="evenodd" clip-rule="evenodd" d="M105.84 180.532C106.12 180.493 106.402 180.453 106.683 180.413C106.402 180.453 106.12 180.493 105.84 180.532" fill="#FDB7B2" blush:i="0.0.24"/><path id="Fill 4866" fill-rule="evenodd" clip-rule="evenodd" d="M121.649 180.14C121.771 180.135 121.892 180.131 122.013 180.126C121.892 180.131 121.771 180.135 121.649 180.14" fill="#FDB7B2" blush:i="0.0.25"/><path id="Fill 4868" fill-rule="evenodd" clip-rule="evenodd" d="M116.162 180.05C116.232 180.055 116.303 180.06 116.373 180.064C116.303 180.06 116.232 180.055 116.162 180.05" fill="#FDB7B2" blush:i="0.0.26"/><path id="Fill 4870" fill-rule="evenodd" clip-rule="evenodd" d="M145.113 9.41645C145.111 9.41145 145.11 9.40945 145.107 9.40545L145.113 9.41645Z" fill="#416A36" blush:i="0.0.27"/><path id="Fill 4872" fill-rule="evenodd" clip-rule="evenodd" d="M109.361 142.679C109.363 142.654 109.362 142.666 109.361 142.679C109.371 142.667 109.379 142.655 109.361 142.679" fill="#416A36" blush:i="0.0.28"/><path id="Fill 4874" fill-rule="evenodd" clip-rule="evenodd" d="M182.164 50.6089C182.167 50.6119 182.169 50.6189 182.175 50.6179L182.164 50.6089Z" fill="#416A36" blush:i="0.0.29"/><path id="Fill 4876" fill-rule="evenodd" clip-rule="evenodd" d="M186.289 135.888C185.889 135.704 185.03 134.442 186 134.755C186.375 135.021 186.749 135.703 186.289 135.888V135.888ZM185.165 134.571C181.486 130.801 172.492 125.503 169.756 124.465C175.453 127.638 181.299 127.203 186.3 127.825C174.554 126.689 183.382 130.922 185.165 134.571V134.571ZM183.771 139.167C183.668 137.55 181.747 134.996 182.262 133.855C182.707 135.188 184.477 137.649 183.771 139.167V139.167ZM180.204 136.957C178.644 138.235 177.389 134.381 177.813 133.242C179.221 131.782 180.975 135.7 180.204 136.957V136.957ZM175.826 137.585C174.966 135.267 174.651 132.298 173.601 129.857C175.143 131.595 176.101 135.283 175.826 137.585V137.585ZM172.793 136.864C170.527 140.969 167.75 132.205 168.762 130.016C172.06 128.699 173.222 134.42 172.793 136.864V136.864ZM130.741 136.293C111.393 191.148 139.73 64.4751 152.694 59.8691C152.361 63.1661 154.071 66.9781 155.265 69.7821C155.241 67.3421 158.616 61.0811 157.284 66.6721C155.194 88.9881 134.877 111.16 130.741 136.293V136.293ZM126.606 153.141C124.514 158.617 124.671 182.499 121.584 167.411C119.879 163.656 127.631 147.095 126.606 153.141V153.141ZM121.178 153.183C119.765 171.431 114.94 124.684 118.166 120.599C119.574 121.551 125.487 126.592 124.15 121.988C132.647 104.268 121.31 144.798 121.178 153.183V153.183ZM118.944 165.553C112.284 198.237 110.341 127.597 109.987 113.538C121.369 124.724 113.613 149.325 118.944 165.553V165.553ZM116.408 111.513C116.518 112.897 114.898 116.013 113.673 114.033C113.405 112.952 115.739 110.279 116.408 111.513V111.513ZM109.981 111.933C109.015 109.347 116.811 102.438 116.094 106.798C113.674 107.533 110.662 111.805 109.981 111.933V111.933ZM110.242 101.336C110.625 100.499 113.707 98.9821 113.822 100.656C112.542 102.513 109.268 105.461 110.242 101.336V101.336ZM110.479 95.3181C111.014 94.2531 113.817 93.1841 114.791 94.5291C114.601 95.5431 109.833 97.1731 110.479 95.3181V95.3181ZM131.278 105.068C131.231 107.353 126.955 106.369 126.885 104.407C127.375 103.215 130.747 104.166 131.278 105.068V105.068ZM130.776 100.368C129.399 100.205 123.329 101.358 125.813 98.7361C127.557 96.7701 135.409 99.1731 130.776 100.368V100.368ZM111.105 85.7981C114.454 72.9901 108.643 41.4841 126.304 61.2591C134.068 67.9561 131.078 78.5701 137.824 63.7661C139.519 60.1001 143.244 57.3811 145.068 54.3161C144.294 51.9781 133.537 43.5721 139.756 45.1391C147.643 52.8921 142.201 54.6191 149.752 51.8161C151.352 65.6511 136.995 79.2711 134.766 93.9611C134.536 96.1601 133.007 93.3751 131.698 93.7261C128.922 92.1571 126.103 95.5991 123.467 93.9561C124.245 90.3781 131.412 92.4871 133.964 93.7911C131.015 88.6411 125.749 82.2761 120.281 88.1031C113.361 83.9361 110.443 89.0571 111.105 85.7981V85.7981ZM114.395 44.4691C114.954 43.6041 115.706 42.5411 116.75 42.1711C116.241 42.8691 115.016 44.7031 114.395 44.4691V44.4691ZM120.448 54.1771C118.697 55.9311 122.751 48.5581 124.956 48.4901C123.405 50.1331 121.3 51.8961 120.448 54.1771V54.1771ZM117.708 47.2181C119.082 43.9051 125.1 37.8741 128.238 41.3891C126.041 42.8481 115.486 52.9381 117.708 47.2181V47.2181ZM118.955 40.2901C120.117 39.6741 121.359 38.1951 122.523 38.0391C122.09 38.9101 117.301 42.4931 118.955 40.2901V40.2901ZM123.238 37.4161C125.204 36.1551 127.692 35.1461 129.187 33.8421C128.175 35.0871 124.146 38.1201 123.238 37.4161V37.4161ZM129.768 44.3671C131.721 43.1181 129.647 45.2281 128.561 45.7821C128.375 45.1361 129.377 44.7901 129.768 44.3671V44.3671ZM129.695 33.4041C130.344 32.8931 130.827 32.0171 131.616 31.7751C132.006 32.3561 129.103 34.3801 129.695 33.4041V33.4041ZM133.422 40.8961C134.418 40.7431 131.815 43.1921 131.215 43.7241C130.622 42.9871 132.954 41.7831 133.422 40.8961V40.8961ZM131.301 56.1021C131.906 55.4511 133.134 54.4981 133.997 53.5671C133.906 54.6081 131.394 56.5761 131.301 56.1021V56.1021ZM126.147 47.2051C126.771 46.7871 127.311 46.2271 127.985 45.8961C129.241 45.6581 124.723 49.0481 126.147 47.2051V47.2051ZM125.35 48.1741C125.702 48.3971 124.972 48.4521 125.039 48.2091C125.145 48.1861 125.266 48.2091 125.35 48.1741V48.1741ZM130.853 56.7601C129.704 57.3981 129.409 58.9411 128.31 59.4621C128.345 58.6601 130.356 55.8981 130.853 56.7601V56.7601ZM129.809 52.6141C127.964 56.1071 123.051 55.5911 126.65 51.7281C129.193 48.4881 135.109 48.7141 129.809 52.6141V52.6141ZM132.073 30.9421C132.689 30.4111 134.639 26.7961 133.915 28.3171C134.15 28.9901 132.185 32.1271 132.073 30.9421V30.9421ZM133.147 14.4151C133.415 13.8691 133.448 14.9241 133.431 15.1891C133.15 15.0401 132.989 14.7181 133.147 14.4151V14.4151ZM133.686 15.8391C133.601 15.9511 133.533 15.8251 133.457 15.7681C133.51 15.5971 133.616 15.7591 133.686 15.8391V15.8391ZM134.231 18.8161C134.418 19.6701 134.241 21.0791 134.518 21.5521C133.677 21.2191 133.563 18.9781 134.231 18.8161V18.8161ZM134.07 18.1841C134.149 18.2241 134.115 18.2821 134.112 18.3491C134.013 18.3231 134.053 18.2651 134.07 18.1841V18.1841ZM134.181 18.5381C134.201 18.5781 134.231 18.6181 134.185 18.6461C134.17 18.6061 134.129 18.5691 134.181 18.5381V18.5381ZM136.104 51.3221C136.077 52.0861 136.273 52.8951 135.973 53.6141C135.088 52.5411 135.831 47.9991 136.104 51.3221V51.3221ZM136.114 43.9291C135.746 46.0251 136.54 47.8601 135.678 49.5811C135.586 48.2601 135.373 40.9451 136.114 43.9291V43.9291ZM135.785 40.9231C135.831 41.9381 135.169 40.1691 135.424 39.7771C135.729 38.9831 136.266 40.6061 135.785 40.9231V40.9231ZM135.073 29.0641C135.185 31.1841 136.461 38.3571 135.336 38.7001C135.354 35.7431 134.375 32.1451 135.073 29.0641V29.0641ZM134.825 28.3121C134.781 28.3641 134.711 28.5811 134.711 28.4041C134.684 28.2891 134.75 28.2671 134.825 28.3121V28.3121ZM134.73 26.8741C134.842 27.0581 135.061 27.3201 134.75 27.3991C134.472 27.2801 134.507 27.0291 134.73 26.8741V26.8741ZM134.92 26.6931C134.746 26.7671 134.71 26.8011 134.621 26.6581C134.748 26.5571 134.777 26.5621 134.92 26.6931V26.6931ZM134.595 25.9491C134.854 26.4301 134.35 24.7171 134.663 24.7361C134.369 24.8261 135.316 25.5791 134.595 25.9491V25.9491ZM136.147 57.3691C135.775 60.9451 136.272 64.1941 135.14 67.6641C135.301 65.0901 135.849 51.1851 136.147 57.3691V57.3691ZM134.862 21.9361C137.735 27.1651 142.866 29.3231 147.812 31.6841C142.886 30.9291 134.668 24.7301 134.862 21.9361V21.9361ZM134.893 16.0741C135.094 16.3231 135.401 16.5491 135.626 16.6941C135.376 16.6341 134.538 15.8201 134.893 16.0741V16.0741ZM136.002 17.0431C137.469 18.0031 139.727 19.3131 141.101 19.5091C140.101 20.3271 135.431 17.5701 136.002 17.0431V17.0431ZM142.556 19.5001C142.894 19.5081 142.648 19.8791 142.495 19.9071C142.047 19.7891 142.139 19.5991 142.556 19.5001V19.5001ZM142.929 19.7601C143.099 19.3101 143.679 19.6101 144.058 19.6711C143.836 20.1361 142.934 20.3921 142.929 19.7601V19.7601ZM144.349 19.6521C144.653 19.9931 144.371 20.0251 144.112 19.8481C143.973 19.9451 144.254 19.7481 144.349 19.6521V19.6521ZM144.974 23.2811C148.72 23.3191 160.146 29.5671 157.142 31.2021C153.932 25.7071 147.402 27.6171 142.476 25.3071C137.496 22.3231 141.502 22.0571 144.974 23.2811V23.2811ZM146.639 19.5761C148.926 19.8791 151.302 19.4731 153.168 20.4711C152.665 19.8951 145.851 20.7781 146.639 19.5761V19.5761ZM147.672 47.3641C148.974 48.2841 142.807 43.2901 141.074 42.2961C143.574 43.1761 146.454 45.2311 147.672 47.3641V47.3641ZM148.516 48.8321C148.347 49.0291 148.233 49.0291 148.215 48.7411C148.288 48.6281 148.417 48.7991 148.516 48.8321V48.8321ZM150.051 43.2281C147.404 40.0191 143.205 37.7481 139.899 34.9721C139.276 28.5611 149.983 40.1501 150.051 43.2281V43.2281ZM151.374 33.5951C144.686 28.6851 156.091 35.2951 155.576 40.0171C155.813 42.8011 153.624 34.3551 151.374 33.5951V33.5951ZM151.509 46.6711C151.074 45.9591 150.349 44.7281 150.246 43.7621C151.196 44.0161 151.623 46.3031 151.509 46.6711V46.6711ZM158.87 36.4571C164.601 38.3431 156.247 46.6221 152.993 46.9231C155.673 44.4451 156.206 37.4791 158.87 36.4571V36.4571ZM158.768 49.6321C159.208 49.3241 160.436 47.5761 160.563 48.2031C160.406 48.7321 158.891 50.2741 158.768 49.6321V49.6321ZM162.054 50.1071C169.072 46.7471 160.422 56.2851 159.306 58.5781C157.235 57.4611 161.098 52.0761 162.054 50.1071V50.1071ZM163.969 56.7741C163.258 57.7781 161.851 61.0621 161.78 60.8471C161.761 59.9971 164.166 55.1271 163.969 56.7741V56.7741ZM158.472 50.7101C157.487 51.8111 156.694 53.3841 155.581 54.2031C155.477 53.3211 158.398 49.4511 158.472 50.7101V50.7101ZM108.419 104.444C107.205 105.436 107.84 102.174 108.541 103.093C108.496 103.587 108.458 104.015 108.419 104.444V104.444ZM113.225 46.7621C113.159 47.1341 112.441 47.8891 112.439 47.2151C113.012 46.0131 114.58 44.6251 113.225 46.7621V46.7621ZM124.304 23.7811C123.3 23.7811 122.226 24.2361 121.327 24.0441C121.155 23.8211 125.029 23.1011 124.304 23.7811V23.7811ZM120.376 24.3281C119.878 24.3311 117.651 25.0481 118.254 24.3161C118.741 24.3421 120.597 23.8151 120.376 24.3281V24.3281ZM165.942 35.3511C166.532 35.5751 166.805 37.1511 166.743 37.8791C166.131 37.4851 166.061 36.0471 165.942 35.3511V35.3511ZM167.974 57.2131C174.352 50.5411 168.796 62.0221 167.051 64.7611C164.61 63.1451 166.726 59.1491 167.974 57.2131V57.2131ZM168.161 41.3901C168.306 41.5401 168.235 41.5981 168.043 41.6181C167.915 41.5351 168.099 41.4641 168.161 41.3901V41.3901ZM168.417 42.1251C168.266 42.3961 168.192 42.5601 168.031 42.2561C168.165 42.1751 168.25 42.0021 168.417 42.1251V42.1251ZM169.053 43.3281C168.874 43.4641 168.806 43.5261 168.665 43.3431C168.823 43.2071 168.881 43.1011 169.053 43.3281V43.3281ZM168.695 36.5881C169.528 36.8101 170.469 36.7141 171.24 37.0861C170.775 37.4711 168.035 37.0051 168.695 36.5881V36.5881ZM168.832 32.2431C173.62 25.3561 186.739 35.2501 173.338 32.3831C171.921 32.4961 168.384 35.1641 168.832 32.2431V32.2431ZM172.005 47.8911C174.893 50.7821 183.804 71.1551 179.9 63.7291C178.907 59.0721 165.861 39.1541 172.005 47.8911V47.8911ZM180.635 57.3871C182.409 56.3641 184.779 59.0581 184.09 60.4061C183.008 60.9951 178.224 58.4711 180.635 57.3871V57.3871ZM182.385 71.5091C181.556 71.5001 181.766 68.3531 181.507 68.3671C182.222 68.8711 182.186 70.5531 182.385 71.5091V71.5091ZM176.897 64.7401C176.228 68.9131 173.375 65.7801 174.924 63.1071C176.055 59.9721 177.956 62.6251 176.897 64.7401V64.7401ZM167.706 77.6521C169.358 76.3961 173.05 80.5061 172.044 82.1691C170.012 83.1951 167.57 79.3881 167.706 77.6521V77.6521ZM172.879 80.4851C172.907 80.4901 172.933 80.5031 172.96 80.5131C172.931 80.5681 172.794 80.5041 172.879 80.4851V80.4851ZM191.673 138.8C189.744 132.957 188.199 122.536 181.401 121.615C179.896 122.081 176.092 125.22 176.115 121.911C184.882 116.297 175.672 115.686 171.309 121.117C167.699 125.112 174.531 116.514 177.579 116.513C175.805 114.543 170.71 113.432 168.219 114.555C166.368 115.873 165.955 118.05 164.754 119.67C164.318 118.778 166.438 116.376 166.967 115.086C167.72 113.093 158.685 119.348 161.1 123.018C156.923 125.707 145.71 126.391 140.521 132.102C118.243 157.652 150.375 86.9971 159.388 76.8151C164.702 81.6621 166.499 90.2831 167.093 97.0111C173.599 92.2661 177.277 73.8541 165.682 71.5301C161.112 68.4761 169.577 69.6521 171.256 71.0811C172.027 71.0181 169.957 66.0811 171.417 67.4021C170.571 70.6221 178.127 69.0481 180.44 71.3941C182.251 71.9991 183.697 75.8141 183.892 72.4211C184.138 69.0361 186.448 65.0061 182.312 63.5791C187.792 65.9261 187.342 55.6661 181.833 54.6441C185.49 56.9201 190.425 58.5781 185.5 51.9751C182.951 49.8121 178.646 51.2371 176.537 48.6011C178.974 46.7131 185.175 50.9511 188.074 52.6481C190.044 48.7301 182.83 45.9161 179.736 44.7311C182.951 44.8051 186.176 47.3541 188.361 49.7391C191.133 45.1391 184.746 42.5601 180.477 41.9781C161.495 39.8721 180.518 37.0221 188.188 43.4991C187.666 36.8301 164.74 36.1321 183.635 38.4931C194.832 46.4041 179.546 22.2711 171.316 26.4821C164.325 30.7261 169.174 34.2111 159.357 31.7991C159.581 26.4701 157.942 21.3601 153.93 20.3191C164.574 23.7821 149.79 4.38613 141.085 10.0291C139.755 9.97913 133.375 13.0071 136.658 10.2281C146.556 4.69813 162.138 13.5601 143.71 2.45213C138.287 0.534132 135.567 9.06913 130.628 8.23213C124.571 0.247132 114.1 -0.708869 108.969 9.15313C95.888 36.9201 108.081 13.9111 119.963 14.5721C128.691 17.3811 110.918 18.0051 108.522 20.7251C95.342 32.2681 109.277 25.0661 116.601 24.8611C105.814 25.2751 98.59 31.4701 105.123 40.5781C108.155 35.4541 119.97 23.8451 124.613 30.4441C118.198 33.8621 107.643 35.4441 105.503 43.1981C107.524 47.3381 111.212 49.9041 113.982 52.6271C109.574 67.3311 112.653 84.4431 104.839 97.2541C101.786 104.086 110.626 92.6741 107.955 97.6931C101.602 100.736 111.499 127.046 109.005 138.138C109.554 147.985 113.905 202.539 119.015 171.131C119.871 171.943 116.794 182.014 120.288 179.355C120.66 177.355 120.293 168.81 121.79 173.947C122.662 176.145 123.705 184.342 125.472 179.375C124.49 159.203 129.718 135.732 150.591 128.003C162.865 123.436 156.091 127.046 158.301 135.054C162.862 142.553 168.619 140.594 165.43 131.885C165.462 130.251 162.481 123.777 164.738 127.314C166.67 131.519 166.463 136.462 167.093 140.735C169.648 140.881 177.243 142.734 175.878 138.586C176.543 141.246 179.948 140.338 183.471 139.921C188.243 138.733 189.294 140.2 187.422 136.152C188.496 137.001 191.106 140.779 191.673 138.8V138.8Z" fill="#416A36" blush:i="0.0.30"/><path id="Fill 4878" fill-rule="evenodd" clip-rule="evenodd" d="M125.414 48.1791C125.411 48.1791 125.413 48.1791 125.414 48.1791C125.413 48.1781 125.411 48.1781 125.414 48.1791" fill="#416A36" blush:i="0.0.31"/><path id="Fill 4880" fill-rule="evenodd" clip-rule="evenodd" d="M171.29 114.293C171.293 114.288 171.286 114.287 171.282 114.285L171.29 114.293Z" fill="#416A36" blush:i="0.0.32"/><path id="Fill 4882" fill-rule="evenodd" clip-rule="evenodd" d="M88.9256 55.1187C88.9216 55.1157 88.9226 55.1157 88.9256 55.1187C88.9286 55.1117 88.9246 55.1107 88.9256 55.1187" fill="#416A36" blush:i="0.0.33"/><path id="Fill 4886" fill-rule="evenodd" clip-rule="evenodd" d="M88.9165 55.1137C88.9195 55.1157 88.9225 55.1157 88.9255 55.1187C88.9255 55.1187 88.9145 55.1107 88.9165 55.1137" fill="#416A36" blush:i="0.0.34"/><path id="Fill 4888" fill-rule="evenodd" clip-rule="evenodd" d="M106.178 148.032C106.13 148.016 106.091 147.973 106.029 147.928C106.148 147.749 106.373 148.039 106.178 148.032M78.3284 104.548C78.2354 104.579 78.0334 104.493 78.0804 104.39C78.1744 104.423 78.2464 104.495 78.3284 104.548M83.6774 106.355C82.2304 106.135 79.9884 105.428 78.4664 104.655C80.2114 105.026 82.1094 105.49 83.6774 106.355M87.3104 109.27C87.0154 109.762 85.3874 108.052 85.1474 107.557C85.8744 107.389 86.6054 108.819 87.3104 109.27M86.7294 106.087C84.3694 104.694 80.4504 104.071 78.1144 102.552C79.4504 99.5887 86.7134 102.93 86.7294 106.087M105.764 157.13C99.6104 142.298 92.4804 126.706 81.8094 114.799C84.2914 114.323 88.0004 123.305 88.4544 119.184C89.3524 112.992 68.6194 104.758 83.3224 110.695C87.0544 114.119 91.6654 120.229 88.3334 111.294C88.5194 109.652 89.5864 114.06 89.8344 112.866C92.8204 93.0527 73.6164 103.023 71.8574 94.0247C74.3454 91.6217 79.3004 92.3007 78.1884 87.5547C77.2884 83.6387 73.0294 74.1377 78.4804 82.8237C77.1204 93.8167 85.0314 96.0897 83.0634 83.8787C81.0474 79.1247 74.5154 70.7977 81.4974 79.6107C85.2284 82.9697 83.7844 88.3697 83.7914 91.9727C97.9074 91.1897 101.809 142.172 105.764 157.13M81.5234 120.186C78.9534 120.589 76.2974 117.289 74.8784 115.499C75.9994 113.158 82.5024 118.273 81.5234 120.186M79.3244 122.922C78.0454 120.868 76.3394 119.521 74.6214 118.182C76.3884 118.612 79.2564 120.965 79.3244 122.922M73.5334 102.076C73.1914 102.492 72.2944 104.893 72.2234 103.594C73.2924 101.886 75.9814 98.4587 73.5334 102.076M73.5264 117.664C72.9734 117.448 71.1044 115.665 72.1914 116.084C72.5434 116.431 74.7334 117.642 73.5264 117.664M71.1404 101.754C67.1314 104.275 57.6544 102.144 66.7814 100.303C67.5214 99.8747 72.6034 99.7917 71.1404 101.754M69.0804 111.767C67.6064 115.918 67.5624 126.597 67.2304 117.473C58.9774 123.456 69.9584 114.833 69.0804 111.767M68.1084 133.544C67.7644 133.331 67.4584 133.089 67.9334 132.834C67.9724 133.069 68.2514 133.361 68.1084 133.544M66.6504 124.632C66.2964 125.258 64.7274 127.887 64.4034 126.718C64.4814 126.494 66.6034 124.01 66.6504 124.632M63.1974 125.625C60.8934 128.463 61.9374 122.864 63.8094 122.434C66.9244 121.553 64.1444 124.652 63.1974 125.625M67.4514 89.3137C68.5124 87.6807 68.5414 82.0167 70.4244 81.9597C69.3094 83.7677 66.8704 94.8447 67.4514 89.3137M67.5324 74.4217C66.9154 74.0447 65.6534 75.1787 65.1264 74.3547C65.8014 73.7297 69.6564 73.4247 67.5324 74.4217M69.8724 73.7457C69.8654 73.7687 69.8404 73.7867 69.8174 73.8137C69.7664 73.7407 69.8534 73.6497 69.8724 73.7457M63.3994 72.5527C54.6574 74.1707 60.4864 68.4997 65.6824 69.0297C73.5494 69.4767 67.8054 72.4467 63.3994 72.5527M71.3654 86.1427C73.2264 83.2607 74.1504 89.6167 73.3724 91.0987C71.0944 92.9987 70.7844 87.3667 71.3654 86.1427M71.3554 77.6537C72.4934 76.5177 73.0244 72.3557 74.0894 72.6847C74.6134 73.9477 69.4974 82.7707 71.3554 77.6537M73.5974 65.1997C73.6154 65.1867 73.6634 65.2197 73.7244 65.2427C73.6414 65.3987 73.4924 65.3227 73.5974 65.1997M74.2704 65.1767C74.5324 65.4967 74.3744 65.6897 74.1984 65.9847C73.8704 65.6587 73.9274 65.5097 74.2704 65.1767M74.5504 71.6997C75.3094 70.7517 77.9364 65.4787 78.0894 67.4987C77.2894 67.9657 74.8934 74.2367 74.5504 71.6997M83.2964 64.6417C83.6854 66.0897 84.8644 68.1777 84.6874 68.9787C84.6044 69.3527 82.6774 65.7207 83.2964 64.6417M86.0834 76.1357C87.5324 78.4717 91.0844 85.5527 88.9294 86.7177C89.2844 84.1047 78.5244 70.6917 86.0834 76.1357M87.0734 72.0847C87.4454 72.6467 89.1114 73.5767 88.4704 74.0467C88.0454 73.7447 86.4264 72.0867 87.0734 72.0847M90.5544 56.0537C91.7014 63.4377 100.138 68.6207 100.865 75.7807C98.4704 68.6377 91.5374 63.4367 90.5544 56.0537M112.074 181.216C106.017 150.558 103.551 119.958 91.4474 91.3847C97.6764 88.0417 92.7534 80.0827 89.6164 75.6767C93.2314 78.0977 95.3064 84.4017 95.1044 88.9007C103.22 82.8987 91.7054 76.0257 89.3554 70.3277C90.7224 63.0937 99.0764 77.3057 98.5424 80.8357C99.5814 92.4787 100.477 79.7617 101.141 76.1597C101.293 94.5027 107.506 69.0737 97.5674 64.6347C98.8994 55.5267 105.255 78.4447 104.564 80.4437C110.832 71.2147 106.588 51.5137 93.7904 51.6627C88.2444 54.4277 82.7354 63.4907 78.7824 65.5277C78.7874 63.3197 88.2554 58.4277 81.0664 58.7757C75.7964 57.5527 72.5824 55.3827 80.2014 58.0967C102.361 56.5597 88.8244 33.2937 70.4184 44.7267C55.1964 55.6707 80.4344 45.5157 82.8504 55.8277C77.1774 56.4897 70.7304 49.4987 64.2454 51.7377C54.9414 57.7037 71.6744 52.0097 72.5084 55.9377C64.3694 50.5527 50.1564 63.4267 65.4244 59.2707C67.2184 59.0427 69.3234 58.9267 71.2254 59.5777C85.4004 68.3897 62.1234 58.4767 58.3484 62.6317C54.7794 67.1377 59.9074 62.8037 62.0234 63.7897C65.1464 63.8767 72.3224 63.6757 73.0644 66.0107C65.9504 63.9997 54.0024 61.8197 56.2854 73.5447C55.6084 81.6537 59.5744 73.5227 64.2154 74.5917C60.6884 75.6757 54.7944 78.9007 57.8164 83.1417C59.7494 80.9887 64.2584 77.2177 67.0484 79.3077C64.4094 81.6217 53.9494 84.1827 60.4134 89.0427C61.6904 84.5777 72.6364 80.7837 64.1134 85.2537C57.6154 88.6867 63.3164 93.1597 63.8214 97.1957C59.0774 101.4 53.5464 115.892 63.6964 108.809C73.2194 108.303 55.1634 110.428 58.2514 115.374C61.4344 112.053 56.9414 117.365 58.7074 119.822C59.6074 120.132 60.9104 117.262 62.2984 116.855C71.1694 114.891 56.7174 119.518 59.6314 122.601C64.3884 117.953 60.5924 121.084 60.1034 124.436C62.7524 131.788 63.0394 128.087 63.8544 129.247C63.1564 131.791 67.4414 137.364 69.5474 137.433C73.5604 134.389 68.3854 129.124 69.9474 127.949C72.5484 129.342 71.6054 135.358 74.7574 131.167C74.2524 127.806 71.9074 125.314 69.9694 122.718C73.4524 126.452 79.8484 136.356 75.5594 124.999C69.6804 119.489 72.8084 118.53 76.3694 124.811C78.2204 131.839 82.0574 126.945 86.1364 123.681C98.1894 139.511 107.605 160.304 108.69 180.899C108.836 184.815 110.406 180.733 110.594 181.012C110.611 182.439 113.16 182.473 112.074 181.216" fill="#416A36" blush:i="0.0.35"/><path id="Fill 4890" fill-rule="evenodd" clip-rule="evenodd" d="M67.2355 83.2319C67.2215 83.2399 67.2285 83.2359 67.2355 83.2319C67.2285 83.2349 67.2225 83.2399 67.2355 83.2319" fill="#416A36" blush:i="0.0.36"/><path id="Fill 4892" fill-rule="evenodd" clip-rule="evenodd" d="M67.2071 83.2408C67.2121 83.2428 67.2101 83.2418 67.2071 83.2408C67.1971 83.2508 67.2041 83.2488 67.2071 83.2408" fill="#416A36" blush:i="0.0.37"/><path id="Fill 4894" fill-rule="evenodd" clip-rule="evenodd" d="M101.142 76.1586C101.108 76.1626 101.065 76.1626 101.031 76.1666C101.068 76.1636 101.105 76.1606 101.142 76.1586" fill="#416A36" blush:i="0.0.38"/><path id="Fill 4896" fill-rule="evenodd" clip-rule="evenodd" d="M89.8062 110.603C89.8072 110.604 89.8062 110.604 89.8062 110.603C89.8032 110.605 89.8052 110.605 89.8062 110.603" fill="#416A36" blush:i="0.0.39"/><path id="Fill 4898" fill-rule="evenodd" clip-rule="evenodd" d="M67.2342 83.2319C67.2252 83.2349 67.2172 83.2319 67.2072 83.2409C67.2172 83.2479 67.2252 83.2359 67.2342 83.2319" fill="#416A36" blush:i="0.0.40"/><path id="Fill 4900" fill-rule="evenodd" clip-rule="evenodd" d="M188.315 42.1705C188.525 41.9465 188.47 41.8845 188.298 41.7035C188.084 41.8685 188.168 41.9495 188.315 42.1705" fill="#416A36" blush:i="0.0.41"/><path id="Fill 4902" fill-rule="evenodd" clip-rule="evenodd" d="M188.213 40.8814C188.148 40.6324 188.099 40.6614 188.057 40.8824C188.092 41.0644 188.164 41.0574 188.213 40.8814" fill="#416A36" blush:i="0.0.42"/><path id="Fill 4904" fill-rule="evenodd" clip-rule="evenodd" d="M182.251 50.4672C182.292 50.4962 182.272 50.4822 182.251 50.4672C182.171 50.5962 182.204 50.5962 182.251 50.4672" fill="#416A36" blush:i="0.0.43"/><path id="Fill 4906" fill-rule="evenodd" clip-rule="evenodd" d="M182.187 50.5942C182.179 50.5992 182.172 50.6042 182.165 50.6092C182.177 50.6252 182.181 50.6052 182.187 50.5942" fill="#416A36" blush:i="0.0.44"/><path id="Fill 4908" fill-rule="evenodd" clip-rule="evenodd" d="M69.1937 65.0756C69.3567 65.0156 69.3307 64.8716 69.1627 64.8976C69.0697 64.9366 69.0447 65.1136 69.1937 65.0756" fill="#416A36" blush:i="0.0.45"/><path id="Fill 4910" fill-rule="evenodd" clip-rule="evenodd" d="M69.1944 65.0756C69.1664 65.0756 69.1364 65.0756 69.1084 65.0746C69.1364 65.1146 69.1624 65.0956 69.1944 65.0756" fill="#416A36" blush:i="0.0.46"/><path id="Fill 4912" fill-rule="evenodd" clip-rule="evenodd" d="M183.677 73.8159C183.68 73.8219 183.693 73.8219 183.698 73.8199L183.677 73.8159Z" fill="#416A36" blush:i="0.0.47"/><path id="Fill 4914" fill-rule="evenodd" clip-rule="evenodd" d="M71.3792 65.6381C71.3292 65.6411 71.2792 65.6441 71.2302 65.6461C71.3202 65.7461 71.3362 65.7781 71.3792 65.6381" fill="#416A36" blush:i="0.0.48"/><path id="Fill 4916" fill-rule="evenodd" clip-rule="evenodd" d="M56.9961 65.0668C57.0011 64.9888 56.9981 65.0278 56.9961 65.0668C57.0981 65.0148 57.0641 65.0278 56.9961 65.0668" fill="#416A36" blush:i="0.0.49"/><path id="Fill 4918" fill-rule="evenodd" clip-rule="evenodd" d="M60.823 64.4008C60.813 64.3958 60.801 64.3828 60.795 64.3858C60.722 64.4148 60.84 64.4588 60.823 64.4008" fill="#416A36" blush:i="0.0.50"/><path id="Fill 4920" fill-rule="evenodd" clip-rule="evenodd" d="M177.414 116.672C177.432 116.673 177.449 116.674 177.467 116.674C177.462 116.634 177.424 116.635 177.414 116.672" fill="#416A36" blush:i="0.0.51"/><path id="Fill 4922" fill-rule="evenodd" clip-rule="evenodd" d="M79.7722 55.4682C79.7902 55.4892 79.7812 55.4782 79.7722 55.4682C79.7162 55.4932 79.7892 55.5562 79.7722 55.4682" fill="#416A36" blush:i="0.0.52"/><path id="Fill 4924" fill-rule="evenodd" clip-rule="evenodd" d="M105.595 40.4946C105.554 40.5006 105.574 40.4976 105.595 40.4946C105.56 40.4526 105.533 40.4336 105.595 40.4946" fill="#416A36" blush:i="0.0.53"/><path id="Fill 4926" fill-rule="evenodd" clip-rule="evenodd" d="M105.539 40.4409C105.544 40.4479 105.543 40.4379 105.544 40.4329L105.539 40.4409Z" fill="#416A36" blush:i="0.0.54"/><path id="Fill 4928" fill-rule="evenodd" clip-rule="evenodd" d="M105.444 40.4282C105.46 40.3832 105.452 40.4062 105.444 40.4282C105.538 40.4462 105.531 40.4162 105.444 40.4282" fill="#416A36" blush:i="0.0.55"/><path id="Fill 4930" fill-rule="evenodd" clip-rule="evenodd" d="M105.532 40.433C105.54 40.433 105.536 40.433 105.532 40.433C105.536 40.44 105.541 40.442 105.532 40.433" fill="#416A36" blush:i="0.0.56"/><path id="Fill 4932" fill-rule="evenodd" clip-rule="evenodd" d="M65.5101 133.907L65.5191 133.891C65.5121 133.892 65.5101 133.902 65.5101 133.907" fill="#416A36" blush:i="0.0.57"/><path id="Fill 4934" fill-rule="evenodd" clip-rule="evenodd" d="M110.444 25.9594C110.405 25.9814 110.423 26.0154 110.444 26.0474C110.489 26.0214 110.461 25.9924 110.444 25.9594" fill="#416A36" blush:i="0.0.58"/><path id="Fill 4936" fill-rule="evenodd" clip-rule="evenodd" d="M140.423 46.0366C140.432 46.0366 140.44 46.0366 140.448 46.0356C140.443 46.0206 140.432 46.0326 140.423 46.0366" fill="#416A36" blush:i="0.0.59"/><path id="Fill 4938" fill-rule="evenodd" clip-rule="evenodd" d="M140.409 46.0444C140.436 46.0334 140.403 46.0384 140.39 46.0384C140.397 46.0404 140.404 46.0464 140.409 46.0444" fill="#416A36" blush:i="0.0.60"/><path id="Fill 4940" fill-rule="evenodd" clip-rule="evenodd" d="M157.498 64.1363C157.463 64.1643 157.428 64.1943 157.393 64.2223C157.463 64.2373 157.469 64.1723 157.498 64.1363" fill="#416A36" blush:i="0.0.61"/><path id="Fill 4942" fill-rule="evenodd" clip-rule="evenodd" d="M157.498 64.1362C157.469 64.1722 157.463 64.2372 157.393 64.2222C157.503 64.2842 157.538 64.2572 157.498 64.1362" fill="#416A36" blush:i="0.0.62"/><path id="Fill 4944" fill-rule="evenodd" clip-rule="evenodd" d="M170.188 58.2954C170.171 58.2704 170.152 58.2694 170.132 58.2914C170.15 58.3194 170.167 58.3204 170.188 58.2954" fill="#416A36" blush:i="0.0.63"/><path id="Fill 4946" fill-rule="evenodd" clip-rule="evenodd" d="M170.031 45.4145C169.966 45.4305 169.954 45.3315 169.888 45.3475C169.935 45.3695 169.983 45.3925 170.031 45.4145" fill="#416A36" blush:i="0.0.64"/><path id="Fill 4948" fill-rule="evenodd" clip-rule="evenodd" d="M169.889 45.3471C169.954 45.3311 169.966 45.4301 170.032 45.4141C170.03 45.2901 169.985 45.2621 169.889 45.3471" fill="#416A36" blush:i="0.0.65"/><path id="Fill 4950" fill-rule="evenodd" clip-rule="evenodd" d="M154.954 38.0337C154.932 37.9247 154.898 37.9097 154.801 37.9877C154.857 38.0547 154.903 38.1277 154.954 38.0337" fill="#416A36" blush:i="0.0.66"/><path id="Fill 4952" fill-rule="evenodd" clip-rule="evenodd" d="M136.143 57.2993C136.143 57.3343 136.144 57.3523 136.182 57.3263C136.166 57.3163 136.157 57.3093 136.143 57.2993" fill="#416A36" blush:i="0.0.67"/><path id="Fill 4954" fill-rule="evenodd" clip-rule="evenodd" d="M135.938 57.1772C135.699 57.2252 135.944 57.5432 136.146 57.3432C136.137 57.2472 135.988 57.2072 135.938 57.1772" fill="#416A36" blush:i="0.0.68"/><path id="Fill 4956" fill-rule="evenodd" clip-rule="evenodd" d="M135.283 65.1509C135.326 65.2769 135.371 65.3099 135.474 65.1849C135.404 65.0869 135.324 65.0259 135.283 65.1509" fill="#416A36" blush:i="0.0.69"/><path id="Fill 4958" fill-rule="evenodd" clip-rule="evenodd" d="M135.499 65.2329C135.531 65.2839 135.547 65.2459 135.56 65.2049C135.538 65.1549 135.514 65.1999 135.499 65.2329" fill="#416A36" blush:i="0.0.70"/><path id="Fill 4960" fill-rule="evenodd" clip-rule="evenodd" d="M135.797 47.9155C135.851 47.8625 135.867 47.8045 135.793 47.7575C135.769 47.8115 135.774 47.8625 135.797 47.9155" fill="#416A36" blush:i="0.0.71"/><path id="Fill 4962" fill-rule="evenodd" clip-rule="evenodd" d="M125.414 48.1752C125.414 48.1772 125.414 48.1762 125.414 48.1752C125.412 48.1772 125.41 48.1792 125.414 48.1752" fill="#416A36" blush:i="0.0.72"/><path id="Fill 4964" fill-rule="evenodd" clip-rule="evenodd" d="M125.411 48.1782C125.393 48.1822 125.346 48.1622 125.352 48.1842C125.372 48.1822 125.391 48.1822 125.411 48.1782" fill="#416A36" blush:i="0.0.73"/><path id="Fill 4966" fill-rule="evenodd" clip-rule="evenodd" d="M125.416 48.1791L125.414 48.1751C125.414 48.1771 125.414 48.1791 125.416 48.1791" fill="#416A36" blush:i="0.0.74"/><path id="Fill 4968" fill-rule="evenodd" clip-rule="evenodd" d="M125.41 48.1791C125.382 48.2131 125.396 48.1971 125.41 48.1791C125.367 48.1771 125.342 48.1861 125.41 48.1791" fill="#416A36" blush:i="0.0.75"/><path id="Fill 4970" fill-rule="evenodd" clip-rule="evenodd" d="M144.227 19.8237L144.199 19.8377C144.204 19.8527 144.222 19.8257 144.227 19.8237" fill="#416A36" blush:i="0.0.76"/><path id="Fill 4972" fill-rule="evenodd" clip-rule="evenodd" d="M89.8917 110.515C89.8687 110.518 89.8317 110.577 89.8037 110.599C89.8377 110.583 89.8617 110.541 89.8917 110.515" fill="#416A36" blush:i="0.0.77"/><path id="Fill 4974" fill-rule="evenodd" clip-rule="evenodd" d="M89.8911 110.515C89.8991 110.532 89.8861 110.549 89.8931 110.549C89.8911 110.55 89.9021 110.497 89.8911 110.515" fill="#416A36" blush:i="0.0.78"/><path id="Fill 4976" fill-rule="evenodd" clip-rule="evenodd" d="M89.8491 110.597C89.8371 110.603 89.8141 110.592 89.8071 110.605C89.8181 110.603 89.8491 110.607 89.8491 110.597" fill="#416A36" blush:i="0.0.79"/><path id="Fill 4978" fill-rule="evenodd" clip-rule="evenodd" d="M89.8914 110.551C89.8924 110.599 89.8444 110.603 89.8074 110.605C89.9554 110.975 90.1564 110.506 89.8914 110.551" fill="#416A36" blush:i="0.0.80"/><path id="Fill 4980" fill-rule="evenodd" clip-rule="evenodd" d="M89.8116 110.598C89.8076 110.602 89.8096 110.6 89.8116 110.598C89.8056 110.598 89.8016 110.598 89.8116 110.598" fill="#416A36" blush:i="0.0.81"/><path id="Fill 4982" fill-rule="evenodd" clip-rule="evenodd" d="M89.8956 110.511C89.8946 110.51 89.8926 110.509 89.8916 110.507C89.8916 110.513 89.8906 110.517 89.8956 110.511" fill="#416A36" blush:i="0.0.82"/><path id="Fill 4984" fill-rule="evenodd" clip-rule="evenodd" d="M89.8916 110.551C89.9056 110.477 89.8376 110.578 89.8116 110.598C89.8486 110.604 89.8826 110.589 89.8916 110.551" fill="#416A36" blush:i="0.0.83"/><path id="Fill 4986" fill-rule="evenodd" clip-rule="evenodd" d="M89.8911 110.551C89.8861 110.575 89.8701 110.589 89.8491 110.597C89.8771 110.595 89.8901 110.579 89.8911 110.551" fill="#416A36" blush:i="0.0.84"/><path id="Fill 4988" fill-rule="evenodd" clip-rule="evenodd" d="M84.0392 88.353C84.0162 88.337 83.9902 88.314 83.9822 88.355C84.0042 88.385 84.0182 88.385 84.0392 88.353" fill="#416A36" blush:i="0.0.85"/><path id="Fill 4990" fill-rule="evenodd" clip-rule="evenodd" d="M87.87 120.82C87.842 120.788 87.813 120.757 87.786 120.725C87.774 120.792 87.827 120.801 87.87 120.82" fill="#416A36" blush:i="0.0.86"/><path id="Fill 4992" fill-rule="evenodd" clip-rule="evenodd" d="M87.8703 120.82C87.8273 120.801 87.7743 120.792 87.7863 120.725C87.6923 120.823 87.7753 120.824 87.8703 120.82" fill="#416A36" blush:i="0.0.87"/><path id="Fill 4994" fill-rule="evenodd" clip-rule="evenodd" d="M88.7451 85.8794C88.7741 85.9094 88.8031 85.9404 88.8311 85.9714C88.8921 85.8554 88.7561 85.9274 88.7451 85.8794" fill="#416A36" blush:i="0.0.88"/><path id="Fill 4996" fill-rule="evenodd" clip-rule="evenodd" d="M88.745 85.8793C88.756 85.9273 88.892 85.8553 88.831 85.9713C88.979 85.8243 88.906 85.8223 88.745 85.8793" fill="#416A36" blush:i="0.0.89"/><path id="Fill 4998" fill-rule="evenodd" clip-rule="evenodd" d="M78.0271 57.7455C78.1661 57.8075 78.2601 57.9075 78.2991 57.7515C78.1961 57.6365 78.1621 57.5755 78.0271 57.7455" fill="#416A36" blush:i="0.0.90"/><path id="Fill 5000" fill-rule="evenodd" clip-rule="evenodd" d="M73.5078 89.8813C73.5028 89.8603 73.4898 89.8413 73.4798 89.8203C73.4218 89.8433 73.4808 89.9473 73.5078 89.8813" fill="#416A36" blush:i="0.0.91"/><path id="Fill 5002" fill-rule="evenodd" clip-rule="evenodd" d="M67.8593 116.041C67.8913 116.064 67.9263 116.082 67.9493 116.041C67.9143 116.023 67.8853 115.994 67.8593 116.041" fill="#416A36" blush:i="0.0.92"/><path id="Fill 5004" fill-rule="evenodd" clip-rule="evenodd" d="M68.1842 88.7094C68.1802 88.7114 68.1832 88.7114 68.1842 88.7094C68.1872 88.7034 68.1812 88.7114 68.1842 88.7094" fill="#416A36" blush:i="0.0.93"/><path id="Fill 5006" fill-rule="evenodd" clip-rule="evenodd" d="M68.0267 88.3119C67.9757 88.3549 67.9257 88.3969 67.8757 88.4389C67.9767 88.4579 68.0227 88.4109 68.0267 88.3119" fill="#416A36" blush:i="0.0.94"/><path id="Fill 5008" fill-rule="evenodd" clip-rule="evenodd" d="M68.1793 88.7123C68.2573 88.5543 68.3033 88.3533 68.0273 88.3123C67.8483 88.4663 67.8283 88.9643 68.1793 88.7123" fill="#416A36" blush:i="0.0.95"/><path id="Fill 5010" fill-rule="evenodd" clip-rule="evenodd" d="M74.822 72.5083C74.838 72.4513 74.88 72.4153 74.919 72.3743C74.788 72.3513 74.75 72.3933 74.822 72.5083" fill="#416A36" blush:i="0.0.96"/></g></g></svg>