<svg viewBox="1.1749999999999972 2.3499999999999943 91.64999999999998 89.29999999999997" fill="none" xmlns="http://www.w3.org/2000/svg" xmlns:xlink="http://www.w3.org/1999/xlink" xmlns:blush="http://design.blush" overflow="visible" width="91.64999999999998px" height="89.29999999999997px"><g id="Master/New Stickers/Bubble List" blush:has-customizable-colors="true" blush:viewBox="1.4099999999999966 2.819999999999993 90.70999999999998 87.89000000000003" blush:i="0"><path id="Union" d="M85.0476 69.4764C89.2267 59.7819 89.2267 48.2909 89.2267 46.6916C89.2267 45.0924 89.141 43.5131 88.974 41.9582V41.877H88.9652C86.567 19.9395 67.9717 2.86864 45.3878 2.86864C21.1763 2.86864 1.5489 22.4889 1.5489 46.6916C1.5489 70.8944 21.1763 90.5146 45.3878 90.5146C53.6853 90.5146 61.4444 88.2103 68.0596 84.2068C70.3818 82.8014 73.9421 79.6571 75.4165 81.0819L88.9652 84.2068C90.0515 85.325 91.9473 84.5563 91.9473 82.9976L85.0476 69.4764Z" fill="#FADEC3" blush:i="0.0"/><g id="Group 292" blush:i="0.1"><rect id="Rectangle 26" x="18.8359" y="30.8225" width="11.9556" height="11.9556" rx="0.516071" fill="#FFF6ED" blush:i="0.1.0"/><rect id="Rectangle 27" x="18.8359" y="50.6911" width="11.9556" height="11.9556" rx="0.516071" fill="#FFF6ED" blush:i="0.1.1"/><g id="Group 278" blush:i="0.1.2"><path id="Vector 17 (Stroke)" fill-rule="evenodd" clip-rule="evenodd" d="M20.6552 32.2988C20.9313 32.0737 21.3376 32.115 21.5628 32.3912L29.3349 41.925C29.56 42.2011 29.5186 42.6075 29.2425 42.8326C28.9664 43.0577 28.56 43.0163 28.3349 42.7402L20.5628 33.2064C20.3376 32.9302 20.379 32.5239 20.6552 32.2988Z" fill="#EABD91" blush:i="0.1.2.0"/><path id="Vector 18 (Stroke)" fill-rule="evenodd" clip-rule="evenodd" d="M28.611 32.8249C28.8551 33.0845 28.8426 33.4927 28.5831 33.7368L19.6231 42.1641C19.3636 42.4081 18.9553 42.3956 18.7112 42.1361C18.4671 41.8766 18.4796 41.4683 18.7392 41.2242L27.6991 32.797C27.9586 32.5529 28.3669 32.5654 28.611 32.8249Z" fill="#EABD91" blush:i="0.1.2.1"/></g><g id="Group 279" blush:i="0.1.3"><path id="Vector 18 (Stroke)_2" fill-rule="evenodd" clip-rule="evenodd" d="M29.6372 53.6455C29.8854 53.901 29.8794 54.3094 29.6239 54.5577L22.8571 61.1301C22.729 61.2545 22.5551 61.3203 22.3767 61.3117C22.1983 61.3031 22.0315 61.221 21.9159 61.0849L19.2496 57.9455C19.019 57.674 19.0522 57.2669 19.3238 57.0362C19.5953 56.8056 20.0024 56.8388 20.233 57.1103L22.4529 59.7241L28.725 53.6322C28.9805 53.384 29.3889 53.3899 29.6372 53.6455Z" fill="#EABD91" blush:i="0.1.3.0"/></g><path id="Vector 23 (Stroke)" fill-rule="evenodd" clip-rule="evenodd" d="M35.9519 34.994C35.9519 34.6377 36.2407 34.3489 36.597 34.3489H75.3883C75.7445 34.3489 76.0334 34.6377 76.0334 34.994C76.0334 35.3503 75.7445 35.6391 75.3883 35.6391H36.597C36.2407 35.6391 35.9519 35.3503 35.9519 34.994Z" fill="#EABD91" blush:i="0.1.4"/><path id="Vector 24 (Stroke)" fill-rule="evenodd" clip-rule="evenodd" d="M35.9519 40.4127C35.9519 40.0565 36.2407 39.7677 36.597 39.7677H69.5856C69.9419 39.7677 70.2307 40.0565 70.2307 40.4127C70.2307 40.769 69.9419 41.0578 69.5856 41.0578H36.597C36.2407 41.0578 35.9519 40.769 35.9519 40.4127Z" fill="#EABD91" blush:i="0.1.5"/><path id="Vector 26 (Stroke)" fill-rule="evenodd" clip-rule="evenodd" d="M35.9519 55.3789C35.9519 55.0226 36.2407 54.7338 36.597 54.7338H69.5856C69.9419 54.7338 70.2307 55.0226 70.2307 55.3789C70.2307 55.7351 69.9419 56.0239 69.5856 56.0239H36.597C36.2407 56.0239 35.9519 55.7351 35.9519 55.3789Z" fill="#EABD91" blush:i="0.1.6"/><path id="Vector 25 (Stroke)" fill-rule="evenodd" clip-rule="evenodd" d="M35.9519 60.6255C35.9519 60.2692 36.2407 59.9804 36.597 59.9804H62.8853C63.2416 59.9804 63.5304 60.2692 63.5304 60.6255C63.5304 60.9818 63.2416 61.2706 62.8853 61.2706H36.597C36.2407 61.2706 35.9519 60.9818 35.9519 60.6255Z" fill="#EABD91" blush:i="0.1.7"/></g></g></svg>