<svg viewBox="17.625 1.1749999999999972 57.574999999999996 92.825" fill="none" xmlns="http://www.w3.org/2000/svg" xmlns:xlink="http://www.w3.org/1999/xlink" xmlns:blush="http://design.blush" overflow="visible" width="57.574999999999996px" height="92.825px"><g id="Master/New Stickers/Board" clip-path="url(#clip0_509_5731586a9b664-9148-4ff6-b812-f814164c0d7f)" blush:has-customizable-colors="true" blush:viewBox="18.33 0.9399999999999977 56.4 92.58999999999997" blush:i="0"><g id="Board" blush:i="0.0"><path id="Fill 1" fill-rule="evenodd" clip-rule="evenodd" d="M70.0056 2.54192C70.0056 2.54192 75.0913 2.11107 73.6916 12.0159C72.291 21.9201 69.0381 33.2858 74.6649 38.8063L34.901 35.6234C34.901 35.6234 32.2347 20.484 34.5766 12.178C37.6221 1.37656 31.344 1.15019 31.344 1.15019L70.0056 2.54192Z" fill="#D0C5BA" blush:i="0.0.0"/><path id="Fill 13" fill-rule="evenodd" clip-rule="evenodd" d="M61.8562 49.9316L19.2748 48.6722C18.9348 48.6629 18.6642 48.4436 18.6642 48.1764V46.5775C18.6642 46.2957 18.9636 46.0704 19.3223 46.0811L61.9037 47.3404C62.2438 47.3497 62.5135 47.569 62.5135 47.8362V49.4358C62.5135 49.7169 62.215 49.9422 61.8562 49.9316" fill="#EABD91" blush:i="0.0.1"/><path id="Fill 14" fill-rule="evenodd" clip-rule="evenodd" d="M45.853 91.0113C45.7828 91.0113 45.7109 91.0065 45.6389 90.997C44.9306 90.9055 44.4512 90.378 44.5691 89.8205L46.8396 79.0126L48.2909 47.923C48.3169 47.358 48.9377 46.9124 49.6373 46.9376C50.3551 46.9581 50.9161 47.4337 50.8901 47.9981L49.418 79.2828L47.1344 90.1549C47.0286 90.6558 46.4781 91.0113 45.853 91.0113" fill="#EABD91" blush:i="0.0.2"/><path id="Fill 15" fill-rule="evenodd" clip-rule="evenodd" d="M55.1129 93.1509C54.7111 93.1509 54.3263 92.9687 54.1471 92.6596L47.1658 80.6163L36.4293 92.1615C36.081 92.5354 35.4159 92.615 34.9445 92.339C34.4731 92.0616 34.3729 91.5339 34.722 91.1586L47.5922 77.3182L56.077 91.955C56.3216 92.3775 56.0888 92.8789 55.5554 93.0739C55.4127 93.1259 55.2615 93.1509 55.1129 93.1509" fill="#EABD91" blush:i="0.0.3"/><path id="Fill 16" fill-rule="evenodd" clip-rule="evenodd" d="M30.1767 5.00133L20.7781 46.1338L60.4669 47.7923L69.9104 6.10588L30.1767 5.00133Z" fill="#FFF6ED" blush:i="0.0.4"/><path id="Fill 17" fill-rule="evenodd" clip-rule="evenodd" d="M69.8943 6.71309L30.2866 5.73313L30.3019 5.42936L69.9095 6.40932L69.8943 6.71309Z" fill="#9C9B9A" blush:i="0.0.5"/><path id="Fill 18" fill-rule="evenodd" clip-rule="evenodd" d="M70.4378 2.5603C70.4378 2.5603 67.0985 4.40141 69.6971 6.71302L30.2848 5.59532C30.2848 5.59532 28.3613 3.07029 31.8679 1.15019L70.4378 2.5603Z" fill="#FFF6ED" blush:i="0.0.6"/><path id="Fill 19" fill-rule="evenodd" clip-rule="evenodd" d="M56.9137 38.8062C56.9069 38.8062 56.9001 38.8062 56.8942 38.8055L27.9434 37.3652C27.8537 37.3618 27.769 37.3254 27.7132 37.2671C27.6573 37.2095 27.6344 37.134 27.6514 37.0619L33.0863 13.3422C33.1185 13.2022 33.2793 13.111 33.4563 13.1357C33.629 13.1617 33.7424 13.2962 33.7111 13.4355L28.3413 36.8698L56.9332 38.2923C57.1075 38.3012 57.2413 38.4226 57.2303 38.5647C57.2201 38.7012 57.0805 38.8062 56.9137 38.8062" fill="#9C9B9A" blush:i="0.0.7"/><path id="Fill 20" fill-rule="evenodd" clip-rule="evenodd" d="M39.9469 34.5271C39.9219 34.5271 39.8961 34.5251 39.8711 34.5198C39.7204 34.4918 39.617 34.3853 39.6239 34.2655L40.6557 17.128L31.9824 30.6888C31.9204 30.786 31.7809 30.84 31.6448 30.8253C31.5061 30.8093 31.3967 30.7261 31.3743 30.6189L30.2908 25.4817C30.2624 25.3452 30.3821 25.2174 30.5578 25.1947C30.7396 25.1748 30.8998 25.266 30.9282 25.4011L31.8498 29.77L40.7608 15.8377C40.8289 15.7319 40.983 15.6793 41.1312 15.7059C41.2793 15.7359 41.3801 15.8417 41.3732 15.9596L40.3483 32.9891L47.0302 21.5981C47.0854 21.5043 47.2042 21.4384 47.3446 21.4523C47.4781 21.459 47.5935 21.5289 47.6332 21.6274L51.1585 30.4265L58.756 21.9703C58.8568 21.8565 59.0575 21.8278 59.2048 21.9077C59.3512 21.9863 59.3873 22.1414 59.2857 22.2546L51.3101 31.1316C51.2403 31.2101 51.1275 31.2561 50.9957 31.2361C50.8742 31.2215 50.7735 31.1549 50.7364 31.0637L47.2671 22.4031L40.2415 34.3806C40.1872 34.4712 40.0718 34.5271 39.9469 34.5271" fill="#9C9B9A" blush:i="0.0.8"/></g></g><defs><clipPath id="clip0_509_5731586a9b664-9148-4ff6-b812-f814164c0d7f"><rect width="92.8927" height="92.8927" fill="white" transform="translate(0.258755 0.720183)"/></clipPath></defs></svg>