<svg viewBox="108.40000000000003 69.85372340425533 84.6875 186.5026595744681" fill="none" xmlns="http://www.w3.org/2000/svg" xmlns:xlink="http://www.w3.org/1999/xlink" xmlns:blush="http://design.blush" overflow="visible" width="84.6875px" height="186.5026595744681px"><g id="Master/Female Character/Sitting" blush:has-customizable-colors="true" blush:viewBox="67.75 62.39361702127661 127.36999999999996 192.60638297872333" blush:i="0"><g id="Female Character Sitting/Lower Body" blush:component="Female Character Sitting/Lower Body" blush:defaultValue="Skirt 2" blush:width="126" blush:height="147" transform="translate(68 108) scale(1 1)" blush:i="0.0" blush:value="Skirt 2" blush:viewBox="40.60489510489512 31.60499999999999 84.44055944055945 115.39499999999998"><g id="Female Character Sitting/Lower Body/Skirt 2" blush:viewBox="40.60489510489512 31.60499999999999 84.44055944055945 115.39499999999998" blush:i="0.0.0"><g id="Group 20" blush:i="0.0.0.0"><path id="Fill 1" fill-rule="evenodd" clip-rule="evenodd" d="M58.7325 35.215C58.7325 35.215 63.9955 31.613 69.6735 31.891C75.3515 32.168 79.6635 33.968 81.2465 42.694C81.2465 42.694 94.0485 45.048 106.789 56.958C119.53 68.868 120.085 69.284 118.422 78.979C116.761 88.673 111.914 100.445 111.914 100.445L110.236 118.667C110.236 118.667 112.583 125.131 115.661 127.208C118.739 129.286 120.689 130.286 119.099 131.748C117.508 133.21 117.123 131.441 114.045 131.748C110.967 132.056 110.659 130.441 110.659 130.441C110.659 130.441 114.276 139.136 120.663 142.906C120.663 142.906 122.817 144.907 120.663 145.83C118.508 146.754 112.506 146.677 109.659 144.753C106.812 142.829 100.963 137.904 99.0405 137.365C97.1165 136.827 98.0395 133.98 98.0395 133.98L100.81 126.285C100.81 126.285 100.04 125.284 97.8855 124.592C95.7315 123.9 94.5775 120.976 94.8075 119.898C95.0385 118.82 98.8865 113.358 98.9635 109.356C98.9635 109.356 97.0395 103.893 94.4235 99.044C91.8065 94.196 95.1925 82.423 97.1165 79.268C97.1165 79.268 94.1155 79.73 88.4205 80.192C82.7265 80.653 63.3865 82.041 52.0445 75.794C40.7015 69.546 41.8185 48.364 58.7325 35.215" fill="#db8c5c" blush:color="Skin-500" blush:i="0.0.0.0.0"/><path id="Fill 3" fill-rule="evenodd" clip-rule="evenodd" d="M74.0571 50.8448C77.7781 51.6988 81.4541 52.7788 85.0481 54.0888C88.6381 55.4068 92.1761 56.8978 95.5571 58.7118C98.9291 60.5328 102.19 62.6088 105.095 65.1488C108.007 67.6598 110.502 70.7528 112.037 74.3318L112.063 74.3928V74.4598C112.091 78.7908 112.075 83.1208 112.051 87.4518C112.051 91.7828 111.963 96.1149 111.914 100.446C111.802 96.1159 111.651 91.7858 111.588 87.4548C111.502 83.1258 111.423 78.7958 111.388 74.4648L111.414 74.5928C109.914 71.1448 107.45 68.1798 104.608 65.7018C101.78 63.1898 98.5741 61.1128 95.2471 59.2838C91.9061 57.4758 88.4491 55.8658 84.8971 54.4878C81.3461 53.1118 77.7461 51.8328 74.0571 50.8448" fill="black" blush:i="0.0.0.0.1"/><path id="Fill 5" fill-rule="evenodd" clip-rule="evenodd" d="M98.9634 109.356C99.5864 110.666 100.068 112.037 100.49 113.424C100.904 114.816 101.23 116.235 101.459 117.673C101.644 119.115 101.797 120.572 101.711 122.033C101.624 123.487 101.377 124.947 100.81 126.286C101.179 124.882 101.319 123.453 101.326 122.023C101.332 120.592 101.185 119.163 100.965 117.748C100.78 116.325 100.452 114.924 100.121 113.525C99.7794 112.127 99.3934 110.738 98.9634 109.356" fill="black" blush:i="0.0.0.0.2"/><path id="Fill 7" fill-rule="evenodd" clip-rule="evenodd" d="M110.237 118.667C110.111 120.652 110.003 122.619 110.022 124.586C110.041 126.553 110.183 128.507 110.66 130.44C110.229 129.54 109.967 128.563 109.783 127.579C109.606 126.592 109.544 125.59 109.523 124.591C109.52 123.591 109.57 122.593 109.692 121.603C109.812 120.613 109.97 119.628 110.237 118.667" fill="black" blush:i="0.0.0.0.3"/><path id="Fill 9" fill-rule="evenodd" clip-rule="evenodd" d="M96.7886 79.3156C96.8556 78.7506 97.1166 78.2566 97.4306 77.8146C97.7596 77.3826 98.1606 76.9926 98.6776 76.7606C98.5616 77.0226 98.4146 77.2426 98.2756 77.4666C98.1386 77.6926 97.9826 77.8996 97.8326 78.1116C97.5156 78.5256 97.2006 78.9306 96.7886 79.3156" fill="#7A3710" blush:i="0.0.0.0.4"/><g id="Group 13" blush:i="0.0.0.0.5"><path id="Fill 11" fill-rule="evenodd" clip-rule="evenodd" d="M99.934 127.373C99.934 127.373 100.353 127.311 100.392 127.447C100.428 127.577 100.144 128.135 100.144 128.135C100.727 130.276 102.338 136.349 102.512 138.775C102.544 139.224 102.781 139.625 103.154 139.875L109.585 144.177C110.159 144.561 110.932 144.406 111.314 143.83C112.352 142.267 114.49 139.551 116.73 139.709C116.73 139.709 125.124 144.311 125.124 144.896C125.124 145.48 119.837 148.62 110.214 145.918C110.214 145.918 102.489 140.442 99.934 138.836C97.378 137.229 95.626 136.499 96.867 133.579C98.108 130.658 99.934 127.373 99.934 127.373" fill="#F90606" blush:i="0.0.0.0.5.0"/></g><path id="Fill 14" fill-rule="evenodd" clip-rule="evenodd" d="M110.562 130.163L111.001 131.194C111.001 131.194 115.524 133.963 121.771 131.393C121.771 131.393 122.449 130.988 121.907 130.745C121.364 130.501 115.825 126.853 115.377 127C114.929 127.147 112.74 130.473 110.562 130.163" fill="#F90606" blush:i="0.0.0.0.6"/><path id="Fill 16" fill-rule="evenodd" clip-rule="evenodd" d="M96.8716 115.22C96.8716 115.22 91.7066 120.217 93.5756 123.197C94.1856 124.169 100.691 126.616 100.691 126.616L100.81 126.285C100.433 125.338 99.3716 123.212 99.1036 121.764L96.8716 115.22Z" fill="#F90606" blush:i="0.0.0.0.7"/><path id="Fill 18" fill-rule="evenodd" clip-rule="evenodd" d="M69.6735 31.8908C69.6735 31.8908 62.6954 30.5408 57.2704 35.1398C51.8444 39.7388 33.2734 56.9968 44.5894 70.1238C55.9044 83.2518 78.8134 82.3508 95.0294 79.7778C95.0294 79.7778 95.1524 80.3018 94.6544 80.8208C94.6544 80.8208 107.144 84.9008 111.914 82.7878C116.683 80.6758 116.591 81.1348 118.841 80.1708C118.841 80.1708 121.465 73.0438 117.726 67.6158C113.987 62.1878 95.5494 44.5498 81.2464 42.6938L79.7295 36.6158C79.7295 36.6158 79.3305 31.5098 69.6735 31.8908" fill="#FF990A" blush:i="0.0.0.0.8"/></g></g></g><g id="Female Character/Upper Body" blush:component="Female Character/Upper Body" blush:defaultValue="Sweater 9" blush:width="106" blush:height="123" transform="translate(82 93) scale(1 1)" blush:i="0.1" blush:value="Sweater 9" blush:viewBox="27.483758700696058 0.6149999999999949 78.08584686774942 65.80499999999999"><g id="Female Character/Upper Body/Sweater 9" blush:viewBox="27.483758700696058 0.6149999999999949 78.08584686774942 65.80499999999999" blush:i="0.1.0"><g id="Group 139" blush:i="0.1.0.0"><path id="Fill 1" fill-rule="evenodd" clip-rule="evenodd" d="M72.6375 28.3972C72.6375 28.3972 75.5335 35.5822 76.4885 43.3242C76.4885 43.3242 83.8545 42.0902 87.7175 39.9592C87.7175 39.9592 89.2795 37.0972 90.8505 36.5922C92.4215 36.0872 97.6385 34.7442 97.6385 35.6122C97.6385 36.4802 96.3485 37.2102 96.3485 37.2102C96.3485 37.2102 97.4145 37.5452 99.0975 37.2652C100.78 36.9852 102.8 37.9072 102.8 37.9072C102.8 37.9072 104.09 38.1592 104.763 38.5822C105.436 39.0042 105.212 40.0142 102.519 39.9022C102.519 39.9022 103.304 40.2392 103.024 40.7442C102.743 41.2492 100.107 41.1922 98.3675 42.0902C96.6285 42.9882 91.6355 42.2582 91.6355 42.2582C91.6355 42.2582 81.9295 50.5052 76.4315 52.4692C70.9335 54.4322 69.1945 50.0562 67.9045 43.1002C66.6145 36.1432 65.4205 25.5872 72.6375 28.3972" fill="#db8c5c" blush:color="Skin-500" blush:i="0.1.0.0.0"/><path id="Fill 3" fill-rule="evenodd" clip-rule="evenodd" d="M90.937 36.9362C91.261 36.5842 91.765 36.4582 92.233 36.4252C92.709 36.3902 93.187 36.4982 93.639 36.5732C94.545 36.7572 95.452 36.9352 96.349 37.2082C95.422 37.1402 94.504 36.9752 93.587 36.8172C93.129 36.7192 92.693 36.6242 92.238 36.6172C91.794 36.6192 91.317 36.6612 90.937 36.9362" fill="black" blush:i="0.1.0.0.1"/><path id="Fill 5" fill-rule="evenodd" clip-rule="evenodd" d="M98.0742 38.5817C98.9072 38.2277 99.7992 38.0407 100.694 37.9157C101.145 37.8717 101.598 37.8437 102.051 37.8557C102.505 37.8717 102.956 37.9357 103.393 38.0487C101.594 37.9597 99.8462 38.2637 98.0742 38.5817" fill="black" blush:i="0.1.0.0.2"/><path id="Fill 7" fill-rule="evenodd" clip-rule="evenodd" d="M91.2642 39.3259C92.1132 38.8609 93.0812 38.6089 94.0692 38.5699C94.5632 38.5429 95.0652 38.6029 95.5522 38.7149C96.0212 38.8289 96.4882 38.9659 96.9492 39.1029C97.4102 39.2529 97.8412 39.3879 98.2952 39.4289C98.7502 39.4799 99.2312 39.4709 99.7012 39.4719C100.173 39.4719 100.646 39.4139 101.144 39.4199C101.645 39.4339 102.136 39.6129 102.52 39.9019C101.622 39.4319 100.698 39.7599 99.7252 39.8569C99.2372 39.9119 98.7552 39.9259 98.2542 39.8999C97.7472 39.8709 97.2532 39.7189 96.8012 39.5809C95.8792 39.2999 94.9932 38.9819 94.0672 38.9529C93.1372 38.9129 92.1862 39.0549 91.2642 39.3259" fill="black" blush:i="0.1.0.0.3"/><g id="Group 11" blush:i="0.1.0.0.4"><path id="Fill 9" fill-rule="evenodd" clip-rule="evenodd" d="M67.2588 58.2477C65.0608 57.9887 63.3058 57.9157 63.0338 58.0277C62.7628 58.1417 61.9258 58.1687 61.1368 58.0847C60.3478 57.9997 57.6718 59.8037 55.6708 60.5567C53.6708 61.3107 53.6178 60.9237 53.6178 60.9237C48.4788 58.2657 40.3688 53.8307 40.3688 53.8307L39.6388 37.2977L43.4958 44.8877L43.8978 50.1477C48.7748 54.8727 65.3888 51.7687 65.3888 51.7687L66.7128 44.8037C66.7128 44.8037 74.4908 32.2167 72.3828 27.5777C70.2748 22.9387 62.4738 15.9817 57.0278 11.9457C57.0278 11.9457 58.3038 3.86874 55.1628 1.71774C52.0218 -0.435264 50.8498 2.94174 50.8498 2.94174C50.8498 2.94174 50.5018 9.86974 47.6698 11.8737C44.8378 13.8787 31.9618 19.9677 30.3248 29.5807C28.6878 39.1927 31.7378 57.7897 32.8688 58.5597C33.9998 59.3287 51.0138 67.2787 56.0648 66.0637C61.1158 64.8497 63.0338 63.3147 63.0338 63.3147L63.7508 62.8907C64.6228 62.3737 65.6828 62.2767 66.6338 62.6327C67.2288 62.8537 67.7128 62.8897 67.8498 62.9407C68.1018 63.0357 70.0438 63.6497 71.1478 62.9267C71.4258 62.7447 71.0928 62.1477 70.5708 62.1247C70.3058 62.1127 71.0098 62.0437 71.1278 61.7237C71.2128 61.4897 70.6538 61.2487 70.2628 61.0227C70.0228 60.8837 70.5198 60.7707 70.7358 60.5567C70.7358 60.5567 70.1808 59.1947 67.2588 58.2477" fill="#db8c5c" blush:color="Skin-500" blush:i="0.1.0.0.4.0"/></g><path id="Fill 12" fill-rule="evenodd" clip-rule="evenodd" d="M63.2657 59.3289C64.6397 59.7559 65.9867 60.2309 67.3287 60.7149L69.3567 61.4359C69.6947 61.5629 70.0307 61.6939 70.3657 61.8469C70.5327 61.9249 70.6997 62.0029 70.8667 62.1019C70.9507 62.1529 71.0347 62.2059 71.1197 62.2769C71.1977 62.3599 71.3177 62.4159 71.3567 62.6689C71.3287 62.9599 71.2057 62.9989 71.1237 63.0879C71.0327 63.1649 70.9377 63.2169 70.8427 63.2609C70.6517 63.3459 70.4577 63.4009 70.2657 63.4279C69.8807 63.4889 69.5017 63.4759 69.1317 63.4359C68.3937 63.3509 67.6817 63.1419 67.0137 62.8869C65.7357 62.4039 64.1707 62.3909 63.0347 63.3149C63.5137 62.7699 64.2237 62.4619 64.9447 62.3299C65.6767 62.2209 66.4287 62.3119 67.1337 62.5209C67.8207 62.7199 68.4887 62.9269 69.1787 62.9829C69.5197 63.0149 69.8627 63.0169 70.1837 62.9569C70.3467 62.9329 70.4977 62.8819 70.6327 62.8189C70.6987 62.7869 70.7607 62.7489 70.8057 62.7099C70.8557 62.6879 70.8767 62.5869 70.8577 62.6939C70.8997 62.7689 70.7417 62.5769 70.6137 62.5189C70.4747 62.4329 70.3187 62.3539 70.1637 62.2779C69.8497 62.1269 69.5217 61.9909 69.1927 61.8589C68.5357 61.5899 67.8547 61.3769 67.1987 61.0749C65.8757 60.5139 64.5577 59.9449 63.2657 59.3289" fill="black" blush:i="0.1.0.0.5"/><path id="Fill 14" fill-rule="evenodd" clip-rule="evenodd" d="M62.4771 58.3551C63.3141 58.0241 64.2581 58.1511 65.1171 58.3441C65.9951 58.5431 66.8081 58.9051 67.6101 59.2711C68.4051 59.6581 69.1801 60.0901 69.9101 60.5801C70.2851 60.8261 70.6181 61.0651 71.0211 61.2801C71.1201 61.3501 71.2351 61.4561 71.2501 61.6201C71.2631 61.7881 71.1421 61.8951 71.0481 61.9581C70.8431 62.0871 70.6151 62.1151 70.3961 62.1251C70.6051 62.0641 70.8181 61.9851 70.9671 61.8521C71.1361 61.7051 71.0751 61.5661 70.8941 61.4901C70.5021 61.3371 70.0941 61.1071 69.7141 60.9111C68.9421 60.5011 68.1791 60.0911 67.3951 59.7221C66.6121 59.3511 65.8231 58.9871 65.0131 58.7121C64.2021 58.4551 63.3471 58.2311 62.4771 58.3551" fill="black" blush:i="0.1.0.0.6"/><g id="Group 18" blush:i="0.1.0.0.7"><path id="Fill 16" fill-rule="evenodd" clip-rule="evenodd" d="M41.8827 15.4793C41.8827 15.4793 42.6667 12.1803 44.8367 12.9263C47.0067 13.6723 48.3617 16.0673 52.8377 15.4793C57.3127 14.8923 58.1937 11.8933 60.2277 12.8173C62.2617 13.7403 62.0137 15.9383 62.0137 15.9383C62.0137 15.9383 70.0597 21.4693 72.1617 25.5383C74.2637 29.6063 76.7047 42.4893 76.7047 42.4893C76.7047 42.4893 79.2477 41.3133 81.5697 42.2073C81.5697 42.2073 83.0287 40.2133 85.3727 41.0123C85.3727 41.0123 85.5757 44.3153 87.7167 45.4033C87.7167 45.4033 86.8437 46.8043 86.2087 46.9083C86.2087 46.9083 85.9337 50.4263 83.4067 51.9063C80.8807 53.3843 71.4347 58.0693 69.7167 52.6453C67.9997 47.2213 67.9377 47.8993 67.9377 47.8993C67.9377 47.8993 66.0887 55.2823 56.9667 55.1963C47.8457 55.1103 43.3467 53.2003 42.4847 51.0423C41.6217 48.8853 40.6347 44.3253 40.6347 44.3253V52.5833C40.6347 52.5833 48.4627 55.9733 48.6477 57.8833C48.6477 57.8833 50.7837 58.3153 50.6397 59.3633C50.6397 59.3633 49.6247 64.4553 47.6877 64.7123C45.7507 64.9713 44.1527 63.4923 44.1527 63.4923C44.1527 63.4923 33.9177 63.1763 32.3147 59.3293C30.7127 55.4803 26.3017 46.5663 28.6987 32.1833C31.0957 17.8013 41.8827 15.4793 41.8827 15.4793" fill="#FF4444" blush:i="0.1.0.0.7.0"/></g><path id="Fill 19" fill-rule="evenodd" clip-rule="evenodd" d="M41.8828 15.4801C43.3888 16.5921 45.0178 17.5231 46.7118 18.2771C48.4088 19.0181 50.1928 19.5761 52.0248 19.7511C53.8568 19.9741 55.7138 19.6721 57.4218 19.0171C57.8398 18.8301 58.2788 18.6741 58.6858 18.4591L59.8518 17.7081C60.2658 17.4871 60.6018 17.1651 60.9518 16.8561L62.0138 15.9371C60.7608 17.3071 59.3638 18.6701 57.5698 19.3731C55.8288 20.1281 53.8768 20.4411 51.9768 20.2481C50.0818 20.0251 48.2458 19.4561 46.5498 18.6251C44.8608 17.7851 43.2618 16.7541 41.8828 15.4801" fill="#9E2020" blush:i="0.1.0.0.8"/><path id="Fill 21" fill-rule="evenodd" clip-rule="evenodd" d="M44.0948 17.0749C43.9198 16.3279 43.9648 15.5579 44.1638 14.8119C44.2818 14.4449 44.4348 14.0699 44.7148 13.7649C44.9738 13.4529 45.4298 13.2479 45.8068 13.3809C45.4278 13.4709 45.1828 13.7069 45.0208 13.9969C44.8628 14.2909 44.7408 14.6139 44.6428 14.9529C44.4428 15.6329 44.3088 16.3439 44.0948 17.0749" fill="#9E2020" blush:i="0.1.0.0.9"/><path id="Fill 23" fill-rule="evenodd" clip-rule="evenodd" d="M46.3592 18.3346C46.2902 17.9826 46.2932 17.6336 46.3172 17.2856C46.3342 16.9366 46.4082 16.5936 46.4992 16.2536C46.6002 15.9176 46.7312 15.5826 46.9312 15.2806C47.1252 14.9836 47.3762 14.6846 47.7242 14.5636C47.5102 14.8476 47.3872 15.1466 47.2752 15.4536C47.1712 15.7636 47.0642 16.0716 46.9792 16.3936C46.7852 17.0286 46.6232 17.6776 46.3592 18.3346" fill="#9E2020" blush:i="0.1.0.0.10"/><path id="Fill 25" fill-rule="evenodd" clip-rule="evenodd" d="M50.2882 15.4801C50.6282 16.1441 50.7802 16.8691 50.8272 17.6031C50.8412 17.9711 50.8332 18.3451 50.7482 18.7131C50.6692 19.0771 50.5482 19.4531 50.2882 19.7321C50.3582 19.3671 50.3672 19.0221 50.3662 18.6731C50.3572 18.3261 50.3522 17.9781 50.3282 17.6271C50.3032 16.9251 50.2472 16.2221 50.2882 15.4801" fill="#9E2020" blush:i="0.1.0.0.11"/><path id="Fill 27" fill-rule="evenodd" clip-rule="evenodd" d="M53.4033 15.3865C53.7003 15.6935 53.9183 16.0585 54.1043 16.4385C54.2923 16.8195 54.4243 17.2285 54.4963 17.6545C54.5573 18.0805 54.5743 18.5255 54.4683 18.9525C54.3613 19.3795 54.1543 19.7825 53.8403 20.0705C53.9793 19.6655 54.0663 19.2855 54.0883 18.8975C54.0963 18.5085 54.0683 18.1215 54.0033 17.7365C53.8803 16.9575 53.6343 16.1975 53.4033 15.3865" fill="#9E2020" blush:i="0.1.0.0.12"/><path id="Fill 29" fill-rule="evenodd" clip-rule="evenodd" d="M56.1724 14.5641C56.6044 14.7341 56.9714 15.0471 57.2644 15.4211C57.5604 15.7961 57.7494 16.2601 57.8254 16.7401C57.8754 17.2331 57.8624 17.6561 57.8304 18.1181C57.7944 18.5701 57.7464 19.0251 57.6064 19.4661C57.5384 19.0121 57.4904 18.5691 57.4454 18.1231C57.3894 17.6881 57.3824 17.2101 57.3304 16.8101C57.2154 15.9901 56.7934 15.2351 56.1724 14.5641" fill="#9E2020" blush:i="0.1.0.0.13"/><path id="Fill 31" fill-rule="evenodd" clip-rule="evenodd" d="M57.4131 13.6062C57.9161 13.5742 58.4261 13.6842 58.8961 13.9112C59.3721 14.1272 59.7901 14.5292 60.0171 15.0362C60.2261 15.5632 60.2611 16.0532 60.2341 16.5792C60.1901 17.0882 60.0541 17.6162 59.7141 17.9992C59.8651 17.5242 59.8831 17.0442 59.8501 16.5782C59.7941 16.1272 59.7281 15.6172 59.5591 15.2352C59.2181 14.4272 58.3371 13.9422 57.4131 13.6062" fill="#9E2020" blush:i="0.1.0.0.14"/><path id="Fill 33" fill-rule="evenodd" clip-rule="evenodd" d="M40.6352 44.325C40.5272 41.259 40.6132 38.19 40.6822 35.124L40.7792 32.827C40.7832 32.071 40.8802 31.265 41.1132 30.53C41.5312 29.042 42.0752 27.605 42.7042 26.205C42.2702 27.676 41.8192 29.14 41.4872 30.623C41.4062 30.993 41.3392 31.364 41.2842 31.731C41.2252 32.09 41.2512 32.489 41.2322 32.866L41.1802 35.161C41.0522 38.216 40.9402 41.269 40.6352 44.325" fill="#9E2020" blush:i="0.1.0.0.15"/><path id="Fill 35" fill-rule="evenodd" clip-rule="evenodd" d="M67.3726 24.7566C68.1496 26.5996 68.8096 28.4876 69.3986 30.4026C69.9766 32.3186 70.4526 34.2696 70.7336 36.2706C70.8316 37.2716 70.8876 38.3116 70.6696 39.3266C70.4526 40.3086 70.2136 41.2806 69.9186 42.2386C69.3456 44.1566 68.6936 46.0486 67.9376 47.9006C68.4976 45.9816 69.0556 44.0666 69.5476 42.1366C69.7826 41.1696 70.0336 40.2066 70.2246 39.2346C70.4126 38.2856 70.3456 37.3096 70.2376 36.3296C70.0036 34.3686 69.5256 32.4326 69.0296 30.5056C68.5206 28.5806 67.9556 26.6676 67.3726 24.7566" fill="#9E2020" blush:i="0.1.0.0.16"/><path id="Fill 37" fill-rule="evenodd" clip-rule="evenodd" d="M45.807 18.0592C45.646 18.6282 45.546 19.2202 45.664 19.7442C45.731 20.0032 45.836 20.2312 46.012 20.4222C46.2 20.6382 46.393 20.8512 46.6 21.0152C46.699 21.0972 46.808 21.1712 46.886 21.1932C46.97 21.2052 46.928 21.2202 46.989 21.1582C47.092 20.9972 47.091 20.6972 47.103 20.4132C47.104 19.8382 47.056 19.2472 47.042 18.6502C47.259 19.2102 47.406 19.7882 47.487 20.3912C47.521 20.6902 47.568 21.0122 47.403 21.3872C47.335 21.5972 46.963 21.7602 46.761 21.6652C46.553 21.6072 46.417 21.5042 46.286 21.4042C46.037 21.1922 45.834 20.9622 45.647 20.7222C45.445 20.4582 45.303 20.1272 45.285 19.8022C45.234 19.1482 45.461 18.5462 45.807 18.0592" fill="#9E2020" blush:i="0.1.0.0.17"/><path id="Fill 39" fill-rule="evenodd" clip-rule="evenodd" d="M46.2022 20.9889C45.9982 21.5329 45.8322 22.1069 45.8902 22.6239C45.9302 22.8769 46.0172 23.0989 46.1952 23.2559C46.3902 23.4429 46.6042 23.6159 46.8282 23.7239C47.0562 23.8489 47.2632 23.8599 47.3272 23.7629C47.4372 23.6499 47.4462 23.3579 47.4412 23.0889C47.4162 22.5349 47.2982 21.9739 47.0422 21.4469C47.4732 21.8599 47.7152 22.4499 47.8232 23.0449C47.8692 23.3379 47.9362 23.6829 47.6992 24.0539C47.5722 24.2419 47.3122 24.3319 47.1192 24.3149C46.9182 24.3059 46.7522 24.2449 46.6042 24.1709C46.3092 24.0139 46.0692 23.8109 45.8582 23.5859C45.6162 23.3299 45.4922 22.9679 45.5082 22.6439C45.5302 21.9909 45.8222 21.4379 46.2022 20.9889" fill="#9E2020" blush:i="0.1.0.0.18"/><path id="Fill 41" fill-rule="evenodd" clip-rule="evenodd" d="M46.0218 23.4167C45.7978 23.9917 45.7388 24.6197 45.9508 25.1317C46.0598 25.3857 46.2198 25.6007 46.4178 25.8447C46.6038 26.0797 46.7908 26.3197 46.9958 26.5127C47.0918 26.6087 47.2038 26.7027 47.2788 26.7337C47.3208 26.7507 47.3108 26.7397 47.2948 26.7497C47.2948 26.7497 47.2868 26.7517 47.2828 26.7627L47.3078 26.7027C47.3848 26.4637 47.3958 26.1497 47.4158 25.8577C47.4268 25.2637 47.4018 24.6537 47.1808 24.0747C47.5918 24.5627 47.7328 25.2217 47.8008 25.8467C47.8338 26.1677 47.8368 26.4777 47.7618 26.8357C47.7478 26.8857 47.7318 26.9347 47.7038 26.9917C47.6608 27.0687 47.6018 27.1317 47.5348 27.1697C47.3838 27.2597 47.2028 27.2317 47.1048 27.1897C46.8948 27.1037 46.7718 26.9847 46.6468 26.8707C46.4118 26.6327 46.2208 26.3827 46.0388 26.1257C45.8718 25.8777 45.6618 25.5877 45.5858 25.2487C45.4098 24.5797 45.6188 23.8907 46.0218 23.4167" fill="#9E2020" blush:i="0.1.0.0.19"/><path id="Fill 43" fill-rule="evenodd" clip-rule="evenodd" d="M46.0216 25.7009C45.8816 26.2649 45.7636 26.8379 45.7976 27.3739C45.8256 27.6409 45.8806 27.8829 46.0256 28.0749C46.1736 28.2889 46.3566 28.4859 46.5636 28.6469C46.7616 28.8139 47.0046 28.9539 47.2096 28.9979C47.3196 29.0199 47.3616 29.0049 47.3746 28.9869C47.3996 28.9699 47.4266 28.8119 47.4336 28.6869C47.4466 28.1459 47.3396 27.5659 47.2676 26.9869C47.5376 27.5119 47.7446 28.0589 47.8186 28.6769C47.8236 28.8359 47.8646 28.9859 47.7446 29.2219C47.6026 29.4639 47.3036 29.4959 47.1376 29.4659C46.7726 29.4019 46.5026 29.2279 46.2516 29.0379C46.0096 28.8349 45.7946 28.6009 45.6276 28.3289C45.4496 28.0359 45.3846 27.6839 45.4156 27.3759C45.4636 26.7499 45.6926 26.1889 46.0216 25.7009" fill="#9E2020" blush:i="0.1.0.0.20"/><path id="Fill 45" fill-rule="evenodd" clip-rule="evenodd" d="M45.7972 28.1559C45.5892 28.6959 45.4962 29.2629 45.5912 29.7799C45.6932 30.2839 45.9732 30.7749 46.3672 31.0539C46.5562 31.1969 46.7992 31.2739 46.9842 31.2429C47.1792 31.2089 47.2112 31.1389 47.2072 30.8319C47.1742 30.2949 47.0282 29.7269 46.9252 29.1579C47.2232 29.6619 47.4642 30.1859 47.5892 30.7889C47.6102 30.9439 47.6582 31.0959 47.5682 31.3259C47.4762 31.5409 47.2662 31.6659 47.0812 31.7069C46.6982 31.7849 46.3532 31.6489 46.0812 31.4639C45.5462 31.0629 45.2422 30.4529 45.2112 29.8219C45.1842 29.1939 45.4112 28.5949 45.7972 28.1559" fill="#9E2020" blush:i="0.1.0.0.21"/><path id="Fill 47" fill-rule="evenodd" clip-rule="evenodd" d="M45.8561 30.908C45.6121 31.576 45.4811 32.28 45.5681 32.937C45.6761 33.566 45.9731 34.28 46.5411 34.316C46.6811 34.336 46.8351 34.327 46.9931 34.3C47.0721 34.286 47.1521 34.268 47.2321 34.247C47.3011 34.213 47.2361 34.259 47.2671 34.226C47.3331 34.065 47.2211 33.656 47.1361 33.348C46.9321 32.687 46.6521 32.032 46.3981 31.364C46.8351 31.934 47.2041 32.548 47.4971 33.217C47.5721 33.384 47.6421 33.554 47.6861 33.743C47.7301 33.929 47.7851 34.125 47.7071 34.401C47.6681 34.474 47.6541 34.553 47.5681 34.603C47.4991 34.658 47.3881 34.713 47.3601 34.713C47.2701 34.739 47.1761 34.762 47.0821 34.78C46.8911 34.817 46.6871 34.838 46.4751 34.811C46.0391 34.767 45.6461 34.439 45.4721 34.083C45.2941 33.725 45.1931 33.354 45.1871 32.969C45.1721 32.207 45.4281 31.485 45.8561 30.908" fill="#9E2020" blush:i="0.1.0.0.22"/><path id="Fill 49" fill-rule="evenodd" clip-rule="evenodd" d="M45.5677 33.741C45.3287 34.319 45.1057 34.923 45.1107 35.494C45.1257 35.774 45.1927 36.029 45.3737 36.193C45.5347 36.343 45.8497 36.517 46.0947 36.621C46.3477 36.736 46.6447 36.804 46.8127 36.739C46.9657 36.702 46.9777 36.511 46.8847 36.203C46.7027 35.632 46.4277 35.058 46.1937 34.471C46.6077 34.957 46.9657 35.472 47.2457 36.068C47.3107 36.218 47.3867 36.384 47.3807 36.608C47.3837 36.827 47.2177 37.087 47.0017 37.174C46.5677 37.337 46.2127 37.197 45.8977 37.08C45.5787 36.921 45.3247 36.803 45.0307 36.517C44.7637 36.225 44.6807 35.815 44.7287 35.477C44.8157 34.789 45.1537 34.22 45.5677 33.741" fill="#9E2020" blush:i="0.1.0.0.23"/><path id="Fill 51" fill-rule="evenodd" clip-rule="evenodd" d="M45.3855 36.5105C45.2865 37.1885 45.2085 37.8755 45.3005 38.5115C45.3625 38.8325 45.4535 39.0965 45.6635 39.3145C45.8655 39.5415 46.1195 39.7345 46.3855 39.8165C46.5125 39.8595 46.6495 39.8715 46.7235 39.8435C46.7855 39.8125 46.8155 39.7895 46.8215 39.6645C46.8185 39.4065 46.6945 39.0625 46.6025 38.7485C46.3905 38.1085 46.1385 37.4715 45.9205 36.8165C46.3245 37.3785 46.6655 37.9765 46.9605 38.6075C47.1085 38.9305 47.2445 39.2325 47.2955 39.6575C47.3295 39.8765 47.1665 40.2095 46.9005 40.2985C46.6495 40.3905 46.4275 40.3485 46.2325 40.2915C45.8465 40.1575 45.5415 39.9105 45.3035 39.6195C45.0545 39.3235 44.9205 38.9075 44.9195 38.5495C44.9025 37.8185 45.0905 37.1355 45.3855 36.5105" fill="#9E2020" blush:i="0.1.0.0.24"/><path id="Fill 53" fill-rule="evenodd" clip-rule="evenodd" d="M45.3858 39.3464C45.1028 39.9654 44.9468 40.6674 45.1548 41.2424C45.2658 41.5344 45.4428 41.7484 45.6998 41.9744C45.9418 42.1984 46.1938 42.4114 46.4658 42.5774C46.5988 42.6634 46.7378 42.7384 46.8728 42.7924C47.0028 42.8544 47.1608 42.8454 47.1608 42.8454C47.1488 42.8554 47.1538 42.8704 47.1618 42.8254C47.1618 42.7644 47.1538 42.6864 47.1428 42.6074L47.0548 42.1164C46.9198 41.4504 46.7558 40.7834 46.6368 40.1014C46.9528 40.7194 47.2098 41.3574 47.4278 42.0184C47.4848 42.1824 47.5348 42.3514 47.5738 42.5274C47.5918 42.6174 47.6108 42.7084 47.6178 42.8204C47.6238 42.9424 47.5778 43.1404 47.4148 43.2444C47.1008 43.4044 46.8908 43.3024 46.7068 43.2514C46.5218 43.1834 46.3558 43.0974 46.1988 43.0004C45.8908 42.7994 45.6188 42.5654 45.3698 42.3114C45.1308 42.0714 44.8568 41.7324 44.7878 41.3524C44.6168 40.5854 44.9338 39.8594 45.3858 39.3464" fill="#9E2020" blush:i="0.1.0.0.25"/><path id="Fill 55" fill-rule="evenodd" clip-rule="evenodd" d="M45.3675 41.9744C45.1345 42.8554 45.1015 43.8424 45.5925 44.5364C46.1015 45.2644 46.7145 45.9674 47.3335 46.6114L46.9715 46.6404C47.1195 46.4214 47.2375 46.1064 47.2765 45.8074C47.3115 45.5014 47.3015 45.1844 47.2215 44.8704C47.0505 44.2214 46.8515 43.5734 46.5965 42.9364C47.0025 43.4934 47.3085 44.1204 47.5495 44.7694C47.6755 45.1054 47.7465 45.4794 47.7165 45.8524C47.6815 46.2294 47.5935 46.5844 47.3585 46.9334L47.2035 47.1634L46.9965 46.9614C46.3125 46.2964 45.7315 45.5754 45.2315 44.7564C44.7325 43.8394 44.9205 42.7724 45.3675 41.9744" fill="#9E2020" blush:i="0.1.0.0.26"/><path id="Fill 57" fill-rule="evenodd" clip-rule="evenodd" d="M45.696 45.0641C45.534 45.7641 45.448 46.4771 45.542 47.1491C45.631 47.8161 45.972 48.4061 46.467 48.8411C46.924 49.2771 47.734 49.5151 47.661 48.8141C47.651 48.1501 47.41 47.4581 47.165 46.7871C47.592 47.3691 47.942 48.0231 48.046 48.7931C48.072 48.9721 48.074 49.2401 47.905 49.4531C47.738 49.6731 47.453 49.7421 47.236 49.7271C46.787 49.6901 46.434 49.4701 46.138 49.2181C45.562 48.7071 45.164 47.9541 45.16 47.1821C45.14 46.4241 45.342 45.6961 45.696 45.0641" fill="#9E2020" blush:i="0.1.0.0.27"/><path id="Fill 59" fill-rule="evenodd" clip-rule="evenodd" d="M45.6961 48.2957C45.5891 49.0177 45.5001 49.7497 45.5861 50.4337C45.6421 50.7827 45.7301 51.0637 45.9631 51.2987C46.1941 51.5647 46.4431 51.8177 46.7071 52.0447C46.8371 52.1587 46.9721 52.2687 47.1061 52.3537C47.1701 52.3967 47.2441 52.4307 47.2751 52.4387C47.2911 52.4467 47.2721 52.4247 47.1931 52.4797C47.1361 52.5457 47.1571 52.5687 47.1641 52.4977C47.2291 52.1517 47.2421 51.8057 47.2451 51.4537C47.2351 50.7517 47.0721 50.0497 46.8051 49.3647C47.2551 49.9497 47.5351 50.6737 47.6291 51.4257C47.6841 51.8017 47.6731 52.1877 47.6331 52.5637C47.6281 52.5947 47.6331 52.5907 47.6191 52.6507C47.5971 52.7157 47.5911 52.7707 47.5171 52.8327C47.3731 52.9577 47.2451 52.9187 47.1771 52.9107C47.0311 52.8767 46.9421 52.8227 46.8521 52.7707C46.6761 52.6637 46.5251 52.5457 46.3791 52.4217C46.0961 52.1657 45.8351 51.8967 45.6001 51.6017C45.3331 51.2937 45.1951 50.8417 45.2051 50.4657C45.1951 49.6917 45.3921 48.9667 45.6961 48.2957" fill="#9E2020" blush:i="0.1.0.0.28"/><path id="Fill 61" fill-rule="evenodd" clip-rule="evenodd" d="M45.9105 51.5994C45.8595 51.9684 45.8515 52.2414 45.8135 52.5504C45.7635 52.8534 45.7225 53.1614 45.5585 53.5094C45.4405 53.3534 45.3825 53.1854 45.3415 53.0134C45.2985 52.8394 45.2985 52.6614 45.3175 52.4844C45.3695 52.1454 45.5325 51.7434 45.9105 51.5994" fill="#9E2020" blush:i="0.1.0.0.29"/><path id="Fill 63" fill-rule="evenodd" clip-rule="evenodd" d="M47.0599 52.6091C47.0599 52.6091 47.5199 53.4421 47.3909 54.1211Z" fill="#FF4444" blush:i="0.1.0.0.30"/><path id="Fill 65" fill-rule="evenodd" clip-rule="evenodd" d="M55.4135 19.7643C55.7545 20.2433 55.9855 20.8213 55.9685 21.4633C55.9655 21.7843 55.8425 22.1213 55.6255 22.3873C55.4335 22.6173 55.2255 22.8373 54.9645 23.0343C54.8275 23.1243 54.6785 23.2203 54.4565 23.2513C54.2235 23.3033 53.9285 23.1003 53.8695 22.9183C53.7125 22.5623 53.7445 22.2403 53.7755 21.9473C53.8465 21.3523 53.9835 20.7843 54.1935 20.2333C54.1885 20.8203 54.1485 21.4003 54.1605 21.9633C54.1775 22.2423 54.1815 22.5273 54.2865 22.6973C54.3475 22.7773 54.3405 22.7683 54.4005 22.7663C54.4675 22.7563 54.5765 22.7003 54.6755 22.6263C54.8825 22.4813 55.0805 22.2813 55.2695 22.0773C55.4395 21.9053 55.5335 21.6763 55.5875 21.4213C55.6775 20.9033 55.5695 20.3243 55.4135 19.7643" fill="#9E2020" blush:i="0.1.0.0.31"/><path id="Fill 67" fill-rule="evenodd" clip-rule="evenodd" d="M55.0658 22.6277C55.4358 23.0727 55.7278 23.6027 55.7838 24.2367C55.8158 24.5507 55.7218 24.9207 55.4748 25.1857C55.2538 25.4147 55.0108 25.5987 54.7038 25.7347C54.4318 25.8617 53.9288 25.9307 53.6378 25.5647C53.3918 25.2157 53.4398 24.8667 53.4798 24.5757C53.5718 23.9887 53.7988 23.3967 54.2368 23.0017C53.9738 23.5147 53.8738 24.0667 53.8618 24.6087C53.8668 24.8707 53.8818 25.1507 54.0038 25.2637C54.0888 25.3707 54.2868 25.3757 54.5128 25.2737C54.7328 25.1887 54.9578 25.0237 55.1388 24.8537C55.3008 24.7107 55.3738 24.4897 55.4008 24.2367C55.4318 23.7247 55.2578 23.1657 55.0658 22.6277" fill="#9E2020" blush:i="0.1.0.0.32"/><path id="Fill 69" fill-rule="evenodd" clip-rule="evenodd" d="M55.2826 25.0475C55.6656 25.5135 55.9086 26.1615 55.7616 26.8295C55.7036 27.1635 55.4886 27.4635 55.3186 27.6965C55.1326 27.9435 54.9406 28.1835 54.6956 28.4085C54.5626 28.5135 54.4406 28.6315 54.2006 28.6915C54.0856 28.7225 53.9046 28.6995 53.7906 28.6045C53.7336 28.5665 53.6846 28.4925 53.6506 28.4305C53.6316 28.3835 53.6106 28.3305 53.5996 28.2865C53.5246 27.9415 53.5196 27.6375 53.5486 27.3225C53.6046 26.7135 53.7286 26.0625 54.1386 25.5895C53.9186 26.1525 53.9116 26.7495 53.9326 27.3275C53.9586 27.6125 53.9756 27.9155 54.0536 28.1515L54.0816 28.2195C54.0886 28.2185 54.0736 28.2165 54.0816 28.2195C54.0816 28.2195 54.0676 28.2185 54.0966 28.2135C54.1536 28.2035 54.2716 28.1185 54.3656 28.0325C54.5706 27.8585 54.7596 27.6305 54.9466 27.4065C55.1496 27.1725 55.2956 26.9755 55.3936 26.7245C55.5826 26.2225 55.4886 25.6105 55.2826 25.0475" fill="#9E2020" blush:i="0.1.0.0.33"/><path id="Fill 71" fill-rule="evenodd" clip-rule="evenodd" d="M55.3178 27.3083C55.6418 27.7873 55.8738 28.3293 55.9458 28.9373C55.9828 29.2393 55.9528 29.5773 55.7768 29.8903C55.6108 30.1623 55.3898 30.3893 55.1388 30.5783C54.8798 30.7543 54.5968 30.9093 54.2278 30.9323C54.0538 30.9423 53.7898 30.8773 53.6608 30.6613C53.5408 30.4423 53.5698 30.2813 53.5738 30.1273C53.6338 29.5183 53.8328 28.9783 54.0978 28.4643C54.0308 29.0323 53.9338 29.6023 53.9588 30.1293C54.0068 30.4443 54.0048 30.4733 54.2058 30.4583C54.4038 30.4393 54.6488 30.3233 54.8468 30.1713C55.0548 30.0273 55.2368 29.8413 55.3788 29.6373C55.5048 29.4613 55.5458 29.2103 55.5628 28.9513C55.5768 28.4223 55.4538 27.8643 55.3178 27.3083" fill="#9E2020" blush:i="0.1.0.0.34"/><path id="Fill 73" fill-rule="evenodd" clip-rule="evenodd" d="M55.5794 29.7615C55.9544 30.1945 56.1934 30.7655 56.1944 31.3825C56.1934 32.0015 55.9004 32.6335 55.3374 33.0025C55.0544 33.1735 54.6914 33.2675 54.3314 33.1565C54.1574 33.0985 53.9764 32.9775 53.8804 32.7845C53.7804 32.5765 53.8124 32.4015 53.8314 32.2525C53.9414 31.6545 54.1784 31.1395 54.4724 30.6465C54.3734 31.2035 54.2324 31.7635 54.2154 32.2855C54.2184 32.5725 54.2704 32.6435 54.4684 32.7025C54.6524 32.7515 54.8894 32.7015 55.0764 32.5755C55.4684 32.3345 55.7354 31.8505 55.8124 31.3565C55.8864 30.8465 55.7744 30.2925 55.5794 29.7615" fill="#9E2020" blush:i="0.1.0.0.35"/><path id="Fill 75" fill-rule="evenodd" clip-rule="evenodd" d="M55.5632 32.4801C55.9782 33.0461 56.2482 33.7371 56.2652 34.4821C56.2752 34.8591 56.1962 35.2321 56.0232 35.5861C55.8692 35.9471 55.4472 36.2741 55.0142 36.2841C54.8032 36.2941 54.6052 36.2591 54.4222 36.2101C54.2362 36.1271 54.0902 36.1831 53.8262 35.8911C53.6672 35.6031 53.7472 35.4071 53.7682 35.2131C53.8082 35.0261 53.8712 34.8531 53.9422 34.6881C54.2242 34.0271 54.5942 33.4311 55.0302 32.8791C54.7762 33.5311 54.4952 34.1691 54.3052 34.8161C54.2222 35.1101 54.1372 35.5321 54.2192 35.6281C54.1712 35.6131 54.4112 35.7121 54.5452 35.7371C54.6972 35.7751 54.8472 35.7941 54.9832 35.7851C55.5242 35.7961 55.8122 35.0841 55.8822 34.4661C55.9442 33.8201 55.7942 33.1351 55.5632 32.4801" fill="#9E2020" blush:i="0.1.0.0.36"/><path id="Fill 77" fill-rule="evenodd" clip-rule="evenodd" d="M55.8944 35.3113C56.2984 35.7853 56.6264 36.3353 56.7484 36.9963C56.8114 37.3193 56.7754 37.7243 56.5194 38.0373C56.2304 38.3403 55.9484 38.4373 55.6344 38.5733C55.3174 38.6713 54.9534 38.7643 54.5574 38.6023C54.3644 38.5203 54.1844 38.3223 54.1494 38.0993C54.1034 37.8753 54.1754 37.6843 54.2374 37.5383C54.5044 36.9393 54.8694 36.4453 55.2824 35.9753C55.0474 36.5463 54.7644 37.1083 54.6014 37.6633C54.5244 37.9563 54.5644 38.1063 54.7464 38.1683C54.9294 38.2393 55.2134 38.1973 55.4684 38.1013C55.7184 38.0123 56.0274 37.8683 56.1644 37.7263C56.3224 37.5713 56.3704 37.3133 56.3684 37.0353C56.3414 36.4703 56.1214 35.8833 55.8944 35.3113" fill="#9E2020" blush:i="0.1.0.0.37"/><path id="Fill 79" fill-rule="evenodd" clip-rule="evenodd" d="M56.1185 38.0701C56.4135 38.6751 56.6095 39.3341 56.6185 40.0441C56.6305 40.3901 56.5395 40.8011 56.2765 41.1071C56.0385 41.3931 55.7215 41.6271 55.3325 41.7291C55.1375 41.7731 54.9185 41.7881 54.6915 41.6991C54.4565 41.6221 54.2735 41.3451 54.2705 41.1141C54.2795 40.6661 54.4275 40.3801 54.5655 40.0601C54.8515 39.4431 55.1895 38.8651 55.5905 38.3231C55.3745 38.9591 55.1255 39.5781 54.9245 40.1991C54.8395 40.5001 54.7175 40.8491 54.7425 41.0681C54.7495 41.2491 54.9415 41.3071 55.2145 41.2431C55.4735 41.1851 55.7245 41.0131 55.9195 40.7981C56.1175 40.6081 56.1905 40.3321 56.2365 40.0191C56.3055 39.3971 56.2175 38.7301 56.1185 38.0701" fill="#9E2020" blush:i="0.1.0.0.38"/><path id="Fill 81" fill-rule="evenodd" clip-rule="evenodd" d="M56.1624 40.8777C56.5944 41.3847 56.9284 42.0607 56.8084 42.8167C56.7624 43.1927 56.5014 43.5427 56.2514 43.7737C55.9984 44.0147 55.7204 44.2307 55.4074 44.4087C55.2464 44.4927 55.0784 44.5667 54.8914 44.6177C54.7054 44.6567 54.4884 44.7227 54.2134 44.5667C54.0794 44.4837 53.9924 44.3057 53.9964 44.1757C53.9934 44.0527 54.0114 43.9647 54.0284 43.8757C54.0614 43.6997 54.1094 43.5357 54.1644 43.3747C54.3714 42.7297 54.6204 42.1077 54.9294 41.5067C54.8174 42.1717 54.6624 42.8217 54.5374 43.4697L54.4604 43.9447C54.4514 44.0217 54.4444 44.0997 54.4514 44.1427C54.4564 44.1817 54.4634 44.1617 54.4684 44.1687C54.5484 44.2257 54.9284 44.1177 55.1674 43.9707C55.4384 43.8257 55.6924 43.6337 55.9334 43.4257C56.1834 43.2217 56.3424 43.0127 56.4354 42.7297C56.6064 42.1627 56.4244 41.4847 56.1624 40.8777" fill="#9E2020" blush:i="0.1.0.0.39"/><path id="Fill 83" fill-rule="evenodd" clip-rule="evenodd" d="M56.221 43.4811C56.448 43.8701 56.596 44.3071 56.659 44.7671C56.71 45.2241 56.673 45.7261 56.437 46.1691C56.188 46.5861 55.923 46.9301 55.624 47.2811C55.327 47.6271 55.018 47.9521 54.667 48.2581L54.455 48.4431L54.309 48.2171C54.092 47.8811 53.991 47.5411 53.949 47.1741C53.901 46.8121 53.963 46.4431 54.077 46.1081C54.306 45.4671 54.607 44.8561 55.012 44.3171C54.759 44.9361 54.565 45.5711 54.409 46.2041C54.343 46.5071 54.337 46.8171 54.388 47.1141C54.434 47.4061 54.558 47.7101 54.704 47.9321L54.346 47.8921C54.657 47.6021 54.965 47.2811 55.258 46.9601C55.538 46.6351 55.848 46.2941 56.073 45.9571C56.301 45.6321 56.391 45.2081 56.394 44.7831C56.407 44.3531 56.336 43.9141 56.221 43.4811" fill="#9E2020" blush:i="0.1.0.0.40"/><path id="Fill 85" fill-rule="evenodd" clip-rule="evenodd" d="M55.9417 46.5094C56.2937 47.1234 56.5037 47.8254 56.5117 48.5664C56.5427 49.3154 56.1667 50.0884 55.5657 50.5654C55.2617 50.8014 54.8887 50.9924 54.4447 50.9804C54.2297 50.9724 53.9777 50.8784 53.8207 50.6794C53.6577 50.4834 53.6417 50.2304 53.6587 50.0414C53.7347 49.2804 54.0797 48.6364 54.5067 48.0744C54.2607 48.7274 54.0297 49.4064 54.0437 50.0494C54.0117 50.6964 54.7977 50.5784 55.2547 50.1734C55.7537 49.7794 56.0667 49.2004 56.1297 48.5454C56.1987 47.8874 56.1007 47.1924 55.9417 46.5094" fill="#9E2020" blush:i="0.1.0.0.41"/><path id="Fill 87" fill-rule="evenodd" clip-rule="evenodd" d="M55.992 49.7078C56.295 50.3578 56.502 51.0568 56.519 51.8088C56.528 52.1728 56.459 52.6158 56.167 52.9398C55.93 53.2228 55.664 53.4778 55.375 53.7138C55.226 53.8278 55.072 53.9358 54.89 54.0288C54.797 54.0738 54.705 54.1218 54.55 54.1398C54.482 54.1428 54.347 54.1528 54.234 54.0328C54.131 53.9218 54.134 53.7958 54.13 53.7798C54.086 53.4158 54.066 53.0398 54.115 52.6728C54.189 51.9378 54.455 51.2238 54.905 50.6618C54.638 51.3258 54.492 52.0108 54.498 52.6928C54.509 53.0348 54.529 53.3718 54.597 53.7078C54.607 53.7758 54.619 53.7488 54.579 53.6988C54.523 53.6518 54.494 53.6638 54.509 53.6588C54.53 53.6568 54.604 53.6308 54.667 53.5948C54.8 53.5228 54.936 53.4248 55.067 53.3208C55.333 53.1148 55.582 52.8778 55.813 52.6278C56.029 52.4318 56.089 52.1218 56.137 51.7908C56.199 51.1218 56.098 50.4108 55.992 49.7078" fill="#9E2020" blush:i="0.1.0.0.42"/><path id="Fill 89" fill-rule="evenodd" clip-rule="evenodd" d="M55.8297 52.9587C56.2047 53.1097 56.3717 53.5027 56.4317 53.8457C56.4547 54.0237 56.4577 54.2027 56.4187 54.3787C56.3807 54.5537 56.3247 54.7247 56.2087 54.8827C56.0417 54.5337 55.9927 54.2267 55.9377 53.9207C55.8937 53.6087 55.8757 53.3317 55.8297 52.9587" fill="#9E2020" blush:i="0.1.0.0.43"/><path id="Fill 91" fill-rule="evenodd" clip-rule="evenodd" d="M61.591 52.3201C61.976 52.4601 62.176 52.8361 62.271 53.1791C62.312 53.3591 62.332 53.5421 62.31 53.7241C62.29 53.9071 62.251 54.0871 62.151 54.2591C61.951 53.9201 61.871 53.6091 61.786 53.3011C61.712 52.9861 61.662 52.6991 61.591 52.3201" fill="#9E2020" blush:i="0.1.0.0.44"/><path id="Fill 93" fill-rule="evenodd" clip-rule="evenodd" d="M58.0284 53.7527C58.1114 54.0597 58.0964 54.2887 58.0714 54.5197C58.0334 54.7517 57.9834 54.9447 57.8624 55.2397C57.5994 55.0457 57.5454 54.7197 57.5774 54.4497C57.6274 54.1777 57.7494 53.9137 58.0284 53.7527" fill="#9E2020" blush:i="0.1.0.0.45"/><path id="Fill 95" fill-rule="evenodd" clip-rule="evenodd" d="M32.6333 50.9588C33.2403 50.7018 33.8763 50.5308 34.5203 50.3978C35.1643 50.2618 35.8223 50.1968 36.4853 50.1778C37.1483 50.1728 37.8233 50.2308 38.4703 50.4338C39.1053 50.6258 39.7643 50.9878 40.0613 51.5998C39.5983 51.1248 38.9863 50.9178 38.3763 50.8068C37.7593 50.7048 37.1283 50.6618 36.4923 50.6778C35.2173 50.6948 33.9393 50.8388 32.6333 50.9588" fill="#9E2020" blush:i="0.1.0.0.46"/><path id="Fill 97" fill-rule="evenodd" clip-rule="evenodd" d="M71.1665 48.4391C71.3235 47.7991 71.5665 47.1871 71.8465 46.5921C72.1225 45.9951 72.4645 45.4281 72.8455 44.8851C73.2375 44.3511 73.6885 43.8451 74.2375 43.4481C74.7705 43.0541 75.4565 42.7431 76.1245 42.8711C75.4665 42.9581 74.9345 43.3241 74.4795 43.7471C74.0305 44.1801 73.6175 44.6601 73.2495 45.1791C72.5015 46.2101 71.8515 47.3211 71.1665 48.4391" fill="#9E2020" blush:i="0.1.0.0.47"/><path id="Fill 99" fill-rule="evenodd" clip-rule="evenodd" d="M74.0032 50.777C73.9152 50.124 73.9172 49.465 73.9592 48.809C73.9972 48.152 74.1082 47.5 74.2642 46.855C74.4332 46.215 74.6682 45.578 75.0332 45.007C75.3852 44.446 75.9092 43.905 76.5772 43.78C75.9972 44.101 75.6362 44.637 75.3682 45.196C75.1082 45.764 74.9002 46.362 74.7482 46.98C74.4292 48.214 74.2312 49.485 74.0032 50.777" fill="#9E2020" blush:i="0.1.0.0.48"/><path id="Fill 101" fill-rule="evenodd" clip-rule="evenodd" d="M34.3877 53.5094C35.2757 52.9864 36.2537 52.6554 37.2587 52.4504C37.7637 52.3594 38.2777 52.2874 38.7987 52.3074C39.3137 52.3224 39.8457 52.3814 40.3147 52.6094C39.8007 52.5854 39.3097 52.6274 38.8187 52.6914C38.3297 52.7604 37.8407 52.8414 37.3537 52.9414C36.3747 53.1204 35.4037 53.3534 34.3877 53.5094" fill="#9E2020" blush:i="0.1.0.0.49"/><path id="Fill 103" fill-rule="evenodd" clip-rule="evenodd" d="M44.1528 63.4919C44.9368 62.5519 45.7628 61.6819 46.5408 60.7729C46.9388 60.3269 47.3158 59.8649 47.6798 59.3959C48.0398 58.9219 48.3808 58.4349 48.6478 57.8839C48.5798 58.5009 48.3038 59.0749 48.0008 59.6089C47.6968 60.1489 47.3168 60.6369 46.9178 61.1009C46.5108 61.5589 46.0858 61.9999 45.6188 62.3939C45.1568 62.7939 44.6798 63.1759 44.1528 63.4919" fill="#9E2020" blush:i="0.1.0.0.50"/><path id="Fill 105" fill-rule="evenodd" clip-rule="evenodd" d="M47.958 59.3288C48.468 59.3088 48.934 59.4898 49.351 59.7438C49.751 60.0128 50.133 60.3958 50.243 60.9018L49.08 60.1638C48.705 59.9148 48.328 59.6728 47.958 59.3288" fill="#9E2020" blush:i="0.1.0.0.51"/><path id="Fill 107" fill-rule="evenodd" clip-rule="evenodd" d="M46.5977 61.0896C47.1657 61.2856 47.6477 61.5736 48.1237 61.8666C48.3567 62.0216 48.5917 62.1666 48.8157 62.3326C49.0467 62.4916 49.2657 62.6486 49.5307 62.7846C49.2287 62.8546 48.9187 62.7706 48.6427 62.6766C48.3597 62.5826 48.1037 62.4396 47.8557 62.2886C47.3737 61.9686 46.9277 61.5946 46.5977 61.0896" fill="#9E2020" blush:i="0.1.0.0.52"/><path id="Fill 109" fill-rule="evenodd" clip-rule="evenodd" d="M45.0762 62.655C45.6532 63.006 46.1862 63.313 46.7552 63.568C47.0352 63.701 47.3242 63.815 47.6182 63.929C47.9132 64.049 48.2202 64.131 48.5392 64.259C47.8772 64.419 47.1662 64.302 46.5462 64.021C46.2372 63.876 45.9432 63.694 45.6942 63.46C45.4432 63.23 45.2152 62.97 45.0762 62.655" fill="#9E2020" blush:i="0.1.0.0.53"/><path id="Fill 111" fill-rule="evenodd" clip-rule="evenodd" d="M81.5698 42.2068C82.1698 43.2048 82.7648 44.1678 83.4978 45.0128C83.8618 45.4338 84.2608 45.8178 84.7008 46.1548C85.1518 46.4778 85.6518 46.7218 86.2088 46.9078C85.6218 46.9298 85.0278 46.7618 84.4958 46.4798C83.9638 46.1928 83.5158 45.7808 83.1198 45.3388C82.7308 44.8878 82.4088 44.3878 82.1518 43.8588C81.8948 43.3308 81.6768 42.7838 81.5698 42.2068" fill="#9E2020" blush:i="0.1.0.0.54"/><path id="Fill 113" fill-rule="evenodd" clip-rule="evenodd" d="M82.1523 43.4714C82.3993 42.8334 82.8873 42.3204 83.4683 41.9524C84.0533 41.6014 84.8183 41.4314 85.4623 41.6874C85.1293 41.7734 84.8283 41.8424 84.5433 41.9634C84.2623 42.0924 83.9873 42.2184 83.7263 42.3804C83.1953 42.6974 82.7033 43.0774 82.1523 43.4714" fill="#9E2020" blush:i="0.1.0.0.55"/><path id="Fill 115" fill-rule="evenodd" clip-rule="evenodd" d="M82.9731 44.7624C83.3861 44.3294 83.8491 44.0174 84.3181 43.7144C84.5561 43.5724 84.7891 43.4244 85.0371 43.2974C85.2811 43.1604 85.5201 43.0364 85.7651 42.8694C85.6841 43.1674 85.4721 43.4004 85.2681 43.6054C85.0611 43.8154 84.8231 43.9814 84.5821 44.1384C84.0891 44.4324 83.5661 44.6754 82.9731 44.7624" fill="#9E2020" blush:i="0.1.0.0.56"/><path id="Fill 117" fill-rule="evenodd" clip-rule="evenodd" d="M83.8892 45.776C84.3052 45.459 84.7322 45.257 85.1632 45.059C85.6032 44.873 86.0242 44.705 86.5242 44.557C86.3982 44.791 86.2102 44.97 86.0132 45.13C85.8152 45.293 85.5912 45.41 85.3652 45.517C84.9032 45.707 84.4122 45.834 83.8892 45.776" fill="#9E2020" blush:i="0.1.0.0.57"/><path id="Fill 119" fill-rule="evenodd" clip-rule="evenodd" d="M59.0797 18.9197C58.8517 19.3417 58.7517 19.7857 58.9287 20.1847C59.0817 20.5787 59.4147 20.8887 59.7707 21.1437C60.5047 21.6407 61.3527 22.0117 62.1997 22.2947L61.8847 22.4777C61.9597 22.0987 61.9397 21.7157 61.8127 21.3507C61.6837 20.9837 61.4327 20.6607 61.1577 20.3577C60.5847 19.7647 59.8457 19.3117 59.0797 18.9197M59.0797 18.9197C59.9187 19.1297 60.7337 19.4987 61.4147 20.0877C61.7537 20.3807 62.0607 20.7377 62.2447 21.1797C62.4317 21.6197 62.4547 22.1187 62.3687 22.5867L62.3187 22.8577L62.0537 22.7697C61.1467 22.4677 60.2827 22.0677 59.5287 21.4547C59.1697 21.1367 58.8237 20.7517 58.6877 20.2607C58.5557 19.7657 58.7737 19.2457 59.0797 18.9197" fill="#9E2020" blush:i="0.1.0.0.58"/><path id="Fill 121" fill-rule="evenodd" clip-rule="evenodd" d="M60.4924 21.8699C60.2644 22.2919 60.1634 22.7359 60.3404 23.1349C60.4934 23.5289 60.8264 23.8389 61.1834 24.0939C61.9174 24.5909 62.7644 24.9619 63.6114 25.2449L63.2974 25.4279C63.3724 25.0489 63.3514 24.6659 63.2254 24.3009C63.0964 23.9339 62.8444 23.6109 62.5704 23.3079C61.9974 22.7149 61.2574 22.2619 60.4924 21.8699M60.4924 21.8699C61.3304 22.0799 62.1454 22.4489 62.8264 23.0389C63.1664 23.3309 63.4734 23.6889 63.6574 24.1299C63.8434 24.5699 63.8674 25.0689 63.7814 25.5369L63.7314 25.8079L63.4664 25.7199C62.5594 25.4179 61.6954 25.0179 60.9414 24.4049C60.5824 24.0879 60.2364 23.7029 60.1004 23.2109C59.9684 22.7159 60.1854 22.1959 60.4924 21.8699" fill="#9E2020" blush:i="0.1.0.0.59"/><path id="Fill 123" fill-rule="evenodd" clip-rule="evenodd" d="M61.8347 24.7566C61.6227 25.2346 61.5207 25.7066 61.6597 26.1706C61.7747 26.6266 62.0857 27.0136 62.4477 27.3256C63.1707 27.9566 64.0667 28.4286 64.9657 28.7816L64.6377 28.9686C64.7037 28.5386 64.7087 28.1016 64.5907 27.6806C64.4687 27.2616 64.2517 26.8706 63.9827 26.5066C63.4177 25.7956 62.6557 25.2246 61.8347 24.7566M61.8347 24.7566C62.7397 25.0466 63.5927 25.5446 64.2687 26.2646C64.6047 26.6266 64.8707 27.0636 65.0357 27.5456C65.2007 28.0346 65.1947 28.5596 65.1257 29.0626L65.0847 29.3616L64.7967 29.2486C63.8297 28.8676 62.9127 28.3656 62.1727 27.6076C61.8127 27.2306 61.4977 26.7626 61.4137 26.2226C61.3327 25.6896 61.5397 25.1446 61.8347 24.7566" fill="#9E2020" blush:i="0.1.0.0.60"/><path id="Fill 125" fill-rule="evenodd" clip-rule="evenodd" d="M62.6091 28.0173C62.3811 28.4403 62.2801 28.8843 62.4571 29.2833C62.6111 29.6763 62.9431 29.9863 63.3001 30.2423C64.0341 30.7383 64.8811 31.1093 65.7291 31.3933L65.4141 31.5763C65.4891 31.1973 65.4681 30.8143 65.3421 30.4493C65.2131 30.0813 64.9621 29.7593 64.6871 29.4563C64.1141 28.8623 63.3741 28.4093 62.6091 28.0173M62.6091 28.0173C63.4471 28.2283 64.2621 28.5973 64.9431 29.1863C65.2831 29.4783 65.5901 29.8363 65.7741 30.2773C65.9601 30.7183 65.9841 31.2173 65.8981 31.6853L65.8481 31.9553L65.5831 31.8673C64.6761 31.5663 63.8121 31.1653 63.0581 30.5533C62.6991 30.2353 62.3531 29.8503 62.2171 29.3593C62.0851 28.8633 62.3021 28.3433 62.6091 28.0173" fill="#9E2020" blush:i="0.1.0.0.61"/><path id="Fill 127" fill-rule="evenodd" clip-rule="evenodd" d="M63.5593 30.7585C63.3003 31.2145 63.2133 31.7065 63.3383 32.1805C63.4483 32.6475 63.6923 33.0825 64.0073 33.4605C64.6303 34.2185 65.4023 34.8815 66.2163 35.4325L65.8483 35.5505C65.9203 35.3075 66.0123 35.0685 66.0783 34.8235C66.1093 34.5755 66.1963 34.3285 66.1843 34.0815C66.2453 33.5815 66.1163 33.0935 65.9173 32.6455C65.4833 31.7435 64.5453 31.1265 63.5593 30.7585M63.5593 30.7585C64.0913 30.8315 64.6013 31.0315 65.0803 31.2965C65.5483 31.5795 65.9723 31.9685 66.2603 32.4605C66.5453 32.9485 66.6953 33.5355 66.6603 34.0995C66.6513 34.6695 66.4943 35.2095 66.3123 35.7315L66.2073 36.0325L65.9443 35.8505C65.0833 35.2505 64.2983 34.5575 63.7013 33.6835C63.4053 33.2515 63.1693 32.7535 63.1013 32.2205C63.0383 31.6895 63.2183 31.1305 63.5593 30.7585" fill="#9E2020" blush:i="0.1.0.0.62"/><path id="Fill 129" fill-rule="evenodd" clip-rule="evenodd" d="M64.0549 34.3503C63.7959 34.8073 63.7099 35.2983 63.8349 35.7723C63.9449 36.2393 64.1889 36.6733 64.5039 37.0523C65.1259 37.8093 65.8989 38.4733 66.7119 39.0243L66.3489 39.1303C66.5269 38.6733 66.7009 38.2023 66.6819 37.7193C66.6929 37.2423 66.5759 36.7613 66.3299 36.3353C65.8329 35.4803 64.9749 34.8323 64.0549 34.3503M64.0549 34.3503C64.5639 34.4853 65.0409 34.7263 65.4949 35.0073C65.9369 35.3063 66.3439 35.6753 66.6589 36.1323C66.9889 36.5813 67.1389 37.1583 67.1579 37.7163C67.1869 38.2883 66.9999 38.8263 66.8039 39.3363L66.6949 39.6203L66.4399 39.4423C65.5779 38.8433 64.7939 38.1503 64.1959 37.2763C63.8999 36.8443 63.6649 36.3453 63.5959 35.8123C63.5329 35.2813 63.7139 34.7223 64.0549 34.3503" fill="#9E2020" blush:i="0.1.0.0.63"/><path id="Fill 131" fill-rule="evenodd" clip-rule="evenodd" d="M64.055 37.324C63.82 37.755 63.694 38.185 63.722 38.644C63.737 39.095 63.906 39.528 64.117 39.926C64.554 40.718 65.188 41.424 65.869 42.015L65.531 42.038C65.841 41.654 66.168 41.265 66.285 40.805C66.436 40.359 66.409 39.877 66.215 39.431C66.023 38.985 65.686 38.592 65.306 38.251C64.934 37.895 64.505 37.596 64.055 37.324M64.055 37.324C64.556 37.491 65.024 37.75 65.467 38.054C65.894 38.375 66.298 38.759 66.572 39.258C66.849 39.755 66.909 40.388 66.746 40.939C66.6 41.507 66.247 41.957 65.894 42.375L65.737 42.56L65.555 42.397C64.822 41.743 64.177 40.999 63.784 40.087C63.597 39.635 63.447 39.145 63.489 38.642C63.528 38.151 63.747 37.669 64.055 37.324" fill="#9E2020" blush:i="0.1.0.0.64"/><path id="Fill 133" fill-rule="evenodd" clip-rule="evenodd" d="M64.356 40.7135C64.017 41.0685 63.783 41.4515 63.691 41.9025C63.588 42.3425 63.639 42.8045 63.739 43.2425C63.955 44.1205 64.384 44.9675 64.889 45.7155L64.555 45.6505C64.954 45.3595 65.372 45.0685 65.605 44.6555C65.866 44.2645 65.965 43.7905 65.894 43.3115C65.824 42.8295 65.601 42.3615 65.324 41.9345C65.056 41.4945 64.719 41.0945 64.356 40.7135M64.356 40.7135C64.796 41.0055 65.181 41.3775 65.529 41.7855C65.858 42.2065 66.149 42.6825 66.284 43.2355C66.422 43.7875 66.315 44.4145 66.015 44.9035C65.726 45.4145 65.269 45.7575 64.818 46.0695L64.619 46.2075L64.485 46.0035C63.948 45.1815 63.519 44.2945 63.376 43.3115C63.314 42.8265 63.295 42.3145 63.466 41.8405C63.632 41.3755 63.969 40.9675 64.356 40.7135" fill="#9E2020" blush:i="0.1.0.0.65"/><path id="Fill 135" fill-rule="evenodd" clip-rule="evenodd" d="M63.5362 44.3357C63.1972 44.6897 62.9632 45.0727 62.8712 45.5237C62.7682 45.9647 62.8192 46.4257 62.9202 46.8637C63.1352 47.7417 63.5642 48.5897 64.0692 49.3367L63.7352 49.2717C64.1342 48.9817 64.5522 48.6897 64.7852 48.2767C65.0462 47.8857 65.1452 47.4117 65.0742 46.9327C65.0042 46.4507 64.7812 45.9837 64.5042 45.5557C64.2362 45.1157 63.8992 44.7157 63.5362 44.3357M63.5362 44.3357C63.9762 44.6277 64.3612 44.9987 64.7092 45.4077C65.0392 45.8287 65.3292 46.3037 65.4642 46.8567C65.6022 47.4097 65.4952 48.0357 65.1952 48.5257C64.9062 49.0357 64.4492 49.3787 63.9982 49.6907L63.7992 49.8287L63.6652 49.6247C63.1282 48.8027 62.6992 47.9157 62.5562 46.9327C62.4942 46.4477 62.4752 45.9367 62.6462 45.4617C62.8122 44.9977 63.1492 44.5887 63.5362 44.3357" fill="#9E2020" blush:i="0.1.0.0.66"/><path id="Fill 137" fill-rule="evenodd" clip-rule="evenodd" d="M62.942 47.9617C62.523 48.2167 62.198 48.5257 61.992 48.9387C61.779 49.3367 61.709 49.7947 61.692 50.2447C61.673 51.1497 61.869 52.0777 62.163 52.9307L61.858 52.7807C62.318 52.6047 62.797 52.4317 63.129 52.0917C63.483 51.7807 63.7 51.3497 63.756 50.8677C63.813 50.3857 63.718 49.8757 63.561 49.3907C63.416 48.8977 63.195 48.4227 62.942 47.9617M62.942 47.9617C63.292 48.3577 63.567 48.8157 63.798 49.3007C64.007 49.7927 64.165 50.3267 64.152 50.8967C64.143 51.4657 63.877 52.0427 63.461 52.4387C63.049 52.8567 62.519 53.0697 62.004 53.2547L61.775 53.3367L61.698 53.1047C61.392 52.1707 61.207 51.2037 61.323 50.2167C61.389 49.7327 61.504 49.2327 61.791 48.8187C62.072 48.4137 62.503 48.1067 62.942 47.9617" fill="#9E2020" blush:i="0.1.0.0.67"/></g></g></g><g id="Female Character/Head" blush:component="Female Character/Head" blush:defaultValue="Pixie Cut 4" blush:width="53" blush:height="71" transform="translate(111 63) scale(1 1)" blush:i="0.2" blush:value="Pixie Cut 4" blush:viewBox="14.955093833780161 8.164999999999992 24.865951742627335 31.24000000000001"><g id="Female Character/Head/Pixie Cut 4" blush:viewBox="14.955093833780161 8.164999999999992 24.865951742627335 31.24000000000001" blush:i="0.2.0"><g id="Group 41" blush:i="0.2.0.0"><g id="Group 3" blush:i="0.2.0.0.0"><path id="Fill 1" fill-rule="evenodd" clip-rule="evenodd" d="M20.2921 32.0686C20.2921 32.0686 21.4261 34.3366 23.9051 35.8246C26.3861 37.3126 29.5041 39.5806 31.0631 39.0846C32.6221 38.5886 36.7541 35.4226 37.7451 31.8796C38.7371 28.3366 39.3541 22.4306 38.7171 19.5256C38.0791 16.6196 34.4651 10.5256 28.0161 10.5256C21.5671 10.5256 15.8271 17.3276 17.3861 24.8396C17.3861 24.8396 15.5941 27.0376 17.1281 29.3046C18.6621 31.5726 20.2921 32.0686 20.2921 32.0686" fill="#db8c5c" blush:color="Skin-500" blush:i="0.2.0.0.0.0"/></g><path id="Fill 4" fill-rule="evenodd" clip-rule="evenodd" d="M24.1397 27.3205C24.1397 27.3205 26.9867 27.3905 27.7427 27.9405C27.7427 27.9405 28.0197 28.0385 27.9127 27.6745C27.9127 27.6745 28.3207 27.9665 28.3467 27.8075C28.3727 27.6485 28.1697 26.1065 26.5667 25.8945C24.9627 25.6815 23.7587 27.1525 24.1397 27.3205" fill="#20180F" blush:i="0.2.0.0.1"/><path id="Fill 6" fill-rule="evenodd" clip-rule="evenodd" d="M36.6114 26.9133C36.6114 26.9133 34.8054 26.8863 34.0744 27.4343C34.0744 27.4343 33.8054 27.5323 33.9084 27.1693C33.9084 27.1693 33.5134 27.4613 33.4884 27.3023C33.4634 27.1423 34.1974 25.6903 35.7494 25.4773C37.3014 25.2653 37.7104 26.6233 36.6114 26.9133" fill="#20180F" blush:i="0.2.0.0.2"/><path id="Fill 8" fill-rule="evenodd" clip-rule="evenodd" d="M31.8818 32.2629C31.8818 32.2629 31.6688 32.4409 31.8818 32.6169C32.0938 32.7949 33.4928 32.2989 33.8128 31.8379C34.1318 31.3769 33.9428 31.3249 33.4868 31.5899C33.0328 31.8559 31.8818 32.2629 31.8818 32.2629" fill="#20180F" blush:i="0.2.0.0.3"/><path id="Fill 10" fill-rule="evenodd" clip-rule="evenodd" d="M29.0117 33.6984C29.0117 33.6984 28.9227 33.5394 29.6847 33.5394C30.4467 33.5394 30.3747 33.6804 31.6157 33.6984C32.8557 33.7164 33.3637 33.6984 32.8787 34.0164C32.3957 34.3364 32.4307 34.3184 32.3417 34.5664C32.2537 34.8144 31.1317 35.2584 30.2487 34.9564C29.3657 34.6554 28.4637 33.8554 29.0117 33.6984" fill="#EE4E2F" blush:i="0.2.0.0.4"/><path id="Fill 12" fill-rule="evenodd" clip-rule="evenodd" d="M23.6904 23.1389C23.8264 23.0979 23.6434 23.3749 24.2574 23.2699C24.8714 23.1629 26.5484 22.9739 28.0604 23.9189C28.0604 23.9189 28.3304 23.7059 28.3484 23.3049C28.3664 22.9289 25.8204 21.6419 23.6544 23.0689C23.5064 23.1659 23.5524 23.1819 23.6904 23.1389" fill="#20180F" blush:i="0.2.0.0.5"/><path id="Fill 14" fill-rule="evenodd" clip-rule="evenodd" d="M36.6112 23.2815C36.6112 23.2815 35.7142 22.3125 34.2022 22.7605C32.6902 23.2105 32.8312 23.8955 32.8792 24.0845C32.9262 24.2735 34.0132 23.3515 35.1472 23.3635C36.2812 23.3755 36.6112 23.6115 36.6112 23.2815" fill="#20180F" blush:i="0.2.0.0.6"/><path id="Fill 16" fill-rule="evenodd" clip-rule="evenodd" d="M24.3311 27.3205C24.3311 27.3205 27.1781 27.3905 27.9341 27.9405C27.9341 27.9405 28.2111 28.0385 28.1041 27.6745C28.1041 27.6745 28.5131 27.9665 28.5391 27.8075C28.5651 27.6485 28.3611 26.1065 26.7591 25.8945C25.1551 25.6815 23.9501 27.1525 24.3311 27.3205" fill="black" blush:i="0.2.0.0.7"/><path id="Fill 18" fill-rule="evenodd" clip-rule="evenodd" d="M36.8038 26.9133C36.8038 26.9133 34.9978 26.8863 34.2668 27.4343C34.2668 27.4343 33.9978 27.5323 34.1008 27.1693C34.1008 27.1693 33.7058 27.4613 33.6808 27.3023C33.6548 27.1423 34.3898 25.6903 35.9418 25.4773C37.4938 25.2653 37.9028 26.6233 36.8038 26.9133" fill="black" blush:i="0.2.0.0.8"/><path id="Fill 20" fill-rule="evenodd" clip-rule="evenodd" d="M32.0732 32.2629C32.0732 32.2629 31.8602 32.4409 32.0732 32.6169C32.2862 32.7949 33.6852 32.2989 34.0052 31.8379C34.3232 31.3769 34.1352 31.3249 33.6792 31.5899C33.2242 31.8559 32.0732 32.2629 32.0732 32.2629" fill="black" blush:i="0.2.0.0.9"/><path id="Fill 22" fill-rule="evenodd" clip-rule="evenodd" d="M29.2032 33.6984C29.2032 33.6984 29.1152 33.5394 29.8772 33.5394C30.6392 33.5394 30.5672 33.6804 31.8072 33.6984C33.0482 33.7164 33.5552 33.6984 33.0712 34.0164C32.5872 34.3364 32.6232 34.3184 32.5342 34.5664C32.4452 34.8144 31.3242 35.2584 30.4402 34.9564C29.5572 34.6554 28.6552 33.8554 29.2032 33.6984" fill="#EE4E2F" blush:i="0.2.0.0.10"/><path id="Fill 24" fill-rule="evenodd" clip-rule="evenodd" d="M23.8826 23.1389C24.0176 23.0979 23.8346 23.3749 24.4486 23.2699C25.0636 23.1629 26.7406 22.9739 28.2526 23.9189C28.2526 23.9189 28.5226 23.7059 28.5406 23.3049C28.5586 22.9289 26.0126 21.6419 23.8466 23.0689C23.6986 23.1659 23.7436 23.1819 23.8826 23.1389" fill="black" blush:i="0.2.0.0.11"/><path id="Fill 26" fill-rule="evenodd" clip-rule="evenodd" d="M36.8036 23.2815C36.8036 23.2815 35.9066 22.3125 34.3946 22.7605C32.8826 23.2105 33.0236 23.8955 33.0716 24.0845C33.1186 24.2735 34.2046 23.3515 35.3386 23.3635C36.4726 23.3755 36.8036 23.6115 36.8036 23.2815" fill="black" blush:i="0.2.0.0.12"/><g id="Group 30" blush:i="0.2.0.0.13"><path id="Fill 28" fill-rule="evenodd" clip-rule="evenodd" d="M21.0078 29.0734C21.0078 29.0734 20.4008 26.8754 19.3018 26.0784C18.2018 25.2824 17.5578 25.4334 16.7988 25.8134C16.7988 25.8134 12.9538 19.5694 16.5068 13.0864C20.0598 6.60341 27.4148 8.28741 29.0348 9.72041C29.0348 9.72041 43.0608 10.3444 39.0708 23.3084C39.0708 23.3084 38.1978 18.6344 35.9538 16.5144C35.9538 16.5144 34.8658 21.2494 32.7688 21.6574C32.7688 21.6574 35.7108 18.4814 35.2448 15.5684L34.7498 15.0444C34.7498 15.0444 33.5838 20.9864 28.1368 21.9774L28.1538 21.8014L27.8328 21.6534C27.8328 21.6534 29.7268 20.9244 30.4478 16.4894C30.4478 16.4894 27.4858 21.2164 21.3648 22.8924C21.3648 22.8924 20.9938 24.3744 21.0528 26.0504C21.1118 27.7264 21.2738 29.0764 21.0078 29.0734" fill="#110b05" blush:color="Hair-500" blush:i="0.2.0.0.13.0"/></g><path id="Fill 31" fill-rule="evenodd" clip-rule="evenodd" d="M25.9973 9.35272C24.8643 10.0007 23.7893 10.7327 22.7723 11.5277C21.7663 12.3317 20.7903 13.1817 19.9793 14.1757C19.1443 15.1477 18.4733 16.2417 17.9803 17.4197C17.5133 18.6147 17.3483 19.8957 17.3403 21.2047C17.1403 19.9157 17.2063 18.5627 17.6193 17.2897C18.0553 16.0297 18.7653 14.8827 19.5993 13.8527C20.4703 12.8517 21.4683 11.9737 22.5453 11.2197C23.6283 10.4757 24.7723 9.81672 25.9973 9.35272" fill="#6F3C00" blush:i="0.2.0.0.14"/><path id="Fill 33" fill-rule="evenodd" clip-rule="evenodd" d="M18.5077 24.6916C17.7347 23.6166 17.5517 22.1906 17.7417 20.8786C17.9397 19.5486 18.5217 18.3106 19.2397 17.2026C19.9797 16.1206 20.7597 15.0606 21.6387 14.0856C22.5227 13.1196 23.4687 12.1856 24.5887 11.5006C23.5977 12.3486 22.7437 13.3296 21.9317 14.3346C21.1257 15.3466 20.3547 16.3866 19.6557 17.4776C18.9257 18.5306 18.3847 19.7026 18.1187 20.9446C17.8667 22.1766 17.9217 23.5196 18.5077 24.6916" fill="#6F3C00" blush:i="0.2.0.0.15"/><path id="Fill 35" fill-rule="evenodd" clip-rule="evenodd" d="M19.6416 21.7024C21.4336 20.3654 23.0896 18.8864 24.5406 17.2244C25.2836 16.4074 25.9206 15.5074 26.5296 14.5894C27.1386 13.6654 27.6016 12.6614 28.0586 11.6384C27.8006 12.7244 27.4146 13.7984 26.8606 14.7834C26.3166 15.7724 25.6676 16.7094 24.9176 17.5544C24.1676 18.3974 23.3556 19.1854 22.4676 19.8794C21.5826 20.5724 20.6506 21.2104 19.6416 21.7024" fill="#6F3C00" blush:i="0.2.0.0.16"/><path id="Fill 37" fill-rule="evenodd" clip-rule="evenodd" d="M29.0546 12.8059C28.7266 13.7339 28.2866 14.6149 27.8086 15.4739C27.3286 16.3329 26.7866 17.1599 26.1776 17.9379C25.5586 18.7059 24.9026 19.4549 24.1346 20.0859C23.3696 20.7159 22.5296 21.2689 21.5996 21.5999C23.2736 20.5679 24.5936 19.1519 25.7836 17.6299C26.9766 16.1079 28.0266 14.4749 29.0546 12.8059" fill="#6F3C00" blush:i="0.2.0.0.17"/><path id="Fill 39" fill-rule="evenodd" clip-rule="evenodd" d="M33.3145 12.9084C33.4115 13.7124 33.3755 14.5254 33.2825 15.3314C33.1915 16.1374 33.0085 16.9384 32.7235 17.7084C32.4255 18.4704 32.0605 19.2244 31.5075 19.8484C30.9615 20.4714 30.2735 20.9714 29.5015 21.2214C30.1835 20.7824 30.7515 20.2434 31.2045 19.6114C31.6515 18.9754 31.9805 18.2644 32.2545 17.5354C32.8035 16.0664 33.0855 14.5014 33.3145 12.9084" fill="#6F3C00" blush:i="0.2.0.0.18"/></g></g></g><g id="Female Character/Accesories" blush:component="Female Character/Accesories" blush:defaultValue="Glasses 2" blush:width="34" blush:height="36" transform="translate(123 72) scale(1 1)" blush:i="0.3" blush:value="Glasses 2" blush:viewBox="7.995762711864408 15.479999999999997 19.629237288135588 5.940000000000005"><g id="Female Character/Accesories/Glasses 2" blush:viewBox="7.995762711864408 15.479999999999997 19.629237288135588 5.940000000000005" blush:i="0.3.0"><g id="Accesories" blush:i="0.3.0.0"><path id="Rectangle" fill-rule="evenodd" clip-rule="evenodd" d="M13.0981 15.625H18.0981C18.8575 15.625 19.4731 16.2406 19.4731 17V20C19.4731 20.7594 18.8575 21.375 18.0981 21.375H13.0981C12.3388 21.375 11.7231 20.7594 11.7231 20V17C11.7231 16.2406 12.3388 15.625 13.0981 15.625ZM18.0981 16.375H13.0981C12.753 16.375 12.4731 16.6548 12.4731 17V20C12.4731 20.3452 12.753 20.625 13.0981 20.625H18.0981C18.4433 20.625 18.7231 20.3452 18.7231 20V17C18.7231 16.6548 18.4433 16.375 18.0981 16.375Z" fill="#F90606" blush:i="0.3.0.0.0"/><path id="Rectangle Copy" fill-rule="evenodd" clip-rule="evenodd" d="M22.0981 15.625H26.0981C26.8575 15.625 27.4731 16.2406 27.4731 17V20C27.4731 20.7594 26.8575 21.375 26.0981 21.375H22.0981C21.3388 21.375 20.7231 20.7594 20.7231 20V17C20.7231 16.2406 21.3388 15.625 22.0981 15.625ZM26.0981 16.375H22.0981C21.753 16.375 21.4731 16.6548 21.4731 17V20C21.4731 20.3452 21.753 20.625 22.0981 20.625H26.0981C26.4433 20.625 26.7231 20.3452 26.7231 20V17C26.7231 16.6548 26.4433 16.375 26.0981 16.375Z" fill="#F90606" blush:i="0.3.0.0.1"/><path id="Path 3" fill-rule="evenodd" clip-rule="evenodd" d="M12.3993 19.0903L8 18.2817L8 16.7135L12.3993 16.1693V19.0903Z" fill="#F90606" blush:i="0.3.0.0.2"/></g><path id="Path 2" fill-rule="evenodd" clip-rule="evenodd" d="M19.0823 17.9887C19.0823 17.9887 20.4889 17.4275 21.0823 17.9887L21.2704 16.0113H18.9019L19.0823 17.9887Z" fill="#F90606" blush:i="0.3.0.1"/></g></g></g></svg>