<svg viewBox="77.1875 52.88150289017344 92.62499999999994 108.23699421965321" fill="none" xmlns="http://www.w3.org/2000/svg" xmlns:xlink="http://www.w3.org/1999/xlink" xmlns:blush="http://design.blush" overflow="visible" width="92.62499999999994px" height="108.23699421965321px"><g id="Master/Stickers/Snake Plant Pink" blush:has-customizable-colors="true" blush:viewBox="79.04000000000002 52.01732101616628 88.91999999999994 109.96535796766749" blush:i="0"><g id="Group 59 Copy" blush:i="0.0"><path id="Fill 4416" fill-rule="evenodd" clip-rule="evenodd" d="M123.862 160.772C98.0642 161.632 105.682 147.047 101.034 129.868C113.512 131.074 134.431 133.004 149.633 129.874C148.074 133.359 147.685 137.951 146.42 141.799C143.158 157.044 140.69 161.776 123.862 160.772" fill="#FECDC7" blush:i="0.0.0"/><path id="Fill 4418" fill-rule="evenodd" clip-rule="evenodd" d="M142.445 131.072C131.579 131.522 118.289 132.611 108.56 130.456C119.337 128.68 132.435 128.168 142.445 131.072" fill="#5F4134" blush:i="0.0.1"/><path id="Fill 4420" fill-rule="evenodd" clip-rule="evenodd" d="M142.444 131.072C139.76 129.529 132.997 131.421 137.022 127.217C143.073 126.995 155.34 130.061 142.444 131.072" fill="#FDADA7" blush:i="0.0.2"/><path id="Fill 4422" fill-rule="evenodd" clip-rule="evenodd" d="M111.382 130.076C108.827 130.654 102.895 131.522 102.078 128.538C106.279 127.48 110.8 125.756 111.382 130.076" fill="#FDADA7" blush:i="0.0.3"/><path id="Fill 4424" fill-rule="evenodd" clip-rule="evenodd" d="M103.21 127.952C102.2 128.926 101.614 128.824 102.941 129.902C100.363 129.42 100.873 128.321 103.21 127.952" fill="#FDB7B2" blush:i="0.0.4"/><path id="Fill 4426" fill-rule="evenodd" clip-rule="evenodd" d="M148.556 130.175C148.701 129.756 149.235 129.567 148.694 129.257C145.229 127.416 152.175 129.814 148.556 130.175" fill="#FDB7B2" blush:i="0.0.5"/><path id="Fill 4428" fill-rule="evenodd" clip-rule="evenodd" d="M103.207 129.914C103.858 129.888 104.776 129.724 105.096 130.442C104.506 130.125 103.74 130.435 103.207 129.914" fill="#FDB7B2" blush:i="0.0.6"/><path id="Fill 4430" fill-rule="evenodd" clip-rule="evenodd" d="M106.528 130.708C106.862 130.351 107.325 130.388 107.7 130.8C107.309 130.77 106.919 130.738 106.528 130.708" fill="#FDB7B2" blush:i="0.0.7"/><path id="Fill 4432" fill-rule="evenodd" clip-rule="evenodd" d="M101.243 130.717C101.212 130.416 101.181 130.115 101.15 129.815C101.48 130.155 101.52 130.536 101.243 130.717" fill="#FED9D4" blush:i="0.0.8"/><path id="Fill 4434" fill-rule="evenodd" clip-rule="evenodd" d="M105.991 130.537C106.225 130.362 106.251 130.526 106.265 130.706C106.174 130.65 106.083 130.594 105.991 130.537" fill="#FDB7B2" blush:i="0.0.9"/><path id="Fill 4436" fill-rule="evenodd" clip-rule="evenodd" d="M105.363 130.45C105.545 130.504 105.454 130.476 105.363 130.45C105.507 130.293 105.596 130.323 105.363 130.45" fill="#FDB7B2" blush:i="0.0.10"/><path id="Fill 4438" fill-rule="evenodd" clip-rule="evenodd" d="M113.795 129.766C106.649 125.31 132.616 124.915 133.489 128.673C127.481 130.479 120.223 128.469 113.795 129.766" fill="#FECDC7" blush:i="0.0.11"/><path id="Fill 4440" fill-rule="evenodd" clip-rule="evenodd" d="M130.128 129.376C132.933 129.461 133.494 128.989 132.849 126.891C140.607 126.369 135.337 131.218 130.128 129.376" fill="#FDB7B2" blush:i="0.0.12"/><path id="Fill 4442" fill-rule="evenodd" clip-rule="evenodd" d="M111.649 127.032C113.113 128.18 114.262 130.451 111.382 130.075C109.991 128.069 108.863 128.064 111.649 127.032" fill="#FDB7B2" blush:i="0.0.13"/><path id="Fill 4444" fill-rule="evenodd" clip-rule="evenodd" d="M108.778 127.316C107.761 127.612 105.779 128.333 104.813 127.713C106.107 127.313 107.436 127.305 108.778 127.316" fill="#FDB7B2" blush:i="0.0.14"/><path id="Fill 4446" fill-rule="evenodd" clip-rule="evenodd" d="M147.392 128.576C147.271 128.689 147.165 128.841 147.023 128.894C145.971 128.062 146.186 128.267 147.392 128.576" fill="#FDB7B2" blush:i="0.0.15"/><path id="Fill 4448" fill-rule="evenodd" clip-rule="evenodd" d="M104.186 127.734C103.716 127.874 103.951 127.803 104.186 127.734C104.4 128.346 103.818 128.37 104.186 127.734" fill="#FDB7B2" blush:i="0.0.16"/><path id="Fill 4450" fill-rule="evenodd" clip-rule="evenodd" d="M144.157 127.933C143.668 127.876 142.98 128.237 142.715 127.707C143.195 127.783 143.677 127.858 144.157 127.933" fill="#FDB7B2" blush:i="0.0.17"/><path id="Fill 4452" fill-rule="evenodd" clip-rule="evenodd" d="M141.551 127.597C141.238 127.92 140.991 127.701 140.744 127.497C141.013 127.531 141.281 127.564 141.551 127.597" fill="#FDB7B2" blush:i="0.0.18"/><path id="Fill 4454" fill-rule="evenodd" clip-rule="evenodd" d="M140.118 127.43C139.871 127.702 139.673 127.575 139.485 127.354L140.118 127.43Z" fill="#FDB7B2" blush:i="0.0.19"/><path id="Fill 4456" fill-rule="evenodd" clip-rule="evenodd" d="M142.272 127.678C142.089 127.98 141.949 127.858 141.819 127.633C141.97 127.649 142.121 127.663 142.272 127.678" fill="#FDB7B2" blush:i="0.0.20"/><path id="Fill 4458" fill-rule="evenodd" clip-rule="evenodd" d="M140.471 127.494L140.292 127.447L140.471 127.494Z" fill="#FDB7B2" blush:i="0.0.21"/><path id="Fill 4460" fill-rule="evenodd" clip-rule="evenodd" d="M124.318 129.304C125.449 129.126 126.806 129.049 127.908 129.347C126.711 129.332 125.514 129.318 124.318 129.304" fill="#FDB7B2" blush:i="0.0.22"/><path id="Fill 4462" fill-rule="evenodd" clip-rule="evenodd" d="M128.079 129.351C128.351 129.098 129.167 129.087 129.432 129.368C128.98 129.362 128.529 129.356 128.079 129.351" fill="#FDB7B2" blush:i="0.0.23"/><path id="Fill 4464" fill-rule="evenodd" clip-rule="evenodd" d="M113.796 129.766C114.077 129.727 114.358 129.687 114.639 129.647C114.358 129.687 114.077 129.727 113.796 129.766" fill="#FDB7B2" blush:i="0.0.24"/><path id="Fill 4466" fill-rule="evenodd" clip-rule="evenodd" d="M129.605 129.374C129.726 129.369 129.848 129.365 129.969 129.36C129.848 129.365 129.726 129.369 129.605 129.374" fill="#FDB7B2" blush:i="0.0.25"/><path id="Fill 4468" fill-rule="evenodd" clip-rule="evenodd" d="M124.118 129.284C124.188 129.289 124.259 129.294 124.33 129.298C124.26 129.294 124.188 129.289 124.118 129.284" fill="#FDB7B2" blush:i="0.0.26"/><path id="Fill 4470" fill-rule="evenodd" clip-rule="evenodd" d="M131.386 127.841C131.568 128.004 131.675 127.761 131.842 127.661C131.64 127.158 131.551 127.662 131.386 127.841ZM131.243 128.379C131.052 128.868 129.875 127.955 130.846 129.17C132.024 129.236 132.389 127.103 131.243 128.379ZM123.617 126.807C122.621 127.132 124.194 130.381 124.193 128.616C123.977 128.202 124.119 126.738 123.617 126.807ZM132.256 121.932C132.067 122.456 132.009 124.251 132.914 124.182C134.637 123.34 133.972 121.995 132.256 121.932ZM139.6 111.939C138.646 113.156 136.777 116.651 139.579 115.106C141.695 114.103 139.961 113.269 139.6 111.939ZM129.348 123.328C127.939 127.305 131.286 126.82 131.433 122.15C130.212 118.871 130.825 125.291 129.348 123.328ZM125.468 114.786C123.7 113.33 124.593 118.589 124.415 118.811C125.038 122.238 126.874 116.513 125.468 114.786ZM126.178 123.766C126.646 125.494 125.3 129.099 128.334 127.029C129.155 125.243 126.653 122.85 126.178 123.766ZM135.548 126.506C135.06 128.722 134.503 121.528 132.97 127.887C134.89 130.388 138.364 127.549 135.548 126.506ZM131.056 99.6881C127.342 98.6901 133.337 107.593 133.53 102.264C132.889 101.224 131.169 101.479 131.056 99.6881ZM132.003 87.2111C129.468 86.7321 127.384 87.9011 127.421 90.5481C128.936 91.5141 132.573 89.3831 132.003 87.2111ZM143.223 111.735C143.016 111.905 143.624 109.274 142.207 110.929C139.799 112.912 141.397 117.986 143.386 114.45C145.688 114.411 145.559 109.961 143.223 111.735ZM139.464 119.618C138.771 120.128 138.34 121.016 138.878 119.634C138.529 118.919 136.701 119.439 135.787 119.561C135.523 119.224 135.486 117.957 134.951 118.62C133.177 126.613 136.875 120.125 137.623 123.268C138.308 122.597 140.246 120.27 139.464 119.618ZM135.661 84.1211C127.755 84.8471 138.389 93.8871 138.269 84.3031C138.142 83.1441 137.311 84.3941 135.661 84.1211ZM138.275 104.153C138.358 105.222 136.907 107.664 138.657 107.553C142.627 108.183 141.062 101.142 138.864 101.951C138.323 104.728 134.188 101.426 134.137 103.769C134.078 106.051 136.999 104.908 138.275 104.153ZM130.898 106.919C127.795 106.804 131.572 104.753 128.115 104.491C125.782 103.932 125.564 108.357 126.625 110.09C128.135 109.474 129.724 106.849 129.821 110.542C131.437 114.285 133.445 107.727 130.898 106.919ZM133.537 113.641C137.614 111.708 135.092 113.234 136.729 115.239C140.157 111.333 137.698 108.532 134.483 108.466C132.867 105.946 131.963 113.365 133.537 113.641ZM135.638 92.7521C134.281 94.3541 134.172 93.8411 132.56 92.0381C131.096 93.8701 124.959 94.9051 126.932 99.2611C130.375 100.969 129.927 94.5831 131.361 94.4941C131.343 96.8331 134.199 94.8141 133.203 97.1431C133.906 100.628 136.52 93.5171 135.638 92.7521ZM143.312 106.382C143.835 101.481 138.154 110.843 143.629 109.662C145.872 107.84 147.492 106.371 147.501 110.396C154.787 105.761 146.917 102.209 143.312 106.382ZM129.636 117.51C132.708 120.501 131.026 114.246 130.35 114.729C129.813 117.553 129.862 113.825 129.074 116.334C124.401 111.509 129.862 124.938 129.636 117.51ZM132.219 118.054C132.242 119.255 136.187 118.211 134.382 117.498C133.515 116.599 131.82 116.08 132.219 118.054ZM123.139 74.1281C123.536 70.7541 124.04 76.1821 125.682 73.7541C128.111 73.2701 125.397 68.5411 124.93 69.5651C123.956 69.9101 124.465 73.3231 124.18 69.9931C123.188 68.5711 123.156 70.7691 122.828 71.4281C119.014 63.1121 126.71 67.0441 124.432 62.2431C123.273 61.1611 124.232 63.9261 122.594 62.6761C122.094 55.7841 119.353 47.4221 124.468 58.0831C126.471 57.3201 128.28 60.3131 126.05 61.8781C127.621 66.1441 131.436 64.8911 134.056 68.1521C133.417 75.1971 131.372 66.4691 129.041 68.1801C126.699 71.2811 127.971 74.1211 132.153 71.7871C134.353 75.6201 133.908 78.7741 128.844 77.5081C126.739 82.0161 130.758 83.9351 132.931 79.9081C136.44 80.2751 135.357 81.7391 138.713 79.9041C143.992 72.9321 130.337 82.4251 137.703 73.8221C140.744 73.2681 139.92 75.2211 141.172 71.3541C140.671 76.3071 141.178 73.1661 142.719 75.1771C143.899 77.2991 137.61 77.7681 140.782 79.4861C147.253 79.4271 136.98 84.7491 137.929 89.4961C140.965 87.2961 141.237 93.7981 139.06 93.5121C136.25 91.8731 134.144 98.8911 136.93 98.8691C139.663 100.474 139.982 94.7121 140.898 98.5651C141.399 98.2241 142.618 99.1081 142.381 100.265C143.312 101.862 144.966 96.0061 144.061 96.9731C135.531 89.3761 150.468 94.0691 145.88 88.4991C141.919 87.9941 145.899 83.9631 148.164 83.9251C151.134 89.9821 143.356 90.7821 149.422 93.6001C150.237 100.829 145.507 93.1071 144.343 100.11C144.789 101.478 147.793 102.849 148.774 101.3C148.592 104.43 149.521 102.904 151.702 101.3C152.219 103.072 155.046 106.039 156.761 100.633C153.054 101.752 157.637 99.3071 154.423 99.3451C157.166 96.1691 158.451 97.4091 160.747 96.8331C161.556 95.7531 163.894 93.6901 161.249 93.6811C162.869 91.5221 168.494 84.3081 165.456 91.8871C155.297 102.811 169.006 97.3281 156.025 103.267C154.216 108.646 159.196 102.397 157.173 105.818C157.748 108.457 151.237 110.186 153.05 108.226C151.278 105.408 148.307 112.531 151.149 111.916C155.241 108.519 149.966 114.286 148.492 115.883C149.718 112.019 144.008 113.157 142.884 117.266C145.589 116.073 143.95 115.406 144.814 117.666C145.371 117.949 146.67 115.814 146.766 116.644C145.17 121.717 142.076 121.659 140.764 120.263C136.913 124.434 141.883 123.308 138.905 126.635C134.924 133.293 133.665 129.867 126.761 129.898C121.698 132.307 122.453 126.482 121.088 122.48C122.913 126.976 122.608 123.56 124.137 124.246C126.04 126.927 125.404 118.933 124.009 121.291C123.417 121.837 124.27 119.333 123.337 119.518C122.131 121.215 122.611 119.473 121.768 118.347C120.879 119.999 119.25 118.307 119.67 120.995C114.52 113.384 119.284 118.765 119.321 113.44C120.513 113.722 120.499 114.79 120.992 115.839C121.594 114.06 121.686 114.312 121.453 116.084C122.014 117.146 122.421 115.284 122.615 114.784C123.987 120.127 123.777 107.282 120.361 113.245C118.179 107.029 117.147 112.152 115.659 110.428C115.519 116.335 111.362 104.135 114.024 107.587C116.352 101.076 116.084 106.263 118.75 108.946C120.174 108.621 122.318 107.221 122.679 109.354C125.407 112.897 126.112 105.65 124.605 104.989C123.583 108.537 125.223 103.571 122.083 106.052C121.218 103.323 120.168 103.603 117.812 103.95C115.074 103.671 116.749 96.7971 119.609 99.1841C127.443 104.803 126.342 92.0471 123.04 96.9881C122.543 96.2551 121.773 96.1401 121.846 97.2041C121.598 95.6371 120.705 95.8381 120.548 97.1001C119.398 92.1961 119.389 95.2801 117.332 95.3901C117.338 90.7821 119.93 90.9921 122.181 91.7291C125.828 92.2181 128.248 89.2331 124.595 86.9131C123.37 89.0911 124.959 89.3381 122.961 87.6821C121.888 88.8911 122.264 91.3681 121.75 87.9541C117.832 89.7481 119.728 77.3571 121.49 82.2611C123.628 80.0701 122.955 82.2891 126.386 82.3901C127.471 81.3971 125.712 73.6821 124.864 79.6571C123.22 74.2111 120.862 83.7321 121.59 75.1481C121.857 70.3351 121.933 76.3291 123.139 74.1281Z" fill="#FC9B98" blush:i="0.0.27"/><path id="Fill 4472" fill-rule="evenodd" clip-rule="evenodd" d="M81.0478 81.0849C81.1058 81.1419 81.1518 81.1949 81.2018 81.1319C81.1938 81.0179 81.1488 81.0419 81.0478 81.0849M119.772 131.324C119.808 131.211 119.873 131.102 119.759 131.057C119.596 131.142 119.608 131.128 119.772 131.324M116.48 127.349C114.879 127.929 117.134 129.146 117.799 129.685C118.481 129.452 116.862 127.844 116.48 127.349M100.127 103.331C100.087 104.208 104.715 105.906 103.769 104.775C102.617 103.224 101.345 102.031 100.127 103.331M109.581 116.392C108.892 117.607 111.123 118.025 111.489 116.872C111.824 117.454 113.135 118.601 112.704 117.168C111.09 113.012 107.838 110.989 109.581 116.392M110.554 121.1C111.442 127.915 118.886 126.044 113.477 120.291C113.067 121.806 111.964 121.27 110.554 121.1M93.1128 99.5319C87.8598 97.8339 94.1958 103.475 96.2518 101.207C97.8308 98.9969 88.3018 95.8559 93.1128 99.5319M110.834 110.036C111.591 110.813 113.802 113.046 111.604 112.382C108.789 116.032 122.954 117.939 115.284 120.4C116.252 123.904 116.703 126.426 119.383 123.147C121.571 124.712 119.879 127.981 117.999 127.323C128.826 137.061 108.441 127.879 108.381 123.03C111.071 112.901 104.935 124.322 102.524 112.94C106.218 118.214 110.221 107.941 104.891 109.797C103.273 110.003 105.232 111.091 103.142 110.02C102.654 111.808 104.601 112.47 102.22 111.205C101.905 112.478 101.289 111.144 101.28 110.539C99.2298 109.081 101.406 107.627 103.294 106.985C105.139 106.354 99.6198 103.954 100.206 105.606C99.3968 103.359 82.0668 99.9769 87.8898 95.7029C85.8258 91.2209 83.0228 95.7969 80.7948 92.3919C77.6978 87.3919 86.2578 91.3279 82.0768 86.1849C79.0268 86.5489 80.8748 77.5859 81.9328 83.3619C84.6008 88.1529 85.5368 90.0739 87.6488 94.3419C94.3038 91.0659 90.7308 99.5899 96.5698 97.8129C94.9178 93.8859 95.9978 94.3559 99.5048 92.3929C103.414 93.0279 99.4278 96.3759 98.6128 97.3439C107.453 98.7229 103.508 105.147 110.834 110.036" fill="#FC9B98" blush:i="0.0.28"/><path id="Fill 4474" fill-rule="evenodd" clip-rule="evenodd" d="M105.975 83.1718C107.255 85.2548 109.435 87.5478 109.498 89.9778C108.859 89.7948 106.962 85.9498 107.88 89.6278C106.83 90.2898 107.272 91.6998 106.748 93.0898C106.136 92.4818 101.153 89.2198 101.927 84.8928C103.514 87.4468 103.687 84.1308 105.975 83.1718" fill="#FC9B98" blush:i="0.0.29"/><path id="Fill 4476" fill-rule="evenodd" clip-rule="evenodd" d="M91.8586 68.702C89.7676 65.247 86.3316 57.639 92.0266 63.92C98.4726 66.706 96.7136 76.764 91.8586 68.702" fill="#FC9B98" blush:i="0.0.30"/><path id="Fill 4478" fill-rule="evenodd" clip-rule="evenodd" d="M110.54 102.299C104.51 93.4728 112.825 99.0618 109.596 92.1498C114.024 96.1368 116.321 101.176 110.54 102.299" fill="#FC9B98" blush:i="0.0.31"/><path id="Fill 4480" fill-rule="evenodd" clip-rule="evenodd" d="M99.9363 73.2889C107.835 82.2649 96.9213 79.9019 100.605 81.7359C95.6603 82.7459 97.2463 74.1989 99.9363 73.2889" fill="#FC9B98" blush:i="0.0.32"/><path id="Fill 4482" fill-rule="evenodd" clip-rule="evenodd" d="M142.82 70.7577C141.665 70.2437 142.093 72.6697 141.579 71.6837C141.085 69.3707 140.16 73.1037 140.033 70.8637C136.761 71.1297 142.999 60.2427 142.82 70.7577" fill="#FC9B98" blush:i="0.0.33"/><path id="Fill 4484" fill-rule="evenodd" clip-rule="evenodd" d="M167.802 83.8779C166.464 85.3319 163.369 86.9779 163.825 83.3689C164.512 81.7189 168.988 80.5729 167.802 83.8779" fill="#FC9B98" blush:i="0.0.34"/><path id="Fill 4486" fill-rule="evenodd" clip-rule="evenodd" d="M99.4222 89.8162C97.6032 90.4242 96.5802 90.9402 95.0142 91.3442C94.3752 88.5402 98.9512 86.0172 99.4222 89.8162" fill="#FC9B98" blush:i="0.0.35"/><path id="Fill 4488" fill-rule="evenodd" clip-rule="evenodd" d="M148.645 81.997C146.77 83.481 145.572 79.8 147.45 77.319C149.366 77.348 147.951 81.462 148.645 81.997" fill="#FC9B98" blush:i="0.0.36"/><path id="Fill 4490" fill-rule="evenodd" clip-rule="evenodd" d="M133.009 64.6249C130.595 63.3229 135.453 59.8709 135.601 62.0339C134.622 64.3699 135.268 65.1199 133.009 64.6249" fill="#FC9B98" blush:i="0.0.37"/><path id="Fill 4492" fill-rule="evenodd" clip-rule="evenodd" d="M97.0844 85.5839C96.9224 86.1309 95.2384 87.2409 94.7884 86.9019C93.6774 83.2759 95.7624 81.2459 97.0844 85.5839" fill="#FC9B98" blush:i="0.0.38"/><path id="Fill 4494" fill-rule="evenodd" clip-rule="evenodd" d="M167.106 79.2099C165.536 80.9809 164.529 79.1079 164.918 77.0169C165.23 74.3859 166.847 78.2169 167.106 79.2099" fill="#FC9B98" blush:i="0.0.39"/><path id="Fill 4496" fill-rule="evenodd" clip-rule="evenodd" d="M99.5984 82.5289C100.252 82.1959 99.7734 83.2559 100.262 83.3749C99.8264 83.9399 99.4274 82.9659 99.5984 82.5289V82.5289Z" fill="#FC9B98" blush:i="0.0.40"/><path id="Fill 4498" fill-rule="evenodd" clip-rule="evenodd" d="M166.742 87.9326C166.788 87.8776 166.764 87.9056 166.742 87.9326C166.612 87.8326 166.689 87.8316 166.742 87.9326" fill="#FC9B98" blush:i="0.0.41"/><path id="Fill 4500" fill-rule="evenodd" clip-rule="evenodd" d="M149.235 97.9461L149.226 97.9491L149.235 97.9461Z" fill="#FC9B98" blush:i="0.0.42"/><path id="Fill 4502" fill-rule="evenodd" clip-rule="evenodd" d="M95.007 87.0673C94.96 87.1153 94.912 87.1643 94.864 87.2123C94.912 87.1643 94.959 87.1153 95.007 87.0673" fill="#FC9B98" blush:i="0.0.43"/><path id="Fill 4504" fill-rule="evenodd" clip-rule="evenodd" d="M123.18 97.4276C123.175 97.4086 123.168 97.3946 123.195 97.4056C123.195 97.4046 123.18 97.4276 123.18 97.4276" fill="#FC9B98" blush:i="0.0.44"/><path id="Fill 4506" fill-rule="evenodd" clip-rule="evenodd" d="M105.079 113.901C105.03 113.89 104.931 113.906 104.988 113.837C105.017 113.853 105.051 113.907 105.079 113.901" fill="#FC9B98" blush:i="0.0.45"/><path id="Fill 4508" fill-rule="evenodd" clip-rule="evenodd" d="M120.724 114.033C120.707 114.065 120.688 114.1 120.668 114.136C120.597 114.068 120.677 113.873 120.724 114.033" fill="#FC9B98" blush:i="0.0.46"/><path id="Fill 4510" fill-rule="evenodd" clip-rule="evenodd" d="M123.505 115.072C123.468 115.056 123.463 115.055 123.501 115.076L123.505 115.072Z" fill="#FC9B98" blush:i="0.0.47"/><path id="Fill 4512" fill-rule="evenodd" clip-rule="evenodd" d="M122.247 115.88C122.235 115.866 122.178 115.822 122.231 115.848C122.241 115.857 122.235 115.893 122.247 115.88" fill="#FC9B98" blush:i="0.0.48"/><path id="Fill 4514" fill-rule="evenodd" clip-rule="evenodd" d="M119.15 87.5702C119.044 87.7162 118.999 87.7572 118.92 87.6062C118.936 87.4632 119.027 87.5052 119.15 87.5702" fill="#FC9B98" blush:i="0.0.49"/><path id="Fill 4516" fill-rule="evenodd" clip-rule="evenodd" d="M109.726 91.5683C109.642 91.6923 109.616 91.6253 109.596 91.5113C109.645 91.4143 109.69 91.4773 109.726 91.5683" fill="#FC9B98" blush:i="0.0.50"/><path id="Fill 4518" fill-rule="evenodd" clip-rule="evenodd" d="M110.398 92.7617C110.446 92.7427 110.422 92.7527 110.398 92.7617C110.354 92.6557 110.411 92.7117 110.398 92.7617" fill="#FC9B98" blush:i="0.0.51"/><path id="Fill 4520" fill-rule="evenodd" clip-rule="evenodd" d="M103.243 83.8368C103.219 83.8838 103.184 83.8498 103.149 83.8378C103.174 83.7918 103.209 83.8248 103.243 83.8368" fill="#FC9B98" blush:i="0.0.52"/><path id="Fill 4522" fill-rule="evenodd" clip-rule="evenodd" d="M123.146 124.058C123.081 124.019 122.897 124.041 122.925 123.954C123 123.983 123.071 124.045 123.146 124.058" fill="#FC9B98" blush:i="0.0.53"/><path id="Fill 4524" fill-rule="evenodd" clip-rule="evenodd" d="M131.368 81.1376C131.336 81.1946 131.309 81.1856 131.275 81.1386C131.291 81.0916 131.335 81.1226 131.368 81.1376" fill="#FC9B98" blush:i="0.0.54"/><path id="Fill 4526" fill-rule="evenodd" clip-rule="evenodd" d="M123.094 73.2001C123.011 73.2201 122.936 73.3091 122.894 73.2021C122.979 73.1781 123.042 73.0681 123.094 73.2001" fill="#FC9B98" blush:i="0.0.55"/><path id="Fill 4528" fill-rule="evenodd" clip-rule="evenodd" d="M137.709 73.8163C137.696 73.8043 137.636 73.7723 137.689 73.7883C137.699 73.7953 137.697 73.8303 137.709 73.8163" fill="#FC9B98" blush:i="0.0.56"/><path id="Fill 4530" fill-rule="evenodd" clip-rule="evenodd" d="M132.4 71.7489C132.434 71.6539 132.472 71.5769 132.544 71.6959C132.497 71.7089 132.442 71.7589 132.4 71.7489" fill="#FC9B98" blush:i="0.0.57"/><path id="Fill 4532" fill-rule="evenodd" clip-rule="evenodd" d="M146.926 114.444C146.985 114.598 146.952 114.614 146.841 114.68C146.777 114.585 146.864 114.552 146.926 114.444" fill="#FC9B98" blush:i="0.0.58"/><path id="Fill 4534" fill-rule="evenodd" clip-rule="evenodd" d="M140.075 122.619C140.008 122.685 139.95 122.833 139.889 122.721C139.946 122.613 139.955 122.458 140.075 122.619" fill="#FC9B98" blush:i="0.0.59"/><path id="Fill 4536" fill-rule="evenodd" clip-rule="evenodd" d="M154.961 101.139C154.879 101.218 154.851 101.451 154.728 101.355C154.8 101.28 154.902 101.222 154.961 101.139" fill="#FC9B98" blush:i="0.0.60"/><path id="Fill 4538" fill-rule="evenodd" clip-rule="evenodd" d="M150.453 110.562C150.48 110.59 150.467 110.576 150.453 110.562C150.516 110.496 150.514 110.537 150.453 110.562" fill="#FC9B98" blush:i="0.0.61"/><path id="Fill 4540" fill-rule="evenodd" clip-rule="evenodd" d="M133.062 64.6777C133 64.8467 132.927 64.9447 132.814 64.7457C132.899 64.7127 132.992 64.5737 133.062 64.6777" fill="#FC9B98" blush:i="0.0.62"/><path id="Fill 4542" fill-rule="evenodd" clip-rule="evenodd" d="M145.765 91.827C145.636 91.798 145.52 91.764 145.657 91.64C145.71 91.702 145.874 91.758 145.765 91.827" fill="#FC9B98" blush:i="0.0.63"/><path id="Fill 4544" fill-rule="evenodd" clip-rule="evenodd" d="M145.817 91.7744C145.782 91.8094 145.799 91.7924 145.817 91.7744C145.888 91.8464 145.838 91.8424 145.817 91.7744" fill="#FC9B98" blush:i="0.0.64"/><path id="Fill 4546" fill-rule="evenodd" clip-rule="evenodd" d="M158.471 96.4696C158.478 96.4426 158.485 96.4206 158.517 96.4266C158.503 96.4426 158.48 96.4526 158.471 96.4696" fill="#FC9B98" blush:i="0.0.65"/><path id="Fill 4548" fill-rule="evenodd" clip-rule="evenodd" d="M162.065 93.9491C162.048 93.9811 162.048 93.9851 162.069 93.9531L162.065 93.9491Z" fill="#FC9B98" blush:i="0.0.66"/><path id="Fill 4550" fill-rule="evenodd" clip-rule="evenodd" d="M148.09 83.8505C148.161 83.6165 148.261 83.3465 148.403 83.6705C148.329 83.7545 148.186 84.0075 148.09 83.8505" fill="#FC9B98" blush:i="0.0.67"/><path id="Fill 4552" fill-rule="evenodd" clip-rule="evenodd" d="M148.597 83.0097C148.473 83.0757 148.423 83.1147 148.37 82.9697C148.477 82.9107 148.516 82.8657 148.597 83.0097" fill="#FC9B98" blush:i="0.0.68"/><path id="Fill 4554" fill-rule="evenodd" clip-rule="evenodd" d="M93.0276 70.581C93.0886 70.642 93.1486 70.703 93.2106 70.764C93.1486 70.703 93.0886 70.642 93.0276 70.581" fill="#FC9B98" blush:i="0.0.69"/><path id="Fill 4556" fill-rule="evenodd" clip-rule="evenodd" d="M116.41 105.003C118.786 112.361 120.923 105.8 122.68 109.354C126.741 114.567 125.158 99.9958 124.204 106.729C124.173 103.851 123.146 106.2 121.888 105.959C121.864 102.888 116.766 103.126 116.41 105.003" fill="#FFBCBB" blush:i="0.0.70"/><path id="Fill 4558" fill-rule="evenodd" clip-rule="evenodd" d="M117.471 98.9911C118.035 98.7061 120.177 99.1331 120.982 99.8781C125.981 104.476 126.767 92.0081 123.112 97.1991C122.816 96.3551 121.736 95.9962 121.845 97.2041C121.226 94.7722 119.877 98.5041 119.868 94.3311C118.831 93.3061 115.05 98.6701 117.471 98.9911" fill="#FFBCBB" blush:i="0.0.71"/><path id="Fill 4560" fill-rule="evenodd" clip-rule="evenodd" d="M104.964 114.599C109.683 113.192 106.426 106.189 104.323 110.862C104.033 110.414 103.025 109.362 102.998 110.525C103.577 112.633 103.768 111.781 102.22 111.205C101.768 112.464 101.729 111.308 101.221 110.859C97.6706 107.165 108.003 107.194 100.842 105.008C99.4726 104.214 100.844 107.138 99.6346 105.056C96.9006 104.585 103.172 116.264 103.323 114.462C101.786 110.306 103.724 115.205 104.964 114.599" fill="#FFBCBB" blush:i="0.0.72"/><path id="Fill 4562" fill-rule="evenodd" clip-rule="evenodd" d="M120.668 114.136C120.608 114.074 120.648 114.018 120.68 113.954C120.733 114.011 120.715 114.071 120.668 114.136M123.49 113.579C122.919 110.578 122.979 113.01 121.612 112.102C120.397 111.07 120.614 114.284 120.006 113.105C119.299 107.592 112.581 110.626 116.711 115.647C121.029 118.393 117.49 113.166 119.951 113.666C121.028 114.242 120.69 117.428 121.441 114.441C122.059 114.225 120.791 117.82 122.247 115.881C123.083 112.949 122.092 117.67 123.352 116.208C123.45 115.294 123.778 114.496 123.49 113.579" fill="#FFBCBB" blush:i="0.0.73"/><path id="Fill 4564" fill-rule="evenodd" clip-rule="evenodd" d="M118.98 87.5057C119.155 87.5087 119.134 87.6377 119.02 87.7237C118.942 87.6657 118.871 87.5627 118.98 87.5057M118.552 91.9167C119.533 90.3727 123.39 92.6927 122.853 91.1617C123.044 90.2517 123.51 91.7447 123.881 91.9677C128.862 92.0197 124.376 82.7347 123.983 89.2667C123.688 86.8667 122.09 87.7427 122.269 89.7317C121.872 90.6787 121.523 84.8087 120.636 88.6227C120.49 86.6597 118.5 87.6717 119.287 85.3237C119.034 87.2517 117.227 90.4837 118.552 91.9167" fill="#FFBCBB" blush:i="0.0.74"/><path id="Fill 4566" fill-rule="evenodd" clip-rule="evenodd" d="M110.379 92.6923C110.377 92.6913 110.376 92.6903 110.374 92.6903C110.376 92.7003 110.383 92.7063 110.379 92.6923" fill="#FFBCBB" blush:i="0.0.75"/><path id="Fill 4568" fill-rule="evenodd" clip-rule="evenodd" d="M109.663 91.4482C109.722 91.5232 109.734 91.5972 109.644 91.6552C109.613 91.5722 109.557 91.5002 109.663 91.4482M105.559 92.1172C105.63 97.2662 111.462 98.3572 110.182 93.7572C109.401 92.5622 108.988 93.5222 109.694 91.8902C110.568 92.2422 110.683 95.0792 112.019 93.8662C105.469 82.0962 109.339 93.4762 105.559 92.1172" fill="#FFBCBB" blush:i="0.0.76"/><path id="Fill 4570" fill-rule="evenodd" clip-rule="evenodd" d="M103.73 85.7695C103.728 85.7715 103.721 85.7715 103.724 85.7755L103.73 85.7695Z" fill="#FFBCBB" blush:i="0.0.77"/><path id="Fill 4572" fill-rule="evenodd" clip-rule="evenodd" d="M99.8312 80.6943C98.8422 79.5693 101.779 90.2313 102.19 84.9883C105.789 87.6953 108.086 75.6633 99.8312 80.6943" fill="#FFBCBB" blush:i="0.0.78"/><path id="Fill 4574" fill-rule="evenodd" clip-rule="evenodd" d="M93.5157 72.0341C96.5267 82.8151 102.33 73.0861 97.0717 69.7791C95.0827 73.8871 92.8217 70.3261 93.5157 72.0341" fill="#FFBCBB" blush:i="0.0.79"/><path id="Fill 4576" fill-rule="evenodd" clip-rule="evenodd" d="M122.912 123.994C122.934 123.908 123.045 124.034 123.108 124.048C123.043 124.03 122.977 124.013 122.912 123.994M124.833 121.004C123.147 121.865 124.223 118.111 122.652 120.504C121.782 116.777 118.224 120.015 120.069 122.768C122.599 127.29 121.331 124.867 121.266 122.684C122.278 126.235 126.933 124.939 124.833 121.004" fill="#FFBCBB" blush:i="0.0.80"/><path id="Fill 4578" fill-rule="evenodd" clip-rule="evenodd" d="M112.184 102.1C108.916 100.577 112.493 108.646 114.471 107.399C113.741 105.633 116.063 106.358 114.925 104.895C114.612 103.674 116.723 105.114 116.35 104.522C114.511 101.4 115.103 98.1644 112.184 102.1" fill="#FFBCBB" blush:i="0.0.81"/><path id="Fill 4580" fill-rule="evenodd" clip-rule="evenodd" d="M120.695 80.8105C121.098 79.5735 121.291 84.9185 122.71 80.6435C123.5 82.6185 125.794 82.0175 126.637 82.3325C126.267 81.1255 127.377 75.9175 125.072 77.9265C125.14 82.3215 123.296 72.9185 121.857 80.0145C121.318 79.9865 121.343 77.4915 122.051 77.2945C121.167 76.4285 119.886 81.4745 120.695 80.8105" fill="#FFBCBB" blush:i="0.0.82"/><path id="Fill 4582" fill-rule="evenodd" clip-rule="evenodd" d="M128.363 81.6603C132.448 83.3933 135.667 78.3803 133.149 74.3383C134.799 81.3993 127.092 73.5523 128.363 81.6603" fill="#FFBCBB" blush:i="0.0.83"/><path id="Fill 4584" fill-rule="evenodd" clip-rule="evenodd" d="M123.049 73.1288C123.141 73.2048 123.011 73.2368 122.934 73.2598C122.844 73.1908 122.984 73.1628 123.049 73.1288M121.373 69.8628C120.686 71.1948 121.502 77.0518 121.81 73.3778C122.12 73.5088 123.038 75.9878 123.257 73.2458C124.254 71.7858 123.232 76.1458 126.627 73.4208C126.617 69.2798 124.812 68.4428 124.188 71.1958C124.394 68.7068 122.984 69.5658 122.828 71.4278C122.631 70.0248 122.074 68.1618 121.373 69.8628" fill="#FFBCBB" blush:i="0.0.84"/><path id="Fill 4586" fill-rule="evenodd" clip-rule="evenodd" d="M137.709 73.816C140.912 73.177 139.768 75.524 141.171 71.354C141.497 72.405 140.077 75.796 142.251 74.185C145.06 76.597 136.973 78.796 141.015 79.174C144.307 80.551 143.469 69.482 141.918 71.438C141.792 72.97 141.444 70.305 140.777 70.889C140.06 72.325 140.383 71.663 140.031 70.864C138.743 69.592 135.869 75.431 137.709 73.816" fill="#FFBCBB" blush:i="0.0.85"/><path id="Fill 4588" fill-rule="evenodd" clip-rule="evenodd" d="M149.026 97.3095C146.207 96.0445 145.081 96.6675 144.312 100.528C147.003 102.919 150.163 102.48 149.026 97.3095" fill="#FFBCBB" blush:i="0.0.86"/><path id="Fill 4590" fill-rule="evenodd" clip-rule="evenodd" d="M139.809 95.7645C140.338 88.8225 132.193 98.1095 136.93 98.8685C139.758 99.7195 139.416 97.8115 139.809 95.7645" fill="#FFBCBB" blush:i="0.0.87"/><path id="Fill 4592" fill-rule="evenodd" clip-rule="evenodd" d="M128.741 68.9129C127.099 68.5719 128.319 72.1209 128.513 73.7129C129.442 71.9069 132.469 70.5959 133.127 73.9089C133.161 71.9719 134.722 70.2139 132.77 70.6959C131.104 70.0659 130.377 65.9699 128.741 68.9129" fill="#FFBCBB" blush:i="0.0.88"/><path id="Fill 4594" fill-rule="evenodd" clip-rule="evenodd" d="M146.842 114.681C146.777 114.585 146.864 114.553 146.926 114.445C146.986 114.599 146.952 114.614 146.842 114.681M147.591 114.096C147.696 111.938 142.389 115.481 143.259 117.271C144.034 116.656 145.655 114.797 144.461 116.858C144.586 119.632 147.663 113.879 146.467 118.047C147.354 118.423 150.567 112.686 147.591 114.096" fill="#FFBCBB" blush:i="0.0.89"/><path id="Fill 4596" fill-rule="evenodd" clip-rule="evenodd" d="M143.799 98.7919C145.578 95.8179 140.67 92.7909 139.948 96.9799C141.442 97.2669 142.704 103.084 143.799 98.7919" fill="#FFBCBB" blush:i="0.0.90"/><path id="Fill 4598" fill-rule="evenodd" clip-rule="evenodd" d="M87.6885 95.408C85.3055 93.976 86.9805 91.655 82.7575 94.215C80.0595 92.357 86.1665 100.711 87.6885 95.408" fill="#FFBCBB" blush:i="0.0.91"/><path id="Fill 4600" fill-rule="evenodd" clip-rule="evenodd" d="M82.7847 95.1201C82.7827 95.1191 82.7817 95.1151 82.7797 95.1151L82.7847 95.1201Z" fill="#FFBCBB" blush:i="0.0.92"/><path id="Fill 4602" fill-rule="evenodd" clip-rule="evenodd" d="M154.728 101.354C154.907 101.189 155.001 101.109 154.795 101.394C154.795 101.396 154.751 101.369 154.728 101.354M156.759 100.631C153.327 101.429 157.077 100.315 155.047 99.3253C154.234 99.2283 150.33 101.568 152.18 102.038C155.192 100.543 150.304 104.01 152.923 103.803C154.377 103.155 156.073 104.103 156.759 100.631" fill="#FFBCBB" blush:i="0.0.93"/><path id="Fill 4604" fill-rule="evenodd" clip-rule="evenodd" d="M135.36 77.9266C132.743 81.9316 138.162 81.1616 139.446 79.1596C140.629 77.7186 138.426 75.5466 138.221 77.8706C137.438 78.1506 135.889 76.5226 135.36 77.9266" fill="#FFBCBB" blush:i="0.0.94"/><path id="Fill 4606" fill-rule="evenodd" clip-rule="evenodd" d="M99.5039 92.3934C101.849 89.6364 96.8449 90.0114 96.0549 91.0004C93.2219 94.0324 96.6669 95.0554 99.5039 92.3934" fill="#FFBCBB" blush:i="0.0.95"/><path id="Fill 4608" fill-rule="evenodd" clip-rule="evenodd" d="M118.972 122.171C116.42 115.034 113.667 124.565 117.928 124.926C117.433 123.417 120.602 123.499 118.972 122.171" fill="#FFBCBB" blush:i="0.0.96"/><path id="Fill 4610" fill-rule="evenodd" clip-rule="evenodd" d="M167.116 84.245C162.525 88.269 164.377 81.204 163.676 90.491C165.546 90.392 169.229 84.128 167.116 84.245" fill="#FFBCBB" blush:i="0.0.97"/><path id="Fill 4612" fill-rule="evenodd" clip-rule="evenodd" d="M140.524 88.9891C140.05 86.6991 143.046 83.5451 139.615 84.2181C137.653 85.3791 137.106 91.1921 140.524 88.9891" fill="#FFBCBB" blush:i="0.0.98"/><path id="Fill 4614" fill-rule="evenodd" clip-rule="evenodd" d="M153.423 108.719C151.44 110.49 153.741 108.199 152.71 107.465C151.683 107.531 148.435 109.892 150.453 110.563C148.898 114.165 157.387 109.058 153.423 108.719" fill="#FFBCBB" blush:i="0.0.99"/><path id="Fill 4616" fill-rule="evenodd" clip-rule="evenodd" d="M159.417 102.082C158.024 98.901 153.517 106.207 156.614 105.383C158.533 103.843 157.028 105.094 157.31 106.267C157.878 104.652 161.732 102.652 159.417 102.082" fill="#FFBCBB" blush:i="0.0.100"/><path id="Fill 4618" fill-rule="evenodd" clip-rule="evenodd" d="M131.512 65.9598C134.709 71.1118 136.352 63.6078 133.99 65.1348C134.177 62.7648 128.125 64.5208 131.512 65.9598" fill="#FFBCBB" blush:i="0.0.101"/><path id="Fill 4620" fill-rule="evenodd" clip-rule="evenodd" d="M108.651 117.891C106.291 116.866 107.556 121.16 104.668 118.11C106.929 123.256 110.343 124.318 108.651 117.891" fill="#FFBCBB" blush:i="0.0.102"/><path id="Fill 4622" fill-rule="evenodd" clip-rule="evenodd" d="M100.905 98.7578C104.747 99.8988 103.051 95.7908 101.392 94.7638C99.9518 96.4448 96.9988 96.6978 100.905 98.7578" fill="#FFBCBB" blush:i="0.0.103"/><path id="Fill 4624" fill-rule="evenodd" clip-rule="evenodd" d="M112.607 115.48C117.188 119.408 114.774 112.681 111.829 111.019C114.095 113.842 108.713 110.72 112.607 115.48" fill="#FFBCBB" blush:i="0.0.104"/><path id="Fill 4626" fill-rule="evenodd" clip-rule="evenodd" d="M145.656 91.6406C145.74 91.7106 145.968 91.8756 145.764 91.8276C145.635 91.7976 145.519 91.7636 145.656 91.6406M143.573 91.2866C145.841 93.8366 146.619 91.0676 146.645 88.6036C144.63 87.4966 142.093 88.9826 143.573 91.2866" fill="#FFBCBB" blush:i="0.0.105"/><path id="Fill 4628" fill-rule="evenodd" clip-rule="evenodd" d="M81.8242 89.3807C84.3862 89.5267 82.4642 85.2327 81.1792 85.7797C78.8022 83.4137 80.5452 92.4877 81.8242 89.3807" fill="#FFBCBB" blush:i="0.0.106"/><path id="Fill 4630" fill-rule="evenodd" clip-rule="evenodd" d="M164.845 92.9637C164.086 94.9397 160.012 96.8537 161.04 98.6157C163.219 101.596 166.194 89.8567 164.845 92.9637" fill="#FFBCBB" blush:i="0.0.107"/><path id="Fill 4632" fill-rule="evenodd" clip-rule="evenodd" d="M88.6316 91.8251C86.1796 88.3011 84.7696 92.6611 87.6506 94.3401C89.0376 94.9351 90.6116 92.6721 88.6316 91.8251" fill="#FFBCBB" blush:i="0.0.108"/><path id="Fill 4634" fill-rule="evenodd" clip-rule="evenodd" d="M96.0612 96.536C96.2652 95.935 92.0072 93.572 93.1142 95.401C89.1132 97.392 99.0152 99.616 96.0612 96.536" fill="#FFBCBB" blush:i="0.0.109"/><path id="Fill 4636" fill-rule="evenodd" clip-rule="evenodd" d="M120.648 125.878C119.467 126.846 118.881 127.49 118.001 127.6C119.621 131.758 123.513 129.679 120.648 125.878" fill="#FFBCBB" blush:i="0.0.110"/><path id="Fill 4638" fill-rule="evenodd" clip-rule="evenodd" d="M158.573 97.3936C159.959 96.9156 160.546 97.2626 161.552 95.8826C165.052 91.3096 156.485 95.4446 158.573 97.3936" fill="#FFBCBB" blush:i="0.0.111"/><path id="Fill 4640" fill-rule="evenodd" clip-rule="evenodd" d="M165.382 82.0058C168.065 83.9998 167.846 77.5268 166.436 79.9588C166.282 80.2688 164.902 79.7538 165.034 79.1038C164.296 79.1518 163.352 83.7138 165.382 82.0058" fill="#FFBCBB" blush:i="0.0.112"/><path id="Fill 4642" fill-rule="evenodd" clip-rule="evenodd" d="M148.912 88.0956C148.378 91.6176 148.907 88.7566 147.702 88.4696C146.069 97.1296 150.978 91.6796 148.912 88.0956" fill="#FFBCBB" blush:i="0.0.113"/><path id="Fill 4644" fill-rule="evenodd" clip-rule="evenodd" d="M148.508 82.9071C148.623 82.9541 148.557 83.0801 148.44 83.0741C148.341 83.0151 148.394 82.9181 148.508 82.9071M146.342 84.2191C148.925 85.0351 148.313 82.6061 148.888 87.3341C150.829 83.5231 144.119 78.7611 146.342 84.2191" fill="#FFBCBB" blush:i="0.0.114"/><path id="Fill 4646" fill-rule="evenodd" clip-rule="evenodd" d="M97.638 86.0428C95.282 84.1368 93.405 92.6698 96.299 88.1078C98.028 88.3208 98.934 87.6218 97.638 86.0428" fill="#FFBCBB" blush:i="0.0.115"/><path id="Fill 4648" fill-rule="evenodd" clip-rule="evenodd" d="M122.143 66.5273C123.451 66.8063 122.249 64.0673 123.064 64.4253C126.971 67.6193 123.074 56.5103 122.143 66.5273" fill="#FFBCBB" blush:i="0.0.116"/><path id="Fill 4650" fill-rule="evenodd" clip-rule="evenodd" d="M126.899 64.534C127.558 64.126 128.791 63.833 129.183 64.649C128.163 60.071 124.859 59.903 126.899 64.534" fill="#FFBCBB" blush:i="0.0.117"/><path id="Fill 4652" fill-rule="evenodd" clip-rule="evenodd" d="M121.524 57.1082C122.086 58.5322 122.282 61.3592 123.138 58.7172C123.216 57.7822 122.101 55.5552 121.524 57.1082" fill="#FFBCBB" blush:i="0.0.118"/><path id="Fill 4654" fill-rule="evenodd" clip-rule="evenodd" d="M105.268 102.429C103.893 102.408 105.709 104.116 105.925 104.752C107.807 107.392 105.911 101.18 105.268 102.429" fill="#FFBCBB" blush:i="0.0.119"/><path id="Fill 4656" fill-rule="evenodd" clip-rule="evenodd" d="M124.302 57.8173C124.489 59.3033 125.813 57.6903 125.126 57.0193C124.578 55.5783 123.75 57.2993 124.302 57.8173" fill="#FFBCBB" blush:i="0.0.120"/><path id="Fill 4658" fill-rule="evenodd" clip-rule="evenodd" d="M111.981 126.354C111.123 126.608 113.454 128.573 111.091 126.852C112.478 129.01 114.091 128.309 111.981 126.354" fill="#FFBCBB" blush:i="0.0.121"/><path id="Fill 4660" fill-rule="evenodd" clip-rule="evenodd" d="M83.3556 87.2205C83.2566 87.4375 83.5646 87.9935 83.7586 88.0225C85.9556 88.6905 82.4586 84.0175 83.3556 87.2205" fill="#FFBCBB" blush:i="0.0.122"/><path id="Fill 4662" fill-rule="evenodd" clip-rule="evenodd" d="M135.433 61.3358C135.975 62.1068 134.663 63.6308 135.089 64.1158C136.401 62.9978 135.314 58.6158 135.433 61.3358" fill="#FFBCBB" blush:i="0.0.123"/><path id="Fill 4664" fill-rule="evenodd" clip-rule="evenodd" d="M150.662 112.713C150.1 113.138 149.972 113.692 150.032 114.366C150.445 113.772 152.027 112.865 150.662 112.713" fill="#FFBCBB" blush:i="0.0.124"/><path id="Fill 4666" fill-rule="evenodd" clip-rule="evenodd" d="M93.2094 70.7625C92.8464 70.4135 92.8574 69.0545 91.8584 68.7015C92.1734 69.2815 93.3614 72.1715 93.2094 70.7625" fill="#FFBCBB" blush:i="0.0.125"/><path id="Fill 4668" fill-rule="evenodd" clip-rule="evenodd" d="M129.024 130.457C128.286 130.4 127.858 130.029 127.367 129.846C125.211 129.475 129.148 131.115 129.024 130.457" fill="#FFBCBB" blush:i="0.0.126"/><path id="Fill 4670" fill-rule="evenodd" clip-rule="evenodd" d="M126.821 129.812C126.823 129.81 126.825 129.808 126.827 129.807L126.821 129.812Z" fill="#FFBCBB" blush:i="0.0.127"/><path id="Fill 4672" fill-rule="evenodd" clip-rule="evenodd" d="M141.749 65.9959C141.91 65.8729 141.875 64.3159 141.424 64.8939C140.863 65.9049 141.025 65.4859 141.749 65.9959" fill="#FFBCBB" blush:i="0.0.128"/><path id="Fill 4674" fill-rule="evenodd" clip-rule="evenodd" d="M130.523 129.926C130.403 130.504 129.809 130.347 129.35 130.613C129.901 130.714 131.855 129.798 130.523 129.926" fill="#FFBCBB" blush:i="0.0.129"/><path id="Fill 4676" fill-rule="evenodd" clip-rule="evenodd" d="M148.647 80.3719C148.646 80.9759 148.647 80.6739 148.647 80.3719C148.109 80.6469 148.205 80.9529 148.647 80.3719" fill="#FFBCBB" blush:i="0.0.130"/><path id="Fill 4678" fill-rule="evenodd" clip-rule="evenodd" d="M140.819 66.0887C140.615 66.5017 140.411 66.9137 140.207 67.3267C140.632 67.1077 140.983 66.5987 140.819 66.0887" fill="#FFBCBB" blush:i="0.0.131"/><path id="Fill 4680" fill-rule="evenodd" clip-rule="evenodd" d="M110.903 110.175C111.21 110.456 111.517 110.737 111.825 111.018C111.665 110.576 111.336 110.319 110.903 110.175" fill="#FFBCBB" blush:i="0.0.132"/><path id="Fill 4682" fill-rule="evenodd" clip-rule="evenodd" d="M99.4926 82.9853C99.6956 82.5723 99.3856 82.3253 99.0946 82.0723C99.2266 82.3763 99.3596 82.6803 99.4926 82.9853" fill="#FFBCBB" blush:i="0.0.133"/><path id="Fill 4684" fill-rule="evenodd" clip-rule="evenodd" d="M148.645 81.997L148.633 81.555C148.291 81.711 148.302 81.858 148.645 81.997" fill="#FFBCBB" blush:i="0.0.134"/><path id="Fill 4686" fill-rule="evenodd" clip-rule="evenodd" d="M98.5478 87.7451C98.6998 87.9911 98.6238 87.8681 98.5478 87.7451C98.4168 88.0571 98.3638 88.2981 98.5478 87.7451" fill="#FFBCBB" blush:i="0.0.135"/><path id="Fill 4688" fill-rule="evenodd" clip-rule="evenodd" d="M133.857 70.2372C133.913 70.0852 133.968 69.9312 134.025 69.7792C133.707 69.8362 133.656 69.9902 133.857 70.2372" fill="#FFBCBB" blush:i="0.0.136"/><path id="Fill 4690" fill-rule="evenodd" clip-rule="evenodd" d="M166.742 87.9326C166.666 88.1096 166.704 88.0216 166.742 87.9326C166.597 87.7356 166.653 88.0766 166.742 87.9326" fill="#FFBCBB" blush:i="0.0.137"/><path id="Fill 4692" fill-rule="evenodd" clip-rule="evenodd" d="M99.7392 83.3476C99.6502 83.2206 99.6952 83.2846 99.7392 83.3476C99.8302 83.1386 99.8622 82.9926 99.7392 83.3476" fill="#FFBCBB" blush:i="0.0.138"/><path id="Fill 4694" fill-rule="evenodd" clip-rule="evenodd" d="M121.41 56.412L121.477 56.717C121.658 56.513 121.647 56.466 121.41 56.412" fill="#FFBCBB" blush:i="0.0.139"/><path id="Fill 4696" fill-rule="evenodd" clip-rule="evenodd" d="M134.734 61.2392C134.711 61.1682 134.683 61.1752 134.654 61.2392C134.675 61.2562 134.712 61.2562 134.734 61.2392" fill="#FFBCBB" blush:i="0.0.140"/><path id="Fill 4698" fill-rule="evenodd" clip-rule="evenodd" d="M82.7849 95.1201C82.7739 95.1081 82.7699 95.1411 82.7619 95.1491L82.7849 95.1201Z" fill="#FFBCBB" blush:i="0.0.141"/><path id="Fill 4700" fill-rule="evenodd" clip-rule="evenodd" d="M148.623 115.873C148.587 115.847 148.605 115.859 148.623 115.873C148.682 115.782 148.645 115.788 148.623 115.873" fill="#FFBCBB" blush:i="0.0.142"/><path id="Fill 4702" fill-rule="evenodd" clip-rule="evenodd" d="M148.492 115.883L148.498 115.898C148.496 115.897 148.495 115.866 148.492 115.883" fill="#FFBCBB" blush:i="0.0.143"/><path id="Fill 4704" fill-rule="evenodd" clip-rule="evenodd" d="M146.214 81.4033C146.183 81.3843 146.152 81.3593 146.121 81.3913C146.122 81.4573 146.175 81.4113 146.214 81.4033" fill="#FFBCBB" blush:i="0.0.144"/><path id="Fill 4706" fill-rule="evenodd" clip-rule="evenodd" d="M140.2 67.331C140.213 67.4 140.206 67.365 140.2 67.331C140.15 67.393 140.102 67.454 140.2 67.331" fill="#FFBCBB" blush:i="0.0.145"/><path id="Fill 4708" fill-rule="evenodd" clip-rule="evenodd" d="M150.042 107.97C150.66 107.79 151.485 105.775 150.261 106.191C149.522 105.984 149.394 103.616 147.604 103.978C145.078 107.535 141.35 102.081 141.44 108.111C140.952 111.948 146.89 106.953 147.712 107.864C145.714 110.859 149.304 110.038 150.042 107.97" fill="#FFBCBB" blush:i="0.0.146"/><path id="Fill 4710" fill-rule="evenodd" clip-rule="evenodd" d="M131.441 93.9189C131.503 93.9909 131.494 94.0599 131.416 94.1149C131.295 94.0409 131.382 93.9949 131.441 93.9189M132.433 92.1049C132.527 92.2689 132.46 92.3149 132.356 92.5009C132.288 92.2889 132.328 92.2489 132.433 92.1049M126.87 95.4599C126.301 106.122 130.994 92.8349 132.188 95.6829C131.915 96.4319 133.143 96.2719 133.195 95.6899C132.472 102.357 137.503 93.0619 135.194 92.8959C134.717 95.4549 133.389 92.4559 132.048 91.6619C130.745 95.6819 128.907 93.7529 126.87 95.4599" fill="#FFBCBB" blush:i="0.0.147"/><path id="Fill 4712" fill-rule="evenodd" clip-rule="evenodd" d="M136.729 115.239C142.62 109.975 131.035 103.99 132.921 112.752C134.877 115.035 135.748 110.339 136.729 115.239" fill="#FFBCBB" blush:i="0.0.148"/><path id="Fill 4714" fill-rule="evenodd" clip-rule="evenodd" d="M131.51 107.451C130.653 107.905 131.041 105.586 130.072 106.91C128.953 107.903 130.343 104.259 129.254 104.621C127.267 104.84 125.767 103.682 126.123 107.564C125.97 112.289 127.965 108.316 129.52 108.708C129.406 114.75 133.93 109.591 131.51 107.451" fill="#FFBCBB" blush:i="0.0.149"/><path id="Fill 4716" fill-rule="evenodd" clip-rule="evenodd" d="M141.703 104.166C139.265 103.68 140.346 99.8079 138.045 103.002C136.021 103.081 132.863 102.187 134.556 105.026C135.798 105.404 137.705 104.054 138.222 104.669C136.641 109.251 141.283 107.897 141.703 104.166" fill="#FFBCBB" blush:i="0.0.150"/><path id="Fill 4718" fill-rule="evenodd" clip-rule="evenodd" d="M136.726 84.288C127.205 82.633 137.817 95.242 138.267 84.302C137.897 82.217 136.397 86.186 136.726 84.288" fill="#FFBCBB" blush:i="0.0.151"/><path id="Fill 4720" fill-rule="evenodd" clip-rule="evenodd" d="M137.251 122.15C137.115 125.864 141.696 117.264 138.599 120.335C139.795 118.008 136.053 120.281 135.583 119.134C134.73 117.057 132.555 125.546 137.251 122.15" fill="#FFBCBB" blush:i="0.0.152"/><path id="Fill 4722" fill-rule="evenodd" clip-rule="evenodd" d="M143.332 110.793C135.436 115.082 147.724 117.47 144.308 111.211C143.167 110.82 143.006 112.877 143.332 110.793" fill="#FFBCBB" blush:i="0.0.153"/><path id="Fill 4724" fill-rule="evenodd" clip-rule="evenodd" d="M128.796 115.874C125.278 112.691 128.53 124.354 129.888 117.395C132.585 120.992 130.731 111.122 129.983 116.082C129.453 114.159 129.416 116.888 128.796 115.874" fill="#FFBCBB" blush:i="0.0.154"/><path id="Fill 4726" fill-rule="evenodd" clip-rule="evenodd" d="M127.78 88.1327C126.064 92.8017 132.038 90.4067 132.118 87.4627C130.872 86.0367 128.672 88.1937 127.78 88.1327" fill="#FFBCBB" blush:i="0.0.155"/><path id="Fill 4728" fill-rule="evenodd" clip-rule="evenodd" d="M132.736 103.693C134.983 104.006 131.594 100.88 130.68 99.1383C128.518 101.241 130.944 103.389 132.736 103.693" fill="#FFBCBB" blush:i="0.0.156"/><path id="Fill 4730" fill-rule="evenodd" clip-rule="evenodd" d="M136.402 126.897C134.443 126.758 135.287 124.619 133.459 125.818C131.515 129.164 137.589 130.212 136.402 126.897" fill="#FFBCBB" blush:i="0.0.157"/><path id="Fill 4732" fill-rule="evenodd" clip-rule="evenodd" d="M126.603 127.717C129.102 128.642 128.338 122.923 127.255 124.214C125.864 122.283 126.011 126.076 126.603 127.717" fill="#FFBCBB" blush:i="0.0.158"/><path id="Fill 4734" fill-rule="evenodd" clip-rule="evenodd" d="M126.257 117.876C125.11 111.875 124.031 116.242 124.377 118.816C124.603 121.672 125.765 118.519 126.257 117.876" fill="#FFBCBB" blush:i="0.0.159"/><path id="Fill 4736" fill-rule="evenodd" clip-rule="evenodd" d="M131.05 124.202C132.523 123.747 130.382 118.563 130.267 123.369C130.282 124.32 128.196 122.335 128.886 124.334C130.782 130.036 129.406 123.505 131.05 124.202" fill="#FFBCBB" blush:i="0.0.160"/><path id="Fill 4738" fill-rule="evenodd" clip-rule="evenodd" d="M138.276 115.642C140.675 114.848 141.032 113.959 139.598 111.939C138.981 112.753 137.64 114.756 138.276 115.642" fill="#FFBCBB" blush:i="0.0.161"/><path id="Fill 4740" fill-rule="evenodd" clip-rule="evenodd" d="M134.509 117.656C134.496 117.598 134.503 117.627 134.509 117.656C134.444 117.57 134.344 117.474 134.509 117.656M132.57 118.649C133.287 118.403 136.112 118.602 134.229 117.433C133.828 116.087 131.017 116.808 132.57 118.649" fill="#FFBCBB" blush:i="0.0.162"/><path id="Fill 4742" fill-rule="evenodd" clip-rule="evenodd" d="M133.997 122.582C134.009 121.763 133.165 122.684 132.822 122.089C130.732 121.96 133.531 126.402 133.997 122.582" fill="#FFBCBB" blush:i="0.0.163"/><path id="Fill 4744" fill-rule="evenodd" clip-rule="evenodd" d="M123.617 126.807C122.805 127.317 123.655 128.771 123.995 129.264C124.369 128.88 124.072 126.846 123.617 126.807" fill="#FFBCBB" blush:i="0.0.164"/><path id="Fill 4746" fill-rule="evenodd" clip-rule="evenodd" d="M131.949 128.038C131.113 127.755 131.346 129.126 130.584 128.328C130.089 129.796 132.412 128.776 131.949 128.038" fill="#FFBCBB" blush:i="0.0.165"/><path id="Fill 4748" fill-rule="evenodd" clip-rule="evenodd" d="M131.842 127.661C131.64 127.158 131.551 127.663 131.386 127.841C131.568 128.004 131.675 127.761 131.842 127.661" fill="#FFBCBB" blush:i="0.0.166"/><path id="Fill 4750" fill-rule="evenodd" clip-rule="evenodd" d="M164.413 93.5742C164.406 93.5722 164.383 93.5932 164.384 93.5992C164.388 93.7062 164.514 93.5972 164.413 93.5742" fill="#FFBCBB" blush:i="0.0.167"/><path id="Fill 4752" fill-rule="evenodd" clip-rule="evenodd" d="M124.42 125.051C124.428 125.075 124.446 125.087 124.462 125.064C124.47 125.021 124.444 125.033 124.42 125.051" fill="#FFBCBB" blush:i="0.0.168"/><path id="Fill 4754" fill-rule="evenodd" clip-rule="evenodd" d="M147.495 110.412C147.499 110.402 147.497 110.407 147.495 110.412C147.506 110.409 147.513 110.39 147.495 110.412" fill="#FFBCBB" blush:i="0.0.169"/><path id="Fill 4756" fill-rule="evenodd" clip-rule="evenodd" d="M147.487 110.432C147.506 110.401 147.476 110.426 147.463 110.437C147.471 110.436 147.483 110.437 147.487 110.432" fill="#FFBCBB" blush:i="0.0.170"/><path id="Fill 4758" fill-rule="evenodd" clip-rule="evenodd" d="M152.226 102.081C152.213 102.072 152.2 102.062 152.187 102.053C152.19 102.076 152.203 102.084 152.226 102.081" fill="#FFBCBB" blush:i="0.0.171"/><path id="Fill 4760" fill-rule="evenodd" clip-rule="evenodd" d="M139.945 122.775C139.833 122.709 139.953 122.619 139.98 122.53C140.116 122.599 140.025 122.691 139.945 122.775M143.684 121.436C143.349 119.14 140.357 123.223 141.693 120.643C139.396 119.075 138.583 125.095 140.086 124.697C134.169 132.772 140.884 125.193 143.684 121.436" fill="#FFBCBB" blush:i="0.0.172"/><path id="Fill 4762" fill-rule="evenodd" clip-rule="evenodd" d="M153.405 103.7C153.363 103.676 153.384 103.687 153.405 103.7C153.384 103.69 153.361 103.654 153.405 103.7" fill="#FFBCBB" blush:i="0.0.173"/><path id="Fill 4764" fill-rule="evenodd" clip-rule="evenodd" d="M142.696 79.0653C142.689 79.0903 142.702 79.0843 142.718 79.0783L142.696 79.0653Z" fill="#FFBCBB" blush:i="0.0.174"/><path id="Fill 4766" fill-rule="evenodd" clip-rule="evenodd" d="M123.185 58.7568C123.171 58.7458 123.14 58.7198 123.161 58.7508C123.164 58.7558 123.176 58.7548 123.185 58.7568" fill="#FFBCBB" blush:i="0.0.175"/><path id="Fill 4768" fill-rule="evenodd" clip-rule="evenodd" d="M123.153 58.7314C123.149 58.7254 123.148 58.7114 123.139 58.7174C123.139 58.7254 123.148 58.7274 123.153 58.7314" fill="#FFBCBB" blush:i="0.0.176"/><path id="Fill 4770" fill-rule="evenodd" clip-rule="evenodd" d="M110.554 121.099C110.562 121.11 110.562 121.103 110.561 121.094L110.554 121.099Z" fill="#FFBCBB" blush:i="0.0.177"/><path id="Fill 4772" fill-rule="evenodd" clip-rule="evenodd" d="M115.365 123.867C113.046 117.623 114.991 121.388 111.026 121.305C109.196 122.744 115.767 128.557 115.365 123.867" fill="#FFBCBB" blush:i="0.0.178"/><path id="Fill 4774" fill-rule="evenodd" clip-rule="evenodd" d="M91.9693 100.358C91.8563 100.208 91.5393 99.9742 91.8733 99.9512C92.0703 100.126 92.4343 100.269 91.9693 100.358M96.1213 100.242C96.4693 99.6462 91.1613 96.3562 91.6333 98.3002C95.7533 101.822 91.5643 97.4592 91.2173 99.5492C89.6543 101.025 98.0183 102.952 96.1213 100.242" fill="#FFBCBB" blush:i="0.0.179"/><path id="Fill 4776" fill-rule="evenodd" clip-rule="evenodd" d="M111.37 117.085C114.761 120.398 110.407 110.681 109.227 113.602C108.463 111.348 109.197 119.846 111.37 117.085" fill="#FFBCBB" blush:i="0.0.180"/><path id="Fill 4778" fill-rule="evenodd" clip-rule="evenodd" d="M102.016 102.855C101.246 101.939 101.296 103.306 100.737 103.065C98.2719 103.642 108.233 107.918 102.016 102.855" fill="#FFBCBB" blush:i="0.0.181"/><path id="Fill 4780" fill-rule="evenodd" clip-rule="evenodd" d="M116.732 127.56C114.762 127.079 116.929 129.36 117.8 129.683C118.505 129.449 116.975 128.169 116.732 127.56" fill="#FFBCBB" blush:i="0.0.182"/><path id="Fill 4782" fill-rule="evenodd" clip-rule="evenodd" d="M110.553 121.099C110.551 121.077 110.552 121.087 110.553 121.099C110.567 121.092 110.551 121.076 110.553 121.099" fill="#FFBCBB" blush:i="0.0.183"/><path id="Fill 4784" fill-rule="evenodd" clip-rule="evenodd" d="M110.499 120.92C110.548 121.086 110.555 121.046 110.532 120.898C110.52 120.905 110.498 120.916 110.499 120.92" fill="#FFBCBB" blush:i="0.0.184"/><path id="Fill 4786" fill-rule="evenodd" clip-rule="evenodd" d="M103.73 85.7695C103.722 85.7865 103.768 85.7985 103.781 85.8135C103.764 85.7985 103.747 85.7845 103.73 85.7695" fill="#FFBCBB" blush:i="0.0.185"/><path id="Fill 4788" fill-rule="evenodd" clip-rule="evenodd" d="M98.6882 75.618C98.9472 75.374 98.5862 75.469 98.4242 75.438C98.4862 75.632 98.4822 75.946 98.6882 75.618" fill="#FFBCBB" blush:i="0.0.186"/><path id="Fill 4790" fill-rule="evenodd" clip-rule="evenodd" d="M140.285 67.4716C140.241 67.4506 140.263 67.4616 140.285 67.4716C140.265 67.4646 140.229 67.4246 140.285 67.4716" fill="#FFBCBB" blush:i="0.0.187"/><path id="Fill 4792" fill-rule="evenodd" clip-rule="evenodd" d="M99.7997 82.8554C99.8287 82.8614 99.8307 82.8554 99.8177 82.8314L99.7997 82.8554Z" fill="#FFBCBB" blush:i="0.0.188"/><path id="Fill 4794" fill-rule="evenodd" clip-rule="evenodd" d="M141.396 108.158C141.356 108.208 141.347 108.387 141.279 108.314C141.319 108.27 141.352 108.166 141.396 108.158" fill="#FC9B98" blush:i="0.0.189"/><path id="Fill 4796" fill-rule="evenodd" clip-rule="evenodd" d="M141.388 108.149C141.439 108.108 141.443 108.11 141.397 108.158L141.388 108.149Z" fill="#FC9B98" blush:i="0.0.190"/><path id="Fill 4798" fill-rule="evenodd" clip-rule="evenodd" d="M132.355 92.5009C132.289 92.2889 132.328 92.2489 132.433 92.1049C132.527 92.2689 132.459 92.3149 132.355 92.5009" fill="#FC9B98" blush:i="0.0.191"/><path id="Fill 4800" fill-rule="evenodd" clip-rule="evenodd" d="M131.499 94.0253C131.447 94.1103 131.379 94.1223 131.346 94.0443C131.405 93.9453 131.448 93.8773 131.499 94.0253" fill="#FC9B98" blush:i="0.0.192"/><path id="Fill 4802" fill-rule="evenodd" clip-rule="evenodd" d="M131.522 93.2196C131.489 93.2016 131.432 93.1816 131.485 93.1566C131.522 93.1706 131.571 93.1866 131.522 93.2196" fill="#FC9B98" blush:i="0.0.193"/><path id="Fill 4804" fill-rule="evenodd" clip-rule="evenodd" d="M135.843 109.377C135.811 109.398 135.804 109.376 135.802 109.346C135.826 109.345 135.844 109.348 135.843 109.377" fill="#FC9B98" blush:i="0.0.194"/><path id="Fill 4806" fill-rule="evenodd" clip-rule="evenodd" d="M129.078 116.33C129.14 116.365 129.137 116.365 129.074 116.334L129.078 116.33Z" fill="#FC9B98" blush:i="0.0.195"/><path id="Fill 4808" fill-rule="evenodd" clip-rule="evenodd" d="M134.376 117.503C134.408 117.534 134.524 117.553 134.464 117.597C134.435 117.571 134.406 117.508 134.376 117.503" fill="#FC9B98" blush:i="0.0.196"/><path id="Fill 4810" fill-rule="evenodd" clip-rule="evenodd" d="M134.49 117.569C134.51 117.635 134.514 117.673 134.464 117.596L134.49 117.569Z" fill="#FC9B98" blush:i="0.0.197"/><path id="Fill 4812" fill-rule="evenodd" clip-rule="evenodd" d="M91.97 100.358C91.857 100.208 91.54 99.9743 91.874 99.9513C92.072 100.126 92.435 100.27 91.97 100.358" fill="#FC9B98" blush:i="0.0.198"/><path id="Fill 4814" fill-rule="evenodd" clip-rule="evenodd" d="M93.1534 99.4813C93.2974 99.5743 93.6444 99.5373 93.5434 99.7513C93.4374 99.6553 93.0884 99.6143 93.1534 99.4813" fill="#FC9B98" blush:i="0.0.199"/></g></g></svg>