<svg viewBox="1.8787878787878753 19.97500000000001 89.24242424242425 51.699999999999996" fill="none" xmlns="http://www.w3.org/2000/svg" xmlns:xlink="http://www.w3.org/1999/xlink" xmlns:blush="http://design.blush" overflow="visible" width="89.24242424242425px" height="51.699999999999996px"><g id="Master/New Stickers/Bubble Chat" blush:has-customizable-colors="true" blush:viewBox="1.643939393939391 20.210000000000008 89.71212121212122 51.22999999999999" blush:i="0"><g id="Group 290" blush:i="0.0"><path id="Rectangle 25" d="M2.04068 33.4783C2.04068 26.2405 7.90805 20.3731 15.1458 20.3731H77.8225C85.0603 20.3731 90.9277 26.2405 90.9277 33.4783V47.818V69.8077C90.9277 71.1722 89.2688 71.8451 88.3182 70.8663L78.834 61.0998C76.3662 58.5585 72.9747 57.1245 69.4324 57.1245H15.1458C7.90805 57.1245 2.04068 51.2571 2.04068 44.0194V33.4783Z" fill="#FFF6ED" blush:i="0.0.0"/></g><g id="Group 291" blush:i="0.1"><path id="Vector 23 (Stroke)" fill-rule="evenodd" clip-rule="evenodd" d="M16.834 30.7376C16.834 30.3813 17.1228 30.0925 17.4791 30.0925H76.7772C77.1335 30.0925 77.4223 30.3813 77.4223 30.7376C77.4223 31.0939 77.1335 31.3827 76.7772 31.3827H17.4791C17.1228 31.3827 16.834 31.0939 16.834 30.7376Z" fill="#EABD91" blush:i="0.1.0"/><path id="Vector 24 (Stroke)" fill-rule="evenodd" clip-rule="evenodd" d="M16.834 39.1668C16.834 38.8105 17.1228 38.5217 17.4791 38.5217H67.907C68.2632 38.5217 68.5521 38.8105 68.5521 39.1668C68.5521 39.523 68.2632 39.8118 67.907 39.8118H17.4791C17.1228 39.8118 16.834 39.523 16.834 39.1668Z" fill="#EABD91" blush:i="0.1.1"/><path id="Vector 25 (Stroke)" fill-rule="evenodd" clip-rule="evenodd" d="M16.834 47.5959C16.834 47.2396 17.1228 46.9508 17.4791 46.9508H57.6646C58.0208 46.9508 58.3097 47.2396 58.3097 47.5959C58.3097 47.9522 58.0208 48.241 57.6646 48.241H17.4791C17.1228 48.241 16.834 47.9522 16.834 47.5959Z" fill="#EABD91" blush:i="0.1.2"/></g></g></svg>