<svg viewBox="84.6875 52.89893617021278 101.62499999999994 203.45744680851064" fill="none" xmlns="http://www.w3.org/2000/svg" xmlns:xlink="http://www.w3.org/1999/xlink" xmlns:blush="http://design.blush" overflow="visible" width="101.62499999999994px" height="203.45744680851064px"><g id="Master/Female Character/Standing" blush:has-customizable-colors="true" blush:viewBox="85.36500000000001 44.76063829787233 107.04499999999994 210.23936170212764" blush:i="0"><g id="Female Character Standing/Lower Body" blush:component="Female Character Standing/Lower Body" blush:defaultValue="Jeans 3" blush:width="56" blush:height="137" transform="translate(114 118) scale(1 1)" blush:i="0.0" blush:value="Jeans 3" blush:viewBox="-0.13725490196078738 2.0549999999999926 55.58823529411764 134.94499999999996"><g id="Female Character Standing/Lower Body/Jeans 3" blush:viewBox="-0.13725490196078738 2.0549999999999926 55.58823529411764 134.94499999999996" blush:i="0.0.0"><g id="Group" blush:i="0.0.0.0"><g id="Group 38" blush:i="0.0.0.0.0"><path id="Fill 1" fill-rule="evenodd" clip-rule="evenodd" d="M29.0928 89.464C29.4708 97.212 27.2028 108.834 24.2738 110.346C24.2738 110.346 22.7618 88.33 23.0458 85.779C23.3288 83.228 23.0098 78.315 23.0098 78.315C23.0098 78.315 28.6198 66.787 29.7548 60.268L32.6828 68.582C32.6828 68.582 28.7148 81.716 29.0928 89.464M53.1878 70.283C55.2658 66.125 54.9348 63.669 54.9348 63.669C51.2028 32.016 36.9358 10.094 36.9358 10.094C36.9358 10.094 33.1558 3.29102 24.5568 3.29102C15.9588 3.29102 16.5258 10.756 16.5258 10.756C14.1638 13.59 6.36777 20.299 3.01377 31.543C0.0667746 41.422 5.80077 66.787 5.94377 69.838C6.08477 72.89 6.58077 92.086 11.5418 101.653C16.5028 111.22 17.9438 120.361 18.2268 122.818C18.5098 125.276 16.7148 129.102 17.8008 129.858C18.8878 130.613 24.6988 134.96 25.5498 135.196C26.3998 135.433 31.8328 136.235 33.2028 136.377C34.5728 136.52 34.5258 134.772 33.2978 134.063C32.0698 133.354 29.9898 132.456 28.8098 129.811C27.6288 127.165 26.4938 122.582 25.7858 121.024C25.0768 119.464 24.3678 115.968 24.3678 115.968C25.5028 116.724 29.6598 124.708 29.6128 125.228C29.5658 125.747 38.7308 126.739 38.7308 126.739C39.0618 124.803 34.1958 122.96 34.1958 122.96C34.5258 120.598 32.4938 112.52 32.4938 112.52C32.4938 112.52 35.6128 103.354 38.0698 99.669C40.5258 95.984 51.1088 74.441 53.1878 70.283" fill="#db8c5c" blush:color="Skin-500" blush:i="0.0.0.0.0.0"/><path id="Fill 3" fill-rule="evenodd" clip-rule="evenodd" d="M18.0149 121.298C18.0149 121.298 17.5319 124.991 17.1539 126.504C16.7759 128.016 16.1149 128.487 17.1539 129.669C18.1929 130.85 18.4299 132.882 18.4299 132.882H19.1379L18.7129 130.898C18.7129 130.898 21.5429 132.598 23.0099 134.157C24.4769 135.716 31.9409 136.861 33.7839 136.591C35.6259 136.32 36.3349 135.243 30.2409 131.512C30.2409 131.512 26.2719 132.361 24.4299 134.016C24.4299 134.016 20.2239 130.378 18.9959 129.716C18.9959 129.716 17.6269 127.293 18.2409 123.851C18.2409 123.851 18.7339 122.753 18.0149 121.298" fill="#7D6E4D" blush:i="0.0.0.0.0.1"/><path id="Fill 5" fill-rule="evenodd" clip-rule="evenodd" d="M24.2876 115.59C24.2876 115.59 28.6816 121.165 29.8626 124.708C29.8626 124.708 33.8166 122.69 35.0876 123.341C35.0876 123.341 39.1226 125.181 39.1226 126.22C39.1226 127.26 37.9886 127.024 29.3426 125.747C29.3426 125.747 26.8726 119.575 24.7776 117.772L24.2876 115.59Z" fill="#7D6E4D" blush:i="0.0.0.0.0.2"/><g id="Group 9" blush:i="0.0.0.0.0.3"><path id="Fill 7" fill-rule="evenodd" clip-rule="evenodd" d="M15.5932 8.74722C15.5932 8.74722 14.8782 10.0232 15.2482 11.5822C15.2482 11.5822 0.984154 23.0672 0.193154 37.3202C-0.596846 51.5742 4.25615 67.0182 3.68915 72.2412C3.12215 77.4642 5.76815 89.9362 13.2332 113.747C13.2332 113.747 16.8232 116.016 24.2872 114.504C24.2872 114.504 25.2332 85.1172 24.2872 77.3692C24.2872 77.3692 28.6542 68.5702 29.5892 62.6302L31.7052 67.6382C31.7052 67.6382 27.6262 78.4092 27.8462 85.3072C28.0672 92.2042 25.0442 100.235 25.0442 100.235C25.0442 100.235 31.1852 104.96 37.2332 105.149C37.2332 105.149 52.2672 77.4642 54.9542 67.9212C57.6422 58.3782 48.2872 21.5272 38.8392 12.0782C38.8392 12.0782 38.3202 8.67222 38.3362 8.48322C38.3522 8.29522 37.9182 8.00422 37.6522 8.00122C37.3862 7.99722 36.4732 4.03522 26.8962 2.72422C26.8962 2.72422 17.4102 0.424219 15.5932 8.74722" fill="#DEBD7A" blush:i="0.0.0.0.0.3.0"/></g><path id="Fill 10" fill-rule="evenodd" clip-rule="evenodd" d="M16.209 12.2677C17.105 12.5727 17.998 12.8657 18.913 13.0837C19.817 13.3337 20.732 13.5387 21.652 13.7077C23.492 14.0387 25.347 14.2517 27.205 14.2747C29.066 14.3407 30.917 14.1037 32.738 13.7467L34.099 13.4277L35.422 12.9747L36.091 12.7567L36.731 12.4667C37.157 12.2697 37.589 12.0807 38.027 11.8947C36.456 12.9337 34.739 13.8367 32.877 14.3067C31.033 14.8097 29.11 15.0747 27.195 15.0237C25.282 14.9817 23.375 14.7427 21.529 14.2697C19.686 13.7977 17.876 13.1707 16.209 12.2677" fill="#7D6E4D" blush:i="0.0.0.0.0.4"/><path id="Fill 12" fill-rule="evenodd" clip-rule="evenodd" d="M23.3429 9.85071C23.6599 10.6527 23.7339 11.4707 23.7229 12.2887C23.7059 12.6987 23.6709 13.1097 23.5729 13.5187C23.4769 13.9127 23.3549 14.3697 23.0119 14.6637C23.0829 14.2537 22.9879 13.8637 22.9899 13.4637C22.9679 13.0667 22.9699 12.6677 22.9739 12.2687C23.0089 11.4687 23.0709 10.6667 23.3429 9.85071" fill="#7D6E4D" blush:i="0.0.0.0.0.5"/><path id="Fill 14" fill-rule="evenodd" clip-rule="evenodd" d="M25.1857 9.85071C25.4857 10.6597 25.5397 11.4797 25.5107 12.2987C25.4827 12.7077 25.4407 13.1177 25.3317 13.5237C25.2287 13.9197 25.0857 14.3607 24.7607 14.6637C24.8147 14.2467 24.7427 13.8557 24.7507 13.4557C24.7387 13.0577 24.7477 12.6597 24.7627 12.2597C24.8147 11.4607 24.8957 10.6617 25.1857 9.85071" fill="#7D6E4D" blush:i="0.0.0.0.0.6"/><path id="Fill 16" fill-rule="evenodd" clip-rule="evenodd" d="M34.5868 8.77161C34.9188 9.51161 35.0028 10.2756 35.0058 11.0406C34.9938 11.4216 34.9638 11.8066 34.8768 12.1886C34.7958 12.5656 34.6568 12.9606 34.3978 13.2796C34.3758 12.8786 34.3098 12.5156 34.2938 12.1426C34.2608 11.7716 34.2578 11.4016 34.2568 11.0296C34.2768 10.2846 34.3298 9.53861 34.5868 8.77161" fill="#7D6E4D" blush:i="0.0.0.0.0.7"/><path id="Fill 18" fill-rule="evenodd" clip-rule="evenodd" d="M35.5314 7.49524C35.9634 8.36224 36.1534 9.27424 36.2604 10.1982C36.3014 10.6622 36.3274 11.1282 36.2884 11.6002C36.2534 12.0642 36.1854 12.5692 35.9204 12.9882C35.8974 12.5132 35.7634 12.0802 35.7044 11.6272C35.6254 11.1802 35.5674 10.7272 35.5154 10.2742C35.4334 9.36524 35.3804 8.45024 35.5314 7.49524" fill="#7D6E4D" blush:i="0.0.0.0.0.8"/><path id="Fill 20" fill-rule="evenodd" clip-rule="evenodd" d="M25.5159 14.6642C25.1329 16.3332 24.5349 17.9462 23.8699 19.5292C23.1679 21.0962 22.3659 22.6272 21.3929 24.0582C20.4199 25.4882 19.2579 26.7942 17.9379 27.9382C16.5809 29.0392 15.0409 29.9272 13.3619 30.4812L12.8789 30.6422L12.8819 30.1252L12.8979 27.7642L12.8999 27.5752L13.0549 27.4692C14.2059 26.6762 15.3129 25.7692 16.3619 24.8242C17.3999 23.8642 18.4249 22.8822 19.3289 21.7942C21.1379 19.6432 22.6679 17.1382 23.0119 14.2702C22.9799 15.7062 22.5809 17.1182 22.0089 18.4422C21.4319 19.7732 20.5989 20.9702 19.7309 22.1202C18.8509 23.2682 17.8609 24.3252 16.8039 25.3062C15.7429 26.2872 14.6459 27.2132 13.4539 28.0592L13.6099 27.7642L13.6259 30.1252L13.1469 29.7692C14.7189 29.2472 16.1899 28.4482 17.5009 27.4092C18.7899 26.3392 19.8959 25.0642 20.9159 23.7212C21.9219 22.3642 22.7729 20.8902 23.5319 19.3712C24.3049 17.8562 24.9669 16.2822 25.5159 14.6642" fill="#7D6E4D" blush:i="0.0.0.0.0.9"/><path id="Fill 22" fill-rule="evenodd" clip-rule="evenodd" d="M12.7601 36.8341C12.6351 39.7051 12.5601 42.5721 12.5291 45.4381C12.5051 48.3061 12.4671 51.1711 12.5531 54.0361C12.5771 56.9011 12.6761 59.7661 12.8061 62.6291C12.9121 65.4951 13.1121 68.3551 13.2541 71.2281C12.8021 68.3901 12.4571 65.5321 12.2301 62.6651C11.9801 59.7991 11.8871 56.9231 11.8041 54.0481C11.7811 51.1721 11.8081 48.2941 11.9541 45.4211C12.1071 42.5491 12.3261 39.6781 12.7601 36.8341" fill="#7D6E4D" blush:i="0.0.0.0.0.10"/><path id="Fill 24" fill-rule="evenodd" clip-rule="evenodd" d="M13.2544 76.6134C13.5994 79.0264 13.9004 81.4384 14.2074 83.8504L15.1214 91.0824C15.4004 93.4964 15.7374 95.9004 16.0594 98.3084C16.3884 100.715 16.7464 103.116 17.1074 105.527C16.4414 103.181 15.9394 100.794 15.4894 98.3994C15.0484 96.0024 14.7164 93.5894 14.3784 91.1764C14.1044 88.7564 13.8244 86.3374 13.6364 83.9094C13.4474 81.4814 13.2914 79.0514 13.2544 76.6134" fill="#7D6E4D" blush:i="0.0.0.0.0.11"/><path id="Fill 26" fill-rule="evenodd" clip-rule="evenodd" d="M11.3804 107.746C12.4414 107.934 13.5014 107.996 14.5554 108.06C15.6124 108.108 16.6674 108.121 17.7234 108.097C18.7804 108.085 19.8364 108.017 20.8974 107.958L24.0994 107.746C23.0774 108.09 22.0304 108.367 20.9644 108.539C19.9004 108.72 18.8214 108.82 17.7384 108.847C16.6554 108.856 15.5694 108.81 14.4964 108.641C13.4274 108.475 12.3584 108.213 11.3804 107.746" fill="#7D6E4D" blush:i="0.0.0.0.0.12"/><path id="Fill 28" fill-rule="evenodd" clip-rule="evenodd" d="M26.6909 94.6935C28.7679 95.4715 30.7809 96.3155 32.8319 97.0555C33.8549 97.4265 34.8819 97.7885 35.9259 98.0885C36.9719 98.3805 38.0229 98.6605 39.1229 98.8185C36.8949 99.0715 34.6519 98.4985 32.5749 97.7595C30.4939 96.9835 28.4929 95.9935 26.6909 94.6935" fill="#7D6E4D" blush:i="0.0.0.0.0.13"/><path id="Fill 30" fill-rule="evenodd" clip-rule="evenodd" d="M32.6831 68.5821C33.9031 69.5011 34.9331 70.6021 35.8891 71.7661C36.8081 72.9461 37.7251 74.1921 38.1781 75.6691C37.7061 75.0721 37.2051 74.5241 36.7301 73.9521C36.2451 73.3881 35.7791 72.8101 35.3051 72.2351C34.3791 71.0691 33.4621 69.8941 32.6831 68.5821" fill="#7D6E4D" blush:i="0.0.0.0.0.14"/><path id="Fill 32" fill-rule="evenodd" clip-rule="evenodd" d="M32.9067 66.3145C34.1617 67.1025 35.2397 68.0955 36.2347 69.1675C37.2027 70.2515 38.1357 71.4325 38.6497 72.8345L35.6807 69.6725C34.7187 68.5995 33.7527 67.5285 32.9067 66.3145" fill="#7D6E4D" blush:i="0.0.0.0.0.15"/><path id="Fill 34" fill-rule="evenodd" clip-rule="evenodd" d="M32.2013 11.8946C32.2013 12.5696 31.7053 13.1176 31.0943 13.1176C30.4823 13.1176 29.9873 12.5696 29.9873 11.8946C29.9873 11.2196 30.4823 10.6716 31.0943 10.6716C31.7053 10.6716 32.2013 11.2196 32.2013 11.8946" fill="#38628B" blush:i="0.0.0.0.0.16"/><path id="Fill 36" fill-rule="evenodd" clip-rule="evenodd" d="M29.5889 60.4561L30.9319 53.6041C31.3679 51.3211 31.8449 49.0481 32.2189 46.7561C32.6499 44.4751 33.0269 42.1841 33.3529 39.8871C33.6799 37.5901 33.9549 35.2861 34.1249 32.9601C34.2669 35.2911 34.1349 37.6311 33.9249 39.9551C33.7159 42.2821 33.3309 44.5861 32.9569 46.8891C32.5189 49.1801 32.0509 51.4651 31.4929 53.7281C30.9309 55.9901 30.3269 58.2431 29.5889 60.4561" fill="#7D6E4D" blush:i="0.0.0.0.0.17"/></g></g><g id="Group 3" blush:i="0.0.0.1"><path id="Fill 1" fill-rule="evenodd" clip-rule="evenodd" d="M16.635 116.349L23.935 116.931V113.378C23.935 113.378 24.322 113.314 24.387 112.538C24.451 111.763 24.387 107.953 24.387 107.953C24.387 107.953 25.42 107.5 25.808 106.661C26.196 105.821 26.131 104.852 26.131 104.852C26.131 104.852 26.614 103.883 27.277 104.012C27.94 104.141 31.879 106.273 35.367 106.144C35.367 106.144 34.98 109.103 34.463 110.465C33.947 111.828 33.559 121 35.367 122.357C37.176 123.713 40.988 124.746 40.083 125.974C39.179 127.202 32.202 126.878 30.91 126.555C29.618 126.232 27.745 124.101 27.745 124.101C27.745 124.101 27.874 127.266 28.779 128.364C29.683 129.462 30.394 131.529 31.879 132.304C33.365 133.079 36.724 134.823 35.691 135.921C34.657 137.019 26.001 136.438 24.839 135.921C23.676 135.405 21.415 132.756 21.415 132.756C21.415 132.756 21.48 134.177 20.77 134.242C20.059 134.306 18.896 134.5 17.798 133.984C17.798 133.984 16.699 129.203 16.118 128.687C15.537 128.17 17.281 123.713 17.281 123.713L16.635 116.349Z" fill="#7D6E4D" blush:i="0.0.0.1.0"/></g></g></g><g id="Female Character/Upper Body" blush:component="Female Character/Upper Body" blush:defaultValue="Blouse 3" blush:width="106" blush:height="123" transform="translate(86 76) scale(1 1)" blush:i="0.1" blush:value="Blouse 3" blush:viewBox="-0.18445475638050368 0 99.60556844547561 83.64"><g id="Female Character/Upper Body/Blouse 3" blush:viewBox="-0.18445475638050368 0 99.60556844547561 83.64" blush:i="0.1.0"><path id="Fill 55" fill-rule="evenodd" clip-rule="evenodd" d="M51.124 1.21845C51.124 1.21845 52.0261 9.92579 44.0001 14.3982C44.0001 14.3982 43.8584 20 52.8344 20C61.8104 20 62 15.2458 62 15.2458C62 15.2458 57.8688 12.1847 57.3928 11.4321C57.3928 11.4321 57.6782 8.46699 58.4386 7.1961C59.1979 5.9252 59.8156 2.53683 56.1115 0.700194C52.4063 -1.13543 51.124 1.21845 51.124 1.21845" fill="#db8c5c" blush:color="Skin-500" blush:i="0.1.0.0"/><g id="Group 92" blush:i="0.1.0.1"><path id="Fill 1" fill-rule="evenodd" clip-rule="evenodd" d="M46.357 12.7612C46.357 12.7612 42.005 15.0645 38.792 16.1985C35.58 17.3325 35.58 17.4265 32.555 20.7335C29.532 24.0415 17.249 39.1595 15.926 42.4655C14.603 45.7735 12.241 62.3085 9.68899 64.3875C7.13799 66.4655 4.20999 68.4985 2.69799 70.7655C1.18499 73.0335 -0.0900111 73.1745 0.00498892 73.6475C0.0989889 74.1205 1.65799 73.9775 4.01999 71.9945C4.01999 71.9945 3.40599 73.5055 3.02799 74.4985C2.64999 75.4905 0.901989 76.9545 1.09199 77.2375C1.27999 77.5215 3.16999 76.3875 3.50099 75.7255C3.50099 75.7255 2.74499 77.5685 2.17799 77.9465C1.61099 78.3245 3.68899 78.2775 4.77599 76.6245C5.86299 74.9695 7.18499 72.8915 7.65799 72.9385C8.13099 72.9855 5.72199 75.3955 5.34399 77.3795C4.96599 79.3645 4.06699 79.1275 4.20999 79.6475C4.35099 80.1665 6.57199 78.7965 7.32799 76.5765C8.08399 74.3555 10.304 73.4585 10.304 73.4585C10.304 73.4585 10.54 76.8125 11.437 76.5295C12.336 76.2465 12.005 74.0255 12.95 72.9855C13.894 71.9465 13.847 71.0955 13.753 69.8205C13.658 68.5445 13.422 66.4185 14.745 64.3395C16.067 62.2615 21.832 50.3555 22.398 47.5215C22.398 47.5215 33.123 33.4425 38.131 30.5605C38.131 30.5605 39.359 36.1825 41.202 39.3475C43.044 42.5135 44.555 48.3725 43.706 49.8835H65.084C65.084 49.8835 65.933 44.3555 67.351 41.8045C67.351 41.8045 69.832 50.6635 70.894 51.8685C71.958 53.0725 86.414 61.2215 86.627 63.9855C86.84 66.7495 90.241 66.7965 92.509 71.8515C92.509 71.8515 93.311 72.8435 93.359 71.9945C93.406 71.1435 92.414 69.1595 92.414 69.1595C92.414 69.1595 93.784 71.4265 94.067 72.5135C94.351 73.5995 95.58 72.9855 95.58 72.9855L95.344 72.0415C95.344 72.0415 96.477 73.2695 97.28 72.9855C97.28 72.9855 96.336 70.1985 95.674 69.3955C95.674 69.3955 97.989 71.5685 98.698 71.2855C99.406 71.0015 97.549 69.1595 96.921 68.0985C96.31 67.0715 95.195 64.3495 95.054 63.9245C94.912 63.4995 89.485 60.4655 88.966 59.9465C88.446 59.4265 85.28 56.1205 83.58 53.6165C81.879 51.1115 77.437 47.6165 77.437 47.6165C77.437 47.6165 72.902 31.0805 72.194 29.0955C71.485 27.1115 70.54 21.7735 68.036 19.7895C65.532 17.8045 60.3421 13.9948 60.3421 13.9948L46.357 12.7612Z" fill="#db8c5c" blush:color="Skin-500" blush:i="0.1.0.1.0"/><path id="Fill 3" fill-rule="evenodd" clip-rule="evenodd" d="M86.9531 63.0049C87.9061 63.9099 88.9831 64.6649 90.1351 65.2499C91.3341 65.7789 92.4451 66.6009 93.5361 67.2269C93.8031 67.3739 94.0941 67.4969 94.2921 67.4439C94.5591 67.3729 94.9081 67.2339 95.0181 67.0869C95.0391 67.0529 95.0451 67.0409 95.0431 67.0099C95.0731 67.0809 95.0151 66.9799 94.9701 66.9429C94.8661 66.8379 94.7411 66.7339 94.6181 66.6319L93.8531 66.0299L93.4631 65.7419C93.3161 65.6499 93.1731 65.5059 93.0701 65.3739C92.8591 65.1039 92.6881 64.8379 92.4611 64.6239C92.3601 64.5249 92.1991 64.4039 92.1101 64.2479C92.0161 64.0979 91.9531 63.9389 91.9051 63.7769C91.8081 63.4549 91.7651 63.1239 91.7571 62.7949C91.9011 63.4209 92.0491 64.1239 92.6231 64.4399C92.8931 64.6559 93.0991 64.9379 93.3101 65.1679C93.4201 65.2859 93.5161 65.3729 93.6531 65.4489L94.0751 65.7169C94.3531 65.8979 94.6261 66.0859 94.8891 66.2939C95.0211 66.3989 95.1511 66.5019 95.2821 66.6279C95.3431 66.7109 95.4271 66.7189 95.4881 66.9549C95.5111 67.0889 95.4651 67.2439 95.3931 67.3449C95.0821 67.7149 94.7581 67.7819 94.4131 67.9059C93.9531 68.0109 93.6021 67.8139 93.3001 67.6669C92.7011 67.3259 92.1831 66.9359 91.6341 66.5829C91.0891 66.2189 90.5291 65.9219 89.9521 65.5859C88.8021 64.9119 87.7571 64.0529 86.9531 63.0049" fill="black" blush:i="0.1.0.1.1"/><path id="Fill 5" fill-rule="evenodd" clip-rule="evenodd" d="M95.0596 68.2266L95.4876 68.8816C95.6446 69.0926 95.7566 69.3286 95.8236 69.5886L95.8106 69.5966C95.6226 69.4036 95.4806 69.1846 95.3826 68.9406L95.0466 68.2336L95.0596 68.2266Z" fill="black" blush:i="0.1.0.1.2"/><path id="Fill 7" fill-rule="evenodd" clip-rule="evenodd" d="M93.5918 68.5752L94.4948 70.2962C94.8268 70.8532 95.1128 71.4242 95.3538 72.0342L95.3328 72.0482C94.8648 71.5732 94.5628 70.9842 94.3158 70.3852C94.0478 69.7932 93.7998 69.1922 93.5698 68.5862L93.5918 68.5752Z" fill="black" blush:i="0.1.0.1.3"/><path id="Fill 9" fill-rule="evenodd" clip-rule="evenodd" d="M91.9793 68.2276C92.0573 68.3786 92.1613 68.5186 92.2553 68.6606C92.3753 68.7896 92.4533 68.9376 92.4243 69.1526L92.4033 69.1646C92.2033 69.0816 92.1143 68.9286 92.0773 68.7506C92.0203 68.5836 91.9663 68.4146 91.9553 68.2316L91.9793 68.2276Z" fill="black" blush:i="0.1.0.1.4"/><g id="Group 13" blush:i="0.1.0.1.5"><path id="Fill 11" fill-rule="evenodd" clip-rule="evenodd" d="M58.4297 51.6787C58.4297 51.6787 63.5327 71.6227 63.1067 82.4147C63.1067 82.4147 67.6897 81.4907 71.7047 78.7497C71.7047 78.7497 68.8707 59.5687 61.7367 51.3477L58.4297 51.6787Z" fill="#FFFFF1" blush:i="0.1.0.1.5.0"/></g><path id="Fill 14" fill-rule="evenodd" clip-rule="evenodd" d="M36.4375 14.4649C36.4375 14.4649 48.2515 15.7259 52.6565 15.4429C52.6565 15.4429 57.9835 28.5929 59.2135 32.6029C59.2375 32.6809 59.3515 32.6539 59.3415 32.5729C58.9805 29.4819 57.8195 19.6979 57.3425 17.4979C56.7765 14.8759 63.2315 14.8759 63.2315 14.8759C63.2315 14.8759 68.0435 18.4359 69.0365 19.0659C70.0285 19.6939 80.9975 35.2139 80.9975 35.2139C80.9975 35.2139 73.6405 39.9619 67.9715 41.6629C67.9715 41.6629 67.8315 44.1439 65.6345 47.1909C63.4375 50.2369 65.6345 47.1909 65.6345 47.1909C65.6345 47.1909 64.8745 49.8839 64.9785 49.8839C65.0835 49.8839 43.1695 49.2679 43.1695 49.2679L43.6145 45.8959C43.6145 45.8959 40.2645 42.5839 38.7765 40.6709C38.7765 40.6709 22.8315 35.7809 16.5945 32.3799C16.5945 32.3799 15.6735 31.7419 17.7995 29.2619C19.9255 26.7809 34.7365 16.6049 36.4375 14.4649" fill="#FFFFF1" blush:i="0.1.0.1.6"/><path id="Fill 16" fill-rule="evenodd" clip-rule="evenodd" d="M68.5167 23.0957C69.3697 26.2217 69.9307 29.3937 70.5607 32.5227C70.6397 32.9117 70.7177 33.3007 70.8087 33.6797C70.8527 33.8737 70.9087 34.0357 70.9567 34.2317C71.0067 34.4797 71.0747 34.7417 71.0497 34.9667C71.0187 35.8957 70.7497 36.6887 70.4357 37.4537C69.8057 38.9807 68.9477 40.3667 67.9717 41.6627C68.6097 40.1767 69.2217 38.6867 69.7017 37.1907C69.9167 36.4457 70.1337 35.6717 70.1037 34.9867C70.1117 34.8067 70.0597 34.6777 70.0387 34.5307C69.9857 34.3367 69.9097 34.1177 69.8627 33.9207C69.7567 33.5187 69.6677 33.1207 69.5817 32.7227C68.9737 29.5357 68.5917 26.3387 68.5167 23.0957" fill="#E0D4B6" blush:i="0.1.0.1.7"/><path id="Fill 18" fill-rule="evenodd" clip-rule="evenodd" d="M41.3271 31.836C42.9731 34.47 44.3891 37.199 45.8081 39.924L47.9091 44.018C48.2661 44.694 48.6171 45.375 48.9961 46.038C49.3761 46.695 49.7281 47.393 50.3201 47.887C49.9481 47.75 49.6481 47.466 49.3761 47.19C49.0971 46.912 48.8421 46.614 48.5911 46.314C48.1051 45.701 47.6561 45.064 47.2351 44.41C46.3861 43.108 45.6391 41.751 44.9211 40.382C43.5201 37.625 42.2601 34.801 41.3271 31.836" fill="#E0D4B6" blush:i="0.1.0.1.8"/><path id="Fill 20" fill-rule="evenodd" clip-rule="evenodd" d="M37.7842 37.3164C39.0522 38.5774 40.0932 39.9654 41.1062 41.3754C42.1002 42.8014 43.0562 44.2344 43.8792 45.8204C42.4462 44.7414 41.3152 43.3724 40.2912 41.9524C39.2952 40.5094 38.3882 39.0024 37.7842 37.3164" fill="#E0D4B6" blush:i="0.1.0.1.9"/><path id="Fill 22" fill-rule="evenodd" clip-rule="evenodd" d="M57.1746 46.3789L60.1426 48.0889L55.6426 48.2389C55.6426 48.2389 56.2886 46.2749 57.1746 46.3789" fill="#E0D4B6" blush:i="0.1.0.1.10"/><path id="Fill 24" fill-rule="evenodd" clip-rule="evenodd" d="M56.5888 48.2515C56.2418 49.3595 55.7658 50.8785 55.2178 52.6205C60.7828 52.7665 64.4613 51.3501 65.2808 50.8045C67.4729 49.3449 65.6348 47.1905 65.6348 47.1905C62.2458 47.9125 59.2318 48.2075 56.5888 48.2515Z" fill="#FFFFF1" blush:i="0.1.0.1.11"/><path id="Fill 26" fill-rule="evenodd" clip-rule="evenodd" d="M66.4728 48.7313C66.4948 49.3243 66.4488 49.9723 66.0628 50.5223C65.8608 50.7973 65.1001 51.169 64.8351 51.3C64.5631 51.44 64.2851 51.553 64.0031 51.659C63.4421 51.868 62.8721 52.05 62.2931 52.192C59.9711 52.748 57.5811 52.909 55.2111 52.818C55.1031 52.816 55.0171 52.727 55.0191 52.619C55.0191 52.601 55.0241 52.578 55.0291 52.561L56.4471 48.207C56.4651 48.145 56.5251 48.105 56.5861 48.103C58.1011 48.091 59.6171 48.006 61.1261 47.849C62.6431 47.692 64.1201 47.457 65.6471 47.169C65.8551 47.762 66.4218 48.1233 66.4728 48.7313ZM61.1471 48.029C59.6371 48.232 58.1161 48.358 56.5911 48.399L55.2221 52.423C56.3931 52.436 57.5641 52.384 58.7251 52.262C59.8871 52.148 61.0451 51.981 62.1771 51.706C62.7461 51.581 63.3081 51.432 63.8571 51.25C64.3851 51.057 65.4528 50.6673 65.7868 50.3023C66.1228 49.8973 66.2278 49.3043 66.2418 48.7343C66.2618 48.1633 65.7251 47.756 65.6221 47.212C64.1741 47.555 62.6491 47.826 61.1471 48.029Z" fill="#E0D4B6" blush:i="0.1.0.1.12"/><path id="Fill 28" fill-rule="evenodd" clip-rule="evenodd" d="M43.6141 45.8955C42.5931 46.1125 42.6021 49.8125 42.6021 49.8125C45.0101 50.8315 47.3111 51.5085 49.4721 51.9515C50.2241 50.5025 50.9411 49.1535 51.5731 48.0105C46.3821 47.4045 43.6141 45.8955 43.6141 45.8955" fill="#FFFFF1" blush:i="0.1.0.1.13"/><path id="Fill 30" fill-rule="evenodd" clip-rule="evenodd" d="M47.5568 47.0701C48.8938 47.3681 50.2458 47.5831 51.6018 47.7581C51.7428 47.7741 51.8428 47.9011 51.8258 48.0411C51.8218 48.0731 51.8098 48.1071 51.7958 48.1341L49.6428 52.0401L49.6388 52.0461C49.5978 52.1211 49.5138 52.1561 49.4338 52.1401C47.0748 51.6231 44.7658 50.8801 42.5658 49.8991C42.5308 49.8861 42.5088 49.8491 42.5078 49.8121C42.5278 49.1051 42.5818 48.4041 42.6988 47.7081C42.7608 47.3601 42.8308 47.0141 42.9548 46.6801C43.0828 46.3631 43.2288 45.9841 43.6178 45.8711C44.9028 46.4091 46.2228 46.7551 47.5568 47.0701ZM43.0348 46.7081C42.9248 47.0361 42.8658 47.3821 42.8168 47.7261C42.7238 48.4161 42.6928 49.1171 42.6968 49.8121L42.6388 49.7251C44.8628 50.6181 47.1628 51.3161 49.5108 51.7641L49.3028 51.8631L51.5438 48.2641C50.1618 48.1171 48.7948 47.8421 47.4558 47.4711C46.1248 47.0941 44.7968 46.6091 43.6098 45.9201C43.3008 46.0291 43.1398 46.3921 43.0348 46.7081Z" fill="#E0D4B6" blush:i="0.1.0.1.14"/><path id="Fill 32" fill-rule="evenodd" clip-rule="evenodd" d="M31.8896 21.4815L34.0286 23.7335L36.2246 21.8915L34.0576 19.7655L31.8896 21.4815Z" fill="#2B251F" blush:i="0.1.0.1.15"/><path id="Fill 34" fill-rule="evenodd" clip-rule="evenodd" d="M27.5547 30.4707L29.6937 32.7227L31.8897 30.8797L29.7217 28.7537L27.5547 30.4707Z" fill="#2B251F" blush:i="0.1.0.1.16"/><path id="Fill 36" fill-rule="evenodd" clip-rule="evenodd" d="M23.3184 24.7071L24.9654 26.2471L27.1634 24.4041L25.8144 22.8291L23.3184 24.7071Z" fill="#2B251F" blush:i="0.1.0.1.17"/><path id="Fill 38" fill-rule="evenodd" clip-rule="evenodd" d="M42.1416 27.1084L44.2796 29.3604L46.4766 27.5174L44.3086 25.3914L42.1416 27.1084Z" fill="#2B251F" blush:i="0.1.0.1.18"/><path id="Fill 40" fill-rule="evenodd" clip-rule="evenodd" d="M40.8311 18.2061L42.9701 20.4581L45.1671 18.6151L42.9991 16.4891L40.8311 18.2061Z" fill="#2B251F" blush:i="0.1.0.1.19"/><path id="Fill 42" fill-rule="evenodd" clip-rule="evenodd" d="M49.0283 20.1905L51.1663 22.4425L53.3633 20.5995L51.1953 18.4735L49.0283 20.1905Z" fill="#2B251F" blush:i="0.1.0.1.20"/><path id="Fill 44" fill-rule="evenodd" clip-rule="evenodd" d="M51.5732 29.584L53.7122 31.836L55.9082 29.994L53.7412 27.868L51.5732 29.584Z" fill="#2B251F" blush:i="0.1.0.1.21"/><path id="Fill 46" fill-rule="evenodd" clip-rule="evenodd" d="M50.4883 39.5938L52.6273 41.8458L54.8233 40.0028L52.6563 37.8768L50.4883 39.5938Z" fill="#2B251F" blush:i="0.1.0.1.22"/><path id="Fill 48" fill-rule="evenodd" clip-rule="evenodd" d="M40.5586 40.4209L42.6976 42.6729L44.8936 40.8299L42.7266 38.7039L40.5586 40.4209Z" fill="#2B251F" blush:i="0.1.0.1.23"/><path id="Fill 50" fill-rule="evenodd" clip-rule="evenodd" d="M35.8857 34.4395L38.0247 36.6915L40.2217 34.8485L38.0537 32.7225L35.8857 34.4395Z" fill="#2B251F" blush:i="0.1.0.1.24"/><path id="Fill 52" fill-rule="evenodd" clip-rule="evenodd" d="M16.5947 32.3799L18.8477 33.4909L20.2487 32.3159L18.0807 30.1899L16.5947 32.3799Z" fill="#2B251F" blush:i="0.1.0.1.25"/><path id="Fill 54" fill-rule="evenodd" clip-rule="evenodd" d="M63.2451 31.9063L65.3831 34.1583L67.5801 32.3153L65.4121 30.1893L63.2451 31.9063Z" fill="#2B251F" blush:i="0.1.0.1.26"/><path id="Fill 56" fill-rule="evenodd" clip-rule="evenodd" d="M62.042 20.7813L64.181 23.0333L66.378 21.1913L64.21 19.0653L62.042 20.7813Z" fill="#2B251F" blush:i="0.1.0.1.27"/><path id="Fill 58" fill-rule="evenodd" clip-rule="evenodd" d="M70.1875 27.1084L72.3255 29.3604L74.5225 27.5174L72.3545 25.3914L70.1875 27.1084Z" fill="#2B251F" blush:i="0.1.0.1.28"/><path id="Fill 60" fill-rule="evenodd" clip-rule="evenodd" d="M71.0088 35.875L73.1478 38.127L75.3448 36.284L73.1768 34.158L71.0088 35.875Z" fill="#2B251F" blush:i="0.1.0.1.29"/><path id="Fill 62" fill-rule="evenodd" clip-rule="evenodd" d="M76.0039 32.4004L78.1429 34.6524L79.6829 33.3614L77.8559 30.9344L76.0039 32.4004Z" fill="#2B251F" blush:i="0.1.0.1.30"/><path id="Fill 64" fill-rule="evenodd" clip-rule="evenodd" d="M61.4854 40.0586L63.6244 42.3106L65.8204 40.4686L63.6534 38.3426L61.4854 40.0586Z" fill="#2B251F" blush:i="0.1.0.1.31"/><path id="Fill 66" fill-rule="evenodd" clip-rule="evenodd" d="M42.7801 47.5752L42.6021 49.8122L45.3951 49.3462L43.2281 47.2212L42.7801 47.5752Z" fill="#2B251F" blush:i="0.1.0.1.32"/><path id="Fill 68" fill-rule="evenodd" clip-rule="evenodd" d="M60 56.7065L61.6361 59.045L63.8331 57.202L61.6651 55.076L60 56.7065Z" fill="#2B251F" blush:i="0.1.0.1.33"/><path id="Fill 70" fill-rule="evenodd" clip-rule="evenodd" d="M60 50.717L61.071 51.845L63.651 51.079L62.167 49L60 50.717Z" fill="#2B251F" blush:i="0.1.0.1.34"/><path id="Fill 72" fill-rule="evenodd" clip-rule="evenodd" d="M59.4971 46.7041L60.6391 47.9961L63.5141 47.5971L61.6651 44.9871L59.4971 46.7041Z" fill="#2B251F" blush:i="0.1.0.1.35"/><path id="Fill 74" fill-rule="evenodd" clip-rule="evenodd" d="M54.0732 50.3594L56.2122 52.6114L58.4082 50.7684L56.2402 48.6424L54.0732 50.3594Z" fill="#2B251F" blush:i="0.1.0.1.36"/><path id="Fill 76" fill-rule="evenodd" clip-rule="evenodd" d="M65.0674 63.3125L67.2064 65.5645L68.1878 64.5L67.2354 61.5965L65.0674 63.3125Z" fill="#2B251F" blush:i="0.1.0.1.37"/><path id="Fill 78" fill-rule="evenodd" clip-rule="evenodd" d="M62.3008 70.3565L64.4398 72.6085L66.6358 70.7655L64.4688 68.6395L62.3008 70.3565Z" fill="#2B251F" blush:i="0.1.0.1.38"/><path id="Fill 80" fill-rule="evenodd" clip-rule="evenodd" d="M66.6338 77.3994L68.7718 79.6514L70.9688 77.8094L68.8008 75.6834L66.6338 77.3994Z" fill="#2B251F" blush:i="0.1.0.1.39"/><path id="Fill 82" fill-rule="evenodd" clip-rule="evenodd" d="M55.1266 45.166C54.3056 44.771 53.3206 45.05 52.8396 45.824C52.4816 46.398 52.0516 47.146 51.5726 48.011C50.9406 49.153 50.2246 50.503 49.4726 51.951C46.0936 58.461 42.0356 66.903 42.0356 66.903L49.4286 70.624C49.8156 69.737 53.0516 59.506 55.2176 52.62C55.7656 50.878 56.2416 49.359 56.5886 48.251C56.9526 47.089 57.1746 46.379 57.1746 46.379L55.1266 45.166Z" fill="#FFFFF1" blush:i="0.1.0.1.40"/><path id="Fill 84" fill-rule="evenodd" clip-rule="evenodd" d="M42.2021 66.8467L49.3631 70.4507C49.7871 69.3417 51.7621 63.1897 55.0981 52.5827C55.6461 50.8407 56.1231 49.3227 56.4701 48.2137L57.0261 46.4357L55.0681 45.2767C54.3031 44.9117 53.3911 45.1747 52.9461 45.8907C52.6111 46.4287 52.1851 47.1617 51.6821 48.0717C51.0901 49.1437 50.3831 50.4687 49.5841 52.0087C46.4521 58.0407 42.6921 65.8297 42.2021 66.8467V66.8467ZM49.4901 70.7947L41.8701 66.9597L41.9241 66.8497C41.9641 66.7647 46.0201 58.3307 49.3611 51.8937C50.1621 50.3517 50.8691 49.0247 51.4641 47.9507C51.9691 47.0367 52.3961 46.2997 52.7331 45.7577C53.2471 44.9337 54.3001 44.6277 55.1811 45.0537L55.1901 45.0587L57.3231 46.3217L56.7081 48.2877C56.3611 49.3967 55.8851 50.9147 55.3371 52.6577C52.8991 60.4067 49.9161 69.8227 49.5431 70.6737L49.4901 70.7947Z" fill="#E0D4B6" blush:i="0.1.0.1.41"/><path id="Fill 86" fill-rule="evenodd" clip-rule="evenodd" d="M49.8115 51.2969L51.9495 53.5489L54.1465 51.7069L51.9785 49.5809L49.8115 51.2969Z" fill="#2B251F" blush:i="0.1.0.1.42"/><path id="Fill 88" fill-rule="evenodd" clip-rule="evenodd" d="M47.2607 61.668L49.3997 63.92L51.5957 62.077L49.4287 59.951L47.2607 61.668Z" fill="#2B251F" blush:i="0.1.0.1.43"/><path id="Fill 90" fill-rule="evenodd" clip-rule="evenodd" d="M43.583 66.2891L45.519 67.2631L47.261 65.5521L45.146 63.0661L43.583 66.2891Z" fill="#2B251F" blush:i="0.1.0.1.44"/></g><path id="Path (Stroke)" fill-rule="evenodd" clip-rule="evenodd" d="M58.0033 47.2512L58.0084 47.2517L58.0074 47.2569L56.0522 52.6034L50.0458 70.957L50.0372 70.9607L56.0443 52.6082L58.0033 47.2512ZM45.8418 69.0298L42.2944 67.3451L42.2958 67.3491L45.8418 69.0298ZM42.2752 67.2891L42.316 67.2114L42.4267 67.2695C42.316 67.2114 42.3159 67.2116 42.316 67.2114L42.6906 66.4972C42.7187 66.4436 42.7482 66.3873 42.7791 66.3284C42.7253 66.4292 42.675 66.5232 42.6286 66.6102L42.2717 67.2789L42.2752 67.2891ZM42.1359 67.2679C42.0256 67.2091 42.0256 67.209 42.0257 67.2089L42.4081 66.4925C42.6515 66.0365 42.9994 65.3851 43.417 64.6035C44.2522 63.0403 45.3665 60.9565 46.4827 58.8736C47.5989 56.7908 48.7172 54.7088 49.5603 53.1496C49.9818 52.37 50.3347 51.7208 50.5842 51.2675C50.7089 51.0409 50.8081 50.8628 50.8771 50.7416C50.9116 50.6811 50.9391 50.6339 50.9587 50.6017C50.9683 50.5859 50.9772 50.5719 50.9846 50.5612C50.9879 50.5565 50.9933 50.5489 50.9997 50.5416C51.0023 50.5387 51.0098 50.5302 51.021 50.5219C51.0274 50.5174 51.0449 50.5079 51.0565 50.5034C51.0763 50.4985 51.1266 50.5005 51.1549 50.5113C51.184 50.5325 51.2147 50.5805 51.22 50.6011C51.2214 50.6126 51.2216 50.6308 51.2209 50.6377C51.2195 50.6495 51.2167 50.6588 51.2158 50.6619C51.2133 50.6699 51.2103 50.6775 51.2083 50.6826C51.2036 50.6938 51.1971 50.7083 51.1894 50.7249C51.1737 50.7585 51.1501 50.807 51.1194 50.8688C51.0579 50.9926 50.9666 51.1731 50.8497 51.4017C50.6158 51.859 50.2792 52.5107 49.8739 53.2917C49.0633 54.8539 47.978 56.9341 46.8911 59.0135C45.8042 61.0928 44.7158 63.1713 43.8991 64.73C43.4907 65.5094 43.1503 66.1588 42.912 66.6133L42.5978 67.2124L49.8705 70.6663L55.8087 52.5243L57.769 47.1639C57.8082 47.0589 57.9103 46.9977 58.0132 47.0001L58.0229 47.0003L58.0825 47.011L58.0917 47.0142C58.1956 47.0502 58.2634 47.1476 58.2607 47.2547L58.2605 47.2652L58.249 47.3242L56.2877 52.6872L50.2481 71.1426L49.9677 71.2619L42.0934 67.5299L42 67.257L42.0257 67.2089L42.1359 67.2679Z" fill="#E0D4B6" blush:i="0.1.0.2"/><path id="Path 2 (Stroke)" fill-rule="evenodd" clip-rule="evenodd" d="M62.3002 52.2507C62.2997 52.25 62.2985 52.2498 62.2977 52.2504C62.297 52.2509 62.2969 52.2517 62.2973 52.2523L62.2979 52.2531L62.4624 52.486C65.5488 56.9301 68.6722 65.6186 71.8309 78.5204L71.9921 79.1822L71.9941 79.1771L71.4951 77.1503C71.4951 77.1502 71.4951 77.1504 71.4951 77.1503C68.3883 64.7469 65.3232 56.4567 62.3002 52.2507ZM71.9723 79.2324L71.6895 79.4132L71.688 79.4141C69.7834 80.5949 67.0087 82.054 63.7346 82.8671L63.2379 82.9868L63.2417 82.9896L63.7367 82.8696C63.7369 82.8696 63.7366 82.8697 63.7367 82.8696C67.1631 82.0186 70.0281 80.5097 71.9698 79.2386L71.9723 79.2324ZM63.1822 82.945L63.1492 82.2555C63.1492 82.2555 63.1492 82.2555 63.1492 82.2555C63.0623 80.5614 62.9654 78.9259 62.8573 77.3502C62.9791 79.1382 63.0862 81.003 63.1801 82.9433L63.1822 82.945ZM60.6222 59.8039C59.9687 56.9119 59.1869 54.5345 58.2533 52.6898C58.2529 52.6891 58.2519 52.6886 58.2509 52.6891C58.2501 52.6895 58.2499 52.6904 58.2502 52.691C59.1866 54.5411 59.9691 56.9197 60.6222 59.8039ZM62.1521 52.0471C62.2649 51.9663 62.4221 51.992 62.5032 52.1048C65.5572 56.3539 68.6311 64.6873 71.7376 77.0895L72.2559 79.1948L72.1732 79.4041L72.1401 79.4258C70.181 80.7126 67.2772 82.2479 63.797 83.1123L63.1859 83.2604L62.936 83.0727L62.9332 83.014C62.5843 75.7754 62.0521 69.593 61.2591 64.5332C60.4658 59.4715 59.4129 55.542 58.0271 52.8038C57.9643 52.6797 58.0143 52.5284 58.1383 52.4659C58.2622 52.4034 58.4136 52.4529 58.4764 52.5769C59.8656 55.3219 60.9146 59.2128 61.7071 64.1753C62.4999 69.1395 63.0372 75.1845 63.3988 82.2427L63.4201 82.6857L63.6744 82.6245C63.6745 82.6244 63.6742 82.6245 63.6744 82.6245C66.9137 81.8199 69.6636 80.3749 71.5556 79.2021C71.5558 79.2019 71.5553 79.2023 71.5556 79.2021L71.7148 79.1002L71.5881 78.5799M62.1521 52.0471C62.0393 52.1279 62.0132 52.2848 62.094 52.3977ZM62.094 52.3977C62.0939 52.3975 62.0941 52.3979 62.094 52.3977ZM62.094 52.3977L62.2577 52.6294C62.2576 52.6293 62.2577 52.6296 62.2577 52.6294" fill="#E0D4B6" blush:i="0.1.0.3"/></g></g><g id="Female Character/Head" blush:component="Female Character/Head" blush:defaultValue="Short Hair 5" blush:width="53" blush:height="71" transform="translate(115 46) scale(1 1)" blush:i="0.2" blush:value="Short Hair 5" blush:viewBox="0.39075067024128174 8.874999999999993 52.21849865951743 30.53000000000001"><g id="Female Character/Head/Short Hair 5" blush:viewBox="0.39075067024128174 8.874999999999993 52.21849865951743 30.53000000000001" blush:i="0.2.0"><g id="Group 186" blush:i="0.2.0.0"><path id="Fill 57" fill-rule="evenodd" clip-rule="evenodd" d="M20.2999 32.0305C20.2999 32.0305 21.4339 34.2984 23.9139 35.7864C26.3939 37.2744 29.5119 39.5424 31.0709 39.0464C32.6309 38.5504 36.7619 35.3844 37.7539 31.8414C38.7459 28.2984 39.3629 22.3925 38.7249 19.4865C38.0879 16.5815 34.4729 10.4865 28.0249 10.4865C21.5749 10.4865 15.8359 17.2894 17.3939 24.8014C17.3939 24.8014 15.6019 26.9995 17.1359 29.2665C18.6699 31.5345 20.2999 32.0305 20.2999 32.0305" fill="#db8c5c" blush:color="Skin-500" blush:i="0.2.0.0.0"/><path id="Fill 59" fill-rule="evenodd" clip-rule="evenodd" d="M24.1475 27.2823C24.1475 27.2823 26.9945 27.3523 27.7505 27.9023C27.7505 27.9023 28.0275 28.0003 27.9205 27.6363C27.9205 27.6363 28.3285 27.9283 28.3555 27.7693C28.3815 27.6093 28.1775 26.0683 26.5745 25.8553C24.9715 25.6433 23.7665 27.1133 24.1475 27.2823" fill="black" blush:i="0.2.0.0.1"/><path id="Fill 61" fill-rule="evenodd" clip-rule="evenodd" d="M36.6202 26.8741C36.6202 26.8741 34.8142 26.8481 34.0822 27.3961C34.0822 27.3961 33.8142 27.4941 33.9162 27.1311C33.9162 27.1311 33.5222 27.4231 33.4962 27.2641C33.4712 27.1041 34.2052 25.6521 35.7582 25.4391C37.3102 25.2271 37.7182 26.5851 36.6202 26.8741" fill="black" blush:i="0.2.0.0.2"/><path id="Fill 63" fill-rule="evenodd" clip-rule="evenodd" d="M31.8896 32.2247C31.8896 32.2247 31.6766 32.4027 31.8896 32.5787C32.1016 32.7567 33.5016 32.2607 33.8206 31.7997C34.1396 31.3387 33.9506 31.2867 33.4956 31.5517C33.0406 31.8177 31.8896 32.2247 31.8896 32.2247" fill="black" blush:i="0.2.0.0.3"/><path id="Fill 65" fill-rule="evenodd" clip-rule="evenodd" d="M29.0196 33.6602C29.0196 33.6602 28.9316 33.5012 29.6926 33.5012C30.4546 33.5012 30.3836 33.6422 31.6236 33.6602C32.8636 33.6782 33.3716 33.6602 32.8876 33.9782C32.4036 34.2982 32.4386 34.2802 32.3506 34.5282C32.2616 34.7762 31.1406 35.2192 30.2566 34.9182C29.3736 34.6162 28.4716 33.8172 29.0196 33.6602" fill="#EE4E2F" blush:i="0.2.0.0.4"/><path id="Fill 67" fill-rule="evenodd" clip-rule="evenodd" d="M23.6987 23.1007C23.8337 23.0587 23.6517 23.3367 24.2657 23.2307C24.8797 23.1247 26.5567 22.9357 28.0687 23.8807C28.0687 23.8807 28.3387 23.6677 28.3577 23.2667C28.3747 22.8907 25.8287 21.6037 23.6627 23.0307C23.5147 23.1277 23.5607 23.1437 23.6987 23.1007" fill="black" blush:i="0.2.0.0.5"/><path id="Fill 69" fill-rule="evenodd" clip-rule="evenodd" d="M36.6204 23.2424C36.6204 23.2424 35.7224 22.2744 34.2104 22.7224C32.6994 23.1724 32.8394 23.8564 32.8874 24.0464C32.9354 24.2344 34.0214 23.3124 35.1554 23.3254C36.2894 23.3374 36.6204 23.5734 36.6204 23.2424" fill="black" blush:i="0.2.0.0.6"/></g><g id="Group" blush:i="0.2.0.1"><path id="Fill 156" fill-rule="evenodd" clip-rule="evenodd" d="M0.807106 36.1553C0.807106 36.1553 1.70511 36.7223 2.41311 36.5333C3.12211 36.3443 9.40611 36.2973 10.3501 36.7693C11.2951 37.2423 14.2241 37.0523 15.5001 37.0063C16.7761 36.9593 18.1461 37.8803 19.2801 37.5853C20.4131 37.2893 22.0201 37.7133 23.1541 37.6433C24.2871 37.5733 26.1691 38.0453 26.1691 38.0453C26.1691 38.0453 24.8541 36.7483 24.9021 35.3653C24.9491 33.9823 25.4691 32.2813 22.4921 30.8173C19.5161 29.3523 20.8861 25.7623 20.8861 25.7623C20.8861 25.7623 24.2871 25.1933 24.8541 25.1473C24.8541 25.1473 24.0511 17.0693 25.0911 15.3683C25.0911 15.3683 25.5571 23.6393 26.5291 24.4173C26.5291 24.4173 31.9881 24.2343 32.6491 24.0063C32.6491 24.0063 33.3051 19.4303 32.6231 16.2653C32.6231 16.2653 33.6641 20.4233 34.1971 23.7773C34.1971 23.7773 37.2381 24.0183 38.7471 23.4723C38.7471 23.4723 38.5081 29.2583 37.5161 32.1863C36.5241 35.1163 32.6231 38.3403 32.6231 38.3403C32.6231 38.3403 36.3351 38.7543 38.1771 38.1393C40.0201 37.5253 40.0201 38.2583 41.5321 37.5853C43.0431 36.9113 43.6101 37.3843 46.2561 36.3913C48.9021 35.3993 48.4291 35.5663 50.0361 35.3653C51.6421 35.1633 52.2691 34.6913 52.2691 34.3603C52.2691 33.9823 49.6661 36.3073 50.2631 30.5633C50.5381 27.9103 48.6431 25.4513 45.9941 25.1493C42.5701 24.7593 42.8111 27.2403 40.7761 20.2813C38.7441 13.3373 32.1771 8.70831 29.8151 9.01431C27.4531 9.32131 26.7871 11.1633 25.7261 9.65131C24.8291 8.37431 17.1631 9.55931 13.2141 16.8633C12.2181 18.7063 11.8301 20.7893 11.6501 22.8773C11.5911 23.5583 11.2481 24.2383 10.1141 24.2263C7.97411 24.2043 3.89511 25.4663 5.35411 29.4643C5.49811 29.8573 5.29311 30.2973 4.89511 30.4273C3.19311 30.9913 -0.600894 32.6733 0.807106 36.1553" fill="#765227" blush:color="Hair-500" blush:i="0.2.0.1.0"/><g id="Group 2" blush:i="0.2.0.1.1"><path id="Fill 158" fill-rule="evenodd" clip-rule="evenodd" d="M2.41345 36.5331C2.23045 35.7501 2.23045 34.9101 2.47645 34.1201C2.71745 33.3291 3.27945 32.6181 4.03345 32.2241C4.79445 31.8201 5.60445 31.7071 6.33245 31.4261C6.69045 31.2931 7.07145 31.1341 7.27045 30.9151C7.45945 30.7271 7.39245 30.4091 7.27345 30.0291L6.89145 28.8871C6.76245 28.4541 6.74945 27.9301 6.96545 27.4851C7.42145 26.5851 8.32045 26.2271 9.11845 26.0011C9.53045 25.8881 9.95145 25.8241 10.3804 25.8051C10.5954 25.7961 10.8134 25.7981 11.0394 25.8241C11.2394 25.8451 11.3604 25.8471 11.5124 25.8101C12.0874 25.6681 12.4974 24.9641 12.7554 24.2641C13.3194 22.8181 13.4484 21.2501 13.7044 19.6181C14.0154 17.9631 14.8234 16.4711 15.8064 15.1671C16.7944 13.8571 18.0034 12.7301 19.3454 11.8081C20.6924 10.9091 22.2244 10.2101 23.8384 10.0771C22.2544 10.3801 20.8074 11.1291 19.5584 12.1071C18.2954 13.0651 17.1654 14.2071 16.2724 15.5071C15.4014 16.8071 14.6244 18.2171 14.3754 19.7431C14.1524 21.2791 14.0474 22.9621 13.4544 24.5351C13.3074 24.9291 13.1074 25.3191 12.8404 25.6831C12.5754 26.0411 12.1834 26.3871 11.6754 26.5071C11.4344 26.5691 11.1494 26.5521 10.9514 26.5251C10.7784 26.5031 10.5924 26.4971 10.4064 26.5031C10.0334 26.5141 9.65245 26.5661 9.28845 26.6601C8.57145 26.8391 7.83045 27.1861 7.54945 27.7631C7.40845 28.0471 7.41145 28.3711 7.49145 28.7121L7.82545 29.8721C7.88145 30.0711 7.92845 30.2901 7.93745 30.5341C7.95145 30.7831 7.84045 31.0841 7.65745 31.2661C7.28445 31.6241 6.87445 31.7341 6.48445 31.8721C5.70145 32.1311 4.88145 32.2241 4.20145 32.5491C3.49845 32.8561 2.94645 33.4531 2.66345 34.1861C2.38445 34.9181 2.30945 35.7381 2.41345 36.5331" fill="#6F3C00" blush:i="0.2.0.1.1.0"/><path id="Fill 160" fill-rule="evenodd" clip-rule="evenodd" d="M29.2012 10.3643C32.0822 10.8303 34.7292 12.6633 36.2982 15.1793C36.5002 15.4903 36.6392 15.8363 36.8132 16.1633C36.9932 16.4873 37.1222 16.8343 37.2372 17.1853C37.3502 17.5363 37.4992 17.8773 37.5822 18.2363C37.6632 18.5953 37.7352 18.9573 37.8032 19.3173C37.9572 20.0373 37.9372 20.7783 38.0102 21.5033C37.9872 22.2333 37.9392 22.9623 37.8822 23.6833C37.8262 22.9563 37.8252 22.2333 37.7652 21.5163C37.6442 20.8063 37.6212 20.0823 37.4252 19.3913C37.1392 17.9883 36.5982 16.6553 35.8722 15.4413C35.1592 14.2123 34.1482 13.1793 33.0202 12.3153C31.8842 11.4543 30.5872 10.7913 29.2012 10.3643" fill="#6F3C00" blush:i="0.2.0.1.1.1"/><path id="Fill 162" fill-rule="evenodd" clip-rule="evenodd" d="M28.9648 10.3643C30.1898 10.8793 31.2618 11.7173 32.2048 12.6603C33.1548 13.6053 33.9438 14.7083 34.5878 15.8853C35.1858 17.0843 35.7108 18.3293 35.9738 19.6403C36.1518 20.2833 36.1978 20.9543 36.3118 21.6053C36.3588 22.2673 36.3818 22.9303 36.3818 23.5893C36.0898 22.2983 35.8348 21.0223 35.4178 19.7953C35.0338 18.5583 34.5118 17.3793 33.9268 16.2393C33.3268 15.1033 32.5938 14.0463 31.7808 13.0483C30.9568 12.0573 30.0268 11.1433 28.9648 10.3643" fill="#6F3C00" blush:i="0.2.0.1.1.2"/><path id="Fill 164" fill-rule="evenodd" clip-rule="evenodd" d="M28.1196 11.6825C28.7686 12.5455 29.2946 13.4945 29.7616 14.4705C30.2306 15.4475 30.6006 16.4705 30.8986 17.5145C31.1866 18.5615 31.3666 19.6415 31.4286 20.7265C31.4876 21.8135 31.3876 22.9065 31.1386 23.9535C31.1816 22.8755 31.1826 21.8135 31.0456 20.7595C30.8956 19.7095 30.7096 18.6665 30.4166 17.6465C29.8516 15.6005 29.0576 13.6195 28.1196 11.6825" fill="#6F3C00" blush:i="0.2.0.1.1.3"/><path id="Fill 166" fill-rule="evenodd" clip-rule="evenodd" d="M26.8862 11.6825C28.1902 13.4415 28.8702 15.5895 29.2672 17.7265C29.4282 18.8065 29.5502 19.8945 29.5262 20.9855C29.5342 22.0755 29.4042 23.1615 29.2012 24.2265L28.9422 21.0125C28.8472 19.9505 28.6972 18.8995 28.5282 17.8525C28.3512 16.8075 28.1232 15.7725 27.8592 14.7435C27.5792 13.7175 27.2882 12.6905 26.8862 11.6825" fill="#6F3C00" blush:i="0.2.0.1.1.4"/><path id="Fill 168" fill-rule="evenodd" clip-rule="evenodd" d="M21.8937 11.9862C21.0527 12.9052 20.3227 13.9182 19.6647 14.9672C19.0017 16.0142 18.4127 17.1072 17.9357 18.2462C16.9787 20.5152 16.4027 22.9642 16.5067 25.4182C16.5437 26.6362 16.7297 27.8612 17.3017 28.9212C17.8517 29.9952 18.7957 30.7952 19.8207 31.4712C20.8247 32.1602 22.0207 32.7562 22.7077 33.8892C23.3587 35.0562 23.1547 36.4102 22.8227 37.5852C23.0807 36.3862 23.1647 35.0442 22.4937 34.0202C21.8267 33.0022 20.6617 32.4632 19.6077 31.8022C18.5357 31.1602 17.5127 30.2892 16.8977 29.1382C16.2697 27.9992 16.0407 26.6932 16.0137 25.4332C15.9487 22.8982 16.5317 20.3722 17.5937 18.0942C18.6477 15.8122 20.1107 13.7282 21.8937 11.9862" fill="#6F3C00" blush:i="0.2.0.1.1.5"/><path id="Fill 170" fill-rule="evenodd" clip-rule="evenodd" d="M24.335 11.2109C23.348 12.2569 22.604 13.4769 22.014 14.7479C21.439 16.0279 21.023 17.3719 20.758 18.7469C20.484 20.1239 20.4 21.5319 20.367 22.9459C20.344 23.6539 20.409 24.3629 20.423 25.0759C20.468 25.7879 20.556 26.4959 20.588 27.2209C20.389 26.5299 20.228 25.8259 20.058 25.1209C19.969 24.4059 19.838 23.6899 19.79 22.9659C19.686 21.5159 19.752 20.0469 20.022 18.6069C20.317 17.1739 20.776 15.7619 21.502 14.4859C22.222 13.2189 23.136 12.0289 24.335 11.2109" fill="#6F3C00" blush:i="0.2.0.1.1.6"/><path id="Fill 172" fill-rule="evenodd" clip-rule="evenodd" d="M18.519 14.9434C17.929 15.8394 17.44 16.7914 17.028 17.7724C16.598 18.7444 16.247 19.7494 15.957 20.7674C15.359 22.7984 15 24.9034 14.864 27.0064C14.808 28.0354 14.772 29.1314 15.335 29.8754C15.91 30.6184 16.934 31.1234 17.764 31.8114C18.63 32.4814 19.436 33.3844 19.665 34.5164C19.879 35.6444 19.47 36.7864 18.76 37.5854C19.336 36.6854 19.616 35.5834 19.31 34.6024C19.036 33.6134 18.275 32.8494 17.426 32.2754L16.089 31.3944C15.643 31.0904 15.169 30.7644 14.792 30.2844C14.406 29.8044 14.235 29.1944 14.159 28.6334C14.088 28.0654 14.098 27.5114 14.119 26.9624C14.306 24.7934 14.683 22.6434 15.403 20.5904C16.124 18.5514 17.093 16.5654 18.519 14.9434" fill="#6F3C00" blush:i="0.2.0.1.1.7"/><path id="Fill 174" fill-rule="evenodd" clip-rule="evenodd" d="M15.4233 29.8573C14.7223 30.3013 14.0293 30.7583 13.4393 31.2993C12.8493 31.8363 12.3693 32.5513 12.9663 33.0823C13.4153 33.6473 14.3353 33.8313 14.9233 34.5553C15.5083 35.2743 15.5653 36.1923 15.5003 37.0053C15.4213 36.5953 15.3663 36.1863 15.2183 35.8103C15.1013 35.4263 14.9093 35.0763 14.6373 34.8133C14.1213 34.2633 13.2323 34.1273 12.5873 33.4073C12.4393 33.2333 12.3143 33.0313 12.2343 32.7673C12.2103 32.6413 12.2103 32.5033 12.2133 32.3753C12.2443 32.2533 12.2663 32.1233 12.3183 32.0143C12.5273 31.5763 12.8483 31.2633 13.1913 31.0083C13.8763 30.4933 14.6303 30.1183 15.4233 29.8573" fill="#6F3C00" blush:i="0.2.0.1.1.8"/><path id="Fill 176" fill-rule="evenodd" clip-rule="evenodd" d="M10.032 36.668C10.422 35.46 10.485 33.945 9.16 33.402C8.634 32.99 8.174 32.332 8.232 31.559C8.312 30.778 8.928 30.224 9.514 29.914C10.716 29.295 12.06 29.125 12.938 28.267C13.367 27.861 13.574 27.216 13.859 26.641C14.136 26.057 14.382 25.459 14.62 24.855C14.49 25.492 14.289 26.112 14.086 26.731C13.978 27.039 13.86 27.343 13.738 27.646C13.624 27.946 13.45 28.274 13.219 28.529C12.242 29.58 10.811 29.745 9.753 30.353C9.211 30.623 8.751 31.059 8.683 31.605C8.619 32.155 8.971 32.7 9.41 33.112C9.522 33.217 9.644 33.312 9.769 33.403C9.906 33.514 10.052 33.628 10.154 33.778C10.369 34.069 10.467 34.422 10.487 34.76C10.506 35.44 10.319 36.087 10.032 36.668" fill="#6F3C00" blush:i="0.2.0.1.1.9"/><path id="Fill 178" fill-rule="evenodd" clip-rule="evenodd" d="M38.7467 20.7539C38.8147 21.6749 38.9527 22.5889 39.2067 23.4659C39.4527 24.3379 39.8247 25.1939 40.4297 25.8249C41.0397 26.4709 41.9157 26.6099 42.8317 26.6769C43.7367 26.7719 44.6407 26.6099 45.6427 26.8639C46.1417 27.0119 46.5717 27.3799 46.8377 27.7909C47.1087 28.2069 47.3127 28.6299 47.4657 29.0979C47.6097 29.5639 47.6697 30.0869 47.5397 30.5809C47.4237 31.0809 47.1297 31.4829 46.9487 31.8659C46.5217 32.6409 47.1647 33.4879 47.7657 34.1119C48.3807 34.7519 49.3127 35.1469 50.2247 34.9229C49.3397 35.2639 48.3047 34.9139 47.5997 34.2929C47.2467 33.9739 46.9377 33.6159 46.6897 33.1919C46.4347 32.7779 46.3757 32.1719 46.5947 31.7169C46.7847 31.2599 47.0317 30.8869 47.1207 30.4779C47.2187 30.0719 47.1657 29.6479 47.0327 29.2359C46.7307 28.4339 46.2857 27.5479 45.4927 27.3409C44.6997 27.1139 43.7217 27.2339 42.7947 27.1289C42.3217 27.0689 41.8707 27.0459 41.3877 26.8839C40.8967 26.7619 40.4897 26.4349 40.1517 26.0889C38.8997 24.5559 38.7157 22.5729 38.7467 20.7539" fill="#6F3C00" blush:i="0.2.0.1.1.10"/><path id="Fill 180" fill-rule="evenodd" clip-rule="evenodd" d="M38.5938 25.7627C39.0288 26.9737 39.9228 28.0167 41.0828 28.3237C41.6428 28.4737 42.2838 28.4957 42.9348 28.5547C43.5788 28.6487 44.2498 28.5977 44.9878 29.0907C45.3618 29.3737 45.4908 29.8817 45.4728 30.2397C45.4678 30.6167 45.4038 30.9577 45.3148 31.2837C45.1258 31.9317 44.9438 32.5157 44.8078 33.1277C44.6728 33.7337 44.6548 34.3397 44.8818 34.9057C45.0818 35.4867 45.4958 35.9997 45.8628 36.5337C45.3698 36.1107 44.8957 35.6557 44.5477 35.0597C44.2107 34.4497 44.1598 33.7017 44.2378 33.0417C44.2938 32.3747 44.4938 31.7197 44.6248 31.1167C44.7618 30.5327 44.8318 29.8667 44.5148 29.6727C44.1788 29.4057 43.4718 29.3437 42.8568 29.2587C42.2298 29.1577 41.5617 29.1357 40.8937 28.8667C39.5517 28.3677 38.7227 27.0447 38.5938 25.7627" fill="#6F3C00" blush:i="0.2.0.1.1.11"/><path id="Fill 182" fill-rule="evenodd" clip-rule="evenodd" d="M37.811 31.1484C38.527 31.1774 39.234 31.4054 39.874 31.7644C40.515 32.1254 41.07 32.6714 41.427 33.3334C41.77 33.9974 41.967 34.7394 41.941 35.4734C41.952 35.8384 41.872 36.1984 41.839 36.5544C41.742 36.9034 41.648 37.2494 41.532 37.5854C41.538 37.2234 41.582 36.8764 41.596 36.5274C41.578 36.1784 41.613 35.8314 41.557 35.4924C41.494 34.8094 41.3 34.1594 40.99 33.5744C40.365 32.3844 39.143 31.6124 37.811 31.1484" fill="#6F3C00" blush:i="0.2.0.1.1.12"/><path id="Fill 184" fill-rule="evenodd" clip-rule="evenodd" d="M37.3594 32.668C37.8834 32.726 38.3874 33.011 38.7564 33.418C39.1384 33.82 39.3754 34.345 39.4984 34.875C39.6234 35.412 39.5964 35.956 39.5154 36.477C39.4584 36.733 39.3874 36.987 39.3054 37.232C39.1884 37.471 39.0964 37.711 38.9594 37.935C38.9404 37.408 38.9364 36.913 38.9324 36.431C38.8904 35.951 38.8844 35.479 38.7664 35.037C38.5774 34.146 38.1564 33.338 37.3594 32.668" fill="#6F3C00" blush:i="0.2.0.1.1.13"/></g></g></g></g><g id="Female Character/Accesories" blush:component="Female Character/Accesories" blush:defaultValue="None" blush:width="34" blush:height="36" transform="translate(127 54) scale(34 36)" blush:i="0.3" blush:value="None" blush:viewBox="1.75 1.75 0 0"><g id="Female Character/Accesories/None" stroke="none" stroke-width="1" fill="none" fill-rule="evenodd" fill-opacity="0" blush:viewBox="1.75 1.75 0 0" blush:i="0.3.0"/></g></g></svg>