<svg viewBox="22.325000000000003 8.225000000000009 49.349999999999994 82.25000000000001" fill="none" xmlns="http://www.w3.org/2000/svg" xmlns:xlink="http://www.w3.org/1999/xlink" xmlns:blush="http://design.blush" overflow="visible" width="49.349999999999994px" height="82.25000000000001px"><g id="Master/New Stickers/Brush" clip-path="url(#clip0_509_5759346e7949e-02b5-4a2f-81fe-16e82e435500)" blush:has-customizable-colors="true" blush:viewBox="22.560000000000002 8.460000000000008 48.87999999999999 81.78000000000002" blush:i="0"><g id="Group 304" blush:i="0.0"><g id="Group 302" blush:i="0.0.0"><path id="Ellipse 13" d="M44.8324 62.6006C35.3469 79.0299 25.7724 91.2602 23.4471 89.9177C21.1218 88.5752 26.9263 74.1683 36.4117 57.739C45.8972 41.3097 61.3382 24.2883 61.3382 24.2883C61.3382 24.2883 54.3178 46.1713 44.8324 62.6006Z" fill="#5D74E0" blush:i="0.0.0.0"/><path id="Ellipse 12" d="M69.5015 23.287C66.4543 28.565 61.437 31.3731 58.2952 29.5592C55.1534 27.7453 55.0768 21.9962 58.124 16.7182C61.1713 11.4402 70.4679 8.47551 70.4679 8.47551C70.4679 8.47551 72.5487 18.009 69.5015 23.287Z" fill="#A96D18" blush:i="0.0.0.1"/><path id="Vector 29 (Stroke)" fill-rule="evenodd" clip-rule="evenodd" d="M68.1262 11.2734C68.1866 11.3805 68.1486 11.5163 68.0415 11.5766C65.8181 12.8289 63.2166 15.1178 61.1553 17.9202C59.0933 20.7237 57.5894 24.0171 57.5243 27.276C57.5218 27.399 57.4202 27.4966 57.2972 27.4942C57.1743 27.4917 57.0766 27.3901 57.079 27.2671C57.1466 23.8832 58.7037 20.5018 60.7966 17.6564C62.8903 14.8099 65.5377 12.4757 67.8229 11.1886C67.9301 11.1283 68.0659 11.1662 68.1262 11.2734ZM67.9426 14.4401C68.0614 14.4717 68.1321 14.5936 68.1005 14.7125C66.1084 22.2044 61.9785 26.3672 57.4828 28.5901C57.3726 28.6446 57.239 28.5994 57.1845 28.4892C57.13 28.3789 57.1752 28.2454 57.2854 28.1909C61.6658 26.025 65.711 21.9661 67.6701 14.5981C67.7017 14.4792 67.8237 14.4085 67.9426 14.4401ZM69.3549 19.4128C69.474 19.4434 69.5457 19.5648 69.515 19.6839C67.9065 25.9389 62.8742 29.0011 59.3572 29.722C59.2367 29.7467 59.1191 29.669 59.0944 29.5486C59.0697 29.4281 59.1473 29.3104 59.2678 29.2857C62.6528 28.5919 67.5257 25.6312 69.0837 19.573C69.1144 19.4539 69.2358 19.3821 69.3549 19.4128Z" fill="#6F3C00" blush:i="0.0.0.2"/><g id="Group 301" blush:i="0.0.0.3"><path id="Rectangle 42" d="M51.4365 32.9041C51.8827 32.1313 52.8709 31.8665 53.6437 32.3127L58.1832 34.9336C58.956 35.3798 59.2208 36.368 58.7746 37.1408V37.1408C58.3284 37.9136 57.3402 38.1783 56.5674 37.7322L52.0279 35.1113C51.2551 34.6651 50.9903 33.6769 51.4365 32.9041V32.9041Z" fill="#C4C4C4" blush:i="0.0.0.3.0"/><path id="Rectangle 44" d="M53.0813 30.3292C53.544 29.5278 54.5688 29.2532 55.3702 29.7159L59.8061 32.277C60.6075 32.7397 60.8821 33.7644 60.4194 34.5659V34.5659C59.9567 35.3673 58.9319 35.6419 58.1305 35.1792L53.6946 32.6181C52.8932 32.1554 52.6186 31.1307 53.0813 30.3292V30.3292Z" fill="#C4C4C4" blush:i="0.0.0.3.1"/><path id="Rectangle 43" d="M54.727 27.4789C55.1732 26.7061 56.1613 26.4413 56.9341 26.8875L61.4736 29.5084C62.2464 29.9545 62.5112 30.9427 62.0651 31.7155V31.7155C61.6189 32.4883 60.6307 32.7531 59.8579 32.3069L55.3184 29.6861C54.5456 29.2399 54.2808 28.2517 54.727 27.4789V27.4789Z" fill="#C4C4C4" blush:i="0.0.0.3.2"/><path id="Vector 27 (Stroke)" fill-rule="evenodd" clip-rule="evenodd" d="M55.2432 29.7252C55.3046 29.6187 55.4408 29.5822 55.5473 29.6437L59.5969 31.9817C59.7034 32.0432 59.7399 32.1794 59.6784 32.2859C59.617 32.3924 59.4808 32.4289 59.3743 32.3674L55.3247 30.0294C55.2182 29.9679 55.1817 29.8317 55.2432 29.7252Z" fill="#A1A1A1" blush:i="0.0.0.3.3"/><path id="Vector 28 (Stroke)" fill-rule="evenodd" clip-rule="evenodd" d="M53.5914 32.5857C53.6529 32.4792 53.7891 32.4427 53.8956 32.5042L57.9452 34.8422C58.0517 34.9037 58.0882 35.0399 58.0267 35.1464C57.9652 35.2529 57.829 35.2894 57.7225 35.2279L53.6729 32.8899C53.5664 32.8284 53.5299 32.6922 53.5914 32.5857Z" fill="#A1A1A1" blush:i="0.0.0.3.4"/></g></g></g></g><defs><clipPath id="clip0_509_5759346e7949e-02b5-4a2f-81fe-16e82e435500"><rect width="92.8927" height="92.8927" fill="white" transform="translate(0.469055 0.2883)"/></clipPath></defs></svg>