<svg viewBox="1.1749999999999972 19.97500000000001 90.47500000000001 51.699999999999996" fill="none" xmlns="http://www.w3.org/2000/svg" xmlns:xlink="http://www.w3.org/1999/xlink" xmlns:blush="http://design.blush" overflow="visible" width="90.47500000000001px" height="51.699999999999996px"><g id="Master/New Stickers/Lines Bubble Chat" blush:has-customizable-colors="true" blush:viewBox="1.8799999999999955 20.210000000000008 89.29999999999997 51.22999999999999" blush:i="0"><g id="Group 290" blush:i="0.0"><path id="Rectangle 25 (Stroke)" fill-rule="evenodd" clip-rule="evenodd" d="M78.0278 21.6633H15.351C8.82583 21.6633 3.53609 26.9531 3.53609 33.4783V44.0194C3.53609 50.5446 8.82583 55.8343 15.3511 55.8343H69.6376C73.5287 55.8343 77.254 57.4095 79.9648 60.201L89.449 69.9674C89.4979 70.0178 89.5371 70.0316 89.5658 70.0368C89.6017 70.0435 89.6493 70.0406 89.6997 70.0202C89.75 69.9998 89.7861 69.9687 89.8073 69.9389C89.8242 69.9151 89.8427 69.8779 89.8427 69.8077V33.4783C89.8427 26.9531 84.553 21.6633 78.0278 21.6633ZM15.351 20.3731C8.11328 20.3731 2.24591 26.2405 2.24591 33.4783V44.0194C2.24591 51.2571 8.11328 57.1245 15.3511 57.1245H69.6376C73.1799 57.1245 76.5714 58.5585 79.0392 61.0998L88.5234 70.8663C89.474 71.8451 91.1329 71.1722 91.1329 69.8077V33.4783C91.1329 26.2405 85.2655 20.3731 78.0278 20.3731H15.351Z" fill="#EABD91" blush:i="0.0.0"/></g><g id="Group 291" blush:i="0.1"><path id="Vector 23 (Stroke)" fill-rule="evenodd" clip-rule="evenodd" d="M17.0388 30.7376C17.0388 30.3813 17.3276 30.0925 17.6838 30.0925H76.982C77.3382 30.0925 77.6271 30.3813 77.6271 30.7376C77.6271 31.0939 77.3382 31.3827 76.982 31.3827H17.6838C17.3276 31.3827 17.0388 31.0939 17.0388 30.7376Z" fill="#EABD91" blush:i="0.1.0"/><path id="Vector 24 (Stroke)" fill-rule="evenodd" clip-rule="evenodd" d="M17.0388 39.1668C17.0388 38.8105 17.3276 38.5217 17.6838 38.5217H68.1117C68.468 38.5217 68.7568 38.8105 68.7568 39.1668C68.7568 39.523 68.468 39.8118 68.1117 39.8118H17.6838C17.3276 39.8118 17.0388 39.523 17.0388 39.1668Z" fill="#EABD91" blush:i="0.1.1"/><path id="Vector 25 (Stroke)" fill-rule="evenodd" clip-rule="evenodd" d="M17.0388 47.5959C17.0388 47.2396 17.3276 46.9508 17.6838 46.9508H57.8693C58.2256 46.9508 58.5144 47.2396 58.5144 47.5959C58.5144 47.9522 58.2256 48.241 57.8693 48.241H17.6838C17.3276 48.241 17.0388 47.9522 17.0388 47.5959Z" fill="#EABD91" blush:i="0.1.2"/></g></g></svg>