<svg viewBox="54.19999999999999 56.28989361702125 132.11249999999995 200.0664893617021" fill="none" xmlns="http://www.w3.org/2000/svg" xmlns:xlink="http://www.w3.org/1999/xlink" xmlns:blush="http://design.blush" overflow="visible" width="132.11249999999995px" height="200.0664893617021px"><g id="Master/Female Character/Walking" blush:has-customizable-colors="true" blush:viewBox="55.55500000000001 50.186170212765944 136.85499999999996 204.81382978723403" blush:i="0"><g id="Female Character Walking/Lower Body" blush:component="Female Character Walking/Lower Body" blush:defaultValue="Long Skirt 2" blush:width="129" blush:height="132" transform="translate(56 123) scale(1 1)" blush:i="0.0" blush:value="Long Skirt 2" blush:viewBox="-0.46165644171779263 0 129.2638036809816 131.33999999999997"><g id="Female Character Walking/Lower Body/Long Skirt 2" blush:viewBox="-0.46165644171779263 0 129.2638036809816 131.33999999999997" blush:i="0.0.0"><g id="Group 16" blush:i="0.0.0.0"><path id="Fill 1" fill-rule="evenodd" clip-rule="evenodd" d="M74.0412 9.11994C74.0412 9.11994 57.5932 18.3599 56.6692 35.5479C56.6692 35.5479 43.4192 68.2819 43.4192 68.6119C43.4192 68.9419 33.7402 70.8109 28.1292 76.4219C22.5202 82.0319 17.3502 88.0819 16.1402 86.8719C14.9302 85.6619 10.7492 83.1319 9.54023 84.3419C8.33023 85.5519 6.57023 89.7309 3.71023 91.3819C0.850235 93.0319 0.740234 96.9919 0.740234 99.4119C0.740234 101.832 1.40023 104.691 3.05023 104.472C4.70023 104.252 4.81023 100.182 5.80023 99.9619C6.79023 99.7419 10.5302 96.9919 11.8502 95.8909C11.8502 95.8909 21.0902 93.4719 23.9502 92.5919C26.8102 91.7119 36.2702 89.5119 42.3192 88.4119C48.3702 87.3109 56.6202 86.2119 60.5802 81.5919C64.5402 76.9719 80.2692 60.4719 82.6892 49.4719C82.6892 49.4719 91.8192 67.1819 92.4792 68.5019C93.1392 69.8219 94.2392 91.1619 101.059 98.0919C107.879 105.021 111.845 111.861 111.069 112.391C108.904 113.872 106.119 116.351 107.109 118.111C108.099 119.872 112.829 121.962 113.819 125.922C114.809 129.882 116.019 130.101 119.209 130.321C122.399 130.542 125.149 130.981 126.029 129.991C126.909 129.002 126.469 128.012 123.389 127.021C123.389 127.021 120.587 121.946 119.267 117.326C117.947 112.706 110.629 83.6819 111.399 69.9319C112.169 56.1819 110.629 49.2519 107.219 39.1319C103.809 29.0129 96.2192 16.6919 96.2192 16.6919C96.2192 16.6919 95.6692 11.8519 94.3492 9.21194C93.0292 6.57194 89.0692 1.29194 83.7892 1.18294C78.5092 1.07194 75.8432 2.97694 74.0412 9.11994" fill="#ffd4aa" blush:color="Skin-500" blush:i="0.0.0.0.0"/><path id="Fill 3" fill-rule="evenodd" clip-rule="evenodd" d="M82.6895 49.4715C83.0675 47.8005 83.5795 46.1655 84.1465 44.5485C84.7115 42.9305 85.3775 41.3465 86.1595 39.8065C86.5595 39.0415 86.9915 38.2875 87.5025 37.5745C88.0345 36.8545 88.5725 36.2365 89.1185 35.5705L92.3345 31.5895C91.5185 33.0985 90.5645 34.5235 89.5775 35.9205C89.1075 36.6255 88.5305 37.3025 88.0835 37.9825C87.6185 38.6665 87.2045 39.3995 86.8245 40.1515C86.0445 41.6465 85.3685 43.2035 84.6805 44.7585L82.6895 49.4715Z" fill="#7A3710" blush:i="0.0.0.0.1"/><path id="Fill 5" fill-rule="evenodd" clip-rule="evenodd" d="M70.1074 12.6336C71.1324 12.9976 72.1574 13.3516 73.1984 13.6546C74.2304 13.9826 75.2684 14.2896 76.3174 14.5486C78.4094 15.0786 80.5104 15.5876 82.6494 15.8316C84.7764 16.1306 86.9284 16.2806 89.0694 16.1416C91.2074 15.9906 93.3234 15.5646 95.3504 14.7506C93.4594 15.8476 91.3014 16.4436 89.1204 16.7156C86.9294 16.9806 84.7224 16.8206 82.5474 16.5736C80.3764 16.2626 78.2404 15.7566 76.1574 15.1006C74.0804 14.4306 72.0354 13.6516 70.1074 12.6336" fill="#0E2C4F" blush:i="0.0.0.0.2"/><path id="Fill 7" fill-rule="evenodd" clip-rule="evenodd" d="M87.4361 11.1648C87.8251 11.2068 88.0891 11.4988 88.2791 11.7848C88.4721 12.0778 88.5841 12.4068 88.6551 12.7458C88.7091 13.0888 88.7271 13.4408 88.5991 13.8318C88.4151 14.3008 88.0381 14.5278 87.6071 14.5938C87.3881 14.6228 87.1271 14.5568 86.9551 14.4018C86.7831 14.2508 86.6841 14.0608 86.6381 13.8848C86.5331 13.5278 86.5501 13.1928 86.5771 12.8698C86.6651 12.2448 86.8071 11.5188 87.4361 11.1648M87.4381 11.2388C86.9981 11.6178 86.9241 12.3058 86.9511 12.8838C86.9301 13.4658 87.1851 14.1568 87.5171 13.9998C87.6901 13.9518 87.8941 13.7528 87.8891 13.6148C87.9241 13.3998 87.9311 13.1148 87.9111 12.8408C87.8701 12.2868 87.8181 11.6798 87.4381 11.2388" fill="#0E2C4F" blush:i="0.0.0.0.3"/><path id="Fill 9" fill-rule="evenodd" clip-rule="evenodd" d="M73.5379 8.12551C73.5379 8.12551 60.6089 11.9995 54.7649 36.2655L42.2849 66.8705L37.3779 69.2515C36.8879 69.4895 36.7939 70.1455 37.2029 70.5045C37.4629 70.7335 37.7819 71.0085 38.1599 71.3235L44.3479 69.2365C44.3479 69.2365 58.9029 53.5125 60.9489 54.5955C60.9489 54.5955 54.2919 81.8265 56.1579 82.7125C70.5759 89.5555 91.8869 94.8995 116.778 86.1515C117.2 86.0025 117.466 85.5815 117.409 85.1385C116.58 78.6485 111.244 30.0155 98.3069 12.5815L95.4409 5.58852C95.4409 5.58852 88.6779 -0.761485 82.6899 0.0565151C76.7009 0.875515 73.9059 5.96851 73.9059 5.96851L73.5379 8.12551Z" fill="#819500" blush:i="0.0.0.0.4"/><path id="Fill 11" fill-rule="evenodd" clip-rule="evenodd" d="M15.805 86.5681C15.805 86.5681 9.70899 85.7641 7.29299 89.3691C4.877 92.9731 2.73799 90.6361 1.78699 97.4091C1.78699 97.4091 0.717995 99.2701 5.50999 100.617C5.50999 100.617 4.322 105.726 2.263 105.568C0.202995 105.41 -0.505005 101.489 0.363995 96.8541C1.23299 92.2201 3.281 91.4031 4.758 90.2401C6.235 89.0781 6.936 87.0321 7.332 86.0031C7.728 84.9721 10.422 82.4891 11.214 82.9191C12.006 83.3481 16.427 86.0051 16.284 86.4381C16.14 86.8721 15.805 86.5681 15.805 86.5681" fill="#201812" blush:i="0.0.0.0.5"/><g id="Group 15" blush:i="0.0.0.0.6"><path id="Fill 13" fill-rule="evenodd" clip-rule="evenodd" d="M111.069 112.391C111.069 112.391 109.272 112.892 107.313 115.096C105.354 117.3 106.228 118.525 107.873 119.329C109.517 120.134 112.945 127.027 113.89 128.321C114.835 129.616 114.345 130.631 117.704 130.805C121.062 130.979 128.061 131.765 128.472 130.339C128.883 128.913 125.243 127.25 123.389 127.021C123.389 127.021 117.1 129.009 116.054 128.059C115.009 127.108 112.633 122.483 111.777 121.247C110.923 120.012 110.859 119.917 110.891 118.586C110.923 117.256 110.424 113.102 111.069 112.391" fill="#201812" blush:i="0.0.0.0.6.0"/></g></g></g></g><g id="Female Character/Upper Body" blush:component="Female Character/Upper Body" blush:defaultValue="Blouse 2" blush:width="106" blush:height="123" transform="translate(86 81) scale(1 1)" blush:i="0.1" blush:value="Blouse 2" blush:viewBox="-0.18445475638050368 0 99.60556844547561 83.64"><g id="Female Character/Upper Body/Blouse 2" blush:viewBox="-0.18445475638050368 0 99.60556844547561 83.64" blush:i="0.1.0"><path id="Fill 55" fill-rule="evenodd" clip-rule="evenodd" d="M51.124 1.21845C51.124 1.21845 52.0261 9.92579 44.0001 14.3982C44.0001 14.3982 43.8584 20 52.8344 20C61.8104 20 62 15.2458 62 15.2458C62 15.2458 57.8688 12.1847 57.3928 11.4321C57.3928 11.4321 57.6782 8.46699 58.4386 7.1961C59.1979 5.9252 59.8156 2.53683 56.1115 0.700194C52.4063 -1.13543 51.124 1.21845 51.124 1.21845" fill="#ffd4aa" blush:color="Skin-500" blush:i="0.1.0.0"/><g id="Group 34" blush:i="0.1.0.1"><g id="Group 3" blush:i="0.1.0.1.0"><path id="Fill 1" fill-rule="evenodd" clip-rule="evenodd" d="M47.2702 11.8731C47.2702 11.8731 42.0043 15.0646 38.7923 16.1986C35.5803 17.3326 35.5803 17.4266 32.5563 20.7336C29.5333 24.0416 17.2483 39.1596 15.9263 42.4656C14.6033 45.7736 12.2413 62.3086 9.6903 64.3876C7.1383 66.4656 4.2093 68.4986 2.6983 70.7656C1.1863 73.0336 -0.0887011 73.1746 0.00429888 73.6476C0.0992989 74.1206 1.6593 73.9776 4.0203 71.9946C4.0203 71.9946 3.4073 73.5056 3.0293 74.4986C2.6513 75.4896 0.903299 76.9546 1.0913 77.2376C1.2813 77.5216 3.1703 76.3876 3.5003 75.7256C3.5003 75.7256 2.7453 77.5686 2.1783 77.9466C1.6113 78.3246 3.6903 78.2776 4.7773 76.6246C5.8633 74.9696 7.1863 72.8916 7.6593 72.9386C8.1303 72.9856 5.7213 75.3956 5.3433 77.3796C4.9653 79.3636 4.0683 79.1276 4.2093 79.6476C4.3513 80.1666 6.5723 78.7966 7.3283 76.5766C8.0833 74.3556 10.3043 73.4586 10.3043 73.4586C10.3043 73.4586 10.5403 76.8126 11.4383 76.5296C12.3353 76.2466 12.0043 74.0256 12.9503 72.9856C13.8943 71.9466 13.8473 71.0956 13.7523 69.8206C13.6593 68.5446 13.4223 66.4186 14.7453 64.3396C16.0683 62.2616 21.8313 50.3556 22.3993 47.5216C22.3993 47.5216 33.1223 33.4426 38.1303 30.5606C38.1303 30.5606 39.3593 36.1826 41.2023 39.3476C43.0443 42.5136 44.5563 48.3726 43.7063 49.8836H65.0833C65.0833 49.8836 65.9343 44.3556 67.3513 41.8046C67.3513 41.8046 69.8313 50.6636 70.8943 51.8686C71.9573 53.0726 86.4143 61.2216 86.6263 63.9856C86.8393 66.7496 90.2413 66.7966 92.5083 71.8516C92.5083 71.8516 93.3123 72.8436 93.3593 71.9946C93.4073 71.1436 92.4143 69.1596 92.4143 69.1596C92.4143 69.1596 93.7853 71.4266 94.0683 72.5136C94.3513 73.5996 95.5803 72.9856 95.5803 72.9856L95.3433 72.0416C95.3433 72.0416 96.4773 73.2696 97.2813 72.9856C97.2813 72.9856 96.3353 70.1986 95.6743 69.3956C95.6743 69.3956 97.9893 71.5686 98.6983 71.2856C99.4073 71.0016 97.5493 69.1596 96.9203 68.0986C96.3113 67.0716 95.1953 64.3496 95.0533 63.9246C94.9123 63.4996 89.4853 60.4656 88.9653 59.9466C88.4463 59.4266 85.2813 56.1206 83.5803 53.6166C81.8783 51.1116 77.4383 47.6166 77.4383 47.6166C77.4383 47.6166 72.9033 31.0806 72.1943 29.0956C71.4853 27.1116 70.5403 21.7736 68.0373 19.7896C65.5333 17.8046 59.3046 13.1382 59.3046 13.1382L47.2702 11.8731Z" fill="#ffd4aa" blush:color="Skin-500" blush:i="0.1.0.1.0.0"/></g><path id="Fill 4" fill-rule="evenodd" clip-rule="evenodd" d="M86.9526 63.0049C87.9056 63.9099 88.9826 64.6649 90.1356 65.2499C91.3336 65.7789 92.4446 66.6009 93.5356 67.2269C93.8026 67.3739 94.0946 67.4969 94.2926 67.4439C94.5586 67.3729 94.9076 67.2339 95.0176 67.0869C95.0396 67.0529 95.0456 67.0409 95.0426 67.0099C95.0726 67.0809 95.0146 66.9799 94.9696 66.9429C94.8656 66.8379 94.7416 66.7339 94.6186 66.6319L93.8526 66.0299L93.4626 65.7419C93.3166 65.6499 93.1736 65.5059 93.0706 65.3739C92.8586 65.1039 92.6886 64.8379 92.4606 64.6239C92.3596 64.5249 92.1996 64.4039 92.1096 64.2479C92.0156 64.0979 91.9526 63.9389 91.9056 63.7769C91.8076 63.4539 91.7646 63.1239 91.7576 62.7939C91.9006 63.4209 92.0486 64.1239 92.6226 64.4399C92.8936 64.6559 93.0986 64.9379 93.3096 65.1679C93.4206 65.2859 93.5156 65.3729 93.6536 65.4489L94.0756 65.7169C94.3526 65.8979 94.6266 66.0859 94.8896 66.2939C95.0206 66.3989 95.1516 66.5019 95.2816 66.6279C95.3426 66.7109 95.4266 66.7189 95.4886 66.9549C95.5106 67.0889 95.4646 67.2429 95.3926 67.3449C95.0816 67.7149 94.7586 67.7819 94.4126 67.9059C93.9536 68.0109 93.6026 67.8139 93.3006 67.6669C92.7016 67.3249 92.1826 66.9359 91.6346 66.5829C91.0886 66.2189 90.5296 65.9219 89.9526 65.5859C88.8016 64.9119 87.7576 64.0529 86.9526 63.0049" fill="black" blush:i="0.1.0.1.1"/><path id="Fill 6" fill-rule="evenodd" clip-rule="evenodd" d="M95.0605 68.2266L95.4885 68.8816C95.6455 69.0926 95.7565 69.3286 95.8245 69.5886L95.8105 69.5966C95.6225 69.4036 95.4805 69.1846 95.3825 68.9406L95.0465 68.2336L95.0605 68.2266Z" fill="black" blush:i="0.1.0.1.2"/><path id="Fill 8" fill-rule="evenodd" clip-rule="evenodd" d="M93.5923 68.5752L94.4943 70.2962C94.8263 70.8532 95.1123 71.4242 95.3543 72.0342L95.3323 72.0482C94.8653 71.5732 94.5623 70.9842 94.3163 70.3852C94.0473 69.7922 93.8003 69.1922 93.5693 68.5862L93.5923 68.5752Z" fill="black" blush:i="0.1.0.1.3"/><path id="Fill 10" fill-rule="evenodd" clip-rule="evenodd" d="M91.98 68.2276C92.057 68.3786 92.162 68.5186 92.255 68.6606C92.375 68.7896 92.453 68.9376 92.425 69.1526L92.404 69.1646C92.204 69.0816 92.114 68.9286 92.077 68.7506C92.02 68.5836 91.966 68.4146 91.956 68.2316L91.98 68.2276Z" fill="black" blush:i="0.1.0.1.4"/><path id="Fill 12" fill-rule="evenodd" clip-rule="evenodd" d="M58.4292 51.6788C58.4292 51.6788 63.6098 69.119 63.1072 82.4138C63.1072 82.4138 67.6892 81.4898 71.7052 78.7498C71.7052 78.7498 68.8702 59.5688 61.7372 51.3478L58.4292 51.6788Z" fill="#819500" blush:i="0.1.0.1.5"/><path id="Fill 14" fill-rule="evenodd" clip-rule="evenodd" d="M36.4374 14.4649C36.4374 14.4649 48.2514 15.7259 52.6564 15.4429C52.6564 15.4429 57.9844 28.5929 59.2134 32.6029C59.2384 32.6809 59.3514 32.6539 59.3414 32.5729C58.9804 29.4819 57.8194 19.6969 57.3434 17.4979C56.7764 14.8759 63.2314 14.8759 63.2314 14.8759C63.2314 14.8759 68.0434 18.4359 69.0364 19.0659C70.0284 19.6939 80.9984 35.2139 80.9984 35.2139C80.9984 35.2139 73.6404 39.9619 67.9724 41.6629C67.9724 41.6629 67.8324 44.1439 65.6344 47.1909C63.4374 50.2369 65.6344 47.1909 65.6344 47.1909C65.6344 47.1909 64.8744 49.8839 64.9794 49.8839C65.0834 49.8839 43.1694 49.2679 43.1694 49.2679L43.6144 45.8959C43.6144 45.8959 40.2644 42.5839 38.7764 40.6709C38.7764 40.6709 22.8324 35.7809 16.5954 32.3799C16.5954 32.3799 15.6734 31.7419 17.7994 29.2619C19.9254 26.7809 34.7374 16.6049 36.4374 14.4649" fill="#FFFFF1" blush:i="0.1.0.1.6"/><path id="Fill 16" fill-rule="evenodd" clip-rule="evenodd" d="M68.5172 23.0958C69.3692 26.2218 69.9302 29.3938 70.5612 32.5228C70.6402 32.9118 70.7172 33.3008 70.8092 33.6798C70.8522 33.8738 70.9082 34.0358 70.9562 34.2318C71.0062 34.4798 71.0752 34.7418 71.0502 34.9668C71.0182 35.8958 70.7492 36.6888 70.4362 37.4538C69.8052 38.9808 68.9472 40.3668 67.9722 41.6628C68.6102 40.1768 69.2222 38.6868 69.7022 37.1908C69.9162 36.4458 70.1332 35.6718 70.1032 34.9868C70.1122 34.8068 70.0592 34.6778 70.0382 34.5308C69.9862 34.3368 69.9092 34.1178 69.8622 33.9208C69.7572 33.5188 69.6672 33.1198 69.5812 32.7228C68.9732 29.5358 68.5912 26.3388 68.5172 23.0958" fill="#E0D4B6" blush:i="0.1.0.1.7"/><path id="Fill 18" fill-rule="evenodd" clip-rule="evenodd" d="M41.3276 31.836C42.9736 34.47 44.3886 37.199 45.8086 39.924L47.9096 44.018C48.2656 44.694 48.6176 45.375 48.9956 46.038C49.3756 46.695 49.7276 47.393 50.3196 47.887C49.9476 47.75 49.6486 47.466 49.3766 47.19C49.0966 46.912 48.8426 46.614 48.5906 46.314C48.1046 45.7 47.6566 45.064 47.2346 44.41C46.3856 43.108 45.6386 41.751 44.9206 40.382C43.5196 37.625 42.2606 34.801 41.3276 31.836" fill="#E0D4B6" blush:i="0.1.0.1.8"/><path id="Fill 20" fill-rule="evenodd" clip-rule="evenodd" d="M37.7837 37.3165C39.0517 38.5775 40.0927 39.9655 41.1067 41.3755C42.1007 42.8015 43.0567 44.2345 43.8787 45.8205C42.4467 44.7415 41.3157 43.3725 40.2907 41.9525C39.2947 40.5095 38.3877 39.0025 37.7837 37.3165" fill="#E0D4B6" blush:i="0.1.0.1.9"/><path id="Fill 22" fill-rule="evenodd" clip-rule="evenodd" d="M57.1756 46.379L60.1426 48.089L55.6426 48.239C55.6426 48.239 56.2896 46.275 57.1756 46.379" fill="#819500" blush:i="0.1.0.1.10"/><path id="Fill 24" fill-rule="evenodd" clip-rule="evenodd" d="M55.1276 45.1651C54.3066 44.7711 53.3206 45.0501 52.8396 45.8241C52.4816 46.3981 52.0516 47.1461 51.5736 48.0111C50.9406 49.1531 50.2246 50.5031 49.4736 51.9511C46.0946 58.4611 42.0356 66.9031 42.0356 66.9031C42.2486 67.6121 49.4286 70.6241 49.4286 70.6241C49.8156 69.7371 53.0526 59.5061 55.2176 52.6201C55.7656 50.8781 56.2416 49.3591 56.5886 48.2511C56.9526 47.0891 57.1756 46.3791 57.1756 46.3791L55.1276 45.1651Z" fill="#819500" blush:i="0.1.0.1.11"/><path id="Fill 26" fill-rule="evenodd" clip-rule="evenodd" d="M56.5883 48.2515C56.2413 49.3595 55.7653 50.8785 55.2173 52.6205C60.7833 52.7665 65.093 51.2863 65.783 50.6973C66.916 49.7293 65.6343 47.1905 65.6343 47.1905C62.2453 47.9125 59.2323 48.2075 56.5883 48.2515Z" fill="#819500" blush:i="0.1.0.1.12"/><path id="Fill 28" fill-rule="evenodd" clip-rule="evenodd" d="M66.2508 48.6962C66.2728 49.2892 66.4133 49.9537 66.0273 50.5037C65.8253 50.7787 65.5273 50.9487 65.2623 51.0797C64.9903 51.2197 64.2851 51.553 64.0041 51.659C63.4421 51.868 62.8731 52.05 62.2931 52.192C59.9721 52.748 57.5811 52.909 55.2121 52.818C55.1041 52.816 55.0171 52.727 55.0191 52.619C55.0191 52.601 55.0241 52.578 55.0291 52.561L56.4481 48.207C56.4661 48.145 56.5251 48.105 56.5861 48.103C58.1011 48.091 59.6171 48.006 61.1261 47.849C62.6441 47.692 64.1211 47.457 65.6471 47.169C65.8551 47.762 66.1998 48.0882 66.2508 48.6962ZM61.1481 48.028C59.6381 48.232 58.1171 48.358 56.5911 48.399L55.2221 52.423C56.3931 52.436 57.5641 52.384 58.7261 52.262C59.8871 52.148 61.0451 51.981 62.1771 51.706C62.7461 51.581 63.3081 51.432 63.8581 51.25C64.3861 51.057 65.4173 50.6487 65.7513 50.2837C66.0873 49.8787 66.0058 49.2692 66.0208 48.6992C66.0398 48.1282 65.7251 47.756 65.6221 47.212C64.1741 47.555 62.6501 47.826 61.1481 48.028Z" fill="#586600" blush:i="0.1.0.1.13"/><path id="Fill 30" fill-rule="evenodd" clip-rule="evenodd" d="M43.614 45.8956C42.594 46.1126 42.603 49.8126 42.603 49.8126C45.01 50.8316 47.311 51.5086 49.473 51.9516C50.224 50.5026 50.941 49.1536 51.574 48.0106C46.382 47.4046 43.614 45.8956 43.614 45.8956" fill="#819500" blush:i="0.1.0.1.14"/><path id="Fill 32" fill-rule="evenodd" clip-rule="evenodd" d="M47.5568 47.0702C48.8938 47.3682 50.2458 47.5832 51.6028 47.7582C51.7428 47.7742 51.8428 47.9012 51.8258 48.0412C51.8218 48.0732 51.8108 48.1062 51.7968 48.1342L49.6428 52.0402L49.6388 52.0462C49.5978 52.1212 49.5138 52.1562 49.4338 52.1402C47.0758 51.6232 44.7668 50.8802 42.5658 49.8992C42.5308 49.8862 42.5098 49.8492 42.5088 49.8122C42.5278 49.1052 42.5828 48.4042 42.6998 47.7082C42.7608 47.3602 42.8308 47.0142 42.9548 46.6802C43.0838 46.3632 43.2288 45.9832 43.6178 45.8702C44.9038 46.4092 46.2228 46.7552 47.5568 47.0702ZM43.0348 46.7082C42.9258 47.0362 42.8668 47.3822 42.8178 47.7252C42.7248 48.4162 42.6938 49.1172 42.6978 49.8122L42.6398 49.7252C44.8638 50.6182 49.3028 51.8632 49.3028 51.8632L51.3128 48.239C49.9308 48.092 48.7948 47.8422 47.4558 47.4712C46.1248 47.0942 44.7968 46.6092 43.6108 45.9202C43.3018 46.0292 43.1398 46.3922 43.0348 46.7082Z" fill="#586600" blush:i="0.1.0.1.15"/></g><path id="Path (Stroke)" fill-rule="evenodd" clip-rule="evenodd" d="M58.0033 47.2512L58.0084 47.2517L58.0074 47.257L56.0522 52.6034L50.0458 70.957L50.0372 70.9607L56.0443 52.6082L58.0033 47.2512ZM45.8418 69.0298L42.2944 67.3451L42.2958 67.3492L45.8418 69.0298ZM42.2752 67.2892L42.316 67.2115L42.4267 67.2695C42.316 67.2115 42.3159 67.2116 42.316 67.2115L42.6906 66.4972C42.7187 66.4437 42.7482 66.3874 42.7791 66.3285C42.7253 66.4292 42.675 66.5233 42.6286 66.6102L42.2717 67.2789L42.2752 67.2892ZM42.1359 67.268C42.0256 67.2091 42.0256 67.2091 42.0257 67.2089L42.4081 66.4925C42.6515 66.0365 42.9994 65.3851 43.417 64.6035C44.2522 63.0404 45.3665 60.9565 46.4827 58.8736C47.5989 56.7908 48.7172 54.7088 49.5603 53.1496C49.9818 52.37 50.3347 51.7209 50.5842 51.2675C50.7089 51.0409 50.8081 50.8628 50.8771 50.7416C50.9116 50.6812 50.9391 50.634 50.9587 50.6017C50.9683 50.5859 50.9772 50.5719 50.9846 50.5613C50.9879 50.5565 50.9933 50.549 50.9997 50.5416C51.0023 50.5387 51.0098 50.5303 51.021 50.522C51.0274 50.5175 51.0449 50.5079 51.0565 50.5034C51.0763 50.4985 51.1266 50.5006 51.1549 50.5113C51.184 50.5326 51.2147 50.5805 51.22 50.6011C51.2214 50.6126 51.2216 50.6308 51.2209 50.6378C51.2195 50.6495 51.2167 50.6589 51.2158 50.6619C51.2133 50.6699 51.2103 50.6776 51.2083 50.6826C51.2036 50.6939 51.1971 50.7084 51.1894 50.7249C51.1737 50.7585 51.1501 50.807 51.1194 50.8688C51.0579 50.9927 50.9666 51.1731 50.8497 51.4017C50.6158 51.8591 50.2792 52.5107 49.8739 53.2918C49.0633 54.8539 47.978 56.9341 46.8911 59.0135C45.8042 61.0928 44.7158 63.1714 43.8991 64.7301C43.4907 65.5094 43.1503 66.1588 42.912 66.6133L42.5978 67.2124L49.8705 70.6663L55.8087 52.5244L57.769 47.164C57.8082 47.059 57.9103 46.9977 58.0132 47.0001L58.0229 47.0003L58.0825 47.0111L58.0917 47.0142C58.1956 47.0502 58.2634 47.1477 58.2607 47.2548L58.2605 47.2653L58.249 47.3242L56.2877 52.6872L50.2481 71.1427L49.9677 71.2619L42.0934 67.5299L42 67.2571L42.0257 67.2089L42.1359 67.268Z" fill="#586600" blush:i="0.1.0.2"/><path id="Path 2 (Stroke)" fill-rule="evenodd" clip-rule="evenodd" d="M62.3002 52.2507C62.2997 52.25 62.2985 52.2498 62.2977 52.2504C62.297 52.2509 62.2969 52.2517 62.2973 52.2523L62.2979 52.2531L62.4624 52.486C65.5488 56.9301 68.6722 65.6186 71.8309 78.5204L71.9921 79.1822L71.9941 79.1771L71.4951 77.1503C71.4951 77.1502 71.4951 77.1504 71.4951 77.1503C68.3883 64.7469 65.3232 56.4567 62.3002 52.2507ZM71.9723 79.2324L71.6895 79.4132L71.688 79.4141C69.7834 80.5949 67.0087 82.054 63.7346 82.8671L63.2379 82.9868L63.2417 82.9896L63.7367 82.8696C63.7369 82.8696 63.7366 82.8697 63.7367 82.8696C67.1631 82.0186 70.0281 80.5097 71.9698 79.2386L71.9723 79.2324ZM63.1822 82.945L63.1492 82.2555C63.1492 82.2555 63.1492 82.2555 63.1492 82.2555C63.0623 80.5614 62.9654 78.9259 62.8573 77.3502C62.9791 79.1382 63.0862 81.003 63.1801 82.9433L63.1822 82.945ZM60.6222 59.8039C59.9687 56.9119 59.1869 54.5345 58.2533 52.6898C58.2529 52.6891 58.2519 52.6886 58.2509 52.6891C58.2501 52.6895 58.2499 52.6904 58.2502 52.691C59.1866 54.5411 59.9691 56.9197 60.6222 59.8039ZM62.1521 52.0471C62.2649 51.9663 62.4221 51.992 62.5032 52.1048C65.5572 56.3539 68.6311 64.6873 71.7376 77.0895L72.2559 79.1948L72.1732 79.4041L72.1401 79.4258C70.181 80.7126 67.2772 82.2479 63.797 83.1123L63.1859 83.2604L62.936 83.0727L62.9332 83.014C62.5843 75.7754 62.0521 69.593 61.2591 64.5332C60.4658 59.4715 59.4129 55.542 58.0271 52.8038C57.9643 52.6797 58.0143 52.5284 58.1383 52.4659C58.2622 52.4034 58.4136 52.4529 58.4764 52.5769C59.8656 55.3219 60.9146 59.2128 61.7071 64.1753C62.4999 69.1395 63.0372 75.1845 63.3988 82.2427L63.4201 82.6857L63.6744 82.6245C63.6745 82.6244 63.6742 82.6245 63.6744 82.6245C66.9137 81.8199 69.6636 80.3749 71.5556 79.2021C71.5558 79.2019 71.5553 79.2023 71.5556 79.2021L71.7148 79.1002L71.5881 78.5799M62.1521 52.0471C62.0393 52.1279 62.0132 52.2848 62.094 52.3977ZM62.094 52.3977C62.0939 52.3975 62.0941 52.3979 62.094 52.3977ZM62.094 52.3977L62.2577 52.6294C62.2576 52.6293 62.2577 52.6296 62.2577 52.6294" fill="#586600" blush:i="0.1.0.3"/></g></g><g id="Female Character/Head" blush:component="Female Character/Head" blush:defaultValue="Long Hair 5" blush:width="53" blush:height="71" transform="translate(115 51) scale(1 1)" blush:i="0.2" blush:value="Long Hair 5" blush:viewBox="7.850536193029491 8.164999999999992 41.206434316353885 62.48"><g id="Female Character/Head/Long Hair 5" blush:viewBox="7.850536193029491 8.164999999999992 41.206434316353885 62.48" blush:i="0.2.0"><g id="Group 186" blush:i="0.2.0.0"><path id="Fill 57" fill-rule="evenodd" clip-rule="evenodd" d="M20.3004 32.0304C20.3004 32.0304 21.4344 34.2984 23.9144 35.7864C26.3944 37.2744 29.5124 39.5424 31.0714 39.0464C32.6314 38.5504 36.7624 35.3844 37.7544 31.8414C38.7464 28.2984 39.3634 22.3924 38.7254 19.4864C38.0884 16.5814 34.4734 10.4864 28.0254 10.4864C21.5754 10.4864 15.8364 17.2894 17.3944 24.8014C17.3944 24.8014 15.6024 26.9994 17.1364 29.2664C18.6704 31.5344 20.3004 32.0304 20.3004 32.0304" fill="#ffd4aa" blush:color="Skin-500" blush:i="0.2.0.0.0"/><path id="Fill 59" fill-rule="evenodd" clip-rule="evenodd" d="M24.148 27.2823C24.148 27.2823 26.995 27.3523 27.751 27.9023C27.751 27.9023 28.028 28.0003 27.921 27.6363C27.921 27.6363 28.329 27.9283 28.356 27.7693C28.382 27.6093 28.178 26.0683 26.575 25.8553C24.972 25.6433 23.767 27.1133 24.148 27.2823" fill="black" blush:i="0.2.0.0.1"/><path id="Fill 61" fill-rule="evenodd" clip-rule="evenodd" d="M36.6207 26.8741C36.6207 26.8741 34.8147 26.8481 34.0827 27.3961C34.0827 27.3961 33.8147 27.4941 33.9167 27.1311C33.9167 27.1311 33.5227 27.4231 33.4967 27.2641C33.4717 27.1041 34.2057 25.6521 35.7587 25.4391C37.3107 25.2271 37.7187 26.5851 36.6207 26.8741" fill="black" blush:i="0.2.0.0.2"/><path id="Fill 63" fill-rule="evenodd" clip-rule="evenodd" d="M31.8901 32.2247C31.8901 32.2247 31.6771 32.4027 31.8901 32.5787C32.1021 32.7567 33.5021 32.2607 33.8211 31.7997C34.1401 31.3387 33.9511 31.2867 33.4961 31.5517C33.0411 31.8177 31.8901 32.2247 31.8901 32.2247" fill="black" blush:i="0.2.0.0.3"/><path id="Fill 65" fill-rule="evenodd" clip-rule="evenodd" d="M29.02 33.6602C29.02 33.6602 28.932 33.5012 29.693 33.5012C30.455 33.5012 30.384 33.6422 31.624 33.6602C32.864 33.6782 33.372 33.6602 32.888 33.9782C32.404 34.2982 32.439 34.2802 32.351 34.5282C32.262 34.7762 31.141 35.2192 30.257 34.9182C29.374 34.6162 28.472 33.8172 29.02 33.6602" fill="#EE4E2F" blush:i="0.2.0.0.4"/><path id="Fill 67" fill-rule="evenodd" clip-rule="evenodd" d="M23.6992 23.1007C23.8342 23.0587 23.6522 23.3367 24.2662 23.2307C24.8802 23.1247 26.5572 22.9357 28.0692 23.8807C28.0692 23.8807 28.3392 23.6677 28.3582 23.2667C28.3752 22.8907 25.8292 21.6037 23.6632 23.0307C23.5152 23.1277 23.5612 23.1437 23.6992 23.1007" fill="black" blush:i="0.2.0.0.5"/><path id="Fill 69" fill-rule="evenodd" clip-rule="evenodd" d="M36.6204 23.2423C36.6204 23.2423 35.7224 22.2743 34.2104 22.7223C32.6994 23.1723 32.8394 23.8563 32.8874 24.0463C32.9354 24.2343 34.0214 23.3123 35.1554 23.3253C36.2894 23.3373 36.6204 23.5733 36.6204 23.2423" fill="black" blush:i="0.2.0.0.6"/><path id="Fill 71" fill-rule="evenodd" clip-rule="evenodd" d="M13.0927 45.5304C12.7387 44.1834 13.5537 43.2624 13.5537 43.2624C13.5537 43.2624 13.7987 46.7704 14.6507 47.3734C14.6507 47.3734 13.4467 46.8774 13.0927 45.5304M11.8457 39.8474C10.8107 39.1964 10.2587 37.2384 10.2587 37.2384C12.1717 38.0894 13.0927 40.4994 13.0927 40.4994C13.0927 40.4994 12.8807 40.4994 11.8457 39.8474M21.7387 25.8354C21.8807 23.6084 22.7307 23.3374 24.0767 22.0144C25.4237 20.6914 26.7667 17.5734 26.7667 17.5734C25.2587 16.4224 20.8707 13.1274 20.8707 13.1274C19.5597 13.3214 17.1327 17.1484 17.1327 17.1484C10.7187 21.5774 11.7817 28.4334 11.7817 28.4334C9.65571 30.1344 9.07171 33.7494 9.07171 33.7494C6.55571 37.0094 9.63771 40.1444 11.0197 40.6584C12.4017 41.1724 13.1637 42.1994 13.1637 42.1994C9.79771 45.9554 12.5787 47.1954 15.0417 48.5244C17.5047 49.8524 18.9687 52.8914 17.4747 54.2384C15.9807 55.5864 14.4177 53.3624 14.2787 53.4104C14.1397 53.4584 14.1877 54.0564 14.1877 54.0564C15.0377 55.2984 16.5357 55.2184 16.5357 55.2184C14.6067 56.1924 13.9367 54.3994 13.8187 54.4424C13.7007 54.4854 13.8187 55.0624 13.8187 55.0624C15.8507 57.1884 17.5337 55.6044 20.0847 52.2514C22.6357 48.8964 19.7067 44.6444 19.7067 44.6444C19.7067 44.6444 20.1327 42.3294 22.9197 40.7224C25.7067 39.1164 25.8957 35.7624 24.2527 33.1644C22.6097 30.5654 21.5967 28.0614 21.7387 25.8354" fill="#f3ddb4" blush:color="Hair-500" blush:i="0.2.0.0.7"/><g id="Group 99" blush:i="0.2.0.0.8"><path id="Fill 97" fill-rule="evenodd" clip-rule="evenodd" d="M45.4785 61.0851C43.8485 62.0071 43.8845 61.4041 44.4515 59.9161C45.0185 58.4281 43.9555 56.6561 43.9555 56.6561C45.0695 56.9811 47.1085 60.1641 45.4785 61.0851M43.8255 62.7151C43.5655 62.7151 43.8255 62.2421 43.8255 62.2421C43.8255 62.2421 44.3925 62.2671 44.7935 62.2421C44.7935 62.2421 44.0845 62.7151 43.8255 62.7151M41.3325 55.3511C40.6955 54.8251 41.0845 53.5731 41.0845 53.5731C41.0845 53.5731 40.9875 54.6461 42.1245 55.5231C43.2615 56.3981 43.2815 57.7551 43.2815 57.7551C42.9985 56.9751 41.9705 55.8771 41.3325 55.3511M40.0925 44.2901C38.8525 43.2271 38.8175 41.4901 38.8175 41.4901C41.7585 47.2311 44.6035 44.0541 44.2975 47.8191C44.1325 49.8441 42.5735 50.4201 42.5735 50.4201C44.6635 47.5151 41.3325 45.3531 40.0925 44.2901M47.2145 54.2111C45.4785 52.7941 44.5925 53.8211 42.8775 53.3601C41.1615 52.9001 42.0775 51.8731 42.0775 51.8731C42.0775 51.8731 45.4075 50.5621 45.4365 46.4161C45.4665 42.2711 41.4395 42.8731 41.0145 41.2711C40.5885 39.6691 46.6125 37.4861 45.2305 33.8731C43.8485 30.2591 41.6875 30.0471 41.6875 30.0471C41.4745 29.4451 41.9705 28.9821 44.0615 27.0341C46.1515 25.0851 40.5535 19.3451 40.5535 19.3451C40.5535 19.3451 39.4905 16.2981 38.9855 14.8101C38.4805 13.3211 36.0185 11.7271 36.0185 11.7271C29.9945 6.58909 25.4235 8.85609 25.4235 8.85609C20.8525 9.22609 21.1005 13.1271 21.1005 13.1271C21.8805 13.5691 24.2185 15.0931 25.3885 16.0151C26.5575 16.9361 26.9545 17.3591 26.9545 17.3591C31.3485 12.9461 33.1245 16.9591 34.6125 20.5731C36.1005 24.1881 38.2265 25.4171 38.2265 25.4171C38.2265 25.4171 38.5105 29.7151 37.2395 32.9041C35.9695 36.0931 31.9975 38.6091 30.9605 38.9511C29.9245 39.2931 28.8535 38.6011 28.8535 38.6011C28.1725 40.2571 28.8485 43.4631 30.5965 44.3851C32.3445 45.3061 32.5985 46.7311 32.5985 46.7311C31.7175 53.0221 33.1475 52.6051 35.0375 54.9901C36.9275 57.3771 34.1405 59.6201 33.3365 59.6451C32.5335 59.6681 32.5105 59.9511 32.5105 59.9511C36.0065 60.0931 36.9745 56.8811 36.9745 56.8811C41.4155 60.7311 34.3175 62.7151 35.5215 66.6121C36.7265 70.5111 39.7385 70.8471 39.7385 70.6161C39.7385 70.3871 38.9855 70.1911 38.9855 70.1911C35.0935 68.2071 38.4985 65.0891 40.7665 64.7341C43.0335 64.3811 43.1755 63.1761 43.1755 63.1761C45.1955 63.3171 46.7895 61.0501 46.7895 61.0501C49.6595 59.6331 48.9515 55.6291 47.2145 54.2111" fill="#f3ddb4" blush:color="Hair-500" blush:i="0.2.0.0.8.0"/></g><g id="Group" blush:i="0.2.0.0.9"><path id="Fill 73" fill-rule="evenodd" clip-rule="evenodd" d="M24.6795 16.3683C23.9805 16.9933 23.3785 17.7023 22.8895 18.4743C22.4095 19.2513 22.0065 20.0753 21.7815 20.9553C21.5545 21.8293 21.4035 22.7343 21.4325 23.6513C21.4195 24.5713 21.5795 25.4833 21.7285 26.4133C21.5655 25.9743 21.4055 25.5293 21.2765 25.0743C21.2005 24.6083 21.0605 24.1473 21.0485 23.6693C20.9265 22.7183 21.0695 21.7493 21.3005 20.8193C21.8185 18.9703 23.0465 17.3083 24.6795 16.3683" fill="#6F3C00" blush:i="0.2.0.0.9.0"/><path id="Fill 75" fill-rule="evenodd" clip-rule="evenodd" d="M22.3059 15.1642C21.5659 16.1662 20.9679 17.2572 20.5389 18.4042C20.1129 19.5512 19.8369 20.7522 19.7959 21.9682C19.7499 23.1772 19.8469 24.4062 20.1929 25.5822C20.4819 26.7772 21.0209 27.8922 21.5619 29.0182C21.2179 28.5012 20.8609 27.9822 20.5579 27.4332C20.3069 26.8582 19.9879 26.3062 19.8249 25.6922C19.3789 24.5032 19.2579 23.2092 19.2969 21.9422C19.3529 20.6702 19.6589 19.4092 20.1849 18.2592C20.7019 17.1052 21.4069 16.0342 22.3059 15.1642" fill="#6F3C00" blush:i="0.2.0.0.9.1"/><path id="Fill 77" fill-rule="evenodd" clip-rule="evenodd" d="M21.2176 13.9942C20.4186 15.0402 19.7726 16.1872 19.3046 17.3952C18.8396 18.6012 18.5436 19.8762 18.5296 21.1622C18.4866 22.4392 18.6326 23.7402 19.0566 24.9652C19.1986 25.6012 19.5206 26.1742 19.7586 26.7812C20.0256 27.3772 20.3826 27.9282 20.6756 28.5222C20.2896 27.9922 19.8866 27.4612 19.5406 26.8952C19.2536 26.2992 18.8856 25.7322 18.6926 25.0892C18.1786 23.8482 18.0226 22.4812 18.0306 21.1432C18.1296 18.4482 19.3236 15.8322 21.2176 13.9942" fill="#6F3C00" blush:i="0.2.0.0.9.2"/><path id="Fill 79" fill-rule="evenodd" clip-rule="evenodd" d="M17.0613 17.7511C16.7063 18.4001 16.3713 19.0541 16.1133 19.7351C15.8383 20.4061 15.6173 21.1011 15.5373 21.7961C15.4603 22.4861 15.5063 23.1871 15.8453 23.7241C16.1703 24.2411 16.7553 24.7671 17.2813 25.2371C18.3593 26.2121 19.5203 27.1231 20.6093 28.1301C21.6563 29.1411 22.8873 30.1591 23.3443 31.6121C23.0083 30.9511 22.4783 30.4421 21.9323 29.9621C21.3963 29.4701 20.8183 29.0191 20.2383 28.5711C19.0733 27.6781 17.9013 26.7851 16.7803 25.7951C16.2303 25.2701 15.6773 24.8141 15.2283 24.0711C14.8203 23.3191 14.8003 22.4521 14.9703 21.7021C15.3073 20.1841 16.1053 18.8791 17.0613 17.7511" fill="#6F3C00" blush:i="0.2.0.0.9.3"/><path id="Fill 81" fill-rule="evenodd" clip-rule="evenodd" d="M15.9966 19.5558C14.9106 21.2398 14.3956 23.2238 14.4486 25.1598C14.5016 26.1248 14.5936 27.1208 15.0476 27.9018C15.4946 28.6878 16.2726 29.2758 17.1056 29.7688C17.9366 30.2728 18.8326 30.6998 19.7336 31.1148C20.6216 31.5198 21.5986 31.9378 22.4226 32.5598C23.2566 33.1698 23.9806 33.9528 24.4566 34.8728C24.9176 35.7918 25.1346 36.8488 24.9626 37.8408C24.9716 35.8088 23.7146 34.0458 22.0936 33.0348C21.2676 32.5208 20.3936 32.1468 19.4456 31.7638C18.5216 31.3618 17.6046 30.9318 16.7176 30.4098C15.8536 29.8788 14.9596 29.2248 14.4266 28.2438C13.9156 27.2488 13.8436 26.1778 13.8706 25.1598C13.9356 23.1048 14.6506 21.0608 15.9966 19.5558" fill="#6F3C00" blush:i="0.2.0.0.9.4"/><path id="Fill 83" fill-rule="evenodd" clip-rule="evenodd" d="M17.6133 30.4698C18.5383 31.8608 19.4003 33.4288 19.3513 35.2288C19.3383 35.6778 19.1663 36.1308 18.9053 36.5128C18.6353 36.8648 18.3323 37.1788 18.0163 37.4688C17.3903 38.0518 16.7223 38.5708 16.1873 39.1758C15.9273 39.4778 15.7013 39.8018 15.6063 40.1518C15.5203 40.5018 15.6213 40.8598 15.8023 41.1908C16.2113 41.8388 16.9243 42.3488 17.5413 42.9078C18.1763 43.4568 18.8503 43.9618 19.4893 44.5308C20.1363 45.0918 20.6253 45.8828 20.7113 46.7308C20.5073 45.8998 20.0093 45.2038 19.3303 44.7158C18.6753 44.1998 17.9723 43.7258 17.3003 43.2078C16.6383 42.6828 15.9373 42.1948 15.4123 41.4248C15.1793 41.0318 15.0283 40.5318 15.1403 40.0428C15.2603 39.5688 15.5293 39.1858 15.8123 38.8468C16.4093 38.1968 17.0943 37.6898 17.7103 37.1328C18.0223 36.8578 18.3103 36.5668 18.5603 36.2528C18.7693 35.9398 18.9343 35.5908 18.9703 35.1908C19.0733 34.3998 18.8673 33.5668 18.6153 32.7798C18.3603 31.9838 18.0073 31.2168 17.6133 30.4698" fill="#6F3C00" blush:i="0.2.0.0.9.5"/><path id="Fill 85" fill-rule="evenodd" clip-rule="evenodd" d="M11.7818 28.4337C11.9838 29.4017 12.4868 30.2677 13.1598 30.9327C13.8428 31.5697 14.7218 32.0807 15.4778 32.7337C16.2358 33.3757 16.9858 34.1137 17.3938 35.0797C17.6088 35.5517 17.6768 36.0927 17.6268 36.6007C17.5758 37.1187 17.3348 37.5807 17.0718 37.9947C17.4718 37.0847 17.5058 36.0657 17.0448 35.2407C16.6038 34.4127 15.9018 33.7327 15.1568 33.1167C14.4288 32.4677 13.5818 31.9727 12.8808 31.1947C12.2128 30.4217 11.7778 29.4327 11.7818 28.4337" fill="#6F3C00" blush:i="0.2.0.0.9.6"/><path id="Fill 87" fill-rule="evenodd" clip-rule="evenodd" d="M12.8472 30.8692C13.4262 31.6712 13.9442 32.5162 14.3922 33.4062C14.6162 33.8482 14.7812 34.3452 14.9212 34.8072C15.0742 35.2742 15.2302 35.7472 15.3632 36.2272C15.6392 37.1862 15.7892 38.1992 15.7262 39.2232C15.6852 39.7332 15.5802 40.2432 15.3982 40.7302C15.1782 41.2352 15.0062 41.5992 14.9562 42.0682C14.8402 42.9732 15.1682 43.9162 15.6882 44.7012C16.2042 45.4972 16.9312 46.1622 17.7542 46.6202C17.9592 46.7132 18.1832 46.8212 18.4302 46.9552C18.6502 47.1032 18.8532 47.2742 19.0212 47.4722C19.3592 47.8642 19.6042 48.3142 19.8012 48.7752C20.1672 49.7102 20.3832 50.6872 20.4662 51.6732C20.2722 50.7062 20.0072 49.7492 19.5772 48.8762C19.1502 47.9932 18.5662 47.2332 17.5842 46.9652C16.6522 46.5172 15.8872 45.7962 15.3092 44.9532C14.7392 44.1152 14.3412 43.0812 14.4602 42.0102C14.5122 41.4892 14.7752 40.9502 14.9542 40.5572C15.1242 40.1212 15.2282 39.6582 15.2742 39.1852C15.3532 38.2362 15.2042 37.2712 14.9922 36.3212C14.8842 35.8462 14.7522 35.3732 14.6202 34.8962C14.4962 34.4072 14.3672 33.9602 14.1702 33.5062C13.8042 32.5982 13.3302 31.7302 12.8472 30.8692" fill="#6F3C00" blush:i="0.2.0.0.9.7"/><path id="Fill 89" fill-rule="evenodd" clip-rule="evenodd" d="M17.04 46.4161C17.568 47.0371 17.973 47.7531 18.308 48.5001C18.641 49.2491 18.879 50.0501 18.974 50.8781C19.054 51.7061 18.993 52.5621 18.715 53.3541C18.436 54.1511 17.912 54.8261 17.298 55.3511C17.761 54.6821 18.163 54.0011 18.348 53.2411C18.519 52.4841 18.561 51.7081 18.477 50.9331C18.4 50.1561 18.189 49.3941 17.951 48.6391C17.699 47.8861 17.393 47.1451 17.04 46.4161" fill="#6F3C00" blush:i="0.2.0.0.9.8"/><path id="Fill 91" fill-rule="evenodd" clip-rule="evenodd" d="M9.42822 32.3224C9.99822 33.6744 10.7372 34.9634 11.7402 35.9504C12.0032 36.1934 12.2602 36.3864 12.5612 36.6124C12.8722 36.8374 13.1652 37.0924 13.4362 37.3734C13.9782 37.9324 14.3972 38.6554 14.5712 39.4574C14.7142 40.2654 14.5772 41.1184 14.2172 41.8224C13.8812 42.5274 13.2912 43.1354 12.8892 43.6354C12.4942 44.1824 12.2782 44.8584 12.4172 45.5334C12.5172 46.2184 12.9392 46.8474 13.4472 47.3734C12.8292 46.9724 12.3062 46.3724 12.0602 45.6214C11.8152 44.8624 12.0032 43.9964 12.4042 43.3234C12.8482 42.6294 13.3062 42.1704 13.5742 41.5204C13.8642 40.9074 13.9532 40.2374 13.8352 39.5994C13.7082 38.9634 13.3752 38.3594 12.9132 37.8504C12.6882 37.5924 12.4362 37.3504 12.1612 37.1324C11.8812 36.9084 11.5732 36.6324 11.3252 36.3474C10.3212 35.1804 9.70822 33.7724 9.42822 32.3224" fill="#6F3C00" blush:i="0.2.0.0.9.9"/><path id="Fill 93" fill-rule="evenodd" clip-rule="evenodd" d="M19.1699 34.5772C19.8409 34.7912 20.4179 35.2602 20.8639 35.8182C21.3189 36.3792 21.6049 37.0622 21.7709 37.7592C21.9419 38.4602 21.9309 39.1812 21.8669 39.8832C21.8129 40.2312 21.7459 40.5772 21.6779 40.9192C21.5659 41.2532 21.4699 41.5882 21.3439 41.9122C21.4009 41.2142 21.4759 40.5372 21.4829 39.8592C21.4549 39.1852 21.4529 38.5112 21.2829 37.8692C21.0019 36.5822 20.3129 35.3782 19.1699 34.5772" fill="#6F3C00" blush:i="0.2.0.0.9.10"/><path id="Fill 95" fill-rule="evenodd" clip-rule="evenodd" d="M18.6851 32.6163C20.2981 33.0383 21.6211 34.3303 22.3781 35.8343C22.7271 36.6033 22.9931 37.4183 23.0611 38.2543C23.1311 38.6673 23.0911 39.0893 23.0981 39.4993C23.0521 39.9123 23.0021 40.3223 22.9191 40.7223C22.7921 39.9073 22.6781 39.1193 22.4851 38.3553C22.3071 37.5893 22.0321 36.8613 21.7051 36.1643C21.3721 35.4693 20.9351 34.8293 20.4351 34.2313C19.9271 33.6423 19.3581 33.0843 18.6851 32.6163" fill="#6F3C00" blush:i="0.2.0.0.9.11"/><path id="Fill 102" fill-rule="evenodd" clip-rule="evenodd" d="M25.3884 16.0147C25.1234 15.2747 25.0894 14.4607 25.1964 13.6737C25.2964 12.8807 25.5784 12.1157 25.9684 11.4157C26.3914 10.7367 26.8954 10.1067 27.5104 9.60467C27.8044 9.33967 28.1454 9.13367 28.4584 8.90167C28.8034 8.71067 29.1474 8.52467 29.4984 8.35867C28.8964 8.85867 28.2954 9.33167 27.7734 9.88467C27.2454 10.4297 26.7874 11.0277 26.4004 11.6657C25.6634 12.9617 25.2694 14.4607 25.3884 16.0147" fill="#6F3C00" blush:i="0.2.0.0.9.12"/><path id="Fill 104" fill-rule="evenodd" clip-rule="evenodd" d="M27.219 17.1026C26.796 15.8566 26.633 14.4646 27.028 13.1376C27.398 11.7786 28.735 10.7986 30.084 10.5646C30.427 10.5186 30.761 10.4466 31.114 10.4236C31.473 10.4066 31.835 10.4496 32.187 10.5356C32.892 10.7156 33.519 11.1156 34.029 11.5936C35.047 12.5726 35.695 13.7986 36.237 15.0266C37.252 17.5226 37.837 20.1256 38.417 22.6976C38.561 23.3396 38.707 23.9826 38.886 24.6066C39.06 25.2366 39.279 25.8376 39.728 26.2426C40.145 26.6846 40.846 26.6806 41.42 26.4066C42.008 26.1486 42.53 25.7246 42.998 25.2626C42.589 25.7796 42.11 26.2626 41.507 26.5846C40.948 26.9296 40.067 27.0336 39.493 26.5256C38.917 26.0636 38.644 25.3726 38.435 24.7506C38.216 24.1156 38.036 23.4756 37.858 22.8366C37.161 20.2876 36.581 17.7056 35.548 15.3196C35.05 14.1306 34.444 12.9636 33.559 12.0866C33.115 11.6576 32.595 11.3196 32.019 11.1606C31.447 10.9826 30.828 11.0606 30.192 11.1276C28.952 11.2906 27.794 12.0476 27.372 13.2606C26.892 14.4436 26.956 15.8206 27.219 17.1026" fill="#6F3C00" blush:i="0.2.0.0.9.13"/><path id="Fill 106" fill-rule="evenodd" clip-rule="evenodd" d="M35.7202 14.7745C36.7252 15.4015 37.4242 16.4455 37.8722 17.5445C38.3572 18.6525 38.4222 19.8795 38.5882 21.0065C38.7572 22.1455 38.9542 23.2985 39.4452 24.3035C39.6922 24.7995 40.0652 25.2385 40.5752 25.4455C41.0812 25.6745 41.6802 25.6425 42.2542 25.5435C41.7102 25.7505 41.0922 25.8495 40.4912 25.6745C39.8902 25.4915 39.4202 25.0115 39.1102 24.4925C38.4892 23.4305 38.2792 22.2355 38.0942 21.0785C37.9332 19.9005 37.8892 18.7585 37.5132 17.6755C37.1552 16.6005 36.5892 15.5595 35.7202 14.7745" fill="#6F3C00" blush:i="0.2.0.0.9.14"/><path id="Fill 108" fill-rule="evenodd" clip-rule="evenodd" d="M28.0765 16.3683C27.9805 15.6823 28.0555 14.9793 28.2415 14.3003C28.4265 13.6203 28.7835 12.9663 29.3125 12.4593C29.8425 11.9603 30.5435 11.6193 31.2595 11.5733C31.6125 11.5023 31.9685 11.5713 32.3155 11.5733C32.6595 11.6373 32.9965 11.7213 33.3255 11.8153C32.6345 11.8143 31.9605 11.7873 31.3255 11.9523C30.6865 12.0793 30.1085 12.3863 29.6555 12.8213C29.1915 13.2513 28.8595 13.8183 28.6035 14.4243C28.3565 15.0353 28.1865 15.6913 28.0765 16.3683" fill="#6F3C00" blush:i="0.2.0.0.9.15"/><path id="Fill 110" fill-rule="evenodd" clip-rule="evenodd" d="M34.1289 12.1866C34.3419 11.9416 34.6719 11.8006 35.0029 11.7676C35.3359 11.7306 35.6719 11.7896 35.9839 11.8886C36.2959 11.9996 36.5869 12.1486 36.8569 12.3296C37.1249 12.5106 37.3649 12.7276 37.5879 12.9576L36.7579 12.4946C36.4789 12.3536 36.2009 12.2106 35.9059 12.1256C35.6199 12.0136 35.3159 11.9646 35.0139 11.9586C34.7139 11.9586 34.3999 12.0146 34.1289 12.1866" fill="#6F3C00" blush:i="0.2.0.0.9.16"/><path id="Fill 112" fill-rule="evenodd" clip-rule="evenodd" d="M30.144 15.4347C30.259 14.4887 30.838 13.5647 31.721 13.0947C32.165 12.8817 32.65 12.7447 33.139 12.7437C33.382 12.7287 33.623 12.7737 33.862 12.7877L34.561 12.9577C34.084 12.9157 33.613 12.8857 33.151 12.9357C32.687 12.9747 32.24 13.1037 31.838 13.3157C31.425 13.5127 31.084 13.8347 30.8 14.1977C30.52 14.5637 30.295 14.9837 30.144 15.4347" fill="#6F3C00" blush:i="0.2.0.0.9.17"/><path id="Fill 114" fill-rule="evenodd" clip-rule="evenodd" d="M30.4512 15.4249C30.9292 14.6119 31.7022 13.9479 32.6262 13.6369C33.0902 13.4899 33.5942 13.4569 34.0682 13.5549C34.5512 13.6289 34.9772 13.8729 35.3682 14.1299C34.9312 13.9529 34.4962 13.7799 34.0392 13.7449C33.5892 13.6919 33.1282 13.7209 32.7012 13.8749C32.2662 14.0019 31.8642 14.2289 31.4892 14.4939C31.1182 14.7649 30.7632 15.0709 30.4512 15.4249" fill="#6F3C00" blush:i="0.2.0.0.9.18"/><path id="Fill 116" fill-rule="evenodd" clip-rule="evenodd" d="M31.436 15.6808C31.731 15.2448 32.143 14.8688 32.651 14.6618C33.155 14.4448 33.747 14.4478 34.265 14.6268C34.79 14.8088 35.214 15.1668 35.594 15.5378C35.763 15.7448 35.946 15.9398 36.1 16.1548L36.52 16.8268C36.177 16.4238 35.836 16.0308 35.459 15.6748C35.067 15.3468 34.666 15.0078 34.182 14.8628C33.715 14.6818 33.196 14.6798 32.718 14.8408C32.24 14.9998 31.801 15.3038 31.436 15.6808" fill="#6F3C00" blush:i="0.2.0.0.9.19"/><path id="Fill 118" fill-rule="evenodd" clip-rule="evenodd" d="M38.3286 18.2218C39.2026 18.5398 40.0096 19.0248 40.7606 19.5808C41.5136 20.1388 42.1826 20.8128 42.7556 21.5638C43.3306 22.3148 43.7506 23.1858 44.0116 24.0908C44.2996 24.9958 44.3046 25.9598 44.2076 26.8738C44.0956 25.9538 43.9956 25.0478 43.6456 24.2098C43.3136 23.3778 42.9116 22.5698 42.3546 21.8618C41.2766 20.4208 39.8766 19.2298 38.3286 18.2218" fill="#6F3C00" blush:i="0.2.0.0.9.20"/><path id="Fill 120" fill-rule="evenodd" clip-rule="evenodd" d="M38.8945 20.5851C39.5305 20.9471 40.0985 21.4141 40.6335 21.9141C41.1685 22.4151 41.6485 22.9781 42.0705 23.5851C42.4775 24.2011 42.8315 24.8601 43.0605 25.5681C43.2765 26.2801 43.3775 27.0281 43.2895 27.7561C43.1695 27.0331 42.9775 26.3541 42.7005 25.7041C42.4005 25.0641 42.0565 24.4511 41.6575 23.8661C40.8565 22.6961 39.9045 21.6331 38.8945 20.5851" fill="#6F3C00" blush:i="0.2.0.0.9.21"/><path id="Fill 122" fill-rule="evenodd" clip-rule="evenodd" d="M38.2534 26.4132C38.7074 27.1342 39.1964 27.7672 39.7464 28.3602C40.2924 28.9572 40.9034 29.4772 41.5454 30.0472C40.7164 29.8232 39.9734 29.3262 39.3794 28.6992C39.0894 28.3792 38.8304 28.0272 38.6384 27.6402C38.4444 27.2552 38.2864 26.8452 38.2534 26.4132" fill="#6F3C00" blush:i="0.2.0.0.9.22"/><path id="Fill 124" fill-rule="evenodd" clip-rule="evenodd" d="M38.1768 28.4337C38.4798 29.3177 39.0358 30.0707 39.6848 30.6957C40.3378 31.3227 41.1158 31.7877 41.9138 32.2757C42.6868 32.7687 43.5548 33.2767 44.0928 34.1247C44.6248 34.9637 44.7738 35.9377 44.7788 36.8677C44.5708 35.9597 44.3188 35.0497 43.7778 34.3457C43.2368 33.6457 42.4408 33.1897 41.6508 32.7007C40.8698 32.2087 40.0388 31.6957 39.4088 30.9597C38.7798 30.2457 38.2798 29.3747 38.1768 28.4337" fill="#6F3C00" blush:i="0.2.0.0.9.23"/><path id="Fill 126" fill-rule="evenodd" clip-rule="evenodd" d="M37.9868 30.047C38.4138 30.811 39.0158 31.417 39.6258 31.99C40.2418 32.553 40.9458 33.04 41.6188 33.61C42.2788 34.182 42.9488 34.801 43.4088 35.61C43.9108 36.395 43.9798 37.466 43.5668 38.244C43.6828 37.36 43.4188 36.565 42.9178 35.928C42.4248 35.283 41.7878 34.73 41.1348 34.182C40.4968 33.621 39.7868 33.092 39.2068 32.396C38.6298 31.72 38.1428 30.921 37.9868 30.047" fill="#6F3C00" blush:i="0.2.0.0.9.24"/><path id="Fill 128" fill-rule="evenodd" clip-rule="evenodd" d="M36.8403 33.7354C37.5163 33.9084 38.1273 34.2824 38.6743 34.7174C39.2283 35.1534 39.6933 35.6924 40.0993 36.2654C40.4793 36.8564 40.8133 37.4784 41.0333 38.1424C41.1553 38.4694 41.2283 38.8124 41.3243 39.1444C41.3843 39.4874 41.4423 39.8294 41.4773 40.1724C41.2113 39.5314 40.9773 38.8954 40.6773 38.2904C40.3833 37.6834 40.0553 37.1014 39.6853 36.5474C38.9293 35.4524 38.0103 34.4644 36.8403 33.7354" fill="#6F3C00" blush:i="0.2.0.0.9.25"/><path id="Fill 130" fill-rule="evenodd" clip-rule="evenodd" d="M36.1953 34.8292C36.8883 34.8172 37.5513 35.1832 38.0643 35.6542C38.5923 36.1262 38.9573 36.7452 39.2383 37.3772C39.5013 38.0232 39.7023 38.6362 39.9473 39.2612C40.0623 39.5732 40.1933 39.8792 40.3353 40.1782C40.4713 40.4792 40.6123 40.7862 40.8423 41.0302C40.2543 40.6522 39.9293 40.0042 39.5973 39.4212C39.2683 38.8302 39.0323 38.1672 38.7793 37.5742C38.5263 36.9762 38.2073 36.4092 37.7893 35.9212C37.3713 35.4402 36.8443 35.0232 36.1953 34.8292" fill="#6F3C00" blush:i="0.2.0.0.9.26"/><path id="Fill 132" fill-rule="evenodd" clip-rule="evenodd" d="M35.6636 35.5733C36.6426 36.5423 37.4886 37.6463 38.1736 38.8563C38.5256 39.4573 38.8166 40.0943 39.0766 40.7513C39.3176 41.4623 39.4746 41.9893 39.8376 42.4933C40.5016 43.5153 41.6606 44.1063 42.8996 44.6453C43.2116 44.7973 43.5356 44.9113 43.8786 45.1903C44.1456 45.4453 44.3856 45.7043 44.5956 45.9983C44.9846 46.5913 45.3076 47.2783 45.2506 47.9793C45.0826 47.3133 44.6976 46.7563 44.2256 46.3103C43.9936 46.0863 43.7356 45.8773 43.4776 45.7003C43.2656 45.5823 42.9366 45.4693 42.6196 45.3693C41.9696 45.1693 41.2996 44.9163 40.6606 44.5583C40.0296 44.1903 39.4466 43.6823 39.0126 43.0573C38.5816 42.4443 38.3506 41.6423 38.1836 41.0603C37.9926 40.4323 37.7346 39.8213 37.4776 39.2053C36.9346 37.9853 36.3316 36.7723 35.6636 35.5733" fill="#6F3C00" blush:i="0.2.0.0.9.27"/><path id="Fill 134" fill-rule="evenodd" clip-rule="evenodd" d="M35.6639 36.2823C35.0999 37.6983 34.6199 39.1433 34.2949 40.6143C34.0069 42.0693 33.7889 43.6303 34.2879 44.9863C34.4899 45.6923 35.0079 46.1903 35.5949 46.6013L37.5489 47.7743C38.1919 48.1813 38.8749 48.5413 39.4469 49.1003C39.7239 49.3863 39.9269 49.7633 39.9719 50.1563C40.0239 50.5473 39.9689 50.9313 39.8999 51.3053C39.9159 50.9253 39.9229 50.5413 39.8419 50.1803C39.7609 49.8183 39.5519 49.5113 39.2759 49.2763C38.7229 48.7993 38.0229 48.4723 37.3589 48.1093C36.6819 47.7613 36.0199 47.3763 35.3599 46.9903C34.6989 46.5623 34.0559 45.9483 33.8189 45.1593C33.5629 44.3953 33.4829 43.5913 33.5449 42.8143C33.5799 42.0333 33.7269 41.2693 33.9229 40.5243C34.3339 39.0403 34.9129 37.6123 35.6639 36.2823" fill="#6F3C00" blush:i="0.2.0.0.9.28"/><path id="Fill 136" fill-rule="evenodd" clip-rule="evenodd" d="M34.4779 39.253C34.5439 40.399 34.7249 41.527 35.0799 42.563C35.2719 43.072 35.4979 43.565 35.8309 43.963C36.1439 44.386 36.5529 44.633 37.0629 44.964C38.0049 45.625 38.9539 46.318 39.7119 47.252C40.0839 47.716 40.4089 48.261 40.5109 48.872C40.6039 49.482 40.4849 50.097 40.1989 50.597C40.3289 50.035 40.3499 49.464 40.1579 48.962C39.9909 48.456 39.6489 48.027 39.2749 47.636C38.5019 46.863 37.5729 46.218 36.6409 45.583C36.1999 45.289 35.6189 44.918 35.2639 44.394C34.8999 43.883 34.6589 43.313 34.5189 42.732C34.2289 41.572 34.2529 40.383 34.4779 39.253" fill="#6F3C00" blush:i="0.2.0.0.9.29"/><path id="Fill 138" fill-rule="evenodd" clip-rule="evenodd" d="M38.8176 41.9122C38.8596 42.9682 39.2366 43.9822 39.7826 44.8602C40.0466 45.3072 40.3926 45.6892 40.6916 46.1532C40.9836 46.6102 41.2076 47.1292 41.2876 47.6842C41.4636 48.8182 40.9886 49.8952 40.4826 50.8202C39.9626 51.7652 39.3146 52.6102 38.7646 53.4912C38.1886 54.3482 37.7556 55.3102 38.2456 56.2212C38.6416 57.1332 39.4606 57.8692 39.9826 58.8212C40.5336 59.7412 40.9306 60.7812 41.0006 61.8632C41.0596 62.9492 40.7126 64.0162 40.1346 64.8942C40.6436 63.9712 40.8936 62.9092 40.7566 61.8832C40.6396 60.8572 40.2246 59.8862 39.6556 59.0242C39.1166 58.1492 38.3166 57.4332 37.8306 56.4082C37.5816 55.9102 37.4806 55.2812 37.6376 54.7182C37.7796 54.1552 38.0616 53.6782 38.3426 53.2242C38.9236 52.3232 39.5756 51.4972 40.0866 50.5982C40.5986 49.7082 41.0086 48.7262 40.9076 47.7312C40.8586 47.2382 40.6786 46.7582 40.4216 46.3162C40.1716 45.8802 39.8206 45.4592 39.5716 44.9812C39.0786 44.0312 38.7776 42.9702 38.8176 41.9122" fill="#6F3C00" blush:i="0.2.0.0.9.30"/><path id="Fill 140" fill-rule="evenodd" clip-rule="evenodd" d="M40.9673 47.1046C41.5163 47.7026 41.8113 48.5416 41.7703 49.3806C41.7203 50.2326 41.2863 50.9976 40.8553 51.6756C40.4303 52.3676 39.9353 53.0096 39.6453 53.7236C39.3293 54.4236 39.3143 55.2086 39.7493 55.8096C40.5953 56.9956 42.3373 57.8076 42.8483 59.5206C43.2753 61.2196 42.6393 62.8226 42.1243 64.3296C42.3003 63.5386 42.4963 62.7536 42.5943 61.9586C42.7083 61.1706 42.7293 60.3586 42.4823 59.6366C42.2293 58.9186 41.7063 58.3306 41.1133 57.7996C40.5413 57.2486 39.8493 56.8176 39.3293 56.0806C38.8023 55.3416 38.8553 54.2906 39.2273 53.5456C39.5713 52.7676 40.0693 52.1136 40.5373 51.4616C41.0033 50.8126 41.4323 50.1386 41.5283 49.3586C41.6433 48.5866 41.4253 47.7686 40.9673 47.1046" fill="#6F3C00" blush:i="0.2.0.0.9.31"/><path id="Fill 142" fill-rule="evenodd" clip-rule="evenodd" d="M37.7944 61.2481C37.9894 62.1271 38.0344 63.0061 38.0444 63.8851C38.0354 64.7651 37.9904 65.6441 37.7944 66.5221C37.5984 65.6431 37.5534 64.7641 37.5444 63.8851C37.5544 63.0061 37.6004 62.1271 37.7944 61.2481" fill="#6F3C00" blush:i="0.2.0.0.9.32"/><path id="Fill 144" fill-rule="evenodd" clip-rule="evenodd" d="M36.0037 63.7491C36.1827 64.3661 36.3287 64.9321 36.5277 65.4891C36.6167 65.7701 36.7267 66.0431 36.8337 66.3221C36.9377 66.6041 37.0757 66.8721 37.1877 67.1801C36.6427 66.8281 36.2627 66.2591 36.0547 65.6501C35.8557 65.0391 35.7917 64.3661 36.0037 63.7491" fill="#6F3C00" blush:i="0.2.0.0.9.33"/><path id="Fill 146" fill-rule="evenodd" clip-rule="evenodd" d="M40.7661 52.2267C41.0981 52.7647 41.4511 53.2747 41.8351 53.7537C42.2241 54.2387 42.6271 54.6677 43.0781 55.1177C43.5001 55.5737 43.9681 56.0657 44.1851 56.7187C44.3991 57.3677 44.3521 58.0187 44.2511 58.6407C44.1471 58.0177 44.0851 57.3857 43.8291 56.8617C43.5711 56.3437 43.1481 55.9107 42.7171 55.4617C42.2891 55.0197 41.8421 54.5237 41.5221 53.9737C41.1891 53.4287 40.9091 52.8477 40.7661 52.2267" fill="#6F3C00" blush:i="0.2.0.0.9.34"/><path id="Fill 148" fill-rule="evenodd" clip-rule="evenodd" d="M42.5093 54.4239C43.2933 54.2399 44.1253 54.2639 44.9273 54.4649C45.7303 54.6619 46.4993 55.1329 47.0083 55.8219C47.5093 56.5169 47.7573 57.3479 47.8113 58.1659C47.8263 58.5739 47.7973 58.9829 47.7773 59.3849C47.6943 59.7819 47.6273 60.1789 47.5293 60.5669C47.5153 60.1619 47.5323 59.7669 47.5323 59.3729C47.5013 58.9819 47.4883 58.5889 47.4283 58.2079C47.2903 57.4499 47.0513 56.7209 46.6093 56.1239C46.1763 55.5189 45.5273 55.0979 44.8123 54.8299C44.0923 54.5709 43.3073 54.4449 42.5093 54.4239" fill="#6F3C00" blush:i="0.2.0.0.9.35"/><path id="Fill 150" fill-rule="evenodd" clip-rule="evenodd" d="M43.9551 56.2667C44.9081 56.1887 45.8211 56.7487 46.4341 57.4567C46.7451 57.8197 46.9801 58.2347 47.1851 58.6577L47.4361 59.3147L47.6061 59.9957C47.2401 59.1397 46.8431 58.3027 46.2441 57.6207C45.9571 57.2717 45.6151 56.9717 45.2311 56.7347C44.8461 56.5037 44.4181 56.3187 43.9551 56.2667" fill="#6F3C00" blush:i="0.2.0.0.9.36"/><path id="Fill 152" fill-rule="evenodd" clip-rule="evenodd" d="M33.069 37.9942C32.675 38.8712 32.344 39.7702 32.154 40.6972C31.945 41.6152 31.85 42.5602 31.972 43.4682C32.093 44.3732 32.425 45.2362 33.012 45.9092C33.567 46.5612 34.398 47.1432 35.082 47.8582C36.437 49.2692 37.503 51.1482 37.529 53.1792C37.553 54.1792 37.365 55.1652 37.041 56.0872C36.678 56.9972 36.216 57.8522 35.664 58.6402C36.496 56.9212 37.137 55.0602 36.953 53.2122C36.796 51.3692 35.83 49.7092 34.541 48.3772C33.912 47.6912 33.136 47.1712 32.459 46.3512C31.818 45.5472 31.445 44.5292 31.401 43.5242C31.294 41.5032 32.022 39.5982 33.069 37.9942" fill="#6F3C00" blush:i="0.2.0.0.9.37"/><path id="Fill 154" fill-rule="evenodd" clip-rule="evenodd" d="M32.6519 47.9796C32.9469 48.8486 33.3699 49.6556 33.8809 50.3896C34.4159 51.1016 34.9809 51.8756 35.3799 52.7196C35.7809 53.5646 36.0609 54.4966 36.0649 55.4476C36.0749 56.3976 35.8199 57.3296 35.3679 58.1296C35.6299 57.2496 35.7689 56.3496 35.6819 55.4666C35.5899 54.5866 35.3219 53.7366 34.9289 52.9356C34.5539 52.1176 34.0429 51.3986 33.5549 50.5976C33.0899 49.7876 32.7439 48.9016 32.6519 47.9796" fill="#6F3C00" blush:i="0.2.0.0.9.38"/></g></g></g></g><g id="Female Character/Accesories" blush:component="Female Character/Accesories" blush:defaultValue="Glasses 1" blush:width="34" blush:height="36" transform="translate(127 60) scale(1 1)" blush:i="0.3" blush:value="Glasses 1" blush:viewBox="7.995762711864408 15.479999999999997 19.629237288135588 5.940000000000005"><g id="Female Character/Accesories/Glasses 1" blush:viewBox="7.995762711864408 15.479999999999997 19.629237288135588 5.940000000000005" blush:i="0.3.0"><g id="Accesories" blush:i="0.3.0.0"><path id="Rectangle" fill-rule="evenodd" clip-rule="evenodd" d="M13.0981 15.625H18.0981C18.8575 15.625 19.4731 16.2406 19.4731 17V20C19.4731 20.7594 18.8575 21.375 18.0981 21.375H13.0981C12.3388 21.375 11.7231 20.7594 11.7231 20V17C11.7231 16.2406 12.3388 15.625 13.0981 15.625ZM18.0981 16.375H13.0981C12.753 16.375 12.4731 16.6548 12.4731 17V20C12.4731 20.3452 12.753 20.625 13.0981 20.625H18.0981C18.4433 20.625 18.7231 20.3452 18.7231 20V17C18.7231 16.6548 18.4433 16.375 18.0981 16.375Z" fill="#1E2214" blush:i="0.3.0.0.0"/><path id="Rectangle Copy" fill-rule="evenodd" clip-rule="evenodd" d="M22.0981 15.625H26.0981C26.8575 15.625 27.4731 16.2406 27.4731 17V20C27.4731 20.7594 26.8575 21.375 26.0981 21.375H22.0981C21.3388 21.375 20.7231 20.7594 20.7231 20V17C20.7231 16.2406 21.3388 15.625 22.0981 15.625ZM26.0981 16.375H22.0981C21.753 16.375 21.4731 16.6548 21.4731 17V20C21.4731 20.3452 21.753 20.625 22.0981 20.625H26.0981C26.4433 20.625 26.7231 20.3452 26.7231 20V17C26.7231 16.6548 26.4433 16.375 26.0981 16.375Z" fill="#1E2214" blush:i="0.3.0.0.1"/><path id="Path 2" fill-rule="evenodd" clip-rule="evenodd" d="M19.0823 17.9887C19.0823 17.9887 20.4888 17.4275 21.0823 17.9887L20.9952 17.0113H19.0823V17.9887Z" fill="#1E2214" blush:i="0.3.0.0.2"/><path id="Path 3" fill-rule="evenodd" clip-rule="evenodd" d="M12.2395 17.5L8 17.2817V16.7135L12.3993 16.1693L12.2395 17.5Z" fill="#1E2214" blush:i="0.3.0.0.3"/></g></g></g></g></svg>