<svg viewBox="77.1875 52.88150289017344 92.62499999999994 108.23699421965321" fill="none" xmlns="http://www.w3.org/2000/svg" xmlns:xlink="http://www.w3.org/1999/xlink" xmlns:blush="http://design.blush" overflow="visible" width="92.62499999999994px" height="108.23699421965321px"><g id="Master/Stickers/Snake Plant" blush:has-customizable-colors="true" blush:viewBox="79.04000000000002 52.01732101616628 88.91999999999994 109.96535796766749" blush:i="0"><g id="Group 60 Copy" blush:i="0.0"><path id="Fill 4016" fill-rule="evenodd" clip-rule="evenodd" d="M124.784 160.772C98.9861 161.632 106.603 147.047 101.955 129.868C114.433 131.074 135.353 133.004 150.555 129.874C148.996 133.359 148.606 137.951 147.342 141.799C144.08 157.044 141.612 161.776 124.784 160.772" fill="#FECDC7" blush:i="0.0.0"/><path id="Fill 4018" fill-rule="evenodd" clip-rule="evenodd" d="M143.366 131.072C132.5 131.522 119.21 132.611 109.481 130.456C120.258 128.68 133.356 128.168 143.366 131.072" fill="#5F4134" blush:i="0.0.1"/><path id="Fill 4020" fill-rule="evenodd" clip-rule="evenodd" d="M143.366 131.072C140.681 129.529 133.918 131.421 137.944 127.217C143.994 126.995 156.262 130.061 143.366 131.072" fill="#FDADA7" blush:i="0.0.2"/><path id="Fill 4022" fill-rule="evenodd" clip-rule="evenodd" d="M112.304 130.076C109.748 130.654 103.817 131.522 103 128.538C107.201 127.48 111.722 125.756 112.304 130.076" fill="#FDADA7" blush:i="0.0.3"/><path id="Fill 4024" fill-rule="evenodd" clip-rule="evenodd" d="M104.132 127.952C103.122 128.926 102.536 128.824 103.863 129.902C101.284 129.42 101.794 128.321 104.132 127.952" fill="#FDB7B2" blush:i="0.0.4"/><path id="Fill 4026" fill-rule="evenodd" clip-rule="evenodd" d="M149.479 130.175C149.624 129.756 150.157 129.567 149.616 129.257C146.152 127.416 153.098 129.814 149.479 130.175" fill="#FDB7B2" blush:i="0.0.5"/><path id="Fill 4028" fill-rule="evenodd" clip-rule="evenodd" d="M104.129 129.914C104.78 129.888 105.698 129.724 106.018 130.442C105.427 130.125 104.662 130.435 104.129 129.914" fill="#FDB7B2" blush:i="0.0.6"/><path id="Fill 4030" fill-rule="evenodd" clip-rule="evenodd" d="M107.45 130.708C107.784 130.351 108.247 130.388 108.622 130.8C108.231 130.77 107.841 130.738 107.45 130.708" fill="#FDB7B2" blush:i="0.0.7"/><path id="Fill 4032" fill-rule="evenodd" clip-rule="evenodd" d="M102.165 130.717L102.071 129.815C102.402 130.155 102.441 130.536 102.165 130.717" fill="#FED9D4" blush:i="0.0.8"/><path id="Fill 4034" fill-rule="evenodd" clip-rule="evenodd" d="M106.913 130.537C107.147 130.362 107.172 130.526 107.186 130.706C107.096 130.65 107.004 130.594 106.913 130.537" fill="#FDB7B2" blush:i="0.0.9"/><path id="Fill 4036" fill-rule="evenodd" clip-rule="evenodd" d="M106.285 130.45C106.467 130.504 106.376 130.476 106.285 130.45C106.429 130.293 106.518 130.323 106.285 130.45" fill="#FDB7B2" blush:i="0.0.10"/><path id="Fill 4038" fill-rule="evenodd" clip-rule="evenodd" d="M114.718 129.766C107.572 125.31 133.538 124.915 134.412 128.673C128.404 130.479 121.146 128.469 114.718 129.766" fill="#FECDC7" blush:i="0.0.11"/><path id="Fill 4040" fill-rule="evenodd" clip-rule="evenodd" d="M131.05 129.376C133.854 129.461 134.415 128.989 133.771 126.891C141.529 126.369 136.258 131.218 131.05 129.376" fill="#FDB7B2" blush:i="0.0.12"/><path id="Fill 4042" fill-rule="evenodd" clip-rule="evenodd" d="M112.571 127.032C114.035 128.18 115.184 130.451 112.304 130.075C110.913 128.069 109.784 128.064 112.571 127.032" fill="#FDB7B2" blush:i="0.0.13"/><path id="Fill 4044" fill-rule="evenodd" clip-rule="evenodd" d="M109.699 127.316C108.683 127.612 106.701 128.333 105.735 127.713C107.028 127.313 108.357 127.305 109.699 127.316" fill="#FDB7B2" blush:i="0.0.14"/><path id="Fill 4046" fill-rule="evenodd" clip-rule="evenodd" d="M148.313 128.576C148.193 128.689 148.087 128.841 147.945 128.894C146.893 128.062 147.108 128.267 148.313 128.576" fill="#FDB7B2" blush:i="0.0.15"/><path id="Fill 4048" fill-rule="evenodd" clip-rule="evenodd" d="M105.109 127.734C104.638 127.874 104.874 127.803 105.109 127.734C105.323 128.346 104.741 128.37 105.109 127.734" fill="#FDB7B2" blush:i="0.0.16"/><path id="Fill 4050" fill-rule="evenodd" clip-rule="evenodd" d="M145.08 127.933C144.59 127.876 143.903 128.237 143.637 127.707C144.118 127.783 144.599 127.858 145.08 127.933" fill="#FDB7B2" blush:i="0.0.17"/><path id="Fill 4052" fill-rule="evenodd" clip-rule="evenodd" d="M142.472 127.597C142.16 127.92 141.913 127.701 141.665 127.497C141.935 127.531 142.203 127.564 142.472 127.597" fill="#FDB7B2" blush:i="0.0.18"/><path id="Fill 4054" fill-rule="evenodd" clip-rule="evenodd" d="M141.04 127.43C140.792 127.702 140.594 127.575 140.407 127.354L141.04 127.43Z" fill="#FDB7B2" blush:i="0.0.19"/><path id="Fill 4056" fill-rule="evenodd" clip-rule="evenodd" d="M143.194 127.678C143.012 127.98 142.872 127.858 142.742 127.633C142.892 127.649 143.044 127.663 143.194 127.678" fill="#FDB7B2" blush:i="0.0.20"/><path id="Fill 4058" fill-rule="evenodd" clip-rule="evenodd" d="M141.394 127.494L141.215 127.447L141.394 127.494Z" fill="#FDB7B2" blush:i="0.0.21"/><path id="Fill 4060" fill-rule="evenodd" clip-rule="evenodd" d="M125.239 129.304C126.37 129.126 127.728 129.049 128.829 129.347C127.633 129.332 126.436 129.318 125.239 129.304" fill="#FDB7B2" blush:i="0.0.22"/><path id="Fill 4062" fill-rule="evenodd" clip-rule="evenodd" d="M129 129.351C129.273 129.098 130.089 129.087 130.354 129.368C129.902 129.362 129.451 129.356 129 129.351" fill="#FDB7B2" blush:i="0.0.23"/><path id="Fill 4064" fill-rule="evenodd" clip-rule="evenodd" d="M114.718 129.766C114.999 129.727 115.28 129.687 115.561 129.647C115.28 129.687 114.999 129.727 114.718 129.766" fill="#FDB7B2" blush:i="0.0.24"/><path id="Fill 4066" fill-rule="evenodd" clip-rule="evenodd" d="M130.526 129.374C130.648 129.369 130.769 129.365 130.891 129.36C130.769 129.365 130.648 129.369 130.526 129.374" fill="#FDB7B2" blush:i="0.0.25"/><path id="Fill 4068" fill-rule="evenodd" clip-rule="evenodd" d="M125.039 129.284C125.109 129.289 125.18 129.294 125.25 129.298C125.18 129.294 125.109 129.289 125.039 129.284" fill="#FDB7B2" blush:i="0.0.26"/><path id="Fill 4070" fill-rule="evenodd" clip-rule="evenodd" d="M131.841 127.661C131.64 127.158 131.55 127.662 131.385 127.841C131.567 128.004 131.674 127.761 131.841 127.661V127.661ZM130.846 129.17C132.023 129.236 132.389 127.103 131.242 128.379C131.052 128.868 129.874 127.955 130.846 129.17V129.17ZM124.193 128.616C123.977 128.202 124.119 126.738 123.616 126.807C122.62 127.132 124.194 130.381 124.193 128.616V128.616ZM132.913 124.182C134.637 123.34 133.972 121.995 132.256 121.932C132.067 122.456 132.009 124.251 132.913 124.182V124.182ZM139.579 115.106C141.694 114.103 139.961 113.269 139.599 111.939C138.646 113.156 136.777 116.651 139.579 115.106V115.106ZM131.433 122.15C130.211 118.871 130.825 125.291 129.347 123.328C127.939 127.305 131.285 126.82 131.433 122.15V122.15ZM124.414 118.811C125.037 122.238 126.874 116.513 125.468 114.786C123.699 113.33 124.592 118.589 124.414 118.811V118.811ZM128.334 127.029C129.155 125.243 126.652 122.85 126.178 123.766C126.646 125.494 125.3 129.099 128.334 127.029V127.029ZM132.97 127.887C134.889 130.388 138.364 127.549 135.548 126.506C135.06 128.722 134.502 121.528 132.97 127.887V127.887ZM133.53 102.264C132.889 101.224 131.168 101.479 131.056 99.6881C127.341 98.6901 133.336 107.593 133.53 102.264V102.264ZM127.42 90.5481C128.935 91.5141 132.572 89.3831 132.002 87.2111C129.468 86.7321 127.383 87.9011 127.42 90.5481V90.5481ZM143.386 114.45C145.688 114.411 145.559 109.961 143.222 111.735C143.016 111.905 143.623 109.274 142.206 110.929C139.799 112.912 141.397 117.986 143.386 114.45V114.45ZM137.623 123.268C138.307 122.597 140.246 120.27 139.464 119.618C138.77 120.128 138.34 121.016 138.877 119.634C138.528 118.919 136.701 119.439 135.786 119.561C135.523 119.224 135.485 117.957 134.951 118.62C133.177 126.613 136.875 120.125 137.623 123.268V123.268ZM138.268 84.3031C138.142 83.1441 137.311 84.3941 135.66 84.1211C127.754 84.8471 138.389 93.8871 138.268 84.3031V84.3031ZM134.137 103.769C134.078 106.051 136.998 104.908 138.275 104.153C138.358 105.222 136.907 107.664 138.657 107.553C142.626 108.183 141.062 101.142 138.863 101.951C138.323 104.728 134.187 101.426 134.137 103.769V103.769ZM129.82 110.542C131.436 114.285 133.444 107.727 130.897 106.919C127.794 106.804 131.572 104.753 128.114 104.491C125.782 103.932 125.564 108.357 126.625 110.09C128.134 109.474 129.723 106.849 129.82 110.542V110.542ZM134.482 108.466C132.867 105.946 131.963 113.365 133.536 113.641C137.614 111.708 135.091 113.234 136.729 115.239C140.156 111.333 137.698 108.532 134.482 108.466V108.466ZM133.202 97.1431C133.906 100.628 136.52 93.5171 135.637 92.7521C134.281 94.3541 134.172 93.8411 132.56 92.0381C131.096 93.8701 124.958 94.9051 126.932 99.2611C130.375 100.969 129.926 94.5831 131.36 94.4941C131.343 96.8331 134.199 94.8141 133.202 97.1431V97.1431ZM147.501 110.396C154.787 105.761 146.917 102.209 143.312 106.382C143.834 101.481 138.154 110.843 143.629 109.662C145.872 107.84 147.491 106.371 147.501 110.396V110.396ZM129.074 116.334C124.4 111.509 129.862 124.938 129.636 117.51C132.707 120.501 131.026 114.246 130.349 114.729C129.813 117.553 129.861 113.825 129.074 116.334V116.334ZM134.382 117.498C133.515 116.599 131.819 116.08 132.219 118.054C132.242 119.255 136.186 118.211 134.382 117.498V117.498ZM121.59 75.1481C121.857 70.3351 121.932 76.3291 123.139 74.1281C123.535 70.7541 124.04 76.1821 125.682 73.7541C128.111 73.2701 125.396 68.5411 124.93 69.5651C123.956 69.9101 124.465 73.3231 124.179 69.9931C123.188 68.5711 123.155 70.7691 122.827 71.4281C119.014 63.1121 126.709 67.0441 124.431 62.2431C123.273 61.1611 124.231 63.9261 122.594 62.6761C122.093 55.7841 119.352 47.4221 124.468 58.0831C126.47 57.3201 128.279 60.3131 126.05 61.8781C127.621 66.1441 131.436 64.8911 134.055 68.1521C133.416 75.1971 131.372 66.4691 129.04 68.1801C126.699 71.2811 127.97 74.1211 132.152 71.7871C134.353 75.6201 133.908 78.7741 128.843 77.5081C126.739 82.0161 130.757 83.9351 132.931 79.9081C136.439 80.2751 135.357 81.7391 138.712 79.9041C143.991 72.9321 130.337 82.4251 137.703 73.8221C140.743 73.2681 139.919 75.2211 141.172 71.3541C140.671 76.3071 141.177 73.1661 142.718 75.1771C143.899 77.2991 137.61 77.7681 140.782 79.4861C147.253 79.4271 136.98 84.7491 137.928 89.4961C140.964 87.2961 141.237 93.7981 139.06 93.5121C136.25 91.8731 134.144 98.8911 136.93 98.8691C139.663 100.474 139.981 94.7121 140.898 98.5651C141.399 98.2241 142.618 99.1081 142.381 100.265C143.311 101.862 144.966 96.0061 144.06 96.9731C135.53 89.3761 150.467 94.0691 145.879 88.4991C141.919 87.9941 145.899 83.9631 148.164 83.9251C151.133 89.9821 143.356 90.7821 149.422 93.6001C150.237 100.829 145.507 93.1071 144.343 100.11C144.789 101.478 147.793 102.849 148.774 101.3C148.592 104.43 149.52 102.904 151.701 101.3C152.219 103.072 155.046 106.039 156.76 100.633C153.053 101.752 157.636 99.3071 154.422 99.3451C157.166 96.1691 158.451 97.4091 160.747 96.8331C161.556 95.7531 163.894 93.6901 161.249 93.6811C162.869 91.5221 168.494 84.3081 165.456 91.8871C155.296 102.811 169.006 97.3281 156.025 103.267C154.215 108.646 159.196 102.397 157.172 105.818C157.747 108.457 151.236 110.186 153.049 108.226C151.278 105.408 148.307 112.531 151.148 111.916C155.241 108.519 149.966 114.286 148.492 115.883C149.717 112.019 144.007 113.157 142.883 117.266C145.589 116.073 143.95 115.406 144.813 117.666C145.37 117.949 146.669 115.814 146.766 116.644C145.169 121.717 142.075 121.659 140.763 120.263C136.913 124.434 141.883 123.308 138.905 126.635C134.923 133.293 133.664 129.867 126.761 129.898C121.698 132.307 122.453 126.482 121.088 122.48C122.912 126.976 122.608 123.56 124.137 124.246C126.039 126.927 125.404 118.933 124.008 121.291C123.416 121.837 124.27 119.333 123.336 119.518C122.131 121.215 122.611 119.473 121.767 118.347C120.878 119.999 119.25 118.307 119.67 120.995C114.52 113.384 119.283 118.765 119.321 113.44C120.512 113.722 120.499 114.79 120.992 115.839C121.594 114.06 121.686 114.312 121.453 116.084C122.013 117.146 122.421 115.284 122.615 114.784C123.987 120.127 123.777 107.282 120.361 113.245C118.178 107.029 117.146 112.152 115.659 110.428C115.519 116.335 111.362 104.135 114.023 107.587C116.351 101.076 116.084 106.263 118.75 108.946C120.174 108.621 122.318 107.221 122.678 109.354C125.407 112.897 126.111 105.65 124.605 104.989C123.582 108.537 125.223 103.571 122.082 106.052C121.218 103.323 120.168 103.603 117.811 103.95C115.074 103.671 116.749 96.7971 119.608 99.1841C127.442 104.803 126.342 92.0471 123.04 96.9881C122.542 96.2551 121.773 96.1401 121.846 97.2041C121.597 95.6371 120.705 95.8381 120.548 97.1001C119.397 92.1961 119.389 95.2801 117.332 95.3901C117.338 90.7821 119.929 90.9921 122.18 91.7291C125.827 92.2181 128.248 89.2331 124.594 86.9131C123.37 89.0911 124.958 89.3381 122.961 87.6821C121.888 88.8911 122.264 91.3681 121.75 87.9541C117.832 89.7481 119.728 77.3571 121.49 82.2611C123.628 80.0701 122.954 82.2891 126.385 82.3901C127.47 81.3971 125.711 73.6821 124.864 79.6571C123.22 74.2111 120.862 83.7321 121.59 75.1481V75.1481Z" fill="#1D311D" blush:i="0.0.27"/><path id="Fill 4072" fill-rule="evenodd" clip-rule="evenodd" d="M81.0474 81.0849C81.1064 81.1419 81.1524 81.1949 81.2014 81.1319C81.1944 81.0179 81.1494 81.0419 81.0474 81.0849M119.771 131.324C119.807 131.211 119.873 131.102 119.759 131.057C119.595 131.142 119.607 131.128 119.771 131.324M116.479 127.349C114.879 127.929 117.134 129.146 117.799 129.685C118.481 129.452 116.862 127.844 116.479 127.349M100.126 103.331C100.087 104.208 104.714 105.906 103.769 104.775C102.617 103.224 101.344 102.031 100.126 103.331M109.58 116.392C108.892 117.607 111.123 118.025 111.489 116.872C111.823 117.454 113.134 118.601 112.703 117.168C111.089 113.012 107.837 110.989 109.58 116.392M110.554 121.1C111.442 127.915 118.885 126.044 113.477 120.291C113.066 121.806 111.963 121.27 110.554 121.1M93.1124 99.5319C87.8594 97.8339 94.1954 103.475 96.2524 101.207C97.8304 98.9969 88.3024 95.8559 93.1124 99.5319M110.834 110.036C111.591 110.813 113.802 113.046 111.604 112.382C108.788 116.032 122.954 117.939 115.283 120.4C116.252 123.904 116.702 126.426 119.383 123.147C121.571 124.712 119.879 127.981 117.999 127.323C128.825 137.061 108.441 127.879 108.381 123.03C111.071 112.901 104.935 124.322 102.523 112.94C106.217 118.214 110.221 107.941 104.89 109.797C103.272 110.003 105.232 111.091 103.142 110.02C102.653 111.808 104.601 112.47 102.219 111.205C101.905 112.478 101.289 111.144 101.28 110.539C99.2294 109.081 101.405 107.627 103.293 106.985C105.138 106.354 99.6204 103.954 100.205 105.606C99.3974 103.359 82.0664 99.9769 87.8894 95.7029C85.8264 91.2209 83.0224 95.7969 80.7944 92.3919C77.6984 87.3919 86.2584 91.3279 82.0774 86.1849C79.0264 86.5489 80.8744 77.5859 81.9324 83.3619C84.6004 88.1529 85.5364 90.0739 87.6494 94.3419C94.3034 91.0659 90.7304 99.5899 96.5704 97.8129C94.9184 93.8859 95.9984 94.3559 99.5054 92.3929C103.413 93.0279 99.4274 96.3759 98.6134 97.3439C107.453 98.7229 103.507 105.147 110.834 110.036" fill="#1D311D" blush:i="0.0.28"/><path id="Fill 4074" fill-rule="evenodd" clip-rule="evenodd" d="M105.975 83.1718C107.256 85.2548 109.436 87.5478 109.499 89.9778C108.86 89.7948 106.963 85.9498 107.881 89.6278C106.831 90.2898 107.273 91.6998 106.748 93.0898C106.136 92.4818 101.154 89.2198 101.928 84.8928C103.514 87.4468 103.687 84.1308 105.975 83.1718" fill="#1D311D" blush:i="0.0.29"/><path id="Fill 4076" fill-rule="evenodd" clip-rule="evenodd" d="M91.8576 68.7021C89.7666 65.2471 86.3306 57.6391 92.0256 63.9201C98.4716 66.7061 96.7136 76.7641 91.8576 68.7021" fill="#1D311D" blush:i="0.0.30"/><path id="Fill 4078" fill-rule="evenodd" clip-rule="evenodd" d="M110.541 102.299C104.51 93.4728 112.825 99.0618 109.596 92.1498C114.025 96.1368 116.321 101.176 110.541 102.299" fill="#1D311D" blush:i="0.0.31"/><path id="Fill 4080" fill-rule="evenodd" clip-rule="evenodd" d="M99.9355 73.289C107.836 82.265 96.9215 79.902 100.605 81.736C95.6605 82.746 97.2465 74.199 99.9355 73.289" fill="#1D311D" blush:i="0.0.32"/><path id="Fill 4082" fill-rule="evenodd" clip-rule="evenodd" d="M142.819 70.7578C141.664 70.2438 142.091 72.6698 141.578 71.6838C141.084 69.3708 140.159 73.1038 140.031 70.8638C136.76 71.1298 142.997 60.2428 142.819 70.7578" fill="#1D311D" blush:i="0.0.33"/><path id="Fill 4084" fill-rule="evenodd" clip-rule="evenodd" d="M167.802 83.8779C166.464 85.3319 163.368 86.9779 163.824 83.3689C164.511 81.7189 168.988 80.5729 167.802 83.8779" fill="#1D311D" blush:i="0.0.34"/><path id="Fill 4086" fill-rule="evenodd" clip-rule="evenodd" d="M99.4222 89.8163C97.6022 90.4243 96.5802 90.9403 95.0142 91.3443C94.3752 88.5403 98.9502 86.0173 99.4222 89.8163" fill="#1D311D" blush:i="0.0.35"/><path id="Fill 4088" fill-rule="evenodd" clip-rule="evenodd" d="M148.645 81.997C146.77 83.481 145.573 79.8 147.451 77.319C149.366 77.348 147.951 81.462 148.645 81.997" fill="#1D311D" blush:i="0.0.36"/><path id="Fill 4090" fill-rule="evenodd" clip-rule="evenodd" d="M133.009 64.6249C130.594 63.3229 135.453 59.8709 135.601 62.0339C134.622 64.3699 135.267 65.1199 133.009 64.6249" fill="#1D311D" blush:i="0.0.37"/><path id="Fill 4092" fill-rule="evenodd" clip-rule="evenodd" d="M97.0848 85.5839C96.9228 86.1309 95.2378 87.2409 94.7888 86.9019C93.6768 83.2759 95.7628 81.2459 97.0848 85.5839" fill="#1D311D" blush:i="0.0.38"/><path id="Fill 4094" fill-rule="evenodd" clip-rule="evenodd" d="M167.106 79.2099C165.536 80.9809 164.528 79.1079 164.918 77.0169C165.229 74.3859 166.846 78.2169 167.106 79.2099" fill="#1D311D" blush:i="0.0.39"/><path id="Fill 4096" fill-rule="evenodd" clip-rule="evenodd" d="M99.5979 82.529C100.253 82.196 99.7739 83.256 100.263 83.375C99.8259 83.94 99.4269 82.966 99.5979 82.529V82.529Z" fill="#1D311D" blush:i="0.0.40"/><path id="Fill 4098" fill-rule="evenodd" clip-rule="evenodd" d="M166.743 87.9326C166.788 87.8776 166.765 87.9056 166.743 87.9326C166.612 87.8326 166.69 87.8316 166.743 87.9326" fill="#1D311D" blush:i="0.0.41"/><path id="Fill 4100" fill-rule="evenodd" clip-rule="evenodd" d="M149.236 97.9462L149.227 97.9492L149.236 97.9462Z" fill="#1D311D" blush:i="0.0.42"/><path id="Fill 4102" fill-rule="evenodd" clip-rule="evenodd" d="M95.007 87.0673C94.959 87.1153 94.911 87.1643 94.864 87.2123C94.911 87.1643 94.959 87.1153 95.007 87.0673" fill="#1D311D" blush:i="0.0.43"/><path id="Fill 4104" fill-rule="evenodd" clip-rule="evenodd" d="M123.181 97.4277C123.176 97.4087 123.169 97.3947 123.196 97.4057C123.196 97.4047 123.181 97.4277 123.181 97.4277" fill="#1D311D" blush:i="0.0.44"/><path id="Fill 4106" fill-rule="evenodd" clip-rule="evenodd" d="M105.078 113.901C105.029 113.89 104.931 113.906 104.987 113.837C105.017 113.853 105.051 113.907 105.078 113.901" fill="#1D311D" blush:i="0.0.45"/><path id="Fill 4108" fill-rule="evenodd" clip-rule="evenodd" d="M120.724 114.033C120.706 114.065 120.687 114.1 120.667 114.136C120.596 114.068 120.677 113.873 120.724 114.033" fill="#1D311D" blush:i="0.0.46"/><path id="Fill 4110" fill-rule="evenodd" clip-rule="evenodd" d="M123.505 115.072C123.469 115.056 123.463 115.055 123.501 115.076L123.505 115.072Z" fill="#1D311D" blush:i="0.0.47"/><path id="Fill 4112" fill-rule="evenodd" clip-rule="evenodd" d="M122.248 115.88C122.236 115.866 122.179 115.822 122.232 115.848C122.241 115.857 122.236 115.893 122.248 115.88" fill="#1D311D" blush:i="0.0.48"/><path id="Fill 4114" fill-rule="evenodd" clip-rule="evenodd" d="M119.15 87.5703C119.045 87.7163 118.999 87.7573 118.921 87.6063C118.936 87.4633 119.028 87.5053 119.15 87.5703" fill="#1D311D" blush:i="0.0.49"/><path id="Fill 4116" fill-rule="evenodd" clip-rule="evenodd" d="M109.727 91.5683C109.642 91.6923 109.617 91.6253 109.596 91.5113C109.646 91.4143 109.69 91.4773 109.727 91.5683" fill="#1D311D" blush:i="0.0.50"/><path id="Fill 4118" fill-rule="evenodd" clip-rule="evenodd" d="M110.398 92.7617C110.446 92.7427 110.421 92.7527 110.398 92.7617C110.353 92.6557 110.411 92.7117 110.398 92.7617" fill="#1D311D" blush:i="0.0.51"/><path id="Fill 4120" fill-rule="evenodd" clip-rule="evenodd" d="M103.242 83.8369C103.219 83.8839 103.184 83.8499 103.148 83.8379C103.174 83.7919 103.209 83.8249 103.242 83.8369" fill="#1D311D" blush:i="0.0.52"/><path id="Fill 4122" fill-rule="evenodd" clip-rule="evenodd" d="M123.147 124.058C123.082 124.019 122.897 124.041 122.925 123.954C123 123.983 123.071 124.045 123.147 124.058" fill="#1D311D" blush:i="0.0.53"/><path id="Fill 4124" fill-rule="evenodd" clip-rule="evenodd" d="M131.369 81.1376C131.336 81.1946 131.309 81.1856 131.276 81.1386C131.291 81.0916 131.336 81.1226 131.369 81.1376" fill="#1D311D" blush:i="0.0.54"/><path id="Fill 4126" fill-rule="evenodd" clip-rule="evenodd" d="M123.094 73.2001C123.01 73.2201 122.935 73.3091 122.894 73.2021C122.979 73.1781 123.042 73.0681 123.094 73.2001" fill="#1D311D" blush:i="0.0.55"/><path id="Fill 4128" fill-rule="evenodd" clip-rule="evenodd" d="M137.709 73.8163C137.696 73.8043 137.636 73.7723 137.689 73.7883C137.699 73.7953 137.697 73.8303 137.709 73.8163" fill="#1D311D" blush:i="0.0.56"/><path id="Fill 4130" fill-rule="evenodd" clip-rule="evenodd" d="M132.399 71.749C132.434 71.654 132.472 71.577 132.543 71.696C132.496 71.709 132.441 71.759 132.399 71.749" fill="#1D311D" blush:i="0.0.57"/><path id="Fill 4132" fill-rule="evenodd" clip-rule="evenodd" d="M146.926 114.444C146.985 114.598 146.951 114.614 146.841 114.68C146.776 114.585 146.864 114.552 146.926 114.444" fill="#1D311D" blush:i="0.0.58"/><path id="Fill 4134" fill-rule="evenodd" clip-rule="evenodd" d="M140.075 122.619C140.007 122.685 139.949 122.833 139.889 122.721C139.946 122.613 139.955 122.458 140.075 122.619" fill="#1D311D" blush:i="0.0.59"/><path id="Fill 4136" fill-rule="evenodd" clip-rule="evenodd" d="M154.961 101.139C154.878 101.218 154.851 101.451 154.727 101.355C154.8 101.28 154.901 101.222 154.961 101.139" fill="#1D311D" blush:i="0.0.60"/><path id="Fill 4138" fill-rule="evenodd" clip-rule="evenodd" d="M150.453 110.562C150.48 110.59 150.467 110.576 150.453 110.562C150.516 110.496 150.513 110.537 150.453 110.562" fill="#1D311D" blush:i="0.0.61"/><path id="Fill 4140" fill-rule="evenodd" clip-rule="evenodd" d="M133.062 64.6777C133 64.8467 132.928 64.9447 132.815 64.7457C132.9 64.7127 132.992 64.5737 133.062 64.6777" fill="#1D311D" blush:i="0.0.62"/><path id="Fill 4142" fill-rule="evenodd" clip-rule="evenodd" d="M145.764 91.8271C145.635 91.7981 145.52 91.7641 145.657 91.6401C145.709 91.7021 145.874 91.7581 145.764 91.8271" fill="#1D311D" blush:i="0.0.63"/><path id="Fill 4144" fill-rule="evenodd" clip-rule="evenodd" d="M145.818 91.7744C145.782 91.8094 145.799 91.7924 145.818 91.7744C145.889 91.8464 145.838 91.8424 145.818 91.7744" fill="#1D311D" blush:i="0.0.64"/><path id="Fill 4146" fill-rule="evenodd" clip-rule="evenodd" d="M158.471 96.4697C158.477 96.4427 158.484 96.4207 158.517 96.4267C158.503 96.4427 158.48 96.4527 158.471 96.4697" fill="#1D311D" blush:i="0.0.65"/><path id="Fill 4148" fill-rule="evenodd" clip-rule="evenodd" d="M162.064 93.9492C162.048 93.9812 162.047 93.9852 162.068 93.9532L162.064 93.9492Z" fill="#1D311D" blush:i="0.0.66"/><path id="Fill 4150" fill-rule="evenodd" clip-rule="evenodd" d="M148.09 83.8505C148.161 83.6165 148.261 83.3465 148.402 83.6705C148.329 83.7545 148.186 84.0075 148.09 83.8505" fill="#1D311D" blush:i="0.0.67"/><path id="Fill 4152" fill-rule="evenodd" clip-rule="evenodd" d="M148.597 83.0097C148.473 83.0757 148.422 83.1147 148.369 82.9697C148.476 82.9107 148.516 82.8657 148.597 83.0097" fill="#1D311D" blush:i="0.0.68"/><path id="Fill 4154" fill-rule="evenodd" clip-rule="evenodd" d="M93.0267 70.581C93.0887 70.642 93.1487 70.703 93.2097 70.764C93.1487 70.703 93.0887 70.642 93.0267 70.581" fill="#1D311D" blush:i="0.0.69"/><path id="Fill 4156" fill-rule="evenodd" clip-rule="evenodd" d="M116.41 105.003C118.786 112.361 120.922 105.8 122.679 109.354C126.74 114.567 125.158 99.9959 124.204 106.729C124.173 103.851 123.146 106.2 121.887 105.959C121.864 102.888 116.765 103.126 116.41 105.003" fill="#6C956C" blush:i="0.0.70"/><path id="Fill 4158" fill-rule="evenodd" clip-rule="evenodd" d="M117.472 98.9911C118.035 98.7061 120.177 99.1331 120.983 99.8781C125.982 104.476 126.768 92.0081 123.112 97.1991C122.817 96.3551 121.736 95.9962 121.846 97.2041C121.227 94.7722 119.878 98.5041 119.868 94.3311C118.832 93.3061 115.05 98.6701 117.472 98.9911" fill="#6C956C" blush:i="0.0.71"/><path id="Fill 4160" fill-rule="evenodd" clip-rule="evenodd" d="M104.964 114.599C109.683 113.192 106.425 106.189 104.323 110.862C104.033 110.414 103.024 109.362 102.997 110.525C103.577 112.633 103.768 111.781 102.22 111.205C101.768 112.464 101.729 111.308 101.221 110.859C97.6696 107.165 108.003 107.194 100.842 105.008C99.4726 104.214 100.843 107.138 99.6336 105.056C96.8996 104.585 103.172 116.264 103.323 114.462C101.786 110.306 103.723 115.205 104.964 114.599" fill="#6C956C" blush:i="0.0.72"/><path id="Fill 4162" fill-rule="evenodd" clip-rule="evenodd" d="M120.667 114.136C120.608 114.074 120.647 114.018 120.68 113.954C120.732 114.011 120.715 114.071 120.667 114.136M123.49 113.579C122.918 110.578 122.979 113.01 121.611 112.102C120.397 111.07 120.614 114.284 120.006 113.105C119.298 107.592 112.58 110.626 116.711 115.647C121.029 118.393 117.49 113.166 119.95 113.666C121.028 114.242 120.689 117.428 121.44 114.441C122.059 114.225 120.791 117.82 122.247 115.881C123.083 112.949 122.092 117.67 123.352 116.208C123.449 115.294 123.777 114.496 123.49 113.579" fill="#6C956C" blush:i="0.0.73"/><path id="Fill 4164" fill-rule="evenodd" clip-rule="evenodd" d="M118.981 87.5058C119.155 87.5088 119.135 87.6378 119.021 87.7238C118.943 87.6658 118.872 87.5628 118.981 87.5058M118.552 91.9168C119.533 90.3728 123.39 92.6928 122.854 91.1618C123.044 90.2518 123.51 91.7448 123.882 91.9678C128.863 92.0198 124.377 82.7348 123.984 89.2668C123.688 86.8668 122.091 87.7428 122.27 89.7318C121.872 90.6788 121.523 84.8088 120.636 88.6228C120.491 86.6598 118.5 87.6718 119.288 85.3238C119.034 87.2518 117.228 90.4838 118.552 91.9168" fill="#6C956C" blush:i="0.0.74"/><path id="Fill 4166" fill-rule="evenodd" clip-rule="evenodd" d="M110.378 92.6923C110.377 92.6913 110.375 92.6903 110.374 92.6903C110.376 92.7003 110.383 92.7063 110.378 92.6923" fill="#6C956C" blush:i="0.0.75"/><path id="Fill 4168" fill-rule="evenodd" clip-rule="evenodd" d="M109.664 91.4482C109.722 91.5232 109.735 91.5972 109.644 91.6552C109.613 91.5722 109.557 91.5002 109.664 91.4482M105.56 92.1172C105.631 97.2662 111.463 98.3572 110.183 93.7572C109.401 92.5622 108.988 93.5222 109.695 91.8902C110.569 92.2422 110.683 95.0792 112.02 93.8662C105.469 82.0962 109.339 93.4762 105.56 92.1172" fill="#6C956C" blush:i="0.0.76"/><path id="Fill 4170" fill-rule="evenodd" clip-rule="evenodd" d="M103.73 85.7695C103.727 85.7715 103.72 85.7715 103.724 85.7755L103.73 85.7695Z" fill="#6C956C" blush:i="0.0.77"/><path id="Fill 4172" fill-rule="evenodd" clip-rule="evenodd" d="M99.8316 80.6944C98.8416 79.5694 101.779 90.2314 102.19 84.9884C105.79 87.6954 108.087 75.6634 99.8316 80.6944" fill="#6C956C" blush:i="0.0.78"/><path id="Fill 4174" fill-rule="evenodd" clip-rule="evenodd" d="M93.5147 72.0341C96.5257 82.8151 102.329 73.0861 97.0717 69.7791C95.0827 73.8871 92.8207 70.3261 93.5147 72.0341" fill="#6C956C" blush:i="0.0.79"/><path id="Fill 4176" fill-rule="evenodd" clip-rule="evenodd" d="M122.912 123.994C122.934 123.908 123.045 124.034 123.108 124.048C123.043 124.03 122.977 124.013 122.912 123.994M124.833 121.004C123.148 121.865 124.224 118.111 122.653 120.504C121.783 116.777 118.225 120.015 120.069 122.768C122.6 127.29 121.331 124.867 121.267 122.684C122.279 126.235 126.934 124.939 124.833 121.004" fill="#6C956C" blush:i="0.0.80"/><path id="Fill 4178" fill-rule="evenodd" clip-rule="evenodd" d="M112.184 102.1C108.916 100.577 112.493 108.646 114.471 107.399C113.741 105.633 116.062 106.358 114.925 104.895C114.612 103.674 116.722 105.114 116.349 104.522C114.511 101.4 115.103 98.1645 112.184 102.1" fill="#6C956C" blush:i="0.0.81"/><path id="Fill 4180" fill-rule="evenodd" clip-rule="evenodd" d="M120.695 80.8105C121.098 79.5735 121.29 84.9185 122.709 80.6435C123.5 82.6185 125.793 82.0175 126.636 82.3325C126.267 81.1255 127.377 75.9175 125.071 77.9265C125.14 82.3215 123.296 72.9185 121.857 80.0145C121.318 79.9865 121.342 77.4915 122.051 77.2945C121.167 76.4285 119.886 81.4745 120.695 80.8105" fill="#6C956C" blush:i="0.0.82"/><path id="Fill 4182" fill-rule="evenodd" clip-rule="evenodd" d="M128.362 81.6603C132.448 83.3933 135.667 78.3803 133.149 74.3383C134.799 81.3993 127.091 73.5523 128.362 81.6603" fill="#6C956C" blush:i="0.0.83"/><path id="Fill 4184" fill-rule="evenodd" clip-rule="evenodd" d="M123.048 73.1288C123.14 73.2048 123.011 73.2368 122.934 73.2598C122.843 73.1908 122.984 73.1628 123.048 73.1288M121.373 69.8628C120.685 71.1948 121.502 77.0518 121.81 73.3778C122.12 73.5088 123.037 75.9878 123.256 73.2458C124.254 71.7858 123.232 76.1458 126.627 73.4208C126.616 69.2798 124.811 68.4428 124.188 71.1958C124.394 68.7068 122.983 69.5658 122.827 71.4278C122.63 70.0248 122.073 68.1618 121.373 69.8628" fill="#6C956C" blush:i="0.0.84"/><path id="Fill 4186" fill-rule="evenodd" clip-rule="evenodd" d="M137.708 73.816C140.912 73.177 139.768 75.524 141.171 71.354C141.496 72.405 140.077 75.796 142.251 74.185C145.06 76.597 136.972 78.796 141.014 79.174C144.307 80.551 143.469 69.482 141.917 71.438C141.791 72.97 141.444 70.305 140.776 70.889C140.06 72.325 140.383 71.663 140.031 70.864C138.742 69.592 135.868 75.431 137.708 73.816" fill="#6C956C" blush:i="0.0.85"/><path id="Fill 4188" fill-rule="evenodd" clip-rule="evenodd" d="M149.025 97.3095C146.206 96.0445 145.08 96.6675 144.312 100.528C147.002 102.919 150.162 102.48 149.025 97.3095" fill="#6C956C" blush:i="0.0.86"/><path id="Fill 4190" fill-rule="evenodd" clip-rule="evenodd" d="M139.809 95.7646C140.339 88.8226 132.193 98.1096 136.93 98.8686C139.759 99.7196 139.417 97.8116 139.809 95.7646" fill="#6C956C" blush:i="0.0.87"/><path id="Fill 4192" fill-rule="evenodd" clip-rule="evenodd" d="M128.742 68.913C127.1 68.572 128.319 72.121 128.513 73.713C129.443 71.907 132.469 70.596 133.128 73.909C133.162 71.972 134.722 70.214 132.77 70.696C131.104 70.066 130.377 65.97 128.742 68.913" fill="#6C956C" blush:i="0.0.88"/><path id="Fill 4194" fill-rule="evenodd" clip-rule="evenodd" d="M146.841 114.681C146.776 114.585 146.864 114.553 146.926 114.445C146.985 114.599 146.951 114.614 146.841 114.681M147.591 114.096C147.696 111.938 142.388 115.481 143.259 117.271C144.034 116.656 145.654 114.797 144.46 116.858C144.585 119.632 147.662 113.879 146.466 118.047C147.353 118.423 150.566 112.686 147.591 114.096" fill="#6C956C" blush:i="0.0.89"/><path id="Fill 4196" fill-rule="evenodd" clip-rule="evenodd" d="M143.798 98.7919C145.578 95.8179 140.669 92.7909 139.948 96.9799C141.442 97.2669 142.704 103.084 143.798 98.7919" fill="#6C956C" blush:i="0.0.90"/><path id="Fill 4198" fill-rule="evenodd" clip-rule="evenodd" d="M87.6888 95.4081C85.3048 93.9761 86.9808 91.6551 82.7578 94.2151C80.0588 92.3571 86.1668 100.711 87.6888 95.4081" fill="#6C956C" blush:i="0.0.91"/><path id="Fill 4200" fill-rule="evenodd" clip-rule="evenodd" d="M82.7852 95.1201C82.7832 95.1191 82.7822 95.1151 82.7792 95.1151L82.7852 95.1201Z" fill="#6C956C" blush:i="0.0.92"/><path id="Fill 4202" fill-rule="evenodd" clip-rule="evenodd" d="M154.727 101.354C154.907 101.189 155 101.109 154.795 101.394C154.794 101.396 154.75 101.369 154.727 101.354M156.759 100.631C153.327 101.429 157.077 100.315 155.046 99.3254C154.234 99.2284 150.33 101.568 152.179 102.038C155.192 100.543 150.304 104.01 152.923 103.803C154.376 103.155 156.072 104.103 156.759 100.631" fill="#6C956C" blush:i="0.0.93"/><path id="Fill 4204" fill-rule="evenodd" clip-rule="evenodd" d="M135.36 77.9267C132.743 81.9317 138.162 81.1617 139.446 79.1597C140.628 77.7187 138.425 75.5467 138.221 77.8707C137.438 78.1507 135.889 76.5227 135.36 77.9267" fill="#6C956C" blush:i="0.0.94"/><path id="Fill 4206" fill-rule="evenodd" clip-rule="evenodd" d="M99.5039 92.3935C101.849 89.6365 96.8449 90.0115 96.0539 91.0005C93.2209 94.0325 96.6659 95.0555 99.5039 92.3935" fill="#6C956C" blush:i="0.0.95"/><path id="Fill 4208" fill-rule="evenodd" clip-rule="evenodd" d="M118.971 122.171C116.42 115.034 113.667 124.565 117.928 124.926C117.432 123.417 120.601 123.499 118.971 122.171" fill="#6C956C" blush:i="0.0.96"/><path id="Fill 4210" fill-rule="evenodd" clip-rule="evenodd" d="M167.116 84.2451C162.526 88.2691 164.378 81.2041 163.677 90.4911C165.546 90.3921 169.23 84.1281 167.116 84.2451" fill="#6C956C" blush:i="0.0.97"/><path id="Fill 4212" fill-rule="evenodd" clip-rule="evenodd" d="M140.525 88.9892C140.051 86.6992 143.046 83.5452 139.616 84.2182C137.654 85.3792 137.107 91.1922 140.525 88.9892" fill="#6C956C" blush:i="0.0.98"/><path id="Fill 4214" fill-rule="evenodd" clip-rule="evenodd" d="M153.423 108.719C151.44 110.49 153.741 108.199 152.71 107.465C151.683 107.531 148.436 109.892 150.454 110.563C148.899 114.165 157.388 109.058 153.423 108.719" fill="#6C956C" blush:i="0.0.99"/><path id="Fill 4216" fill-rule="evenodd" clip-rule="evenodd" d="M159.417 102.082C158.023 98.901 153.516 106.207 156.614 105.383C158.533 103.843 157.028 105.094 157.309 106.267C157.877 104.652 161.732 102.652 159.417 102.082" fill="#6C956C" blush:i="0.0.100"/><path id="Fill 4218" fill-rule="evenodd" clip-rule="evenodd" d="M131.513 65.9599C134.709 71.1119 136.353 63.6079 133.99 65.1349C134.177 62.7649 128.126 64.5209 131.513 65.9599" fill="#6C956C" blush:i="0.0.101"/><path id="Fill 4220" fill-rule="evenodd" clip-rule="evenodd" d="M108.651 117.891C106.291 116.866 107.557 121.16 104.669 118.11C106.93 123.256 110.343 124.318 108.651 117.891" fill="#6C956C" blush:i="0.0.102"/><path id="Fill 4222" fill-rule="evenodd" clip-rule="evenodd" d="M100.904 98.7578C104.746 99.8988 103.05 95.7908 101.392 94.7638C99.9507 96.4448 96.9977 96.6978 100.904 98.7578" fill="#6C956C" blush:i="0.0.103"/><path id="Fill 4224" fill-rule="evenodd" clip-rule="evenodd" d="M112.607 115.48C117.189 119.408 114.774 112.681 111.83 111.019C114.096 113.842 108.713 110.72 112.607 115.48" fill="#6C956C" blush:i="0.0.104"/><path id="Fill 4226" fill-rule="evenodd" clip-rule="evenodd" d="M145.657 91.6406C145.741 91.7106 145.969 91.8756 145.765 91.8276C145.636 91.7976 145.52 91.7636 145.657 91.6406M143.574 91.2866C145.842 93.8366 146.62 91.0676 146.646 88.6036C144.631 87.4966 142.094 88.9826 143.574 91.2866" fill="#6C956C" blush:i="0.0.105"/><path id="Fill 4228" fill-rule="evenodd" clip-rule="evenodd" d="M81.8244 89.3808C84.3864 89.5268 82.4644 85.2328 81.1794 85.7798C78.8024 83.4138 80.5444 92.4878 81.8244 89.3808" fill="#6C956C" blush:i="0.0.106"/><path id="Fill 4230" fill-rule="evenodd" clip-rule="evenodd" d="M164.845 92.9638C164.086 94.9398 160.013 96.8538 161.041 98.6158C163.22 101.596 166.195 89.8568 164.845 92.9638" fill="#6C956C" blush:i="0.0.107"/><path id="Fill 4232" fill-rule="evenodd" clip-rule="evenodd" d="M88.6309 91.8251C86.1799 88.3011 84.7699 92.6611 87.6499 94.3401C89.0369 94.9351 90.6119 92.6721 88.6309 91.8251" fill="#6C956C" blush:i="0.0.108"/><path id="Fill 4234" fill-rule="evenodd" clip-rule="evenodd" d="M96.0618 96.5361C96.2658 95.9351 92.0068 93.5721 93.1138 95.4011C89.1138 97.3921 99.0158 99.6161 96.0618 96.5361" fill="#6C956C" blush:i="0.0.109"/><path id="Fill 4236" fill-rule="evenodd" clip-rule="evenodd" d="M120.648 125.878C119.468 126.846 118.882 127.49 118.002 127.6C119.622 131.758 123.514 129.679 120.648 125.878" fill="#6C956C" blush:i="0.0.110"/><path id="Fill 4238" fill-rule="evenodd" clip-rule="evenodd" d="M158.573 97.3937C159.959 96.9157 160.546 97.2627 161.551 95.8827C165.051 91.3097 156.485 95.4447 158.573 97.3937" fill="#6C956C" blush:i="0.0.111"/><path id="Fill 4240" fill-rule="evenodd" clip-rule="evenodd" d="M165.381 82.0058C168.065 83.9998 167.846 77.5268 166.435 79.9588C166.282 80.2688 164.901 79.7538 165.034 79.1038C164.296 79.1518 163.351 83.7138 165.381 82.0058" fill="#6C956C" blush:i="0.0.112"/><path id="Fill 4242" fill-rule="evenodd" clip-rule="evenodd" d="M148.913 88.0956C148.379 91.6176 148.908 88.7566 147.703 88.4696C146.069 97.1296 150.979 91.6796 148.913 88.0956" fill="#6C956C" blush:i="0.0.113"/><path id="Fill 4244" fill-rule="evenodd" clip-rule="evenodd" d="M148.508 82.9072C148.622 82.9542 148.557 83.0802 148.439 83.0742C148.34 83.0152 148.394 82.9182 148.508 82.9072M146.342 84.2192C148.924 85.0352 148.313 82.6062 148.887 87.3342C150.828 83.5232 144.118 78.7612 146.342 84.2192" fill="#6C956C" blush:i="0.0.114"/><path id="Fill 4246" fill-rule="evenodd" clip-rule="evenodd" d="M97.638 86.0429C95.281 84.1369 93.404 92.6699 96.298 88.1079C98.028 88.3209 98.934 87.6219 97.638 86.0429" fill="#6C956C" blush:i="0.0.115"/><path id="Fill 4248" fill-rule="evenodd" clip-rule="evenodd" d="M122.142 66.5273C123.45 66.8063 122.248 64.0673 123.063 64.4253C126.97 67.6193 123.073 56.5103 122.142 66.5273" fill="#6C956C" blush:i="0.0.116"/><path id="Fill 4250" fill-rule="evenodd" clip-rule="evenodd" d="M126.9 64.5341C127.559 64.1261 128.792 63.8331 129.183 64.6491C128.163 60.0711 124.86 59.9031 126.9 64.5341" fill="#6C956C" blush:i="0.0.117"/><path id="Fill 4252" fill-rule="evenodd" clip-rule="evenodd" d="M121.524 57.1083C122.086 58.5323 122.281 61.3593 123.137 58.7173C123.216 57.7823 122.101 55.5553 121.524 57.1083" fill="#6C956C" blush:i="0.0.118"/><path id="Fill 4254" fill-rule="evenodd" clip-rule="evenodd" d="M105.269 102.429C103.894 102.408 105.709 104.116 105.925 104.752C107.808 107.392 105.911 101.18 105.269 102.429" fill="#6C956C" blush:i="0.0.119"/><path id="Fill 4256" fill-rule="evenodd" clip-rule="evenodd" d="M124.303 57.8173C124.49 59.3033 125.814 57.6903 125.127 57.0193C124.578 55.5783 123.751 57.2993 124.303 57.8173" fill="#6C956C" blush:i="0.0.120"/><path id="Fill 4258" fill-rule="evenodd" clip-rule="evenodd" d="M111.981 126.353C111.123 126.607 113.454 128.572 111.091 126.851C112.478 129.009 114.091 128.308 111.981 126.353" fill="#6C956C" blush:i="0.0.121"/><path id="Fill 4260" fill-rule="evenodd" clip-rule="evenodd" d="M83.3546 87.2206C83.2566 87.4376 83.5646 87.9936 83.7586 88.0226C85.9556 88.6906 82.4576 84.0176 83.3546 87.2206" fill="#6C956C" blush:i="0.0.122"/><path id="Fill 4262" fill-rule="evenodd" clip-rule="evenodd" d="M135.433 61.3359C135.976 62.1069 134.664 63.6309 135.09 64.1159C136.402 62.9979 135.315 58.6159 135.433 61.3359" fill="#6C956C" blush:i="0.0.123"/><path id="Fill 4264" fill-rule="evenodd" clip-rule="evenodd" d="M150.662 112.713C150.1 113.138 149.972 113.692 150.032 114.366C150.445 113.772 152.026 112.865 150.662 112.713" fill="#6C956C" blush:i="0.0.124"/><path id="Fill 4266" fill-rule="evenodd" clip-rule="evenodd" d="M93.2084 70.7626C92.8454 70.4136 92.8564 69.0546 91.8584 68.7016C92.1724 69.2816 93.3614 72.1716 93.2084 70.7626" fill="#6C956C" blush:i="0.0.125"/><path id="Fill 4268" fill-rule="evenodd" clip-rule="evenodd" d="M129.023 130.457C128.285 130.4 127.858 130.029 127.367 129.846C125.211 129.475 129.148 131.115 129.023 130.457" fill="#6C956C" blush:i="0.0.126"/><path id="Fill 4270" fill-rule="evenodd" clip-rule="evenodd" d="M126.822 129.812L126.827 129.807L126.822 129.812Z" fill="#6C956C" blush:i="0.0.127"/><path id="Fill 4272" fill-rule="evenodd" clip-rule="evenodd" d="M141.749 65.996C141.91 65.873 141.875 64.316 141.425 64.894C140.863 65.905 141.026 65.486 141.749 65.996" fill="#6C956C" blush:i="0.0.128"/><path id="Fill 4274" fill-rule="evenodd" clip-rule="evenodd" d="M130.522 129.926C130.402 130.504 129.809 130.347 129.349 130.613C129.901 130.714 131.854 129.798 130.522 129.926" fill="#6C956C" blush:i="0.0.129"/><path id="Fill 4276" fill-rule="evenodd" clip-rule="evenodd" d="M148.647 80.372C148.647 80.976 148.647 80.674 148.647 80.372C148.11 80.647 148.205 80.953 148.647 80.372" fill="#6C956C" blush:i="0.0.130"/><path id="Fill 4278" fill-rule="evenodd" clip-rule="evenodd" d="M140.818 66.0888C140.614 66.5018 140.41 66.9138 140.207 67.3268C140.632 67.1078 140.983 66.5988 140.818 66.0888" fill="#6C956C" blush:i="0.0.131"/><path id="Fill 4280" fill-rule="evenodd" clip-rule="evenodd" d="M110.902 110.175C111.21 110.456 111.517 110.737 111.824 111.018C111.664 110.576 111.336 110.319 110.902 110.175" fill="#6C956C" blush:i="0.0.132"/><path id="Fill 4282" fill-rule="evenodd" clip-rule="evenodd" d="M99.4911 82.9853C99.6941 82.5723 99.3841 82.3253 99.0941 82.0723C99.2251 82.3763 99.3581 82.6803 99.4911 82.9853" fill="#6C956C" blush:i="0.0.133"/><path id="Fill 4284" fill-rule="evenodd" clip-rule="evenodd" d="M148.645 81.997L148.633 81.555C148.291 81.711 148.303 81.858 148.645 81.997" fill="#6C956C" blush:i="0.0.134"/><path id="Fill 4286" fill-rule="evenodd" clip-rule="evenodd" d="M98.5473 87.7451C98.7003 87.9911 98.6243 87.8681 98.5473 87.7451C98.4173 88.0571 98.3633 88.2981 98.5473 87.7451" fill="#6C956C" blush:i="0.0.135"/><path id="Fill 4288" fill-rule="evenodd" clip-rule="evenodd" d="M133.855 70.2372C133.912 70.0852 133.967 69.9312 134.023 69.7792C133.706 69.8362 133.654 69.9902 133.855 70.2372" fill="#6C956C" blush:i="0.0.136"/><path id="Fill 4290" fill-rule="evenodd" clip-rule="evenodd" d="M166.742 87.9326C166.667 88.1096 166.705 88.0216 166.742 87.9326C166.597 87.7356 166.654 88.0766 166.742 87.9326" fill="#6C956C" blush:i="0.0.137"/><path id="Fill 4292" fill-rule="evenodd" clip-rule="evenodd" d="M99.7395 83.3476C99.6505 83.2206 99.6945 83.2846 99.7395 83.3476C99.8305 83.1386 99.8615 82.9926 99.7395 83.3476" fill="#6C956C" blush:i="0.0.138"/><path id="Fill 4294" fill-rule="evenodd" clip-rule="evenodd" d="M121.41 56.412L121.477 56.717C121.658 56.513 121.648 56.466 121.41 56.412" fill="#6C956C" blush:i="0.0.139"/><path id="Fill 4296" fill-rule="evenodd" clip-rule="evenodd" d="M134.733 61.2392C134.71 61.1682 134.683 61.1752 134.653 61.2392C134.674 61.2562 134.712 61.2562 134.733 61.2392" fill="#6C956C" blush:i="0.0.140"/><path id="Fill 4298" fill-rule="evenodd" clip-rule="evenodd" d="M82.7859 95.1201C82.7739 95.1081 82.7699 95.1411 82.7629 95.1491L82.7859 95.1201Z" fill="#6C956C" blush:i="0.0.141"/><path id="Fill 4300" fill-rule="evenodd" clip-rule="evenodd" d="M148.624 115.873C148.588 115.847 148.605 115.859 148.624 115.873C148.682 115.782 148.646 115.788 148.624 115.873" fill="#6C956C" blush:i="0.0.142"/><path id="Fill 4302" fill-rule="evenodd" clip-rule="evenodd" d="M148.492 115.883L148.498 115.898C148.496 115.897 148.495 115.866 148.492 115.883" fill="#6C956C" blush:i="0.0.143"/><path id="Fill 4304" fill-rule="evenodd" clip-rule="evenodd" d="M146.214 81.4033C146.183 81.3843 146.153 81.3593 146.121 81.3913C146.122 81.4573 146.176 81.4113 146.214 81.4033" fill="#6C956C" blush:i="0.0.144"/><path id="Fill 4306" fill-rule="evenodd" clip-rule="evenodd" d="M140.198 67.331C140.211 67.4 140.205 67.365 140.198 67.331C140.149 67.393 140.101 67.454 140.198 67.331" fill="#6C956C" blush:i="0.0.145"/><path id="Fill 4308" fill-rule="evenodd" clip-rule="evenodd" d="M150.041 107.97C150.659 107.79 151.484 105.775 150.261 106.191C149.522 105.984 149.394 103.616 147.604 103.978C145.077 107.535 141.349 102.081 141.439 108.111C140.952 111.948 146.889 106.953 147.711 107.864C145.713 110.859 149.304 110.038 150.041 107.97" fill="#6C956C" blush:i="0.0.146"/><path id="Fill 4310" fill-rule="evenodd" clip-rule="evenodd" d="M131.442 93.9189C131.504 93.9909 131.495 94.0598 131.416 94.1148C131.295 94.0408 131.382 93.9949 131.442 93.9189M132.433 92.1048C132.528 92.2688 132.46 92.3148 132.356 92.5008C132.289 92.2888 132.328 92.2488 132.433 92.1048M126.871 95.4599C126.301 106.122 130.995 92.8348 132.188 95.6828C131.916 96.4318 133.144 96.2718 133.196 95.6898C132.472 102.357 137.504 93.0618 135.195 92.8958C134.717 95.4548 133.39 92.4559 132.049 91.6618C130.745 95.6818 128.908 93.7529 126.871 95.4599" fill="#6C956C" blush:i="0.0.147"/><path id="Fill 4312" fill-rule="evenodd" clip-rule="evenodd" d="M136.73 115.239C142.621 109.975 131.035 103.99 132.921 112.752C134.878 115.035 135.749 110.339 136.73 115.239" fill="#6C956C" blush:i="0.0.148"/><path id="Fill 4314" fill-rule="evenodd" clip-rule="evenodd" d="M131.51 107.451C130.652 107.905 131.041 105.586 130.072 106.91C128.952 107.903 130.343 104.259 129.254 104.621C127.266 104.84 125.767 103.682 126.123 107.564C125.969 112.289 127.965 108.316 129.52 108.708C129.406 114.75 133.929 109.591 131.51 107.451" fill="#6C956C" blush:i="0.0.149"/><path id="Fill 4316" fill-rule="evenodd" clip-rule="evenodd" d="M141.704 104.166C139.266 103.68 140.347 99.808 138.046 103.002C136.022 103.081 132.863 102.187 134.556 105.026C135.799 105.404 137.706 104.054 138.223 104.669C136.642 109.251 141.283 107.897 141.704 104.166" fill="#6C956C" blush:i="0.0.150"/><path id="Fill 4318" fill-rule="evenodd" clip-rule="evenodd" d="M136.727 84.288C127.205 82.633 137.818 95.242 138.268 84.302C137.898 82.217 136.398 86.186 136.727 84.288" fill="#6C956C" blush:i="0.0.151"/><path id="Fill 4320" fill-rule="evenodd" clip-rule="evenodd" d="M137.25 122.15C137.114 125.864 141.695 117.264 138.598 120.335C139.795 118.008 136.052 120.281 135.582 119.134C134.73 117.057 132.554 125.546 137.25 122.15" fill="#6C956C" blush:i="0.0.152"/><path id="Fill 4322" fill-rule="evenodd" clip-rule="evenodd" d="M143.332 110.793C135.436 115.082 147.723 117.47 144.308 111.211C143.167 110.82 143.005 112.877 143.332 110.793" fill="#6C956C" blush:i="0.0.153"/><path id="Fill 4324" fill-rule="evenodd" clip-rule="evenodd" d="M128.796 115.874C125.279 112.691 128.531 124.354 129.889 117.395C132.586 120.992 130.731 111.122 129.983 116.082C129.454 114.159 129.416 116.888 128.796 115.874" fill="#6C956C" blush:i="0.0.154"/><path id="Fill 4326" fill-rule="evenodd" clip-rule="evenodd" d="M127.78 88.1328C126.065 92.8018 132.038 90.4068 132.119 87.4628C130.873 86.0368 128.673 88.1938 127.78 88.1328" fill="#6C956C" blush:i="0.0.155"/><path id="Fill 4328" fill-rule="evenodd" clip-rule="evenodd" d="M132.736 103.693C134.983 104.006 131.594 100.88 130.68 99.1383C128.518 101.241 130.944 103.389 132.736 103.693" fill="#6C956C" blush:i="0.0.156"/><path id="Fill 4330" fill-rule="evenodd" clip-rule="evenodd" d="M136.403 126.897C134.443 126.758 135.288 124.619 133.459 125.818C131.516 129.164 137.59 130.212 136.403 126.897" fill="#6C956C" blush:i="0.0.157"/><path id="Fill 4332" fill-rule="evenodd" clip-rule="evenodd" d="M126.601 127.717C129.1 128.642 128.337 122.923 127.254 124.214C125.862 122.283 126.01 126.076 126.601 127.717" fill="#6C956C" blush:i="0.0.158"/><path id="Fill 4334" fill-rule="evenodd" clip-rule="evenodd" d="M126.256 117.876C125.109 111.875 124.031 116.242 124.376 118.816C124.603 121.672 125.765 118.519 126.256 117.876" fill="#6C956C" blush:i="0.0.159"/><path id="Fill 4336" fill-rule="evenodd" clip-rule="evenodd" d="M131.05 124.202C132.522 123.747 130.381 118.563 130.267 123.369C130.282 124.32 128.196 122.335 128.885 124.334C130.782 130.036 129.406 123.505 131.05 124.202" fill="#6C956C" blush:i="0.0.160"/><path id="Fill 4338" fill-rule="evenodd" clip-rule="evenodd" d="M138.277 115.642C140.676 114.848 141.033 113.959 139.599 111.939C138.982 112.753 137.64 114.756 138.277 115.642" fill="#6C956C" blush:i="0.0.161"/><path id="Fill 4340" fill-rule="evenodd" clip-rule="evenodd" d="M134.51 117.656C134.496 117.598 134.503 117.627 134.51 117.656C134.445 117.57 134.345 117.474 134.51 117.656M132.571 118.649C133.288 118.403 136.112 118.602 134.229 117.433C133.829 116.087 131.017 116.808 132.571 118.649" fill="#6C956C" blush:i="0.0.162"/><path id="Fill 4342" fill-rule="evenodd" clip-rule="evenodd" d="M133.997 122.582C134.008 121.763 133.165 122.684 132.822 122.089C130.731 121.96 133.531 126.402 133.997 122.582" fill="#6C956C" blush:i="0.0.163"/><path id="Fill 4344" fill-rule="evenodd" clip-rule="evenodd" d="M123.616 126.807C122.804 127.317 123.654 128.771 123.995 129.264C124.368 128.88 124.072 126.846 123.616 126.807" fill="#6C956C" blush:i="0.0.164"/><path id="Fill 4346" fill-rule="evenodd" clip-rule="evenodd" d="M131.949 128.038C131.112 127.755 131.346 129.126 130.583 128.328C130.088 129.796 132.412 128.776 131.949 128.038" fill="#6C956C" blush:i="0.0.165"/><path id="Fill 4348" fill-rule="evenodd" clip-rule="evenodd" d="M131.841 127.661C131.64 127.158 131.551 127.663 131.385 127.841C131.567 128.004 131.675 127.761 131.841 127.661" fill="#6C956C" blush:i="0.0.166"/><path id="Fill 4350" fill-rule="evenodd" clip-rule="evenodd" d="M164.413 93.5742C164.406 93.5722 164.383 93.5932 164.384 93.5992C164.389 93.7062 164.515 93.5972 164.413 93.5742" fill="#6C956C" blush:i="0.0.167"/><path id="Fill 4352" fill-rule="evenodd" clip-rule="evenodd" d="M124.42 125.051C124.429 125.075 124.447 125.087 124.462 125.064C124.47 125.021 124.444 125.033 124.42 125.051" fill="#6C956C" blush:i="0.0.168"/><path id="Fill 4354" fill-rule="evenodd" clip-rule="evenodd" d="M147.495 110.412C147.499 110.402 147.496 110.407 147.495 110.412C147.505 110.409 147.512 110.39 147.495 110.412" fill="#6C956C" blush:i="0.0.169"/><path id="Fill 4356" fill-rule="evenodd" clip-rule="evenodd" d="M147.487 110.432C147.505 110.401 147.475 110.426 147.462 110.437C147.47 110.436 147.483 110.437 147.487 110.432" fill="#6C956C" blush:i="0.0.170"/><path id="Fill 4358" fill-rule="evenodd" clip-rule="evenodd" d="M152.226 102.081C152.212 102.072 152.2 102.062 152.186 102.053C152.19 102.076 152.203 102.084 152.226 102.081" fill="#6C956C" blush:i="0.0.171"/><path id="Fill 4360" fill-rule="evenodd" clip-rule="evenodd" d="M139.944 122.775C139.832 122.709 139.953 122.619 139.98 122.53C140.115 122.599 140.024 122.691 139.944 122.775M143.683 121.436C143.349 119.14 140.356 123.223 141.693 120.643C139.395 119.075 138.583 125.095 140.086 124.697C134.169 132.772 140.883 125.193 143.683 121.436" fill="#6C956C" blush:i="0.0.172"/><path id="Fill 4362" fill-rule="evenodd" clip-rule="evenodd" d="M153.405 103.7C153.364 103.676 153.384 103.687 153.405 103.7C153.384 103.69 153.362 103.654 153.405 103.7" fill="#6C956C" blush:i="0.0.173"/><path id="Fill 4364" fill-rule="evenodd" clip-rule="evenodd" d="M142.696 79.0654C142.688 79.0904 142.702 79.0844 142.718 79.0784L142.696 79.0654Z" fill="#6C956C" blush:i="0.0.174"/><path id="Fill 4366" fill-rule="evenodd" clip-rule="evenodd" d="M123.185 58.7568C123.171 58.7458 123.141 58.7198 123.161 58.7508C123.164 58.7558 123.177 58.7548 123.185 58.7568" fill="#6C956C" blush:i="0.0.175"/><path id="Fill 4368" fill-rule="evenodd" clip-rule="evenodd" d="M123.152 58.7314C123.149 58.7254 123.148 58.7114 123.139 58.7174C123.139 58.7254 123.148 58.7274 123.152 58.7314" fill="#6C956C" blush:i="0.0.176"/><path id="Fill 4370" fill-rule="evenodd" clip-rule="evenodd" d="M110.554 121.099C110.561 121.11 110.562 121.103 110.561 121.094L110.554 121.099Z" fill="#6C956C" blush:i="0.0.177"/><path id="Fill 4372" fill-rule="evenodd" clip-rule="evenodd" d="M115.364 123.867C113.045 117.623 114.991 121.388 111.025 121.305C109.196 122.744 115.767 128.557 115.364 123.867" fill="#6C956C" blush:i="0.0.178"/><path id="Fill 4374" fill-rule="evenodd" clip-rule="evenodd" d="M91.9703 100.358C91.8573 100.208 91.5403 99.9743 91.8733 99.9513C92.0713 100.126 92.4343 100.269 91.9703 100.358M96.1223 100.242C96.4703 99.6463 91.1623 96.3563 91.6343 98.3003C95.7543 101.822 91.5653 97.4593 91.2173 99.5493C89.6543 101.025 98.0193 102.952 96.1223 100.242" fill="#6C956C" blush:i="0.0.179"/><path id="Fill 4376" fill-rule="evenodd" clip-rule="evenodd" d="M111.369 117.085C114.761 120.398 110.407 110.681 109.227 113.602C108.462 111.348 109.197 119.846 111.369 117.085" fill="#6C956C" blush:i="0.0.180"/><path id="Fill 4378" fill-rule="evenodd" clip-rule="evenodd" d="M102.015 102.855C101.245 101.939 101.295 103.306 100.737 103.065C98.2712 103.642 108.232 107.918 102.015 102.855" fill="#6C956C" blush:i="0.0.181"/><path id="Fill 4380" fill-rule="evenodd" clip-rule="evenodd" d="M116.732 127.56C114.762 127.079 116.929 129.36 117.799 129.683C118.504 129.449 116.974 128.169 116.732 127.56" fill="#6C956C" blush:i="0.0.182"/><path id="Fill 4382" fill-rule="evenodd" clip-rule="evenodd" d="M110.554 121.099C110.551 121.077 110.553 121.087 110.554 121.099C110.568 121.092 110.552 121.076 110.554 121.099" fill="#6C956C" blush:i="0.0.183"/><path id="Fill 4384" fill-rule="evenodd" clip-rule="evenodd" d="M110.498 120.92C110.548 121.086 110.555 121.046 110.532 120.898C110.52 120.905 110.497 120.916 110.498 120.92" fill="#6C956C" blush:i="0.0.184"/><path id="Fill 4386" fill-rule="evenodd" clip-rule="evenodd" d="M103.73 85.7695C103.722 85.7865 103.767 85.7985 103.781 85.8135C103.763 85.7985 103.747 85.7845 103.73 85.7695" fill="#6C956C" blush:i="0.0.185"/><path id="Fill 4388" fill-rule="evenodd" clip-rule="evenodd" d="M98.6891 75.6181C98.9481 75.3741 98.5871 75.4691 98.4251 75.4381C98.4861 75.6321 98.4831 75.9461 98.6891 75.6181" fill="#6C956C" blush:i="0.0.186"/><path id="Fill 4390" fill-rule="evenodd" clip-rule="evenodd" d="M140.283 67.4716C140.24 67.4506 140.262 67.4616 140.283 67.4716C140.264 67.4646 140.227 67.4246 140.283 67.4716" fill="#6C956C" blush:i="0.0.187"/><path id="Fill 4392" fill-rule="evenodd" clip-rule="evenodd" d="M99.7998 82.8554C99.8288 82.8614 99.8308 82.8554 99.8168 82.8314L99.7998 82.8554Z" fill="#6C956C" blush:i="0.0.188"/><path id="Fill 4394" fill-rule="evenodd" clip-rule="evenodd" d="M141.396 108.158C141.357 108.208 141.347 108.387 141.28 108.314C141.319 108.27 141.353 108.166 141.396 108.158" fill="#1D311D" blush:i="0.0.189"/><path id="Fill 4396" fill-rule="evenodd" clip-rule="evenodd" d="M141.387 108.149C141.439 108.108 141.443 108.11 141.396 108.158L141.387 108.149Z" fill="#1D311D" blush:i="0.0.190"/><path id="Fill 4398" fill-rule="evenodd" clip-rule="evenodd" d="M132.356 92.5009C132.289 92.2889 132.328 92.2489 132.433 92.1049C132.528 92.2689 132.46 92.3149 132.356 92.5009" fill="#1D311D" blush:i="0.0.191"/><path id="Fill 4400" fill-rule="evenodd" clip-rule="evenodd" d="M131.498 94.0253C131.446 94.1103 131.378 94.1223 131.345 94.0443C131.405 93.9453 131.448 93.8773 131.498 94.0253" fill="#1D311D" blush:i="0.0.192"/><path id="Fill 4402" fill-rule="evenodd" clip-rule="evenodd" d="M131.521 93.2197C131.489 93.2017 131.432 93.1817 131.484 93.1567C131.522 93.1707 131.57 93.1867 131.521 93.2197" fill="#1D311D" blush:i="0.0.193"/><path id="Fill 4404" fill-rule="evenodd" clip-rule="evenodd" d="M135.843 109.377C135.811 109.398 135.804 109.376 135.801 109.346C135.825 109.345 135.844 109.348 135.843 109.377" fill="#1D311D" blush:i="0.0.194"/><path id="Fill 4406" fill-rule="evenodd" clip-rule="evenodd" d="M129.078 116.33C129.14 116.365 129.136 116.365 129.074 116.334L129.078 116.33Z" fill="#1D311D" blush:i="0.0.195"/><path id="Fill 4408" fill-rule="evenodd" clip-rule="evenodd" d="M134.377 117.503C134.409 117.534 134.524 117.553 134.464 117.597C134.435 117.571 134.407 117.508 134.377 117.503" fill="#1D311D" blush:i="0.0.196"/><path id="Fill 4410" fill-rule="evenodd" clip-rule="evenodd" d="M134.49 117.569C134.509 117.635 134.513 117.673 134.463 117.596L134.49 117.569Z" fill="#1D311D" blush:i="0.0.197"/><path id="Fill 4412" fill-rule="evenodd" clip-rule="evenodd" d="M91.9703 100.358C91.8573 100.208 91.5403 99.9743 91.8733 99.9513C92.0713 100.126 92.4353 100.27 91.9703 100.358" fill="#1D311D" blush:i="0.0.198"/><path id="Fill 4414" fill-rule="evenodd" clip-rule="evenodd" d="M93.1536 99.4814C93.2966 99.5744 93.6436 99.5374 93.5436 99.7514C93.4376 99.6554 93.0886 99.6144 93.1536 99.4814" fill="#1D311D" blush:i="0.0.199"/></g></g></svg>