<svg viewBox="-0.46969696969696884 15.274999999999991 93.93939393939392 62.275000000000006" fill="none" xmlns="http://www.w3.org/2000/svg" xmlns:xlink="http://www.w3.org/1999/xlink" xmlns:blush="http://design.blush" overflow="visible" width="93.93939393939392px" height="62.275000000000006px"><g id="Master/New Stickers/Books" clip-path="url(#clip0_509_57605fd0fd6e5-0fe4-4a9c-965a-affad16a0c26)" blush:has-customizable-colors="true" blush:viewBox="-0.23484848484848442 15.980000000000004 93.46969696969695 61.57" blush:i="0"><g id="Group 300" blush:i="0.0"><g id="Group 297" blush:i="0.0.0"><path id="Rectangle 28" d="M0.148468 57.112C0.148468 56.3811 0.741011 55.7885 1.47195 55.7885H79.984C85.8799 55.7885 90.6594 60.568 90.6594 66.4639V66.4639C90.6594 72.3597 85.8799 77.1392 79.984 77.1392H1.45007C0.731216 77.1392 0.148468 76.5565 0.148468 75.8376V75.8376C0.148468 75.1188 0.731217 74.536 1.45007 74.536H15.6449C18.1808 74.536 20.2365 72.4803 20.2365 69.9445V63.027C20.2365 60.4912 18.1808 58.4355 15.6449 58.4355H1.47195C0.741011 58.4355 0.148468 57.8429 0.148468 57.112V57.112Z" fill="#FC9B98" blush:i="0.0.0.0"/><path id="Rectangle 29" d="M1.9274 58.486H75.9087C80.3782 58.486 84.0013 62.1092 84.0013 66.5786V66.5786C84.0013 71.0481 80.3781 74.6712 75.9087 74.6712H1.9274V58.486Z" fill="#FFF6ED" blush:i="0.0.0.1"/><g id="Group 292" blush:i="0.0.0.2"><path id="Vector 23 (Stroke)" fill-rule="evenodd" clip-rule="evenodd" d="M2.43735 64.7966C2.43735 64.6381 2.56583 64.5096 2.72432 64.5096H79.361C79.5195 64.5096 79.6479 64.6381 79.6479 64.7966C79.6479 64.955 79.5195 65.0835 79.361 65.0835H2.72432C2.56583 65.0835 2.43735 64.955 2.43735 64.7966Z" fill="#FFDFC0" blush:i="0.0.0.2.0"/><path id="Vector 26 (Stroke)" fill-rule="evenodd" clip-rule="evenodd" d="M1.92773 60.8881C1.92773 60.7296 2.05622 60.6011 2.21471 60.6011H78.8514C79.0098 60.6011 79.1383 60.7296 79.1383 60.8881C79.1383 61.0466 79.0098 61.1751 78.8514 61.1751H2.21471C2.05622 61.1751 1.92773 61.0466 1.92773 60.8881Z" fill="#FFDFC0" blush:i="0.0.0.2.1"/><path id="Vector 24 (Stroke)" fill-rule="evenodd" clip-rule="evenodd" d="M2.43735 68.705C2.43735 68.5465 2.56583 68.4181 2.72432 68.4181H78.3425C78.501 68.4181 78.6295 68.5465 78.6295 68.705C78.6295 68.8635 78.501 68.992 78.3425 68.992H2.72432C2.56583 68.992 2.43735 68.8635 2.43735 68.705Z" fill="#FFDFC0" blush:i="0.0.0.2.2"/><path id="Vector 25 (Stroke)" fill-rule="evenodd" clip-rule="evenodd" d="M2.43735 72.6135C2.43735 72.455 2.56583 72.3265 2.72432 72.3265H78.8518C79.0103 72.3265 79.1387 72.455 79.1387 72.6135C79.1387 72.772 79.0103 72.9005 78.8518 72.9005H2.72432C2.56583 72.9005 2.43735 72.772 2.43735 72.6135Z" fill="#FFDFC0" blush:i="0.0.0.2.3"/></g></g><g id="Group 298" blush:i="0.0.1"><path id="Rectangle 30" d="M4.10794 42.0602C4.10794 41.5592 4.51412 41.153 5.01517 41.153H78.1269C81.3601 41.153 83.9811 43.774 83.9811 47.0072V49.9343C83.9811 53.1675 81.3601 55.7885 78.1269 55.7885H5.00017C4.5074 55.7885 4.10794 55.3891 4.10794 54.8963V54.8963C4.10794 54.4036 4.50741 54.0041 5.00017 54.0041H17.2435C19.7793 54.0041 21.835 51.9484 21.835 49.4125V47.559C21.835 45.0231 19.7793 42.9674 17.2435 42.9674H5.01517C4.51412 42.9674 4.10794 42.5613 4.10794 42.0602V42.0602Z" fill="#7C984A" blush:i="0.0.1.0"/><path id="Rectangle 31" d="M5.17163 42.9323H41.3457C44.3887 42.9323 46.8556 45.4279 46.8556 48.4709V48.4709C46.8556 51.5139 44.3887 54.0094 41.3457 54.0094H5.17163V42.9323Z" fill="#FFF6ED" blush:i="0.0.1.1"/><g id="Group 293" blush:i="0.0.1.2"><path id="Vector 23 (Stroke)_2" fill-rule="evenodd" clip-rule="evenodd" d="M5.91953 47.4179C5.91953 47.2594 6.04801 47.1309 6.2065 47.1309H42.5278C42.6863 47.1309 42.8148 47.2594 42.8148 47.4179C42.8148 47.5764 42.6863 47.7049 42.5278 47.7049H6.2065C6.04801 47.7049 5.91953 47.5764 5.91953 47.4179Z" fill="#FFDFC0" blush:i="0.0.1.2.0"/><path id="Vector 26 (Stroke)_2" fill-rule="evenodd" clip-rule="evenodd" d="M5.67801 44.7389C5.67801 44.5804 5.80649 44.4519 5.96498 44.4519H42.2863C42.4448 44.4519 42.5733 44.5804 42.5733 44.7389C42.5733 44.8974 42.4448 45.0258 42.2863 45.0258H5.96498C5.80649 45.0258 5.67801 44.8974 5.67801 44.7389Z" fill="#FFDFC0" blush:i="0.0.1.2.1"/><path id="Vector 24 (Stroke)_2" fill-rule="evenodd" clip-rule="evenodd" d="M5.91953 50.0971C5.91953 49.9386 6.04801 49.8101 6.2065 49.8101H42.0451C42.2036 49.8101 42.3321 49.9386 42.3321 50.0971C42.3321 50.2556 42.2036 50.3841 42.0451 50.3841H6.2065C6.04801 50.3841 5.91953 50.2556 5.91953 50.0971Z" fill="#FFDFC0" blush:i="0.0.1.2.2"/><path id="Vector 25 (Stroke)_2" fill-rule="evenodd" clip-rule="evenodd" d="M5.91953 52.7763C5.91953 52.6178 6.04801 52.4893 6.2065 52.4893H42.2865C42.445 52.4893 42.5734 52.6178 42.5734 52.7763C42.5734 52.9348 42.445 53.0633 42.2865 53.0633H6.2065C6.04801 53.0633 5.91953 52.9348 5.91953 52.7763Z" fill="#FFDFC0" blush:i="0.0.1.2.3"/></g></g><g id="Group 296" blush:i="0.0.2"><path id="Rectangle 34" d="M7.5517 16.8946C7.5517 16.5351 7.84319 16.2436 8.20276 16.2436H67.2003C70.1007 16.2436 72.4519 18.5948 72.4519 21.4951V21.4951C72.4519 24.3955 70.1007 26.7467 67.2003 26.7467H8.192C7.83837 26.7467 7.5517 26.4601 7.5517 26.1064V26.1064C7.5517 25.7528 7.83837 25.4661 8.192 25.4661H17.9955C20.1826 25.4661 21.9557 23.6931 21.9557 21.5059V21.5059C21.9557 19.3187 20.1826 17.5457 17.9955 17.5457H8.20276C7.84319 17.5457 7.5517 17.2542 7.5517 16.8946V16.8946Z" fill="#F48399" blush:i="0.0.2.0"/><path id="Rectangle 35" d="M8.43866 17.5063H52.7597C54.9627 17.5063 56.7486 19.2922 56.7486 21.4952V21.4952C56.7486 23.6982 54.9627 25.4841 52.7597 25.4841H8.43866V17.5063Z" fill="#FFF6ED" blush:i="0.0.2.1"/><g id="Group 295" blush:i="0.0.2.2"><path id="Vector 26 (Stroke)_3" fill-rule="evenodd" clip-rule="evenodd" d="M8.82712 18.8979C8.82712 18.7394 8.9556 18.6109 9.11409 18.6109H52.4496C52.6081 18.6109 52.7365 18.7394 52.7365 18.8979C52.7365 19.0563 52.6081 19.1848 52.4496 19.1848H9.11409C8.9556 19.1848 8.82712 19.0563 8.82712 18.8979Z" fill="#FFDFC0" blush:i="0.0.2.2.0"/><path id="Vector 24 (Stroke)_3" fill-rule="evenodd" clip-rule="evenodd" d="M9.11462 22.1693C9.11462 22.0108 9.24311 21.8823 9.4016 21.8823H52.1612C52.3197 21.8823 52.4482 22.0108 52.4482 22.1693C52.4482 22.3278 52.3197 22.4563 52.1612 22.4563H9.4016C9.24311 22.4563 9.11462 22.3278 9.11462 22.1693Z" fill="#FFDFC0" blush:i="0.0.2.2.1"/><path id="Vector 25 (Stroke)_3" fill-rule="evenodd" clip-rule="evenodd" d="M9.11462 24.6659C9.11462 24.5074 9.24311 24.379 9.4016 24.379H52.4491C52.6076 24.379 52.7361 24.5074 52.7361 24.6659C52.7361 24.8244 52.6076 24.9529 52.4491 24.9529H9.4016C9.24311 24.9529 9.11462 24.8244 9.11462 24.6659Z" fill="#FFDFC0" blush:i="0.0.2.2.2"/></g></g><g id="Group 299" blush:i="0.0.3"><path id="Rectangle 32" d="M14.0211 27.6542C14.0211 27.1531 14.4273 26.747 14.9283 26.747H89.3967C91.362 26.747 92.9552 28.3401 92.9552 30.3054V37.8241C92.9552 39.7894 91.362 41.3825 89.3967 41.3825H14.9133C14.4206 41.3825 14.0211 40.9831 14.0211 40.4903V40.4903C14.0211 39.9975 14.4206 39.5981 14.9133 39.5981H26.9482C29.4841 39.5981 31.5398 37.5424 31.5398 35.0065V33.153C31.5398 30.6171 29.4841 28.5614 26.9482 28.5614H14.9283C14.4273 28.5614 14.0211 28.1552 14.0211 27.6542V27.6542Z" fill="#9DB989" blush:i="0.0.3.0"/><path id="Rectangle 33" d="M15.1165 28.5263H70.3284C71.5012 28.5263 72.452 29.4771 72.452 30.6499V37.4798C72.452 38.6526 71.5012 39.6034 70.3284 39.6034H15.1165V28.5263Z" fill="#FFF6ED" blush:i="0.0.3.1"/><g id="Group 294" blush:i="0.0.3.2"><path id="Vector 23 (Stroke)_3" fill-rule="evenodd" clip-rule="evenodd" d="M16.17 31.0516C16.17 30.8931 16.2985 30.7646 16.457 30.7646H70.0787C70.2372 30.7646 70.3657 30.8931 70.3657 31.0516C70.3657 31.2101 70.2372 31.3386 70.0787 31.3386H16.457C16.2985 31.3386 16.17 31.2101 16.17 31.0516Z" fill="#FFDFC0" blush:i="0.0.3.2.0"/><path id="Vector 24 (Stroke)_4" fill-rule="evenodd" clip-rule="evenodd" d="M16.17 34.711C16.17 34.5525 16.2985 34.424 16.457 34.424H69.3662C69.5247 34.424 69.6531 34.5525 69.6531 34.711C69.6531 34.8695 69.5247 34.998 69.3662 34.998H16.457C16.2985 34.998 16.17 34.8695 16.17 34.711Z" fill="#FFDFC0" blush:i="0.0.3.2.1"/><path id="Vector 25 (Stroke)_4" fill-rule="evenodd" clip-rule="evenodd" d="M16.17 38.3706C16.17 38.2121 16.2985 38.0836 16.457 38.0836H69.7225C69.8809 38.0836 70.0094 38.2121 70.0094 38.3706C70.0094 38.5291 69.8809 38.6576 69.7225 38.6576H16.457C16.2985 38.6576 16.17 38.5291 16.17 38.3706Z" fill="#FFDFC0" blush:i="0.0.3.2.2"/></g></g><rect id="Rectangle 36" x="53.4677" y="45.8018" width="25.5979" height="5.39507" rx="0.631338" fill="#9DB989" blush:i="0.0.4"/><rect id="Rectangle 37" x="76.0814" y="31.7402" width="2.98451" height="5.39507" rx="0.631338" fill="#8EAA5B" blush:i="0.0.5"/></g></g><defs><clipPath id="clip0_509_57605fd0fd6e5-0fe4-4a9c-965a-affad16a0c26"><rect width="92.8927" height="92.8927" fill="white" transform="translate(0.0628662 0.2883)"/></clipPath></defs></svg>