<svg viewBox="98.23750000000001 32.553191489361694 84.6875 223.8031914893617" fill="none" xmlns="http://www.w3.org/2000/svg" xmlns:xlink="http://www.w3.org/1999/xlink" xmlns:blush="http://design.blush" overflow="visible" width="84.6875px" height="223.8031914893617px"><g id="Master/Male Character/Walking" blush:has-customizable-colors="true" blush:viewBox="84.00999999999999 32.553191489361694 102.97999999999995 222.44680851063828" blush:i="0"><g id="Male Character Walking/Lower Body" blush:component="Male Character Walking/Lower Body" blush:defaultValue="Pants 1" blush:width="54" blush:height="124" transform="translate(111 131) scale(1 1)" blush:i="0.0" blush:value="Pants 1" blush:viewBox="0.37155963302752326 0 53.25688073394497 123.99999999999997"><g id="Male Character Walking/Lower Body/Pants 1" blush:viewBox="0.37155963302752326 0 53.25688073394497 123.99999999999997" blush:i="0.0.0"><g id="Pants" blush:i="0.0.0.0"><path id="Fill 1" fill-rule="evenodd" clip-rule="evenodd" d="M7.65251 87.5082C7.65251 87.5082 1.68863 88.8006 1.50668 90.5382C1.32472 92.2768 4.92125 97.0455 5.1032 98.5605C5.28515 100.076 5.46711 102.215 5.19418 104.399C4.92125 106.583 5.42162 111.485 10.2483 111.664C15.073 111.842 12.8876 104.756 12.7511 103.374C12.6157 101.992 12.1459 97.9586 13.4661 95.4408C14.7872 92.923 16.3477 83.898 7.65251 87.5082" fill="#DAEDEB" blush:i="0.0.0.0.0"/><path id="Fill 3" fill-rule="evenodd" clip-rule="evenodd" d="M19.0715 108.587C19.0715 108.587 19.0715 111.46 18.2535 113.927C17.4355 116.396 17.353 117.459 17.6759 117.743C20.082 119.851 21.4298 116.711 28.0237 119.268C34.6166 121.827 43.3273 123.487 44.4825 118.102C44.4825 118.102 45.0601 117.384 39.5735 116.261C39.5735 116.261 31.4943 113.889 30.333 106.567C29.4641 101.092 20.3235 98.3108 19.0715 108.587" fill="#DAEDEB" blush:i="0.0.0.0.1"/><path id="Fill 5" fill-rule="evenodd" clip-rule="evenodd" d="M18.6185 116.682L17.8589 118.226C17.8589 118.226 17.1886 119.603 17.6801 119.896C18.1717 120.187 18.3951 120.564 22.9095 120.688C27.4228 120.814 27.4496 121.28 30.5111 122.332C33.5717 123.384 41.7702 125.65 45.5 119.901C45.5 119.901 45.0075 118.257 43.9519 118.159C42.8963 118.06 31.4257 117.897 28.7157 115.234C26.0067 112.573 20.6602 113.463 18.6185 116.682" fill="#FFD9D1" blush:i="0.0.0.0.2"/><path id="Fill 7" fill-rule="evenodd" clip-rule="evenodd" d="M17.5 119.667C18.0107 120.024 18.6464 120.112 19.2591 120.182C19.8777 120.243 20.5004 120.271 21.1241 120.286C22.3684 120.334 23.6207 120.312 24.88 120.395C26.1364 120.451 27.4207 120.74 28.5731 121.211C29.7314 121.657 30.8868 122.075 32.0772 122.396C34.4389 123.064 36.9356 123.466 39.3803 123.162C40.5936 123.011 41.794 122.678 42.8504 122.079C43.9069 121.48 44.7864 120.635 45.5 119.672C44.8573 120.674 44.0288 121.588 42.9813 122.271C41.9189 122.932 40.6856 123.318 39.4362 123.517C36.9106 123.906 34.348 123.487 31.9343 122.844C29.4806 122.22 27.3407 120.861 24.8461 120.752C23.6137 120.627 22.3614 120.61 21.1101 120.514C20.4854 120.461 19.8607 120.394 19.2411 120.295C18.6314 120.188 17.9837 120.055 17.5 119.667" fill="#3D171D" blush:i="0.0.0.0.3"/><path id="Fill 9" fill-rule="evenodd" clip-rule="evenodd" d="M18.9317 110.282C18.9317 110.282 18.4321 113.809 18.0394 115.13C17.6466 116.452 17.4683 118.114 17.5046 118.316C17.5398 118.52 24.9269 118.622 29.1729 120.521C33.4198 122.42 43.375 124.929 44.4818 118.724C44.4818 118.724 45.088 118.045 39.3073 116.69C33.5265 115.333 30.4579 107.028 30.4579 107.028C30.4579 107.028 27.353 100.789 22.4998 101.772C17.6466 102.756 18.9317 110.282 18.9317 110.282" fill="#EE4E3E" blush:i="0.0.0.0.4"/><path id="Fill 11" fill-rule="evenodd" clip-rule="evenodd" d="M30.5 108.667C30.4958 109.272 30.3724 109.681 30.2386 110.178C30.1027 110.655 29.9197 111.119 29.7085 111.577C29.4931 112.036 29.2108 112.471 28.8458 112.886C28.6534 113.091 28.4475 113.293 28.1494 113.473C27.9863 113.557 27.8149 113.653 27.5514 113.665C27.3035 113.684 27.015 113.581 26.8769 113.446C26.7222 113.315 26.6166 113.139 26.5455 112.975C26.5193 112.802 26.4702 112.608 26.5246 112.468C26.5789 112.153 26.7253 111.913 26.8738 111.689C27.177 111.239 27.5482 110.872 27.932 110.521C28.3209 110.173 28.7308 109.855 29.1491 109.548C29.5966 109.24 29.9343 108.949 30.5 108.667M30.4394 108.743C29.7838 109.395 28.942 110.089 28.322 110.833C27.9937 111.197 27.681 111.581 27.4719 111.979C27.2492 112.375 27.2021 112.79 27.4123 112.869C27.4656 112.907 27.4593 112.876 27.4729 112.877C27.4834 112.879 27.5482 112.839 27.6089 112.797C27.7427 112.689 27.886 112.519 28.0114 112.337C28.276 111.974 28.5081 111.561 28.7716 111.16L29.5579 109.927C29.8308 109.535 30.0912 109.047 30.4394 108.743" fill="#3D171D" blush:i="0.0.0.0.5"/><path id="Fill 13" fill-rule="evenodd" clip-rule="evenodd" d="M30.4989 108.697C30.0905 110.002 29.7208 111.32 29.41 112.646C29.256 113.31 29.1539 113.983 29.0095 114.641C28.8573 115.302 28.734 115.96 28.6601 116.647C28.6592 116.658 28.6478 116.669 28.6363 116.667C28.6266 116.667 28.6187 116.658 28.6161 116.65C28.4365 115.964 28.4999 115.248 28.5765 114.56C28.668 113.869 28.8687 113.204 29.0703 112.548C29.4611 111.228 29.9294 109.941 30.4575 108.681C30.4628 108.67 30.476 108.664 30.4866 108.669C30.4972 108.674 30.5024 108.686 30.4989 108.697" fill="#3D171D" blush:i="0.0.0.0.6"/><path id="Fill 15" fill-rule="evenodd" clip-rule="evenodd" d="M30.5944 108.873C30.7463 108.91 30.8897 108.912 30.9897 108.912C31.0803 108.908 31.186 108.927 31.3228 108.949L32.0598 109.095C32.5477 109.197 33.0251 109.316 33.5007 109.429C33.9754 109.542 34.4359 109.683 34.8945 109.807C35.1209 109.871 35.3502 109.932 35.5682 109.974C35.6767 109.995 35.7843 110.007 35.8589 110.012C35.8853 110.017 35.9353 110.002 35.8617 110.031C35.8428 110.039 35.7513 110.111 35.7409 110.181C35.7277 110.263 35.7503 110.282 35.7532 110.294C35.7579 110.267 35.5333 110.081 35.3635 109.979C35.1785 109.862 34.9766 109.738 34.7746 109.641C34.3736 109.433 33.9357 109.266 33.4734 109.149C32.5703 108.887 31.5078 108.848 30.5944 108.873M30.5 108.865C30.8218 108.744 31.0181 108.758 31.2879 108.716C31.5399 108.689 31.7956 108.675 32.0513 108.668C32.5637 108.66 33.0808 108.693 33.5923 108.775C34.1028 108.862 34.6029 109.006 35.0756 109.203C35.3182 109.297 35.5333 109.405 35.7607 109.522C35.9872 109.664 36.1976 109.716 36.4486 110.052C36.4741 110.109 36.5213 110.182 36.4892 110.313C36.4732 110.435 36.3288 110.549 36.2571 110.578C36.0749 110.661 35.9938 110.65 35.8966 110.663C35.7211 110.673 35.5767 110.664 35.4389 110.652C35.1606 110.628 34.902 110.588 34.6444 110.545C34.1377 110.446 33.6461 110.324 33.178 110.156C32.7109 109.988 32.2523 109.808 31.8107 109.6C31.588 109.498 31.371 109.388 31.1558 109.275C31.0624 109.217 30.936 109.156 30.7972 109.07C30.6661 108.988 30.5793 108.909 30.5 108.865" fill="#3D171D" blush:i="0.0.0.0.7"/><path id="Fill 17" fill-rule="evenodd" clip-rule="evenodd" d="M30.5341 109.668C31.7615 110.031 32.9737 110.428 34.1705 110.866C34.7704 111.081 35.3806 111.284 35.9447 111.573C36.4956 111.871 37.0639 112.181 37.4941 112.63C37.5033 112.64 37.5013 112.654 37.4911 112.662C37.4829 112.668 37.4706 112.668 37.4614 112.665L35.7066 111.965C35.124 111.734 34.5711 111.445 33.9988 111.188C32.848 110.683 31.6849 110.191 30.5147 109.709C30.5024 109.704 30.4963 109.69 30.5024 109.68C30.5085 109.669 30.5218 109.665 30.5341 109.668" fill="#3D171D" blush:i="0.0.0.0.8"/><path id="Fill 19" fill-rule="evenodd" clip-rule="evenodd" d="M30.5117 114.601C31.0597 114.076 31.654 113.605 32.3008 113.212C32.6215 113.011 32.9431 112.778 33.3235 112.709C33.6976 112.644 34.1089 112.634 34.4785 112.833C34.4975 112.843 34.5057 112.869 34.4957 112.889C34.493 112.897 34.4858 112.904 34.4785 112.908C34.1288 113.118 33.8308 113.273 33.5156 113.424C33.2048 113.572 32.8597 113.637 32.5236 113.756C31.8614 114.012 31.2001 114.322 30.5497 114.663C30.5334 114.673 30.5126 114.665 30.5035 114.647C30.4963 114.632 30.5008 114.613 30.5117 114.601" fill="#3D171D" blush:i="0.0.0.0.9"/><path id="Fill 21" fill-rule="evenodd" clip-rule="evenodd" d="M30.5134 115.606C31.2012 115.094 31.9398 114.631 32.7437 114.236C33.1396 114.034 33.5398 113.804 34.0164 113.724C34.4819 113.648 35.006 113.621 35.4749 113.817C35.497 113.826 35.5069 113.85 35.4948 113.869C35.4903 113.877 35.4815 113.883 35.4726 113.887C35.0315 114.074 34.6644 114.235 34.2707 114.389C33.8837 114.541 33.4492 114.613 33.0301 114.74C32.2008 115.007 31.3748 115.322 30.561 115.663C30.5411 115.672 30.5157 115.665 30.5046 115.648C30.4958 115.634 30.5002 115.617 30.5134 115.606" fill="#3D171D" blush:i="0.0.0.0.10"/><path id="Fill 23" fill-rule="evenodd" clip-rule="evenodd" d="M32.517 117.597C33.2636 117.107 34.035 116.662 34.8361 116.264C35.2356 116.061 35.6292 115.823 36.0782 115.735C36.5193 115.658 37.0187 115.601 37.4776 115.826C37.4974 115.836 37.5053 115.86 37.4964 115.88C37.4914 115.888 37.4845 115.895 37.4766 115.899L37.4707 115.902C37.0494 116.098 36.6904 116.295 36.2918 116.465C35.9022 116.64 35.471 116.71 35.0517 116.832C34.2209 117.096 33.3853 117.376 32.5496 117.665C32.5298 117.672 32.5091 117.661 32.5021 117.641C32.4962 117.624 32.5031 117.606 32.517 117.597" fill="#3D171D" blush:i="0.0.0.0.11"/><path id="Fill 25" fill-rule="evenodd" clip-rule="evenodd" d="M33.5211 118.603C34.3182 118.221 35.1195 117.851 35.9176 117.486C36.3151 117.298 36.6893 117.072 37.1142 116.95C37.5402 116.822 37.9756 116.743 38.4395 116.67L38.4522 116.668C38.4743 116.664 38.4954 116.677 38.4996 116.695C38.5007 116.703 38.4996 116.711 38.4954 116.719C38.2413 117.125 37.8333 117.354 37.4495 117.569C37.0563 117.779 36.6018 117.869 36.1685 117.99C35.3061 118.245 34.4331 118.468 33.5506 118.666C33.5285 118.671 33.5074 118.659 33.5011 118.642C33.4969 118.625 33.5053 118.61 33.5211 118.603" fill="#3D171D" blush:i="0.0.0.0.12"/><path id="Fill 27" fill-rule="evenodd" clip-rule="evenodd" d="M2.49776 88.667C2.49776 88.667 0.82786 89.2774 0.584395 90.1228C0.34093 90.9692 0.480333 92.7297 2.98469 96.351C5.48904 99.9724 4.68894 103.087 4.58488 104.778C4.48082 106.472 4.16765 112.801 11.3332 112.665C11.3332 112.665 13.1425 112.394 13.49 109.856C13.8375 107.317 5.00211 89.1752 5.00211 89.1752C5.00211 89.1752 4.51518 88.7014 2.49776 88.667" fill="#FFD9D1" blush:i="0.0.0.0.13"/><path id="Fill 29" fill-rule="evenodd" clip-rule="evenodd" d="M1.39385 94.0006C1.92219 95.0414 2.556 96.0256 3.23857 96.9815C3.93606 97.957 4.44948 99.0601 4.76987 100.216C5.07831 101.375 5.15891 102.588 5.07931 103.772C4.97782 104.958 4.79872 106.094 4.86936 107.248C4.91215 108.395 5.14498 108.542 5.64844 109.564C6.14594 110.587 6.99069 111.446 8.05334 111.934C9.10704 112.447 10.308 112.616 11.5 112.667C10.309 112.694 9.08515 112.61 7.95086 112.15C6.82154 111.689 5.87928 110.804 5.30816 109.736C4.12909 107.564 4.35097 106.013 4.58281 103.739C4.67534 102.591 4.61166 101.438 4.33207 100.325C4.04551 99.214 3.54702 98.1635 2.92216 97.1881C2.27442 96.202 1.6635 95.1788 1.17495 94.0991C0.736162 93.0252 0.2914 91.8256 0.605818 90.667C0.374979 91.8373 0.892376 92.9726 1.39385 94.0006Z" fill="#3D171D" blush:i="0.0.0.0.14"/><path id="Fill 31" fill-rule="evenodd" clip-rule="evenodd" d="M6.53806 86.7967C6.53806 86.7967 2.09917 87.6898 1.60206 88.9589C1.10496 90.2298 2.48904 93.5245 4.33616 96.7164C6.18327 99.9083 4.37123 104.887 5.29529 107.392C6.21835 109.898 7.74575 111.888 11.0832 111.647C14.4216 111.407 13.9957 106.877 13.1428 102.827C12.2909 98.7759 14.8125 94.0737 14.8125 94.0737C14.8125 94.0737 19.0379 81.9908 6.53806 86.7967" fill="#EE4E3E" blush:i="0.0.0.0.15"/><path id="Fill 33" fill-rule="evenodd" clip-rule="evenodd" d="M9.51826 100.409C10.1594 100.213 10.8137 100.059 11.4841 99.9673C11.8183 99.9153 12.1586 99.8453 12.5039 99.8893C12.8431 99.9473 13.1995 100.014 13.4893 100.244C13.5014 100.254 13.5034 100.27 13.4944 100.282C13.4893 100.288 13.4822 100.291 13.4752 100.292C13.1228 100.343 12.8118 100.356 12.4877 100.389C12.1687 100.411 11.8435 100.368 11.5144 100.365C10.8581 100.368 10.1927 100.404 9.52836 100.458C9.51422 100.46 9.5021 100.449 9.50009 100.435C9.49908 100.424 9.50715 100.413 9.51826 100.409" fill="#3D171D" blush:i="0.0.0.0.16"/><path id="Fill 35" fill-rule="evenodd" clip-rule="evenodd" d="M9.51952 101.203C10.0099 101.1 10.5031 101.022 11.0002 100.969C11.2493 100.937 11.5003 100.881 11.7523 100.92C12.0003 100.972 12.262 101.019 12.4897 101.203C12.5014 101.213 12.5033 101.23 12.4946 101.243C12.4916 101.247 12.4858 101.251 12.4809 101.253C12.2202 101.354 11.9857 101.381 11.7406 101.42C11.4974 101.447 11.2532 101.391 11.007 101.368L9.52244 101.253C9.50882 101.252 9.49909 101.24 9.50007 101.225C9.50007 101.215 9.50882 101.205 9.51952 101.203" fill="#3D171D" blush:i="0.0.0.0.17"/><path id="Fill 37" fill-rule="evenodd" clip-rule="evenodd" d="M9.51687 103.218C10.005 103.077 10.5029 102.984 11.0087 102.941C11.2625 102.917 11.5216 102.87 11.7763 102.934C12.0266 103.011 12.2848 103.095 12.4926 103.313C12.5023 103.323 12.5023 103.341 12.4935 103.352C12.4899 103.357 12.4846 103.36 12.4793 103.361C12.2087 103.421 11.9744 103.416 11.7303 103.432C11.4907 103.435 11.2519 103.371 11.0078 103.341C10.5197 103.295 10.0218 103.272 9.52218 103.267C9.51068 103.267 9.50007 103.256 9.50007 103.242C9.49918 103.231 9.50714 103.221 9.51687 103.218" fill="#3D171D" blush:i="0.0.0.0.18"/><path id="Fill 39" fill-rule="evenodd" clip-rule="evenodd" d="M8.52136 104.341C9.16769 104.189 9.8219 104.07 10.4885 103.99C10.8201 103.946 11.1573 103.881 11.4979 103.919C11.8351 103.97 12.1869 104.022 12.487 104.224C12.5017 104.233 12.5039 104.25 12.4938 104.262C12.4893 104.267 12.4826 104.271 12.4758 104.273C12.1273 104.355 11.8137 104.38 11.49 104.419C11.1685 104.446 10.8425 104.4 10.5143 104.39C9.85787 104.379 9.19467 104.382 8.52923 104.391C8.51349 104.391 8.5 104.38 8.5 104.366C8.5 104.355 8.50899 104.345 8.52136 104.341" fill="#3D171D" blush:i="0.0.0.0.19"/><path id="Fill 41" fill-rule="evenodd" clip-rule="evenodd" d="M9.51704 105.382C10.0003 105.234 10.4881 105.111 10.983 105.015C11.2296 104.962 11.478 104.887 11.7326 104.906C11.9846 104.94 12.25 104.97 12.4885 105.146C12.5001 105.154 12.5037 105.171 12.4956 105.184C12.493 105.189 12.4876 105.194 12.4831 105.195C12.2276 105.306 11.9953 105.349 11.7514 105.405C11.5111 105.451 11.2637 105.415 11.0153 105.413L9.52331 105.432C9.51076 105.432 9.5009 105.421 9.5 105.406C9.5 105.395 9.50717 105.385 9.51704 105.382" fill="#3D171D" blush:i="0.0.0.0.20"/><path id="Fill 43" fill-rule="evenodd" clip-rule="evenodd" d="M13.4993 94.667C13.5098 95.2149 13.3987 95.5984 13.3062 96.0625C13.2114 96.5077 13.0733 96.9425 12.9224 97.3752C12.7585 97.8047 12.5678 98.228 12.3173 98.6386C12.1874 98.8429 12.054 99.0462 11.8773 99.2515C11.7931 99.3531 11.6866 99.461 11.5204 99.5689C11.463 99.5983 11.4034 99.6234 11.3437 99.6454C11.2606 99.6643 11.1576 99.6748 11.0687 99.6601C10.8533 99.6109 10.7632 99.5008 10.6953 99.4118C10.4063 98.8293 10.4847 98.3474 10.6321 97.8697C10.7913 97.4056 11.0464 96.9938 11.3343 96.6114C11.9581 95.8613 12.6087 95.2327 13.4993 94.667M13.4513 94.732C12.858 95.3553 12.1512 96.0604 11.7065 96.821C11.4724 97.1981 11.2805 97.5941 11.1857 97.9943C11.0757 98.3715 11.1424 98.845 11.284 99.0703C11.291 99.0713 11.2863 99.0441 11.1962 99.0231C11.167 99.0137 11.1295 99.0116 11.1061 99.0242C11.1014 99.0189 11.0944 99.0221 11.0944 99.0221C11.1225 98.9906 11.1845 98.9299 11.2372 98.845C11.3448 98.6847 11.4455 98.4909 11.5368 98.2961L12.102 97.0944C12.3068 96.6942 12.5022 96.2867 12.7269 95.8865C12.9551 95.5051 13.1506 95.0379 13.4513 94.732" fill="#3D171D" blush:i="0.0.0.0.21"/><path id="Fill 45" fill-rule="evenodd" clip-rule="evenodd" d="M14.531 94.667C14.9627 94.6631 15.367 94.947 15.6509 95.305C15.9506 95.6678 16.1332 96.1263 16.2627 96.5819C16.5092 97.5066 16.564 98.4567 16.4254 99.3961L16.4246 99.4108C16.4105 99.5678 16.2909 99.6819 16.1573 99.6654L16.149 99.6644C15.6691 99.5844 15.2939 99.1815 15.0872 98.763C14.8706 98.3397 14.7485 97.8851 14.6589 97.4325C14.5825 96.976 14.5385 96.5185 14.5169 96.0629C14.5003 95.5927 14.4837 95.1782 14.531 94.667M14.5684 94.7255C14.6124 95.1177 14.6348 95.6083 14.7029 96.0385C14.7643 96.4814 14.8481 96.9184 14.9602 97.3398C15.0723 97.7583 15.2192 98.1641 15.4234 98.4987C15.626 98.8343 15.9024 99.0615 16.2054 99.082L15.929 99.3503C15.87 98.486 15.8269 97.6032 15.6633 96.7809C15.5903 96.3653 15.4766 95.9673 15.3047 95.6122C15.1287 95.2464 14.8847 94.9723 14.5684 94.7255" fill="#3D171D" blush:i="0.0.0.0.22"/><path id="Fill 47" fill-rule="evenodd" clip-rule="evenodd" d="M14.6473 98.667C14.9723 99.2919 15.1423 99.9505 15.2673 100.618C15.3193 100.954 15.3653 101.289 15.3693 101.633C15.3763 101.976 15.3723 102.322 15.2853 102.667C15.0503 102.009 14.8923 101.365 14.7743 100.7C14.6703 100.036 14.5903 99.3662 14.6473 98.667" fill="#3D171D" blush:i="0.0.0.0.23"/><path id="Fill 49" fill-rule="evenodd" clip-rule="evenodd" d="M12.3161 98.667C12.3351 99.3692 12.2651 100.023 12.2041 100.68L12.0901 101.66C12.0491 101.989 12.0211 102.317 11.9621 102.667C11.6751 102.026 11.6451 101.302 11.7081 100.62C11.7911 99.9385 11.9581 99.262 12.3161 98.667" fill="#3D171D" blush:i="0.0.0.0.24"/><path id="Fill 51" fill-rule="evenodd" clip-rule="evenodd" d="M35.2652 41.1591L36.4508 53.198C35.5021 53.8312 34.7914 55.2797 34.7914 55.2797L35.2652 41.1591ZM13.4513 0C8.5 4.24081 9.5 11.3413 10.5 20.5363C11.5 29.7313 14.0173 41.023 14.7763 47.7212C15.5352 54.4204 16.0091 64.1956 15.0604 69.9886C14.1117 75.7815 14.1117 77.7731 14.1117 77.7731C14.1117 77.7731 9.55893 83.3399 9.06099 84.6303C8.56305 85.9198 7.56716 86.1919 6.5 87.8214C6.5 87.8214 7.06922 94.8137 14.3968 95.628L15.9619 94.1345C15.9619 94.1345 18.2388 102.281 18.5229 104.318C18.808 106.354 18.6655 109.546 18.7367 110.224C18.808 110.903 19.4475 112.26 22.3649 111.378C25.2813 110.496 26.4197 107.78 28.6966 107.237C30.9735 106.694 30.6171 108.323 31.5186 107.011C31.5186 107.011 31.376 106.83 31.0448 105.789C30.7125 104.748 29.1002 90.5363 30.6653 82.1185C30.6653 82.1185 38.9646 69.7625 49.3522 61.4807C49.3522 61.4807 52.7665 59.8502 53.2885 55.2797C53.709 51.598 50.4035 1.46098 49.3522 0C49.3522 0 13.4026 0 13.4513 0Z" fill="#69313B" blush:i="0.0.0.0.25"/><path id="Fill 53" fill-rule="evenodd" clip-rule="evenodd" d="M37.5 11.667C36.9392 12.8036 36.459 13.9592 36.1307 15.1404C35.7685 16.3122 35.5406 17.5076 35.4939 18.6973L35.6855 26.0035C35.7042 28.4464 35.7205 30.8885 35.6469 33.3324L35.5301 36.9992C35.4495 38.2221 35.4086 39.4441 35.2917 40.667C35.1434 39.4469 35.0709 38.225 34.9588 37.0049L34.7473 33.339C34.6094 30.8961 34.5627 28.4512 34.5171 26.0073C34.5194 23.5529 34.4412 21.1403 34.6012 18.6527C34.9155 16.1538 35.9484 13.7725 37.5 11.667" fill="#3D171D" blush:i="0.0.0.0.26"/><path id="Fill 55" fill-rule="evenodd" clip-rule="evenodd" d="M35.5106 53.667C35.888 54.5804 36.2077 55.4789 36.6528 56.3371C37.0858 57.1979 37.5986 58.0175 38.5 58.667C37.9205 58.4987 37.4377 58.1551 37.0491 57.7738C36.6462 57.3933 36.3742 56.9472 36.1378 56.4992C35.9135 56.0469 35.7404 55.5806 35.6427 55.1046C35.5406 54.6295 35.4728 54.15 35.5106 53.667" fill="#3D171D" blush:i="0.0.0.0.27"/><path id="Fill 57" fill-rule="evenodd" clip-rule="evenodd" d="M35.5939 53.667C35.7273 55.4453 35.9769 57.191 36.4202 58.8824C36.6302 59.7319 36.9312 60.5505 37.2565 61.3579C37.5908 62.1662 38.0305 62.9157 38.5 63.667C37.8863 63.0409 37.3556 62.3148 36.9456 61.5167C36.5347 60.7224 36.2121 59.8767 35.9859 59.0058C35.7669 58.1329 35.6083 57.2452 35.5462 56.349C35.4822 55.4547 35.4732 54.5538 35.5939 53.667" fill="#3D171D" blush:i="0.0.0.0.28"/><path id="Fill 59" fill-rule="evenodd" clip-rule="evenodd" d="M34.5 55.667C34.4201 57.9511 34.1786 60.2255 33.8303 62.4874C33.5118 64.7415 32.9142 67.0111 32.3234 69.1728C31.7749 71.3547 31.4911 73.6127 31.2188 75.8669C30.9513 78.124 30.7492 80.3926 30.5452 82.667C30.4499 80.3829 30.5125 78.097 30.6655 75.8148C30.8262 73.5327 31.1158 71.2564 31.6229 69.0003C31.9279 67.866 32.2763 66.8126 32.5457 65.7091C32.8295 64.6134 33.0403 63.4983 33.2866 62.39C33.7446 60.1638 34.1247 57.9192 34.5 55.667" fill="#3D171D" blush:i="0.0.0.0.29"/><path id="Fill 61" fill-rule="evenodd" clip-rule="evenodd" d="M13.9424 77.667C13.939 79.0245 13.9533 80.3699 14.0066 81.7134C14.0657 83.0559 14.1427 84.3947 14.2711 85.727C14.3793 87.0611 14.5585 88.3849 14.7546 89.7096C14.8475 90.3739 14.9667 91.0316 15.1036 91.6874C15.1974 92.3563 15.3876 92.9953 15.5 93.667C14.9904 92.4341 14.5661 91.1468 14.2779 89.8221C13.9643 88.502 13.7649 87.1529 13.6406 85.7972C13.5257 84.4397 13.4648 83.0756 13.5215 81.7152C13.5688 80.3558 13.6787 78.9964 13.9424 77.667" fill="#3D171D" blush:i="0.0.0.0.30"/><path id="Fill 63" fill-rule="evenodd" clip-rule="evenodd" d="M9.5 85.667C10.0782 87.3521 10.6584 89.0176 11.4085 90.5956C11.7723 91.3881 12.1909 92.1521 12.6831 92.8572C13.1772 93.5583 13.7526 94.2094 14.5 94.667C13.6648 94.396 12.9703 93.7744 12.3987 93.0929C11.8148 92.4094 11.3679 91.6199 10.9843 90.8107C10.6083 89.9966 10.2851 89.159 10.0471 88.2948C9.80234 87.4326 9.59826 86.5587 9.5 85.667" fill="#3D171D" blush:i="0.0.0.0.31"/><path id="Fill 65" fill-rule="evenodd" clip-rule="evenodd" d="M7.5 86.667C7.93098 87.3089 8.26383 87.9681 8.59957 88.629C8.75637 88.9625 8.92472 89.2908 9.06902 89.632C9.21717 89.9715 9.37494 90.3059 9.5 90.667C8.9151 90.1279 8.49856 89.4748 8.15993 88.8035C7.8367 88.1245 7.576 87.416 7.5 86.667" fill="#3D171D" blush:i="0.0.0.0.32"/><path id="Fill 67" fill-rule="evenodd" clip-rule="evenodd" d="M24.5 105.667C24.7788 105.095 25.1678 104.601 25.5974 104.158C26.027 103.71 26.5281 103.346 27.0699 103.066C27.6186 102.804 28.2189 102.653 28.8172 102.668C29.4195 102.667 29.9989 102.888 30.5 103.198C29.9255 103.105 29.3778 103.007 28.8321 103.095C28.2933 103.178 27.7664 103.325 27.2693 103.575C26.2691 104.072 25.3702 104.822 24.5 105.667" fill="#3D171D" blush:i="0.0.0.0.33"/><path id="Fill 69" fill-rule="evenodd" clip-rule="evenodd" d="M18.5 107.299C18.8426 107.396 19.1793 107.373 19.5081 107.339C19.8369 107.293 20.1628 107.237 20.4887 107.157C21.1453 107.01 21.7862 106.802 22.5 106.667C22.2352 106.881 21.9379 107.055 21.6228 107.205C21.3097 107.36 20.9691 107.471 20.6176 107.559C20.2632 107.635 19.8921 107.688 19.516 107.659C19.1498 107.631 18.7422 107.55 18.5 107.299" fill="#3D171D" blush:i="0.0.0.0.34"/><path id="Fill 71" fill-rule="evenodd" clip-rule="evenodd" d="M18.5 108.337C19.0447 108.42 19.5828 108.406 20.1068 108.345C20.6298 108.275 21.1406 108.158 21.6355 107.994C22.1378 107.844 22.6082 107.619 23.0889 107.406C23.564 107.18 24.0174 106.916 24.5 106.667C24.3222 106.856 24.1237 107.028 23.9309 107.211C23.7164 107.367 23.5056 107.531 23.2808 107.68C22.8246 107.969 22.3297 108.218 21.7963 108.389C21.2629 108.555 20.7004 108.67 20.1303 108.667C19.5668 108.664 18.9873 108.587 18.5 108.337" fill="#3D171D" blush:i="0.0.0.0.35"/></g></g></g><g id="Male Character/Head" blush:component="Male Character/Head" blush:defaultValue="Short Messy 2" blush:width="28" blush:height="48" transform="translate(127 33) scale(1 1)" blush:i="0.1" blush:value="Short Messy 2" blush:viewBox="0.09589041095890138 0 27.089041095890412 47.51999999999999"><g id="Male Character/Head/Short Messy 2" blush:viewBox="0.09589041095890138 0 27.089041095890412 47.51999999999999" blush:i="0.1.0"><g id="Head" blush:i="0.1.0.0"><path id="Fill 22" fill-rule="evenodd" clip-rule="evenodd" d="M6.60041 24.8188C6.60041 24.8188 7.89241 34.5038 1.23041 37.9608C1.23041 37.9608 0.776414 47.3828 13.9104 47.3828C27.0444 47.3828 20.3484 38.6928 20.3484 38.6928C20.3484 38.6928 15.9074 35.2788 17.0414 31.0768C18.1754 26.8758 13.9234 16.4158 6.60041 24.8188" fill="#db8c5c" blush:color="Skin-500" blush:i="0.1.0.0.0"/><path id="Fill 24" fill-rule="evenodd" clip-rule="evenodd" d="M2.58125 16.4257C2.07425 16.1337 1.62925 16.1337 1.12025 16.3307C-0.580748 16.9927 0.316252 19.1187 1.21425 20.4417C2.11225 21.7637 2.39525 24.5047 5.18325 23.8897C5.18325 23.8897 5.32425 25.7327 6.55325 27.0557C7.78125 28.3787 13.3093 32.2527 14.8683 32.5827C16.4273 32.9137 18.5053 33.4337 20.0643 32.6307C20.0643 32.6307 20.9623 31.6857 21.5293 29.7007C22.0963 27.7167 22.5213 27.3387 22.7103 25.5437C22.8993 23.7487 23.8913 19.7327 23.4193 17.8897C22.9463 16.0477 25.9583 2.01165 12.2813 2.38665C-1.79575 2.77265 2.66025 16.4707 2.58125 16.4257" fill="#db8c5c" blush:color="Skin-500" blush:i="0.1.0.0.1"/><path id="Fill 26" fill-rule="evenodd" clip-rule="evenodd" d="M2.58164 16.4257C2.58164 16.4257 4.60564 20.1577 5.24364 20.5827C5.88164 21.0087 5.73964 14.0637 7.01564 13.0717C8.29064 12.0787 9.03564 10.3787 9.21264 9.42167C9.38964 8.46467 20.6926 2.47667 23.3146 12.3977C23.3146 12.3977 23.5626 10.1657 27.1056 6.51567C27.1056 6.51567 25.9726 5.84267 25.2276 5.84267C24.4836 5.84267 23.4206 4.67367 23.4206 4.67367C23.4206 4.67367 24.8736 4.00067 25.6176 4.49667C25.6176 4.49667 25.4766 2.15767 22.0746 2.47667C22.0746 2.47667 22.6416 1.62667 22.7126 0.988672C22.7126 0.988672 19.9486 2.33467 17.6096 1.76767C17.6096 1.76767 18.7086 0.598672 18.8146 0.208672C18.8146 0.208672 18.7086 -0.00332758 15.5906 0.669672C12.4726 1.34267 9.49564 0.952672 7.08664 2.54767C4.67664 4.14167 0.672643 7.40167 1.06264 9.84667C1.45264 12.2917 2.58164 16.4257 2.58164 16.4257" fill="#f3ddb4" blush:color="Hair-500" blush:i="0.1.0.0.2"/><path id="Fill 28" fill-rule="evenodd" clip-rule="evenodd" d="M2.19947 19.0522C2.19947 19.0522 2.02647 18.8522 2.03247 19.1722C2.03947 19.4922 1.95947 19.6662 1.86647 19.6392C1.77247 19.6132 1.33247 18.8452 1.99247 18.4852C2.65347 18.1252 3.01347 18.8392 3.48747 19.7262C3.96047 20.6132 3.78047 21.8732 3.32047 21.9202C2.86047 21.9672 2.99347 21.6472 3.03947 21.0072C3.08647 20.3662 2.43947 19.1852 2.19947 19.0522" fill="black" blush:i="0.1.0.0.3"/><path id="Fill 30" fill-rule="evenodd" clip-rule="evenodd" d="M4.01519 7.56726C3.77119 8.09226 3.66619 8.65026 3.66919 9.19226C3.69619 9.73526 3.76219 10.3123 3.82019 10.8743L3.98419 12.5773C4.04619 13.1443 4.07219 13.7153 4.20419 14.2753C3.87419 13.7813 3.74619 13.1963 3.60519 12.6383C3.46819 12.0733 3.38819 11.5003 3.32319 10.9253C3.27619 10.3453 3.22119 9.77526 3.28719 9.17026C3.36519 8.57026 3.59519 7.98226 4.01519 7.56726" fill="#2D1807" blush:i="0.1.0.0.4"/><path id="Fill 32" fill-rule="evenodd" clip-rule="evenodd" d="M6.25943 7.89789C5.99543 9.37489 5.67543 10.8179 5.43543 12.2739C5.30243 12.9999 5.20843 13.7289 5.13643 14.4579C5.07543 15.1869 5.03943 15.9229 5.17343 16.6619C4.83743 15.9779 4.76943 15.1959 4.75243 14.4439C4.73443 13.6859 4.81843 12.9319 4.94243 12.1899C5.07643 11.4499 5.23743 10.7159 5.46543 10.0009C5.68543 9.28489 5.93243 8.57589 6.25943 7.89789" fill="#2D1807" blush:i="0.1.0.0.5"/><path id="Fill 34" fill-rule="evenodd" clip-rule="evenodd" d="M10.6055 4.09468C11.6165 3.56268 12.6535 3.13968 13.6865 2.71068L15.2365 2.08168C15.7515 1.86568 16.2605 1.65068 16.7475 1.35468C16.3925 1.81168 15.8965 2.13568 15.4085 2.42568C14.9175 2.71868 14.3975 2.95368 13.8755 3.17368C12.8205 3.58968 11.7375 3.93268 10.6055 4.09468" fill="#2D1807" blush:i="0.1.0.0.6"/><path id="Fill 36" fill-rule="evenodd" clip-rule="evenodd" d="M11.0068 5.25235C12.2118 5.06635 13.3548 4.75335 14.4068 4.23735C14.9378 3.99135 15.4368 3.68335 15.9108 3.33535C16.3988 2.99835 16.8148 2.57435 17.2668 2.15735C16.7138 3.24835 15.7518 4.15735 14.6238 4.68735C13.4998 5.22135 12.2188 5.45935 11.0068 5.25235" fill="#2D1807" blush:i="0.1.0.0.7"/><path id="Fill 38" fill-rule="evenodd" clip-rule="evenodd" d="M15.4248 5.74846C16.0428 5.58346 16.6088 5.31746 17.1428 5.00746C17.4058 4.84246 17.6618 4.68146 17.9178 4.49746C18.2058 4.30546 18.5168 4.16546 18.8308 4.05946C19.4648 3.85446 20.1138 3.77146 20.7588 3.75546C21.4038 3.73846 22.0468 3.77446 22.6768 3.90546C22.0398 3.98246 21.4118 4.04246 20.7928 4.13846C20.1768 4.24246 19.5588 4.33746 18.9878 4.53446C18.6968 4.62146 18.4268 4.74546 18.1778 4.89146C17.9028 5.05346 17.6188 5.22746 17.3158 5.34946C16.7178 5.60346 16.0728 5.78846 15.4248 5.74846" fill="#2D1807" blush:i="0.1.0.0.8"/><path id="Fill 40" fill-rule="evenodd" clip-rule="evenodd" d="M18.0469 5.65365C18.4669 5.48965 18.8809 5.34865 19.2929 5.20265C19.7099 5.05065 20.0999 4.91265 20.5379 4.77265C21.3969 4.51065 22.3799 4.46465 23.2199 4.80365C22.7699 4.84565 22.3369 4.86765 21.9189 4.94565C21.5009 5.02765 21.0889 5.12565 20.6779 5.25265C20.2739 5.36965 19.8279 5.51065 19.3889 5.57265C18.9469 5.64465 18.4989 5.69365 18.0469 5.65365" fill="#2D1807" blush:i="0.1.0.0.9"/><path id="Fill 42" fill-rule="evenodd" clip-rule="evenodd" d="M10.8242 14.6127C10.8242 14.6127 11.1252 14.4357 11.8522 14.4177C12.5782 14.3997 15.5372 14.6477 15.5902 14.5417C15.6432 14.4357 15.5372 13.8507 15.5372 13.8507C15.5372 13.8507 15.0412 13.7797 15.0582 13.7087C15.0762 13.6377 15.6432 13.3367 15.6432 13.2657C15.6432 13.1957 11.8162 12.2567 10.8242 14.6127" fill="black" blush:i="0.1.0.0.10"/><path id="Fill 44" fill-rule="evenodd" clip-rule="evenodd" d="M23.4027 14.3647C23.4027 14.3647 22.0387 14.2937 21.4187 14.4887C20.7987 14.6837 20.4967 14.7367 20.4437 14.6477C20.3907 14.5597 20.6387 14.2407 20.9047 14.0987C21.1707 13.9567 20.6387 13.7447 21.2057 13.4967C21.7727 13.2487 23.1727 13.3547 23.3667 13.7617L23.4027 14.3647Z" fill="black" blush:i="0.1.0.0.11"/><path id="Fill 46" fill-rule="evenodd" clip-rule="evenodd" d="M11.5508 18.1025C11.5508 18.1025 13.0568 18.0315 13.8718 18.2265C14.6868 18.4215 15.7318 18.2085 15.7318 18.2085C15.7318 18.2085 14.9518 17.1635 13.9428 17.1635C12.9328 17.1635 11.9408 17.5715 11.5508 18.1025" fill="black" blush:i="0.1.0.0.12"/><path id="Fill 48" fill-rule="evenodd" clip-rule="evenodd" d="M20.4268 18.3862C20.4268 18.3862 22.1458 17.9072 22.9778 18.0322C22.9778 18.0322 23.1728 17.7662 23.0848 17.5892C22.9958 17.4112 22.3578 17.0042 21.6848 17.1992C21.0108 17.3942 20.5868 17.9432 20.4268 18.3862" fill="black" blush:i="0.1.0.0.13"/><path id="Fill 50" fill-rule="evenodd" clip-rule="evenodd" d="M17.6632 23.7187C17.6632 23.7187 18.1942 23.7547 18.5132 23.5947C18.8322 23.4357 20.2322 23.3647 20.2322 23.3647C20.2322 23.3647 19.3462 24.1087 18.9212 24.1267C18.4962 24.1437 17.5742 23.9487 17.6632 23.7187" fill="black" blush:i="0.1.0.0.14"/><path id="Fill 52" fill-rule="evenodd" clip-rule="evenodd" d="M15.1824 26.2524C15.1824 26.2524 17.5744 27.4574 20.0904 26.3764C20.0904 26.3764 20.4794 26.1814 20.4794 26.5004C20.4794 26.8194 19.4164 27.3684 17.7694 27.3864C16.1214 27.4034 14.9344 26.9254 14.6864 26.5004C14.4384 26.0754 15.1824 26.2524 15.1824 26.2524" fill="black" blush:i="0.1.0.0.15"/></g></g></g><g id="Facial Hair" blush:component="Facial Hair" blush:defaultValue="None" blush:width="19" blush:height="14" transform="translate(132 53) scale(19 14)" blush:i="0.2" blush:value="None" blush:viewBox="1.75 1.75 0 0"><g id="Facial Hair/None" stroke="none" stroke-width="1" fill="none" fill-rule="evenodd" fill-opacity="0" blush:viewBox="1.75 1.75 0 0" blush:i="0.2.0"/></g><g id="Male Character/Upper Body" blush:component="Male Character/Upper Body" blush:defaultValue="Shirt 2" blush:width="101" blush:height="98" transform="translate(85 63) scale(1 1)" blush:i="0.3" blush:value="Shirt 2" blush:viewBox="15.655000000000001 4.2938144329896915 80.29500000000002 88.40206185567011"><g id="Male Character/Upper Body/Shirt 2" blush:viewBox="15.655000000000001 4.2938144329896915 80.29500000000002 88.40206185567011" blush:i="0.3.0"><g id="Group" blush:i="0.3.0.0"><path id="Fill 110" fill-rule="evenodd" clip-rule="evenodd" d="M85.9189 65.4869C84.4639 59.2259 82.0999 50.0849 80.0399 46.1459C77.9809 42.2069 77.3319 31.0099 77.3319 31.0099C73.9699 26.1309 72.7099 29.7109 70.3199 32.1069C67.9309 34.5019 68.8819 48.7159 72.5029 57.5119C75.6069 65.0549 83.4319 73.7619 85.2509 78.6139C85.5519 79.4199 85.2949 79.3609 85.1559 80.3859C84.8709 82.4809 88.6989 84.9689 89.3839 87.3549C89.0209 88.3639 87.1199 90.2539 88.4679 91.3579H88.6499L89.2209 90.7749C89.2209 90.7749 89.7249 91.6939 90.2659 91.9029C90.2659 91.9029 90.4259 91.9099 90.5099 91.8329C90.5689 91.7789 90.8209 90.9229 90.9659 90.4189C91.1649 92.1649 92.0309 92.5809 92.5209 92.5479C92.7559 92.5309 93.0259 90.5219 93.0259 90.5219C93.8359 93.2269 94.6569 92.4869 94.9229 92.0609C95.1899 91.6349 95.2389 88.4489 95.4009 87.0219C95.5579 85.6349 95.7139 83.7579 93.2559 80.0869C90.7979 76.4159 87.3739 71.7489 85.9189 65.4869Z" fill="#db8c5c" blush:color="Skin-500" blush:i="0.3.0.0.0"/><path id="Fill 126" fill-rule="evenodd" clip-rule="evenodd" d="M89.1862 89.2524C89.2752 89.0084 89.3692 88.7654 89.5132 88.5504C89.6482 88.3314 89.8232 88.1394 90.0112 87.9684C89.5322 88.8634 89.1932 89.7554 89.2212 90.7744C89.0092 90.2984 89.0542 89.7494 89.1862 89.2524Z" fill="black" blush:i="0.3.0.0.1"/><path id="Fill 128" fill-rule="evenodd" clip-rule="evenodd" d="M90.9666 90.4185C90.8296 90.1175 90.8156 89.7945 90.8176 89.4755C90.8486 89.1595 90.9036 88.8295 91.0966 88.5585C91.0786 89.2015 91.0796 89.7785 90.9666 90.4185Z" fill="black" blush:i="0.3.0.0.2"/><path id="Fill 130" fill-rule="evenodd" clip-rule="evenodd" d="M90.3308 88.0944C90.6408 88.3144 91.1038 88.4414 91.1028 88.2564C91.2448 88.0254 91.2978 87.5984 91.3048 87.2264C91.3148 86.8404 91.2838 86.4484 91.2218 86.0684C91.1908 85.8804 91.1498 85.6894 91.0878 85.5304C91.0468 85.4074 90.9058 85.2074 90.8138 85.0344C90.6128 84.6784 90.4208 84.3204 90.2368 83.9574C90.0528 83.5924 89.8758 83.2244 89.7178 82.8414C89.6388 82.6494 89.5638 82.4554 89.5058 82.2394C89.4798 82.1264 89.4478 82.0254 89.4558 81.8584C89.4588 81.7924 89.4868 81.6074 89.6748 81.5224C89.8478 81.4624 89.9318 81.5314 90.0458 81.5684C90.4558 81.8804 90.6608 82.2014 90.9218 82.5324C91.1628 82.8634 91.3968 83.1984 91.6178 83.5404C92.0628 84.2214 92.4858 84.9134 92.8698 85.6404C92.9638 85.8384 93.0558 85.9814 93.1348 86.2654C93.1748 86.5724 93.1218 86.7134 93.1158 86.9314C93.0778 87.3324 93.0598 87.7294 93.0458 88.1254C92.9458 88.9164 92.9148 89.7154 93.0258 90.5214C92.7168 89.7634 92.6118 88.9324 92.5458 88.1134C92.5508 87.7034 92.5858 87.2934 92.6168 86.8904C92.6278 86.7084 92.6678 86.4434 92.6428 86.3524C92.6128 86.2494 92.5098 86.0334 92.4258 85.8704C92.0568 85.1704 91.6368 84.4824 91.1998 83.8134C90.7678 83.1724 90.2858 82.4234 89.7868 81.9964C89.8048 82.0154 89.7918 82.0054 89.8698 81.9834C89.9638 81.9374 89.9558 81.8654 89.9538 81.8974C89.9498 81.9324 89.9678 82.0304 89.9898 82.1134C90.0368 82.2874 90.1058 82.4704 90.1798 82.6514C90.3288 83.0144 90.5028 83.3754 90.6828 83.7304C90.8638 84.0864 91.0518 84.4404 91.2488 84.7874C91.3428 84.9704 91.4508 85.0964 91.5548 85.3504C91.6378 85.5694 91.6788 85.7754 91.7148 85.9854C91.7828 86.4014 91.8148 86.8164 91.8048 87.2384C91.7728 87.6614 91.7918 88.0804 91.5118 88.5494C91.4188 88.6644 91.2578 88.7754 91.0918 88.7794C90.9268 88.7964 90.8038 88.7414 90.6968 88.6934C90.4818 88.5864 90.3208 88.4474 90.1668 88.3044C89.8648 88.0144 89.6108 87.6934 89.3848 87.3544C89.6868 87.6254 90.0038 87.8794 90.3308 88.0944Z" fill="black" blush:i="0.3.0.0.3"/><g id="Top" blush:i="0.3.0.0.4"><path id="Fill 60" fill-rule="evenodd" clip-rule="evenodd" d="M21.2285 33.1025C21.2285 33.1025 15.7715 55.2125 15.8425 55.7085C15.9135 56.2055 23.9215 68.4645 28.2445 72.4335C32.5675 76.4015 35.6925 81.5755 35.6925 81.5755C35.6925 81.5755 38.3855 76.0005 40.9835 74.4415C40.9835 74.4415 38.6615 74.2755 34.7645 66.4095C30.8665 58.5435 29.3785 54.8585 27.5355 53.4415C27.5355 53.4415 31.4185 46.2305 31.7095 39.2765C31.9995 32.3235 25.7645 25.1655 21.2285 33.1025" fill="#db8c5c" blush:color="Skin-500" blush:i="0.3.0.0.4.0"/><path id="Fill 62" fill-rule="evenodd" clip-rule="evenodd" d="M55.662 11.2141C62.371 10.1751 59.725 5.4971 59.725 5.4971C59.725 5.4971 69.457 13.3871 71.914 15.4191C74.371 17.4501 78.575 15.7491 78.575 34.4111C78.575 34.4111 77.489 35.7811 72.717 36.1121C72.717 36.1121 70.733 50.2851 72.907 56.0491C75.079 61.8121 75.599 70.6001 75.599 70.6001C75.599 70.6001 53.5003 92.9571 35.7032 69.1526C35.7032 69.1526 32.952 49.4961 32.385 39.7171C32.385 39.7171 24.528 37.4821 19.709 33.7491C19.709 33.7491 21.694 18.5371 26.701 15.4191C31.709 12.3011 45.741 4.4111 45.741 4.4111C45.741 4.4111 48.953 12.2531 55.662 11.2141Z" fill="#252833" blush:i="0.3.0.0.4.1"/><path id="Fill 64" fill-rule="evenodd" clip-rule="evenodd" d="M37.3496 53.5595C39.1166 54.6625 40.8496 55.8065 42.5876 56.9405L47.7946 60.3465C49.5296 61.4805 51.2796 62.5865 53.0356 63.6845C53.9186 64.2235 54.8066 64.7555 55.7166 65.2455C56.6146 65.7645 57.5456 66.2015 58.5106 66.5985C56.4736 66.1185 54.5876 65.1515 52.7466 64.1845C50.9106 63.1965 49.1376 62.0995 47.3856 60.9745C45.6496 59.8265 43.9306 58.6535 42.2606 57.4125C40.5866 56.1775 38.9336 54.9125 37.3496 53.5595" fill="#0D0E12" blush:i="0.3.0.0.4.2"/><path id="Fill 66" fill-rule="evenodd" clip-rule="evenodd" d="M38.8145 57.9057C40.3225 58.9447 41.8435 59.9457 43.3925 60.8977C44.9475 61.8387 46.5155 62.7547 48.1205 63.5977C49.7125 64.4677 51.3605 65.2227 53.0195 65.9577C53.8515 66.3217 54.6925 66.6637 55.5505 66.9637C56.3905 67.3257 57.2735 67.5457 58.1325 67.8747C54.5085 67.3067 51.0125 65.9767 47.7695 64.2597C46.1515 63.3877 44.5715 62.4427 43.0765 61.3767C41.5795 60.3157 40.1285 59.1857 38.8145 57.9057" fill="#0D0E12" blush:i="0.3.0.0.4.3"/><path id="Fill 72" fill-rule="evenodd" clip-rule="evenodd" d="M32.3848 39.7167C32.7038 37.7377 33.1688 35.7897 33.6678 33.8517C34.1848 31.9177 34.7378 29.9917 35.4338 28.1137C35.1138 30.1027 34.6498 32.0447 34.1508 33.9787C33.6338 35.9077 33.0828 37.8277 32.3848 39.7167" fill="#0D0E12" blush:i="0.3.0.0.4.4"/><path id="Fill 74" fill-rule="evenodd" clip-rule="evenodd" d="M33.1914 36.0971C33.4004 35.5051 33.6984 34.9541 34.0234 34.4211C34.3464 33.8861 34.7254 33.3851 35.1374 32.9111C35.5614 32.4481 36.0144 32.0051 36.5304 31.6391C37.0474 31.2771 37.6084 30.9671 38.2144 30.8051C37.1744 31.4961 36.3174 32.3311 35.5114 33.2431C34.7034 34.1501 33.9644 35.1181 33.1914 36.0971" fill="#0D0E12" blush:i="0.3.0.0.4.5"/><path id="Fill 76" fill-rule="evenodd" clip-rule="evenodd" d="M72.7168 36.1118C73.1158 34.8838 73.4818 33.6538 73.8058 32.4128C74.1268 31.1718 74.4298 29.9258 74.6508 28.6658C74.9198 27.4138 75.0798 26.1438 75.2198 24.8728C75.3718 23.5998 75.3998 22.3198 75.4398 21.0278C75.6078 22.3068 75.6768 23.6068 75.6038 24.9018C75.5418 26.1958 75.3748 27.4858 75.1418 28.7598C74.8768 30.0288 74.5768 31.2898 74.1738 32.5208C73.7688 33.7488 73.3068 34.9618 72.7168 36.1118" fill="#0D0E12" blush:i="0.3.0.0.4.6"/></g></g></g></g><g id="Male Character/Accesories" blush:component="Male Character/Accesories" blush:defaultValue="Mask" blush:width="34" blush:height="36" transform="translate(125 33) scale(1 1)" blush:i="0.4" blush:value="Mask" blush:viewBox="6.915254237288131 18.9 18.54872881355932 15.480000000000004"><g id="Male Character/Accesories/Mask" blush:viewBox="6.915254237288131 18.9 18.54872881355932 15.480000000000004" blush:i="0.4.0"><g id="Group" blush:i="0.4.0.0"><path id="Path 5" d="M6.99756 19.528C7.06494 19.4347 7.18469 19.4016 7.28751 19.44L7.34661 19.4717L13.9167 24.2179C14.0286 24.2988 14.0538 24.4551 13.9729 24.567C13.9056 24.6603 13.7858 24.6933 13.683 24.6549L13.6239 24.6232L7.05382 19.877C6.9419 19.7961 6.91671 19.6399 6.99756 19.528Z" fill="#9FB1B7" blush:i="0.4.0.0.0"/><path id="Path 6" d="M7.03629 23.8076C7.12317 23.7322 7.2473 23.7274 7.33865 23.7882L7.38897 23.8325L12.0123 29.1572C12.1029 29.2615 12.0917 29.4194 11.9875 29.5099C11.9006 29.5854 11.7765 29.5902 11.6851 29.5294L11.6348 29.4851L7.01143 24.1603C6.9209 24.0561 6.93204 23.8982 7.03629 23.8076Z" fill="#9FB1B7" blush:i="0.4.0.0.1"/><path id="Path 4" fill-rule="evenodd" clip-rule="evenodd" d="M18.2927 34.0213C14.4721 33.1792 14.5198 31.9095 11.7698 29.7028C9.01992 27.4961 18.8626 18.3903 21.7207 19.0323C24.5788 19.6744 25.339 24.7049 25.339 24.7049C25.339 24.7049 24.2325 31.0059 23.3536 32.2557C22.4747 33.5056 22.1133 34.8633 18.2927 34.0213Z" fill="#DAEDEB" blush:i="0.4.0.0.2"/></g></g></g></g></svg>