<svg viewBox="9.400000000000006 12.924999999999997 76.37499999999999 63.45" fill="none" xmlns="http://www.w3.org/2000/svg" xmlns:xlink="http://www.w3.org/1999/xlink" xmlns:blush="http://design.blush" overflow="visible" width="76.37499999999999px" height="63.45px"><g id="Master/New Stickers/Calendar" blush:has-customizable-colors="true" blush:viewBox="9.400000000000006 12.689999999999998 75.67000000000002 63.45" blush:i="0"><g id="Group 280" blush:i="0.0"><g id="Group 282" blush:i="0.0.0"><path id="Rectangle 21" d="M69.6827 16.1551C69.665 15.6957 70.0181 15.3066 70.4771 15.2796V15.2796C70.948 15.252 71.3503 15.6155 71.3703 16.0869L71.6637 22.9958C71.6839 23.4708 71.3141 23.8717 70.8391 23.89V23.89C70.3653 23.9082 69.9665 23.5389 69.9483 23.0652L69.6827 16.1551Z" fill="#D69E63" blush:i="0.0.0.0"/></g><g id="Group 283" blush:i="0.0.1"><path id="Rectangle 21_2" d="M60.5011 15.5877C60.5033 15.1279 60.8729 14.7544 61.3326 14.7473V14.7473C61.8043 14.7401 62.1905 15.1207 62.1901 15.5924L62.1846 22.5075C62.1843 22.983 61.7975 23.3675 61.3221 23.3652V23.3652C60.8481 23.363 60.4656 22.9768 60.4679 22.5027L60.5011 15.5877Z" fill="#D69E63" blush:i="0.0.1.0"/></g><g id="Group 284" blush:i="0.0.2"><path id="Rectangle 21_3" d="M51.0414 15.118C51.0207 14.6587 51.3712 14.2672 51.83 14.2373V14.2373C52.3007 14.2066 52.7054 14.5675 52.7285 15.0386L53.0673 21.9455C53.0906 22.4203 52.7235 22.8237 52.2485 22.8451V22.8451C51.7749 22.8664 51.3737 22.4997 51.3524 22.0261L51.0414 15.118Z" fill="#D69E63" blush:i="0.0.2.0"/></g><g id="Group 285" blush:i="0.0.3"><path id="Rectangle 21_4" d="M41.6288 14.6969C41.6492 14.2376 42.0332 13.8789 42.4928 13.89V13.89C42.9644 13.9013 43.3353 14.2968 43.3163 14.7682L43.0383 21.6777C43.0191 22.1528 42.6176 22.5218 42.1426 22.5008V22.5008C41.669 22.4798 41.302 22.0789 41.323 21.6053L41.6288 14.6969Z" fill="#D69E63" blush:i="0.0.3.0"/></g><g id="Group 286" blush:i="0.0.4"><path id="Rectangle 21_5" d="M32.2546 14.4389C32.2749 13.9795 32.659 13.6209 33.1186 13.632V13.632C33.5902 13.6433 33.961 14.0388 33.9421 14.5102L33.664 21.4197C33.6449 21.8948 33.2433 22.2638 32.7684 22.2428V22.2428C32.2948 22.2218 31.9278 21.8209 31.9488 21.3473L32.2546 14.4389Z" fill="#D69E63" blush:i="0.0.4.0"/></g><g id="Group 287" blush:i="0.0.5"><path id="Rectangle 21_6" d="M22.9646 14.1809C22.9849 13.7215 23.369 13.3629 23.8286 13.374V13.374C24.3002 13.3853 24.671 13.7808 24.652 14.2522L24.374 21.1617C24.3549 21.6368 23.9533 22.0058 23.4783 21.9848V21.9848C23.0047 21.9638 22.6378 21.5629 22.6588 21.0892L22.9646 14.1809Z" fill="#D69E63" blush:i="0.0.5.0"/></g><path id="Rectangle 13" d="M17.8389 18.0215C17.8765 17.5585 18.2749 17.209 18.7388 17.232L80.7306 20.3088C81.1666 20.3304 81.5173 20.6752 81.5462 21.1108L85.0017 73.1217C85.0355 73.6305 84.6218 74.0568 84.1122 74.0383L14.4032 71.4969C13.9135 71.479 13.5376 71.0562 13.5773 70.5678L17.8389 18.0215Z" fill="#D0C5BA" blush:i="0.0.6"/></g><g id="Group 279" blush:i="0.1"><path id="Rectangle 13_2" d="M14.8849 17.1894C14.9302 16.7326 15.3262 16.3918 15.7847 16.4152L79.7341 19.6818C80.2249 19.7069 80.5949 20.1372 80.5461 20.6262L75.0834 75.3786C75.0378 75.8354 74.6415 76.1759 74.1831 76.1522L10.2753 72.8437C9.78508 72.8184 9.41547 72.3885 9.46388 71.9L14.8849 17.1894Z" fill="#FFF6ED" blush:i="0.1.0"/><g id="Group 276" blush:i="0.1.1"><path id="Vector 13 (Stroke)" fill-rule="evenodd" clip-rule="evenodd" d="M15.0047 27.7765C15.0141 27.6343 15.137 27.5266 15.2792 27.536L77.3205 31.639C77.4627 31.6485 77.5704 31.7713 77.561 31.9135C77.5516 32.0557 77.4287 32.1634 77.2865 32.154L15.2452 28.051C15.103 28.0416 14.9953 27.9187 15.0047 27.7765Z" fill="#9C9B9A" blush:i="0.1.1.0"/><path id="Vector 14 (Stroke)" fill-rule="evenodd" clip-rule="evenodd" d="M14.2256 39.5579C14.235 39.4158 14.3579 39.3081 14.5001 39.3175L76.5414 43.4205C76.6836 43.4299 76.7912 43.5528 76.7818 43.695C76.7724 43.8372 76.6495 43.9449 76.5073 43.9355L14.466 39.8324C14.3238 39.823 14.2162 39.7001 14.2256 39.5579Z" fill="#9C9B9A" blush:i="0.1.1.1"/><path id="Vector 15 (Stroke)" fill-rule="evenodd" clip-rule="evenodd" d="M13.4493 51.2948C13.4587 51.1526 13.5816 51.045 13.7238 51.0544L75.7651 55.1574C75.9073 55.1668 76.015 55.2897 76.0056 55.4319C75.9961 55.5741 75.8732 55.6817 75.7311 55.6723L13.6898 51.5693C13.5476 51.5599 13.4399 51.437 13.4493 51.2948Z" fill="#9C9B9A" blush:i="0.1.1.2"/><path id="Vector 16 (Stroke)" fill-rule="evenodd" clip-rule="evenodd" d="M12.6738 63.0317C12.6832 62.8895 12.8061 62.7819 12.9483 62.7913L74.9896 66.8943C75.1318 66.9037 75.2394 67.0266 75.23 67.1688C75.2206 67.311 75.0977 67.4186 74.9555 67.4092L12.9142 63.3062C12.772 63.2968 12.6644 63.1739 12.6738 63.0317Z" fill="#9C9B9A" blush:i="0.1.1.3"/></g><g id="Group 277" blush:i="0.1.2"><path id="Vector 13 (Stroke)_2" fill-rule="evenodd" clip-rule="evenodd" d="M65.1267 30.8326C65.2689 30.842 65.3765 30.9649 65.3671 31.1071L62.4093 75.8319C62.3999 75.9741 62.277 76.0817 62.1348 76.0723C61.9926 76.0629 61.885 75.94 61.8944 75.7978L64.8522 31.073C64.8616 30.9308 64.9845 30.8232 65.1267 30.8326Z" fill="#9C9B9A" blush:i="0.1.2.0"/><path id="Vector 14 (Stroke)_2" fill-rule="evenodd" clip-rule="evenodd" d="M52.2277 29.9796C52.3699 29.989 52.4776 30.1119 52.4682 30.2541L49.5104 74.9789C49.501 75.1211 49.3781 75.2287 49.2359 75.2193C49.0937 75.2099 48.986 75.087 48.9954 74.9448L51.9532 30.22C51.9626 30.0778 52.0855 29.9702 52.2277 29.9796Z" fill="#9C9B9A" blush:i="0.1.2.1"/><path id="Vector 15 (Stroke)_2" fill-rule="evenodd" clip-rule="evenodd" d="M39.3777 29.1298C39.5199 29.1392 39.6275 29.2621 39.6181 29.4043L36.6603 74.1291C36.6509 74.2713 36.528 74.379 36.3858 74.3696C36.2436 74.3602 36.136 74.2373 36.1454 74.0951L39.1032 29.3703C39.1126 29.2281 39.2355 29.1204 39.3777 29.1298Z" fill="#9C9B9A" blush:i="0.1.2.2"/><path id="Vector 16 (Stroke)_2" fill-rule="evenodd" clip-rule="evenodd" d="M26.5269 28.2799C26.6691 28.2893 26.7767 28.4122 26.7673 28.5544L23.8095 73.2792C23.8001 73.4214 23.6772 73.529 23.535 73.5196C23.3928 73.5102 23.2852 73.3873 23.2946 73.2451L26.2524 28.5204C26.2618 28.3782 26.3847 28.2705 26.5269 28.2799Z" fill="#9C9B9A" blush:i="0.1.2.3"/></g><g id="Group 278" blush:i="0.1.3"><path id="Vector 17 (Stroke)" fill-rule="evenodd" clip-rule="evenodd" d="M28.4915 42.0684C28.7676 41.8433 29.174 41.8846 29.3991 42.1608L37.1712 51.6946C37.3963 51.9707 37.355 52.377 37.0788 52.6022C36.8027 52.8273 36.3964 52.7859 36.1712 52.5098L28.3991 42.976C28.174 42.6998 28.2154 42.2935 28.4915 42.0684Z" fill="#EE4E2F" blush:i="0.1.3.0"/><path id="Vector 18 (Stroke)" fill-rule="evenodd" clip-rule="evenodd" d="M36.4473 42.5945C36.6914 42.8541 36.6789 43.2623 36.4194 43.5064L27.4594 51.9336C27.1999 52.1777 26.7917 52.1652 26.5476 51.9057C26.3035 51.6462 26.316 51.2379 26.5755 50.9938L35.5355 42.5666C35.795 42.3225 36.2032 42.335 36.4473 42.5945Z" fill="#EE4E2F" blush:i="0.1.3.1"/></g></g><path id="Union" fill-rule="evenodd" clip-rule="evenodd" d="M71.0612 16.0374C71.0694 15.8363 71.0751 15.6958 71.3033 15.7284C71.1313 15.3844 70.6987 15.2123 70.2712 15.2123C70.1819 15.2123 70.0924 15.2217 70.0067 15.2389C69.587 15.2716 69.2445 15.6084 69.2162 16.0403L68.7671 22.9111C68.7361 23.3851 69.1023 23.795 69.5764 23.826C70.0449 23.8566 70.4583 23.5063 70.4967 23.0384L71.059 16.1743C71.0623 16.1337 71.0628 16.0935 71.0605 16.0539C71.0607 16.0484 71.0609 16.0428 71.0612 16.0374Z" fill="#EABD91" blush:i="0.2"/><path id="Union_2" fill-rule="evenodd" clip-rule="evenodd" d="M61.8249 15.4137C61.8408 15.213 61.8519 15.0729 62.0787 15.1142C61.92 14.7638 61.4943 14.5754 61.0671 14.559C60.9769 14.5556 60.8861 14.5617 60.7989 14.5759C60.3799 14.5944 60.0268 14.9172 59.9822 15.3464L59.2709 22.195C59.2219 22.6675 59.5721 23.091 60.0446 23.1401C60.5116 23.1886 60.9382 22.8544 60.9944 22.3883L61.8185 15.5507C61.8238 15.5068 61.8257 15.4632 61.8244 15.4203C61.8246 15.4181 61.8247 15.4158 61.8249 15.4137Z" fill="#EABD91" blush:i="0.3"/><path id="Union_3" fill-rule="evenodd" clip-rule="evenodd" d="M52.4128 15.0537C52.4287 14.8531 52.4398 14.7129 52.6667 14.7542C52.5079 14.4038 52.0822 14.2154 51.655 14.1991C51.5652 14.1956 51.4749 14.2017 51.388 14.2158C50.9683 14.2333 50.6142 14.5565 50.5695 14.9863L49.8582 21.8349C49.8091 22.3074 50.1594 22.731 50.6319 22.78C51.0989 22.8285 51.5254 22.4943 51.5816 22.0282L52.4058 15.1906C52.4109 15.1487 52.4128 15.1072 52.4118 15.0663C52.4122 15.0621 52.4125 15.0579 52.4128 15.0537Z" fill="#EABD91" blush:i="0.4"/><path id="Union_4" fill-rule="evenodd" clip-rule="evenodd" d="M43.0029 14.6937C43.0187 14.4931 43.0298 14.3529 43.2567 14.3942C43.0979 14.0438 42.6722 13.8554 42.245 13.8391C42.1552 13.8356 42.0648 13.8417 41.978 13.8558C41.5583 13.8735 41.2043 14.1966 41.1597 14.6263L40.4484 21.4749C40.3993 21.9474 40.7496 22.371 41.2221 22.42C41.6891 22.4685 42.1156 22.1343 42.1718 21.6682L42.996 14.8306C43.0011 14.7882 43.003 14.7462 43.002 14.7048C43.0023 14.7011 43.0026 14.6974 43.0029 14.6937Z" fill="#EABD91" blush:i="0.5"/><path id="Union_5" fill-rule="evenodd" clip-rule="evenodd" d="M33.5915 14.334C33.6073 14.1334 33.6184 13.9932 33.8453 14.0345C33.6865 13.6841 33.2608 13.4957 32.8336 13.4794C32.7441 13.4759 32.6541 13.4819 32.5675 13.4959C32.1469 13.5126 31.7917 13.8361 31.747 14.2666L31.0357 21.1152C30.9866 21.5877 31.3369 22.0112 31.8094 22.0603C32.2764 22.1088 32.7029 21.7745 32.7591 21.3084L33.5833 14.4709C33.5879 14.433 33.5899 14.3954 33.5895 14.3583C33.5902 14.3501 33.5908 14.342 33.5915 14.334Z" fill="#EABD91" blush:i="0.6"/><path id="Union_6" fill-rule="evenodd" clip-rule="evenodd" d="M24.1801 13.9741C24.196 13.7735 24.207 13.6333 24.4339 13.6746C24.2752 13.3242 23.8495 13.1358 23.4222 13.1195C23.3322 13.116 23.2416 13.1221 23.1546 13.1363C22.7353 13.1544 22.3818 13.4773 22.3372 13.9068L21.6259 20.7554C21.5768 21.2279 21.9271 21.6514 22.3996 21.7005C22.8666 21.749 23.2931 21.4148 23.3493 20.9486L24.1735 14.1111C24.1787 14.0679 24.1806 14.0252 24.1794 13.983C24.1796 13.98 24.1799 13.977 24.1801 13.9741Z" fill="#EABD91" blush:i="0.7"/></g></svg>