<svg viewBox="74.09999999999997 12.679190751445077 98.79999999999995 188.64161849710987" fill="none" xmlns="http://www.w3.org/2000/svg" xmlns:xlink="http://www.w3.org/1999/xlink" xmlns:blush="http://design.blush" overflow="visible" width="98.79999999999995px" height="188.64161849710987px"><g id="Master/Stickers/Pink Flowers" blush:has-customizable-colors="true" blush:viewBox="75.33499999999998 13.714780600461893 96.32999999999994 186.57043879907624" blush:i="0"><g id="Group 27 Copy" blush:i="0.0"><path id="Fill 32" fill-rule="evenodd" clip-rule="evenodd" d="M129.38 121.978C129.47 115.041 128.423 108.127 126.18 101.655C123.957 95.2007 120.726 89.0238 116.114 83.9209C111.549 78.7997 105.87 74.6879 99.6616 71.6849C93.4727 68.6155 86.8035 66.5206 80 65.1627L80.0298 65C86.8846 66.1404 93.6533 68.0279 100.016 70.9346C106.376 73.8246 112.275 77.8734 117.093 83.0261C121.957 88.1257 125.664 94.3873 127.757 101.14C129.776 107.898 130.588 115.064 129.544 122L129.38 121.978Z" fill="#B4A4A1" blush:i="0.0.0"/><path id="Fill 33" fill-rule="evenodd" clip-rule="evenodd" d="M128.384 134C126.417 124.245 125.554 114.307 125.126 104.371C124.743 94.4228 125.259 84.4547 126.308 74.5617C126.86 69.6143 127.58 64.6887 128.484 59.7947C129.424 54.9074 130.577 50.0619 131.937 45.2747C133.368 40.5075 135.041 35.8138 136.973 31.2285C138.977 26.6733 141.261 22.2432 143.856 18L144 18.0868C141.504 22.38 139.329 26.8418 137.44 31.4204C135.619 36.0274 134.061 40.7311 132.745 45.4999C131.473 50.2804 130.411 55.116 129.557 59.9866C128.743 64.8639 128.108 69.7712 127.643 74.6935C126.781 84.5482 126.643 94.4429 126.804 104.328C126.929 114.219 127.536 124.105 128.55 133.972L128.384 134Z" fill="#B4A4A1" blush:i="0.0.1"/><path id="Fill 34" fill-rule="evenodd" clip-rule="evenodd" d="M125.133 121.977C125.936 114.007 125.547 105.942 124.417 98.0423C123.275 90.1339 121.232 82.3636 118.261 74.9789C116.739 71.3016 114.994 67.7223 113.029 64.2743C111.008 60.8596 108.875 57.5115 106.481 54.3445C101.779 47.9456 96.1106 42.3049 90 37.1347L90.0978 37C96.7949 41.4205 102.768 46.998 107.797 53.3337C110.292 56.5206 112.484 59.937 114.459 63.4681C116.371 67.0357 118.048 70.7197 119.494 74.4918C122.356 82.0444 124.253 89.9394 125.239 97.9309C126.158 105.927 126.324 114.025 125.297 122L125.133 121.977Z" fill="#B4A4A1" blush:i="0.0.2"/><path id="Fill 35" fill-rule="evenodd" clip-rule="evenodd" d="M129.301 124C128.704 116.907 129.062 109.771 129.792 102.689C130.592 95.6076 132.132 88.6079 134.258 81.7926C135.302 78.3799 136.536 75.0204 137.982 71.7505C139.414 68.4757 141.046 65.2789 142.981 62.2615C146.787 56.2017 151.813 50.8278 157.907 47L158 47.1395C152.054 51.14 147.268 56.6003 143.703 62.6916C141.864 65.7107 140.33 68.9042 138.992 72.1674C137.643 75.4256 136.505 78.7702 135.555 82.1662C133.625 88.9534 132.475 95.9215 131.466 102.895C130.442 109.874 129.839 116.916 129.47 123.995L129.301 124Z" fill="#B4A4A1" blush:i="0.0.3"/><path id="Fill 36" fill-rule="evenodd" clip-rule="evenodd" d="M127.642 127C126.227 118.48 125.889 109.811 126.029 101.169C126.242 92.5199 127.32 83.8894 129.187 75.4407C130.094 71.2122 131.265 67.037 132.701 62.9569C134.126 58.8768 135.821 54.88 137.92 51.1017C140.031 47.3417 142.395 43.6985 145.273 40.4887C148.13 37.2706 151.364 34.4061 154.908 32L155 32.1384C151.529 34.6278 148.396 37.5558 145.649 40.8172C142.878 44.067 140.634 47.7319 138.647 51.5002C136.644 55.2685 135.044 59.2503 133.717 63.3104C132.373 67.3672 131.294 71.5173 130.48 75.7175C128.804 84.1179 128.102 92.6766 127.678 101.229C127.239 109.791 127.333 118.385 127.807 126.978L127.642 127Z" fill="#B4A4A1" blush:i="0.0.4"/><path id="Fill 37" fill-rule="evenodd" clip-rule="evenodd" d="M80 63.7536C80 63.7536 79.3463 66 78.947 66C78.546 66 76.3978 64.7228 76.2715 64.4163C76.1451 64.1098 76 62.4733 76 62.0952C76 61.7156 76.1669 62.5993 77.2402 62.5137C78.3151 62.4297 80 63.7536 80 63.7536" fill="#ECC9C0" blush:i="0.0.5"/><path id="Fill 38" fill-rule="evenodd" clip-rule="evenodd" d="M84.1769 63.1678C84.1769 63.1678 83.7788 67.4298 84.1769 67.6232C84.5751 67.8131 85.5961 66.8088 86.2412 67.6232C86.8882 68.4377 87.4816 67.7457 87.5443 67.2879C87.6088 66.8319 88.4308 67.1211 88.6778 66.8088C88.9285 66.4965 88.3313 66.2818 88.5543 65.8985C88.7792 65.5153 89.1275 65.0717 88.9524 64.8375C88.7792 64.605 88.4806 64.4134 88.405 63.9822C88.3313 63.5511 86.7149 63.3594 86.2154 63.4073C85.7196 63.4552 85.5445 62.6656 84.1769 63.1678" fill="#ECC9C0" blush:i="0.0.6"/><path id="Fill 39" fill-rule="evenodd" clip-rule="evenodd" d="M93.8528 61.8756C93.8528 61.8756 93.6768 61.4281 93.3672 61.4066C93.0608 61.3835 92.9957 60.9393 92.7969 61.007C92.5981 61.0731 92.3129 61.8079 92.1369 61.8756C91.9609 61.9416 92.0049 63.6804 92.0049 64.8164C92.0049 65.9541 92.3569 65.8419 93.0608 65.8419C93.7632 65.8419 93.83 65.6024 94.4248 65.8435C95.018 66.0879 95.7431 66.0648 96.3151 65.6404C96.8871 65.2177 97.0191 64.1658 96.9979 63.4987C96.9751 62.8333 96.2499 64.5044 96.2711 63.3237C96.2939 62.1414 96.1391 61.831 95.8979 61.7633C95.6551 61.6972 95.018 61.362 94.9528 61.362C94.886 61.362 94.8208 62.2983 94.666 62.2322C94.5112 62.1645 93.8528 61.8756 93.8528 61.8756" fill="#ECC9C0" blush:i="0.0.7"/><path id="Fill 40" fill-rule="evenodd" clip-rule="evenodd" d="M97.6625 67.0259C97.0694 67.2824 96.9932 67.5629 97.0191 68.1768C97.0481 68.7891 97.0968 70.6823 97.0145 71.2433C96.9337 71.8059 97.2066 72.0112 97.4353 72.2147C97.6625 72.4182 97.5253 72.6747 97.8211 72.88C98.1185 73.0835 98.46 72.726 98.826 73.6205C99.1889 74.5149 99.6219 73.5948 100.261 73.2374C100.898 72.88 102.22 72.3173 101.969 71.3202C101.718 70.3249 100.717 71.2689 100.717 69.9914C100.717 68.7121 100.102 68.3308 99.6463 68.4077C99.1889 68.4847 98.2557 66.771 97.6625 67.0259" fill="#ECC9C0" blush:i="0.0.8"/><path id="Fill 41" fill-rule="evenodd" clip-rule="evenodd" d="M90.535 71C90.535 71 91.1649 71.1973 91.1649 71.5454C91.1649 71.8953 91.0478 71.9384 91.6563 71.8737C92.2648 71.8074 92.3553 71.4808 92.7545 71.6764C93.1519 71.8737 94.0159 72.2451 94.11 72.6164C94.2022 72.9861 94.0798 73.8383 94.5375 73.7952C94.997 73.7504 95.068 73.8814 94.9491 74.6026C94.8338 75.3221 94.2253 75.1049 93.8758 75.1712C93.5263 75.2359 92.6143 75.8908 92.1247 75.1712C92.1247 75.1712 92.0768 76.0433 91.5161 75.9554C90.9537 75.8692 90.5102 76.3268 90.535 75.4547C90.5581 74.581 89.3197 71.0879 90.535 71" fill="#ECC9C0" blush:i="0.0.9"/><path id="Fill 42" fill-rule="evenodd" clip-rule="evenodd" d="M102.019 78.5465C102.019 78.5465 101.912 78.0258 102.212 78.0009C102.511 77.976 102.875 78.4719 102.875 78.5465C102.875 78.6211 102.939 78.9428 103.002 78.9428C103.067 78.9428 102.982 78.4221 103.196 78.4719C103.41 78.5216 103.88 78.7936 104.116 78.6709C104.352 78.5465 104.01 79.0921 104.588 78.9428C105.165 78.7936 104.994 80.8532 104.908 80.9776C104.823 81.1003 104.629 81.2014 104.545 81.5231C104.459 81.8449 103.782 82.2163 103.5 81.8449C103.217 81.4734 102.832 81.5231 102.768 81.5978C102.705 81.6724 102.406 81.5231 102.406 80.9278C102.406 80.3325 101.982 80.1335 102.001 79.8864C102.019 79.6377 102.189 78.8682 102.019 78.5465" fill="#ECC9C0" blush:i="0.0.10"/><path id="Fill 43" fill-rule="evenodd" clip-rule="evenodd" d="M108.66 76.1917C108.66 76.1917 107 75.629 107 76.4319C107 77.2331 107.44 77.4595 107.129 78.1115C106.818 78.7651 107.44 79.1408 107.44 79.6178C107.44 80.093 107.419 80.244 107.829 80.244C108.241 80.244 108.782 80.4207 108.809 80.5202C108.836 80.6214 109.016 80.069 109.016 79.7687C109.016 79.4668 109.456 81.1979 109.584 81.1979C109.714 81.1979 111.111 80.8976 111.111 81.1979C111.111 81.4998 111.447 81.7503 111.783 81.7503C112.119 81.7503 112.713 82.4022 112.843 81.5993C112.972 80.7981 112.972 80.5957 113.361 80.5957C113.748 80.5957 114.084 79.9455 113.981 79.6933C113.877 79.4428 113.232 79.4359 113.258 79.0001C113.283 78.5644 113.127 78.4391 112.507 78.4391C111.886 78.4391 111.111 77.9896 110.5 77.5316C109.888 77.0752 108.66 76.1917 108.66 76.1917" fill="#ECC9C0" blush:i="0.0.11"/><path id="Fill 44" fill-rule="evenodd" clip-rule="evenodd" d="M111.838 72.2174C111.838 72.2174 111.101 71.8667 110.654 72.0562C110.208 72.2456 110 72.4069 110 72.8641C110 73.323 110.544 75.3429 110.544 75.5309C110.544 75.7188 110.544 75.8284 110.919 75.8284C111.295 75.8284 111.475 75.963 111.526 76.2042C111.579 76.4469 112.794 76.2746 112.794 76.5769C112.794 76.8791 113.674 77.0936 113.934 76.9589C114.191 76.8243 113.648 73.9963 113.13 73.323C113.13 73.323 113.13 72.4335 112.794 72.4069C112.457 72.3803 111.838 72.2174 111.838 72.2174" fill="#ECC9C0" blush:i="0.0.12"/><path id="Fill 45" fill-rule="evenodd" clip-rule="evenodd" d="M116.216 63.0018C116.216 63.0018 115.049 63.0306 114.924 63.0018C114.802 62.9713 114.187 63.3205 114.124 64.4309C114.064 65.5378 114.094 67.7263 114.003 68.2518C113.91 68.7756 116.216 68.6298 116.216 68.6298C116.216 68.6298 116.587 69.0384 116.587 69.2706C116.587 69.5045 117.386 70.2046 118.094 69.9419C118.8 69.6791 118.369 68.7163 118.986 68.979C119.601 69.2435 120 69.0384 120 68.0467C120 67.055 119.785 65.0191 118.77 64.6953C117.754 64.3732 117.54 64.4885 117.54 63.7307C117.54 62.9713 116.279 63.5544 116.216 63.0018" fill="#ECC9C0" blush:i="0.0.13"/><path id="Fill 46" fill-rule="evenodd" clip-rule="evenodd" d="M119.191 73.2292C119.191 73.2292 117.649 72.8148 117.411 73.1005C117.171 73.3862 117.323 73.9576 117.106 74.4515C116.89 74.947 117.064 77.4444 117.106 77.8077C117.149 78.1728 118.191 77.9647 118.191 77.6261C118.191 77.2875 118.279 76.4938 118.734 76.7989C119.191 77.104 119.071 76.8307 119.295 76.2204C119.522 75.612 119.906 76.1957 119.994 75.3897C120.08 74.5837 119.191 73.2292 119.191 73.2292" fill="#ECC9C0" blush:i="0.0.14"/><path id="Fill 47" fill-rule="evenodd" clip-rule="evenodd" d="M115.651 87.3983C115.651 87.3983 115.483 87.4246 115.47 86.9589C115.456 86.4947 114.98 86.0692 114.616 86.0553C114.252 86.0429 114 85.8355 114 86.3137C114 86.7902 114.111 88.6114 114.196 88.9472C114.28 89.283 114.643 89.3604 114.643 89.6188C114.643 89.8772 114.881 90.018 115.331 89.9932C115.777 89.9669 116.953 90.2114 116.995 89.1406C117.037 88.0699 116.801 88.0699 116.45 87.7991C116.101 87.5268 116.24 87.1399 115.987 87.126C115.735 87.1136 115.651 87.3983 115.651 87.3983" fill="#ECC9C0" blush:i="0.0.15"/><path id="Fill 48" fill-rule="evenodd" clip-rule="evenodd" d="M110.214 59.6378C110.214 59.6378 109.73 59.7423 109.712 59.2354C109.695 58.7286 109.802 58.6066 109.265 58.4672C108.728 58.3263 107.245 57.9239 107.1 58.0126C106.958 58.0982 106.976 61.3864 107.1 61.4403C107.227 61.4926 107.799 61.9123 107.799 62.0691C107.799 62.2259 108.591 61.9804 108.57 62.2972C108.55 62.6108 108.853 63.048 109.033 62.9957C109.211 62.9434 109.337 62.8912 109.427 62.9244C109.516 62.9609 110.194 62.9767 110.214 62.5411C110.232 62.104 110.428 61.9456 110.499 62.0865C110.572 62.2259 110.786 62.4889 110.964 62.2608C111.142 62.0343 110.624 59.7581 110.214 59.6378" fill="#ECC9C0" blush:i="0.0.16"/><path id="Fill 49" fill-rule="evenodd" clip-rule="evenodd" d="M103 49.8927V50.3726C103 50.5182 102.878 50.9666 102.742 50.9964C102.606 51.0261 101.888 50.8656 101.684 50.778C101.483 50.6903 101.577 50.1542 101.523 50.0383C101.469 49.9225 99.327 50.9815 98.4064 50.3577C97.4858 49.7322 98.3338 44.899 98.9393 45.0016C99.5447 45.1009 99.7054 45.3904 100.082 45.3904C100.082 45.3904 100.433 45.3143 100.433 45.6072C100.433 45.9001 100.289 46.4941 100.916 46.4825C101.545 46.4709 101.652 46.3551 101.699 46.686C101.746 47.0153 102.149 50.1475 102.481 50.1475C102.812 50.1475 102.547 49.6379 103 49.8927" fill="#ECC9C0" blush:i="0.0.17"/><path id="Fill 50" fill-rule="evenodd" clip-rule="evenodd" d="M107.352 49C107.352 49 106.466 49.1287 106.427 49.4209C106.387 49.7116 106.111 52.8724 106.032 53.1647C105.954 53.457 106.014 53.6015 106.269 53.6015C106.526 53.6015 107.236 53.6746 107.452 53.511C107.67 53.3458 108.004 53.2552 108.28 53.53C108.556 53.8032 108.693 54.1876 109.66 53.8954C109.66 53.8954 110.052 52.0624 109.994 51.7463C109.936 51.4286 109.442 51.813 109.423 51.3746C109.403 50.9362 109.363 49.4384 109.226 49.2938C109.087 49.1461 107.352 49 107.352 49" fill="#ECC9C0" blush:i="0.0.18"/><path id="Fill 51" fill-rule="evenodd" clip-rule="evenodd" d="M110.447 38.6763C110.447 38.6763 109.749 38.0422 109.575 38.6763C109.401 39.3103 108.441 43.4729 109.466 43.9117C110.49 44.3505 110.447 43.0108 110.447 43.0108C110.447 43.0108 111.801 43.3278 111.908 43.2544C112.017 43.1809 112.301 42.28 112.585 42.28C112.869 42.28 113.415 42.6203 113.588 41.963C113.763 41.3056 114.177 39.7957 113.916 39.6507C113.654 39.5038 113.611 39.7707 113.566 39.1868C113.523 38.6028 112.869 38.4542 112.411 38.3951C111.952 38.336 112.476 37.3115 111.952 37.2631C111.429 37.2147 111.517 36.9228 111.255 37.0195C110.992 37.118 111.015 37.3365 110.731 37.3365C110.447 37.3365 110.447 38.6763 110.447 38.6763" fill="#ECC9C0" blush:i="0.0.19"/><path id="Fill 52" fill-rule="evenodd" clip-rule="evenodd" d="M113.321 52C113.321 52 116.426 54.5528 116.756 55.2779C117.087 56.003 117.076 58.8723 116.756 58.9888C116.435 59.1053 113.038 58.288 112.841 57.7976C112.642 57.3072 112.783 57.1333 112.189 57.1333C111.593 57.1333 112.528 52.4939 113.321 52" fill="#ECC9C0" blush:i="0.0.20"/><path id="Fill 53" fill-rule="evenodd" clip-rule="evenodd" d="M127.778 47.4155C127.778 47.4155 127.334 47 127.054 47C126.777 47 124.708 51.0227 125.035 51.6044C125.361 52.1846 126.079 51.9553 126.079 51.9553C126.079 51.9553 126.623 51.2105 126.754 51.5829C126.885 51.9553 128.126 51.8938 128.215 51.7476C128.3 51.6044 128.606 50.8781 128.801 50.9181C128.997 50.9612 129.171 50.1517 128.691 49.7162C128.215 49.2807 129.127 49.1776 128.778 48.7621C128.431 48.3481 128.169 48.3481 128.41 48.1203C128.649 47.8926 128.234 47.394 127.778 47.4155" fill="#ECC9C0" blush:i="0.0.21"/><path id="Fill 54" fill-rule="evenodd" clip-rule="evenodd" d="M127.62 66.0586C127.62 66.0586 127.283 65.4403 127.074 65.2342C126.867 65.0264 126.479 65 126.296 65C126.114 65 125.855 65.4139 125.413 66.0586C124.97 66.705 125.569 66.6786 125.126 67.3498C124.685 68.0193 125.543 68.2254 125.543 68.4084C125.543 68.5881 125.309 69.8529 125.491 69.8529C125.672 69.8529 126.945 70.2849 127.023 69.6682C127.101 69.0515 128.295 68.7943 128.451 68.4084C128.607 68.0193 129.283 66.3686 128.866 66.0075C128.451 65.6464 127.62 66.0586 127.62 66.0586" fill="#ECC9C0" blush:i="0.0.22"/><path id="Fill 55" fill-rule="evenodd" clip-rule="evenodd" d="M128.574 56.5009C128.574 56.5009 127.325 59.1204 127.211 59.4837C127.098 59.8469 127.127 60.2352 127.014 60.4951C126.899 60.7551 127.524 60.6768 127.794 60.4951C128.066 60.3135 128.578 61.4033 129.062 60.8334C129.544 60.2618 129.372 59.8469 129.999 60.0802C130.623 60.3135 131.648 61.0917 131.648 60.4185C131.648 59.7419 131.99 59.0954 131.99 58.3689C131.99 57.6424 132.074 57.0458 131.761 56.6809C131.449 56.3193 130.231 55.941 129.8 56.0077C129.369 56.0743 129.284 56.7076 128.574 56.5009" fill="#ECC9C0" blush:i="0.0.23"/><path id="Fill 56" fill-rule="evenodd" clip-rule="evenodd" d="M133.235 43C133.235 43 133.691 42.1522 134.414 42.1522C135.139 42.1522 135.411 42.5753 135.579 41.891C135.75 41.205 136.055 42.8365 136.533 41.4662C137.009 40.096 137.212 38.9869 136.701 38.692C136.192 38.4003 135.241 37.8442 134.831 38.0413C134.424 38.2369 134.457 38.6039 133.813 38.7305C133.167 38.8571 132.724 39.5094 132.452 40.2594C132.182 41.0095 131.945 41.7611 132.011 42.0865C132.08 42.4134 133.235 43 133.235 43" fill="#ECC9C0" blush:i="0.0.24"/><path id="Fill 57" fill-rule="evenodd" clip-rule="evenodd" d="M130 30.1691C130 30.1691 132.306 27.2064 132.489 27.1874C132.673 27.1684 133.04 27.4814 133.264 27.1874C133.489 26.8916 133.734 26.9885 133.734 27.1857C133.734 27.3846 134.135 27.5593 134.25 27.4226C134.367 27.286 134.734 27.2272 135.162 27.4624C135.59 27.6976 135.468 27.9709 135.468 28.4033C135.468 28.8357 136 28.4033 136 29.1297C136 29.8561 135.509 29.6589 135.489 29.8561C135.468 30.0533 136.245 30.8177 135.55 31.1913C134.856 31.5632 134.734 31.5822 134.45 31.4853C134.162 31.3867 134.162 31.622 134 31.8589C133.836 32.0924 133.306 31.9955 133.121 31.8589C132.939 31.7188 132.176 30.5237 131.649 30.6396C131.122 30.7589 130.673 31.7188 130 30.1691" fill="#ECC9C0" blush:i="0.0.25"/><path id="Fill 58" fill-rule="evenodd" clip-rule="evenodd" d="M137.545 26.5394C137.545 26.5394 136.979 26.5824 137.001 25.9011C137.02 25.2197 138.532 24.4317 138.775 23.2617C139.016 22.09 140.023 21.8129 140.145 22.1106C140.268 22.41 141.758 24.2407 141.96 24.4747C142.162 24.7087 141.537 25.815 141.296 25.9871C141.053 26.1557 141.477 26.4327 141.154 26.7304C140.831 27.0298 140.489 26.8164 140.489 26.9661C140.489 27.1141 139.278 28.4561 138.795 27.8384C138.311 27.2207 137.545 26.5394 137.545 26.5394" fill="#ECC9C0" blush:i="0.0.26"/><path id="Fill 59" fill-rule="evenodd" clip-rule="evenodd" d="M141 17.1766C141 17.1766 141.25 18.6875 141.424 18.7178C141.594 18.745 144.187 19.6018 144.502 19.8012C144.818 20.0006 145.251 20.2846 145.394 19.3162C145.538 18.3461 146.142 17.4063 145.969 17.1766C145.797 16.9484 145.222 17.1479 145.423 16.5783C145.625 16.0087 145.712 15.98 145.394 15.6098C145.077 15.238 144.53 14.9253 144.53 14.2696C144.53 13.6138 143.324 14.2967 143.237 14.8104C143.15 15.3242 141 17.1766 141 17.1766" fill="#ECC9C0" blush:i="0.0.27"/><path id="Fill 60" fill-rule="evenodd" clip-rule="evenodd" d="M136 57.4547C136 57.4547 136.484 52.952 138.349 53.0004C140.21 53.0471 138.83 53.6255 140.277 53.4805C141.725 53.3371 140.606 54.349 140.277 54.5657C139.949 54.7808 140.474 56.2278 139.686 56.6595C138.895 57.0929 138.696 56.2278 138.499 57.4547C138.305 58.6816 138.704 57.4547 137.353 57.4547H136Z" fill="#ECC9C0" blush:i="0.0.28"/><path id="Fill 61" fill-rule="evenodd" clip-rule="evenodd" d="M137 47.7645C137 47.7645 138.375 48.1332 138.66 47.948C138.945 47.7645 137.754 47.6191 139.182 47.5325C140.611 47.4477 141.318 48.4084 141.461 47.5325C141.602 46.6566 142.312 43.9822 141.84 43.6152C141.365 43.2465 140.7 43.6169 140.748 43.0405C140.796 42.4623 140.378 42.0278 139.722 42.0001C139.065 41.9707 137 47.7645 137 47.7645" fill="#ECC9C0" blush:i="0.0.29"/><path id="Fill 62" fill-rule="evenodd" clip-rule="evenodd" d="M144.195 39.6085V38.7764C144.195 37.9443 145.37 35.6642 145.447 35.1815C145.526 34.697 145.55 35.3148 146.256 35.5039C146.959 35.6912 146.933 35.9848 146.933 36.1739C146.933 36.3612 147.795 35.5039 147.926 35.7434C148.055 35.9848 147.898 36.5215 148.369 36.6026C148.836 36.6836 149.059 37.5787 148.987 38.3658C148.915 39.1511 148.42 39.4212 148.498 40.2515C148.577 41.0836 146.229 40.2515 146.229 40.2515C146.229 40.2515 146.203 40.763 145.916 40.763C145.629 40.763 143.831 41.433 144.013 40.5199L144.195 39.6085Z" fill="#ECC9C0" blush:i="0.0.30"/><path id="Fill 63" fill-rule="evenodd" clip-rule="evenodd" d="M149.1 43.0733C149.1 43.0733 149.181 42.4028 149.27 42.4028C149.356 42.4028 149.531 42.0762 149.004 42.0194C148.479 41.9626 148.237 42.0005 148.237 42.5464C148.237 43.0938 147.778 44.1461 147.471 44.8355C147.164 45.5265 146.878 46.7144 147.054 46.7523C147.229 46.7902 148.347 47 148.347 47C148.347 47 148.721 46.4589 149.004 46.4321C149.289 46.4068 150.803 46.6308 151.199 46.4321C151.594 46.2349 152.338 43.7438 152.624 43.4961C152.909 43.2453 153.304 42.671 152.624 42.6521C151.944 42.6331 151.901 42.824 151.506 42.824C151.11 42.824 151.199 42.9581 150.957 42.9581C150.716 42.9581 150.388 42.7862 150.234 42.8619C150.081 42.9392 149.479 43.5702 149.1 43.0733" fill="#ECC9C0" blush:i="0.0.31"/><path id="Fill 64" fill-rule="evenodd" clip-rule="evenodd" d="M152 33.1046C152 33.1046 152.835 30.4014 153.112 29.9571C153.391 29.5127 153.704 29.3658 154.018 29.1817C154.331 28.9994 155.236 28.8861 156.244 29.1817C157.252 29.4773 158.339 30.6068 157.9 31.5645C157.461 32.5222 156.8 31.8052 156.662 32.2832C156.523 32.763 156.278 34.0269 155.756 33.857C155.236 33.6853 155.375 33.4428 154.401 33.8729C153.425 34.3013 153.836 33.5029 153.335 33.5773C152.835 33.6516 152.139 34.1987 152 33.1046" fill="#ECC9C0" blush:i="0.0.32"/><path id="Fill 65" fill-rule="evenodd" clip-rule="evenodd" d="M157 47.1523L157.866 43.2435C157.866 43.2435 158.764 42.4571 158.834 42.1418C158.903 41.8265 160.392 42.1024 160.565 42.3371C160.738 42.5735 160.565 41.7871 161.915 42.1812C163.264 42.5735 164.096 43.0859 163.991 43.2847C163.887 43.48 162.919 45.0564 162.919 45.0564L162.123 44.8916L160.5 46.9875L158.265 46.6579C158.265 46.6579 158.385 48.0623 158.004 47.9978C157.623 47.9334 157 47.1523 157 47.1523" fill="#ECC9C0" blush:i="0.0.33"/><path id="Fill 66" fill-rule="evenodd" clip-rule="evenodd" d="M166 42.087C166 42.087 166.846 41.0028 166.846 40.42C166.846 39.8391 166.913 39.7123 167.15 39.7123C167.385 39.7123 167.069 39.7028 167.691 39.4209C168.314 39.1389 169.066 38.7756 169.395 39.1806C169.722 39.5836 171.314 39.5023 170.945 40.068C170.574 40.63 170.574 41.2355 169.787 41.6783C169.001 42.123 169.035 42.7588 167.854 42.6433C166.675 42.5241 167.421 43.826 166 42.087" fill="#ECC9C0" blush:i="0.0.34"/><path id="Fill 67" fill-rule="evenodd" clip-rule="evenodd" d="M147 54.7841C147 54.7841 147.985 53.1948 148.203 51.9722C148.421 50.7513 148.855 49.8955 149.336 50.0178C149.814 50.1401 149.99 50.0765 150.468 50.0064C150.949 49.9363 150.731 50.4677 151.383 50.3846C152.037 50.3031 153.518 51.0773 153.518 51.0773C153.518 51.0773 153.04 52.7579 153.518 52.3455C153.999 51.9331 153.954 51.361 153.999 51.9331C154.041 52.5036 152.909 53.6023 152.255 53.2763C151.601 52.9503 151.95 54.458 151.253 54.3765L150.555 54.295C150.555 54.295 150.763 55.8713 149.896 55.5518C149.031 55.2307 147.19 57.1867 147 54.7841" fill="#ECC9C0" blush:i="0.0.35"/><path id="Fill 68" fill-rule="evenodd" clip-rule="evenodd" d="M145 64.7795C145 64.7795 143.795 65.0065 143.795 64.177C143.795 63.3459 143.577 63.2069 143.021 63.04C142.465 62.8732 140.795 63.2872 140.455 63.1992C140.115 63.1096 139.804 64.177 139.804 64.177C139.804 64.177 139.527 64.0889 139.372 64.384C139.218 64.6821 139 67.9107 139 67.9107C139 67.9107 140.612 67.4674 140.966 67.9107C141.321 68.3556 141.846 66.9931 141.846 66.9931C141.846 66.9931 142.031 67.3484 142.404 67.0518C142.774 66.7552 143.34 65.0668 143.34 65.0668C143.34 65.0668 144.599 66.3891 145 64.7795" fill="#ECC9C0" blush:i="0.0.36"/><path id="Fill 69" fill-rule="evenodd" clip-rule="evenodd" d="M133.991 73.0853L134.21 73.9045C134.21 73.9045 135.007 73.7879 135.107 74.021C135.204 74.2558 135.28 73.4366 135.502 73.4366C135.726 73.4366 136.147 73.7596 136.345 73.5748C136.542 73.39 136.32 72.8288 137.089 73.0853C137.856 73.3433 137.387 72.9071 138.203 73.0187C139.021 73.1319 139.12 73.8012 138.896 74.0643C138.674 74.3257 138.649 75.5196 138.403 75.9159C138.154 76.3138 138.027 76.885 137.57 76.437C137.114 75.9858 137.138 77.1097 136.643 77.1331C136.147 77.1564 135.959 77.1331 135.959 77.1331C135.959 77.1331 136.371 77.9756 135.899 77.9989C135.428 78.0222 135.379 77.6709 134.858 77.6709C134.338 77.6709 133 77.7175 133 77.3445C133 76.9699 133.397 73.5531 133.372 73.2501C133.347 72.9454 133.991 73.0853 133.991 73.0853" fill="#ECC9C0" blush:i="0.0.37"/><path id="Fill 70" fill-rule="evenodd" clip-rule="evenodd" d="M135.398 82.0676C135.398 82.0676 135 82.1919 135 82.6641C135 83.1347 135.454 84.0557 135.398 84.2793C135.343 84.503 135.351 85 135.403 85C135.454 85 135.681 84.4781 135.823 84.7018C135.965 84.9254 136.677 85.0093 136.677 84.8059C136.677 84.6024 137.186 83.4344 137.215 83.7575C137.243 84.0805 137.896 84.2793 137.981 83.8817C138.067 83.4841 137.669 83.3847 138.067 83.4841C138.466 83.5835 139.6 83.6332 139.6 83.1347C139.6 82.6392 139.998 82.515 139.998 82.515C139.998 82.515 140.063 80.7816 139.513 80.3949C138.963 80.0097 138.743 79.9523 138.677 80.0299C138.612 80.106 138.368 80.4337 138.193 80.4151C138.017 80.3949 137.664 80.28 137.334 80.4726C137.004 80.6652 136.871 81.2429 136.564 81.2429C136.255 81.2429 136.743 82.4482 135.398 82.0676" fill="#ECC9C0" blush:i="0.0.38"/><path id="Fill 71" fill-rule="evenodd" clip-rule="evenodd" d="M132.132 89.8609C131.498 89.8837 131.129 90.1801 131.129 90.9357C131.129 91.6897 131.441 92.258 131.129 93.0396C130.815 93.8213 131.109 95.1696 131.63 94.9824C132.151 94.7918 133.232 94.2528 133.232 94.2528C133.232 94.2528 133.628 94.6029 133.913 94.6029C134.197 94.6029 134.484 93.5624 134.837 93.5591C135.19 93.5526 135.758 93.5787 135.93 92.7433C136.099 91.9062 136.868 93.4712 136.981 92.0675C137.096 90.6654 136.669 89.5597 136.384 89.5059C136.099 89.4522 135.647 90.0189 135.163 89.5059C134.679 88.993 133.657 88.8594 133.599 89.1542C133.542 89.4522 133.685 90.0189 133.458 90.0449C133.232 90.0726 132.132 89.8609 132.132 89.8609" fill="#ECC9C0" blush:i="0.0.39"/><path id="Fill 72" fill-rule="evenodd" clip-rule="evenodd" d="M88.9927 34.5456C88.9927 34.5456 87.7695 34.812 87.6451 34.3933C87.5224 33.9745 87.0317 33.6849 87.0317 34.63C87.0317 35.5718 87.3588 35.8382 87.0317 37.169C86.7064 38.4997 88.9927 38.3474 88.9927 38.3474C88.9927 38.3474 89.3998 39.0691 90.1376 38.9946C90.8718 38.9185 90.6674 38.3855 91.1154 38.4997C91.5652 38.6139 92.8737 39.1849 92.9946 38.1571C93.1173 37.1309 91.1154 38.0777 91.1154 36.9571C91.1154 35.8382 91.3199 35.8382 90.5038 35.4195C89.6878 35.0007 89.3198 35.7621 88.9927 34.5456" fill="#ECC9C0" blush:i="0.0.40"/><path id="Fill 73" fill-rule="evenodd" clip-rule="evenodd" d="M137.425 133.288C137.425 133.288 135.692 131.548 135.205 130.891C133.402 128.449 133.19 119 133.19 119H124.086L123.908 127.653C123.808 129.016 123.723 130.063 122.842 131.106L120.915 133.391C115.024 139.299 111 151.08 111 164.671C111 184.183 119.281 200 129.499 200C139.716 200 148 184.183 148 164.671C148 151.08 144.264 140.409 137.425 133.288" fill="#FFBCC3" blush:i="0.0.41"/></g></g></svg>