<svg viewBox="71.01249999999999 37.41907514450867 108.06250000000003 139.1618497109826" fill="none" xmlns="http://www.w3.org/2000/svg" xmlns:xlink="http://www.w3.org/1999/xlink" xmlns:blush="http://design.blush" overflow="visible" width="108.06250000000003px" height="139.1618497109826px"><g id="Master/Stickers/Single Leaf" blush:has-customizable-colors="true" blush:viewBox="70.39499999999998 39.66166281755196 107.44499999999996 135.91224018475748" blush:i="0"><g id="Group 45 Copy" blush:i="0.0"><path id="Fill 89" fill-rule="evenodd" clip-rule="evenodd" d="M154.775 167H154.757C154.116 166.99 153.605 166.472 153.615 165.843C154.848 89.9825 137.542 73.1329 137.367 72.9724C136.902 72.5443 136.875 71.8247 137.309 71.3658C137.742 70.9058 138.471 70.875 138.941 71.2997C139.687 71.9704 157.191 88.6355 155.936 165.88C155.925 166.502 155.408 167 154.775 167" fill="#316639" blush:i="0.0.0"/><path id="Fill 90" fill-rule="evenodd" clip-rule="evenodd" d="M135.181 90.2817C132.557 90.2817 130.209 92.0534 129.474 94.5884L116.48 159.747C115.842 162.944 116.654 166.225 118.709 168.748C120.762 171.271 123.799 172.718 127.038 172.718H163.957C167.336 172.718 170.453 171.168 172.509 168.466C174.563 165.764 175.235 162.33 174.352 159.046L156.831 93.9404C155.899 91.7157 153.757 90.2817 151.353 90.2817H135.181ZM163.957 175H127.038C123.115 175 119.44 173.249 116.954 170.195C114.469 167.14 113.485 163.168 114.257 159.296L127.274 94.0442C128.313 90.4471 131.556 88 135.181 88H151.353C154.705 88 157.688 90.0182 158.955 93.1407L159 93.273L176.538 158.45C177.61 162.426 176.796 166.582 174.31 169.852C171.822 173.123 168.048 175 163.957 175V175Z" fill="#A0A0A0" blush:i="0.0.1"/><path id="Fill 91" fill-rule="evenodd" clip-rule="evenodd" d="M136.694 91.1281C134.284 91.1281 132.125 92.8936 131.444 95.4239L120.339 155.36C119.723 158.677 120.58 162.01 122.687 164.503C124.522 166.676 127.028 167.872 129.741 167.872H161.264C164.052 167.872 166.694 166.557 168.516 164.263C170.61 161.624 171.359 158.043 170.52 154.683L155.542 94.7719C154.714 92.5822 152.727 91.1281 150.502 91.1281H136.694ZM161.264 169H129.741C126.683 169 123.866 167.66 121.809 165.226C119.483 162.475 118.538 158.804 119.213 155.157L130.329 95.1769C131.152 92.1107 133.766 90 136.694 90H150.502C153.211 90 155.617 91.7429 156.633 94.4413L171.63 154.412C172.553 158.107 171.726 162.05 169.415 164.959C167.377 167.528 164.405 169 161.264 169V169Z" fill="#A0A0A0" blush:i="0.0.2"/><path id="Fill 92" fill-rule="evenodd" clip-rule="evenodd" d="M124.263 58.2328C124.263 58.2328 125.935 60.758 125.935 65.1767C125.935 69.5966 128.326 70.6621 130.558 72.5749C132.79 74.4888 131.992 79.0646 126.413 79.381C126.413 79.381 139.805 79.8544 139.645 68.8058C139.645 68.8058 145.067 58.391 126.253 56.4974C126.253 56.4974 128.644 55.076 134.543 56.4974C140.443 57.9176 142.454 52.552 145.831 54.2874C149.211 56.024 151.921 60.1275 151.921 60.1275C151.921 60.1275 153.109 49.3953 146.298 45.7651C139.485 42.1361 142.196 46.713 136.457 44.9765C130.717 43.2399 126.891 49.5523 126.572 53.0254C126.253 56.4974 124.664 53.4988 124.263 50.3421C123.861 47.1864 124.163 40.2414 119.947 42.9247C119.947 42.9247 116.215 37.7286 109.831 41.1882C103.136 44.8183 91.3371 39.6109 88.9471 43.8715C86.5547 48.1332 90.3807 42.9247 98.1934 45.7651C106.005 48.6055 100.585 50.4991 107.6 50.6573C114.614 50.8155 117.165 52.709 117.165 52.709C117.165 52.709 114.614 53.0254 109.991 54.4445C105.367 55.8658 105.687 50.8155 97.714 52.552C89.7438 54.2874 86.0765 60.9161 79.6996 60.4427C79.6996 60.4427 84.482 64.387 94.5261 63.125C104.57 61.8629 101.221 60.2846 109.353 61.3895C117.485 62.4934 118.76 61.3895 118.76 61.3895C118.76 61.3895 115.571 65.6501 109.194 65.1767C102.817 64.7045 102.031 63.8017 95.1767 67.4319C88.3205 71.0609 87.6699 64.387 81.1343 68.0171C74.5965 71.6473 74.7369 72.7127 71 72.5749C71 72.5749 87.1916 75.1193 91.8154 74.3306C96.4391 73.5409 98.3532 75.5927 102.498 74.4888C106.642 73.3827 102.498 71.8055 107.759 71.6473C113.02 71.4891 113.976 70.3853 113.976 70.3853C113.976 70.3853 109.672 71.6473 107.919 73.8572C106.165 76.0661 102.178 76.8547 97.714 76.2242C93.2501 75.5927 81.931 80.4249 84.1635 91.2645C86.3949 102.106 92.9316 95.0043 93.2501 104C93.2501 104 96.2793 98.4763 101.86 98.4763C107.441 98.4763 110.618 95.3195 111.5 90.1121C112.383 84.9036 115.419 92.0057 115.256 80.1696C115.256 80.1696 119.557 84.115 121.15 81.905C122.746 79.6962 122.905 80.4848 122.905 73.8572C122.905 67.2285 124.263 58.2328 124.263 58.2328" fill="#316639" blush:i="0.0.3"/><path id="Fill 93" fill-rule="evenodd" clip-rule="evenodd" d="M118 72.0684C116.072 74.6478 113.777 76.9559 111.224 78.9642C109.932 79.9467 108.579 80.8631 107.142 81.6461C105.727 82.4326 104.127 83.047 102.7 83.651C99.8058 84.9345 97.2898 86.9211 95.3837 89.3512C93.4615 91.7607 92.2219 94.7903 92.4114 97.9795L92.2982 98C91.8581 96.4362 91.9343 94.739 92.3363 93.1422C92.7406 91.5385 93.5077 90.0374 94.4538 88.6741C96.3945 85.9489 99.2813 84.0238 102.334 82.8133C103.904 82.2138 105.35 81.7202 106.79 80.9919C108.216 80.2795 109.571 79.4292 110.876 78.5083C113.477 76.6549 115.869 74.4711 117.906 72L118 72.0684Z" fill="#659654" blush:i="0.0.4"/><path id="Fill 94" fill-rule="evenodd" clip-rule="evenodd" d="M77 70.5843C80.5208 69.4882 84.3058 68.8445 88.0758 69.3756C89.9235 69.6868 91.723 70.0724 93.55 70.2115C95.3679 70.3687 97.1754 70.1945 98.868 69.6093C99.7155 69.3235 100.522 68.9539 101.371 68.5737C102.215 68.2125 103.06 67.7908 104.093 67.5933C105.119 67.4286 106.036 67.4573 106.965 67.4201C107.886 67.4053 108.822 67.3872 109.728 67.3341C113.318 67.1875 116.825 65.8545 119.925 64L120 64.0807C117.259 66.4451 113.658 68.0373 109.805 68.3941C108.855 68.4632 107.932 68.4929 106.993 68.5237C106.064 68.5513 105.109 68.5078 104.296 68.6268C103.49 68.7447 102.65 69.1058 101.799 69.4393C100.958 69.7781 100.078 70.1435 99.1643 70.4133C97.343 70.989 95.3529 71.1186 93.4765 70.8998C91.5932 70.699 89.7685 70.2529 87.9702 69.8982C84.377 69.2449 80.5783 69.725 77.0379 70.6842L77 70.5843Z" fill="#659654" blush:i="0.0.5"/><path id="Fill 95" fill-rule="evenodd" clip-rule="evenodd" d="M86 59.9055C87.9922 58.2026 90.2427 56.8333 92.6778 55.9119C93.9029 55.4751 95.1776 55.1721 96.4822 55.0518C97.7915 54.9058 99.1169 55.0911 100.386 55.3242C102.946 55.8052 105.401 56.7033 107.751 57.686C108.921 58.1989 110.097 58.6577 111.289 59.0148C112.478 59.3669 113.709 59.5718 114.967 59.3657L115 59.4822C113.8 60.0429 112.413 60.0478 111.126 59.8528C109.825 59.6565 108.586 59.2393 107.362 58.8418C104.931 57.9952 102.636 56.875 100.2 56.2849C98.9785 56.0015 97.7615 55.7696 96.5249 55.8481C95.2906 55.9009 94.0552 56.1315 92.8509 56.4971C90.4446 57.2345 88.1375 58.443 86.0715 60L86 59.9055Z" fill="#659654" blush:i="0.0.6"/><path id="Fill 96" fill-rule="evenodd" clip-rule="evenodd" d="M92 43.0636C93.4032 42.9581 94.8154 42.9845 96.2186 43.1384C97.6195 43.2956 99.0284 43.5803 100.343 44.1618C101.009 44.4344 101.619 44.8345 102.187 45.2863C102.722 45.7063 103.228 46.1174 103.841 46.3494C105.036 46.8682 106.394 46.7759 107.761 46.5901C109.131 46.3955 110.548 46.1746 111.991 46.1361C112.718 46.124 113.417 46.1152 114.177 46.2317C114.923 46.3274 115.646 46.5571 116.329 46.844C117.682 47.4607 118.846 48.3687 119.783 49.4284C120.722 50.4881 121.491 51.6688 122 52.9516L121.898 53C121.112 51.8842 120.214 50.8509 119.213 49.9605C118.215 49.0712 117.11 48.294 115.878 47.8532C114.667 47.3585 113.384 47.2409 112 47.2244C110.639 47.1925 109.272 47.3354 107.862 47.464C106.479 47.597 104.907 47.6608 103.532 46.999C102.84 46.7033 102.277 46.2064 101.747 45.7546C101.254 45.3314 100.711 44.9357 100.094 44.6565C98.8908 44.0442 97.5365 43.6902 96.1709 43.4648C94.8029 43.2406 93.402 43.1417 92.008 43.1735L92 43.0636Z" fill="#659654" blush:i="0.0.7"/><path id="Fill 97" fill-rule="evenodd" clip-rule="evenodd" d="M127 53.9033C128.828 52.6398 130.746 51.4872 132.8 50.539C133.833 50.0794 134.901 49.6672 136.042 49.4111C136.598 49.2766 137.236 49.2174 137.785 49.1851L139.475 49.0742C140.611 48.9946 141.78 48.9526 142.96 49.0871C144.141 49.2195 145.308 49.5811 146.347 50.1365C147.379 50.7026 148.31 51.414 149.057 52.2556C149.458 52.6549 149.778 53.1112 150.125 53.5428C150.438 53.998 150.727 54.4662 151 54.9376L150.906 55C149.349 53.447 147.741 51.9639 145.811 51.0857C143.911 50.1677 141.757 49.8782 139.513 49.9341C138.385 49.9793 137.229 49.9094 136.194 50.0966C135.122 50.2839 134.063 50.6305 133.031 51.0308C130.96 51.8283 128.969 52.8518 127.066 53.9916L127 53.9033Z" fill="#659654" blush:i="0.0.8"/><path id="Fill 98" fill-rule="evenodd" clip-rule="evenodd" d="M128.05 59C129.569 59.6778 130.987 60.5766 132.273 61.6577C133.534 62.7593 134.651 64.0888 135.338 65.6825C135.48 66.0904 135.671 66.4891 135.772 66.9129L136 68.2127C135.998 69.0876 135.978 69.9875 135.66 70.8078C135.453 71.6667 134.956 72.389 134.522 73.1192C134.033 73.813 133.423 74.4156 132.835 75L132.745 74.9282C132.912 74.5398 133.105 74.1786 133.28 73.8095C133.455 73.4439 133.702 73.1192 133.82 72.733C134.064 71.972 134.454 71.2794 134.55 70.5104C134.792 69.7722 134.784 69.0158 134.861 68.2605L134.763 67.1247C134.709 66.7465 134.569 66.3831 134.477 66.0072C133.967 64.541 133.016 63.2127 131.877 62.0724C130.744 60.9218 129.432 59.9057 128 59.1037L128.05 59Z" fill="#659654" blush:i="0.0.9"/></g></g></svg>